<svg width="774" height="256" viewBox="0 0 774 256" fill="none" xmlns="http://www.w3.org/2000/svg">
<path d="M258.186 101.894L289.422 119.928L212.38 253.37L181.144 235.335L258.186 101.894ZM286.625 88.9931C280.961 85.7229 277.223 81.2325 275.411 75.5219C273.695 69.6446 274.377 64.0405 277.454 58.7095C280.532 53.3785 284.997 50.0699 290.848 48.7836C296.796 47.3308 302.602 48.2395 308.266 51.5097C313.93 54.7799 317.668 59.2703 319.48 64.981C321.388 70.525 320.851 75.8793 317.87 81.0437C314.696 86.5412 310.087 90.0997 304.043 91.7192C298.262 93.2682 292.456 92.3595 286.625 88.9931Z" fill="#3CB9D4"/>
<path d="M212.964 14.3596V253.524H168.548V151.025H44.8655V253.524H0.449219V14.3596H44.8655V113.1H168.548V14.3596H212.964Z" fill="#010A1D"/>
<path d="M546.064 0.00976562V253.524H505.065V229.949C498.004 238.605 489.234 245.096 478.757 249.424C468.507 253.752 457.118 255.916 444.59 255.916C427.051 255.916 411.221 252.043 397.099 244.299C383.205 236.555 372.271 225.621 364.299 211.499C356.327 197.15 352.341 180.75 352.341 162.3C352.341 143.85 356.327 127.564 364.299 113.442C372.271 99.3199 383.205 88.3867 397.099 80.6423C411.221 72.898 427.051 69.0258 444.59 69.0258C456.662 69.0258 467.709 71.0757 477.732 75.1757C487.754 79.2757 496.295 85.4256 503.356 93.6255V0.00976562H546.064ZM449.715 219.358C459.965 219.358 469.19 217.08 477.39 212.524C485.59 207.741 492.081 201.022 496.865 192.366C501.648 183.711 504.04 173.689 504.04 162.3C504.04 150.911 501.648 140.889 496.865 132.233C492.081 123.578 485.59 116.973 477.39 112.417C469.19 107.634 459.965 105.242 449.715 105.242C439.465 105.242 430.24 107.634 422.04 112.417C413.841 116.973 407.349 123.578 402.566 132.233C397.782 140.889 395.391 150.911 395.391 162.3C395.391 173.689 397.782 183.711 402.566 192.366C407.349 201.022 413.841 207.741 422.04 212.524C430.24 217.08 439.465 219.358 449.715 219.358Z" fill="#010A1D"/>
<path d="M773.449 163.325C773.449 166.286 773.221 170.5 772.766 175.966H629.609C632.114 189.405 638.606 200.111 649.084 208.083C659.789 215.827 673 219.699 688.717 219.699C708.761 219.699 725.275 213.094 738.258 199.883L761.149 226.191C752.949 235.985 742.586 243.388 730.058 248.399C717.53 253.41 703.408 255.916 687.692 255.916C667.647 255.916 649.995 251.93 634.734 243.957C619.473 235.985 607.629 224.938 599.201 210.816C591.001 196.466 586.901 180.294 586.901 162.3C586.901 144.533 590.887 128.589 598.859 114.467C607.059 100.117 618.334 88.9561 632.684 80.984C647.034 73.0118 663.206 69.0258 681.2 69.0258C698.967 69.0258 714.797 73.0118 728.691 80.984C742.813 88.7284 753.747 99.7755 761.491 114.125C769.463 128.247 773.449 144.647 773.449 163.325ZM681.2 103.192C667.534 103.192 655.917 107.292 646.35 115.492C637.012 123.464 631.317 134.17 629.267 147.608H732.791C730.969 134.397 725.389 123.692 716.05 115.492C706.711 107.292 695.094 103.192 681.2 103.192Z" fill="#010A1D"/>
</svg>
