<svg width="995" height="162" viewBox="0 0 995 162" fill="none" xmlns="http://www.w3.org/2000/svg">
<path d="M365.089 153.777L421.278 0.135742H452.884L509.072 153.777H479.222L466.931 118.22H407.011L394.5 153.777H365.089ZM414.693 96.271H459.249L436.861 32.4003L414.693 96.271Z" fill="#010A1D"/>
<path d="M666.798 153.777L722.986 0.135742H754.592L810.781 153.777H780.931L768.64 118.22H708.72L696.209 153.777H666.798ZM716.402 96.271H760.958L738.57 32.4003L716.402 96.271Z" fill="#010A1D"/>
<path d="M819.598 153.777V0.135742H847.693V153.777H819.598Z" fill="#010A1D"/>
<path d="M866.496 153.777V0.135742H894.591L966.802 108.343V0.135742H994.896V153.777H966.802L894.591 45.789V153.777H866.496Z" fill="#010A1D"/>
<path d="M45.4164 153.777V22.7429H0.641113V0.135742H118.506V22.7429H73.5108V153.777H45.4164Z" fill="#010A1D"/>
<path fill-rule="evenodd" clip-rule="evenodd" d="M128.343 153.777V0.135742H184.751C197.042 0.135742 207.139 2.25745 215.04 6.50087C223.088 10.598 229.088 16.2315 233.038 23.4014C236.989 30.4249 238.964 38.2533 238.964 46.8865C238.964 56.2512 236.477 64.8112 231.502 72.5664C226.673 80.3216 219.064 85.9552 208.675 89.4669L240.501 153.777H208.236L179.703 93.1982H156.437V153.777H128.343ZM182.995 72.5664H156.437V23.6208H182.776C192.433 23.6208 199.384 25.8157 203.627 30.2055C208.017 34.5952 210.212 40.4482 210.212 47.7644C210.212 55.227 208.017 61.2263 203.627 65.7623C199.237 70.2984 192.36 72.5664 182.995 72.5664Z" fill="#010A1D"/>
<path d="M288.488 153.777V99.1244L236.909 0.135742H268.734L302.755 71.03L336.556 0.135742H367.942L316.582 99.1244V153.777H288.488Z" fill="#010A1D"/>
<path d="M583.382 2.26514C597.868 2.26514 610.525 5.55744 621.353 12.142C632.181 18.7267 640.595 27.8719 646.594 39.5779C652.593 51.4302 655.593 65.1847 655.593 80.8415C655.593 96.6445 652.52 110.545 646.375 122.544C640.083 134.689 631.23 144.127 619.817 150.858C608.257 157.735 594.576 161.174 578.773 161.174C560.775 161.174 545.85 156.857 533.997 148.224C522.145 139.591 514.463 127.665 510.951 112.448H542.338C544.679 119.617 548.922 125.178 555.068 129.129C561.214 133.226 569.115 135.274 578.773 135.274C594.137 135.274 605.989 130.372 614.33 120.569C622.67 110.911 626.84 97.5956 626.84 80.622C626.84 63.6483 622.743 50.4791 614.549 41.1143C606.209 31.8959 594.942 27.2866 580.748 27.2866C566.847 27.2866 556.385 31.0179 549.361 38.4805C542.192 46.0894 537.875 56.0394 536.412 68.3307H575.261V89.4015H508.098V4.89898H533.997L536.192 25.0918C541.167 17.7755 547.386 12.142 554.849 8.19128C562.311 4.24052 571.822 2.26514 583.382 2.26514Z" fill="#010A1D"/>
</svg>
