<svg width="873" height="169" viewBox="0 0 873 169" fill="none" xmlns="http://www.w3.org/2000/svg">
<path d="M168.841 160.8C155.671 160.8 145.282 156.703 137.674 148.509C130.211 140.315 126.48 128.097 126.48 111.855V49.3008H149.745V109.44C149.745 130.511 158.379 141.046 175.645 141.046C184.278 141.046 191.375 137.974 196.935 131.828C202.495 125.682 205.276 116.903 205.276 105.489V49.3008H228.541V158.166H207.909L206.153 139.071C202.788 145.802 197.813 151.143 191.228 155.094C184.79 158.898 177.328 160.8 168.841 160.8Z" fill="#010A1D"/>
<path d="M309.059 160.8C298.377 160.8 288.866 158.459 280.525 153.777C272.331 148.948 265.893 142.29 261.21 133.803C256.528 125.316 254.187 115.44 254.187 104.173C254.187 92.7592 256.455 82.736 260.991 74.1028C265.673 65.4697 272.112 58.7388 280.306 53.91C288.646 49.0813 298.304 46.667 309.278 46.667C319.96 46.667 329.251 49.0813 337.153 53.91C345.054 58.5924 351.2 64.8844 355.59 72.7859C359.98 80.6875 362.174 89.3938 362.174 98.9049C362.174 100.368 362.101 101.978 361.955 103.734C361.955 105.343 361.882 107.172 361.735 109.221H277.013C277.745 119.756 281.184 127.804 287.329 133.364C293.621 138.778 300.864 141.485 309.059 141.485C315.643 141.485 321.13 140.022 325.52 137.096C330.056 134.023 333.422 129.926 335.616 124.804H358.882C355.956 135.047 350.103 143.607 341.323 150.484C332.69 157.362 321.935 160.8 309.059 160.8ZM309.059 65.7623C301.303 65.7623 294.426 68.1035 288.427 72.7859C282.427 77.322 278.769 84.1992 277.452 93.4177H338.909C338.47 84.9309 335.47 78.1999 329.91 73.2249C324.349 68.2499 317.399 65.7623 309.059 65.7623Z" fill="#010A1D"/>
<path d="M429.773 160.8C416.018 160.8 404.678 157.435 395.752 150.704C386.827 143.973 381.705 135.047 380.388 123.926H403.873C405.044 128.901 407.824 133.218 412.214 136.876C416.604 140.388 422.384 142.144 429.553 142.144C436.577 142.144 441.698 140.681 444.918 137.754C448.137 134.828 449.746 131.462 449.746 127.658C449.746 122.097 447.478 118.366 442.942 116.464C438.552 114.415 432.407 112.586 424.505 110.977C418.36 109.66 412.214 107.904 406.068 105.709C400.069 103.514 395.021 100.441 390.924 96.4905C386.973 92.3934 384.998 86.9062 384.998 80.029C384.998 70.5179 388.656 62.6164 395.972 56.3244C403.288 49.8861 413.531 46.667 426.7 46.667C438.845 46.667 448.649 49.5935 456.111 55.4465C463.72 61.2994 468.183 69.5668 469.5 80.2485H447.112C446.381 75.5661 444.186 71.908 440.528 69.2741C437.016 66.6403 432.26 65.3234 426.261 65.3234C420.408 65.3234 415.872 66.5671 412.653 69.0546C409.434 71.3958 407.824 74.4687 407.824 78.2731C407.824 82.0775 410.019 85.0772 414.409 87.2721C418.945 89.4669 424.871 91.4423 432.187 93.1982C439.504 94.8078 446.234 96.71 452.38 98.9049C458.672 100.953 463.72 104.026 467.525 108.123C471.329 112.22 473.231 118.22 473.231 126.121C473.378 136.071 469.5 144.339 461.599 150.923C453.843 157.508 443.235 160.8 429.773 160.8Z" fill="#010A1D"/>
<path d="M540.211 158.166C529.529 158.166 521.042 155.606 514.75 150.484C508.458 145.217 505.312 135.925 505.312 122.609V68.8352H486.656V49.3008H505.312L508.166 21.6455H528.578V49.3008H559.306V68.8352H528.578V122.609C528.578 128.609 529.822 132.779 532.309 135.12C534.943 137.315 539.406 138.413 545.698 138.413H558.209V158.166H540.211Z" fill="#010A1D"/>
<path d="M596.465 28.669C592.075 28.669 588.417 27.3521 585.49 24.7183C582.71 21.9381 581.32 18.4995 581.32 14.4024C581.32 10.3053 582.71 6.93984 585.49 4.30599C588.417 1.52583 592.075 0.135742 596.465 0.135742C600.854 0.135742 604.439 1.52583 607.22 4.30599C610.146 6.93984 611.609 10.3053 611.609 14.4024C611.609 18.4995 610.146 21.9381 607.22 24.7183C604.439 27.3521 600.854 28.669 596.465 28.669ZM584.832 158.166V49.3008H608.097V158.166H584.832Z" fill="#010A1D"/>
<path d="M689.731 160.8C679.342 160.8 669.977 158.459 661.637 153.777C653.443 148.948 646.931 142.29 642.103 133.803C637.274 125.17 634.859 115.147 634.859 103.734C634.859 92.3203 637.274 82.3702 642.103 73.8834C647.078 65.2502 653.735 58.5924 662.076 53.91C670.416 49.0813 679.708 46.667 689.951 46.667C700.34 46.667 709.631 49.0813 717.826 53.91C726.166 58.5924 732.751 65.2502 737.579 73.8834C742.554 82.3702 745.042 92.3203 745.042 103.734C745.042 115.147 742.554 125.17 737.579 133.803C732.751 142.29 726.166 148.948 717.826 153.777C709.485 158.459 700.12 160.8 689.731 160.8ZM689.731 140.827C695.292 140.827 700.413 139.437 705.095 136.657C709.924 133.876 713.802 129.779 716.728 124.365C719.655 118.805 721.118 111.928 721.118 103.734C721.118 95.5394 719.655 88.7353 716.728 83.3213C713.948 77.761 710.144 73.5907 705.315 70.8105C700.632 68.0304 695.511 66.6403 689.951 66.6403C684.39 66.6403 679.196 68.0304 674.367 70.8105C669.685 73.5907 665.88 77.761 662.954 83.3213C660.027 88.7353 658.564 95.5394 658.564 103.734C658.564 111.928 660.027 118.805 662.954 124.365C665.88 129.779 669.685 133.876 674.367 136.657C679.05 139.437 684.171 140.827 689.731 140.827Z" fill="#010A1D"/>
<path d="M770.202 158.166V49.3008H790.834L792.59 68.3962C795.955 61.6653 800.857 56.3976 807.296 52.5931C813.88 48.6424 821.416 46.667 829.903 46.667C843.072 46.667 853.388 50.7641 860.85 58.9582C868.459 67.1524 872.264 79.3705 872.264 95.6126V158.166H849.218V98.0269C849.218 76.9562 840.585 66.4208 823.318 66.4208C814.685 66.4208 807.515 69.4936 801.808 75.6393C796.248 81.7849 793.468 90.5644 793.468 101.978V158.166H770.202Z" fill="#010A1D"/>
<path d="M74.6441 121.648L75.522 85.8712H67.1815C59.28 85.8712 52.0369 85.1396 45.4523 83.6763C38.7214 82.2131 33.3806 79.3597 29.4298 75.1163C25.3327 70.8729 23.2842 64.5809 23.2842 56.2404C23.2842 48.1926 25.7717 41.9006 30.7467 37.3646C35.7217 32.6822 42.2332 30.341 50.281 30.341C58.6215 30.341 65.2062 32.609 70.0349 37.1451C74.8636 41.6811 77.2779 47.8268 77.2779 55.582H99.2266C99.373 46.8025 97.4707 39.0473 93.52 32.3164C89.4229 25.5854 83.7162 20.3177 76.4 16.5133C68.9374 12.7089 60.2311 10.8066 50.281 10.8066C40.6236 10.8066 32.0636 12.6357 24.6011 16.2938C17.1385 19.9519 11.3587 25.2196 7.2616 32.0969C3.01819 38.8278 0.896484 46.9488 0.896484 56.4599C0.896484 66.849 3.16452 75.409 7.70058 82.1399C12.2366 88.7245 18.4554 93.6264 26.357 96.8455C34.2585 99.9183 43.3306 101.455 53.5733 101.455L54.2318 121.648H74.6441ZM64.3282 168.398C68.8643 168.398 72.5224 167.008 75.3026 164.228C78.0827 161.302 79.4728 157.863 79.4728 153.912C79.4728 149.815 78.0827 146.376 75.3026 143.596C72.5224 140.67 68.8643 139.206 64.3282 139.206C60.0848 139.206 56.573 140.67 53.7928 143.596C50.8663 146.376 49.4031 149.815 49.4031 153.912C49.4031 157.863 50.8663 161.302 53.7928 164.228C56.573 167.008 60.0848 168.398 64.3282 168.398Z" fill="#010A1D"/>
</svg>
