<svg width="548" height="149" viewBox="0 0 548 149" fill="none" xmlns="http://www.w3.org/2000/svg">
<path d="M99.7085 0.135742H0.263672V146.125H22.203V80.3067H92.122V61.0329H22.203V19.8197H99.7085V0.135742Z" fill="#010A1D"/>
<path d="M202.404 130.337C198.508 130.337 196.662 128.696 196.662 125.006V69.0295C196.662 48.3203 182.72 37.8633 154.834 37.8633C126.333 37.8633 111.365 49.7556 109.93 73.3353H130.229C130.639 66.3639 132.895 61.443 136.585 58.5724C140.276 55.7018 146.222 54.2665 154.834 54.2665C162.626 54.2665 168.162 55.4968 171.442 57.9573C174.723 60.4178 176.568 64.1085 176.568 69.4396C176.568 73.5404 175.133 76.616 172.673 78.6664C170.212 80.7168 166.111 82.1521 160.78 82.7672L145.197 84.4075C118.542 87.2781 105.419 98.1453 105.419 117.214C105.419 127.056 108.7 134.848 115.466 140.384C122.233 145.92 131.459 148.585 143.147 148.585C158.935 148.585 170.417 143.049 177.594 131.772C178.209 137.103 180.054 140.794 183.335 143.254C186.615 145.715 191.536 146.74 198.098 146.74C201.788 146.74 205.069 146.535 208.145 146.125V130.337H202.404ZM146.222 132.592C139.661 132.592 134.74 131.362 131.459 128.491C128.179 125.621 126.538 121.725 126.538 116.599C126.538 111.678 128.179 107.782 131.664 104.912C134.945 102.041 140.686 100.196 148.683 99.1705L163.446 97.5302C169.597 96.915 173.903 95.4797 176.568 93.2243V104.297C176.568 113.318 173.698 120.29 167.957 125.211C162.216 130.132 154.834 132.592 146.222 132.592Z" fill="#010A1D"/>
<path d="M440.39 37.8633C426.242 37.8633 415.17 44.0145 407.174 56.1119V40.3237H387.49V146.125H407.994V86.4579C407.994 76.616 410.659 69.0295 416.195 63.6984C421.527 58.5724 427.678 55.9069 434.649 55.9069C449.412 55.9069 456.999 63.2883 456.999 78.0513V146.125H477.503V75.1807C477.503 63.2883 474.222 54.2665 467.661 47.7052C461.099 41.1439 451.873 37.8633 440.39 37.8633Z" fill="#010A1D"/>
<path d="M547.053 40.3237H525.729V9.9777H505.225V40.3237H488.206V57.1371H505.225V122.545C505.225 131.157 507.48 137.308 512.401 140.999C517.117 144.895 524.499 146.74 534.546 146.74C538.236 146.74 542.542 146.535 547.053 146.125V129.722H537.826C533.315 129.722 530.24 129.106 528.394 127.671C526.549 126.236 525.729 123.98 525.729 120.7V57.1371H547.053V40.3237Z" fill="#010A1D"/>
<path d="M248.19 124.961H226.251V145.875H248.19V124.961ZM368.959 125.166H263.158V145.67H368.959V125.166Z" fill="#010A1D"/>
</svg>
