<svg width="921" height="399" viewBox="0 0 921 399" fill="none" xmlns="http://www.w3.org/2000/svg">
<path d="M64.7675 25.0777H28.8151V168.887H57.577V190.459H28.8151V391.792H0.0532227V3.50628H64.7675V25.0777Z" fill="#010A1D"/>
<path d="M165.434 391.792H136.672L133.077 298.316H111.73L107.91 391.792H79.1485L100.72 3.50628H143.863L165.434 391.792ZM122.291 17.8872L115.101 190.459L111.73 276.744H133.077L122.291 17.8872Z" fill="#010A1D"/>
<path d="M273.291 161.697H244.529V39.4586C244.529 35.8634 244.08 32.9423 243.181 30.6953C242.432 28.2984 241.383 26.5008 240.035 25.3024C238.687 23.9542 237.114 23.0554 235.316 22.606C233.669 22.0068 231.946 21.7072 230.148 21.7072C228.351 21.7072 226.553 22.0068 224.755 22.606C223.108 23.0554 221.61 23.9542 220.261 25.3024C218.913 26.5008 217.79 28.2984 216.891 30.6953C216.142 32.9423 215.767 35.8634 215.767 39.4586V355.84C215.767 357.637 215.842 359.809 215.992 362.356C216.142 364.753 216.666 367.075 217.565 369.322C218.464 371.569 219.887 373.516 221.834 375.164C223.782 376.662 226.553 377.411 230.148 377.411C233.744 377.411 236.515 376.662 238.462 375.164C240.41 373.516 241.833 371.569 242.732 369.322C243.63 367.075 244.155 364.753 244.305 362.356C244.454 359.809 244.529 357.637 244.529 355.84V204.84H273.291V355.84C273.291 357.637 273.067 360.933 272.617 365.726C272.168 370.37 270.595 375.164 267.898 380.107C265.202 385.051 260.933 389.395 255.09 393.14C249.248 397.035 240.934 398.982 230.148 398.982C219.363 398.982 211.049 397.035 205.206 393.14C199.364 389.395 195.095 385.051 192.398 380.107C189.702 375.164 188.129 370.37 187.68 365.726C187.23 360.933 187.005 357.637 187.005 355.84V39.4586C187.005 32.5678 188.279 26.6506 190.825 21.7072C193.372 16.6139 196.668 12.4944 200.712 9.34854C204.907 6.20271 209.551 3.88078 214.644 2.38277C219.737 0.88475 224.905 0.135742 230.148 0.135742C235.691 0.135742 241.009 0.959651 246.102 2.60747C251.345 4.25528 255.989 6.72701 260.034 10.0226C264.078 13.3183 267.299 17.4378 269.696 22.3813C272.093 27.3247 273.291 33.0172 273.291 39.4586V161.697Z" fill="#010A1D"/>
<path d="M381.148 3.50628V25.0777H352.386V391.792H323.625V25.0777H294.863V3.50628H381.148Z" fill="#010A1D"/>
<path d="M489.005 355.84C489.005 357.637 488.781 360.933 488.331 365.726C487.882 370.37 486.309 375.164 483.613 380.107C480.916 385.051 476.647 389.395 470.805 393.14C464.962 397.035 456.648 398.982 445.863 398.982C435.077 398.982 426.763 397.035 420.921 393.14C415.078 389.395 410.809 385.051 408.113 380.107C405.416 375.164 403.843 370.37 403.394 365.726C402.944 360.933 402.72 357.637 402.72 355.84V39.4586C402.72 38.2602 402.795 36.4626 402.944 34.0658C403.094 31.669 403.544 29.0474 404.293 26.2012C405.042 23.2052 406.315 20.2092 408.113 17.2131C409.91 14.0673 412.382 11.2211 415.528 8.67443C418.674 6.1278 422.718 4.10548 427.662 2.60747C432.605 0.959651 438.672 0.135742 445.863 0.135742C453.053 0.135742 459.12 0.959651 464.064 2.60747C469.007 4.10548 473.052 6.1278 476.197 8.67443C479.343 11.2211 481.815 14.0673 483.613 17.2131C485.41 20.2092 486.684 23.2052 487.433 26.2012C488.182 29.0474 488.631 31.669 488.781 34.0658C488.931 36.4626 489.005 38.2602 489.005 39.4586V355.84ZM431.482 355.84C431.482 357.637 431.557 359.809 431.706 362.356C431.856 364.753 432.38 367.075 433.279 369.322C434.178 371.569 435.601 373.516 437.549 375.164C439.496 376.662 442.267 377.411 445.863 377.411C449.458 377.411 452.229 376.662 454.177 375.164C456.124 373.516 457.547 371.569 458.446 369.322C459.345 367.075 459.869 364.753 460.019 362.356C460.169 359.809 460.244 357.637 460.244 355.84V39.4586C460.244 37.661 460.169 35.7136 460.019 33.6164C459.869 31.5192 459.345 29.6466 458.446 27.9988C457.547 26.2012 456.124 24.7032 454.177 23.5048C452.229 22.3064 449.458 21.7072 445.863 21.7072C442.267 21.7072 439.496 22.3064 437.549 23.5048C435.601 24.7032 434.178 26.2012 433.279 27.9988C432.38 29.6466 431.856 31.5192 431.706 33.6164C431.557 35.7136 431.482 37.661 431.482 39.4586V355.84Z" fill="#010A1D"/>
<path d="M604.053 161.697C604.053 172.482 602.255 179.973 598.66 184.167C595.065 188.361 589.672 190.459 582.482 190.459C586.077 190.459 589.223 191.283 591.919 192.93C594.616 194.578 596.863 196.75 598.66 199.447C600.458 202.143 601.806 205.214 602.705 208.659C603.604 212.105 604.053 215.625 604.053 219.221V391.792H575.291V212.03C575.291 208.435 574.467 205.663 572.819 203.716C571.172 201.769 568.999 200.346 566.303 199.447C563.607 198.548 560.536 198.024 557.09 197.874C553.645 197.724 550.124 197.649 546.529 197.649V391.792H517.767V3.50628H546.529C553.72 3.50628 560.76 3.73098 567.651 4.18038C574.542 4.47999 580.684 5.7533 586.077 8.00032C591.47 10.2473 595.814 13.8426 599.11 18.786C602.405 23.5797 604.053 30.4706 604.053 39.4586V161.697ZM575.291 39.4586C575.291 35.8634 574.767 33.0921 573.718 31.1447C572.819 29.1972 571.246 27.7741 568.999 26.8753C566.752 25.9765 563.756 25.4522 560.011 25.3024C556.416 25.1526 551.922 25.0777 546.529 25.0777V183.268C550.124 183.268 553.645 183.193 557.09 183.043C560.536 182.894 563.607 182.369 566.303 181.471C568.999 180.572 571.172 179.149 572.819 177.201C574.467 175.254 575.291 172.482 575.291 168.887V39.4586Z" fill="#010A1D"/>
<path d="M665.172 3.50628V391.792H636.41V3.50628H665.172Z" fill="#010A1D"/>
<path d="M776.624 391.792H747.863L744.267 298.316H722.921L719.101 391.792H690.339L711.91 3.50628H755.053L776.624 391.792ZM733.482 17.8872L726.291 190.459L722.921 276.744H744.267L733.482 17.8872Z" fill="#010A1D"/>
<path d="M826.958 3.50628V370.22H855.72V391.792H798.196V3.50628H826.958Z" fill="#010A1D"/>
<path d="M920.434 3.50628L906.053 334.268H891.672L877.291 3.50628H920.434ZM913.243 355.84V391.792H884.482V355.84H913.243Z" fill="#010A1D"/>
</svg>
