<svg width="574" height="255" viewBox="0 0 574 255" fill="none" xmlns="http://www.w3.org/2000/svg">
<path d="M0.434082 128.859L30.2296 124.172C31.9035 136.112 36.5346 145.263 44.123 151.624C51.8229 157.985 62.5359 161.165 76.2619 161.165C90.0995 161.165 100.366 158.375 107.062 152.796C113.757 147.104 117.105 140.465 117.105 132.876C117.105 126.069 114.148 120.713 108.233 116.807C104.104 114.129 93.8379 110.725 77.4336 106.596C55.3381 101.016 39.994 96.2178 31.4013 92.2004C22.9202 88.0715 16.4478 82.436 11.984 75.294C7.63186 68.0404 5.45579 60.0615 5.45579 51.3572C5.45579 43.434 7.24129 36.1247 10.8123 29.429C14.4949 22.6218 19.4608 16.9864 25.71 12.5226C30.3969 9.06323 36.7578 6.16179 44.7925 3.81833C52.9388 1.36327 61.6431 0.135742 70.9054 0.135742C84.8546 0.135742 97.0741 2.14443 107.564 6.16179C118.165 10.1792 125.977 15.6472 130.999 22.566C136.02 29.3732 139.48 38.5239 141.377 50.0181L111.916 54.0354C110.577 44.8847 106.671 37.7428 100.199 32.6095C93.8379 27.4762 84.7988 24.9095 73.0815 24.9095C59.2439 24.9095 49.3678 27.1972 43.4534 31.7725C37.5389 36.3478 34.5817 41.7043 34.5817 47.842C34.5817 51.7478 35.8092 55.2629 38.2643 58.3876C40.7193 61.6238 44.5693 64.302 49.8142 66.4223C52.8272 67.5382 61.6989 70.1049 76.4293 74.1223C97.7436 79.8135 112.586 84.5005 120.955 88.183C129.436 91.754 136.076 96.9989 140.875 103.918C145.673 110.837 148.072 119.429 148.072 129.696C148.072 139.739 145.115 149.225 139.201 158.152C133.398 166.968 124.972 173.831 113.925 178.741C102.877 183.54 90.3785 185.939 76.4293 185.939C53.3294 185.939 35.6976 181.14 23.5339 171.543C11.4818 161.946 3.78189 147.718 0.434082 128.859Z" fill="#010A1D"/>
<path d="M143.131 250.384L139.783 222.095C146.367 223.881 152.114 224.774 157.024 224.774C163.72 224.774 169.076 223.658 173.094 221.426C177.111 219.194 180.403 216.069 182.97 212.052C184.867 209.039 187.936 201.562 192.176 189.622C192.734 187.948 193.627 185.493 194.855 182.256L127.396 4.15311H159.87L196.863 107.098C201.662 120.155 205.958 133.881 209.752 148.276C213.212 134.439 217.341 120.936 222.139 107.768L260.137 4.15311H290.267L222.641 184.935C215.388 204.463 209.752 217.911 205.735 225.276C200.378 235.208 194.241 242.461 187.322 247.036C180.403 251.723 172.145 254.067 162.548 254.067C156.745 254.067 150.273 252.839 143.131 250.384Z" fill="#010A1D"/>
<path d="M276.454 181.922V4.15311H303.571V29.429C316.628 9.90018 335.487 0.135742 360.149 0.135742C370.862 0.135742 380.682 2.08863 389.61 5.9944C398.649 9.78858 405.4 14.8103 409.864 21.0595C414.328 27.3088 417.452 34.7297 419.238 43.3224C420.354 48.9021 420.912 58.6665 420.912 72.6157V181.922H390.782V73.7875C390.782 61.5122 389.61 52.3615 387.266 46.3355C384.923 40.1978 380.738 35.3435 374.712 31.7725C368.798 28.0899 361.823 26.2486 353.788 26.2486C340.955 26.2486 329.851 30.3218 320.478 38.4681C311.215 46.6144 306.584 62.0702 306.584 84.8352V181.922H276.454Z" fill="#010A1D"/>
<path d="M543.857 116.807L573.485 120.657C570.249 141.078 561.935 157.092 548.544 168.698C535.264 180.192 518.915 185.939 499.498 185.939C475.171 185.939 455.586 178.016 440.744 162.17C426.014 146.212 418.649 123.391 418.649 93.7069C418.649 74.5128 421.829 57.718 428.19 43.3224C434.551 28.9269 444.204 18.1581 457.148 11.0161C470.205 3.76253 484.377 0.135742 499.666 0.135742C518.971 0.135742 534.762 5.04586 547.037 14.8661C559.312 24.5747 567.18 38.4123 570.639 56.3789L541.346 60.8984C538.556 48.9579 533.59 39.9746 526.448 33.9486C519.418 27.9225 510.881 24.9095 500.837 24.9095C485.661 24.9095 473.33 30.3776 463.844 41.3138C454.359 52.1383 449.616 69.3237 449.616 92.87C449.616 116.751 454.191 134.104 463.342 144.928C472.493 155.753 484.433 161.165 499.163 161.165C510.992 161.165 520.868 157.538 528.792 150.285C536.715 143.031 541.736 131.872 543.857 116.807Z" fill="#010A1D"/>
</svg>
