<svg width="806" height="214" viewBox="0 0 806 214" fill="none" xmlns="http://www.w3.org/2000/svg">
<path d="M85.173 213.479C60.9764 213.479 41.1076 207.774 25.5667 196.364C10.0258 184.758 1.66519 168.233 0.484863 146.791H62.1567C62.7469 154.069 64.9108 159.381 68.6485 162.725C72.3862 166.069 77.2058 167.741 83.1074 167.741C88.4189 167.741 92.7467 166.463 96.091 163.905C99.6319 161.151 101.402 157.414 101.402 152.692C101.402 146.594 98.55 141.873 92.8451 138.529C87.1402 135.184 77.8943 131.447 65.1075 127.315C51.5338 122.791 40.5175 118.463 32.0585 114.332C23.7962 110.004 16.5176 103.807 10.2225 95.7418C4.12419 87.4796 1.07502 76.7583 1.07502 63.5781C1.07502 50.2011 4.41927 38.7913 11.1078 29.3487C17.7963 19.7094 27.0421 12.4308 38.8453 7.51275C50.6486 2.59474 64.0255 0.135742 78.9763 0.135742C103.173 0.135742 122.451 5.84063 136.812 17.2504C151.369 28.4635 159.14 44.2995 160.123 64.7584H97.2713C97.0746 58.4633 95.1074 53.742 91.3697 50.5945C87.8287 47.447 83.2058 45.8732 77.5009 45.8732C73.173 45.8732 69.6321 47.1519 66.878 49.7093C64.1239 52.2666 62.7469 55.906 62.7469 60.6272C62.7469 64.5617 64.2223 68.0043 67.1731 70.9551C70.3206 73.7092 74.1566 76.1682 78.6812 78.3321C83.2058 80.2993 89.8943 82.8567 98.7467 86.0042C111.927 90.5287 122.747 95.0533 131.206 99.5779C139.861 103.906 147.238 110.102 153.337 118.168C159.632 126.037 162.779 136.07 162.779 148.266C162.779 160.66 159.632 171.774 153.337 181.61C147.238 191.446 138.287 199.217 126.484 204.922C114.878 210.627 101.107 213.479 85.173 213.479Z" fill="#010A1D"/>
<path d="M375.862 3.38162V211.413H318.026V127.906H247.502V211.413H189.666V3.38162H247.502V81.578H318.026V3.38162H375.862Z" fill="#010A1D"/>
<path d="M508.697 213.479C489.221 213.479 471.32 208.954 454.992 199.905C438.664 190.659 425.681 177.971 416.041 161.84C406.599 145.512 401.877 127.119 401.877 106.66C401.877 86.2009 406.599 67.9059 416.041 51.7748C425.681 35.447 438.664 22.7586 454.992 13.7094C471.32 4.66031 489.221 0.135742 508.697 0.135742C528.369 0.135742 546.27 4.66031 562.401 13.7094C578.729 22.7586 591.614 35.447 601.057 51.7748C610.499 67.9059 615.221 86.2009 615.221 106.66C615.221 127.119 610.499 145.512 601.057 161.84C591.614 177.971 578.729 190.659 562.401 199.905C546.073 208.954 528.172 213.479 508.697 213.479ZM508.697 159.774C523.451 159.774 535.057 154.955 543.516 145.315C552.172 135.676 556.5 122.791 556.5 106.66C556.5 90.1353 552.172 77.1518 543.516 67.7092C535.057 58.0699 523.451 53.2502 508.697 53.2502C493.746 53.2502 482.041 58.0699 473.582 67.7092C465.123 77.1518 460.894 90.1353 460.894 106.66C460.894 122.988 465.123 135.971 473.582 145.61C482.041 155.053 493.746 159.774 508.697 159.774Z" fill="#010A1D"/>
<path d="M805.58 72.7256C805.58 85.3157 802.629 96.8238 796.727 107.25C791.023 117.479 782.268 125.742 770.465 132.037C758.859 138.135 744.597 141.184 727.679 141.184H699.056V211.413H641.22V3.38162H727.679C744.4 3.38162 758.564 6.33243 770.17 12.234C781.973 18.1357 790.826 26.2995 796.727 36.7257C802.629 47.1519 805.58 59.1518 805.58 72.7256ZM722.072 95.1517C738.4 95.1517 746.564 87.6763 746.564 72.7256C746.564 57.5781 738.4 50.0043 722.072 50.0043H699.056V95.1517H722.072Z" fill="#010A1D"/>
<path d="M282.88 110.007C294.264 110.007 303.162 118.363 303.162 128.283C303.162 138.202 294.264 146.558 282.88 146.558C271.497 146.558 262.599 138.202 262.599 128.283C262.599 118.363 271.497 110.007 282.88 110.007Z" stroke="white" stroke-width="4.01167"/>
</svg>
