<svg width="1007" height="223" viewBox="0 0 1007 223" fill="none" xmlns="http://www.w3.org/2000/svg">
<path d="M214.218 54.7256C226.415 54.7256 237.333 57.283 246.972 62.3977C256.808 67.3158 264.48 75.0862 269.989 85.7091C275.694 96.332 278.546 110.102 278.546 127.02V219.086H211.858V138.529C211.858 128.496 210.186 121.414 206.841 117.283C203.497 112.955 199.169 110.791 193.858 110.791C189.923 110.791 186.382 111.775 183.235 113.742C180.087 115.709 177.53 118.856 175.563 123.184C173.792 127.315 172.907 133.02 172.907 140.299V219.086H106.219V138.529C106.219 128.496 104.645 121.414 101.498 117.283C98.3501 112.955 93.9239 110.791 88.219 110.791C84.2846 110.791 80.7436 111.775 77.5961 113.742C74.4486 115.709 71.8912 118.856 69.924 123.184C68.1535 127.315 67.2683 133.02 67.2683 140.299V219.086H0.580078V57.6764H64.0224V104.004L51.0389 91.0206C57.1372 78.8239 65.3011 69.7748 75.5305 63.8731C85.76 57.7748 97.1698 54.7256 109.76 54.7256C123.924 54.7256 136.415 58.4633 147.235 65.9387C158.251 73.2174 165.628 84.8239 169.366 100.758L149.006 97.5123C154.907 84.1353 163.465 73.7092 174.678 66.2338C186.087 58.5617 199.268 54.7256 214.218 54.7256Z" fill="#010A1D"/>
<path d="M355.573 222.036C342.787 222.036 331.18 219.479 320.754 214.364C310.525 209.053 302.459 200.889 296.557 189.873C290.656 178.659 287.705 164.299 287.705 146.791V57.6764H354.393V135.283C354.393 146.692 356.262 154.66 360 159.184C363.737 163.709 368.852 165.971 375.344 165.971C379.278 165.971 382.918 164.987 386.262 163.02C389.803 160.856 392.655 157.414 394.819 152.692C396.983 147.774 398.065 141.381 398.065 133.512V57.6764H464.753V219.086H401.311V172.463L413.999 185.151C408.295 197.741 400.131 207.086 389.508 213.184C379.082 219.086 367.77 222.036 355.573 222.036Z" fill="#010A1D"/>
<path d="M587.283 54.7256C599.677 54.7256 610.89 57.283 620.922 62.3977C630.955 67.3158 638.824 75.0862 644.529 85.7091C650.43 96.332 653.381 110.102 653.381 127.02V219.086H586.693V138.529C586.693 128.496 584.923 121.414 581.382 117.283C577.841 112.955 573.021 110.791 566.923 110.791C562.398 110.791 558.169 111.873 554.234 114.037C550.496 116.004 547.447 119.348 545.087 124.07C542.923 128.791 541.841 135.184 541.841 143.25V219.086H475.153V57.6764H538.595V104.889L525.906 91.3156C532.201 79.119 540.66 69.9715 551.283 63.8731C562.103 57.7748 574.103 54.7256 587.283 54.7256Z" fill="#010A1D"/>
<path d="M752.798 222.036C734.306 222.036 717.88 218.495 703.52 211.413C689.159 204.331 677.848 194.495 669.585 181.905C661.52 169.119 657.487 154.561 657.487 138.233C657.487 121.906 661.52 107.447 669.585 94.8566C677.848 82.2665 689.159 72.4305 703.52 65.3485C717.88 58.2666 734.306 54.7256 752.798 54.7256C772.47 54.7256 789.29 58.9551 803.257 67.4141C817.224 75.8731 826.863 87.5779 832.175 102.529L780.536 127.906C777.191 120.43 773.06 115.02 768.142 111.676C763.421 108.332 758.208 106.66 752.503 106.66C747.585 106.66 742.962 107.84 738.634 110.201C734.503 112.561 731.159 116.102 728.601 120.824C726.241 125.348 725.06 131.152 725.06 138.233C725.06 145.315 726.241 151.217 728.601 155.938C731.159 160.66 734.503 164.201 738.634 166.561C742.962 168.922 747.585 170.102 752.503 170.102C758.208 170.102 763.421 168.43 768.142 165.086C773.06 161.742 777.191 156.332 780.536 148.856L832.175 174.233C826.863 189.184 817.224 200.889 803.257 209.348C789.29 217.807 772.47 222.036 752.798 222.036Z" fill="#010A1D"/>
<path d="M940.538 54.7256C952.932 54.7256 964.145 57.283 974.178 62.3977C984.21 67.3158 992.079 75.0862 997.784 85.7091C1003.69 96.332 1006.64 110.102 1006.64 127.02V219.086H939.948V138.529C939.948 128.496 938.178 121.414 934.637 117.283C931.096 112.955 926.276 110.791 920.178 110.791C915.653 110.791 911.424 111.873 907.489 114.037C903.752 116.004 900.703 119.348 898.342 124.07C896.178 128.791 895.096 135.184 895.096 143.25V219.086H828.408V0.135742H895.096V104.889L879.162 91.3156C885.457 79.119 893.916 69.9715 904.539 63.8731C915.358 57.7748 927.358 54.7256 940.538 54.7256Z" fill="#010A1D"/>
</svg>
