<svg width="774" height="221" viewBox="0 0 774 221" fill="none" xmlns="http://www.w3.org/2000/svg">
<path d="M109.302 220.163C95.7283 220.163 83.4333 217.015 72.417 210.72C61.5974 204.425 52.9417 195.376 46.4499 183.573C40.1548 171.77 37.0073 157.901 37.0073 141.966C37.0073 125.639 40.1548 111.671 46.4499 100.065C52.9417 88.4585 61.5974 79.5077 72.417 73.2126C83.4333 66.9176 95.7283 63.7701 109.302 63.7701C123.859 63.7701 136.843 67.1143 148.253 73.8028C159.859 80.2946 168.908 89.4421 175.4 101.245C182.089 112.852 185.433 126.425 185.433 141.966C185.433 157.311 182.089 170.884 175.4 182.688C168.908 194.491 159.859 203.737 148.253 210.425C136.843 216.917 123.859 220.163 109.302 220.163ZM31.9909 218.982V0.0326514H46.745V114.819L43.7942 141.671L46.1548 168.524V218.982H31.9909ZM108.417 206.884C120.22 206.884 130.843 204.228 140.286 198.917C149.728 193.409 157.105 185.737 162.417 175.901C167.925 166.065 170.679 154.753 170.679 141.966C170.679 128.983 167.925 117.671 162.417 108.032C157.105 98.1961 149.728 90.6224 140.286 85.3109C130.843 79.8028 120.22 77.0487 108.417 77.0487C96.6136 77.0487 85.9907 79.8028 76.5481 85.3109C67.3022 90.6224 59.9252 98.1961 54.4171 108.032C49.1056 117.671 46.4499 128.983 46.4499 141.966C46.4499 154.753 49.1056 166.065 54.4171 175.901C59.9252 185.737 67.3022 193.409 76.5481 198.917C85.9907 204.228 96.6136 206.884 108.417 206.884ZM293.67 220.163C278.129 220.163 264.358 216.818 252.358 210.13C240.555 203.442 231.211 194.196 224.326 182.392C217.637 170.589 214.293 157.114 214.293 141.966C214.293 126.622 217.441 113.147 223.736 101.54C230.227 89.7371 239.08 80.4913 250.293 73.8028C261.506 67.1143 274.096 63.7701 288.063 63.7701C302.03 63.7701 314.522 67.0159 325.538 73.5077C336.752 79.9995 345.506 89.147 351.801 100.95C358.292 112.557 361.538 126.032 361.538 141.376C361.538 141.966 361.44 142.655 361.243 143.442C361.243 144.032 361.243 144.72 361.243 145.507H225.211V133.999H353.276L347.374 139.606C347.571 127.606 345.014 116.885 339.702 107.442C334.588 97.8027 327.604 90.3273 318.752 85.0159C309.899 79.5077 299.67 76.7536 288.063 76.7536C276.653 76.7536 266.424 79.5077 257.375 85.0159C248.522 90.3273 241.539 97.8027 236.424 107.442C231.309 116.885 228.752 127.704 228.752 139.901V142.557C228.752 155.147 231.506 166.36 237.014 176.196C242.719 185.835 250.49 193.409 260.326 198.917C270.162 204.228 281.375 206.884 293.965 206.884C303.801 206.884 312.948 205.114 321.407 201.573C330.063 198.032 337.342 192.622 343.243 185.343L351.801 195.081C345.112 203.343 336.653 209.638 326.424 213.966C316.391 218.097 305.473 220.163 293.67 220.163ZM482.427 63.7701C495.017 63.7701 505.935 66.2291 515.181 71.1471C524.623 75.8684 531.902 83.147 537.017 92.983C542.328 102.622 544.984 114.622 544.984 128.983V218.982H530.23V130.163C530.23 112.852 525.804 99.6715 516.951 90.6224C508.296 81.5732 496.099 77.0487 480.361 77.0487C468.361 77.0487 457.935 79.5077 449.083 84.4257C440.23 89.3437 433.443 96.2289 428.722 105.081C424.198 113.934 421.935 124.557 421.935 136.95V218.982H407.181V64.9504H421.345V107.737L419.28 103.016C424.001 90.8191 431.771 81.2782 442.591 74.393C453.411 67.311 466.689 63.7701 482.427 63.7701ZM665.038 220.163C650.677 220.163 637.694 216.917 626.087 210.425C614.677 203.737 605.628 194.491 598.94 182.688C592.251 170.884 588.907 157.311 588.907 141.966C588.907 126.425 592.251 112.852 598.94 101.245C605.628 89.4421 614.677 80.2946 626.087 73.8028C637.694 67.1143 650.677 63.7701 665.038 63.7701C678.612 63.7701 690.808 66.9176 701.628 73.2126C712.644 79.5077 721.3 88.4585 727.595 100.065C734.087 111.671 737.333 125.639 737.333 141.966C737.333 157.901 734.185 171.77 727.89 183.573C721.595 195.376 712.939 204.425 701.923 210.72C691.103 217.015 678.808 220.163 665.038 220.163ZM665.923 206.884C677.726 206.884 688.251 204.228 697.497 198.917C706.939 193.409 714.316 185.737 719.628 175.901C725.136 166.065 727.89 154.753 727.89 141.966C727.89 128.983 725.136 117.671 719.628 108.032C714.316 98.1961 706.939 90.6224 697.497 85.3109C688.251 79.8028 677.726 77.0487 665.923 77.0487C654.12 77.0487 643.497 79.8028 634.054 85.3109C624.809 90.6224 617.432 98.1961 611.923 108.032C606.612 117.671 603.956 128.983 603.956 141.966C603.956 154.753 606.612 166.065 611.923 175.901C617.432 185.737 624.809 193.409 634.054 198.917C643.497 204.228 654.12 206.884 665.923 206.884ZM728.185 218.982V168.524L730.841 141.671L727.89 114.819V0.0326514H742.644V218.982H728.185Z" fill="#010A1D"/>
</svg>
