<svg width="527" height="298" viewBox="0 0 527 298" fill="none" xmlns="http://www.w3.org/2000/svg">
<path d="M144.348 202.573C143.986 202.331 143.543 202.242 143.116 202.325C142.689 202.408 142.312 202.656 142.067 203.016L123.175 231.024C114.428 243.992 96.3276 248.704 82.0062 239.027C67.6645 229.353 65.2568 210.825 74.0037 197.858L92.8956 169.849C93.3996 169.102 93.1996 168.073 92.4524 167.569L82.8591 161.098C82.4973 160.857 82.0548 160.768 81.6277 160.851C81.2007 160.934 80.8237 161.182 80.5787 161.541L61.6868 189.55C47.9324 209.941 53.3027 237.569 73.6904 251.303C94.0782 265.037 121.71 259.687 135.444 239.3L154.336 211.291C154.84 210.544 154.64 209.515 153.893 209.011L144.348 202.573ZM177.941 96.7709C157.55 83.0165 129.922 88.3868 116.188 108.775L97.2758 136.787C97.0343 137.149 96.9454 137.591 97.0284 138.018C97.1114 138.445 97.3596 138.822 97.719 139.067L107.288 145.522C108.035 146.026 109.065 145.826 109.569 145.079L128.461 117.07C137.207 104.102 155.308 99.3902 169.63 109.068C183.971 118.741 186.379 137.269 177.632 150.237L158.74 178.245C158.499 178.607 158.41 179.049 158.493 179.477C158.576 179.904 158.824 180.281 159.183 180.526L168.777 186.996C169.524 187.5 170.553 187.3 171.057 186.553L189.949 158.545C203.683 138.157 198.313 110.529 177.941 96.7709V96.7709ZM140.135 142.006C139.773 141.765 139.331 141.676 138.904 141.759C138.477 141.842 138.1 142.09 137.855 142.45L101.026 197.024C100.785 197.386 100.696 197.828 100.779 198.255C100.862 198.683 101.11 199.06 101.469 199.305L111.015 205.743C111.762 206.247 112.791 206.047 113.295 205.299L150.103 150.729C150.607 149.982 150.407 148.952 149.66 148.448L140.135 142.006Z" fill="#010A1D"/>
<path d="M0.641113 250.317V0.982422H15.7722V250.317H0.641113Z" fill="#010A1D"/>
<path d="M348.841 250.317V152.294C348.841 111.834 334.258 91.6047 305.093 91.6047C288.865 91.6047 275.543 97.5804 265.127 109.532C254.71 121.374 249.502 136.066 249.502 153.609V250.317H234.371V81.9011H249.502V112.492H250.16C262.44 89.357 281.628 77.7893 307.724 77.7893C325.925 77.7893 339.85 83.8747 349.499 96.0454C359.148 108.106 363.972 125.376 363.972 147.853V250.317H348.841Z" fill="#010A1D"/>
<path d="M504.271 250.317L423.681 167.096H423.023V250.317H407.892V0.982422H423.023V161.668H423.681L500.159 81.9011H519.731L439.799 163.478L526.145 250.317H504.271Z" fill="#010A1D"/>
</svg>
