<svg width="743" height="370" viewBox="0 0 743 370" fill="none" xmlns="http://www.w3.org/2000/svg">
<path d="M220.275 291.471C220.275 305.045 217.128 317.34 210.833 328.356C204.537 339.176 195.488 347.831 183.685 354.323C171.882 360.618 158.013 363.766 142.079 363.766C125.751 363.766 111.784 360.618 100.177 354.323C88.5708 347.831 79.6201 339.176 73.325 328.356C67.0299 317.34 63.8824 305.045 63.8824 291.471C63.8824 276.914 67.2267 263.93 73.9152 252.52C80.4069 240.914 89.5544 231.865 101.358 225.373C112.964 218.684 126.538 215.34 142.079 215.34C157.423 215.34 170.997 218.684 182.8 225.373C194.603 231.865 203.849 240.914 210.537 252.52C217.029 263.93 220.275 276.914 220.275 291.471ZM219.095 368.782H0.14502V354.028H114.931L141.784 356.979L168.636 354.618H219.095V368.782ZM206.996 292.356C206.996 280.553 204.341 269.93 199.029 260.487C193.521 251.045 185.849 243.668 176.013 238.356C166.177 232.848 154.866 230.094 142.079 230.094C129.095 230.094 117.784 232.848 108.145 238.356C98.3085 243.668 90.7348 251.045 85.4233 260.487C79.9151 269.93 77.161 280.553 77.161 292.356C77.161 304.159 79.9151 314.782 85.4233 324.225C90.7348 333.471 98.3085 340.848 108.145 346.356C117.784 351.667 129.095 354.323 142.079 354.323C154.866 354.323 166.177 351.667 176.013 346.356C185.849 340.848 193.521 333.471 199.029 324.225C204.341 314.782 206.996 304.159 206.996 292.356Z" fill="#010A1D"/>
<path d="M297.084 171.535C283.625 179.305 270.027 183.294 256.291 183.502C242.724 183.611 230.009 180.276 218.145 173.496C206.451 166.619 196.817 156.621 189.243 143.503C181.571 130.214 177.559 116.971 177.208 103.772C176.928 90.3038 179.972 77.8704 186.338 66.4715C192.705 55.0726 201.936 45.8813 214.032 38.8977C226.128 31.9142 238.569 28.4793 251.355 28.5932C264.312 28.6087 276.467 32.1536 287.82 39.228C299.245 46.0336 308.794 56.0807 316.466 69.3691C316.761 69.8802 317.02 70.5257 317.243 71.3055C317.539 71.8166 317.883 72.4129 318.276 73.0943L200.469 141.11L194.715 131.144L305.622 67.1116L303.315 74.9178C297.485 64.4272 289.91 56.421 280.589 50.8992C271.339 45.1087 261.554 42.1266 251.232 41.953C240.811 41.6089 230.575 44.3386 220.524 50.1418C210.642 55.8467 203.161 63.3465 198.078 72.6413C193.067 81.6674 190.757 91.633 191.147 102.538C191.439 113.273 194.634 123.922 200.732 134.485L202.06 136.784C208.355 147.688 216.347 156.022 226.035 161.786C235.795 167.281 246.312 169.955 257.584 169.807C268.758 169.489 279.796 166.182 290.7 159.887C299.218 154.969 306.255 148.862 311.81 141.566C317.536 134.172 321.134 125.847 322.606 116.593L334.885 120.748C333.224 131.247 329.046 140.928 322.351 149.791C315.728 158.385 307.305 165.633 297.084 171.535Z" fill="#010A1D"/>
<path d="M521.44 37.583C532.343 43.8781 540.569 51.4666 546.117 60.3487C551.934 69.1587 554.598 79.1015 554.109 90.1771C553.89 101.181 550.19 112.901 543.009 125.337L498.009 203.279L485.232 195.902L529.642 118.983C538.297 103.991 541.054 90.363 537.912 78.1C534.941 65.9354 526.641 55.9187 513.011 48.0498C502.619 42.0499 492.36 38.9663 482.235 38.7993C472.11 38.6322 462.789 41.2015 454.274 46.5073C445.93 51.9114 438.659 59.98 432.462 70.713L391.446 141.755L378.669 134.378L455.685 0.982422L467.951 8.06436L446.558 45.1187L447.13 39.9972C457.317 31.7952 468.817 27.4177 481.629 26.8648C494.54 26.1414 507.81 29.7142 521.44 37.583Z" fill="#010A1D"/>
<path d="M522.533 291.404C522.533 277.043 525.779 264.06 532.271 252.453C538.959 241.044 548.205 231.994 560.008 225.306C571.812 218.617 585.385 215.273 600.73 215.273C616.27 215.273 629.844 218.617 641.451 225.306C653.254 231.994 662.401 241.044 668.893 252.453C675.582 264.06 678.926 277.043 678.926 291.404C678.926 304.978 675.778 317.174 669.483 327.994C663.188 339.01 654.237 347.666 642.631 353.961C631.024 360.453 617.057 363.699 600.73 363.699C584.795 363.699 570.926 360.551 559.123 354.256C547.32 347.961 538.271 339.305 531.976 328.289C525.681 317.469 522.533 305.174 522.533 291.404ZM535.812 292.289C535.812 304.092 538.467 314.617 543.779 323.863C549.287 333.305 556.959 340.682 566.795 345.994C576.631 351.502 587.943 354.256 600.73 354.256C613.713 354.256 625.025 351.502 634.664 345.994C644.5 340.682 652.074 333.305 657.385 323.863C662.893 314.617 665.647 304.092 665.647 292.289C665.647 280.486 662.893 269.863 657.385 260.421C652.074 251.175 644.5 243.798 634.664 238.29C625.025 232.978 613.713 230.322 600.73 230.322C587.943 230.322 576.631 232.978 566.795 238.29C556.959 243.798 549.287 251.175 543.779 260.421C538.467 269.863 535.812 280.486 535.812 292.289ZM523.713 354.551H574.172L601.025 357.207L627.877 354.256H742.663V369.01H523.713V354.551Z" fill="#010A1D"/>
</svg>
