<svg width="727" height="130" viewBox="0 0 727 130" fill="none" xmlns="http://www.w3.org/2000/svg">
<path d="M224.71 128.906C219.273 128.906 214.366 127.847 209.989 125.729C205.612 123.611 201.834 120.751 198.657 117.15C195.48 113.479 193.009 109.384 191.244 104.866C189.549 100.276 188.702 95.5812 188.702 90.7802C188.702 85.7674 189.62 81.0016 191.456 76.483C193.291 71.8938 195.833 67.8341 199.081 64.304C202.329 60.7032 206.141 57.8791 210.519 55.8316C214.967 53.7135 219.768 52.6545 224.922 52.6545C230.287 52.6545 235.159 53.7488 239.536 55.9375C243.984 58.1262 247.762 61.0562 250.868 64.7276C254.045 68.399 256.481 72.494 258.176 77.0126C259.941 81.5312 260.823 86.1557 260.823 90.8861C260.823 95.8989 259.906 100.7 258.07 105.289C256.305 109.808 253.798 113.867 250.551 117.468C247.303 120.998 243.455 123.787 239.007 125.835C234.63 127.882 229.864 128.906 224.71 128.906ZM200.775 90.7802C200.775 94.3104 201.34 97.7346 202.47 101.053C203.599 104.371 205.188 107.337 207.235 109.949C209.354 112.491 211.895 114.503 214.861 115.986C217.826 117.468 221.144 118.21 224.816 118.21C228.628 118.21 232.017 117.433 234.983 115.88C237.948 114.326 240.419 112.244 242.396 109.631C244.443 106.948 245.997 103.983 247.056 100.735C248.115 97.4169 248.644 94.0985 248.644 90.7802C248.644 87.25 248.079 83.8611 246.95 80.6133C245.891 77.295 244.302 74.3649 242.184 71.8232C240.066 69.2109 237.524 67.1634 234.559 65.6807C231.664 64.1981 228.416 63.4567 224.816 63.4567C221.003 63.4567 217.614 64.2334 214.649 65.7867C211.683 67.3399 209.177 69.4227 207.13 72.035C205.082 74.6474 203.494 77.5774 202.364 80.8251C201.305 84.0729 200.775 87.3912 200.775 90.7802Z" fill="#010A1D"/>
<path d="M304.451 128.906C298.45 128.906 293.366 127.882 289.201 125.835C285.106 123.787 281.788 120.998 279.246 117.468C276.775 113.938 274.939 109.914 273.739 105.395C272.609 100.876 272.044 96.1813 272.044 91.3097V53.184H283.906V91.3097C283.906 94.7693 284.259 98.1229 284.965 101.371C285.671 104.548 286.8 107.407 288.354 109.949C289.907 112.491 291.99 114.503 294.602 115.986C297.285 117.468 300.568 118.21 304.451 118.21C308.405 118.21 311.688 117.468 314.3 115.986C316.983 114.432 319.066 112.385 320.549 109.843C322.102 107.231 323.232 104.336 323.938 101.159C324.644 97.9817 324.997 94.6987 324.997 91.3097V53.184H336.964V91.3097C336.964 96.4637 336.329 101.335 335.058 105.925C333.857 110.443 331.951 114.432 329.339 117.892C326.797 121.281 323.479 123.964 319.384 125.941C315.289 127.917 310.311 128.906 304.451 128.906Z" fill="#010A1D"/>
<path d="M364.6 75.2122V128.376H352.739V53.184H362.482L405.056 107.513V53.2899H417.023V128.376H406.644L364.6 75.2122Z" fill="#010A1D"/>
<path d="M489.102 63.6686H464.108V128.376H452.141V63.6686H427.042V53.184H489.102V63.6686Z" fill="#010A1D"/>
<path d="M513.863 53.184H525.089L554.319 128.376H541.822L533.879 107.937H504.861L497.024 128.376H484.422L513.863 53.184ZM531.549 99.1467L519.476 66.2103L506.979 99.1467H531.549Z" fill="#010A1D"/>
<path d="M563.618 128.376V53.184H575.479V128.376H563.618Z" fill="#010A1D"/>
<path d="M604.334 75.2122V128.376H592.473V53.184H602.216L644.79 107.513V53.2899H656.757V128.376H646.378L604.334 75.2122Z" fill="#010A1D"/>
<path d="M718.139 70.8701C717.433 70.0934 716.41 69.2815 715.068 68.4343C713.727 67.5164 712.138 66.6692 710.302 65.8926C708.467 65.1159 706.49 64.4805 704.372 63.9863C702.254 63.4921 700.065 63.2449 697.806 63.2449C692.863 63.2449 689.192 64.1628 686.792 65.9985C684.391 67.8341 683.191 70.3759 683.191 73.6236C683.191 76.0241 683.862 77.9304 685.203 79.3425C686.544 80.6839 688.592 81.8136 691.345 82.7314C694.099 83.6493 697.559 84.6377 701.724 85.6968C706.808 86.897 711.22 88.3444 714.962 90.0389C718.704 91.6627 721.564 93.8514 723.541 96.605C725.517 99.3585 726.506 102.995 726.506 107.513C726.506 111.326 725.8 114.609 724.388 117.362C722.976 120.116 720.999 122.375 718.457 124.14C715.915 125.835 712.985 127.106 709.667 127.953C706.349 128.729 702.783 129.118 698.971 129.118C695.229 129.118 691.487 128.729 687.745 127.953C684.073 127.176 680.543 126.046 677.154 124.564C673.836 123.011 670.765 121.14 667.941 118.951L673.342 108.784C674.26 109.702 675.566 110.726 677.26 111.855C679.025 112.914 681.037 113.938 683.297 114.926C685.627 115.915 688.133 116.762 690.816 117.468C693.57 118.104 696.358 118.421 699.182 118.421C703.913 118.421 707.514 117.609 709.985 115.986C712.526 114.291 713.797 111.891 713.797 108.784C713.797 106.242 712.985 104.23 711.361 102.747C709.738 101.194 707.372 99.888 704.266 98.829C701.159 97.7699 697.453 96.7109 693.146 95.6518C688.204 94.3104 684.073 92.863 680.755 91.3097C677.437 89.6858 674.93 87.6383 673.236 85.1672C671.612 82.6255 670.8 79.4131 670.8 75.5299C670.8 70.5877 672 66.4221 674.401 63.0331C676.801 59.5736 680.049 56.9966 684.144 55.3021C688.31 53.537 692.969 52.6545 698.123 52.6545C701.512 52.6545 704.725 53.0428 707.761 53.8194C710.797 54.5254 713.621 55.5139 716.233 56.7847C718.916 58.0556 721.352 59.503 723.541 61.1268L718.139 70.8701Z" fill="#010A1D"/>
<path d="M122.21 126.224H110.393L92.4893 81.1057L74.4061 126.224H62.4104L84.6115 71.9746L60.2619 14.5023L14.2483 127.119H0.641113L54.5325 0H65.6331L92.3103 62.8435L119.166 0H130.088L183.8 127.119H170.372L124.18 14.5023L100.009 71.9746L122.21 126.224Z" fill="#010A1D"/>
</svg>
