<svg width="487" height="176" viewBox="0 0 487 176" fill="none" xmlns="http://www.w3.org/2000/svg">
<path d="M39.426 175.833L0.663086 49.1677H22.8474L43.0041 122.281L50.5182 149.474C50.8362 148.123 53.0229 139.416 57.0781 123.354L77.2348 49.1677H99.2998L118.264 122.638L124.585 146.85L131.861 122.4L153.568 49.1677H174.44L134.842 175.833H112.539L92.3821 99.977L87.492 78.389L61.8489 175.833H39.426Z" fill="#010A1D"/>
<path d="M193.29 73.6182V49.1677H217.74V73.6182H193.29Z" fill="#010A1D"/>
<path d="M250.783 175.833V49.1677H270.105V67.1776C279.408 53.2627 292.846 46.3052 310.418 46.3052C318.052 46.3052 325.049 47.6967 331.41 50.4797C337.85 53.1832 342.661 56.7613 345.842 61.214C349.022 65.6668 351.249 70.9545 352.521 77.077C353.316 81.0527 353.713 88.0102 353.713 97.9494V175.833H332.245V98.7843C332.245 90.0378 331.41 83.5176 329.74 79.2239C328.07 74.8506 325.089 71.3918 320.795 68.8474C316.581 66.2234 311.611 64.9114 305.886 64.9114C296.742 64.9114 288.83 67.8137 282.151 73.6182C275.551 79.4227 272.252 90.4353 272.252 106.656V175.833H250.783Z" fill="#010A1D"/>
<path d="M381.985 175.833V0.982422H403.454V100.693L454.263 49.1677H482.053L433.629 96.1603L486.943 175.833H460.465L418.601 111.069L403.454 125.62V175.833H381.985Z" fill="#010A1D"/>
<path d="M220.718 174.431C207.75 143.74 201.064 144.185 214.031 114.321H196.267C186.354 142.848 186.354 142.848 196.267 174.431H220.718Z" fill="#010A1D"/>
<path d="M193.29 73.6182V49.1677H217.74V73.6182H193.29Z" fill="#010A1D"/>
</svg>
