<svg width="504" height="279" viewBox="0 0 504 279" fill="none" xmlns="http://www.w3.org/2000/svg">
<path d="M100.327 0.982422V172.895C100.327 203.961 107.376 226.805 121.473 241.425C135.571 255.783 154.759 262.962 179.039 262.962C203.057 262.962 221.984 255.783 235.82 241.425C249.657 227.066 256.575 204.223 256.575 172.895V0.982422H274.197V172.503C274.197 208.269 265.582 234.898 248.352 252.389C231.121 269.881 208.017 278.626 179.039 278.626C150.06 278.626 126.695 269.881 108.942 252.389C91.4508 234.637 82.7051 208.008 82.7051 172.503V0.982422H100.327Z" fill="#010A1D"/>
<path d="M503.099 78.5191C503.099 102.798 495.528 121.726 480.387 135.301C465.245 148.615 442.793 155.273 413.031 155.273H354.292V275.885H336.67V0.982422H413.031C443.315 0.982422 465.897 8.03122 480.778 22.1288C495.659 35.9653 503.099 54.7621 503.099 78.5191ZM413.031 139.609C461.329 139.609 485.477 119.245 485.477 78.5191C485.477 58.417 479.734 43.1446 468.247 32.702C456.76 21.9983 438.355 16.6464 413.031 16.6464H354.292V139.609H413.031Z" fill="#010A1D"/>
<path d="M58.5234 23.9834C71.6194 23.9834 82.805 26.7001 91.9668 32.2617L94.54 33.8242L92.2588 35.7891L87.1406 40.1963L85.9385 41.2314L84.5811 40.4092C77.6417 36.2076 68.9933 34.044 58.5234 34.0439C50.2095 34.0439 42.7255 35.8202 36.0283 39.3379L36.0186 39.3428L36.0078 39.3486C29.3471 42.7575 24.109 47.7235 20.2646 54.2881L20.2578 54.2988C16.4365 60.7347 14.4863 68.346 14.4863 77.21C14.4864 85.9689 16.4324 93.5292 20.251 99.9658L20.6152 100.561C24.4231 106.656 29.5495 111.394 36.0283 114.797L36.6592 115.122C43.1946 118.424 50.4694 120.091 58.5234 120.091C69.001 120.091 77.6559 117.971 84.5986 113.856L85.9277 113.069L87.1133 114.058L92.2314 118.323L94.585 120.283L91.9668 121.873C82.805 127.435 71.6193 130.151 58.5234 130.151C48.0767 130.151 38.5555 127.95 30.0049 123.508L29.9912 123.501L29.9766 123.493C21.5397 118.954 14.8526 112.667 9.9541 104.651L9.93652 104.622C5.13689 96.4861 2.75593 87.3299 2.75586 77.21C2.75586 66.9995 5.13457 57.8364 9.94238 49.7861L9.94727 49.7773L10.4121 49.0225C15.2644 41.2713 21.7968 35.1851 29.9766 30.7842L29.9873 30.7783L30.792 30.3594C39.1377 26.0974 48.3955 23.9834 58.5234 23.9834Z" fill="#010A1D" stroke="#010A1D" stroke-width="4.374"/>
</svg>
