<svg width="615" height="252" viewBox="0 0 615 252" fill="none" xmlns="http://www.w3.org/2000/svg">
<path d="M243.72 2.38477L285.68 248.946H298.348L309.445 196.96H307.959L276.768 2.38477H243.72Z" fill="#010A1D"/>
<path d="M340.265 2.38477H291.207L294.777 29.0061H336.048L340.265 2.38477Z" fill="#3C66ED"/>
<path d="M372.57 2.38477H340.265L336.048 29.0061L309.445 196.96L298.348 248.946H330.982L372.57 2.38477Z" fill="#3C66ED"/>
<path d="M86.6202 75.9904V61.88C86.6202 52.7206 84.5161 45.5416 80.3077 40.3431C76.3469 34.8969 69.663 32.1739 60.256 32.1739C51.3442 32.1739 44.7841 34.6494 40.5757 39.6004C36.3673 44.5514 34.2631 50.6165 34.2631 57.7954V67.4499C34.2631 72.8961 35.2534 77.4758 37.2338 81.189C39.2142 84.9023 43.0512 89.1107 48.7449 93.8141C52.9533 97.0323 57.533 100.374 62.484 103.84C67.6826 107.058 72.7574 110.276 77.7084 113.494C82.6594 116.713 87.4867 119.931 92.1901 123.149C96.8936 126.367 100.978 129.462 104.444 132.432C110.138 137.383 114.47 143.201 117.44 149.885C120.659 156.568 122.268 165.604 122.268 176.991V192.216C122.268 211.525 117.44 226.378 107.786 236.775C98.3789 246.925 82.7832 251.999 60.9987 251.999C39.2142 251.999 23.6184 246.801 14.2115 236.404C4.80455 225.759 0.101074 210.287 0.101074 189.988V175.877H31.6639V190.359C31.6639 200.509 33.8918 208.183 38.3477 213.381C42.8037 218.58 50.1064 221.179 60.256 221.179C68.9203 221.179 75.6042 218.951 80.3077 214.495C85.0112 210.039 87.3629 202.86 87.3629 192.958V181.819C87.3629 178.105 87.1153 174.887 86.6202 172.164C86.1251 169.194 85.2587 166.594 84.021 164.366C82.7832 161.891 81.0503 159.663 78.8224 157.682C76.842 155.454 74.3665 153.103 71.3958 150.627C62.7315 143.448 53.9435 137.136 45.0316 131.689C36.1198 126.243 27.8268 119.807 20.1527 112.38C13.9639 105.944 9.26047 99.2603 6.0423 92.3288C2.82414 85.3974 1.21505 76.9807 1.21505 67.0786V56.3101C1.21505 39.9717 5.79475 26.7278 14.9541 16.5781C24.3611 6.181 39.3379 0.982422 59.8847 0.982422C71.0245 0.982422 80.3077 2.59151 87.7342 5.80968C95.1608 9.02783 101.102 13.4837 105.558 19.1774C110.014 24.8711 113.108 31.6788 114.841 39.6004C116.821 47.522 117.812 56.0626 117.812 65.222V75.9904H86.6202Z" fill="#010A1D"/>
<path d="M140.834 249.771V3.21038H229.952V33.2879H173.511V105.325H225.125V135.774H173.511V219.694H232.923V249.771H140.834Z" fill="#010A1D"/>
<path d="M380.891 249.771V3.21038H470.009V33.2879H413.568V105.325H465.182V135.774H413.568V219.694H472.98V249.771H380.891Z" fill="#010A1D"/>
<path d="M575.463 249.771L519.022 58.9094H517.536C518.279 77.2282 518.65 94.5568 518.65 110.895V249.771H489.316V3.21038H533.132L584.746 180.333H586.232C585.489 157.063 585.118 137.136 585.118 120.55V3.21038H614.453V249.771H575.463Z" fill="#010A1D"/>
</svg>
