<svg width="539" height="142" viewBox="0 0 539 142" fill="none" xmlns="http://www.w3.org/2000/svg">
<path d="M0.452637 137.52H17.6632V85.6966C17.6632 69.251 26.6509 61.0282 39.4632 61.0282C45.3913 61.0282 49.7896 62.7492 53.8054 66.765L65.0879 55.1001C58.7773 47.8334 51.5106 44.7737 42.3317 44.7737C31.2404 44.7737 22.8264 49.3632 17.6632 57.3948V46.686H0.452637V137.52Z" fill="#010A1D"/>
<path d="M116.288 139.432C130.63 139.432 143.633 133.886 152.43 123.751L141.339 112.469C135.411 119.735 126.423 123.177 116.288 123.177C100.033 123.177 88.5596 113.616 85.8824 98.5089H157.019C157.784 94.8756 157.976 92.0072 157.976 89.33C157.976 63.5141 140 44.7737 115.14 44.7737C88.7509 44.7737 68.2894 65.4264 68.2894 92.0072C68.2894 119.162 88.9421 139.432 116.288 139.432ZM114.758 60.6457C129.674 60.6457 139.235 69.4422 141.147 84.1668H85.8824C88.5596 69.8247 99.4597 60.6457 114.758 60.6457Z" fill="#010A1D"/>
<path d="M218.238 139.432C232.198 139.432 244.819 133.886 253.233 124.134L241.95 112.66C236.213 119.353 227.991 122.795 218.238 122.795C201.027 122.795 188.598 109.983 188.598 92.0072C188.598 74.0317 201.027 61.4106 218.238 61.4106C227.799 61.4106 236.022 64.8527 241.759 71.5457L253.233 60.072C244.627 50.3194 232.198 44.7737 218.238 44.7737C191.466 44.7737 170.813 65.4264 170.813 92.0072C170.813 118.779 191.466 139.432 218.238 139.432Z" fill="#010A1D"/>
<path d="M378.614 137.52H395.825V85.6966C395.825 69.251 404.813 61.0282 417.625 61.0282C423.553 61.0282 427.951 62.7492 431.967 66.765L443.25 55.1001C436.939 47.8334 429.672 44.7737 420.493 44.7737C409.402 44.7737 400.988 49.3632 395.825 57.3948V46.686H378.614V137.52Z" fill="#010A1D"/>
<path d="M490.816 139.432C503.628 139.432 514.72 134.077 521.221 125.09V137.52H538.623V0.982422H521.221V59.3071C514.528 50.3194 503.628 44.7737 490.625 44.7737C465.765 44.7737 446.642 65.4264 446.642 92.1984C446.642 118.779 465.765 139.432 490.816 139.432ZM493.685 123.177C476.474 123.177 464.427 110.365 464.427 92.0072C464.427 73.8405 476.474 61.0282 493.493 61.0282C510.704 61.0282 522.369 73.8405 522.369 92.1984C522.369 110.365 510.704 123.177 493.685 123.177Z" fill="#010A1D"/>
<circle cx="310.899" cy="92.054" r="49.0315" fill="#DC3F3F"/>
</svg>
