<svg width="453" height="112" viewBox="0 0 453 112" fill="none" xmlns="http://www.w3.org/2000/svg">
<path d="M105.194 58.1888C105.194 41.1704 100.478 27.4327 91.0461 16.7706C81.6142 6.31348 68.9017 0.982422 52.9085 0.982422C37.3254 0.982422 24.6128 6.10844 14.9759 16.1554C5.33899 26.4075 0.623047 39.7351 0.623047 56.3434C0.623047 73.1568 5.33899 86.4845 15.1809 96.5315C24.8179 106.784 37.5304 111.704 53.3186 111.704C65.826 111.704 76.4882 108.629 85.3049 102.273C93.9166 95.9163 99.6578 87.3046 102.528 76.4375H77.7184C73.2075 86.6895 65.2109 91.6105 53.5236 91.6105C45.527 91.6105 39.1707 89.355 34.4548 84.8441C29.7388 80.3332 26.8683 73.3618 26.0481 64.34H105.194V58.1888ZM52.7034 21.0764C60.0849 21.0764 66.0311 23.3319 70.747 27.8428C75.2579 32.3537 78.1285 38.5049 79.3587 46.2964H26.2532C28.7136 29.4831 37.5304 21.0764 52.7034 21.0764Z" fill="#010A1D"/>
<path d="M178.467 1.80257C163.294 1.80257 152.632 8.77397 146.891 22.3067V3.4429H121.876V109.244H147.711V55.5233C147.711 45.8864 150.172 38.5049 155.503 33.5839C160.834 28.6629 168.42 25.9974 178.262 25.9974H184.823V2.21266C182.773 2.00763 180.723 1.80257 178.467 1.80257Z" fill="#010A1D"/>
<path d="M282.128 96.5315C291.97 86.4845 296.891 73.1568 296.891 56.3434C296.891 39.5301 291.97 25.9974 282.128 15.9504C272.286 6.10844 259.164 0.982422 243.17 0.982422C226.972 0.982422 214.055 6.10844 204.213 16.1554C194.166 26.2024 189.245 39.5301 189.245 56.3434C189.245 73.1568 194.166 86.6895 204.213 96.5315C214.055 106.784 226.972 111.704 243.17 111.704C259.164 111.704 272.286 106.784 282.128 96.5315ZM243.17 90.3802C234.559 90.3802 227.792 87.5097 222.871 81.5635C217.95 75.8223 215.695 67.4157 215.695 56.3434C215.695 45.4763 217.95 37.0696 222.871 31.1234C227.792 25.3823 234.559 22.3067 243.17 22.3067C251.782 22.3067 258.343 25.3823 263.264 31.3285C268.185 37.2747 270.646 45.6813 270.646 56.3434C270.646 67.2106 268.185 75.6173 263.264 81.5635C258.343 87.5097 251.782 90.3802 243.17 90.3802Z" fill="#010A1D"/>
<path d="M369.692 1.80257C354.519 1.80257 343.857 8.77397 338.116 22.3067V3.4429H313.101V109.244H338.936V55.5233C338.936 45.8864 341.396 38.5049 346.727 33.5839C352.058 28.6629 359.645 25.9974 369.487 25.9974H376.048V2.21266C373.998 2.00763 371.947 1.80257 369.692 1.80257Z" fill="#010A1D"/>
<path d="M446.582 1.80257C431.409 1.80257 420.747 8.77397 415.006 22.3067V3.4429H389.991V109.244H415.826V55.5233C415.826 45.8864 418.286 38.5049 423.618 33.5839C428.949 28.6629 436.535 25.9974 446.377 25.9974H452.938V2.21266C450.888 2.00763 448.838 1.80257 446.582 1.80257Z" fill="#010A1D"/>
</svg>
