<svg width="505" height="146" viewBox="0 0 505 146" fill="none" xmlns="http://www.w3.org/2000/svg">
<path d="M155.841 0.759766V145.488H0.716797V0.759766H155.841ZM262.158 0.759766L262.216 0.894531L323.999 145.178L324.133 145.488H291.876L291.82 145.35L280.922 118.602H217.904L207.006 145.35L206.949 145.488H175.351L175.484 145.177L237.487 0.894531L237.545 0.759766H262.158ZM372.005 0.759766V145.488H341.763V0.759766H372.005ZM433.411 0.759766V120.208H503.958V145.488H403.169V0.759766H433.411ZM30.959 120.404H125.817V59.8047L88.5137 96.7334L88.5098 96.7373L88.3564 96.5752L88.5088 96.7373L78.4307 106.179L78.2783 106.321L78.126 106.179L68.0479 96.7373L68.043 96.7324L30.959 59.6035V120.404ZM227.727 94.7588H271.321L249.739 40.9814L227.727 94.7588ZM78.2783 66.0674L109.683 30.3877H46.875L78.2783 66.0674Z" fill="#010A1D" stroke="#010A1D" stroke-width="0.445741"/>
</svg>
