<svg width="637" height="364" viewBox="0 0 637 364" fill="none" xmlns="http://www.w3.org/2000/svg">
<path d="M591.494 231.03C616.494 231.03 635.89 252.183 635.89 279.251C635.89 306.13 616.492 327.09 591.494 327.09C580.001 327.09 570.159 322.838 563.606 315.592V363.423H542.126V232.942H563.606V242.718C570.157 235.467 579.999 231.03 591.494 231.03ZM305.147 231.03C316.642 231.03 326.484 235.467 333.035 242.718V232.942H354.516V325.178H333.035V315.592C326.482 322.838 316.639 327.09 305.147 327.09C280.149 327.09 260.751 306.13 260.751 279.251C260.751 252.183 280.147 231.03 305.147 231.03ZM189.642 190.872V304.652H252.748V325.178H167.206V190.872H189.642ZM485.108 231.03C495.006 231.03 503.954 234.345 510.43 240.34C516.908 246.336 520.899 255.002 520.899 265.674V325.178H499.419V270.264C499.419 264.2 497.288 259.433 493.777 256.181C490.263 252.927 485.349 251.172 479.754 251.172C474.158 251.172 469.195 252.927 465.633 256.182C462.075 259.434 459.897 264.201 459.897 270.264V325.178H438.417V270.264C438.417 264.2 436.286 259.433 432.775 256.181C429.261 252.927 424.347 251.172 418.752 251.172C413.156 251.172 408.193 252.927 404.631 256.182C401.073 259.434 398.896 264.201 398.896 270.264V325.178H377.415V232.942H398.896V241.95C405.247 234.908 414.515 231.03 425.062 231.03C437.626 231.03 448.514 236.5 454.526 246.152C461.463 236.693 472.346 231.03 485.108 231.03ZM308.589 251.363C300.999 251.363 294.557 254.209 290.012 259.085C285.466 263.962 282.805 270.886 282.805 279.06C282.805 287.234 285.466 294.157 290.012 299.034C294.557 303.911 300.999 306.756 308.589 306.756C316.276 306.756 322.717 303.911 327.238 299.035C331.76 294.158 334.374 287.235 334.374 279.06C334.374 270.885 331.76 263.962 327.238 259.085C322.717 254.209 316.276 251.363 308.589 251.363ZM588.051 251.363C580.365 251.363 573.923 254.209 569.403 259.085C564.881 263.962 562.267 270.885 562.267 279.06C562.267 287.235 564.881 294.158 569.403 299.035C573.923 303.911 580.365 306.756 588.051 306.756C595.642 306.756 602.085 303.911 606.63 299.034C611.175 294.157 613.836 287.233 613.836 279.06C613.836 270.886 611.175 263.962 606.63 259.085C602.085 254.209 595.642 251.363 588.051 251.363Z" fill="#010A1D" stroke="#010A1D" stroke-width="0.445741"/>
<path d="M264.422 219.983H93.0349C93.0349 219.983 117.996 172.066 125.128 118.131H235.895C243.697 172.066 264.422 219.983 264.422 219.983Z" stroke="#010A1D" stroke-width="19.1669"/>
<line x1="2.18158" y1="130.107" x2="72.8581" y2="141.617" stroke="#010A1D" stroke-width="19.1669"/>
<line x1="177.503" y1="73.1113" x2="177.503" y2="0.00980419" stroke="#010A1D" stroke-width="19.1669"/>
<line x1="286.73" y1="141.211" x2="363.397" y2="128.73" stroke="#010A1D" stroke-width="19.1669"/>
</svg>
