<svg width="705" height="185" viewBox="0 0 705 185" fill="none" xmlns="http://www.w3.org/2000/svg">
<mask id="path-1-outside-1_819_135" maskUnits="userSpaceOnUse" x="-0.33252" y="0.00976562" width="706" height="185" fill="black">
<rect fill="white" x="-0.33252" y="0.00976562" width="706" height="185"/>
<path d="M0.66748 142.653V8.48484H63.7265C72.7988 8.48484 80.7211 10.0182 87.4934 13.0849C94.2657 16.1516 99.5685 20.4961 103.402 26.1184C107.235 31.6129 109.152 38.0018 109.152 45.2852C109.152 51.1631 107.619 56.5937 104.552 61.5771C101.613 66.4327 97.5879 70.3938 92.4768 73.4605C98.9935 76.5272 104.169 80.68 108.002 85.919C111.835 91.1579 113.752 97.0996 113.752 103.744C113.752 111.411 111.771 118.183 107.81 124.061C103.977 129.939 98.4824 134.539 91.3267 137.861C84.2989 141.056 76.121 142.653 66.7932 142.653H0.66748ZM28.4594 63.3021H62.0014C68.0071 63.3021 72.7349 61.8965 76.1849 59.0854C79.7627 56.1464 81.5516 52.2492 81.5516 47.3936C81.5516 42.538 79.7627 38.7046 76.1849 35.8935C72.7349 32.9545 68.0071 31.4851 62.0014 31.4851H28.4594V63.3021ZM28.4594 119.653H64.6848C71.0738 119.653 76.1849 118.119 80.0183 115.053C83.8517 111.858 85.7684 107.641 85.7684 102.402C85.7684 97.0358 83.8517 92.819 80.0183 89.7523C76.1849 86.5579 71.0738 84.9606 64.6848 84.9606H28.4594V119.653Z"/>
<path d="M131.463 142.653V42.7935H157.722V53.9103C160.916 49.5658 164.75 46.2436 169.222 43.9435C173.694 41.6435 178.742 40.4935 184.364 40.4935C189.219 40.6213 192.861 41.388 195.289 42.7935V65.7938C193.372 64.8993 191.264 64.2604 188.964 63.8771C186.664 63.366 184.3 63.1104 181.872 63.1104C176.761 63.1104 172.097 64.3882 167.88 66.9438C163.664 69.4994 160.278 73.1411 157.722 77.8689V142.653H131.463Z"/>
<path d="M209.703 142.653V42.7935H235.962V142.653H209.703ZM222.737 30.9101C218.648 30.9101 215.134 29.4406 212.195 26.5017C209.256 23.5628 207.786 20.0489 207.786 15.9599C207.786 11.7432 209.256 8.22929 212.195 5.41814C215.134 2.47923 218.648 1.00977 222.737 1.00977C226.953 1.00977 230.467 2.47923 233.278 5.41814C236.217 8.22929 237.687 11.7432 237.687 15.9599C237.687 20.0489 236.217 23.5628 233.278 26.5017C230.467 29.4406 226.953 30.9101 222.737 30.9101Z"/>
<path d="M538.064 183.67C530.398 183.67 522.986 182.839 515.831 181.178C508.675 179.645 502.222 177.409 496.472 174.47L505.672 154.153C511.167 156.836 516.534 158.817 521.773 160.095C527.011 161.373 532.25 162.011 537.489 162.011C545.284 162.011 551.162 160.35 555.123 157.028C559.212 153.706 561.256 148.722 561.256 142.078V134.219C553.078 140.225 543.942 143.228 533.848 143.228C524.392 143.228 515.831 140.992 508.164 136.519C500.625 131.919 494.556 125.722 489.956 117.928C485.483 110.133 483.247 101.508 483.247 92.0524C483.247 82.5967 485.483 74.0355 489.956 66.3688C494.556 58.702 500.753 52.6325 508.547 48.1603C516.342 43.5602 525.031 41.2602 534.614 41.2602C539.47 41.2602 544.198 41.963 548.798 43.3685C553.398 44.7741 557.679 46.7547 561.64 49.3103V42.7935H587.515V142.461C587.515 155.622 583.234 165.781 574.673 172.937C566.24 180.092 554.037 183.67 538.064 183.67ZM537.873 120.994C542.728 120.994 547.137 120.228 551.098 118.694C555.059 117.033 558.445 114.733 561.256 111.794V72.6938C558.445 69.8827 554.995 67.7105 550.906 66.1771C546.945 64.516 542.664 63.6854 538.064 63.6854C532.57 63.6854 527.65 64.9632 523.306 67.5188C518.961 69.9466 515.511 73.3327 512.956 77.6772C510.4 81.8939 509.122 86.6857 509.122 92.0524C509.122 97.5469 510.336 102.466 512.764 106.811C515.32 111.155 518.77 114.605 523.114 117.161C527.587 119.717 532.506 120.994 537.873 120.994Z"/>
<path d="M656.89 144.57C646.923 144.57 637.851 142.27 629.673 137.67C621.623 133.069 615.234 126.872 610.506 119.078C605.778 111.283 603.414 102.53 603.414 92.819C603.414 83.1078 605.651 74.355 610.123 66.5604C614.723 58.7659 620.92 52.5686 628.715 47.9686C636.509 43.3685 645.198 41.0685 654.782 41.0685C664.365 41.0685 672.862 43.4324 680.274 48.1603C687.685 52.8881 693.499 59.277 697.715 67.3271C702.06 75.3772 704.232 84.5134 704.232 94.7357V101.636H630.248C631.398 105.597 633.251 109.175 635.806 112.369C638.49 115.564 641.748 118.055 645.582 119.844C649.543 121.633 653.759 122.528 658.232 122.528C662.704 122.528 666.793 121.825 670.498 120.419C674.332 119.014 677.59 117.033 680.274 114.478L697.524 130.194C691.39 135.178 685.065 138.82 678.549 141.12C672.16 143.42 664.94 144.57 656.89 144.57ZM629.865 82.8523H678.357C677.462 78.8911 675.801 75.4411 673.373 72.5022C671.073 69.4355 668.262 67.0716 664.94 65.4104C661.746 63.6215 658.168 62.7271 654.207 62.7271C650.118 62.7271 646.412 63.5576 643.09 65.2188C639.768 66.8799 636.956 69.2438 634.656 72.3105C632.484 75.2494 630.887 78.7633 629.865 82.8523Z"/>
</mask>
<path d="M0.66748 142.653V8.48484H63.7265C72.7988 8.48484 80.7211 10.0182 87.4934 13.0849C94.2657 16.1516 99.5685 20.4961 103.402 26.1184C107.235 31.6129 109.152 38.0018 109.152 45.2852C109.152 51.1631 107.619 56.5937 104.552 61.5771C101.613 66.4327 97.5879 70.3938 92.4768 73.4605C98.9935 76.5272 104.169 80.68 108.002 85.919C111.835 91.1579 113.752 97.0996 113.752 103.744C113.752 111.411 111.771 118.183 107.81 124.061C103.977 129.939 98.4824 134.539 91.3267 137.861C84.2989 141.056 76.121 142.653 66.7932 142.653H0.66748ZM28.4594 63.3021H62.0014C68.0071 63.3021 72.7349 61.8965 76.1849 59.0854C79.7627 56.1464 81.5516 52.2492 81.5516 47.3936C81.5516 42.538 79.7627 38.7046 76.1849 35.8935C72.7349 32.9545 68.0071 31.4851 62.0014 31.4851H28.4594V63.3021ZM28.4594 119.653H64.6848C71.0738 119.653 76.1849 118.119 80.0183 115.053C83.8517 111.858 85.7684 107.641 85.7684 102.402C85.7684 97.0358 83.8517 92.819 80.0183 89.7523C76.1849 86.5579 71.0738 84.9606 64.6848 84.9606H28.4594V119.653Z" fill="#010A1D"/>
<path d="M131.463 142.653V42.7935H157.722V53.9103C160.916 49.5658 164.75 46.2436 169.222 43.9435C173.694 41.6435 178.742 40.4935 184.364 40.4935C189.219 40.6213 192.861 41.388 195.289 42.7935V65.7938C193.372 64.8993 191.264 64.2604 188.964 63.8771C186.664 63.366 184.3 63.1104 181.872 63.1104C176.761 63.1104 172.097 64.3882 167.88 66.9438C163.664 69.4994 160.278 73.1411 157.722 77.8689V142.653H131.463Z" fill="#010A1D"/>
<path d="M209.703 142.653V42.7935H235.962V142.653H209.703ZM222.737 30.9101C218.648 30.9101 215.134 29.4406 212.195 26.5017C209.256 23.5628 207.786 20.0489 207.786 15.9599C207.786 11.7432 209.256 8.22929 212.195 5.41814C215.134 2.47923 218.648 1.00977 222.737 1.00977C226.953 1.00977 230.467 2.47923 233.278 5.41814C236.217 8.22929 237.687 11.7432 237.687 15.9599C237.687 20.0489 236.217 23.5628 233.278 26.5017C230.467 29.4406 226.953 30.9101 222.737 30.9101Z" fill="#010A1D"/>
<path d="M538.064 183.67C530.398 183.67 522.986 182.839 515.831 181.178C508.675 179.645 502.222 177.409 496.472 174.47L505.672 154.153C511.167 156.836 516.534 158.817 521.773 160.095C527.011 161.373 532.25 162.011 537.489 162.011C545.284 162.011 551.162 160.35 555.123 157.028C559.212 153.706 561.256 148.722 561.256 142.078V134.219C553.078 140.225 543.942 143.228 533.848 143.228C524.392 143.228 515.831 140.992 508.164 136.519C500.625 131.919 494.556 125.722 489.956 117.928C485.483 110.133 483.247 101.508 483.247 92.0524C483.247 82.5967 485.483 74.0355 489.956 66.3688C494.556 58.702 500.753 52.6325 508.547 48.1603C516.342 43.5602 525.031 41.2602 534.614 41.2602C539.47 41.2602 544.198 41.963 548.798 43.3685C553.398 44.7741 557.679 46.7547 561.64 49.3103V42.7935H587.515V142.461C587.515 155.622 583.234 165.781 574.673 172.937C566.24 180.092 554.037 183.67 538.064 183.67ZM537.873 120.994C542.728 120.994 547.137 120.228 551.098 118.694C555.059 117.033 558.445 114.733 561.256 111.794V72.6938C558.445 69.8827 554.995 67.7105 550.906 66.1771C546.945 64.516 542.664 63.6854 538.064 63.6854C532.57 63.6854 527.65 64.9632 523.306 67.5188C518.961 69.9466 515.511 73.3327 512.956 77.6772C510.4 81.8939 509.122 86.6857 509.122 92.0524C509.122 97.5469 510.336 102.466 512.764 106.811C515.32 111.155 518.77 114.605 523.114 117.161C527.587 119.717 532.506 120.994 537.873 120.994Z" fill="#010A1D"/>
<path d="M656.89 144.57C646.923 144.57 637.851 142.27 629.673 137.67C621.623 133.069 615.234 126.872 610.506 119.078C605.778 111.283 603.414 102.53 603.414 92.819C603.414 83.1078 605.651 74.355 610.123 66.5604C614.723 58.7659 620.92 52.5686 628.715 47.9686C636.509 43.3685 645.198 41.0685 654.782 41.0685C664.365 41.0685 672.862 43.4324 680.274 48.1603C687.685 52.8881 693.499 59.277 697.715 67.3271C702.06 75.3772 704.232 84.5134 704.232 94.7357V101.636H630.248C631.398 105.597 633.251 109.175 635.806 112.369C638.49 115.564 641.748 118.055 645.582 119.844C649.543 121.633 653.759 122.528 658.232 122.528C662.704 122.528 666.793 121.825 670.498 120.419C674.332 119.014 677.59 117.033 680.274 114.478L697.524 130.194C691.39 135.178 685.065 138.82 678.549 141.12C672.16 143.42 664.94 144.57 656.89 144.57ZM629.865 82.8523H678.357C677.462 78.8911 675.801 75.4411 673.373 72.5022C671.073 69.4355 668.262 67.0716 664.94 65.4104C661.746 63.6215 658.168 62.7271 654.207 62.7271C650.118 62.7271 646.412 63.5576 643.09 65.2188C639.768 66.8799 636.956 69.2438 634.656 72.3105C632.484 75.2494 630.887 78.7633 629.865 82.8523Z" fill="#010A1D"/>
<path d="M0.66748 142.653V8.48484H63.7265C72.7988 8.48484 80.7211 10.0182 87.4934 13.0849C94.2657 16.1516 99.5685 20.4961 103.402 26.1184C107.235 31.6129 109.152 38.0018 109.152 45.2852C109.152 51.1631 107.619 56.5937 104.552 61.5771C101.613 66.4327 97.5879 70.3938 92.4768 73.4605C98.9935 76.5272 104.169 80.68 108.002 85.919C111.835 91.1579 113.752 97.0996 113.752 103.744C113.752 111.411 111.771 118.183 107.81 124.061C103.977 129.939 98.4824 134.539 91.3267 137.861C84.2989 141.056 76.121 142.653 66.7932 142.653H0.66748ZM28.4594 63.3021H62.0014C68.0071 63.3021 72.7349 61.8965 76.1849 59.0854C79.7627 56.1464 81.5516 52.2492 81.5516 47.3936C81.5516 42.538 79.7627 38.7046 76.1849 35.8935C72.7349 32.9545 68.0071 31.4851 62.0014 31.4851H28.4594V63.3021ZM28.4594 119.653H64.6848C71.0738 119.653 76.1849 118.119 80.0183 115.053C83.8517 111.858 85.7684 107.641 85.7684 102.402C85.7684 97.0358 83.8517 92.819 80.0183 89.7523C76.1849 86.5579 71.0738 84.9606 64.6848 84.9606H28.4594V119.653Z" stroke="#010A1D" stroke-width="0.891482" mask="url(#path-1-outside-1_819_135)"/>
<path d="M131.463 142.653V42.7935H157.722V53.9103C160.916 49.5658 164.75 46.2436 169.222 43.9435C173.694 41.6435 178.742 40.4935 184.364 40.4935C189.219 40.6213 192.861 41.388 195.289 42.7935V65.7938C193.372 64.8993 191.264 64.2604 188.964 63.8771C186.664 63.366 184.3 63.1104 181.872 63.1104C176.761 63.1104 172.097 64.3882 167.88 66.9438C163.664 69.4994 160.278 73.1411 157.722 77.8689V142.653H131.463Z" stroke="#010A1D" stroke-width="0.891482" mask="url(#path-1-outside-1_819_135)"/>
<path d="M209.703 142.653V42.7935H235.962V142.653H209.703ZM222.737 30.9101C218.648 30.9101 215.134 29.4406 212.195 26.5017C209.256 23.5628 207.786 20.0489 207.786 15.9599C207.786 11.7432 209.256 8.22929 212.195 5.41814C215.134 2.47923 218.648 1.00977 222.737 1.00977C226.953 1.00977 230.467 2.47923 233.278 5.41814C236.217 8.22929 237.687 11.7432 237.687 15.9599C237.687 20.0489 236.217 23.5628 233.278 26.5017C230.467 29.4406 226.953 30.9101 222.737 30.9101Z" stroke="#010A1D" stroke-width="0.891482" mask="url(#path-1-outside-1_819_135)"/>
<path d="M538.064 183.67C530.398 183.67 522.986 182.839 515.831 181.178C508.675 179.645 502.222 177.409 496.472 174.47L505.672 154.153C511.167 156.836 516.534 158.817 521.773 160.095C527.011 161.373 532.25 162.011 537.489 162.011C545.284 162.011 551.162 160.35 555.123 157.028C559.212 153.706 561.256 148.722 561.256 142.078V134.219C553.078 140.225 543.942 143.228 533.848 143.228C524.392 143.228 515.831 140.992 508.164 136.519C500.625 131.919 494.556 125.722 489.956 117.928C485.483 110.133 483.247 101.508 483.247 92.0524C483.247 82.5967 485.483 74.0355 489.956 66.3688C494.556 58.702 500.753 52.6325 508.547 48.1603C516.342 43.5602 525.031 41.2602 534.614 41.2602C539.47 41.2602 544.198 41.963 548.798 43.3685C553.398 44.7741 557.679 46.7547 561.64 49.3103V42.7935H587.515V142.461C587.515 155.622 583.234 165.781 574.673 172.937C566.24 180.092 554.037 183.67 538.064 183.67ZM537.873 120.994C542.728 120.994 547.137 120.228 551.098 118.694C555.059 117.033 558.445 114.733 561.256 111.794V72.6938C558.445 69.8827 554.995 67.7105 550.906 66.1771C546.945 64.516 542.664 63.6854 538.064 63.6854C532.57 63.6854 527.65 64.9632 523.306 67.5188C518.961 69.9466 515.511 73.3327 512.956 77.6772C510.4 81.8939 509.122 86.6857 509.122 92.0524C509.122 97.5469 510.336 102.466 512.764 106.811C515.32 111.155 518.77 114.605 523.114 117.161C527.587 119.717 532.506 120.994 537.873 120.994Z" stroke="#010A1D" stroke-width="0.891482" mask="url(#path-1-outside-1_819_135)"/>
<path d="M656.89 144.57C646.923 144.57 637.851 142.27 629.673 137.67C621.623 133.069 615.234 126.872 610.506 119.078C605.778 111.283 603.414 102.53 603.414 92.819C603.414 83.1078 605.651 74.355 610.123 66.5604C614.723 58.7659 620.92 52.5686 628.715 47.9686C636.509 43.3685 645.198 41.0685 654.782 41.0685C664.365 41.0685 672.862 43.4324 680.274 48.1603C687.685 52.8881 693.499 59.277 697.715 67.3271C702.06 75.3772 704.232 84.5134 704.232 94.7357V101.636H630.248C631.398 105.597 633.251 109.175 635.806 112.369C638.49 115.564 641.748 118.055 645.582 119.844C649.543 121.633 653.759 122.528 658.232 122.528C662.704 122.528 666.793 121.825 670.498 120.419C674.332 119.014 677.59 117.033 680.274 114.478L697.524 130.194C691.39 135.178 685.065 138.82 678.549 141.12C672.16 143.42 664.94 144.57 656.89 144.57ZM629.865 82.8523H678.357C677.462 78.8911 675.801 75.4411 673.373 72.5022C671.073 69.4355 668.262 67.0716 664.94 65.4104C661.746 63.6215 658.168 62.7271 654.207 62.7271C650.118 62.7271 646.412 63.5576 643.09 65.2188C639.768 66.8799 636.956 69.2438 634.656 72.3105C632.484 75.2494 630.887 78.7633 629.865 82.8523Z" stroke="#010A1D" stroke-width="0.891482" mask="url(#path-1-outside-1_819_135)"/>
<path d="M264.814 114.571H457.374" stroke="#010A1D" stroke-width="21.3956"/>
<path d="M280.861 78.0203C280.861 78.0203 321.387 57.9619 361.094 57.9619C400.802 57.9619 441.328 78.0203 441.328 78.0203" stroke="#010A1D" stroke-width="21.3956"/>
</svg>
