<svg width="506" height="262" viewBox="0 0 506 262" fill="none" xmlns="http://www.w3.org/2000/svg">
<path d="M0.232178 206.422H46.2262V142.464H75.9185C120.748 142.464 151.023 114.554 151.023 71.5274C151.023 27.6284 120.748 0.00976562 75.9185 0.00976562H0.232178V206.422ZM46.2262 100.309V42.1645H71.552C90.1825 42.1645 104.446 49.4325 104.446 71.5274C104.446 93.6223 90.1825 100.309 71.552 100.309H46.2262Z" fill="#010A1D"/>
<path d="M231.735 209.33C258.516 209.33 274.236 194.794 276.565 189.27H277.438V206.422H322.559V55.247H277.438V72.3996H276.565C274.236 66.8759 258.516 52.3398 231.735 52.3398C197.385 52.3398 159.542 78.214 159.542 130.835C159.542 183.455 197.385 209.33 231.735 209.33Z" fill="#010A1D"/>
<path d="M374.707 261.66H418.954L442.242 206.422L505.702 55.247H459.708L421.283 153.511L382.858 55.247H336.864L399.742 204.678L374.707 261.66Z" fill="#010A1D"/>
<path fill-rule="evenodd" clip-rule="evenodd" d="M261.597 171.174L191.455 131.057L261.597 90.9404V113.231H322.503V148.883H261.597V171.174Z" fill="white"/>
</svg>
