<svg width="563" height="181" viewBox="0 0 563 181" fill="none" xmlns="http://www.w3.org/2000/svg">
<path d="M46.1281 162.928V141.653C39.6114 141.142 33.5419 139.353 27.9196 136.286C22.4251 133.219 17.6334 129.258 13.5444 124.403C9.4555 119.547 6.26103 114.244 3.961 108.494C1.78876 102.616 0.702637 96.6108 0.702637 90.4774C0.702637 81.7884 2.42765 73.7383 5.87769 66.3271C9.4555 58.9159 14.6306 52.7186 21.4028 47.7353C28.1751 42.6241 36.4169 39.3657 46.1281 37.9602V16.3016H57.6282V37.9602C66.5728 38.2157 74.6867 40.5157 81.9701 44.8602C89.2535 49.2047 94.9397 55.402 99.0287 63.4521L74.1117 71.1188C72.3228 67.9244 69.9589 65.4327 67.02 63.6437C64.0811 61.7271 60.9505 60.6409 57.6282 60.3854V119.419C59.9282 118.908 62.2283 118.205 64.5283 117.311C66.8283 116.289 68.8728 115.011 70.6617 113.478C72.5784 111.816 73.8562 110.028 74.4951 108.111L99.6037 115.778C97.1758 121.528 93.4703 126.383 88.4869 130.344C83.5035 134.178 78.2007 137.053 72.5784 138.97C67.0839 140.886 62.1005 141.845 57.6282 141.845V162.928H46.1281ZM27.1529 90.4774C27.1529 94.5663 27.9196 98.5274 29.4529 102.361C31.1141 106.066 33.3502 109.325 36.1613 112.136C38.9725 114.947 42.2947 116.992 46.1281 118.269V61.5354C43.1892 62.1743 40.5058 63.3882 38.078 65.1771C35.778 66.8382 33.7974 69.0105 32.1363 71.6938C30.4752 74.3772 29.1974 77.38 28.3029 80.7023C27.5362 83.8967 27.1529 87.1551 27.1529 90.4774Z" fill="#010A1D"/>
<path d="M211.691 139.928H186.007V83.5773C186.007 75.7828 184.474 69.9688 181.407 66.1354C178.468 62.3021 174.379 60.3854 169.14 60.3854C166.074 60.3854 162.815 61.2798 159.365 63.0687C155.915 64.8577 152.785 67.3493 149.974 70.5438C147.29 73.6105 145.31 77.1883 144.032 81.2773V139.928H118.348V0.00976562H144.032V58.0854C147.737 51.6964 152.785 46.713 159.174 43.1352C165.563 39.5574 172.527 37.7685 180.066 37.7685C186.582 37.7685 191.885 38.9185 195.974 41.2185C200.063 43.3908 203.257 46.3936 205.557 50.2269C207.857 53.9325 209.455 58.1493 210.349 62.8771C211.244 67.4771 211.691 72.2688 211.691 77.2522V139.928Z" fill="#010A1D"/>
<path d="M280.599 141.845C272.549 141.845 265.265 140.503 258.749 137.82C252.232 135.008 246.673 131.239 242.073 126.511C237.473 121.655 233.895 116.161 231.34 110.028C228.912 103.766 227.698 97.1858 227.698 90.2857C227.698 80.7023 229.807 71.9494 234.023 64.0271C238.368 56.1048 244.501 49.7797 252.423 45.0519C260.474 40.1963 269.929 37.7685 280.79 37.7685C291.779 37.7685 301.171 40.1963 308.966 45.0519C316.76 49.7797 322.702 56.1048 326.791 64.0271C331.008 71.8216 333.116 80.255 333.116 89.3273C333.116 90.8607 333.052 92.4579 332.924 94.1191C332.797 95.6524 332.669 96.9302 332.541 97.9524H254.915C255.426 103.064 256.896 107.536 259.324 111.369C261.879 115.203 265.074 118.142 268.907 120.186C272.868 122.103 277.085 123.061 281.557 123.061C286.668 123.061 291.46 121.847 295.932 119.419C300.532 116.864 303.663 113.541 305.324 109.453L327.366 115.586C324.938 120.697 321.424 125.233 316.824 129.194C312.352 133.156 307.049 136.286 300.916 138.586C294.782 140.758 288.01 141.845 280.599 141.845ZM254.34 81.6606H306.857C306.346 76.5494 304.877 72.1411 302.449 68.4355C300.149 64.6021 297.082 61.6632 293.249 59.6187C289.415 57.4465 285.135 56.3603 280.407 56.3603C275.807 56.3603 271.59 57.4465 267.757 59.6187C264.051 61.6632 260.985 64.6021 258.557 68.4355C256.257 72.1411 254.851 76.5494 254.34 81.6606Z" fill="#010A1D"/>
<path d="M341.862 110.219C341.862 103.702 343.651 98.0163 347.229 93.1607C350.935 88.1773 356.046 84.344 362.563 81.6606C369.079 78.9772 376.554 77.6356 384.988 77.6356C389.204 77.6356 393.485 77.955 397.83 78.5939C402.174 79.2328 405.944 80.255 409.138 81.6606V76.2939C409.138 69.9049 407.221 64.9854 403.388 61.5354C399.682 58.0854 394.124 56.3603 386.713 56.3603C381.218 56.3603 375.979 57.3187 370.996 59.2354C366.013 61.1521 360.774 63.9632 355.279 67.6688L347.037 50.802C353.682 46.4575 360.454 43.1991 367.354 41.0269C374.382 38.8546 381.729 37.7685 389.396 37.7685C403.707 37.7685 414.824 41.3463 422.746 48.5019C430.797 55.6576 434.822 65.8799 434.822 79.1689V111.178C434.822 113.861 435.269 115.778 436.163 116.928C437.186 118.078 438.783 118.78 440.955 119.036V139.928C438.655 140.311 436.547 140.631 434.63 140.886C432.841 141.142 431.308 141.27 430.03 141.27C424.919 141.27 421.021 140.12 418.338 137.82C415.783 135.519 414.185 132.708 413.546 129.386L412.971 124.211C408.627 129.833 403.196 134.178 396.68 137.245C390.163 140.311 383.518 141.845 376.746 141.845C370.101 141.845 364.096 140.503 358.729 137.82C353.49 135.008 349.337 131.239 346.271 126.511C343.332 121.655 341.862 116.225 341.862 110.219ZM404.346 115.394C405.752 113.861 406.902 112.328 407.796 110.794C408.691 109.261 409.138 107.855 409.138 106.578V96.4191C406.071 95.1413 402.749 94.1829 399.171 93.5441C395.593 92.7774 392.207 92.394 389.013 92.394C382.368 92.394 376.874 93.8635 372.529 96.8024C368.313 99.6136 366.204 103.383 366.204 108.111C366.204 110.666 366.907 113.094 368.313 115.394C369.718 117.694 371.763 119.547 374.446 120.953C377.129 122.358 380.324 123.061 384.029 123.061C387.863 123.061 391.632 122.358 395.338 120.953C399.043 119.419 402.046 117.567 404.346 115.394Z" fill="#010A1D"/>
<path d="M519.006 141.845C511.212 141.845 504.311 140.12 498.306 136.669C492.428 133.092 487.828 128.3 484.506 122.294V180.753H458.822V39.4935H481.247V56.7437C485.081 50.8658 489.936 46.2658 495.814 42.9435C501.692 39.4935 508.4 37.7685 515.939 37.7685C522.712 37.7685 528.909 39.1102 534.531 41.7935C540.281 44.4769 545.265 48.2464 549.481 53.102C553.698 57.8298 556.956 63.3243 559.256 69.5855C561.684 75.7189 562.898 82.3634 562.898 89.519C562.898 99.2302 560.982 108.047 557.148 115.969C553.443 123.892 548.267 130.217 541.623 134.944C535.106 139.545 527.567 141.845 519.006 141.845ZM510.381 119.994C514.342 119.994 517.92 119.164 521.114 117.503C524.309 115.842 527.056 113.605 529.356 110.794C531.784 107.855 533.573 104.597 534.723 101.019C536.001 97.3135 536.64 93.4802 536.64 89.519C536.64 85.3023 535.937 81.405 534.531 77.8272C533.253 74.2494 531.337 71.1188 528.781 68.4355C526.226 65.6243 523.223 63.4521 519.773 61.9187C516.45 60.3854 512.809 59.6187 508.848 59.6187C506.42 59.6187 503.928 60.0659 501.373 60.9604C498.945 61.7271 496.581 62.8771 494.281 64.4104C491.981 65.9438 489.936 67.7327 488.147 69.7771C486.486 71.8216 485.272 74.0577 484.506 76.4855V100.061C486.039 103.766 488.084 107.153 490.639 110.219C493.322 113.286 496.389 115.714 499.839 117.503C503.289 119.164 506.803 119.994 510.381 119.994Z" fill="#010A1D"/>
</svg>
