<svg width="527" height="122" viewBox="0 0 527 122" fill="none" xmlns="http://www.w3.org/2000/svg">
<path d="M67.7223 59.4084C74.3987 60.6532 79.8869 63.9914 84.1869 69.423C88.4869 74.8546 90.637 81.0784 90.637 88.0942C90.637 94.4311 89.0527 100.033 85.8843 104.898C82.829 109.651 78.3592 113.385 72.4749 116.101C66.5907 118.817 59.6314 120.175 51.5971 120.175H0.505859V1.69738H49.3905C57.4248 1.69738 64.3275 2.99871 70.0986 5.60137C75.9829 8.20402 80.3961 11.8251 83.3382 16.4646C86.3935 21.1041 87.9212 26.366 87.9212 32.2503C87.9212 39.153 86.054 44.9241 82.3198 49.5636C78.6987 54.2031 73.8329 57.4847 67.7223 59.4084ZM24.2692 50.582H45.9958C51.6537 50.582 56.0103 49.3373 59.0656 46.8478C62.1209 44.2451 63.6486 40.5675 63.6486 35.8148C63.6486 31.0621 62.1209 27.3845 59.0656 24.7818C56.0103 22.1791 51.6537 20.8778 45.9958 20.8778H24.2692V50.582ZM48.2024 100.825C53.9735 100.825 58.4432 99.4667 61.6117 96.7509C64.8933 94.0351 66.5341 90.1877 66.5341 85.2087C66.5341 80.1165 64.8367 76.156 61.442 73.327C58.0472 70.3849 53.4642 68.9138 47.6931 68.9138H24.2692V100.825H48.2024Z" fill="#010A1D"/>
<path d="M164.571 121.363C153.482 121.363 143.297 118.76 134.018 113.555C124.739 108.35 117.384 101.164 111.952 91.9982C106.521 82.7192 103.805 72.252 103.805 60.5966C103.805 49.0544 106.521 38.7004 111.952 29.5345C117.384 20.2554 124.739 13.0133 134.018 7.80796C143.297 2.60265 153.482 0 164.571 0C175.774 0 185.958 2.60265 195.124 7.80796C204.403 13.0133 211.702 20.2554 217.02 29.5345C222.452 38.7004 225.168 49.0544 225.168 60.5966C225.168 72.252 222.452 82.7192 217.02 91.9982C211.702 101.164 204.403 108.35 195.124 113.555C185.845 118.76 175.661 121.363 164.571 121.363ZM164.571 100.146C171.7 100.146 177.981 98.5615 183.412 95.393C188.844 92.1114 193.087 87.4719 196.143 81.4744C199.198 75.477 200.726 68.5177 200.726 60.5966C200.726 52.6755 199.198 45.7728 196.143 39.8885C193.087 33.8911 188.844 29.3082 183.412 26.1397C177.981 22.9713 171.7 21.387 164.571 21.387C157.442 21.387 151.105 22.9713 145.561 26.1397C140.129 29.3082 135.886 33.8911 132.83 39.8885C129.775 45.7728 128.247 52.6755 128.247 60.5966C128.247 68.5177 129.775 75.477 132.83 81.4744C135.886 87.4719 140.129 92.1114 145.561 95.393C151.105 98.5615 157.442 100.146 164.571 100.146Z" fill="#010A1D"/>
<path d="M297.842 121.363C286.753 121.363 276.569 118.76 267.29 113.555C258.011 108.35 250.655 101.164 245.224 91.9982C239.792 82.7192 237.076 72.252 237.076 60.5966C237.076 49.0544 239.792 38.7004 245.224 29.5345C250.655 20.2554 258.011 13.0133 267.29 7.80796C276.569 2.60265 286.753 0 297.842 0C309.045 0 319.23 2.60265 328.395 7.80796C337.674 13.0133 344.973 20.2554 350.292 29.5345C355.723 38.7004 358.439 49.0544 358.439 60.5966C358.439 72.252 355.723 82.7192 350.292 91.9982C344.973 101.164 337.674 108.35 328.395 113.555C319.116 118.76 308.932 121.363 297.842 121.363ZM297.842 100.146C304.972 100.146 311.252 98.5615 316.683 95.393C322.115 92.1114 326.359 87.4719 329.414 81.4744C332.469 75.477 333.997 68.5177 333.997 60.5966C333.997 52.6755 332.469 45.7728 329.414 39.8885C326.359 33.8911 322.115 29.3082 316.683 26.1397C311.252 22.9713 304.972 21.387 297.842 21.387C290.713 21.387 284.377 22.9713 278.832 26.1397C273.4 29.3082 269.157 33.8911 266.101 39.8885C263.046 45.7728 261.518 52.6755 261.518 60.5966C261.518 68.5177 263.046 75.477 266.101 81.4744C269.157 87.4719 273.4 92.1114 278.832 95.393C284.377 98.5615 290.713 100.146 297.842 100.146Z" fill="#010A1D"/>
<path d="M372.55 88.5962H443.979L441.721 87.188L372.55 44.0386V8.2583L448.228 58.4155L448.653 58.6968L449.075 58.4126L526.081 6.4917V44.0415L457.351 87.189L455.11 88.5962L526.081 88.5962V118.239L372.55 118.239V88.5962Z" fill="#010A1D" stroke="white" stroke-width="1.52376"/>
</svg>
