<svg width="1209" height="142" viewBox="0 0 1209 142" fill="none" xmlns="http://www.w3.org/2000/svg">
<path d="M156.916 139.928H131.233V83.5773C131.233 75.655 129.827 69.841 127.016 66.1354C124.333 62.3021 120.563 60.3854 115.707 60.3854C110.724 60.3854 105.932 62.366 101.332 66.3271C96.86 70.1605 93.6656 75.2078 91.7489 81.4689V139.928H66.0653V83.5773C66.0653 75.5272 64.6597 69.6494 61.8486 65.9438C59.1652 62.2382 55.3957 60.3854 50.5401 60.3854C45.5567 60.3854 40.765 62.3021 36.165 66.1354C31.6927 69.9688 28.4982 75.0161 26.5815 81.2773V139.928H0.897949V39.4935H24.0899V58.0854C27.9232 51.5686 33.0344 46.5852 39.4233 43.1352C45.8123 39.5574 53.1596 37.7685 61.4652 37.7685C69.7709 37.7685 76.2237 39.8129 80.8238 43.9019C85.5516 47.9908 88.5544 53.0381 89.8322 59.0437C93.9211 52.1436 99.0962 46.9047 105.357 43.3269C111.746 39.6213 118.902 37.7685 126.824 37.7685C133.085 37.7685 138.133 38.9185 141.966 41.2185C145.927 43.3908 148.994 46.3936 151.166 50.2269C153.338 53.9325 154.808 58.1493 155.575 62.8771C156.469 67.6049 156.916 72.3966 156.916 77.2522V139.928Z" fill="#010A1D"/>
<path d="M172.377 110.219C172.377 103.702 174.166 98.0163 177.744 93.1607C181.449 88.1773 186.56 84.344 193.077 81.6606C199.594 78.9772 207.069 77.6356 215.502 77.6356C219.719 77.6356 224 77.955 228.344 78.5939C232.689 79.2328 236.458 80.255 239.653 81.6606V76.2939C239.653 69.9049 237.736 64.9854 233.903 61.5354C230.197 58.0854 224.639 56.3603 217.227 56.3603C211.733 56.3603 206.494 57.3187 201.511 59.2354C196.527 61.1521 191.288 63.9632 185.794 67.6688L177.552 50.802C184.197 46.4575 190.969 43.1991 197.869 41.0269C204.897 38.8546 212.244 37.7685 219.911 37.7685C234.222 37.7685 245.339 41.3463 253.261 48.5019C261.311 55.6576 265.336 65.8799 265.336 79.1689V111.178C265.336 113.861 265.784 115.778 266.678 116.928C267.7 118.078 269.297 118.78 271.47 119.036V139.928C269.17 140.311 267.061 140.631 265.145 140.886C263.356 141.142 261.822 141.27 260.545 141.27C255.433 141.27 251.536 140.12 248.853 137.82C246.297 135.519 244.7 132.708 244.061 129.386L243.486 124.211C239.142 129.833 233.711 134.178 227.194 137.245C220.677 140.311 214.033 141.845 207.261 141.845C200.616 141.845 194.611 140.503 189.244 137.82C184.005 135.008 179.852 131.239 176.785 126.511C173.846 121.655 172.377 116.225 172.377 110.219ZM234.861 115.394C236.267 113.861 237.417 112.328 238.311 110.794C239.205 109.261 239.653 107.855 239.653 106.578V96.4191C236.586 95.1413 233.264 94.1829 229.686 93.5441C226.108 92.7774 222.722 92.394 219.527 92.394C212.883 92.394 207.388 93.8635 203.044 96.8024C198.827 99.6136 196.719 103.383 196.719 108.111C196.719 110.666 197.422 113.094 198.827 115.394C200.233 117.694 202.277 119.547 204.961 120.953C207.644 122.358 210.839 123.061 214.544 123.061C218.377 123.061 222.147 122.358 225.853 120.953C229.558 119.419 232.561 117.567 234.861 115.394Z" fill="#010A1D"/>
<path d="M289.337 139.928V39.4935H315.02V139.928H289.337ZM289.337 25.5017V0.00976562H315.02V25.5017H289.337Z" fill="#010A1D"/>
<path d="M431.532 139.928H405.849V83.5773C405.849 75.5272 404.443 69.6494 401.632 65.9438C398.821 62.2382 394.924 60.3854 389.94 60.3854C386.49 60.3854 382.976 61.2798 379.399 63.0687C375.949 64.8577 372.818 67.3493 370.007 70.5438C367.196 73.6105 365.151 77.1883 363.873 81.2773V139.928H338.19V39.4935H361.382V58.0854C363.937 53.7409 367.196 50.0992 371.157 47.1602C375.118 44.0936 379.654 41.7935 384.765 40.2602C390.004 38.599 395.499 37.7685 401.249 37.7685C407.51 37.7685 412.621 38.9185 416.582 41.2185C420.671 43.3908 423.738 46.3936 425.782 50.2269C427.955 53.9325 429.424 58.1493 430.191 62.8771C431.085 67.6049 431.532 72.3966 431.532 77.2522V139.928Z" fill="#010A1D"/>
<path d="M592.531 141.845C584.481 141.845 577.198 140.503 570.681 137.82C564.164 135.008 558.606 131.239 554.006 126.511C549.406 121.655 545.828 116.161 543.272 110.028C540.844 103.766 539.631 97.1858 539.631 90.2857C539.631 80.7023 541.739 71.9494 545.956 64.0271C550.3 56.1048 556.434 49.7797 564.356 45.0519C572.406 40.1963 581.862 37.7685 592.723 37.7685C603.712 37.7685 613.104 40.1963 620.898 45.0519C628.693 49.7797 634.634 56.1048 638.723 64.0271C642.94 71.8216 645.048 80.255 645.048 89.3273C645.048 90.8607 644.984 92.4579 644.857 94.1191C644.729 95.6524 644.601 96.9302 644.473 97.9524H566.848C567.359 103.064 568.828 107.536 571.256 111.369C573.811 115.203 577.006 118.142 580.839 120.186C584.8 122.103 589.017 123.061 593.489 123.061C598.601 123.061 603.392 121.847 607.865 119.419C612.465 116.864 615.595 113.541 617.256 109.453L639.298 115.586C636.87 120.697 633.357 125.233 628.757 129.194C624.284 133.156 618.981 136.286 612.848 138.586C606.715 140.758 599.942 141.845 592.531 141.845ZM566.273 81.6606H618.79C618.279 76.5494 616.809 72.1411 614.381 68.4355C612.081 64.6021 609.015 61.6632 605.181 59.6187C601.348 57.4465 597.067 56.3603 592.339 56.3603C587.739 56.3603 583.523 57.4465 579.689 59.6187C575.984 61.6632 572.917 64.6021 570.489 68.4355C568.189 72.1411 566.784 76.5494 566.273 81.6606Z" fill="#010A1D"/>
<path d="M754.037 139.928H728.354V83.5773C728.354 75.5272 726.948 69.6494 724.137 65.9438C721.326 62.2382 717.429 60.3854 712.445 60.3854C708.995 60.3854 705.481 61.2798 701.904 63.0687C698.453 64.8577 695.323 67.3493 692.512 70.5438C689.701 73.6105 687.656 77.1883 686.378 81.2773V139.928H660.695V39.4935H683.887V58.0854C686.442 53.7409 689.701 50.0992 693.662 47.1602C697.623 44.0936 702.159 41.7935 707.27 40.2602C712.509 38.599 718.004 37.7685 723.754 37.7685C730.015 37.7685 735.126 38.9185 739.087 41.2185C743.176 43.3908 746.243 46.3936 748.287 50.2269C750.46 53.9325 751.929 58.1493 752.696 62.8771C753.59 67.6049 754.037 72.3966 754.037 77.2522V139.928Z" fill="#010A1D"/>
<path d="M769.47 110.219C769.47 103.702 771.259 98.0163 774.836 93.1607C778.542 88.1773 783.653 84.344 790.17 81.6606C796.687 78.9772 804.162 77.6356 812.595 77.6356C816.812 77.6356 821.092 77.955 825.437 78.5939C829.781 79.2328 833.551 80.255 836.745 81.6606V76.2939C836.745 69.9049 834.829 64.9854 830.995 61.5354C827.29 58.0854 821.731 56.3603 814.32 56.3603C808.826 56.3603 803.587 57.3187 798.603 59.2354C793.62 61.1521 788.381 63.9632 782.887 67.6688L774.645 50.802C781.289 46.4575 788.062 43.1991 794.962 41.0269C801.989 38.8546 809.337 37.7685 817.004 37.7685C831.315 37.7685 842.432 41.3463 850.354 48.5019C858.404 55.6576 862.429 65.8799 862.429 79.1689V111.178C862.429 113.861 862.876 115.778 863.771 116.928C864.793 118.078 866.39 118.78 868.562 119.036V139.928C866.262 140.311 864.154 140.631 862.237 140.886C860.448 141.142 858.915 141.27 857.637 141.27C852.526 141.27 848.629 140.12 845.946 137.82C843.39 135.519 841.793 132.708 841.154 129.386L840.579 124.211C836.234 129.833 830.804 134.178 824.287 137.245C817.77 140.311 811.126 141.845 804.353 141.845C797.709 141.845 791.703 140.503 786.337 137.82C781.098 135.008 776.945 131.239 773.878 126.511C770.939 121.655 769.47 116.225 769.47 110.219ZM831.954 115.394C833.359 113.861 834.509 112.328 835.404 110.794C836.298 109.261 836.745 107.855 836.745 106.578V96.4191C833.679 95.1413 830.356 94.1829 826.779 93.5441C823.201 92.7774 819.815 92.394 816.62 92.394C809.976 92.394 804.481 93.8635 800.137 96.8024C795.92 99.6136 793.812 103.383 793.812 108.111C793.812 110.666 794.514 113.094 795.92 115.394C797.326 117.694 799.37 119.547 802.053 120.953C804.737 122.358 807.931 123.061 811.637 123.061C815.47 123.061 819.24 122.358 822.945 120.953C826.651 119.419 829.654 117.567 831.954 115.394Z" fill="#010A1D"/>
<path d="M979.772 139.928H954.089V83.5773C954.089 75.5272 952.683 69.6494 949.872 65.9438C947.061 62.2382 943.163 60.3854 938.18 60.3854C934.73 60.3854 931.216 61.2798 927.638 63.0687C924.188 64.8577 921.058 67.3493 918.246 70.5438C915.435 73.6105 913.391 77.1883 912.113 81.2773V139.928H886.43V39.4935H909.621V58.0854C912.177 53.7409 915.435 50.0992 919.397 47.1602C923.358 44.0936 927.894 41.7935 933.005 40.2602C938.244 38.599 943.738 37.7685 949.489 37.7685C955.75 37.7685 960.861 38.9185 964.822 41.2185C968.911 43.3908 971.978 46.3936 974.022 50.2269C976.194 53.9325 977.664 58.1493 978.43 62.8771C979.325 67.6049 979.772 72.3966 979.772 77.2522V139.928Z" fill="#010A1D"/>
<path d="M1048.87 141.845C1040.69 141.845 1033.35 140.503 1026.83 137.82C1020.31 135.008 1014.75 131.175 1010.15 126.319C1005.55 121.336 1001.98 115.714 999.421 109.453C996.993 103.191 995.78 96.6108 995.78 89.7107C995.78 80.255 997.888 71.6299 1002.1 63.8354C1006.45 55.9131 1012.58 49.588 1020.5 44.8602C1028.43 40.1324 1037.82 37.7685 1048.68 37.7685C1059.54 37.7685 1068.87 40.1324 1076.66 44.8602C1084.46 49.588 1090.27 55.7853 1094.11 63.4521L1069 71.1188C1066.82 67.4132 1063.95 64.6021 1060.37 62.6854C1056.79 60.6409 1052.83 59.6187 1048.49 59.6187C1043.63 59.6187 1039.16 60.8965 1035.07 63.4521C1031.11 65.8799 1027.98 69.3938 1025.68 73.9939C1023.38 78.4661 1022.23 83.7051 1022.23 89.7107C1022.23 95.5885 1023.38 100.827 1025.68 105.428C1028.11 109.9 1031.3 113.478 1035.26 116.161C1039.22 118.717 1043.63 119.994 1048.49 119.994C1051.56 119.994 1054.43 119.483 1057.11 118.461C1059.92 117.439 1062.42 116.033 1064.59 114.244C1066.76 112.455 1068.36 110.411 1069.38 108.111L1094.49 115.778C1092.19 120.761 1088.8 125.233 1084.33 129.194C1079.99 133.156 1074.81 136.286 1068.81 138.586C1062.93 140.758 1056.28 141.845 1048.87 141.845Z" fill="#010A1D"/>
<path d="M1155.93 141.845C1147.88 141.845 1140.6 140.503 1134.08 137.82C1127.57 135.008 1122.01 131.239 1117.41 126.511C1112.81 121.655 1109.23 116.161 1106.67 110.028C1104.25 103.766 1103.03 97.1858 1103.03 90.2857C1103.03 80.7023 1105.14 71.9494 1109.36 64.0271C1113.7 56.1048 1119.83 49.7797 1127.76 45.0519C1135.81 40.1963 1145.26 37.7685 1156.12 37.7685C1167.11 37.7685 1176.5 40.1963 1184.3 45.0519C1192.09 49.7797 1198.04 56.1048 1202.12 64.0271C1206.34 71.8216 1208.45 80.255 1208.45 89.3273C1208.45 90.8607 1208.39 92.4579 1208.26 94.1191C1208.13 95.6524 1208 96.9302 1207.87 97.9524H1130.25C1130.76 103.064 1132.23 107.536 1134.66 111.369C1137.21 115.203 1140.41 118.142 1144.24 120.186C1148.2 122.103 1152.42 123.061 1156.89 123.061C1162 123.061 1166.79 121.847 1171.27 119.419C1175.87 116.864 1179 113.541 1180.66 109.453L1202.7 115.586C1200.27 120.697 1196.76 125.233 1192.16 129.194C1187.69 133.156 1182.38 136.286 1176.25 138.586C1170.12 140.758 1163.34 141.845 1155.93 141.845ZM1129.67 81.6606H1182.19C1181.68 76.5494 1180.21 72.1411 1177.78 68.4355C1175.48 64.6021 1172.42 61.6632 1168.58 59.6187C1164.75 57.4465 1160.47 56.3603 1155.74 56.3603C1151.14 56.3603 1146.92 57.4465 1143.09 59.6187C1139.38 61.6632 1136.32 64.6021 1133.89 68.4355C1131.59 72.1411 1130.18 76.5494 1129.67 81.6606Z" fill="#010A1D"/>
<path d="M541.85 113.156C540.515 115.09 538.875 117.374 536.929 120.008C534.984 122.643 532.685 125.203 530.032 127.687C527.556 130.209 524.818 132.444 521.817 134.393C517.852 136.968 513.756 138.638 509.529 139.402C505.303 140.166 501.197 139.709 497.212 138.031C493.265 136.176 489.691 132.783 486.489 127.854L455.068 79.4689L443.976 86.6719L433.224 70.1149L444.316 62.912L426.569 35.5851L448.109 21.5968L465.856 48.9237L483.538 37.4408L494.29 53.9977L476.608 65.4806L503.332 106.632C505.318 109.456 507.479 111.023 509.814 111.335C512.15 111.647 514.443 111.072 516.693 109.61C518.944 108.149 520.897 106.347 522.553 104.205C524.209 102.063 525.506 100.307 526.444 98.9357L541.85 113.156Z" fill="#010A1D"/>
<path d="M1154.78 51.2256L1188.51 70.7268V109.729L1154.78 129.23L1121.04 109.729V99.3656V81.3131V70.7268L1154.78 51.2256Z" fill="white"/>
<path d="M1085.1 99.3656H1121.04V81.3131H1085.1V99.3656Z" fill="white"/>
<path d="M1154.86 73.5127L1168.9 81.6475V97.917L1154.86 106.052L1140.82 97.917V93.594V86.0635V81.6475L1154.86 73.5127Z" fill="#010A1D"/>
<path d="M1168.9 81.6475V97.917H1189.63V81.6475H1168.9Z" fill="#010A1D"/>
</svg>
