<svg width="566" height="123" viewBox="0 0 566 123" fill="none" xmlns="http://www.w3.org/2000/svg">
<path d="M45.2951 118.812C36.7968 118.812 29.1702 116.796 22.4152 112.765C15.7692 108.734 10.485 103.286 6.56274 96.4222C2.74943 89.5583 0.842773 81.8227 0.842773 73.2155C0.842773 64.4994 2.64048 56.7093 6.23588 49.8454C9.83129 42.9814 14.7886 37.5883 21.1078 33.6661C27.427 29.6349 34.6723 27.6192 42.8436 27.6192C49.8166 27.6192 56.1902 28.9811 61.9647 31.7049C67.7391 34.3198 72.7509 38.351 77 43.7986C77.8716 44.8881 78.1985 46.0321 77.9806 47.2306C77.7627 48.429 77.0545 49.4096 75.856 50.1722C74.8754 50.9349 73.7859 51.2618 72.5874 51.1528C71.389 50.9349 70.3539 50.2812 69.4823 49.1917C62.5094 40.9114 53.6299 36.7712 42.8436 36.7712C36.4155 36.7712 30.75 38.351 25.8472 41.5106C21.0533 44.6702 17.2945 48.9738 14.5707 54.4214C11.9558 59.8689 10.6484 66.1337 10.6484 73.2155C10.6484 80.0795 12.1193 86.2897 15.061 91.8463C18.0027 97.2938 22.0339 101.652 27.1546 104.92C32.3843 108.08 38.4311 109.66 45.2951 109.66C49.7621 109.66 53.9567 109.006 57.879 107.699C61.9102 106.391 65.3966 104.376 68.3383 101.652C69.3189 100.78 70.4084 100.29 71.6069 100.181C72.8054 100.072 73.8404 100.453 74.712 101.325C75.8015 102.306 76.3463 103.45 76.3463 104.757C76.4552 105.956 76.0194 106.991 75.0389 107.862C67.0854 115.162 57.1708 118.812 45.2951 118.812Z" fill="#010A1D"/>
<path d="M150.015 118.812C141.299 118.812 133.454 116.851 126.482 112.928C119.618 108.897 114.17 103.45 110.139 96.5857C106.216 89.6128 104.255 81.8227 104.255 73.2155C104.255 64.4994 106.216 56.7093 110.139 49.8454C114.17 42.8725 119.618 37.4249 126.482 33.5026C133.454 29.4714 141.299 27.4558 150.015 27.4558C158.731 27.4558 166.521 29.4714 173.385 33.5026C180.249 37.4249 185.642 42.8725 189.565 49.8454C193.596 56.7093 195.611 64.4994 195.611 73.2155L191.526 79.7526C191.526 87.1613 189.673 93.8074 185.969 99.6908C182.374 105.574 177.471 110.259 171.261 113.746C165.05 117.123 157.969 118.812 150.015 118.812ZM150.015 109.66C156.879 109.66 162.98 108.08 168.319 104.92C173.767 101.652 178.016 97.2938 181.066 91.8463C184.226 86.2897 185.806 80.0795 185.806 73.2155C185.806 66.2426 184.226 60.0324 181.066 54.5848C178.016 49.0283 173.767 44.6702 168.319 41.5106C162.98 38.242 156.879 36.6078 150.015 36.6078C143.26 36.6078 137.159 38.242 131.711 41.5106C126.264 44.6702 121.96 49.0283 118.8 54.5848C115.641 60.0324 114.061 66.2426 114.061 73.2155C114.061 80.0795 115.641 86.2897 118.8 91.8463C121.96 97.2938 126.264 101.652 131.711 104.92C137.159 108.08 143.26 109.66 150.015 109.66ZM190.709 117.831C189.292 117.831 188.094 117.395 187.113 116.524C186.241 115.543 185.806 114.345 185.806 112.928V83.0212L188.911 73.2155H195.611V112.928C195.611 114.345 195.176 115.543 194.304 116.524C193.432 117.395 192.234 117.831 190.709 117.831Z" fill="#010A1D"/>
<path d="M229.884 63.2464C230.538 56.2735 232.444 50.1178 235.604 44.7791C238.763 39.3316 242.849 35.0824 247.861 32.0318C252.873 28.9811 258.429 27.4558 264.53 27.4558C268.671 27.4558 271.885 27.9461 274.173 28.9267C276.461 29.9072 277.332 31.6505 276.788 34.1563C276.461 35.7906 275.698 36.7712 274.5 37.098C273.301 37.4249 271.83 37.4794 270.087 37.2615C268.453 36.9346 266.601 36.7712 264.53 36.7712C259.083 36.7712 254.235 37.9152 249.985 40.2032C245.736 42.4912 242.413 45.6507 240.016 49.682C237.619 53.6042 236.421 58.1257 236.421 63.2464H229.884ZM231.518 117.831C230.102 117.831 228.903 117.395 227.923 116.524C227.051 115.543 226.615 114.345 226.615 112.928V33.3392C226.615 31.8139 227.051 30.6154 227.923 29.7438C228.903 28.8722 230.102 28.4364 231.518 28.4364C233.043 28.4364 234.242 28.8722 235.114 29.7438C235.985 30.6154 236.421 31.8139 236.421 33.3392V112.928C236.421 114.345 235.985 115.543 235.114 116.524C234.242 117.395 233.043 117.831 231.518 117.831Z" fill="#010A1D"/>
<path d="M453.194 118.648C444.586 118.648 436.905 116.742 430.15 112.928C423.504 109.006 418.275 103.613 414.461 96.7491C410.648 89.8851 408.741 82.0406 408.741 73.2155C408.741 64.2815 410.539 56.437 414.134 49.682C417.73 42.818 422.687 37.4249 429.006 33.5026C435.325 29.5804 442.571 27.6192 450.742 27.6192C458.805 27.6192 465.941 29.5259 472.151 33.3392C478.361 37.0436 483.21 42.2188 486.696 48.8648C490.183 55.4019 491.926 62.9741 491.926 71.5813C491.926 72.9976 491.49 74.1416 490.618 75.0132C489.747 75.7759 488.603 76.1572 487.186 76.1572H415.278V67.659H489.801L482.611 73.0521C482.828 65.9702 481.63 59.7055 479.015 54.2579C476.4 48.8103 472.641 44.5612 467.739 41.5106C462.945 38.351 457.279 36.7712 450.742 36.7712C444.532 36.7712 438.975 38.351 434.073 41.5106C429.279 44.5612 425.465 48.8103 422.633 54.2579C419.909 59.7055 418.547 66.0247 418.547 73.2155C418.547 80.2974 420.018 86.5621 422.959 92.0097C425.901 97.4573 429.987 101.761 435.217 104.92C440.446 107.971 446.439 109.496 453.194 109.496C457.443 109.496 461.692 108.788 465.941 107.372C470.299 105.847 473.731 103.885 476.237 101.488C477.108 100.617 478.143 100.181 479.342 100.181C480.649 100.072 481.739 100.399 482.611 101.162C483.809 102.142 484.408 103.232 484.408 104.43C484.517 105.629 484.027 106.718 482.937 107.699C479.451 110.858 474.875 113.473 469.209 115.543C463.653 117.613 458.314 118.648 453.194 118.648Z" fill="#010A1D"/>
<path d="M556.378 117.831C550.385 117.722 545.047 116.36 540.362 113.746C535.677 111.022 532.027 107.317 529.412 102.632C526.797 97.8386 525.49 92.4455 525.49 86.4532V5.06625C525.49 3.54092 525.926 2.34246 526.797 1.47085C527.778 0.490283 528.976 0 530.393 0C531.918 0 533.116 0.490283 533.988 1.47085C534.969 2.34246 535.459 3.54092 535.459 5.06625V86.4532C535.459 92.7724 537.42 97.9476 541.342 101.979C545.264 105.901 550.331 107.862 556.541 107.862H560.136C561.662 107.862 562.86 108.352 563.732 109.333C564.712 110.205 565.203 111.403 565.203 112.928C565.203 114.345 564.712 115.543 563.732 116.524C562.86 117.395 561.662 117.831 560.136 117.831H556.378ZM512.742 40.53C511.435 40.53 510.345 40.1487 509.474 39.386C508.711 38.5144 508.33 37.4249 508.33 36.1175C508.33 34.8101 508.711 33.775 509.474 33.0124C510.345 32.1407 511.435 31.7049 512.742 31.7049H557.031C558.339 31.7049 559.374 32.1407 560.136 33.0124C561.008 33.775 561.444 34.8101 561.444 36.1175C561.444 37.4249 561.008 38.5144 560.136 39.386C559.374 40.1487 558.339 40.53 557.031 40.53H512.742Z" fill="#010A1D"/>
<path d="M406.792 117.234C406.792 118.623 406.311 119.798 405.349 120.759C404.495 121.614 403.373 122.041 401.984 122.041H324.588C316.149 121.828 308.671 119.798 302.155 115.952C295.531 111.999 290.297 106.658 286.451 99.928C282.605 93.1979 280.682 85.6666 280.682 77.3341C280.682 68.788 282.659 61.1498 286.611 54.4197C290.457 47.5828 295.798 42.2415 302.635 38.3957C309.365 34.4431 317.004 32.4668 325.55 32.4668C333.989 32.4668 341.627 34.4431 348.464 38.3957C355.194 42.2415 360.536 47.5828 364.488 54.4197C368.334 61.1498 370.257 68.788 370.257 77.3341C370.257 85.0257 368.601 91.9694 365.289 98.1654C361.978 104.254 357.544 109.008 351.989 112.427H401.984C403.373 112.427 404.495 112.854 405.349 113.709C406.311 114.563 406.792 115.738 406.792 117.234ZM361.283 77.3341C361.283 70.604 359.734 64.6217 356.636 59.3872C353.432 54.0458 349.158 49.8262 343.817 46.7282C338.369 43.6302 332.28 42.0812 325.55 42.0812C318.713 42.0812 312.624 43.6302 307.282 46.7282C301.834 49.8262 297.561 54.0458 294.463 59.3872C291.258 64.6217 289.656 70.604 289.656 77.3341C289.656 83.9574 291.258 89.9397 294.463 95.281C297.561 100.622 301.834 104.842 307.282 107.94C312.624 110.931 318.713 112.427 325.55 112.427C332.28 112.427 338.369 110.931 343.817 107.94C349.158 104.842 353.432 100.622 356.636 95.281C359.734 89.9397 361.283 83.9574 361.283 77.3341Z" fill="#010A1D"/>
</svg>
