<svg width="499" height="118" viewBox="0 0 499 118" fill="none" xmlns="http://www.w3.org/2000/svg">
<path d="M15.8917 115.707V46.5768H0.202637V36.2809H15.8917V33.5026C15.8917 22.9343 18.5065 14.9264 23.7362 9.47879C29.0748 4.03121 37.2462 0.980559 48.2503 0.326851L54.624 0L55.768 10.1325L48.2503 10.6228C41.4953 11.1675 36.5925 13.1832 33.5419 16.6696C30.6002 20.1561 29.1293 25.2223 29.1293 31.8684V36.2809H52.0092V46.5768H29.1293V115.707H15.8917Z" fill="#010A1D"/>
<path d="M92.0693 117.178C85.8591 117.178 79.9757 116.306 74.4192 114.563C68.8626 112.819 64.2867 110.368 60.6912 107.208L64.9404 97.8931C68.8626 101.053 73.1662 103.395 77.8511 104.92C82.645 106.337 87.4934 107.045 92.3962 107.045C98.6064 107.045 103.291 105.901 106.451 103.613C109.611 101.325 111.19 98.2199 111.19 94.2977C111.19 91.247 110.155 88.8501 108.085 87.1069C106.015 85.2547 102.747 83.8383 98.2796 82.8578L83.4077 79.5892C69.8977 76.6475 63.1427 69.6746 63.1427 58.6705C63.1427 51.4797 65.9754 45.7052 71.6409 41.3472C77.4153 36.9891 84.933 34.8101 94.1939 34.8101C99.6415 34.8101 104.817 35.6817 109.719 37.4249C114.731 39.0592 118.871 41.5106 122.14 44.7791L117.727 54.0945C114.568 51.1528 110.863 48.9193 106.614 47.394C102.474 45.7597 98.3341 44.9426 94.1939 44.9426C88.0926 44.9426 83.4621 46.141 80.3025 48.538C77.1429 50.9349 75.5631 54.0945 75.5631 58.0168C75.5631 64.1181 79.5944 68.0403 87.6568 69.7836L102.529 72.8887C109.502 74.414 114.786 76.8654 118.381 80.2429C121.977 83.5115 123.774 87.9785 123.774 93.644C123.774 100.944 120.887 106.718 115.113 110.967C109.338 115.107 101.657 117.178 92.0693 117.178Z" fill="#010A1D"/>
<path d="M172.058 117.178C152.992 117.178 143.458 106.664 143.458 85.636V36.2809H156.696V85.4726C156.696 92.5545 158.112 97.7841 160.945 101.162C163.887 104.539 168.463 106.228 174.673 106.228C181.428 106.228 186.93 103.994 191.179 99.5274C195.428 94.9514 197.553 88.9046 197.553 81.3869V36.2809H210.79V115.707H197.88V102.306C195.374 107.1 191.833 110.804 187.257 113.419C182.79 115.925 177.724 117.178 172.058 117.178Z" fill="#010A1D"/>
<path d="M235.557 115.707V0.490276H248.795V49.3551C251.41 44.5612 255.06 40.9658 259.745 38.5689C264.539 36.063 269.877 34.8101 275.761 34.8101C294.609 34.8101 304.034 45.2694 304.034 66.1881V115.707H290.796V67.0053C290.796 59.5966 289.325 54.2035 286.383 50.826C283.551 47.3395 278.975 45.5963 272.655 45.5963C265.356 45.5963 259.527 47.8843 255.169 52.4602C250.92 56.9273 248.795 62.9196 248.795 70.4373V115.707H235.557Z" fill="#010A1D"/>
<path d="M332.692 115.707V46.5768H317.003V36.2809H332.692V33.5026C332.692 22.9343 335.307 14.9264 340.537 9.47879C345.875 4.03121 354.047 0.980559 365.051 0.326851L371.424 0L372.568 10.1325L365.051 10.6228C358.296 11.1675 353.393 13.1832 350.342 16.6696C347.401 20.1561 345.93 25.2223 345.93 31.8684V36.2809H368.81V46.5768H345.93V115.707H332.692ZM407.215 117.178C399.153 117.178 393.051 114.835 388.911 110.15C384.88 105.356 382.864 98.4378 382.864 89.3949V0.490276H396.102V88.4143C396.102 100.072 400.732 105.901 409.993 105.901C412.717 105.901 415.168 105.574 417.348 104.92L417.021 116.034C413.643 116.796 410.375 117.178 407.215 117.178Z" fill="#010A1D"/>
<path d="M466.216 117.178C453.687 117.178 443.772 113.528 436.472 106.228C429.173 98.8192 425.523 88.7956 425.523 76.1572C425.523 67.9859 427.157 60.795 430.426 54.5848C433.694 48.2656 438.161 43.4172 443.827 40.0397C449.601 36.5533 456.247 34.8101 463.765 34.8101C474.551 34.8101 482.995 38.2965 489.096 45.2694C495.197 52.1334 498.248 61.6122 498.248 73.7058V78.7721H438.434C438.869 87.8151 441.484 94.7335 446.278 99.5274C451.072 104.212 457.718 106.555 466.216 106.555C471.01 106.555 475.586 105.847 479.944 104.43C484.302 102.905 488.442 100.453 492.365 97.0759L496.941 106.391C493.345 109.769 488.769 112.438 483.213 114.399C477.656 116.251 471.991 117.178 466.216 117.178ZM464.092 44.6157C456.574 44.6157 450.636 46.9582 446.278 51.6431C441.92 56.328 439.36 62.4838 438.597 70.1104H486.808C486.481 62.048 484.357 55.7833 480.434 51.3162C476.621 46.8492 471.174 44.6157 464.092 44.6157Z" fill="#010A1D"/>
</svg>
