<svg width="622" height="139" viewBox="0 0 622 139" fill="none" xmlns="http://www.w3.org/2000/svg">
<path d="M179.547 18.3039C192.403 18.3039 202.209 21.409 208.964 27.6192C215.828 33.7205 219.26 42.9814 219.26 55.4019V106.555H199.975V95.9319C197.47 99.7453 193.874 102.687 189.189 104.757C184.613 106.718 179.057 107.699 172.52 107.699C165.983 107.699 160.263 106.609 155.36 104.43C150.457 102.142 146.644 99.0371 143.92 95.1148C141.305 91.0836 139.998 86.5621 139.998 81.5503C139.998 73.7058 142.885 67.4411 148.659 62.7562C154.543 57.9623 163.749 55.5654 176.278 55.5654H198.831V54.2579C198.831 48.1566 196.979 43.4717 193.275 40.2032C189.68 36.9346 184.286 35.3003 177.096 35.3003C172.193 35.3003 167.344 36.063 162.551 37.5883C157.866 39.1136 153.889 41.2382 150.62 43.962L142.612 29.0901C147.188 25.6036 152.69 22.9343 159.119 21.0821C165.547 19.23 172.356 18.3039 179.547 18.3039ZM176.769 92.8268C181.889 92.8268 186.411 91.6828 190.333 89.3948C194.364 86.9979 197.197 83.6204 198.831 79.2623V69.1298H177.749C165.983 69.1298 160.099 72.9976 160.099 80.7332C160.099 84.4375 161.57 87.3792 164.512 89.5583C167.453 91.7373 171.539 92.8268 176.769 92.8268Z" fill="#010A1D"/>
<path d="M293.852 18.3039C302.35 18.3039 309.922 20.1561 316.568 23.8604C323.323 27.5648 328.607 32.7944 332.421 39.5495C336.234 46.3045 338.141 54.0945 338.141 62.9196C338.141 71.7447 336.234 79.5892 332.421 86.4531C328.607 93.2082 323.323 98.4378 316.568 102.142C309.922 105.847 302.35 107.699 293.852 107.699C282.085 107.699 272.77 103.776 265.906 95.9319V138.26H245.477V19.2844H264.925V30.7244C268.303 26.5842 272.443 23.4791 277.346 21.409C282.357 19.3389 287.859 18.3039 293.852 18.3039ZM291.564 90.212C299.081 90.212 305.237 87.7061 310.031 82.6943C314.934 77.6825 317.385 71.091 317.385 62.9196C317.385 54.7482 314.934 48.1566 310.031 43.1449C305.237 38.1331 299.081 35.6272 291.564 35.6272C286.661 35.6272 282.248 36.7712 278.326 39.0592C274.404 41.2382 271.299 44.3978 269.011 48.538C266.723 52.6781 265.579 57.472 265.579 62.9196C265.579 68.3672 266.723 73.161 269.011 77.3012C271.299 81.4414 274.404 84.6554 278.326 86.9434C282.248 89.1225 286.661 90.212 291.564 90.212Z" fill="#010A1D"/>
<path d="M409.975 101.815C407.578 103.776 404.636 105.247 401.15 106.228C397.772 107.208 394.177 107.699 390.363 107.699C380.776 107.699 373.367 105.193 368.137 100.181C362.908 95.1693 360.293 87.8695 360.293 78.2818V36.2809H345.911V19.9382H360.293V0H380.721V19.9382H404.091V36.2809H380.721V77.7915C380.721 82.0406 381.756 85.3092 383.826 87.5971C385.896 89.7762 388.893 90.8657 392.815 90.8657C397.391 90.8657 401.204 89.6672 404.255 87.2703L409.975 101.815Z" fill="#010A1D"/>
<path d="M463.13 107.699C454.304 107.699 446.351 105.792 439.269 101.979C432.187 98.1655 426.631 92.8813 422.599 86.1263C418.677 79.2623 416.716 71.5268 416.716 62.9196C416.716 54.3124 418.677 46.6313 422.599 39.8763C426.631 33.1213 432.187 27.8371 439.269 24.0238C446.351 20.2105 454.304 18.3039 463.13 18.3039C472.064 18.3039 480.071 20.2105 487.153 24.0238C494.235 27.8371 499.737 33.1213 503.66 39.8763C507.691 46.6313 509.706 54.3124 509.706 62.9196C509.706 71.5268 507.691 79.2623 503.66 86.1263C499.737 92.8813 494.235 98.1655 487.153 101.979C480.071 105.792 472.064 107.699 463.13 107.699ZM463.13 90.212C470.647 90.212 476.857 87.7061 481.76 82.6943C486.663 77.6825 489.114 71.091 489.114 62.9196C489.114 54.7482 486.663 48.1566 481.76 43.1449C476.857 38.1331 470.647 35.6272 463.13 35.6272C455.612 35.6272 449.402 38.1331 444.499 43.1449C439.705 48.1566 437.308 54.7482 437.308 62.9196C437.308 71.091 439.705 77.6825 444.499 82.6943C449.402 87.7061 455.612 90.212 463.13 90.212Z" fill="#010A1D"/>
<path d="M577.616 18.3039C586.114 18.3039 593.686 20.1561 600.332 23.8604C607.087 27.5648 612.371 32.7944 616.184 39.5495C619.998 46.3045 621.904 54.0945 621.904 62.9196C621.904 71.7447 619.998 79.5892 616.184 86.4531C612.371 93.2082 607.087 98.4378 600.332 102.142C593.686 105.847 586.114 107.699 577.616 107.699C565.849 107.699 556.533 103.776 549.669 95.9319V138.26H529.241V19.2844H548.689V30.7244C552.066 26.5842 556.207 23.4791 561.109 21.409C566.121 19.3389 571.623 18.3039 577.616 18.3039ZM575.328 90.212C582.845 90.212 589.001 87.7061 593.795 82.6943C598.698 77.6825 601.149 71.091 601.149 62.9196C601.149 54.7482 598.698 48.1566 593.795 43.1449C589.001 38.1331 582.845 35.6272 575.328 35.6272C570.425 35.6272 566.012 36.7712 562.09 39.0592C558.168 41.2382 555.063 44.3978 552.775 48.538C550.487 52.6781 549.343 57.472 549.343 62.9196C549.343 68.3672 550.487 73.161 552.775 77.3012C555.063 81.4414 558.168 84.6554 562.09 86.9434C566.012 89.1225 570.425 90.212 575.328 90.212Z" fill="#010A1D"/>
<path d="M0.248047 26.4397L13.8748 11.2021L71.0157 88.5774H130.83V106.554H58.1508L0.248047 26.4397Z" fill="#010A1D"/>
</svg>
