<svg width="382" height="90" viewBox="0 0 382 90" fill="none" xmlns="http://www.w3.org/2000/svg">
<path d="M43.0478 89.6325H1.40798C1.07252 89.6325 0.904785 89.4228 0.904785 89.0035L1.03059 0.5032C1.03059 0.167733 1.19832 0 1.53378 0H42.922C43.2574 0 43.4252 0.209667 43.4252 0.629V15.0331C43.4252 15.3686 43.2574 15.5363 42.922 15.5363H16.504V35.6643H42.922C43.2574 35.6643 43.4252 35.832 43.4252 36.1675L43.551 50.7603C43.551 51.0957 43.3832 51.2635 43.0478 51.2635H16.504V73.7817H43.0478C43.3832 73.7817 43.551 73.9913 43.551 74.4107V89.1293C43.551 89.4647 43.3832 89.6325 43.0478 89.6325Z" fill="#010A1D"/>
<path d="M124.418 89.6325H111.523C110.852 89.6325 110.517 89.3389 110.517 88.7519L110.391 1.0064C110.391 0.335467 110.726 0 111.397 0H123.034L144.797 50.7603L144.168 1.0064C144.168 0.335467 144.546 0 145.3 0H158.069C158.572 0 158.824 0.335467 158.824 1.0064L158.95 88.8777C158.95 89.3809 158.74 89.6325 158.321 89.6325H146.999L124.669 42.2059L125.613 88.6261C125.613 89.297 125.214 89.6325 124.418 89.6325Z" fill="#010A1D"/>
<path d="M255.604 89.6325H240.005C239.628 89.6325 239.418 89.4228 239.376 89.0035L221.575 0.5032C221.492 0.167733 221.659 0 222.079 0H236.671C237.007 0 237.217 0.167733 237.3 0.5032L247.868 59.5034L258.183 0.5032C258.267 0.167733 258.477 0 258.812 0H273.216C273.678 0 273.845 0.167733 273.72 0.5032L256.233 89.0035C256.191 89.4228 255.982 89.6325 255.604 89.6325Z" fill="#010A1D"/>
<path d="M363.518 89.6325H348.737C348.443 89.6325 348.296 89.4647 348.296 89.1293L348.422 52.5215L331.188 0.5032C331.104 0.167733 331.229 0 331.565 0H345.906C346.325 0 346.577 0.167733 346.661 0.5032L356.159 35.1611L365.845 0.5032C365.929 0.167733 366.139 0 366.474 0H380.941C381.277 0 381.403 0.167733 381.319 0.5032L363.896 52.0183L364.021 89.1293C364.021 89.4647 363.854 89.6325 363.518 89.6325Z" fill="#010A1D"/>
</svg>
