<svg width="506" height="203" viewBox="0 0 506 203" fill="none" xmlns="http://www.w3.org/2000/svg">
<path d="M237.296 92.2027H241.486V200.513H237.296V92.2027ZM239.391 62.2445C237.854 62.2445 236.528 61.6858 235.41 60.5685C234.433 59.4512 233.944 58.1942 233.944 56.7975C233.944 55.2612 234.433 54.0042 235.41 53.0266C236.528 51.9092 237.854 51.3506 239.391 51.3506C240.787 51.3506 242.044 51.9092 243.162 53.0266C244.279 54.0042 244.838 55.2612 244.838 56.7975C244.838 58.1942 244.279 59.4512 243.162 60.5685C242.044 61.6858 240.787 62.2445 239.391 62.2445Z" fill="#010A1D"/>
<path d="M50.6238 202.399C41.1266 202.399 31.769 201.352 22.5511 199.257C13.3331 197.022 5.93086 194.159 0.344238 190.667L12.2856 163.432C17.4533 166.645 23.5985 169.229 30.7215 171.184C37.8444 173 44.8975 173.907 51.8808 173.907C58.3054 173.907 62.8446 173.279 65.4982 172.022C68.2915 170.625 69.6882 168.67 69.6882 166.156C69.6882 163.642 68.0122 161.896 64.6602 160.918C61.4479 159.801 56.2803 158.754 49.1573 157.776C40.0791 156.659 32.3276 155.192 25.903 153.377C19.6181 151.561 14.1711 148.209 9.56216 143.321C4.9532 138.432 2.64872 131.589 2.64872 122.79C2.64872 115.527 4.81353 109.103 9.14317 103.516C13.4728 97.7897 19.7577 93.3204 27.998 90.1081C36.3779 86.7561 46.364 85.0801 57.9563 85.0801C66.1965 85.0801 74.367 85.9181 82.4676 87.5941C90.5682 89.2701 97.3419 91.6444 102.789 94.717L90.8475 121.742C80.7916 116.156 69.8977 113.362 58.1658 113.362C51.8808 113.362 47.2719 114.131 44.3389 115.667C41.4059 117.063 39.9394 118.949 39.9394 121.323C39.9394 123.977 41.5456 125.862 44.7579 126.98C47.9702 127.957 53.2775 129.005 60.6797 130.122C70.0373 131.519 77.7888 133.125 83.9341 134.941C90.0793 136.756 95.3866 140.108 99.8559 144.997C104.465 149.745 106.769 156.449 106.769 165.108C106.769 172.231 104.605 178.656 100.275 184.382C95.9453 189.969 89.5207 194.368 81.0011 197.581C72.6211 200.793 62.4954 202.399 50.6238 202.399Z" fill="#010A1D"/>
<path d="M123.922 45.0659H163.727V200.514H123.922V45.0659Z" fill="#010A1D"/>
<path d="M459.435 85.0801C473.402 85.0801 484.505 89.2701 492.745 97.65C501.125 106.03 505.315 118.67 505.315 135.569V200.514H465.511V142.064C465.511 134.103 463.974 128.237 460.902 124.466C457.969 120.695 453.779 118.809 448.332 118.809C442.326 118.809 437.508 120.904 433.876 125.094C430.245 129.284 428.429 135.639 428.429 144.159V200.514H388.625V142.064C388.625 126.561 382.898 118.809 371.446 118.809C365.301 118.809 360.412 120.904 356.781 125.094C353.15 129.284 351.334 135.639 351.334 144.159V200.514H311.529V86.9656H349.449V98.907C353.639 94.298 358.597 90.8762 364.323 88.6416C370.189 86.2673 376.544 85.0801 383.387 85.0801C391.348 85.0801 398.471 86.5466 404.756 89.4796C411.041 92.4125 416.139 96.8818 420.049 102.887C424.519 97.1612 430.175 92.7617 437.019 89.6891C443.862 86.6164 451.335 85.0801 459.435 85.0801Z" fill="#010A1D"/>
<circle cx="239.502" cy="52.5274" r="40.1167" fill="#010A1D" stroke="white" stroke-width="23.1785"/>
</svg>
