<svg width="981" height="311" viewBox="0 0 981 311" fill="none" xmlns="http://www.w3.org/2000/svg">
<mask id="path-1-outside-1_819_117" maskUnits="userSpaceOnUse" x="0.31543" y="0" width="981" height="156" fill="black">
<rect fill="white" x="0.31543" width="981" height="156"/>
<path d="M101.951 142.121H83.1862C81.4725 142.121 80.1444 142.635 79.2019 143.663C78.2594 144.606 77.7881 145.763 77.7881 147.134C77.7881 148.59 78.3022 149.875 79.3304 150.989C80.3587 152.103 81.8153 152.66 83.7003 152.66H128.042C129.755 152.66 131.083 152.146 132.026 151.118C132.968 150.004 133.44 148.719 133.44 147.262C133.44 145.891 132.968 144.692 132.026 143.663C131.169 142.635 129.927 142.121 128.299 142.121H114.289V84.156C114.289 72.6744 111.29 63.8062 105.293 57.5512C99.2948 51.2963 90.2551 48.1689 78.1737 48.1689C72.4329 48.1689 66.8206 49.1542 61.3369 51.125C55.9388 53.0957 51.1834 55.7947 47.0705 59.2221C42.9577 62.5637 39.8303 66.3338 37.6882 70.5323V6.0125C37.6882 2.67083 35.9316 1 32.4186 1C32.0759 1 31.219 1.08568 29.8481 1.25705L5.55677 3.69904C4.18583 3.78472 3.11479 4.38451 2.34363 5.49839C1.65816 6.61228 1.31543 7.76901 1.31543 8.96858C1.31543 10.3395 1.78669 11.4963 2.72921 12.4388C3.67173 13.2956 4.8713 13.6812 6.32793 13.5955L25.3497 12.4388V142.121H11.4689C9.75528 142.121 8.42718 142.635 7.48466 143.663C6.54214 144.606 6.07088 145.763 6.07088 147.134C6.07088 148.59 6.58498 149.875 7.61318 150.989C8.64139 152.103 10.098 152.66 11.9831 152.66H50.9263C52.897 152.66 54.4393 152.146 55.5532 151.118C56.7528 150.004 57.3526 148.719 57.3526 147.262C57.3526 145.891 56.7956 144.692 55.6817 143.663C54.6535 142.635 53.1541 142.121 51.1833 142.121H37.6882V88.783C37.6882 84.2417 39.4447 79.6148 42.9577 74.9022C46.4707 70.1896 51.3547 66.3338 57.6096 63.3349C63.9502 60.2503 71.0191 58.708 78.8163 58.708C86.4422 58.708 92.183 60.8501 96.0388 65.1343C99.9802 69.4184 101.951 75.4591 101.951 83.2564V142.121Z"/>
<path d="M263.945 92.2531L254.562 92.8958C240.596 93.8383 229.457 95.0379 221.146 96.4945C212.92 97.9511 205.98 100.95 200.324 105.491C194.669 110.033 191.842 116.759 191.842 125.67C191.842 134.495 194.541 141.564 199.939 146.877C205.337 152.103 212.834 154.717 222.431 154.717C231.342 154.717 239.568 153.131 247.108 149.961C254.734 146.791 260.646 142.849 264.844 138.137C265.872 144.22 267.886 148.333 270.885 150.475C273.884 152.532 277.568 153.56 281.938 153.56C285.794 153.56 289.478 152.746 292.991 151.118C296.59 149.404 299.76 147.091 302.502 144.177C303.359 143.321 303.787 142.25 303.787 140.964C303.787 139.593 303.316 138.351 302.374 137.237C301.431 136.123 300.317 135.566 299.032 135.566C297.918 135.566 296.89 136.08 295.947 137.109C294.491 138.651 292.52 140.107 290.035 141.478C287.55 142.764 285.194 143.406 282.966 143.406C280.91 143.406 279.282 142.892 278.082 141.864C276.883 140.75 276.283 138.694 276.283 135.695V95.5948C276.283 85.1414 275.169 76.4873 272.941 69.6326C270.714 62.6923 266.772 57.3799 261.117 53.6955C255.548 50.0111 247.836 48.1689 237.982 48.1689C229.243 48.1689 221.488 49.3256 214.719 51.6391C207.95 53.9525 202.681 57.1657 198.911 61.2785C195.141 65.3913 193.256 70.0182 193.256 75.1592C193.256 77.9011 193.898 80.1289 195.183 81.8426C196.554 83.5562 198.482 84.4131 200.967 84.4131C203.88 84.4131 205.937 82.7423 207.136 79.4006C208.336 76.0589 209.107 71.0893 209.45 64.4916C213.991 62.4352 218.489 60.9786 222.945 60.1218C227.486 59.1792 232.456 58.708 237.854 58.708C247.45 58.708 254.177 61.3642 258.032 66.6766C261.974 71.9889 263.945 79.6576 263.945 89.6826V92.2531ZM263.945 128.369C259.318 133.253 253.363 137.151 246.08 140.065C238.882 142.892 231.47 144.306 223.845 144.306C217.932 144.306 213.177 142.849 209.578 139.936C206.065 136.937 204.309 132.182 204.309 125.67C204.309 119.672 206.365 115.131 210.478 112.046C214.591 108.961 220.117 106.819 227.058 105.62C234.084 104.335 244.623 103.006 258.675 101.636L263.945 101.121V128.369Z"/>
<path d="M446.759 142.121H427.995C426.281 142.121 424.953 142.635 424.01 143.663C423.068 144.606 422.597 145.763 422.597 147.134C422.597 148.59 423.111 149.875 424.139 150.989C425.167 152.103 426.624 152.66 428.509 152.66H472.85C474.564 152.66 475.892 152.146 476.834 151.118C477.777 150.004 478.248 148.719 478.248 147.262C478.248 145.891 477.777 144.692 476.834 143.663C475.977 142.635 474.735 142.121 473.107 142.121H459.098V84.156C459.098 72.6744 456.099 63.8062 450.101 57.5512C444.103 51.2963 435.064 48.1689 422.982 48.1689C417.156 48.1689 411.501 49.1542 406.017 51.125C400.533 53.0957 395.692 55.7947 391.493 59.2221C387.295 62.5637 384.125 66.3338 381.982 70.5323L381.34 55.1093C381.168 51.7676 379.498 50.0968 376.327 50.0968C375.985 50.0968 375.213 50.1824 374.014 50.3538L352.936 54.5952C351.479 54.9379 350.408 55.6234 349.723 56.6516C349.037 57.5941 348.694 58.6651 348.694 59.8647C348.694 61.2356 349.166 62.3924 350.108 63.3349C351.051 64.2774 352.25 64.7487 353.707 64.7487C354.564 64.7487 355.421 64.6202 356.277 64.3631L370.158 61.5355V142.121H356.277C354.564 142.121 353.236 142.635 352.293 143.663C351.351 144.606 350.879 145.763 350.879 147.134C350.879 148.59 351.393 149.875 352.422 150.989C353.45 152.103 354.906 152.66 356.791 152.66H395.735C397.705 152.66 399.248 152.146 400.362 151.118C401.561 150.004 402.161 148.719 402.161 147.262C402.161 145.891 401.604 144.692 400.49 143.663C399.462 142.635 397.962 142.121 395.992 142.121H382.497V88.0118C382.497 83.5563 384.253 79.0579 387.766 74.5166C391.279 69.9754 396.163 66.2053 402.418 63.2064C408.759 60.2074 415.828 58.708 423.625 58.708C431.251 58.708 436.991 60.8501 440.847 65.1343C444.789 69.4184 446.759 75.4591 446.759 83.2564V142.121Z"/>
<path d="M704.17 100.35C704.17 111.575 706.612 121.3 711.496 129.526C716.38 137.666 723.192 143.92 731.932 148.29C740.757 152.66 750.911 154.845 762.392 154.845C769.676 154.845 777.473 153.431 785.784 150.604C794.181 147.776 800.607 143.963 805.063 139.165C806.605 137.451 807.376 135.652 807.376 133.767C807.376 132.225 806.905 130.896 805.963 129.783C805.02 128.669 803.778 128.112 802.235 128.112C800.522 128.112 798.765 128.84 796.966 130.297C792.082 134.924 786.512 138.437 780.258 140.836C774.088 143.149 767.791 144.306 761.364 144.306C748.169 144.306 737.501 140.793 729.361 133.767C721.221 126.741 716.937 116.459 716.509 102.921L797.351 102.278C800.35 102.278 802.749 101.25 804.549 99.1935C806.348 97.0514 807.248 94.3524 807.248 91.0964C807.248 81.9283 805.234 74.131 801.207 67.7048C797.266 61.2785 791.782 56.4374 784.756 53.1814C777.816 49.8397 769.89 48.1689 760.979 48.1689C750.525 48.1689 740.971 50.2681 732.317 54.4666C723.749 58.6651 716.894 64.7058 711.753 72.5887C706.698 80.4716 704.17 89.7255 704.17 100.35ZM761.236 58.708C774.602 58.708 783.642 62.0925 788.355 68.8615C793.067 75.6305 795.723 83.6419 796.323 92.8958L716.894 93.4099C718.437 82.4424 723.064 73.9168 730.775 67.8333C738.572 61.7497 748.726 58.708 761.236 58.708Z"/>
<path d="M967.699 74.131C967.699 76.2731 968.299 77.944 969.499 79.1435C970.698 80.2574 972.112 80.8144 973.74 80.8144C975.454 80.8144 976.91 80.2146 978.11 79.015C979.395 77.7298 980.038 75.9304 980.038 73.6169V55.8804C980.038 53.3099 979.181 51.382 977.467 50.0968C975.753 48.8115 972.84 48.1689 968.727 48.1689C944.907 48.1689 928.113 55.6662 918.345 70.6609L917.831 57.2942C917.746 54.8951 917.36 53.0957 916.675 51.8961C916.075 50.6966 914.832 50.0968 912.947 50.0968C912.09 50.0968 911.105 50.2253 909.991 50.4823L888.013 54.8522C886.814 55.1093 885.871 55.709 885.186 56.6516C884.5 57.5084 884.158 58.5366 884.158 59.7362C884.158 61.1071 884.586 62.3067 885.443 63.3349C886.385 64.3631 887.671 64.8772 889.299 64.8772C889.984 64.8772 890.498 64.8344 890.841 64.7487L906.521 61.5355V142.121H883.001C881.287 142.121 879.959 142.635 879.017 143.663C878.074 144.692 877.603 145.891 877.603 147.262C877.603 148.719 878.117 150.004 879.145 151.118C880.173 152.146 881.63 152.66 883.515 152.66H961.916C963.544 152.66 964.829 152.146 965.771 151.118C966.714 150.004 967.185 148.762 967.185 147.391C967.185 145.934 966.714 144.692 965.771 143.663C964.915 142.635 963.672 142.121 962.044 142.121H918.86V85.0557C922.287 76.4873 928.413 69.9754 937.239 65.5198C946.064 60.9786 956.218 58.708 967.699 58.708V74.131Z"/>
</mask>
<path d="M101.951 142.121H83.1862C81.4725 142.121 80.1444 142.635 79.2019 143.663C78.2594 144.606 77.7881 145.763 77.7881 147.134C77.7881 148.59 78.3022 149.875 79.3304 150.989C80.3587 152.103 81.8153 152.66 83.7003 152.66H128.042C129.755 152.66 131.083 152.146 132.026 151.118C132.968 150.004 133.44 148.719 133.44 147.262C133.44 145.891 132.968 144.692 132.026 143.663C131.169 142.635 129.927 142.121 128.299 142.121H114.289V84.156C114.289 72.6744 111.29 63.8062 105.293 57.5512C99.2948 51.2963 90.2551 48.1689 78.1737 48.1689C72.4329 48.1689 66.8206 49.1542 61.3369 51.125C55.9388 53.0957 51.1834 55.7947 47.0705 59.2221C42.9577 62.5637 39.8303 66.3338 37.6882 70.5323V6.0125C37.6882 2.67083 35.9316 1 32.4186 1C32.0759 1 31.219 1.08568 29.8481 1.25705L5.55677 3.69904C4.18583 3.78472 3.11479 4.38451 2.34363 5.49839C1.65816 6.61228 1.31543 7.76901 1.31543 8.96858C1.31543 10.3395 1.78669 11.4963 2.72921 12.4388C3.67173 13.2956 4.8713 13.6812 6.32793 13.5955L25.3497 12.4388V142.121H11.4689C9.75528 142.121 8.42718 142.635 7.48466 143.663C6.54214 144.606 6.07088 145.763 6.07088 147.134C6.07088 148.59 6.58498 149.875 7.61318 150.989C8.64139 152.103 10.098 152.66 11.9831 152.66H50.9263C52.897 152.66 54.4393 152.146 55.5532 151.118C56.7528 150.004 57.3526 148.719 57.3526 147.262C57.3526 145.891 56.7956 144.692 55.6817 143.663C54.6535 142.635 53.1541 142.121 51.1833 142.121H37.6882V88.783C37.6882 84.2417 39.4447 79.6148 42.9577 74.9022C46.4707 70.1896 51.3547 66.3338 57.6096 63.3349C63.9502 60.2503 71.0191 58.708 78.8163 58.708C86.4422 58.708 92.183 60.8501 96.0388 65.1343C99.9802 69.4184 101.951 75.4591 101.951 83.2564V142.121Z" fill="#010A1D"/>
<path d="M263.945 92.2531L254.562 92.8958C240.596 93.8383 229.457 95.0379 221.146 96.4945C212.92 97.9511 205.98 100.95 200.324 105.491C194.669 110.033 191.842 116.759 191.842 125.67C191.842 134.495 194.541 141.564 199.939 146.877C205.337 152.103 212.834 154.717 222.431 154.717C231.342 154.717 239.568 153.131 247.108 149.961C254.734 146.791 260.646 142.849 264.844 138.137C265.872 144.22 267.886 148.333 270.885 150.475C273.884 152.532 277.568 153.56 281.938 153.56C285.794 153.56 289.478 152.746 292.991 151.118C296.59 149.404 299.76 147.091 302.502 144.177C303.359 143.321 303.787 142.25 303.787 140.964C303.787 139.593 303.316 138.351 302.374 137.237C301.431 136.123 300.317 135.566 299.032 135.566C297.918 135.566 296.89 136.08 295.947 137.109C294.491 138.651 292.52 140.107 290.035 141.478C287.55 142.764 285.194 143.406 282.966 143.406C280.91 143.406 279.282 142.892 278.082 141.864C276.883 140.75 276.283 138.694 276.283 135.695V95.5948C276.283 85.1414 275.169 76.4873 272.941 69.6326C270.714 62.6923 266.772 57.3799 261.117 53.6955C255.548 50.0111 247.836 48.1689 237.982 48.1689C229.243 48.1689 221.488 49.3256 214.719 51.6391C207.95 53.9525 202.681 57.1657 198.911 61.2785C195.141 65.3913 193.256 70.0182 193.256 75.1592C193.256 77.9011 193.898 80.1289 195.183 81.8426C196.554 83.5562 198.482 84.4131 200.967 84.4131C203.88 84.4131 205.937 82.7423 207.136 79.4006C208.336 76.0589 209.107 71.0893 209.45 64.4916C213.991 62.4352 218.489 60.9786 222.945 60.1218C227.486 59.1792 232.456 58.708 237.854 58.708C247.45 58.708 254.177 61.3642 258.032 66.6766C261.974 71.9889 263.945 79.6576 263.945 89.6826V92.2531ZM263.945 128.369C259.318 133.253 253.363 137.151 246.08 140.065C238.882 142.892 231.47 144.306 223.845 144.306C217.932 144.306 213.177 142.849 209.578 139.936C206.065 136.937 204.309 132.182 204.309 125.67C204.309 119.672 206.365 115.131 210.478 112.046C214.591 108.961 220.117 106.819 227.058 105.62C234.084 104.335 244.623 103.006 258.675 101.636L263.945 101.121V128.369Z" fill="#010A1D"/>
<path d="M446.759 142.121H427.995C426.281 142.121 424.953 142.635 424.01 143.663C423.068 144.606 422.597 145.763 422.597 147.134C422.597 148.59 423.111 149.875 424.139 150.989C425.167 152.103 426.624 152.66 428.509 152.66H472.85C474.564 152.66 475.892 152.146 476.834 151.118C477.777 150.004 478.248 148.719 478.248 147.262C478.248 145.891 477.777 144.692 476.834 143.663C475.977 142.635 474.735 142.121 473.107 142.121H459.098V84.156C459.098 72.6744 456.099 63.8062 450.101 57.5512C444.103 51.2963 435.064 48.1689 422.982 48.1689C417.156 48.1689 411.501 49.1542 406.017 51.125C400.533 53.0957 395.692 55.7947 391.493 59.2221C387.295 62.5637 384.125 66.3338 381.982 70.5323L381.34 55.1093C381.168 51.7676 379.498 50.0968 376.327 50.0968C375.985 50.0968 375.213 50.1824 374.014 50.3538L352.936 54.5952C351.479 54.9379 350.408 55.6234 349.723 56.6516C349.037 57.5941 348.694 58.6651 348.694 59.8647C348.694 61.2356 349.166 62.3924 350.108 63.3349C351.051 64.2774 352.25 64.7487 353.707 64.7487C354.564 64.7487 355.421 64.6202 356.277 64.3631L370.158 61.5355V142.121H356.277C354.564 142.121 353.236 142.635 352.293 143.663C351.351 144.606 350.879 145.763 350.879 147.134C350.879 148.59 351.393 149.875 352.422 150.989C353.45 152.103 354.906 152.66 356.791 152.66H395.735C397.705 152.66 399.248 152.146 400.362 151.118C401.561 150.004 402.161 148.719 402.161 147.262C402.161 145.891 401.604 144.692 400.49 143.663C399.462 142.635 397.962 142.121 395.992 142.121H382.497V88.0118C382.497 83.5563 384.253 79.0579 387.766 74.5166C391.279 69.9754 396.163 66.2053 402.418 63.2064C408.759 60.2074 415.828 58.708 423.625 58.708C431.251 58.708 436.991 60.8501 440.847 65.1343C444.789 69.4184 446.759 75.4591 446.759 83.2564V142.121Z" fill="#010A1D"/>
<path d="M704.17 100.35C704.17 111.575 706.612 121.3 711.496 129.526C716.38 137.666 723.192 143.92 731.932 148.29C740.757 152.66 750.911 154.845 762.392 154.845C769.676 154.845 777.473 153.431 785.784 150.604C794.181 147.776 800.607 143.963 805.063 139.165C806.605 137.451 807.376 135.652 807.376 133.767C807.376 132.225 806.905 130.896 805.963 129.783C805.02 128.669 803.778 128.112 802.235 128.112C800.522 128.112 798.765 128.84 796.966 130.297C792.082 134.924 786.512 138.437 780.258 140.836C774.088 143.149 767.791 144.306 761.364 144.306C748.169 144.306 737.501 140.793 729.361 133.767C721.221 126.741 716.937 116.459 716.509 102.921L797.351 102.278C800.35 102.278 802.749 101.25 804.549 99.1935C806.348 97.0514 807.248 94.3524 807.248 91.0964C807.248 81.9283 805.234 74.131 801.207 67.7048C797.266 61.2785 791.782 56.4374 784.756 53.1814C777.816 49.8397 769.89 48.1689 760.979 48.1689C750.525 48.1689 740.971 50.2681 732.317 54.4666C723.749 58.6651 716.894 64.7058 711.753 72.5887C706.698 80.4716 704.17 89.7255 704.17 100.35ZM761.236 58.708C774.602 58.708 783.642 62.0925 788.355 68.8615C793.067 75.6305 795.723 83.6419 796.323 92.8958L716.894 93.4099C718.437 82.4424 723.064 73.9168 730.775 67.8333C738.572 61.7497 748.726 58.708 761.236 58.708Z" fill="#010A1D"/>
<path d="M967.699 74.131C967.699 76.2731 968.299 77.944 969.499 79.1435C970.698 80.2574 972.112 80.8144 973.74 80.8144C975.454 80.8144 976.91 80.2146 978.11 79.015C979.395 77.7298 980.038 75.9304 980.038 73.6169V55.8804C980.038 53.3099 979.181 51.382 977.467 50.0968C975.753 48.8115 972.84 48.1689 968.727 48.1689C944.907 48.1689 928.113 55.6662 918.345 70.6609L917.831 57.2942C917.746 54.8951 917.36 53.0957 916.675 51.8961C916.075 50.6966 914.832 50.0968 912.947 50.0968C912.09 50.0968 911.105 50.2253 909.991 50.4823L888.013 54.8522C886.814 55.1093 885.871 55.709 885.186 56.6516C884.5 57.5084 884.158 58.5366 884.158 59.7362C884.158 61.1071 884.586 62.3067 885.443 63.3349C886.385 64.3631 887.671 64.8772 889.299 64.8772C889.984 64.8772 890.498 64.8344 890.841 64.7487L906.521 61.5355V142.121H883.001C881.287 142.121 879.959 142.635 879.017 143.663C878.074 144.692 877.603 145.891 877.603 147.262C877.603 148.719 878.117 150.004 879.145 151.118C880.173 152.146 881.63 152.66 883.515 152.66H961.916C963.544 152.66 964.829 152.146 965.771 151.118C966.714 150.004 967.185 148.762 967.185 147.391C967.185 145.934 966.714 144.692 965.771 143.663C964.915 142.635 963.672 142.121 962.044 142.121H918.86V85.0557C922.287 76.4873 928.413 69.9754 937.239 65.5198C946.064 60.9786 956.218 58.708 967.699 58.708V74.131Z" fill="#010A1D"/>
<path d="M101.951 142.121H83.1862C81.4725 142.121 80.1444 142.635 79.2019 143.663C78.2594 144.606 77.7881 145.763 77.7881 147.134C77.7881 148.59 78.3022 149.875 79.3304 150.989C80.3587 152.103 81.8153 152.66 83.7003 152.66H128.042C129.755 152.66 131.083 152.146 132.026 151.118C132.968 150.004 133.44 148.719 133.44 147.262C133.44 145.891 132.968 144.692 132.026 143.663C131.169 142.635 129.927 142.121 128.299 142.121H114.289V84.156C114.289 72.6744 111.29 63.8062 105.293 57.5512C99.2948 51.2963 90.2551 48.1689 78.1737 48.1689C72.4329 48.1689 66.8206 49.1542 61.3369 51.125C55.9388 53.0957 51.1834 55.7947 47.0705 59.2221C42.9577 62.5637 39.8303 66.3338 37.6882 70.5323V6.0125C37.6882 2.67083 35.9316 1 32.4186 1C32.0759 1 31.219 1.08568 29.8481 1.25705L5.55677 3.69904C4.18583 3.78472 3.11479 4.38451 2.34363 5.49839C1.65816 6.61228 1.31543 7.76901 1.31543 8.96858C1.31543 10.3395 1.78669 11.4963 2.72921 12.4388C3.67173 13.2956 4.8713 13.6812 6.32793 13.5955L25.3497 12.4388V142.121H11.4689C9.75528 142.121 8.42718 142.635 7.48466 143.663C6.54214 144.606 6.07088 145.763 6.07088 147.134C6.07088 148.59 6.58498 149.875 7.61318 150.989C8.64139 152.103 10.098 152.66 11.9831 152.66H50.9263C52.897 152.66 54.4393 152.146 55.5532 151.118C56.7528 150.004 57.3526 148.719 57.3526 147.262C57.3526 145.891 56.7956 144.692 55.6817 143.663C54.6535 142.635 53.1541 142.121 51.1833 142.121H37.6882V88.783C37.6882 84.2417 39.4447 79.6148 42.9577 74.9022C46.4707 70.1896 51.3547 66.3338 57.6096 63.3349C63.9502 60.2503 71.0191 58.708 78.8163 58.708C86.4422 58.708 92.183 60.8501 96.0388 65.1343C99.9802 69.4184 101.951 75.4591 101.951 83.2564V142.121Z" stroke="#010A1D" stroke-width="0.891482" mask="url(#path-1-outside-1_819_117)"/>
<path d="M263.945 92.2531L254.562 92.8958C240.596 93.8383 229.457 95.0379 221.146 96.4945C212.92 97.9511 205.98 100.95 200.324 105.491C194.669 110.033 191.842 116.759 191.842 125.67C191.842 134.495 194.541 141.564 199.939 146.877C205.337 152.103 212.834 154.717 222.431 154.717C231.342 154.717 239.568 153.131 247.108 149.961C254.734 146.791 260.646 142.849 264.844 138.137C265.872 144.22 267.886 148.333 270.885 150.475C273.884 152.532 277.568 153.56 281.938 153.56C285.794 153.56 289.478 152.746 292.991 151.118C296.59 149.404 299.76 147.091 302.502 144.177C303.359 143.321 303.787 142.25 303.787 140.964C303.787 139.593 303.316 138.351 302.374 137.237C301.431 136.123 300.317 135.566 299.032 135.566C297.918 135.566 296.89 136.08 295.947 137.109C294.491 138.651 292.52 140.107 290.035 141.478C287.55 142.764 285.194 143.406 282.966 143.406C280.91 143.406 279.282 142.892 278.082 141.864C276.883 140.75 276.283 138.694 276.283 135.695V95.5948C276.283 85.1414 275.169 76.4873 272.941 69.6326C270.714 62.6923 266.772 57.3799 261.117 53.6955C255.548 50.0111 247.836 48.1689 237.982 48.1689C229.243 48.1689 221.488 49.3256 214.719 51.6391C207.95 53.9525 202.681 57.1657 198.911 61.2785C195.141 65.3913 193.256 70.0182 193.256 75.1592C193.256 77.9011 193.898 80.1289 195.183 81.8426C196.554 83.5562 198.482 84.4131 200.967 84.4131C203.88 84.4131 205.937 82.7423 207.136 79.4006C208.336 76.0589 209.107 71.0893 209.45 64.4916C213.991 62.4352 218.489 60.9786 222.945 60.1218C227.486 59.1792 232.456 58.708 237.854 58.708C247.45 58.708 254.177 61.3642 258.032 66.6766C261.974 71.9889 263.945 79.6576 263.945 89.6826V92.2531ZM263.945 128.369C259.318 133.253 253.363 137.151 246.08 140.065C238.882 142.892 231.47 144.306 223.845 144.306C217.932 144.306 213.177 142.849 209.578 139.936C206.065 136.937 204.309 132.182 204.309 125.67C204.309 119.672 206.365 115.131 210.478 112.046C214.591 108.961 220.117 106.819 227.058 105.62C234.084 104.335 244.623 103.006 258.675 101.636L263.945 101.121V128.369Z" stroke="#010A1D" stroke-width="0.891482" mask="url(#path-1-outside-1_819_117)"/>
<path d="M446.759 142.121H427.995C426.281 142.121 424.953 142.635 424.01 143.663C423.068 144.606 422.597 145.763 422.597 147.134C422.597 148.59 423.111 149.875 424.139 150.989C425.167 152.103 426.624 152.66 428.509 152.66H472.85C474.564 152.66 475.892 152.146 476.834 151.118C477.777 150.004 478.248 148.719 478.248 147.262C478.248 145.891 477.777 144.692 476.834 143.663C475.977 142.635 474.735 142.121 473.107 142.121H459.098V84.156C459.098 72.6744 456.099 63.8062 450.101 57.5512C444.103 51.2963 435.064 48.1689 422.982 48.1689C417.156 48.1689 411.501 49.1542 406.017 51.125C400.533 53.0957 395.692 55.7947 391.493 59.2221C387.295 62.5637 384.125 66.3338 381.982 70.5323L381.34 55.1093C381.168 51.7676 379.498 50.0968 376.327 50.0968C375.985 50.0968 375.213 50.1824 374.014 50.3538L352.936 54.5952C351.479 54.9379 350.408 55.6234 349.723 56.6516C349.037 57.5941 348.694 58.6651 348.694 59.8647C348.694 61.2356 349.166 62.3924 350.108 63.3349C351.051 64.2774 352.25 64.7487 353.707 64.7487C354.564 64.7487 355.421 64.6202 356.277 64.3631L370.158 61.5355V142.121H356.277C354.564 142.121 353.236 142.635 352.293 143.663C351.351 144.606 350.879 145.763 350.879 147.134C350.879 148.59 351.393 149.875 352.422 150.989C353.45 152.103 354.906 152.66 356.791 152.66H395.735C397.705 152.66 399.248 152.146 400.362 151.118C401.561 150.004 402.161 148.719 402.161 147.262C402.161 145.891 401.604 144.692 400.49 143.663C399.462 142.635 397.962 142.121 395.992 142.121H382.497V88.0118C382.497 83.5563 384.253 79.0579 387.766 74.5166C391.279 69.9754 396.163 66.2053 402.418 63.2064C408.759 60.2074 415.828 58.708 423.625 58.708C431.251 58.708 436.991 60.8501 440.847 65.1343C444.789 69.4184 446.759 75.4591 446.759 83.2564V142.121Z" stroke="#010A1D" stroke-width="0.891482" mask="url(#path-1-outside-1_819_117)"/>
<path d="M704.17 100.35C704.17 111.575 706.612 121.3 711.496 129.526C716.38 137.666 723.192 143.92 731.932 148.29C740.757 152.66 750.911 154.845 762.392 154.845C769.676 154.845 777.473 153.431 785.784 150.604C794.181 147.776 800.607 143.963 805.063 139.165C806.605 137.451 807.376 135.652 807.376 133.767C807.376 132.225 806.905 130.896 805.963 129.783C805.02 128.669 803.778 128.112 802.235 128.112C800.522 128.112 798.765 128.84 796.966 130.297C792.082 134.924 786.512 138.437 780.258 140.836C774.088 143.149 767.791 144.306 761.364 144.306C748.169 144.306 737.501 140.793 729.361 133.767C721.221 126.741 716.937 116.459 716.509 102.921L797.351 102.278C800.35 102.278 802.749 101.25 804.549 99.1935C806.348 97.0514 807.248 94.3524 807.248 91.0964C807.248 81.9283 805.234 74.131 801.207 67.7048C797.266 61.2785 791.782 56.4374 784.756 53.1814C777.816 49.8397 769.89 48.1689 760.979 48.1689C750.525 48.1689 740.971 50.2681 732.317 54.4666C723.749 58.6651 716.894 64.7058 711.753 72.5887C706.698 80.4716 704.17 89.7255 704.17 100.35ZM761.236 58.708C774.602 58.708 783.642 62.0925 788.355 68.8615C793.067 75.6305 795.723 83.6419 796.323 92.8958L716.894 93.4099C718.437 82.4424 723.064 73.9168 730.775 67.8333C738.572 61.7497 748.726 58.708 761.236 58.708Z" stroke="#010A1D" stroke-width="0.891482" mask="url(#path-1-outside-1_819_117)"/>
<path d="M967.699 74.131C967.699 76.2731 968.299 77.944 969.499 79.1435C970.698 80.2574 972.112 80.8144 973.74 80.8144C975.454 80.8144 976.91 80.2146 978.11 79.015C979.395 77.7298 980.038 75.9304 980.038 73.6169V55.8804C980.038 53.3099 979.181 51.382 977.467 50.0968C975.753 48.8115 972.84 48.1689 968.727 48.1689C944.907 48.1689 928.113 55.6662 918.345 70.6609L917.831 57.2942C917.746 54.8951 917.36 53.0957 916.675 51.8961C916.075 50.6966 914.832 50.0968 912.947 50.0968C912.09 50.0968 911.105 50.2253 909.991 50.4823L888.013 54.8522C886.814 55.1093 885.871 55.709 885.186 56.6516C884.5 57.5084 884.158 58.5366 884.158 59.7362C884.158 61.1071 884.586 62.3067 885.443 63.3349C886.385 64.3631 887.671 64.8772 889.299 64.8772C889.984 64.8772 890.498 64.8344 890.841 64.7487L906.521 61.5355V142.121H883.001C881.287 142.121 879.959 142.635 879.017 143.663C878.074 144.692 877.603 145.891 877.603 147.262C877.603 148.719 878.117 150.004 879.145 151.118C880.173 152.146 881.63 152.66 883.515 152.66H961.916C963.544 152.66 964.829 152.146 965.771 151.118C966.714 150.004 967.185 148.762 967.185 147.391C967.185 145.934 966.714 144.692 965.771 143.663C964.915 142.635 963.672 142.121 962.044 142.121H918.86V85.0557C922.287 76.4873 928.413 69.9754 937.239 65.5198C946.064 60.9786 956.218 58.708 967.699 58.708V74.131Z" stroke="#010A1D" stroke-width="0.891482" mask="url(#path-1-outside-1_819_117)"/>
<path d="M564.918 147.98C564.918 147.98 529.567 128.864 529.567 99.9498C529.567 67.0246 556.258 40.3335 589.184 40.3335C622.109 40.3335 648.8 60.3918 648.8 99.9498C648.8 158.009 381.719 255.404 381.719 283.568C381.719 298.77 385.892 304.136 402.286 304.136H793.966C810.36 304.136 814.533 298.77 814.533 283.568C814.533 268.366 760.821 236.682 591.886 162.467" stroke="#010A1D" stroke-width="11.9233" stroke-linecap="round"/>
</svg>
