<svg width="2896" height="2631" viewBox="0 0 2896 2631" fill="none" xmlns="http://www.w3.org/2000/svg">
<path d="M2287.29 1289.79V1715.47L2008.48 1554.56V1450.7L1816.28 1339.81L1726.46 1287.88V966.061L1814.58 1016.93L2095.1 1178.9L2287.29 1289.79Z" stroke="#0B8AFF" stroke-width="63.28" stroke-linecap="round" stroke-linejoin="round"/>
<path d="M1167.33 964.996V1288.73L1079 1339.81L890.429 1448.57V1550.52L610.114 1712.49V1286.81L798.692 1177.84L1077.3 1016.93L1167.33 964.996Z" stroke="#0B8AFF" stroke-width="63.28" stroke-linecap="round" stroke-linejoin="round"/>
<path d="M2844.51 967.976L2475.87 1180.82L2287.29 1289.79L2095.1 1178.9L1814.58 1016.93L1726.46 966.061L1915.25 857.086L2003.37 806.218L2283.67 644.246L2844.51 967.976Z" stroke="#0B8AFF" stroke-width="63.28" stroke-linecap="round" stroke-linejoin="round"/>
<path d="M2003.39 482.275L1634.75 695.115L1445.95 804.089L1253.76 693.2L885.122 480.359L1442.55 158.545L2003.39 482.275Z" stroke="#0B8AFF" stroke-width="63.28" stroke-linecap="round" stroke-linejoin="round"/>
<path d="M1167.34 964.998L1077.31 1016.93L798.702 1177.84L610.123 1286.81L417.933 1175.71L49.2915 962.869L606.505 641.268L885.115 802.175L975.146 854.108L1167.34 964.998Z" stroke="#0B8AFF" stroke-width="63.28" stroke-linecap="round" stroke-linejoin="round"/>
<path d="M2844.51 967.977V1393.66L2287.3 1715.47V1289.79L2475.87 1180.82L2844.51 967.977Z" stroke="#0B8AFF" stroke-width="63.28" stroke-linecap="round" stroke-linejoin="round"/>
<path d="M2008.49 1450.7V1876.38L1451.27 2198.19V1772.51L1639.85 1663.54L1918.67 1502.63L2008.49 1450.7Z" stroke="#0B8AFF" stroke-width="63.28" stroke-linecap="round" stroke-linejoin="round"/>
<path d="M2008.49 1450.7L1918.68 1502.63L1639.86 1663.54L1451.28 1772.51L1259.09 1661.41L978.772 1499.65L890.445 1448.57L1079.02 1339.81L1167.35 1288.73L1357.84 1178.9L1445.96 1128.03L1447.66 1126.97L1535.78 1177.84L1726.48 1287.87L1816.3 1339.81L2008.49 1450.7Z" stroke="#0B8AFF" stroke-width="63.28" stroke-linecap="round" stroke-linejoin="round"/>
<path d="M1451.28 1772.51V2198.19L890.445 1874.25V1448.57L978.772 1499.65L1259.09 1661.41L1451.28 1772.51Z" stroke="#0B8AFF" stroke-width="63.28" stroke-linecap="round" stroke-linejoin="round"/>
<path d="M610.123 1286.81V1712.49L49.2915 1388.55V962.867L417.933 1175.71L610.123 1286.81Z" stroke="#0B8AFF" stroke-width="63.28" stroke-linecap="round" stroke-linejoin="round"/>
<path d="M2003.38 482.274V806.217L1915.27 857.086L1726.48 966.06V1067.8L1535.77 1177.84L1447.66 1126.97L1445.95 1128.03V804.089L1634.74 695.115L2003.38 482.274Z" stroke="#0B8AFF" stroke-width="63.28" stroke-linecap="round" stroke-linejoin="round"/>
<path d="M1445.95 804.088V1128.03L1357.84 1178.9L1167.35 1068.86V964.996L975.153 854.106L885.122 802.173V480.358L1253.76 693.199L1445.95 804.088Z" stroke="#0B8AFF" stroke-width="63.28" stroke-linecap="round" stroke-linejoin="round"/>
</svg>
