<svg  viewBox="0 0 280 280" fill="none" xmlns="http://www.w3.org/2000/svg">
<rect width="280" height="280" rx="32" fill="#F4F4F5"/>
<circle cx="140.82" cy="140.82" r="61.4754" fill="#757575"/>
<path fill-rule="evenodd" clip-rule="evenodd" d="M240 140C240 195.228 195.228 240 140 240C84.7715 240 40 195.228 40 140C40 84.7715 84.7715 40 140 40C195.228 40 240 84.7715 240 140ZM192.973 189.454C196.946 193.159 197.198 199.436 193.04 202.932C186.934 208.066 180.09 212.283 172.722 215.433C162.331 219.876 151.128 222.099 139.828 221.961C128.529 221.823 117.383 219.327 107.104 214.631C99.8149 211.302 93.0762 206.919 87.0973 201.638C83.0259 198.041 83.4306 191.772 87.4929 188.165L100.958 176.21C102.312 175.008 104.377 175.14 105.665 176.412C109.831 180.527 114.693 183.884 120.034 186.324C126.371 189.218 133.242 190.757 140.208 190.842C147.174 190.928 154.081 189.557 160.487 186.818C165.886 184.51 170.829 181.272 175.094 177.261C176.413 176.02 178.48 175.939 179.805 177.174L192.973 189.454ZM58.9711 153.124C59.7947 158.493 65.2875 161.543 70.518 160.076L87.8553 155.214C89.5988 154.725 90.6046 152.917 90.2309 151.145C89.0821 145.699 88.8486 140.091 89.5477 134.554C90.3839 127.93 92.5372 121.541 95.8809 115.763C99.2246 109.985 103.691 104.935 109.017 100.909C113.469 97.5441 118.448 94.9524 123.742 93.2347C125.464 92.6759 126.531 90.9028 126.086 89.1476L121.663 71.6931C120.329 66.4272 114.948 63.1844 109.882 65.1458C102.878 67.8575 96.2694 71.5342 90.2524 76.0818C81.6134 82.611 74.3686 90.8034 68.9448 100.176C63.5211 109.549 60.0282 119.912 58.6718 130.656C57.7272 138.138 57.8323 145.7 58.9711 153.124ZM157.108 71.7986C158.474 66.5408 163.874 63.33 168.928 65.3215C175.916 68.0747 182.502 71.7907 188.492 76.374C197.092 82.9545 204.288 91.1897 209.656 100.595C215.024 109.999 218.456 120.383 219.748 131.135C220.648 138.623 220.498 146.184 219.315 153.601C218.46 158.965 212.949 161.982 207.727 160.484L190.419 155.519C188.678 155.02 187.683 153.205 188.068 151.436C189.249 145.997 189.516 140.391 188.849 134.849C188.053 128.221 185.937 121.819 182.628 116.021C179.319 110.223 174.883 105.146 169.581 101.09C165.148 97.6979 160.185 95.0767 154.901 93.3275C153.182 92.7585 152.126 90.9791 152.581 89.2265L157.108 71.7986ZM140 154.754C148.148 154.754 154.754 148.148 154.754 140C154.754 131.852 148.148 125.246 140 125.246C131.852 125.246 125.246 131.852 125.246 140C125.246 148.148 131.852 154.754 140 154.754Z" fill="black"/>
</svg>
