<svg  viewBox="0 0 280 280" fill="none" xmlns="http://www.w3.org/2000/svg">
<rect width="280" height="280" rx="32" fill="#F4F4F5"/>
<circle cx="50.4921" cy="51.8254" r="4.49206" fill="black"/>
<circle cx="68.4603" cy="51.8254" r="4.49206" fill="black"/>
<circle cx="86.4283" cy="51.8254" r="4.49206" fill="black"/>
<circle cx="104.397" cy="51.8254" r="4.49206" fill="black"/>
<circle cx="122.365" cy="51.8254" r="4.49206" fill="black"/>
<circle cx="140.333" cy="51.8254" r="4.49206" fill="black"/>
<circle cx="158.302" cy="51.8254" r="4.49206" fill="black"/>
<circle cx="176.27" cy="51.8254" r="4.49206" fill="black"/>
<circle cx="194.238" cy="51.8254" r="4.49206" fill="black"/>
<circle cx="212.206" cy="51.8254" r="4.49206" fill="black"/>
<circle cx="230.175" cy="51.8254" r="4.49206" fill="black"/>
<circle cx="50.4921" cy="69.4762" r="4.49206" fill="black"/>
<circle cx="68.4603" cy="69.4762" r="4.49206" fill="black"/>
<circle cx="86.4283" cy="69.4761" r="4.49206" fill="black"/>
<circle cx="104.397" cy="69.4761" r="4.49206" fill="black"/>
<circle cx="122.365" cy="69.4761" r="4.49206" fill="black"/>
<circle cx="140.333" cy="69.4761" r="4.49206" fill="black"/>
<circle cx="158.302" cy="69.4761" r="4.49206" fill="black"/>
<circle cx="176.27" cy="69.4761" r="4.49206" fill="black"/>
<circle cx="194.238" cy="69.4761" r="4.49206" fill="black"/>
<circle cx="212.206" cy="69.4761" r="4.49206" fill="black"/>
<circle cx="230.175" cy="69.4761" r="4.49206" fill="black"/>
<circle cx="50.4921" cy="87.127" r="4.49206" fill="black"/>
<circle cx="68.4603" cy="87.127" r="4.49206" fill="black"/>
<circle cx="86.4283" cy="87.1269" r="4.49206" fill="black"/>
<circle cx="104.397" cy="87.1269" r="4.49206" fill="black"/>
<circle cx="122.365" cy="87.1269" r="4.49206" fill="black"/>
<circle cx="140.333" cy="87.1269" r="4.49206" fill="black"/>
<circle cx="158.302" cy="87.1269" r="4.49206" fill="black"/>
<circle cx="176.27" cy="87.1269" r="4.49206" fill="black"/>
<circle cx="194.238" cy="87.1269" r="4.49206" fill="black"/>
<circle cx="212.206" cy="87.1269" r="4.49206" fill="black"/>
<circle cx="230.175" cy="87.1269" r="4.49206" fill="black"/>
<circle cx="50.4921" cy="104.778" r="4.49206" fill="black"/>
<circle cx="68.4603" cy="104.778" r="4.49206" fill="black"/>
<circle cx="86.4283" cy="104.778" r="4.49206" fill="black"/>
<circle cx="104.397" cy="104.778" r="4.49206" fill="black"/>
<circle cx="122.365" cy="104.778" r="4.49206" fill="black"/>
<circle cx="140.333" cy="104.778" r="4.49206" fill="black"/>
<circle cx="158.302" cy="104.778" r="4.49206" fill="black"/>
<circle cx="176.27" cy="104.778" r="4.49206" fill="black"/>
<circle cx="194.238" cy="104.778" r="4.49206" fill="black"/>
<circle cx="212.206" cy="104.778" r="4.49206" fill="black"/>
<circle cx="230.175" cy="104.778" r="4.49206" fill="black"/>
<circle cx="50.4921" cy="122.429" r="4.49206" fill="black"/>
<circle cx="68.4603" cy="122.429" r="4.49206" fill="black"/>
<circle cx="86.4283" cy="122.429" r="4.49206" fill="black"/>
<circle cx="104.397" cy="122.429" r="4.49206" fill="black"/>
<circle cx="122.365" cy="122.429" r="4.49206" fill="black"/>
<circle cx="140.333" cy="122.429" r="4.49206" fill="black"/>
<circle cx="158.302" cy="122.429" r="4.49206" fill="black"/>
<circle cx="176.27" cy="122.429" r="4.49206" fill="black"/>
<circle cx="194.238" cy="122.429" r="4.49206" fill="black"/>
<circle cx="212.206" cy="122.429" r="4.49206" fill="black"/>
<circle cx="230.175" cy="122.429" r="4.49206" fill="black"/>
<circle cx="50.4921" cy="140.079" r="4.49206" fill="black"/>
<circle cx="68.4603" cy="140.079" r="4.49206" fill="black"/>
<circle cx="86.4283" cy="140.079" r="4.49206" fill="black"/>
<circle cx="104.397" cy="140.079" r="4.49206" fill="black"/>
<circle cx="122.365" cy="140.079" r="4.49206" fill="black"/>
<circle cx="140.333" cy="140.079" r="4.49206" fill="black"/>
<circle cx="158.302" cy="140.079" r="4.49206" fill="black"/>
<circle cx="176.27" cy="140.079" r="4.49206" fill="black"/>
<circle cx="194.238" cy="140.079" r="4.49206" fill="black"/>
<circle cx="212.206" cy="140.079" r="4.49206" fill="black"/>
<circle cx="230.175" cy="140.079" r="4.49206" fill="black"/>
<circle cx="50.4921" cy="157.73" r="4.49206" fill="black"/>
<circle cx="68.4603" cy="157.73" r="4.49206" fill="black"/>
<circle cx="86.4283" cy="157.73" r="4.49206" fill="black"/>
<circle cx="104.397" cy="157.73" r="4.49206" fill="black"/>
<circle cx="122.365" cy="157.73" r="4.49206" fill="black"/>
<circle cx="140.333" cy="157.73" r="4.49206" fill="black"/>
<circle cx="158.302" cy="157.73" r="4.49206" fill="black"/>
<circle cx="176.27" cy="157.73" r="4.49206" fill="black"/>
<circle cx="194.238" cy="157.73" r="4.49206" fill="black"/>
<circle cx="212.206" cy="157.73" r="4.49206" fill="black"/>
<circle cx="230.175" cy="157.73" r="4.49206" fill="black"/>
<circle cx="50.4921" cy="175.381" r="4.49206" fill="black"/>
<circle cx="68.4603" cy="175.381" r="4.49206" fill="black"/>
<circle cx="86.4283" cy="175.381" r="4.49206" fill="black"/>
<circle cx="104.397" cy="175.381" r="4.49206" fill="black"/>
<circle cx="122.365" cy="175.381" r="4.49206" fill="black"/>
<circle cx="140.333" cy="175.381" r="4.49206" fill="black"/>
<circle cx="158.302" cy="175.381" r="4.49206" fill="black"/>
<circle cx="176.27" cy="175.381" r="4.49206" fill="black"/>
<circle cx="194.238" cy="175.381" r="4.49206" fill="black"/>
<circle cx="212.206" cy="175.381" r="4.49206" fill="black"/>
<circle cx="230.175" cy="175.381" r="4.49206" fill="black"/>
<circle cx="50.4921" cy="193.032" r="4.49206" fill="black"/>
<circle cx="68.4603" cy="193.032" r="4.49206" fill="black"/>
<circle cx="86.4283" cy="193.032" r="4.49206" fill="black"/>
<circle cx="104.397" cy="193.032" r="4.49206" fill="black"/>
<circle cx="122.365" cy="193.032" r="4.49206" fill="black"/>
<circle cx="140.333" cy="193.032" r="4.49206" fill="black"/>
<circle cx="158.302" cy="193.032" r="4.49206" fill="black"/>
<circle cx="176.27" cy="193.032" r="4.49206" fill="black"/>
<circle cx="194.238" cy="193.032" r="4.49206" fill="black"/>
<circle cx="212.206" cy="193.032" r="4.49206" fill="black"/>
<circle cx="230.175" cy="193.032" r="4.49206" fill="black"/>
<circle cx="50.4921" cy="210.683" r="4.49206" fill="black"/>
<circle cx="68.4606" cy="210.683" r="4.49206" fill="black"/>
<circle cx="86.4283" cy="210.683" r="4.49206" fill="black"/>
<circle cx="104.397" cy="210.683" r="4.49206" fill="black"/>
<circle cx="122.365" cy="210.683" r="4.49206" fill="black"/>
<circle cx="140.333" cy="210.683" r="4.49206" fill="black"/>
<circle cx="158.302" cy="210.683" r="4.49206" fill="black"/>
<circle cx="176.27" cy="210.683" r="4.49206" fill="black"/>
<circle cx="194.238" cy="210.683" r="4.49206" fill="black"/>
<circle cx="212.206" cy="210.683" r="4.49206" fill="black"/>
<circle cx="230.175" cy="210.683" r="4.49206" fill="black"/>
<circle cx="50.4921" cy="228.333" r="4.49206" fill="black"/>
<circle cx="68.4603" cy="228.333" r="4.49206" fill="black"/>
<circle cx="86.4283" cy="228.333" r="4.49206" fill="black"/>
<circle cx="104.397" cy="228.333" r="4.49206" fill="black"/>
<circle cx="122.365" cy="228.333" r="4.49206" fill="black"/>
<circle cx="140.333" cy="228.333" r="4.49206" fill="black"/>
<circle cx="158.302" cy="228.333" r="4.49206" fill="black"/>
<circle cx="176.27" cy="228.333" r="4.49206" fill="black"/>
<circle cx="194.238" cy="228.333" r="4.49206" fill="black"/>
<circle cx="212.206" cy="228.333" r="4.49206" fill="black"/>
<circle cx="230.175" cy="228.333" r="4.49206" fill="black"/>
</svg>
