<svg  viewBox="0 0 280 280" fill="none" xmlns="http://www.w3.org/2000/svg">
<rect width="280" height="280" rx="32" fill="#F4F4F5"/>
<circle cx="116.515" cy="138.102" r="76.5152" fill="black"/>
<circle cx="117.273" cy="137.364" r="16.6667" fill="white"/>
<path d="M201.182 58.4857C200.914 58.0026 201.089 57.394 201.572 57.1262L211.749 51.4848C212.232 51.2171 212.841 51.3916 213.108 51.8746L221.688 67.3527C221.956 67.8358 221.781 68.4444 221.298 68.7122L218.788 70.1038L212.727 73.4632L211.121 74.3536C210.638 74.6213 210.029 74.4468 209.761 73.9638L201.182 58.4857Z" fill="black"/>
<path d="M212.727 73.4632C226.364 94.9392 246.06 144.939 217.273 190.375L224.091 194.163C254.394 145.678 233.182 91.2548 218.788 70.1038L212.727 73.4632Z" fill="black"/>
<path d="M217.126 187.506L226.138 193.098C226.849 193.539 227.068 194.473 226.626 195.184L224.449 198.694L237.773 206.961C238.484 207.402 238.703 208.336 238.262 209.047L237.102 210.917C236.661 211.628 235.727 211.846 235.016 211.405L221.691 203.138L208.047 225.128C207.605 225.839 206.671 226.058 205.96 225.617L196.948 220.025C196.237 219.584 196.018 218.65 196.46 217.939L215.039 187.995C215.48 187.284 216.415 187.065 217.126 187.506Z" fill="black"/>
</svg>
