<svg width="5120" height="2880" viewBox="0 0 5120 2880" fill="none" xmlns="http://www.w3.org/2000/svg">
<g clip-path="url(#clip0_306_8293)">
<path d="M5120 0H0V2880H5120V0Z" fill="#FAFAFA"/>
<g filter="url(#filter0_f_306_8293)">
<g filter="url(#filter1_f_306_8293)">
<path d="M52.2942 2112C1167.62 2112 2071.76 2310.79 2071.76 2556C2071.76 2801.21 1167.62 3000 52.2942 3000C-1063.03 3000 -1967.18 2801.21 -1967.18 2556C-1967.18 2310.79 -1063.03 2112 52.2942 2112Z" fill="#F9F9F9"/>
</g>
<g filter="url(#filter2_f_306_8293)">
<path d="M2362.86 2112C3478.18 2112 4382.33 2310.79 4382.33 2556C4382.33 2801.21 3478.18 3000 2362.86 3000C1247.54 3000 343.391 2801.21 343.391 2556C343.391 2310.79 1247.54 2112 2362.86 2112Z" fill="#EDEDED"/>
</g>
<g filter="url(#filter3_f_306_8293)">
<path d="M479.837 1668C1595.16 1668 2499.31 1866.79 2499.31 2112C2499.31 2357.21 1595.16 2556 479.837 2556C-635.485 2556 -1539.63 2357.21 -1539.63 2112C-1539.63 1866.79 -635.485 1668 479.837 1668Z" fill="#FE113A"/>
</g>
<g filter="url(#filter4_f_306_8293)">
<path d="M1239.41 1820C2050.78 1820 2708.53 1964.61 2708.53 2143C2708.53 2321.39 2050.78 2466 1239.41 2466C428.036 2466 -229.711 2321.39 -229.711 2143C-229.711 1964.61 428.036 1820 1239.41 1820Z" fill="#F17935"/>
</g>
<g style="mix-blend-mode:darken" filter="url(#filter5_f_306_8293)">
<path d="M3452.02 2231.34C3688.88 2070.96 3730.94 1916.79 3227.34 1890.71C2723.75 1864.63 2306.68 1874.8 1803.13 2145.95C1592.95 2259.12 882.315 2471.98 1385.91 2498.06C1889.51 2524.15 3195.65 2404.93 3452.02 2231.34Z" fill="#EC45DB"/>
</g>
<g filter="url(#filter6_f_306_8293)">
<path d="M3548.36 2254.21C3955.73 2087.68 4142.52 1919.43 3610.66 1868.49C3078.8 1817.55 2609.4 1810.42 1806.95 2087.42C1472.01 2203.04 494.161 2406.62 1026.02 2457.56C1557.87 2508.5 3107.46 2434.44 3548.36 2254.21Z" fill="#FED6CA"/>
</g>
<g filter="url(#filter7_f_306_8293)">
<path d="M598.098 1405C1585.31 1405 2385.6 1580.95 2385.6 1798C2385.6 2015.05 1585.31 2191 598.098 2191C-389.111 2191 -1189.4 2015.05 -1189.4 1798C-1189.4 1580.95 -389.111 1405 598.098 1405Z" fill="#F533EE"/>
</g>
<g filter="url(#filter8_f_306_8293)">
<path d="M309.276 1175C1363.05 1175 2217.31 1362.82 2217.31 1594.5C2217.31 1826.18 1363.05 2014 309.276 2014C-744.5 2014 -1598.75 1826.18 -1598.75 1594.5C-1598.75 1362.82 -744.5 1175 309.276 1175Z" fill="#63AEF3"/>
</g>
<g filter="url(#filter9_f_306_8293)">
<path d="M-1430.47 2167C-235.449 2050.57 568.675 1870.27 952.868 1520" stroke="url(#paint0_linear_306_8293)" stroke-width="51.0551" stroke-linecap="round"/>
</g>
<g filter="url(#filter10_f_306_8293)">
<path d="M884.641 2032C2079.66 1915.57 2883.79 1735.27 3267.98 1385" stroke="url(#paint1_linear_306_8293)" stroke-width="51.0551" stroke-linecap="round"/>
</g>
<g filter="url(#filter11_f_306_8293)">
<path d="M-848.281 2244C346.738 2127.57 1150.86 1947.27 1535.06 1597" stroke="url(#paint2_linear_306_8293)" stroke-width="51.0551" stroke-linecap="round"/>
</g>
<g filter="url(#filter12_f_306_8293)">
<path d="M-1130.28 2244C64.74 2127.57 868.865 1947.27 1253.06 1597" stroke="url(#paint3_linear_306_8293)" stroke-width="51.0551" stroke-linecap="round"/>
</g>
<g style="mix-blend-mode:overlay" filter="url(#filter13_f_306_8293)">
<path d="M-1639.69 1214C-584.655 1214 270.62 1402.04 270.62 1634C270.62 1865.96 -584.655 2054 -1639.69 2054C-2694.72 2054 -3550 1865.96 -3550 1634C-3550 1402.04 -2694.72 1214 -1639.69 1214Z" fill="url(#paint4_linear_306_8293)"/>
</g>
<g style="mix-blend-mode:overlay" filter="url(#filter14_f_306_8293)">
<path d="M2067.21 1023C3122.24 1023 3977.52 1211.04 3977.52 1443C3977.52 1674.96 3122.24 1863 2067.21 1863C1012.17 1863 156.898 1674.96 156.898 1443C156.898 1211.04 1012.17 1023 2067.21 1023Z" fill="url(#paint5_linear_306_8293)"/>
</g>
<g style="mix-blend-mode:overlay" filter="url(#filter15_f_306_8293)">
<path d="M2137.53 1874.98C2761.76 1875.52 3265.79 1987.22 3263.33 2124.46C3260.86 2261.7 2752.83 2372.52 2128.6 2371.98C1504.38 2371.44 1000.34 2259.74 1002.81 2122.5C1005.27 1985.26 1513.31 1874.44 2137.53 1874.98Z" fill="url(#paint6_linear_306_8293)"/>
</g>
<g filter="url(#filter16_f_306_8293)">
<path d="M2421.98 983C3281.08 983 3977.52 1136.12 3977.52 1325C3977.52 1513.88 3281.08 1667 2421.98 1667C1562.88 1667 866.441 1513.88 866.441 1325C866.441 1136.12 1562.88 983 2421.98 983Z" fill="url(#paint7_radial_306_8293)"/>
</g>
<g filter="url(#filter17_f_306_8293)">
<path d="M-848.279 1113C-293.128 1113 156.911 1211.95 156.911 1334C156.911 1456.05 -293.128 1555 -848.279 1555C-1403.43 1555 -1853.47 1456.05 -1853.47 1334C-1853.47 1211.95 -1403.43 1113 -848.279 1113Z" fill="#3920CD"/>
</g>
<g filter="url(#filter18_f_306_8293)">
<path d="M3581.81 1413C4136.96 1413 4587 1511.95 4587 1634C4587 1756.05 4136.96 1855 3581.81 1855C3026.66 1855 2576.62 1756.05 2576.62 1634C2576.62 1511.95 3026.66 1413 3581.81 1413Z" fill="#3920CD"/>
</g>
</g>
</g>
<defs>
<filter id="filter0_f_306_8293" x="-4450" y="83" width="9937" height="3817" filterUnits="userSpaceOnUse" color-interpolation-filters="sRGB">
<feFlood flood-opacity="0" result="BackgroundImageFix"/>
<feBlend mode="normal" in="SourceGraphic" in2="BackgroundImageFix" result="shape"/>
<feGaussianBlur stdDeviation="450" result="effect1_foregroundBlur_306_8293"/>
</filter>
<filter id="filter1_f_306_8293" x="-2219.51" y="1859.67" width="4543.61" height="1392.67" filterUnits="userSpaceOnUse" color-interpolation-filters="sRGB">
<feFlood flood-opacity="0" result="BackgroundImageFix"/>
<feBlend mode="normal" in="SourceGraphic" in2="BackgroundImageFix" result="shape"/>
<feGaussianBlur stdDeviation="126.167" result="effect1_foregroundBlur_306_8293"/>
</filter>
<filter id="filter2_f_306_8293" x="91.0566" y="1859.67" width="4543.61" height="1392.67" filterUnits="userSpaceOnUse" color-interpolation-filters="sRGB">
<feFlood flood-opacity="0" result="BackgroundImageFix"/>
<feBlend mode="normal" in="SourceGraphic" in2="BackgroundImageFix" result="shape"/>
<feGaussianBlur stdDeviation="126.167" result="effect1_foregroundBlur_306_8293"/>
</filter>
<filter id="filter3_f_306_8293" x="-1791.97" y="1415.67" width="4543.61" height="1392.67" filterUnits="userSpaceOnUse" color-interpolation-filters="sRGB">
<feFlood flood-opacity="0" result="BackgroundImageFix"/>
<feBlend mode="normal" in="SourceGraphic" in2="BackgroundImageFix" result="shape"/>
<feGaussianBlur stdDeviation="126.167" result="effect1_foregroundBlur_306_8293"/>
</filter>
<filter id="filter4_f_306_8293" x="-413.227" y="1636.48" width="3305.27" height="1013.03" filterUnits="userSpaceOnUse" color-interpolation-filters="sRGB">
<feFlood flood-opacity="0" result="BackgroundImageFix"/>
<feBlend mode="normal" in="SourceGraphic" in2="BackgroundImageFix" result="shape"/>
<feGaussianBlur stdDeviation="91.7579" result="effect1_foregroundBlur_306_8293"/>
</filter>
<filter id="filter5_f_306_8293" x="1054.54" y="1726.61" width="2721.66" height="929.567" filterUnits="userSpaceOnUse" color-interpolation-filters="sRGB">
<feFlood flood-opacity="0" result="BackgroundImageFix"/>
<feBlend mode="normal" in="SourceGraphic" in2="BackgroundImageFix" result="shape"/>
<feGaussianBlur stdDeviation="77.2683" result="effect1_foregroundBlur_306_8293"/>
</filter>
<filter id="filter6_f_306_8293" x="697.379" y="1667.57" width="3413.73" height="979.054" filterUnits="userSpaceOnUse" color-interpolation-filters="sRGB">
<feFlood flood-opacity="0" result="BackgroundImageFix"/>
<feBlend mode="normal" in="SourceGraphic" in2="BackgroundImageFix" result="shape"/>
<feGaussianBlur stdDeviation="86.666" result="effect1_foregroundBlur_306_8293"/>
</filter>
<filter id="filter7_f_306_8293" x="-1412.58" y="1181.82" width="4021.36" height="1232.36" filterUnits="userSpaceOnUse" color-interpolation-filters="sRGB">
<feFlood flood-opacity="0" result="BackgroundImageFix"/>
<feBlend mode="normal" in="SourceGraphic" in2="BackgroundImageFix" result="shape"/>
<feGaussianBlur stdDeviation="111.591" result="effect1_foregroundBlur_306_8293"/>
</filter>
<filter id="filter8_f_306_8293" x="-1837.23" y="936.526" width="4293.01" height="1315.95" filterUnits="userSpaceOnUse" color-interpolation-filters="sRGB">
<feFlood flood-opacity="0" result="BackgroundImageFix"/>
<feBlend mode="normal" in="SourceGraphic" in2="BackgroundImageFix" result="shape"/>
<feGaussianBlur stdDeviation="119.237" result="effect1_foregroundBlur_306_8293"/>
</filter>
<filter id="filter9_f_306_8293" x="-1562.04" y="1388.43" width="2646.47" height="910.132" filterUnits="userSpaceOnUse" color-interpolation-filters="sRGB">
<feFlood flood-opacity="0" result="BackgroundImageFix"/>
<feBlend mode="normal" in="SourceGraphic" in2="BackgroundImageFix" result="shape"/>
<feGaussianBlur stdDeviation="53.0187" result="effect1_foregroundBlur_306_8293"/>
</filter>
<filter id="filter10_f_306_8293" x="753.072" y="1253.43" width="2646.47" height="910.132" filterUnits="userSpaceOnUse" color-interpolation-filters="sRGB">
<feFlood flood-opacity="0" result="BackgroundImageFix"/>
<feBlend mode="normal" in="SourceGraphic" in2="BackgroundImageFix" result="shape"/>
<feGaussianBlur stdDeviation="53.0187" result="effect1_foregroundBlur_306_8293"/>
</filter>
<filter id="filter11_f_306_8293" x="-979.85" y="1465.43" width="2646.47" height="910.132" filterUnits="userSpaceOnUse" color-interpolation-filters="sRGB">
<feFlood flood-opacity="0" result="BackgroundImageFix"/>
<feBlend mode="normal" in="SourceGraphic" in2="BackgroundImageFix" result="shape"/>
<feGaussianBlur stdDeviation="53.0187" result="effect1_foregroundBlur_306_8293"/>
</filter>
<filter id="filter12_f_306_8293" x="-1261.85" y="1465.43" width="2646.47" height="910.132" filterUnits="userSpaceOnUse" color-interpolation-filters="sRGB">
<feFlood flood-opacity="0" result="BackgroundImageFix"/>
<feBlend mode="normal" in="SourceGraphic" in2="BackgroundImageFix" result="shape"/>
<feGaussianBlur stdDeviation="53.0187" result="effect1_foregroundBlur_306_8293"/>
</filter>
<filter id="filter13_f_306_8293" x="-3635.32" y="1128.68" width="3991.26" height="1010.63" filterUnits="userSpaceOnUse" color-interpolation-filters="sRGB">
<feFlood flood-opacity="0" result="BackgroundImageFix"/>
<feBlend mode="normal" in="SourceGraphic" in2="BackgroundImageFix" result="shape"/>
<feGaussianBlur stdDeviation="42.6585" result="effect1_foregroundBlur_306_8293"/>
</filter>
<filter id="filter14_f_306_8293" x="71.5814" y="937.683" width="3991.26" height="1010.63" filterUnits="userSpaceOnUse" color-interpolation-filters="sRGB">
<feFlood flood-opacity="0" result="BackgroundImageFix"/>
<feBlend mode="normal" in="SourceGraphic" in2="BackgroundImageFix" result="shape"/>
<feGaussianBlur stdDeviation="42.6585" result="effect1_foregroundBlur_306_8293"/>
</filter>
<filter id="filter15_f_306_8293" x="952.328" y="1824.51" width="2361.48" height="597.946" filterUnits="userSpaceOnUse" color-interpolation-filters="sRGB">
<feFlood flood-opacity="0" result="BackgroundImageFix"/>
<feBlend mode="normal" in="SourceGraphic" in2="BackgroundImageFix" result="shape"/>
<feGaussianBlur stdDeviation="25.2364" result="effect1_foregroundBlur_306_8293"/>
</filter>
<filter id="filter16_f_306_8293" x="614.107" y="730.666" width="3615.75" height="1188.67" filterUnits="userSpaceOnUse" color-interpolation-filters="sRGB">
<feFlood flood-opacity="0" result="BackgroundImageFix"/>
<feBlend mode="normal" in="SourceGraphic" in2="BackgroundImageFix" result="shape"/>
<feGaussianBlur stdDeviation="126.167" result="effect1_foregroundBlur_306_8293"/>
</filter>
<filter id="filter17_f_306_8293" x="-2258.51" y="707.962" width="2820.45" height="1252.08" filterUnits="userSpaceOnUse" color-interpolation-filters="sRGB">
<feFlood flood-opacity="0" result="BackgroundImageFix"/>
<feBlend mode="normal" in="SourceGraphic" in2="BackgroundImageFix" result="shape"/>
<feGaussianBlur stdDeviation="202.519" result="effect1_foregroundBlur_306_8293"/>
</filter>
<filter id="filter18_f_306_8293" x="2171.58" y="1007.96" width="2820.45" height="1252.08" filterUnits="userSpaceOnUse" color-interpolation-filters="sRGB">
<feFlood flood-opacity="0" result="BackgroundImageFix"/>
<feBlend mode="normal" in="SourceGraphic" in2="BackgroundImageFix" result="shape"/>
<feGaussianBlur stdDeviation="202.519" result="effect1_foregroundBlur_306_8293"/>
</filter>
<linearGradient id="paint0_linear_306_8293" x1="-1390.26" y1="2166.51" x2="-1199.03" y2="1299.85" gradientUnits="userSpaceOnUse">
<stop stop-color="#1D19BE"/>
<stop offset="0.470329" stop-color="#363DC7" stop-opacity="0.812221"/>
<stop offset="1" stop-color="#A5D5EF" stop-opacity="0"/>
</linearGradient>
<linearGradient id="paint1_linear_306_8293" x1="924.847" y1="2031.51" x2="1176.45" y2="1036.95" gradientUnits="userSpaceOnUse">
<stop offset="0.637173" stop-color="#F342E2" stop-opacity="0.841963"/>
<stop offset="1" stop-color="#DD25C1"/>
</linearGradient>
<linearGradient id="paint2_linear_306_8293" x1="-808.074" y1="2243.51" x2="-616.845" y2="1376.85" gradientUnits="userSpaceOnUse">
<stop stop-color="#1D19BE"/>
<stop offset="0.470329" stop-color="#363DC7" stop-opacity="0.812221"/>
<stop offset="1" stop-color="#A5D5EF" stop-opacity="0"/>
</linearGradient>
<linearGradient id="paint3_linear_306_8293" x1="-1090.07" y1="2243.51" x2="-898.843" y2="1376.85" gradientUnits="userSpaceOnUse">
<stop stop-color="#EA3F19"/>
<stop offset="0.470329" stop-color="#FD2D5D" stop-opacity="0"/>
<stop offset="1" stop-color="#C15A53" stop-opacity="0"/>
</linearGradient>
<linearGradient id="paint4_linear_306_8293" x1="1238.18" y1="1550.2" x2="1039.31" y2="594.35" gradientUnits="userSpaceOnUse">
<stop offset="0.0333236" stop-color="#C2DAF9"/>
<stop offset="0.1339" stop-color="#EDF4FC" stop-opacity="0"/>
</linearGradient>
<linearGradient id="paint5_linear_306_8293" x1="4945.08" y1="1359.2" x2="4746.21" y2="403.35" gradientUnits="userSpaceOnUse">
<stop offset="0.0333236" stop-color="#C2DAF9"/>
<stop offset="0.1339" stop-color="#EDF4FC" stop-opacity="0"/>
</linearGradient>
<linearGradient id="paint6_linear_306_8293" x1="3836.68" y1="2075.38" x2="3720.31" y2="1511.57" gradientUnits="userSpaceOnUse">
<stop offset="0.0333236" stop-color="#C2DAF9"/>
<stop offset="0.258318" stop-color="#EDF4FC" stop-opacity="0"/>
</linearGradient>
<radialGradient id="paint7_radial_306_8293" cx="0" cy="0" r="1" gradientUnits="userSpaceOnUse" gradientTransform="translate(3977.52 983) rotate(176.353) scale(1692.9 401.853)">
<stop stop-color="#EB5BB0"/>
<stop offset="0.208496" stop-color="#4710C6"/>
<stop offset="0.349642" stop-color="#CA13DD"/>
<stop offset="0.557456" stop-color="#EB3131"/>
<stop offset="0.752149" stop-color="#6070FF"/>
<stop offset="1" stop-color="#C73CDA"/>
</radialGradient>
<clipPath id="clip0_306_8293">
<rect width="5120" height="2880" fill="white"/>
</clipPath>
</defs>
</svg>
