<svg width="847" height="323" viewBox="0 0 847 323" fill="none" xmlns="http://www.w3.org/2000/svg">
<g clip-path="url(#clip0_841_270)">
<g clip-path="url(#clip1_841_270)">
<rect x="169.075" y="90" width="508.851" height="322" fill="#004CFF"/>
<mask id="mask0_841_270" style="mask-type:alpha" maskUnits="userSpaceOnUse" x="169" y="90" width="509" height="322">
<rect x="169.075" y="90" width="508.851" height="322" rx="27.2113" fill="#16084C"/>
</mask>
<g mask="url(#mask0_841_270)">
<path opacity="0.4" d="M562.404 44.4485L405.613 201.239C379.674 227.178 379.674 269.234 405.613 295.173L562.404 451.964C588.343 477.903 630.398 477.903 656.337 451.964L813.128 295.173C839.067 269.234 839.067 227.178 813.128 201.239L656.337 44.4485C630.398 18.5096 588.343 18.5096 562.404 44.4485Z" fill="#FEFEFE" fill-opacity="0.25"/>
<path opacity="0.4" d="M672.011 28.267L502.622 197.656C474.599 225.679 474.599 271.113 502.622 299.136L672.011 468.525C700.034 496.548 745.468 496.548 773.491 468.525L942.88 299.136C970.903 271.113 970.903 225.679 942.88 197.656L773.491 28.267C745.468 0.243883 700.034 0.243902 672.011 28.267Z" fill="#FEFEFE" fill-opacity="0.25"/>
<path opacity="0.4" d="M774.677 29.0041L605.855 197.826C577.926 225.755 577.926 271.037 605.855 298.966L774.677 467.788C802.606 495.717 847.888 495.717 875.817 467.788L1044.64 298.966C1072.57 271.037 1072.57 225.755 1044.64 197.826L875.817 29.0041C847.888 1.07483 802.606 1.07485 774.677 29.0041Z" fill="#FEFEFE" fill-opacity="0.35"/>
</g>
<g filter="url(#filter0_di_841_270)">
<path d="M210.304 297.588C208.476 297.588 206.849 297.274 205.421 296.645C204.001 296.009 202.879 295.136 202.055 294.026C201.239 292.908 200.818 291.619 200.794 290.158H206.13C206.163 290.77 206.363 291.309 206.73 291.774C207.106 292.231 207.603 292.586 208.223 292.839C208.844 293.092 209.541 293.218 210.317 293.218C211.124 293.218 211.838 293.075 212.459 292.79C213.079 292.504 213.564 292.108 213.915 291.603C214.266 291.097 214.441 290.513 214.441 289.852C214.441 289.183 214.254 288.591 213.878 288.077C213.511 287.555 212.981 287.147 212.287 286.853C211.602 286.56 210.786 286.413 209.839 286.413H207.501V282.52H209.839C210.639 282.52 211.345 282.382 211.957 282.104C212.577 281.827 213.058 281.443 213.401 280.954C213.744 280.456 213.915 279.877 213.915 279.216C213.915 278.587 213.764 278.037 213.462 277.563C213.168 277.082 212.752 276.707 212.214 276.437C211.683 276.168 211.063 276.033 210.353 276.033C209.635 276.033 208.978 276.164 208.383 276.425C207.787 276.678 207.31 277.041 206.951 277.514C206.592 277.988 206.4 278.543 206.375 279.179H201.296C201.32 277.735 201.732 276.462 202.532 275.36C203.332 274.259 204.409 273.398 205.763 272.778C207.126 272.149 208.664 271.835 210.378 271.835C212.108 271.835 213.621 272.149 214.919 272.778C216.216 273.406 217.224 274.254 217.942 275.323C218.668 276.384 219.027 277.576 219.019 278.897C219.027 280.301 218.591 281.472 217.709 282.41C216.836 283.349 215.698 283.944 214.294 284.197V284.393C216.139 284.63 217.542 285.27 218.505 286.315C219.476 287.351 219.957 288.649 219.949 290.207C219.957 291.635 219.545 292.904 218.713 294.014C217.889 295.124 216.751 295.997 215.298 296.633C213.846 297.27 212.181 297.588 210.304 297.588ZM224.758 292.839V288.665L235.223 272.178H238.822V277.955H236.692L230.095 288.396V288.591H244.966V292.839H224.758ZM236.79 297.245V291.566L236.888 289.718V272.178H241.857V297.245H236.79ZM259.032 297.588C257.302 297.588 255.76 297.27 254.405 296.633C253.059 295.997 251.99 295.119 251.198 294.002C250.407 292.884 249.995 291.603 249.962 290.158H255.103C255.16 291.129 255.568 291.917 256.327 292.521C257.086 293.124 257.987 293.426 259.032 293.426C259.864 293.426 260.598 293.243 261.235 292.875C261.88 292.5 262.381 291.982 262.74 291.321C263.108 290.652 263.291 289.885 263.291 289.02C263.291 288.139 263.104 287.363 262.728 286.694C262.361 286.025 261.851 285.503 261.198 285.128C260.545 284.752 259.799 284.56 258.958 284.552C258.224 284.552 257.51 284.703 256.816 285.005C256.131 285.307 255.596 285.719 255.213 286.241L250.501 285.397L251.688 272.178H267.012V276.511H256.057L255.409 282.79H255.556C255.996 282.17 256.661 281.656 257.551 281.248C258.44 280.84 259.436 280.636 260.537 280.636C262.047 280.636 263.393 280.991 264.576 281.7C265.76 282.41 266.694 283.385 267.379 284.626C268.065 285.858 268.403 287.278 268.395 288.885C268.403 290.574 268.012 292.076 267.22 293.39C266.437 294.695 265.339 295.723 263.928 296.474C262.524 297.217 260.892 297.588 259.032 297.588ZM282.626 297.588C280.896 297.588 279.354 297.27 277.999 296.633C276.653 295.997 275.584 295.119 274.792 294.002C274.001 292.884 273.589 291.603 273.556 290.158H278.697C278.754 291.129 279.162 291.917 279.921 292.521C280.68 293.124 281.581 293.426 282.626 293.426C283.458 293.426 284.193 293.243 284.829 292.875C285.474 292.5 285.976 291.982 286.335 291.321C286.702 290.652 286.885 289.885 286.885 289.02C286.885 288.139 286.698 287.363 286.322 286.694C285.955 286.025 285.445 285.503 284.792 285.128C284.14 284.752 283.393 284.56 282.552 284.552C281.818 284.552 281.104 284.703 280.41 285.005C279.725 285.307 279.191 285.719 278.807 286.241L274.095 285.397L275.282 272.178H290.606V276.511H279.652L279.003 282.79H279.15C279.59 282.17 280.255 281.656 281.145 281.248C282.034 280.84 283.03 280.636 284.131 280.636C285.641 280.636 286.987 280.991 288.171 281.7C289.354 282.41 290.288 283.385 290.974 284.626C291.659 285.858 291.998 287.278 291.989 288.885C291.998 290.574 291.606 292.076 290.814 293.39C290.031 294.695 288.934 295.723 287.522 296.474C286.118 297.217 284.486 297.588 282.626 297.588ZM306.041 292.839V288.665L316.506 272.178H320.105V277.955H317.975L311.378 288.396V288.591H326.249V292.839H306.041ZM318.073 297.245V291.566L318.171 289.718V272.178H323.14V297.245H318.073ZM340.315 297.588C338.585 297.588 337.043 297.27 335.688 296.633C334.342 295.997 333.273 295.119 332.481 294.002C331.69 292.884 331.278 291.603 331.245 290.158H336.386C336.443 291.129 336.851 291.917 337.61 292.521C338.369 293.124 339.27 293.426 340.315 293.426C341.147 293.426 341.881 293.243 342.518 292.875C343.163 292.5 343.664 291.982 344.023 291.321C344.391 290.652 344.574 289.885 344.574 289.02C344.574 288.139 344.387 287.363 344.011 286.694C343.644 286.025 343.134 285.503 342.481 285.128C341.828 284.752 341.082 284.56 340.241 284.552C339.507 284.552 338.793 284.703 338.099 285.005C337.414 285.307 336.879 285.719 336.496 286.241L331.783 285.397L332.971 272.178H348.295V276.511H337.34L336.692 282.79H336.839C337.279 282.17 337.944 281.656 338.834 281.248C339.723 280.84 340.719 280.636 341.82 280.636C343.33 280.636 344.676 280.991 345.859 281.7C347.043 282.41 347.977 283.385 348.662 284.626C349.348 285.858 349.686 287.278 349.678 288.885C349.686 290.574 349.295 292.076 348.503 293.39C347.72 294.695 346.622 295.723 345.211 296.474C343.807 297.217 342.175 297.588 340.315 297.588ZM364.374 297.588C363.085 297.58 361.84 297.363 360.641 296.939C359.449 296.515 358.381 295.825 357.434 294.871C356.487 293.916 355.737 292.651 355.182 291.076C354.635 289.501 354.362 287.567 354.362 285.274C354.37 283.169 354.611 281.288 355.084 279.632C355.565 277.967 356.251 276.556 357.14 275.397C358.038 274.238 359.111 273.357 360.359 272.753C361.608 272.141 363.007 271.835 364.558 271.835C366.23 271.835 367.707 272.161 368.988 272.814C370.27 273.459 371.298 274.336 372.073 275.446C372.856 276.556 373.33 277.8 373.493 279.179H368.266C368.062 278.306 367.634 277.62 366.981 277.123C366.328 276.625 365.52 276.376 364.558 276.376C362.926 276.376 361.685 277.086 360.837 278.506C359.996 279.926 359.568 281.855 359.551 284.295H359.723C360.098 283.553 360.604 282.92 361.241 282.398C361.885 281.868 362.616 281.464 363.432 281.186C364.256 280.901 365.125 280.758 366.039 280.758C367.524 280.758 368.846 281.109 370.004 281.811C371.163 282.504 372.077 283.459 372.746 284.675C373.415 285.891 373.75 287.282 373.75 288.849C373.75 290.546 373.354 292.055 372.562 293.377C371.779 294.699 370.682 295.736 369.27 296.486C367.866 297.229 366.234 297.596 364.374 297.588ZM364.35 293.426C365.166 293.426 365.896 293.23 366.54 292.839C367.185 292.447 367.691 291.917 368.058 291.248C368.425 290.578 368.609 289.828 368.609 288.995C368.609 288.163 368.425 287.416 368.058 286.756C367.699 286.095 367.201 285.568 366.565 285.177C365.928 284.785 365.202 284.589 364.386 284.589C363.774 284.589 363.207 284.703 362.685 284.932C362.171 285.16 361.718 285.478 361.326 285.886C360.943 286.294 360.641 286.768 360.42 287.306C360.2 287.837 360.09 288.404 360.09 289.008C360.09 289.815 360.274 290.554 360.641 291.223C361.016 291.892 361.522 292.427 362.159 292.827C362.803 293.226 363.534 293.426 364.35 293.426ZM378.886 297.245V293.426L387.809 285.164C388.568 284.43 389.204 283.769 389.718 283.181C390.241 282.594 390.636 282.019 390.906 281.456C391.175 280.884 391.31 280.268 391.31 279.607C391.31 278.873 391.142 278.241 390.808 277.71C390.473 277.172 390.016 276.76 389.437 276.474C388.858 276.18 388.201 276.033 387.466 276.033C386.699 276.033 386.03 276.188 385.459 276.498C384.888 276.809 384.447 277.253 384.137 277.833C383.827 278.412 383.672 279.101 383.672 279.901H378.641C378.641 278.261 379.013 276.837 379.755 275.629C380.498 274.422 381.538 273.487 382.876 272.826C384.215 272.166 385.757 271.835 387.503 271.835C389.298 271.835 390.861 272.153 392.191 272.79C393.529 273.418 394.57 274.291 395.312 275.409C396.055 276.527 396.426 277.808 396.426 279.252C396.426 280.199 396.238 281.133 395.863 282.055C395.496 282.977 394.839 284.002 393.892 285.128C392.946 286.246 391.612 287.588 389.89 289.155L386.23 292.741V292.912H396.756V297.245H378.886ZM412.323 297.245L422.715 276.682V276.511H410.609V272.178H428.198V276.572L417.794 297.245H412.323ZM434.874 297.245L445.265 276.682V276.511H433.16V272.178H450.749V276.572L440.345 297.245H434.874ZM466.665 272.178V297.245H461.366V277.208H461.219L455.478 280.807V276.107L461.684 272.178H466.665ZM483.831 297.796C481.725 297.788 479.914 297.27 478.396 296.241C476.886 295.213 475.724 293.724 474.908 291.774C474.1 289.824 473.7 287.478 473.708 284.736C473.708 282.002 474.112 279.673 474.92 277.747C475.736 275.821 476.899 274.356 478.408 273.353C479.926 272.341 481.733 271.835 483.831 271.835C485.928 271.835 487.731 272.341 489.241 273.353C490.758 274.365 491.925 275.833 492.741 277.759C493.557 279.677 493.961 282.002 493.953 284.736C493.953 287.486 493.545 289.836 492.729 291.786C491.921 293.736 490.762 295.226 489.253 296.254C487.743 297.282 485.936 297.796 483.831 297.796ZM483.831 293.402C485.267 293.402 486.413 292.68 487.27 291.235C488.127 289.791 488.551 287.625 488.543 284.736C488.543 282.835 488.347 281.252 487.955 279.987C487.572 278.722 487.025 277.771 486.315 277.135C485.613 276.498 484.785 276.18 483.831 276.18C482.403 276.18 481.26 276.894 480.403 278.322C479.547 279.75 479.114 281.888 479.106 284.736C479.106 286.662 479.298 288.269 479.681 289.558C480.073 290.84 480.624 291.802 481.334 292.447C482.044 293.084 482.876 293.402 483.831 293.402ZM517.732 297.588C515.905 297.588 514.277 297.274 512.849 296.645C511.429 296.009 510.307 295.136 509.483 294.026C508.667 292.908 508.247 291.619 508.222 290.158H513.559C513.591 290.77 513.791 291.309 514.158 291.774C514.534 292.231 515.031 292.586 515.652 292.839C516.272 293.092 516.969 293.218 517.745 293.218C518.553 293.218 519.267 293.075 519.887 292.79C520.507 292.504 520.992 292.108 521.343 291.603C521.694 291.097 521.87 290.513 521.87 289.852C521.87 289.183 521.682 288.591 521.306 288.077C520.939 287.555 520.409 287.147 519.715 286.853C519.03 286.56 518.214 286.413 517.267 286.413H514.93V282.52H517.267C518.067 282.52 518.773 282.382 519.385 282.104C520.005 281.827 520.486 281.443 520.829 280.954C521.172 280.456 521.343 279.877 521.343 279.216C521.343 278.587 521.192 278.037 520.89 277.563C520.597 277.082 520.18 276.707 519.642 276.437C519.111 276.168 518.491 276.033 517.781 276.033C517.063 276.033 516.406 276.164 515.811 276.425C515.215 276.678 514.738 277.041 514.379 277.514C514.02 277.988 513.828 278.543 513.803 279.179H508.724C508.748 277.735 509.16 276.462 509.96 275.36C510.76 274.259 511.837 273.398 513.191 272.778C514.554 272.149 516.092 271.835 517.806 271.835C519.536 271.835 521.049 272.149 522.347 272.778C523.644 273.406 524.652 274.254 525.37 275.323C526.096 276.384 526.455 277.576 526.447 278.897C526.455 280.301 526.019 281.472 525.138 282.41C524.264 283.349 523.126 283.944 521.723 284.197V284.393C523.567 284.63 524.97 285.27 525.933 286.315C526.904 287.351 527.386 288.649 527.377 290.207C527.386 291.635 526.974 292.904 526.141 294.014C525.317 295.124 524.179 295.997 522.726 296.633C521.274 297.27 519.609 297.588 517.732 297.588ZM541.721 297.588C539.991 297.588 538.449 297.27 537.095 296.633C535.748 295.997 534.679 295.119 533.888 294.002C533.096 292.884 532.684 291.603 532.652 290.158H537.792C537.849 291.129 538.257 291.917 539.016 292.521C539.775 293.124 540.677 293.426 541.721 293.426C542.554 293.426 543.288 293.243 543.924 292.875C544.569 292.5 545.071 291.982 545.43 291.321C545.797 290.652 545.981 289.885 545.981 289.02C545.981 288.139 545.793 287.363 545.418 286.694C545.051 286.025 544.541 285.503 543.888 285.128C543.235 284.752 542.488 284.56 541.648 284.552C540.913 284.552 540.199 284.703 539.506 285.005C538.82 285.307 538.286 285.719 537.902 286.241L533.19 285.397L534.377 272.178H549.702V276.511H538.747L538.098 282.79H538.245C538.686 282.17 539.351 281.656 540.24 281.248C541.13 280.84 542.125 280.636 543.227 280.636C544.736 280.636 546.083 280.991 547.266 281.7C548.449 282.41 549.383 283.385 550.069 284.626C550.754 285.858 551.093 287.278 551.085 288.885C551.093 290.574 550.701 292.076 549.91 293.39C549.126 294.695 548.029 295.723 546.617 296.474C545.214 297.217 543.582 297.588 541.721 297.588ZM565.989 297.796C563.883 297.788 562.072 297.27 560.554 296.241C559.045 295.213 557.882 293.724 557.066 291.774C556.258 289.824 555.858 287.478 555.866 284.736C555.866 282.002 556.27 279.673 557.078 277.747C557.894 275.821 559.057 274.356 560.566 273.353C562.084 272.341 563.892 271.835 565.989 271.835C568.086 271.835 569.889 272.341 571.399 273.353C572.916 274.365 574.083 275.833 574.899 277.759C575.715 279.677 576.119 282.002 576.111 284.736C576.111 287.486 575.703 289.836 574.887 291.786C574.079 293.736 572.921 295.226 571.411 296.254C569.901 297.282 568.094 297.796 565.989 297.796ZM565.989 293.402C567.425 293.402 568.571 292.68 569.428 291.235C570.285 289.791 570.709 287.625 570.701 284.736C570.701 282.835 570.505 281.252 570.114 279.987C569.73 278.722 569.183 277.771 568.473 277.135C567.772 276.498 566.943 276.18 565.989 276.18C564.561 276.18 563.418 276.894 562.561 278.322C561.705 279.75 561.272 281.888 561.264 284.736C561.264 286.662 561.456 288.269 561.839 289.558C562.231 290.84 562.782 291.802 563.492 292.447C564.202 293.084 565.034 293.402 565.989 293.402ZM581.587 297.245L591.979 276.682V276.511H579.874V272.178H597.462V276.572L587.058 297.245H581.587Z" fill="url(#paint0_linear_841_270)" shape-rendering="crispEdges"/>
</g>
<path d="M593.558 143.426L597.041 122.993H602.61L599.126 143.426H593.558ZM619.221 123.441C617.623 122.863 615.935 122.572 614.235 122.583C608.739 122.583 604.867 125.351 604.834 129.319C604.803 132.252 607.598 133.887 609.708 134.863C611.874 135.864 612.601 136.502 612.591 137.395C612.577 138.763 610.861 139.388 609.263 139.388C607.036 139.388 605.854 139.075 604.027 138.317L603.311 137.993L602.53 142.561C603.829 143.13 606.232 143.624 608.725 143.649C614.573 143.649 618.368 140.914 618.412 136.677C618.433 134.355 616.953 132.588 613.742 131.132C611.798 130.194 610.607 129.558 610.62 128.602C610.62 127.754 611.628 126.847 613.805 126.847C615.232 126.815 616.65 127.082 617.968 127.629L618.466 127.865L619.221 123.441ZM633.529 122.993H629.244C627.917 122.993 626.923 123.356 626.34 124.68L618.105 143.322H623.967C623.967 143.322 624.905 140.843 625.121 140.299L632.144 140.307C632.308 141.012 632.811 143.322 632.811 143.322H638.015L633.529 122.993ZM626.716 136.129C627.176 134.953 628.932 130.424 628.932 130.424C628.899 130.478 629.389 129.242 629.669 128.476L630.046 130.235C630.046 130.235 631.111 135.107 631.333 136.129H626.716ZM588.832 122.993L583.399 136.878L582.82 134.056C581.809 130.804 578.657 127.28 575.134 125.516L580.102 143.322L585.974 143.316L594.711 122.993H588.805" fill="url(#paint1_linear_841_270)"/>
<path d="M578.083 122.993H569.152L569.08 123.417C576.059 125.107 580.676 129.19 582.593 134.094L580.642 124.711C580.306 123.419 579.33 123.034 578.122 122.989" fill="url(#paint2_linear_841_270)"/>
<path fill-rule="evenodd" clip-rule="evenodd" d="M200.964 139.764L200.958 139.771L200.953 139.779C200.664 140.189 200.015 140.309 199.508 139.951C199.101 139.664 198.979 139.025 199.325 138.52C199.841 137.862 200.216 137.093 200.462 136.341C200.718 135.559 200.837 134.669 200.833 133.797C200.828 132.925 200.7 132.037 200.435 131.257C200.181 130.508 199.798 129.743 199.275 129.091C198.924 128.59 199.039 127.949 199.442 127.658C199.946 127.294 200.596 127.408 200.89 127.815L200.895 127.822L200.9 127.829C201.551 128.688 202.085 129.641 202.404 130.577C202.74 131.678 202.954 132.742 202.959 133.786C202.965 134.884 202.86 135.924 202.457 136.947C202.018 138.061 201.593 138.915 200.964 139.764ZM205.67 141.802L205.683 141.784L205.695 141.766C207.137 139.454 207.969 136.665 207.954 133.759C207.939 130.854 207.077 128.075 205.611 125.779C205.293 125.275 205.436 124.679 205.971 124.292C206.331 124.032 207.006 124.124 207.407 124.662C209.063 127.289 210.063 130.464 210.081 133.748C210.099 137.144 209.133 140.216 207.504 142.863C207.127 143.381 206.55 143.527 206.053 143.233C205.513 142.838 205.415 142.164 205.67 141.802ZM214.116 121.208L214.13 121.237L214.146 121.263C216.39 124.921 217.637 129.141 217.661 133.708C217.685 138.273 216.485 142.503 214.282 146.184C213.944 146.727 213.374 146.88 212.796 146.611C212.27 146.268 212.129 145.7 212.404 145.126C214.277 141.799 215.442 137.879 215.42 133.72C215.398 129.579 214.315 125.665 212.278 122.338C212.003 121.77 212.139 121.204 212.659 120.857C213.286 120.558 213.897 120.777 214.116 121.208ZM220.759 117.727L220.769 117.746L220.78 117.765C223.498 122.465 225.096 127.838 225.127 133.668C225.158 139.492 223.621 144.877 220.957 149.601C220.619 150.138 220.052 150.289 219.476 150.021C218.952 149.679 218.81 149.113 219.081 148.541C221.647 144.162 223.029 139.088 223 133.679C222.971 128.256 221.414 123.202 218.926 118.866C218.615 118.233 218.834 117.613 219.269 117.392C219.908 117.069 220.537 117.288 220.759 117.727Z" fill="url(#paint3_linear_841_270)"/>
</g>
</g>
<defs>
<filter id="filter0_di_841_270" x="197.166" y="269.114" width="403.925" height="33.2172" filterUnits="userSpaceOnUse" color-interpolation-filters="sRGB">
<feFlood flood-opacity="0" result="BackgroundImageFix"/>
<feColorMatrix in="SourceAlpha" type="matrix" values="0 0 0 0 0 0 0 0 0 0 0 0 0 0 0 0 0 0 127 0" result="hardAlpha"/>
<feOffset dy="0.907042"/>
<feGaussianBlur stdDeviation="1.81408"/>
<feComposite in2="hardAlpha" operator="out"/>
<feColorMatrix type="matrix" values="0 0 0 0 0.0709221 0 0 0 0 0.425719 0 0 0 0 0.69604 0 0 0 0.58 0"/>
<feBlend mode="normal" in2="BackgroundImageFix" result="effect1_dropShadow_841_270"/>
<feBlend mode="normal" in="SourceGraphic" in2="effect1_dropShadow_841_270" result="shape"/>
<feColorMatrix in="SourceAlpha" type="matrix" values="0 0 0 0 0 0 0 0 0 0 0 0 0 0 0 0 0 0 127 0" result="hardAlpha"/>
<feOffset dy="-0.907042"/>
<feGaussianBlur stdDeviation="0.453521"/>
<feComposite in2="hardAlpha" operator="arithmetic" k2="-1" k3="1"/>
<feColorMatrix type="matrix" values="0 0 0 0 0.188235 0 0 0 0 0.603922 0 0 0 0 0.980392 0 0 0 0.15 0"/>
<feBlend mode="normal" in2="shape" result="effect2_innerShadow_841_270"/>
</filter>
<linearGradient id="paint0_linear_841_270" x1="399.507" y1="263.245" x2="399.507" y2="305.245" gradientUnits="userSpaceOnUse">
<stop stop-color="white" stop-opacity="0.8"/>
<stop offset="1" stop-color="white"/>
</linearGradient>
<linearGradient id="paint1_linear_841_270" x1="606.575" y1="122.583" x2="606.575" y2="143.649" gradientUnits="userSpaceOnUse">
<stop stop-color="white"/>
<stop offset="1" stop-color="white" stop-opacity="0.75"/>
</linearGradient>
<linearGradient id="paint2_linear_841_270" x1="575.837" y1="122.989" x2="575.837" y2="134.094" gradientUnits="userSpaceOnUse">
<stop stop-color="white"/>
<stop offset="1" stop-color="white" stop-opacity="0.75"/>
</linearGradient>
<linearGradient id="paint3_linear_841_270" x1="212.023" y1="117.28" x2="212.198" y2="150.192" gradientUnits="userSpaceOnUse">
<stop stop-color="white" stop-opacity="0.73"/>
<stop offset="1" stop-color="white"/>
</linearGradient>
<clipPath id="clip0_841_270">
<rect width="847" height="323" fill="white"/>
</clipPath>
<clipPath id="clip1_841_270">
<rect x="169.075" y="90" width="508.851" height="322" rx="27.2113" fill="white"/>
</clipPath>
</defs>
</svg>
