<svg width="847" height="323" viewBox="0 0 847 323" fill="none" xmlns="http://www.w3.org/2000/svg">
<g clip-path="url(#clip0_841_294)">
<g clip-path="url(#clip1_841_294)">
<rect x="169.075" y="90" width="508.851" height="322" fill="#1A2036"/>
<mask id="mask0_841_294" style="mask-type:alpha" maskUnits="userSpaceOnUse" x="169" y="90" width="509" height="322">
<rect x="169.075" y="90" width="508.851" height="322" fill="#16084C"/>
</mask>
<g mask="url(#mask0_841_294)">
<path opacity="0.05" d="M562.404 44.4485L405.613 201.239C379.674 227.178 379.674 269.234 405.613 295.173L562.404 451.964C588.343 477.903 630.398 477.903 656.337 451.964L813.128 295.173C839.067 269.234 839.067 227.178 813.128 201.239L656.337 44.4485C630.398 18.5096 588.343 18.5096 562.404 44.4485Z" fill="#FEFEFE" fill-opacity="0.25"/>
<path opacity="0.05" d="M774.677 29.0044L605.856 197.826C577.926 225.755 577.926 271.037 605.856 298.967L774.677 467.788C802.606 495.717 847.889 495.717 875.818 467.788L1044.64 298.967C1072.57 271.037 1072.57 225.755 1044.64 197.826L875.818 29.0043C847.889 1.07507 802.606 1.0751 774.677 29.0044Z" fill="#FEFEFE" fill-opacity="0.35"/>
<g filter="url(#filter0_di_841_294)">
<path d="M206.502 305.278C204.849 305.278 203.377 304.994 202.086 304.426C200.802 303.85 199.787 303.061 199.042 302.057C198.304 301.046 197.924 299.881 197.902 298.56H202.728C202.758 299.113 202.938 299.6 203.27 300.021C203.61 300.434 204.06 300.755 204.621 300.984C205.182 301.212 205.812 301.327 206.513 301.327C207.244 301.327 207.89 301.198 208.45 300.939C209.011 300.681 209.45 300.323 209.768 299.866C210.085 299.408 210.244 298.881 210.244 298.283C210.244 297.678 210.074 297.143 209.734 296.678C209.402 296.206 208.923 295.837 208.295 295.571C207.676 295.306 206.938 295.173 206.082 295.173H203.968V291.653H206.082C206.805 291.653 207.443 291.528 207.997 291.277C208.557 291.026 208.993 290.679 209.303 290.236C209.613 289.786 209.768 289.262 209.768 288.664C209.768 288.096 209.631 287.598 209.358 287.17C209.092 286.735 208.716 286.395 208.229 286.152C207.749 285.908 207.189 285.787 206.547 285.787C205.897 285.787 205.303 285.905 204.765 286.141C204.226 286.37 203.794 286.698 203.47 287.126C203.145 287.554 202.972 288.056 202.949 288.631H198.356C198.378 287.325 198.751 286.174 199.474 285.178C200.197 284.182 201.171 283.403 202.396 282.842C203.628 282.274 205.019 281.99 206.569 281.99C208.133 281.99 209.502 282.274 210.675 282.842C211.848 283.411 212.76 284.178 213.409 285.145C214.066 286.104 214.391 287.181 214.383 288.377C214.391 289.646 213.996 290.705 213.199 291.553C212.409 292.402 211.38 292.941 210.111 293.169V293.346C211.778 293.56 213.048 294.14 213.918 295.084C214.796 296.021 215.232 297.195 215.224 298.604C215.232 299.895 214.859 301.043 214.106 302.046C213.361 303.05 212.332 303.839 211.018 304.415C209.705 304.991 208.2 305.278 206.502 305.278ZM219.573 300.984V297.209L229.037 282.3H232.291V287.524H230.365L224.399 296.966V297.143H237.847V300.984H219.573ZM230.453 304.968V299.833L230.542 298.161V282.3H235.036V304.968H230.453ZM250.566 305.278C249.002 305.278 247.607 304.991 246.383 304.415C245.165 303.839 244.198 303.046 243.483 302.035C242.767 301.024 242.394 299.866 242.365 298.56H247.013C247.065 299.438 247.434 300.15 248.12 300.696C248.807 301.242 249.622 301.515 250.566 301.515C251.319 301.515 251.983 301.349 252.559 301.017C253.142 300.677 253.596 300.209 253.92 299.611C254.252 299.006 254.418 298.313 254.418 297.53C254.418 296.733 254.249 296.032 253.909 295.427C253.577 294.822 253.116 294.35 252.526 294.011C251.935 293.671 251.26 293.498 250.5 293.49C249.836 293.49 249.19 293.627 248.563 293.9C247.943 294.173 247.46 294.546 247.113 295.018L242.852 294.254L243.925 282.3H257.783V286.218H247.877L247.29 291.896H247.423C247.821 291.336 248.423 290.871 249.227 290.502C250.031 290.133 250.932 289.948 251.928 289.948C253.293 289.948 254.511 290.269 255.58 290.911C256.65 291.553 257.495 292.435 258.115 293.557C258.735 294.671 259.041 295.955 259.034 297.409C259.041 298.936 258.687 300.294 257.971 301.482C257.263 302.662 256.27 303.592 254.994 304.271C253.725 304.943 252.249 305.278 250.566 305.278ZM271.903 305.278C270.338 305.278 268.944 304.991 267.719 304.415C266.501 303.839 265.534 303.046 264.819 302.035C264.103 301.024 263.73 299.866 263.701 298.56H268.35C268.401 299.438 268.77 300.15 269.456 300.696C270.143 301.242 270.958 301.515 271.903 301.515C272.655 301.515 273.319 301.349 273.895 301.017C274.478 300.677 274.932 300.209 275.256 299.611C275.588 299.006 275.754 298.313 275.754 297.53C275.754 296.733 275.585 296.032 275.245 295.427C274.913 294.822 274.452 294.35 273.862 294.011C273.271 293.671 272.596 293.498 271.836 293.49C271.172 293.49 270.526 293.627 269.899 293.9C269.279 294.173 268.796 294.546 268.449 295.018L264.188 294.254L265.261 282.3H279.119V286.218H269.213L268.626 291.896H268.759C269.158 291.336 269.759 290.871 270.563 290.502C271.368 290.133 272.268 289.948 273.264 289.948C274.629 289.948 275.847 290.269 276.917 290.911C277.987 291.553 278.831 292.435 279.451 293.557C280.071 294.671 280.377 295.955 280.37 297.409C280.377 298.936 280.023 300.294 279.307 301.482C278.599 302.662 277.607 303.592 276.33 304.271C275.061 304.943 273.585 305.278 271.903 305.278ZM293.077 300.984V297.209L302.541 282.3H305.795V287.524H303.869L297.903 296.966V297.143H311.351V300.984H293.077ZM303.957 304.968V299.833L304.046 298.161V282.3H308.54V304.968H303.957ZM324.07 305.278C322.506 305.278 321.111 304.991 319.886 304.415C318.669 303.839 317.702 303.046 316.986 302.035C316.271 301.024 315.898 299.866 315.869 298.56H320.517C320.569 299.438 320.938 300.15 321.624 300.696C322.31 301.242 323.126 301.515 324.07 301.515C324.823 301.515 325.487 301.349 326.063 301.017C326.646 300.677 327.099 300.209 327.424 299.611C327.756 299.006 327.922 298.313 327.922 297.53C327.922 296.733 327.752 296.032 327.413 295.427C327.081 294.822 326.62 294.35 326.029 294.011C325.439 293.671 324.764 293.498 324.004 293.49C323.34 293.49 322.694 293.627 322.067 293.9C321.447 294.173 320.964 294.546 320.617 295.018L316.356 294.254L317.429 282.3H331.287V286.218H321.381L320.794 291.896H320.927C321.325 291.336 321.927 290.871 322.731 290.502C323.535 290.133 324.436 289.948 325.432 289.948C326.797 289.948 328.014 290.269 329.084 290.911C330.154 291.553 330.999 292.435 331.619 293.557C332.239 294.671 332.545 295.955 332.538 297.409C332.545 298.936 332.191 300.294 331.475 301.482C330.767 302.662 329.774 303.592 328.498 304.271C327.229 304.943 325.753 305.278 324.07 305.278ZM345.827 305.278C344.661 305.271 343.536 305.075 342.451 304.692C341.374 304.308 340.407 303.684 339.551 302.821C338.695 301.958 338.016 300.814 337.515 299.39C337.02 297.966 336.773 296.217 336.773 294.143C336.78 292.24 336.998 290.539 337.426 289.041C337.861 287.535 338.481 286.259 339.286 285.211C340.097 284.163 341.068 283.366 342.197 282.82C343.326 282.267 344.591 281.99 345.993 281.99C347.506 281.99 348.841 282.285 350 282.876C351.158 283.459 352.088 284.252 352.789 285.255C353.498 286.259 353.926 287.384 354.073 288.631H349.347C349.162 287.842 348.775 287.222 348.185 286.772C347.594 286.322 346.864 286.097 345.993 286.097C344.517 286.097 343.396 286.739 342.628 288.022C341.868 289.306 341.481 291.052 341.466 293.258H341.621C341.96 292.586 342.418 292.015 342.994 291.542C343.576 291.063 344.237 290.697 344.975 290.446C345.72 290.188 346.506 290.059 347.332 290.059C348.675 290.059 349.871 290.376 350.919 291.011C351.966 291.638 352.793 292.502 353.398 293.601C354.003 294.7 354.306 295.959 354.306 297.375C354.306 298.91 353.948 300.275 353.232 301.471C352.524 302.666 351.531 303.603 350.254 304.282C348.985 304.954 347.509 305.286 345.827 305.278ZM345.805 301.515C346.543 301.515 347.203 301.338 347.786 300.984C348.369 300.63 348.827 300.15 349.159 299.545C349.491 298.94 349.657 298.261 349.657 297.508C349.657 296.756 349.491 296.08 349.159 295.483C348.834 294.885 348.384 294.409 347.808 294.055C347.233 293.701 346.576 293.524 345.838 293.524C345.285 293.524 344.772 293.627 344.3 293.833C343.835 294.04 343.425 294.328 343.071 294.697C342.724 295.066 342.451 295.494 342.252 295.981C342.053 296.46 341.953 296.973 341.953 297.519C341.953 298.25 342.119 298.918 342.451 299.523C342.791 300.128 343.248 300.611 343.824 300.973C344.407 301.334 345.067 301.515 345.805 301.515ZM358.95 304.968V301.515L367.019 294.044C367.706 293.38 368.281 292.782 368.746 292.251C369.218 291.719 369.576 291.199 369.82 290.69C370.063 290.173 370.185 289.616 370.185 289.019C370.185 288.355 370.034 287.783 369.731 287.303C369.429 286.816 369.015 286.443 368.491 286.185C367.967 285.919 367.373 285.787 366.709 285.787C366.016 285.787 365.411 285.927 364.894 286.207C364.378 286.488 363.979 286.89 363.699 287.414C363.418 287.938 363.278 288.561 363.278 289.284H358.729C358.729 287.801 359.065 286.513 359.736 285.421C360.408 284.329 361.348 283.484 362.559 282.887C363.769 282.289 365.163 281.99 366.743 281.99C368.366 281.99 369.779 282.278 370.982 282.853C372.192 283.422 373.133 284.211 373.804 285.222C374.476 286.233 374.811 287.392 374.811 288.698C374.811 289.554 374.642 290.399 374.302 291.232C373.97 292.066 373.376 292.992 372.52 294.011C371.664 295.021 370.458 296.235 368.901 297.652L365.591 300.895V301.05H375.11V304.968H358.95ZM389.187 304.968L398.584 286.373V286.218H387.637V282.3H403.543V286.274L394.135 304.968H389.187ZM409.58 304.968L418.977 286.373V286.218H408.03V282.3H423.935V286.274L414.527 304.968H409.58ZM438.329 282.3V304.968H433.536V286.849H433.403L428.212 290.103V285.853L433.824 282.3H438.329ZM453.851 305.466C451.947 305.459 450.309 304.991 448.937 304.061C447.572 303.131 446.52 301.784 445.782 300.021C445.052 298.257 444.69 296.136 444.698 293.656C444.698 291.184 445.063 289.078 445.793 287.336C446.531 285.595 447.583 284.27 448.948 283.363C450.32 282.448 451.955 281.99 453.851 281.99C455.748 281.99 457.378 282.448 458.743 283.363C460.116 284.278 461.171 285.606 461.909 287.347C462.647 289.081 463.012 291.184 463.005 293.656C463.005 296.143 462.636 298.268 461.898 300.032C461.167 301.795 460.12 303.142 458.755 304.072C457.389 305.002 455.755 305.466 453.851 305.466ZM453.851 301.493C455.15 301.493 456.187 300.84 456.961 299.534C457.736 298.228 458.12 296.269 458.113 293.656C458.113 291.937 457.935 290.506 457.581 289.362C457.234 288.218 456.74 287.358 456.098 286.783C455.464 286.207 454.715 285.919 453.851 285.919C452.56 285.919 451.527 286.565 450.752 287.856C449.977 289.148 449.586 291.081 449.579 293.656C449.579 295.398 449.752 296.851 450.099 298.017C450.453 299.176 450.951 300.047 451.593 300.63C452.235 301.205 452.988 301.493 453.851 301.493ZM484.509 305.278C482.856 305.278 481.384 304.994 480.092 304.426C478.808 303.85 477.794 303.061 477.048 302.057C476.31 301.046 475.93 299.881 475.908 298.56H480.734C480.764 299.113 480.944 299.6 481.277 300.021C481.616 300.434 482.066 300.755 482.627 300.984C483.188 301.212 483.819 301.327 484.52 301.327C485.25 301.327 485.896 301.198 486.457 300.939C487.017 300.681 487.456 300.323 487.774 299.866C488.091 299.408 488.25 298.881 488.25 298.283C488.25 297.678 488.08 297.143 487.741 296.678C487.408 296.206 486.929 295.837 486.302 295.571C485.682 295.306 484.944 295.173 484.088 295.173H481.974V291.653H484.088C484.811 291.653 485.449 291.528 486.003 291.277C486.564 291.026 486.999 290.679 487.309 290.236C487.619 289.786 487.774 289.262 487.774 288.664C487.774 288.096 487.637 287.598 487.364 287.17C487.099 286.735 486.722 286.395 486.235 286.152C485.756 285.908 485.195 285.787 484.553 285.787C483.903 285.787 483.309 285.905 482.771 286.141C482.232 286.37 481.8 286.698 481.476 287.126C481.151 287.554 480.978 288.056 480.956 288.631H476.362C476.384 287.325 476.757 286.174 477.48 285.178C478.203 284.182 479.177 283.403 480.402 282.842C481.634 282.274 483.025 281.99 484.575 281.99C486.139 281.99 487.508 282.274 488.681 282.842C489.855 283.411 490.766 284.178 491.415 285.145C492.072 286.104 492.397 287.181 492.389 288.377C492.397 289.646 492.002 290.705 491.205 291.553C490.415 292.402 489.386 292.941 488.117 293.169V293.346C489.785 293.56 491.054 294.14 491.924 295.084C492.803 296.021 493.238 297.195 493.231 298.604C493.238 299.895 492.865 301.043 492.113 302.046C491.367 303.05 490.338 303.839 489.024 304.415C487.711 304.991 486.206 305.278 484.509 305.278ZM506.202 305.278C504.637 305.278 503.243 304.991 502.018 304.415C500.8 303.839 499.834 303.046 499.118 302.035C498.402 301.024 498.029 299.866 498 298.56H502.649C502.7 299.438 503.069 300.15 503.755 300.696C504.442 301.242 505.257 301.515 506.202 301.515C506.954 301.515 507.618 301.349 508.194 301.017C508.777 300.677 509.231 300.209 509.555 299.611C509.887 299.006 510.053 298.313 510.053 297.53C510.053 296.733 509.884 296.032 509.544 295.427C509.212 294.822 508.751 294.35 508.161 294.011C507.57 293.671 506.895 293.498 506.135 293.49C505.471 293.49 504.825 293.627 504.198 293.9C503.578 294.173 503.095 294.546 502.748 295.018L498.487 294.254L499.561 282.3H513.418V286.218H503.512L502.925 291.896H503.058C503.457 291.336 504.058 290.871 504.862 290.502C505.667 290.133 506.567 289.948 507.563 289.948C508.928 289.948 510.146 290.269 511.216 290.911C512.286 291.553 513.131 292.435 513.75 293.557C514.37 294.671 514.676 295.955 514.669 297.409C514.676 298.936 514.322 300.294 513.606 301.482C512.898 302.662 511.906 303.592 510.629 304.271C509.36 304.943 507.884 305.278 506.202 305.278ZM528.146 305.466C526.243 305.459 524.605 304.991 523.232 304.061C521.867 303.131 520.815 301.784 520.078 300.021C519.347 298.257 518.985 296.136 518.993 293.656C518.993 291.184 519.358 289.078 520.089 287.336C520.826 285.595 521.878 284.27 523.243 283.363C524.616 282.448 526.25 281.99 528.146 281.99C530.043 281.99 531.674 282.448 533.039 283.363C534.411 284.278 535.466 285.606 536.204 287.347C536.942 289.081 537.308 291.184 537.3 293.656C537.3 296.143 536.931 298.268 536.193 300.032C535.463 301.795 534.415 303.142 533.05 304.072C531.685 305.002 530.05 305.466 528.146 305.466ZM528.146 301.493C529.445 301.493 530.482 300.84 531.257 299.534C532.032 298.228 532.415 296.269 532.408 293.656C532.408 291.937 532.231 290.506 531.877 289.362C531.53 288.218 531.035 287.358 530.393 286.783C529.759 286.207 529.01 285.919 528.146 285.919C526.855 285.919 525.822 286.565 525.047 287.856C524.272 289.148 523.881 291.081 523.874 293.656C523.874 295.398 524.047 296.851 524.394 298.017C524.748 299.176 525.247 300.047 525.888 300.63C526.53 301.205 527.283 301.493 528.146 301.493ZM542.252 304.968L551.649 286.373V286.218H540.702V282.3H556.608V286.274L547.2 304.968H542.252Z" fill="url(#paint0_linear_841_294)" shape-rendering="crispEdges"/>
</g>
</g>
<g opacity="0.7">
<rect x="199.642" y="118.753" width="43.669" height="32.9693" rx="5.94113" fill="white" fill-opacity="0.26" stroke="white" stroke-width="1.26986"/>
<path d="M199.709 128.651H211.167C212.983 128.651 214.455 130.123 214.455 131.939V136.901M214.455 151.682V145.152M214.455 145.152V136.901M214.455 145.152H199.709M214.455 136.901H199.709" stroke="white" stroke-width="1.26986"/>
<path d="M243.244 128.651H229.201M229.201 128.651V136.901M229.201 128.651V118.821M229.201 151.682V145.152M229.201 145.152V136.901M229.201 145.152H243.244M229.201 136.901H243.244" stroke="white" stroke-width="1.26986"/>
</g>
<path fill-rule="evenodd" clip-rule="evenodd" d="M614.72 142.48L614.714 142.488L614.709 142.496C614.398 142.936 613.701 143.065 613.156 142.681C612.72 142.373 612.589 141.686 612.96 141.144C613.515 140.438 613.917 139.612 614.181 138.805C614.456 137.965 614.584 137.01 614.579 136.073C614.574 135.137 614.436 134.183 614.152 133.346C613.879 132.542 613.468 131.72 612.907 131.02C612.529 130.482 612.653 129.794 613.086 129.481C613.627 129.091 614.325 129.213 614.64 129.65L614.646 129.658L614.652 129.665C615.351 130.587 615.924 131.611 616.266 132.615C616.627 133.797 616.857 134.94 616.863 136.061C616.869 137.24 616.756 138.356 616.324 139.455C615.852 140.652 615.396 141.568 614.72 142.48ZM619.773 144.669L619.787 144.649L619.8 144.629C621.349 142.147 622.242 139.152 622.226 136.032C622.209 132.913 621.284 129.929 619.709 127.464C619.368 126.923 619.521 126.283 620.097 125.867C620.483 125.588 621.208 125.687 621.638 126.264C623.416 129.085 624.49 132.495 624.509 136.02C624.528 139.666 623.492 142.966 621.742 145.807C621.338 146.364 620.718 146.52 620.184 146.204C619.605 145.78 619.499 145.057 619.773 144.669ZM628.842 122.556L628.857 122.586L628.875 122.615C631.284 126.543 632.622 131.073 632.649 135.977C632.675 140.878 631.385 145.421 629.02 149.373C628.658 149.956 628.046 150.12 627.425 149.831C626.86 149.463 626.708 148.853 627.003 148.237C629.015 144.665 630.266 140.456 630.242 135.99C630.218 131.544 629.055 127.341 626.869 123.769C626.573 123.159 626.72 122.551 627.278 122.179C627.951 121.857 628.607 122.093 628.842 122.556ZM635.975 118.818L635.985 118.839L635.997 118.859C638.916 123.905 640.631 129.675 640.665 135.934C640.698 142.188 639.048 147.969 636.188 153.043C635.825 153.619 635.215 153.781 634.598 153.493C634.035 153.126 633.882 152.519 634.173 151.905C636.929 147.202 638.412 141.754 638.381 135.946C638.35 130.124 636.678 124.697 634.007 120.041C633.672 119.361 633.908 118.695 634.375 118.459C635.061 118.111 635.736 118.347 635.975 118.818Z" fill="url(#paint1_linear_841_294)"/>
</g>
</g>
<defs>
<filter id="filter0_di_841_294" x="193.612" y="279.778" width="367.286" height="32.0569" filterUnits="userSpaceOnUse" color-interpolation-filters="sRGB">
<feFlood flood-opacity="0" result="BackgroundImageFix"/>
<feColorMatrix in="SourceAlpha" type="matrix" values="0 0 0 0 0 0 0 0 0 0 0 0 0 0 0 0 0 0 127 0" result="hardAlpha"/>
<feOffset dy="2.07793"/>
<feGaussianBlur stdDeviation="2.14515"/>
<feComposite in2="hardAlpha" operator="out"/>
<feColorMatrix type="matrix" values="0 0 0 0 0.0321297 0 0 0 0 0.167704 0 0 0 0 0.270999 0 0 0 0.16 0"/>
<feBlend mode="normal" in2="BackgroundImageFix" result="effect1_dropShadow_841_294"/>
<feBlend mode="normal" in="SourceGraphic" in2="effect1_dropShadow_841_294" result="shape"/>
<feColorMatrix in="SourceAlpha" type="matrix" values="0 0 0 0 0 0 0 0 0 0 0 0 0 0 0 0 0 0 127 0" result="hardAlpha"/>
<feOffset dy="4.15586"/>
<feGaussianBlur stdDeviation="2.07793"/>
<feComposite in2="hardAlpha" operator="arithmetic" k2="-1" k3="1"/>
<feColorMatrix type="matrix" values="0 0 0 0 0.916667 0 0 0 0 0.916667 0 0 0 0 0.916667 0 0 0 0.25 0"/>
<feBlend mode="normal" in2="shape" result="effect2_innerShadow_841_294"/>
</filter>
<linearGradient id="paint0_linear_841_294" x1="377.286" y1="274.968" x2="377.286" y2="312.968" gradientUnits="userSpaceOnUse">
<stop stop-color="white" stop-opacity="0.68"/>
<stop offset="1" stop-color="white"/>
</linearGradient>
<linearGradient id="paint1_linear_841_294" x1="626.595" y1="118.338" x2="626.783" y2="153.677" gradientUnits="userSpaceOnUse">
<stop stop-color="white" stop-opacity="0.73"/>
<stop offset="1" stop-color="white"/>
</linearGradient>
<clipPath id="clip0_841_294">
<rect width="847" height="323" fill="white"/>
</clipPath>
<clipPath id="clip1_841_294">
<rect x="169.075" y="90" width="508.851" height="322" rx="27.2113" fill="white"/>
</clipPath>
</defs>
</svg>
