<svg width="561" height="355" viewBox="0 0 561 355" fill="none" xmlns="http://www.w3.org/2000/svg">
<g clip-path="url(#clip0_458_55)">
<g clip-path="url(#clip1_458_55)">
<rect width="561" height="355" fill="#1A2036"/>
<mask id="mask0_458_55" style="mask-type:alpha" maskUnits="userSpaceOnUse" x="0" y="0" width="561" height="355">
<rect width="561" height="355" fill="#16084C"/>
<rect width="561" height="355" fill="url(#paint0_linear_458_55)" fill-opacity="0.5"/>
</mask>
<g mask="url(#mask0_458_55)">
<rect x="198" y="-18.2262" width="370.079" height="468.83" transform="rotate(-21.6628 198 -18.2262)" fill="url(#paint1_linear_458_55)" fill-opacity="0.1"/>
</g>
<g filter="url(#filter0_d_458_55)">
<path d="M45.4554 191.378C43.4402 191.378 41.6455 191.032 40.0711 190.339C38.5058 189.637 37.2688 188.675 36.3602 187.451C35.4606 186.219 34.9973 184.797 34.9703 183.187H40.8538C40.8898 183.862 41.1102 184.455 41.515 184.968C41.9289 185.472 42.4776 185.863 43.1613 186.142C43.8451 186.421 44.6142 186.561 45.4689 186.561C46.3595 186.561 47.1467 186.403 47.8304 186.088C48.5141 185.773 49.0494 185.337 49.4362 184.779C49.823 184.222 50.0165 183.578 50.0165 182.85C50.0165 182.112 49.8095 181.46 49.3957 180.893C48.9909 180.317 48.4061 179.867 47.6415 179.544C46.8858 179.22 45.9862 179.058 44.9426 179.058H42.3652V174.767H44.9426C45.8242 174.767 46.6024 174.614 47.2771 174.308C47.9608 174.002 48.4916 173.579 48.8694 173.039C49.2473 172.491 49.4362 171.852 49.4362 171.123C49.4362 170.43 49.2698 169.823 48.9369 169.301C48.613 168.771 48.1542 168.357 47.5605 168.06C46.9757 167.763 46.292 167.615 45.5094 167.615C44.7177 167.615 43.9935 167.759 43.3368 168.046C42.68 168.325 42.1538 168.726 41.7579 169.247C41.3621 169.769 41.1507 170.381 41.1237 171.083H35.5236C35.5505 169.49 36.0049 168.087 36.8865 166.872C37.7681 165.658 38.9556 164.709 40.449 164.025C41.9514 163.332 43.6471 162.986 45.5363 162.986C47.4435 162.986 49.1123 163.332 50.5427 164.025C51.9731 164.718 53.0842 165.653 53.8758 166.832C54.6765 168.001 55.0723 169.315 55.0633 170.772C55.0723 172.32 54.591 173.611 53.6194 174.645C52.6568 175.68 51.4019 176.336 49.8545 176.615V176.831C51.8877 177.092 53.435 177.798 54.4966 178.95C55.5671 180.092 56.0979 181.523 56.0889 183.241C56.0979 184.815 55.6436 186.214 54.726 187.438C53.8174 188.661 52.5624 189.624 50.9611 190.326C49.3597 191.027 47.5245 191.378 45.4554 191.378ZM61.3907 186.142V181.541L72.9283 163.364H76.8957V169.733H74.5476L67.2742 181.244V181.46H83.6698V186.142H61.3907ZM74.6556 191V184.739L74.7636 182.701V163.364H80.2422V191H74.6556ZM99.1767 191.378C97.2695 191.378 95.5692 191.027 94.0758 190.326C92.5914 189.624 91.4129 188.657 90.5403 187.424C89.6677 186.192 89.2134 184.779 89.1774 183.187H94.845C94.908 184.258 95.3578 185.126 96.1944 185.791C97.0311 186.457 98.0251 186.79 99.1767 186.79C100.094 186.79 100.904 186.588 101.606 186.183C102.316 185.769 102.87 185.198 103.265 184.469C103.67 183.731 103.873 182.886 103.873 181.932C103.873 180.96 103.666 180.106 103.252 179.368C102.847 178.63 102.285 178.055 101.565 177.641C100.845 177.227 100.022 177.016 99.0957 177.007C98.286 177.007 97.4989 177.173 96.7342 177.506C95.9785 177.839 95.3893 178.293 94.9664 178.869L89.7711 177.938L91.0801 163.364H107.975V168.141H95.8975L95.1823 175.063H95.3443C95.8301 174.38 96.5633 173.813 97.5439 173.363C98.5244 172.913 99.622 172.688 100.836 172.688C102.501 172.688 103.985 173.08 105.29 173.862C106.594 174.645 107.624 175.72 108.38 177.088C109.135 178.446 109.509 180.011 109.5 181.784C109.509 183.646 109.077 185.301 108.204 186.75C107.341 188.189 106.131 189.322 104.574 190.15C103.027 190.969 101.228 191.378 99.1767 191.378ZM125.189 191.378C123.282 191.378 121.581 191.027 120.088 190.326C118.604 189.624 117.425 188.657 116.552 187.424C115.68 186.192 115.226 184.779 115.19 183.187H120.857C120.92 184.258 121.37 185.126 122.207 185.791C123.043 186.457 124.037 186.79 125.189 186.79C126.106 186.79 126.916 186.588 127.618 186.183C128.329 185.769 128.882 185.198 129.278 184.469C129.682 183.731 129.885 182.886 129.885 181.932C129.885 180.96 129.678 180.106 129.264 179.368C128.859 178.63 128.297 178.055 127.577 177.641C126.858 177.227 126.034 177.016 125.108 177.007C124.298 177.007 123.511 177.173 122.746 177.506C121.991 177.839 121.401 178.293 120.979 178.869L115.783 177.938L117.092 163.364H133.987V168.141H121.91L121.195 175.063H121.356C121.842 174.38 122.575 173.813 123.556 173.363C124.537 172.913 125.634 172.688 126.849 172.688C128.513 172.688 129.997 173.08 131.302 173.862C132.606 174.645 133.636 175.72 134.392 177.088C135.148 178.446 135.521 180.011 135.512 181.784C135.521 183.646 135.089 185.301 134.217 186.75C133.353 188.189 132.143 189.322 130.587 190.15C129.039 190.969 127.24 191.378 125.189 191.378ZM151.004 186.142V181.541L162.542 163.364H166.509V169.733H164.161L156.887 181.244V181.46H173.283V186.142H151.004ZM164.269 191V184.739L164.377 182.701V163.364H169.855V191H164.269ZM188.79 191.378C186.883 191.378 185.182 191.027 183.689 190.326C182.205 189.624 181.026 188.657 180.153 187.424C179.281 186.192 178.827 184.779 178.791 183.187H184.458C184.521 184.258 184.971 185.126 185.808 185.791C186.644 186.457 187.638 186.79 188.79 186.79C189.707 186.79 190.517 186.588 191.219 186.183C191.93 185.769 192.483 185.198 192.879 184.469C193.283 183.731 193.486 182.886 193.486 181.932C193.486 180.96 193.279 180.106 192.865 179.368C192.46 178.63 191.898 178.055 191.178 177.641C190.459 177.227 189.636 177.016 188.709 177.007C187.899 177.007 187.112 177.173 186.347 177.506C185.592 177.839 185.002 178.293 184.58 178.869L179.384 177.938L180.693 163.364H197.588V168.141H185.511L184.796 175.063H184.957C185.443 174.38 186.176 173.813 187.157 173.363C188.138 172.913 189.235 172.688 190.45 172.688C192.114 172.688 193.598 173.08 194.903 173.862C196.207 174.645 197.237 175.72 197.993 177.088C198.749 178.446 199.122 180.011 199.113 181.784C199.122 183.646 198.69 185.301 197.818 186.75C196.954 188.189 195.744 189.322 194.188 190.15C192.64 190.969 190.841 191.378 188.79 191.378ZM215.315 191.378C213.893 191.369 212.522 191.131 211.199 190.663C209.886 190.195 208.707 189.435 207.664 188.382C206.62 187.33 205.792 185.935 205.181 184.199C204.578 182.463 204.276 180.331 204.276 177.803C204.285 175.482 204.551 173.408 205.073 171.582C205.603 169.747 206.359 168.19 207.34 166.913C208.329 165.635 209.512 164.664 210.889 163.998C212.265 163.323 213.808 162.986 215.517 162.986C217.361 162.986 218.99 163.346 220.402 164.066C221.815 164.776 222.948 165.743 223.803 166.967C224.666 168.19 225.188 169.562 225.368 171.083H219.606C219.381 170.12 218.909 169.364 218.189 168.816C217.469 168.267 216.579 167.992 215.517 167.992C213.718 167.992 212.351 168.775 211.415 170.34C210.488 171.906 210.016 174.033 209.998 176.723H210.187C210.601 175.905 211.159 175.207 211.86 174.632C212.571 174.047 213.376 173.602 214.276 173.296C215.184 172.981 216.142 172.823 217.15 172.823C218.787 172.823 220.245 173.21 221.522 173.984C222.8 174.749 223.807 175.801 224.545 177.142C225.283 178.482 225.651 180.016 225.651 181.743C225.651 183.614 225.215 185.279 224.343 186.736C223.479 188.193 222.269 189.336 220.713 190.164C219.165 190.982 217.366 191.387 215.315 191.378ZM215.288 186.79C216.187 186.79 216.993 186.574 217.703 186.142C218.414 185.71 218.972 185.126 219.377 184.388C219.781 183.65 219.984 182.823 219.984 181.905C219.984 180.987 219.781 180.164 219.377 179.436C218.981 178.707 218.432 178.127 217.73 177.695C217.029 177.263 216.228 177.047 215.328 177.047C214.654 177.047 214.028 177.173 213.453 177.425C212.886 177.677 212.387 178.028 211.955 178.478C211.532 178.927 211.199 179.449 210.956 180.043C210.713 180.628 210.592 181.253 210.592 181.919C210.592 182.809 210.794 183.623 211.199 184.361C211.613 185.099 212.171 185.688 212.872 186.129C213.583 186.57 214.388 186.79 215.288 186.79ZM231.314 191V186.79L241.152 177.681C241.988 176.872 242.69 176.143 243.257 175.495C243.832 174.848 244.269 174.213 244.566 173.593C244.863 172.963 245.011 172.284 245.011 171.555C245.011 170.745 244.827 170.048 244.458 169.463C244.089 168.87 243.585 168.415 242.946 168.1C242.308 167.777 241.583 167.615 240.774 167.615C239.928 167.615 239.19 167.786 238.561 168.127C237.931 168.469 237.445 168.96 237.103 169.598C236.761 170.237 236.591 170.997 236.591 171.879H231.044C231.044 170.071 231.454 168.501 232.272 167.169C233.091 165.838 234.238 164.808 235.713 164.079C237.189 163.35 238.889 162.986 240.814 162.986C242.793 162.986 244.516 163.337 245.983 164.039C247.458 164.731 248.605 165.694 249.424 166.926C250.242 168.159 250.652 169.571 250.652 171.164C250.652 172.207 250.445 173.237 250.031 174.254C249.626 175.27 248.902 176.399 247.858 177.641C246.815 178.873 245.344 180.353 243.446 182.08L239.411 186.034V186.223H251.016V191H231.314ZM268.178 191L279.634 168.33V168.141H266.289V163.364H285.68V168.208L274.21 191H268.178ZM293.04 191L304.496 168.33V168.141H291.15V163.364L310.542 163.364V168.208L299.072 191H293.04ZM328.09 163.364V191H322.247V168.91H322.085L315.756 172.877V167.696L322.597 163.364H328.09ZM347.014 191.607C344.693 191.598 342.696 191.027 341.022 189.894C339.358 188.76 338.076 187.118 337.177 184.968C336.286 182.818 335.845 180.232 335.854 177.209C335.854 174.195 336.299 171.627 337.19 169.504C338.09 167.381 339.372 165.766 341.036 164.659C342.709 163.544 344.702 162.986 347.014 162.986C349.326 162.986 351.314 163.544 352.978 164.659C354.652 165.775 355.938 167.394 356.838 169.517C357.737 171.631 358.183 174.195 358.174 177.209C358.174 180.241 357.724 182.832 356.824 184.982C355.934 187.132 354.656 188.774 352.992 189.907C351.328 191.041 349.335 191.607 347.014 191.607ZM347.014 186.763C348.597 186.763 349.861 185.967 350.806 184.375C351.75 182.782 352.218 180.394 352.209 177.209C352.209 175.113 351.993 173.368 351.561 171.973C351.139 170.579 350.536 169.531 349.753 168.829C348.98 168.127 348.066 167.777 347.014 167.777C345.44 167.777 344.18 168.564 343.235 170.138C342.291 171.712 341.814 174.069 341.805 177.209C341.805 179.332 342.016 181.104 342.439 182.526C342.871 183.938 343.478 185 344.261 185.71C345.044 186.412 345.961 186.763 347.014 186.763ZM384.39 191.378C382.375 191.378 380.58 191.032 379.006 190.339C377.441 189.637 376.204 188.675 375.295 187.451C374.395 186.219 373.932 184.797 373.905 183.187H379.789C379.825 183.862 380.045 184.455 380.45 184.968C380.864 185.472 381.412 185.863 382.096 186.142C382.78 186.421 383.549 186.561 384.404 186.561C385.294 186.561 386.081 186.403 386.765 186.088C387.449 185.773 387.984 185.337 388.371 184.779C388.758 184.222 388.951 183.578 388.951 182.85C388.951 182.112 388.744 181.46 388.33 180.893C387.926 180.317 387.341 179.867 386.576 179.544C385.821 179.22 384.921 179.058 383.877 179.058H381.3V174.767H383.877C384.759 174.767 385.537 174.614 386.212 174.308C386.896 174.002 387.426 173.579 387.804 173.039C388.182 172.491 388.371 171.852 388.371 171.123C388.371 170.43 388.205 169.823 387.872 169.301C387.548 168.771 387.089 168.357 386.495 168.06C385.91 167.763 385.227 167.615 384.444 167.615C383.652 167.615 382.928 167.759 382.272 168.046C381.615 168.325 381.089 168.726 380.693 169.247C380.297 169.769 380.085 170.381 380.058 171.083H374.458C374.485 169.49 374.94 168.087 375.821 166.872C376.703 165.658 377.89 164.709 379.384 164.025C380.886 163.332 382.582 162.986 384.471 162.986C386.378 162.986 388.047 163.332 389.477 164.025C390.908 164.718 392.019 165.653 392.811 166.832C393.611 168.001 394.007 169.315 393.998 170.772C394.007 172.32 393.526 173.611 392.554 174.645C391.592 175.68 390.337 176.336 388.789 176.615V176.831C390.822 177.092 392.37 177.798 393.431 178.95C394.502 180.092 395.033 181.523 395.024 183.241C395.033 184.815 394.578 186.214 393.661 187.438C392.752 188.661 391.497 189.624 389.896 190.326C388.294 191.027 386.459 191.378 384.39 191.378ZM410.838 191.378C408.93 191.378 407.23 191.027 405.737 190.326C404.252 189.624 403.074 188.657 402.201 187.424C401.329 186.192 400.874 184.779 400.838 183.187H406.506C406.569 184.258 407.019 185.126 407.855 185.791C408.692 186.457 409.686 186.79 410.838 186.79C411.755 186.79 412.565 186.588 413.267 186.183C413.977 185.769 414.53 185.198 414.926 184.469C415.331 183.731 415.534 182.886 415.534 181.932C415.534 180.96 415.327 180.106 414.913 179.368C414.508 178.63 413.946 178.055 413.226 177.641C412.506 177.227 411.683 177.016 410.757 177.007C409.947 177.007 409.16 177.173 408.395 177.506C407.639 177.839 407.05 178.293 406.627 178.869L401.432 177.938L402.741 163.364H419.636V168.141H407.558L406.843 175.063H407.005C407.491 174.38 408.224 173.813 409.205 173.363C410.185 172.913 411.283 172.688 412.497 172.688C414.162 172.688 415.646 173.08 416.95 173.862C418.255 174.645 419.285 175.72 420.041 177.088C420.796 178.446 421.17 180.011 421.161 181.784C421.17 183.646 420.738 185.301 419.865 186.75C419.002 188.189 417.792 189.322 416.235 190.15C414.688 190.969 412.889 191.378 410.838 191.378ZM437.592 191.607C435.271 191.598 433.274 191.027 431.6 189.894C429.936 188.76 428.654 187.118 427.755 184.968C426.864 182.818 426.423 180.232 426.432 177.209C426.432 174.195 426.877 171.627 427.768 169.504C428.668 167.381 429.95 165.766 431.614 164.659C433.287 163.544 435.28 162.986 437.592 162.986C439.904 162.986 441.892 163.544 443.556 164.659C445.23 165.775 446.516 167.394 447.416 169.517C448.315 171.631 448.761 174.195 448.752 177.209C448.752 180.241 448.302 182.832 447.402 184.982C446.512 187.132 445.234 188.774 443.57 189.907C441.906 191.041 439.913 191.607 437.592 191.607ZM437.592 186.763C439.175 186.763 440.439 185.967 441.384 184.375C442.328 182.782 442.796 180.394 442.787 177.209C442.787 175.113 442.571 173.368 442.139 171.973C441.717 170.579 441.114 169.531 440.331 168.829C439.558 168.127 438.644 167.777 437.592 167.777C436.018 167.777 434.758 168.564 433.813 170.138C432.869 171.712 432.392 174.069 432.383 177.209C432.383 179.332 432.594 181.104 433.017 182.526C433.449 183.938 434.056 185 434.839 185.71C435.622 186.412 436.539 186.763 437.592 186.763ZM454.789 191L466.246 168.33V168.141H452.9V163.364H472.291V168.208L460.821 191H454.789Z" fill="url(#paint2_linear_458_55)" shape-rendering="crispEdges"/>
</g>
<g filter="url(#filter1_di_458_55)">
<path d="M34.2643 289.884H38.0569L42.0626 299.657H42.2331L46.2388 289.884H50.0314V304.43H47.0484V294.963H46.9277L43.1635 304.359H41.1322L37.368 294.927H37.2473V304.43H34.2643V289.884ZM52.5083 304.43V293.521H55.5339V304.43H52.5083ZM54.0282 292.115C53.5784 292.115 53.1925 291.965 52.8705 291.667C52.5533 291.364 52.3947 291.002 52.3947 290.58C52.3947 290.164 52.5533 289.806 52.8705 289.508C53.1925 289.205 53.5784 289.054 54.0282 289.054C54.478 289.054 54.8615 289.205 55.1787 289.508C55.5007 289.806 55.6617 290.164 55.6617 290.58C55.6617 291.002 55.5007 291.364 55.1787 291.667C54.8615 291.965 54.478 292.115 54.0282 292.115ZM62.8865 304.643C61.7691 304.643 60.8079 304.406 60.003 303.933C59.2028 303.455 58.5872 302.792 58.1564 301.944C57.7302 301.097 57.5172 300.121 57.5172 299.018C57.5172 297.901 57.7326 296.92 58.1635 296.078C58.5991 295.23 59.217 294.57 60.0172 294.096C60.8174 293.618 61.7691 293.379 62.8723 293.379C63.824 293.379 64.6573 293.552 65.3723 293.897C66.0872 294.243 66.6531 294.728 67.0697 295.353C67.4864 295.978 67.716 296.712 67.7586 297.555H64.9035C64.823 297.01 64.61 296.572 64.2643 296.241C63.9234 295.905 63.476 295.737 62.922 295.737C62.4532 295.737 62.0437 295.865 61.6933 296.12C61.3477 296.371 61.0778 296.738 60.8836 297.221C60.6895 297.704 60.5925 298.289 60.5925 298.975C60.5925 299.671 60.6871 300.263 60.8765 300.751C61.0707 301.239 61.3429 301.61 61.6933 301.866C62.0437 302.122 62.4532 302.25 62.922 302.25C63.2676 302.25 63.5778 302.179 63.8524 302.036C64.1318 301.894 64.3614 301.688 64.5413 301.419C64.726 301.144 64.8467 300.815 64.9035 300.431H67.7586C67.7113 301.265 67.484 301.999 67.0768 302.633C66.6744 303.263 66.118 303.755 65.4078 304.11C64.6976 304.465 63.8571 304.643 62.8865 304.643ZM72.7214 298.123V304.43H69.6958V289.884H72.6361V295.446H72.764C73.0102 294.802 73.4079 294.297 73.9572 293.933C74.5064 293.563 75.1953 293.379 76.0239 293.379C76.7815 293.379 77.442 293.545 78.0054 293.876C78.5736 294.203 79.014 294.674 79.3265 295.289C79.6437 295.9 79.8 296.632 79.7952 297.484V304.43H76.7697V298.024C76.7744 297.351 76.6039 296.828 76.2583 296.454C75.9174 296.08 75.4392 295.893 74.8236 295.893C74.4117 295.893 74.0471 295.981 73.7299 296.156C73.4174 296.331 73.1712 296.587 72.9912 296.923C72.8161 297.254 72.7261 297.654 72.7214 298.123ZM85.2871 304.636C84.591 304.636 83.9708 304.515 83.4263 304.274C82.8818 304.027 82.4509 303.665 82.1336 303.187C81.8211 302.704 81.6649 302.103 81.6649 301.383C81.6649 300.777 81.7762 300.268 81.9987 299.856C82.2212 299.444 82.5243 299.113 82.9078 298.862C83.2913 298.611 83.7269 298.421 84.2146 298.294C84.707 298.166 85.2231 298.076 85.7629 298.024C86.3974 297.957 86.9087 297.896 87.297 297.839C87.6853 297.777 87.967 297.688 88.1422 297.569C88.3174 297.451 88.405 297.276 88.405 297.044V297.001C88.405 296.551 88.2629 296.203 87.9788 295.957C87.6995 295.711 87.3017 295.588 86.7856 295.588C86.2411 295.588 85.8079 295.708 85.4859 295.95C85.1639 296.187 84.9509 296.485 84.8467 296.845L82.0484 296.617C82.1905 295.955 82.4698 295.382 82.8865 294.899C83.3032 294.411 83.8406 294.037 84.4987 293.777C85.1616 293.511 85.9286 293.379 86.7998 293.379C87.4059 293.379 87.9859 293.45 88.5399 293.592C89.0986 293.734 89.5934 293.954 90.0243 294.252C90.4599 294.551 90.8032 294.934 91.0541 295.403C91.305 295.867 91.4305 296.423 91.4305 297.072V304.43H88.5612V302.917H88.476C88.3008 303.258 88.0664 303.559 87.7728 303.819C87.4793 304.075 87.1265 304.276 86.7146 304.423C86.3027 304.565 85.8268 304.636 85.2871 304.636ZM86.1535 302.548C86.5986 302.548 86.9916 302.46 87.3325 302.285C87.6734 302.105 87.9409 301.864 88.1351 301.561C88.3292 301.258 88.4263 300.914 88.4263 300.531V299.373C88.3316 299.435 88.2014 299.491 88.0356 299.544C87.8746 299.591 87.6924 299.636 87.4888 299.679C87.2852 299.716 87.0816 299.752 86.878 299.785C86.6744 299.813 86.4897 299.839 86.324 299.863C85.9689 299.915 85.6587 299.998 85.3936 300.112C85.1284 300.225 84.9225 300.379 84.7757 300.573C84.6289 300.763 84.5555 301 84.5555 301.284C84.5555 301.696 84.7047 302.01 85.003 302.228C85.306 302.441 85.6895 302.548 86.1535 302.548ZM98.7494 304.643C97.6273 304.643 96.6613 304.416 95.8517 303.961C95.0468 303.502 94.4265 302.853 93.9909 302.015C93.5553 301.172 93.3375 300.176 93.3375 299.025C93.3375 297.903 93.5553 296.918 93.9909 296.071C94.4265 295.223 95.0397 294.563 95.8304 294.089C96.6258 293.616 97.5586 293.379 98.6287 293.379C99.3484 293.379 100.018 293.495 100.639 293.727C101.264 293.954 101.808 294.297 102.272 294.757C102.741 295.216 103.105 295.794 103.366 296.49C103.626 297.181 103.757 297.991 103.757 298.919V299.75H94.5449V297.875H100.909C100.909 297.439 100.814 297.053 100.624 296.717C100.435 296.381 100.172 296.118 99.8361 295.929C99.5046 295.734 99.1187 295.637 98.6784 295.637C98.2191 295.637 97.8119 295.744 97.4568 295.957C97.1064 296.165 96.8318 296.447 96.6329 296.802C96.4341 297.152 96.3323 297.543 96.3275 297.974V299.757C96.3275 300.296 96.427 300.763 96.6258 301.156C96.8294 301.549 97.1159 301.852 97.4852 302.065C97.8545 302.278 98.2925 302.384 98.7991 302.384C99.1353 302.384 99.4431 302.337 99.7224 302.242C100.002 302.148 100.241 302.006 100.44 301.816C100.639 301.627 100.79 301.395 100.894 301.12L103.693 301.305C103.551 301.977 103.259 302.564 102.819 303.066C102.383 303.563 101.82 303.952 101.129 304.231C100.442 304.506 99.649 304.643 98.7494 304.643ZM108.757 289.884V304.43H105.731V289.884H108.757ZM118.373 304.43H115.078L120.099 289.884H124.062L129.076 304.43H125.781L122.137 293.208H122.024L118.373 304.43ZM118.167 298.713H125.951V301.113H118.167V298.713ZM133.796 298.123V304.43H130.77V293.521H133.654V295.446H133.781C134.023 294.811 134.428 294.309 134.996 293.94C135.564 293.566 136.253 293.379 137.063 293.379C137.82 293.379 138.481 293.545 139.044 293.876C139.608 294.207 140.046 294.681 140.358 295.296C140.671 295.907 140.827 296.636 140.827 297.484V304.43H137.801V298.024C137.806 297.356 137.636 296.835 137.29 296.461C136.944 296.082 136.468 295.893 135.862 295.893C135.455 295.893 135.095 295.981 134.783 296.156C134.475 296.331 134.234 296.587 134.058 296.923C133.888 297.254 133.8 297.654 133.796 298.123ZM147.231 304.607C146.403 304.607 145.652 304.394 144.98 303.968C144.312 303.537 143.782 302.905 143.389 302.072C143.001 301.234 142.807 300.206 142.807 298.99C142.807 297.74 143.008 296.7 143.41 295.872C143.813 295.038 144.348 294.416 145.015 294.004C145.688 293.587 146.424 293.379 147.224 293.379C147.835 293.379 148.344 293.483 148.751 293.691C149.163 293.895 149.495 294.151 149.746 294.458C150.001 294.761 150.195 295.06 150.328 295.353H150.42V289.884H153.439V304.43H150.456V302.683H150.328C150.186 302.986 149.985 303.286 149.724 303.585C149.469 303.878 149.135 304.122 148.723 304.316C148.316 304.51 147.818 304.607 147.231 304.607ZM148.19 302.2C148.678 302.2 149.09 302.067 149.426 301.802C149.767 301.532 150.027 301.156 150.207 300.673C150.392 300.19 150.484 299.624 150.484 298.975C150.484 298.327 150.394 297.763 150.214 297.285C150.034 296.807 149.774 296.438 149.433 296.177C149.092 295.917 148.678 295.786 148.19 295.786C147.693 295.786 147.274 295.921 146.933 296.191C146.592 296.461 146.334 296.835 146.159 297.313C145.984 297.792 145.896 298.346 145.896 298.975C145.896 299.61 145.984 300.171 146.159 300.659C146.339 301.142 146.597 301.52 146.933 301.795C147.274 302.065 147.693 302.2 148.19 302.2ZM155.926 304.43V293.521H158.859V295.424H158.973C159.172 294.747 159.506 294.236 159.975 293.89C160.443 293.54 160.983 293.365 161.594 293.365C161.745 293.365 161.909 293.374 162.084 293.393C162.259 293.412 162.413 293.438 162.546 293.471V296.156C162.404 296.113 162.207 296.075 161.956 296.042C161.705 296.009 161.476 295.992 161.267 295.992C160.822 295.992 160.424 296.089 160.074 296.284C159.728 296.473 159.454 296.738 159.25 297.079C159.051 297.42 158.952 297.813 158.952 298.258V304.43H155.926ZM168.574 304.643C167.451 304.643 166.486 304.416 165.676 303.961C164.871 303.502 164.251 302.853 163.815 302.015C163.38 301.172 163.162 300.176 163.162 299.025C163.162 297.903 163.38 296.918 163.815 296.071C164.251 295.223 164.864 294.563 165.655 294.089C166.45 293.616 167.383 293.379 168.453 293.379C169.173 293.379 169.843 293.495 170.463 293.727C171.088 293.954 171.632 294.297 172.096 294.757C172.565 295.216 172.93 295.794 173.19 296.49C173.451 297.181 173.581 297.991 173.581 298.919V299.75H164.369V297.875H170.733C170.733 297.439 170.638 297.053 170.449 296.717C170.259 296.381 169.996 296.118 169.66 295.929C169.329 295.734 168.943 295.637 168.503 295.637C168.043 295.637 167.636 295.744 167.281 295.957C166.931 296.165 166.656 296.447 166.457 296.802C166.258 297.152 166.156 297.543 166.152 297.974V299.757C166.152 300.296 166.251 300.763 166.45 301.156C166.654 301.549 166.94 301.852 167.309 302.065C167.679 302.278 168.117 302.384 168.623 302.384C168.96 302.384 169.267 302.337 169.547 302.242C169.826 302.148 170.065 302.006 170.264 301.816C170.463 301.627 170.614 301.395 170.719 301.12L173.517 301.305C173.375 301.977 173.084 302.564 172.643 303.066C172.208 303.563 171.644 303.952 170.953 304.231C170.266 304.506 169.473 304.643 168.574 304.643ZM182.551 299.785V293.521H185.576V304.43H182.672V302.448H182.558C182.312 303.088 181.902 303.601 181.329 303.99C180.761 304.378 180.067 304.572 179.248 304.572C178.519 304.572 177.878 304.406 177.324 304.075C176.77 303.743 176.336 303.272 176.024 302.661C175.716 302.051 175.56 301.319 175.555 300.467V293.521H178.581V299.927C178.585 300.571 178.758 301.08 179.099 301.454C179.44 301.828 179.897 302.015 180.47 302.015C180.835 302.015 181.175 301.932 181.493 301.767C181.81 301.596 182.066 301.345 182.26 301.014C182.459 300.682 182.556 300.273 182.551 299.785ZM187.94 304.43V302.626L193.281 296.014V295.936H188.124V293.521H196.924V295.488L191.91 301.937V302.015H197.109V304.43H187.94ZM199.366 304.43V302.626L204.706 296.014V295.936H199.55V293.521H208.35V295.488L203.336 301.937V302.015H208.535V304.43H199.366ZM213.959 304.636C213.263 304.636 212.643 304.515 212.098 304.274C211.554 304.027 211.123 303.665 210.806 303.187C210.493 302.704 210.337 302.103 210.337 301.383C210.337 300.777 210.448 300.268 210.671 299.856C210.893 299.444 211.196 299.113 211.58 298.862C211.963 298.611 212.399 298.421 212.886 298.294C213.379 298.166 213.895 298.076 214.435 298.024C215.069 297.957 215.581 297.896 215.969 297.839C216.357 297.777 216.639 297.688 216.814 297.569C216.989 297.451 217.077 297.276 217.077 297.044V297.001C217.077 296.551 216.935 296.203 216.651 295.957C216.371 295.711 215.974 295.588 215.458 295.588C214.913 295.588 214.48 295.708 214.158 295.95C213.836 296.187 213.623 296.485 213.519 296.845L210.72 296.617C210.862 295.955 211.142 295.382 211.558 294.899C211.975 294.411 212.512 294.037 213.171 293.777C213.833 293.511 214.601 293.379 215.472 293.379C216.078 293.379 216.658 293.45 217.212 293.592C217.77 293.734 218.265 293.954 218.696 294.252C219.132 294.551 219.475 294.934 219.726 295.403C219.977 295.867 220.102 296.423 220.102 297.072V304.43H217.233V302.917H217.148C216.973 303.258 216.738 303.559 216.445 303.819C216.151 304.075 215.798 304.276 215.386 304.423C214.975 304.565 214.499 304.636 213.959 304.636ZM214.825 302.548C215.27 302.548 215.663 302.46 216.004 302.285C216.345 302.105 216.613 301.864 216.807 301.561C217.001 301.258 217.098 300.914 217.098 300.531V299.373C217.003 299.435 216.873 299.491 216.708 299.544C216.547 299.591 216.364 299.636 216.161 299.679C215.957 299.716 215.753 299.752 215.55 299.785C215.346 299.813 215.162 299.839 214.996 299.863C214.641 299.915 214.331 299.998 214.065 300.112C213.8 300.225 213.594 300.379 213.448 300.573C213.301 300.763 213.227 301 213.227 301.284C213.227 301.696 213.377 302.01 213.675 302.228C213.978 302.441 214.361 302.548 214.825 302.548Z" fill="#F3F3F3"/>
</g>
<g filter="url(#filter2_i_458_55)">
<path d="M43.2594 267.068H41.5974C41.5335 266.713 41.4145 266.401 41.2405 266.131C41.0665 265.861 40.8535 265.632 40.6013 265.444C40.3492 265.256 40.0669 265.114 39.7544 265.018C39.4454 264.922 39.117 264.874 38.7689 264.874C38.1404 264.874 37.5775 265.032 37.0804 265.348C36.5868 265.664 36.1961 266.127 35.9085 266.738C35.6244 267.349 35.4824 268.095 35.4824 268.975C35.4824 269.863 35.6244 270.612 35.9085 271.223C36.1961 271.834 36.5885 272.296 37.0857 272.608C37.5829 272.921 38.1422 273.077 38.7636 273.077C39.1081 273.077 39.4348 273.031 39.7437 272.938C40.0562 272.843 40.3385 272.702 40.5907 272.518C40.8428 272.333 41.0559 272.107 41.2299 271.841C41.4074 271.571 41.53 271.262 41.5974 270.914L43.2594 270.92C43.1706 271.456 42.9983 271.949 42.7427 272.4C42.4905 272.848 42.1656 273.235 41.7679 273.562C41.3737 273.885 40.9227 274.135 40.4149 274.313C39.9071 274.49 39.3531 274.579 38.753 274.579C37.8084 274.579 36.9667 274.355 36.2281 273.908C35.4895 273.457 34.9071 272.812 34.4809 271.974C34.0584 271.136 33.8471 270.137 33.8471 268.975C33.8471 267.811 34.0601 266.811 34.4863 265.976C34.9124 265.138 35.4948 264.496 36.2334 264.048C36.9721 263.597 37.8119 263.372 38.753 263.372C39.3318 263.372 39.8716 263.455 40.3723 263.622C40.8765 263.785 41.3293 264.027 41.7306 264.346C42.1319 264.663 42.4639 265.05 42.7267 265.508C42.9895 265.962 43.167 266.482 43.2594 267.068ZM47.4821 274.611C46.9636 274.611 46.4949 274.515 46.0759 274.323C45.6568 274.128 45.3248 273.846 45.0798 273.476C44.8383 273.107 44.7175 272.654 44.7175 272.118C44.7175 271.656 44.8063 271.277 44.9839 270.978C45.1614 270.68 45.4011 270.444 45.703 270.27C46.0048 270.096 46.3422 269.964 46.7151 269.876C47.0879 269.787 47.4679 269.719 47.855 269.673C48.345 269.616 48.7428 269.57 49.0482 269.535C49.3535 269.496 49.5755 269.433 49.714 269.348C49.8525 269.263 49.9217 269.125 49.9217 268.933V268.895C49.9217 268.43 49.7903 268.07 49.5276 267.814C49.2683 267.558 48.8812 267.431 48.3663 267.431C47.8301 267.431 47.4075 267.55 47.0986 267.788C46.7932 268.022 46.5819 268.283 46.4647 268.571L44.9679 268.23C45.1455 267.732 45.4047 267.331 45.7456 267.026C46.0901 266.717 46.486 266.493 46.9334 266.355C47.3809 266.213 47.8514 266.142 48.345 266.142C48.6717 266.142 49.018 266.181 49.3837 266.259C49.7531 266.333 50.0975 266.472 50.4171 266.674C50.7403 266.877 51.0048 267.166 51.2108 267.543C51.4168 267.915 51.5197 268.4 51.5197 268.997V274.43H49.9643V273.311H49.9004C49.7974 273.517 49.643 273.72 49.437 273.919C49.231 274.117 48.9665 274.283 48.6433 274.414C48.3202 274.545 47.9331 274.611 47.4821 274.611ZM47.8283 273.333C48.2687 273.333 48.6451 273.246 48.9576 273.072C49.2736 272.898 49.5134 272.67 49.6767 272.39C49.8436 272.106 49.9271 271.802 49.9271 271.479V270.424C49.8702 270.481 49.7602 270.534 49.5968 270.584C49.437 270.63 49.2541 270.671 49.0482 270.707C48.8422 270.739 48.6415 270.769 48.4462 270.797C48.2509 270.822 48.0876 270.843 47.9562 270.861C47.6472 270.9 47.3649 270.966 47.1092 271.058C46.8571 271.15 46.6547 271.284 46.502 271.458C46.3528 271.628 46.2783 271.855 46.2783 272.139C46.2783 272.534 46.4239 272.832 46.7151 273.034C47.0062 273.233 47.3773 273.333 47.8283 273.333ZM53.6411 274.43V266.248H55.1805V267.548H55.2657C55.4149 267.107 55.6777 266.761 56.0541 266.509C56.4341 266.253 56.8638 266.126 57.3432 266.126C57.4426 266.126 57.5598 266.129 57.6947 266.136C57.8332 266.143 57.9415 266.152 58.0197 266.163V267.686C57.9557 267.669 57.8421 267.649 57.6787 267.628C57.5154 267.603 57.352 267.59 57.1887 267.59C56.8123 267.59 56.4767 267.67 56.1819 267.83C55.8907 267.986 55.6599 268.205 55.4895 268.485C55.319 268.762 55.2338 269.078 55.2338 269.433V274.43H53.6411ZM62.1678 274.59C61.5073 274.59 60.9178 274.421 60.3994 274.084C59.8844 273.743 59.4796 273.258 59.1849 272.63C58.8937 271.997 58.7481 271.239 58.7481 270.355C58.7481 269.471 58.8955 268.714 59.1902 268.086C59.4885 267.457 59.8969 266.976 60.4153 266.642C60.9338 266.308 61.5215 266.142 62.1785 266.142C62.6863 266.142 63.0947 266.227 63.4036 266.397C63.7161 266.564 63.9576 266.759 64.1281 266.983C64.3021 267.207 64.437 267.404 64.5329 267.574H64.6288V263.521H66.2214V274.43H64.666V273.157H64.5329C64.437 273.331 64.2985 273.53 64.1174 273.753C63.9398 273.977 63.6948 274.172 63.3823 274.339C63.0698 274.506 62.665 274.59 62.1678 274.59ZM62.5194 273.231C62.9775 273.231 63.3646 273.111 63.6806 272.869C64.0002 272.624 64.2417 272.285 64.405 271.852C64.5719 271.419 64.6554 270.914 64.6554 270.339C64.6554 269.771 64.5737 269.274 64.4104 268.848C64.247 268.421 64.0073 268.089 63.6913 267.851C63.3752 267.614 62.9846 267.495 62.5194 267.495C62.04 267.495 61.6405 267.619 61.3209 267.867C61.0013 268.116 60.7598 268.455 60.5964 268.885C60.4366 269.315 60.3567 269.799 60.3567 270.339C60.3567 270.886 60.4384 271.378 60.6018 271.815C60.7651 272.251 61.0066 272.598 61.3262 272.853C61.6494 273.105 62.0471 273.231 62.5194 273.231ZM74.057 269.572V274.43H72.4643V263.521H74.0357V267.58H74.1369C74.3287 267.139 74.6217 266.79 75.0158 266.53C75.41 266.271 75.9249 266.142 76.5606 266.142C77.1217 266.142 77.6117 266.257 78.0308 266.488C78.4533 266.719 78.78 267.063 79.0109 267.521C79.2452 267.976 79.3624 268.544 79.3624 269.226V274.43H77.7697V269.418C77.7697 268.817 77.6153 268.352 77.3063 268.022C76.9974 267.688 76.5677 267.521 76.0173 267.521C75.6408 267.521 75.3035 267.601 75.0052 267.761C74.7104 267.921 74.4778 268.155 74.3074 268.464C74.1405 268.769 74.057 269.139 74.057 269.572ZM84.9342 274.595C84.1671 274.595 83.4977 274.419 82.926 274.068C82.3543 273.716 81.9104 273.224 81.5943 272.592C81.2783 271.96 81.1202 271.221 81.1202 270.376C81.1202 269.528 81.2783 268.785 81.5943 268.15C81.9104 267.514 82.3543 267.02 82.926 266.669C83.4977 266.317 84.1671 266.142 84.9342 266.142C85.7012 266.142 86.3706 266.317 86.9423 266.669C87.5141 267.02 87.958 267.514 88.274 268.15C88.5901 268.785 88.7481 269.528 88.7481 270.376C88.7481 271.221 88.5901 271.96 88.274 272.592C87.958 273.224 87.5141 273.716 86.9423 274.068C86.3706 274.419 85.7012 274.595 84.9342 274.595ZM84.9395 273.258C85.4366 273.258 85.8486 273.127 86.1753 272.864C86.502 272.601 86.7435 272.251 86.8997 271.815C87.0595 271.378 87.1394 270.897 87.1394 270.371C87.1394 269.849 87.0595 269.37 86.8997 268.933C86.7435 268.492 86.502 268.139 86.1753 267.873C85.8486 267.606 85.4366 267.473 84.9395 267.473C84.4388 267.473 84.0233 267.606 83.693 267.873C83.3663 268.139 83.1231 268.492 82.9633 268.933C82.807 269.37 82.7289 269.849 82.7289 270.371C82.7289 270.897 82.807 271.378 82.9633 271.815C83.1231 272.251 83.3663 272.601 83.693 272.864C84.0233 273.127 84.4388 273.258 84.9395 273.258ZM92.1186 263.521V274.43H90.5259V263.521H92.1186ZM97.3241 274.59C96.6636 274.59 96.0741 274.421 95.5556 274.084C95.0407 273.743 94.6359 273.258 94.3411 272.63C94.0499 271.997 93.9043 271.239 93.9043 270.355C93.9043 269.471 94.0517 268.714 94.3464 268.086C94.6447 267.457 95.0531 266.976 95.5716 266.642C96.0901 266.308 96.6778 266.142 97.3347 266.142C97.8425 266.142 98.2509 266.227 98.5599 266.397C98.8724 266.564 99.1138 266.759 99.2843 266.983C99.4583 267.207 99.5933 267.404 99.6891 267.574H99.785V263.521H101.378V274.43H99.8223V273.157H99.6891C99.5933 273.331 99.4548 273.53 99.2736 273.753C99.0961 273.977 98.8511 274.172 98.5386 274.339C98.2261 274.506 97.8212 274.59 97.3241 274.59ZM97.6756 273.231C98.1337 273.231 98.5208 273.111 98.8369 272.869C99.1565 272.624 99.3979 272.285 99.5613 271.852C99.7282 271.419 99.8116 270.914 99.8116 270.339C99.8116 269.771 99.73 269.274 99.5666 268.848C99.4033 268.421 99.1636 268.089 98.8475 267.851C98.5315 267.614 98.1408 267.495 97.6756 267.495C97.1962 267.495 96.7967 267.619 96.4771 267.867C96.1575 268.116 95.916 268.455 95.7527 268.885C95.5929 269.315 95.513 269.799 95.513 270.339C95.513 270.886 95.5947 271.378 95.758 271.815C95.9214 272.251 96.1629 272.598 96.4825 272.853C96.8056 273.105 97.2033 273.231 97.6756 273.231ZM107.177 274.595C106.371 274.595 105.677 274.423 105.094 274.078C104.516 273.73 104.068 273.242 103.752 272.614C103.44 271.981 103.283 271.241 103.283 270.392C103.283 269.554 103.44 268.816 103.752 268.176C104.068 267.537 104.508 267.038 105.073 266.68C105.641 266.321 106.305 266.142 107.065 266.142C107.527 266.142 107.974 266.218 108.408 266.371C108.841 266.523 109.23 266.763 109.574 267.09C109.919 267.416 110.19 267.841 110.389 268.363C110.588 268.881 110.687 269.512 110.687 270.254V270.818H104.184V269.625H109.127C109.127 269.206 109.041 268.835 108.871 268.512C108.701 268.185 108.461 267.928 108.152 267.74C107.847 267.551 107.488 267.457 107.076 267.457C106.628 267.457 106.238 267.567 105.904 267.788C105.574 268.004 105.318 268.288 105.137 268.64C104.959 268.988 104.871 269.366 104.871 269.774V270.707C104.871 271.253 104.967 271.719 105.158 272.102C105.354 272.486 105.625 272.779 105.973 272.981C106.321 273.18 106.728 273.279 107.193 273.279C107.495 273.279 107.77 273.237 108.019 273.152C108.267 273.063 108.482 272.931 108.663 272.757C108.844 272.583 108.983 272.368 109.079 272.113L110.586 272.384C110.465 272.828 110.249 273.217 109.936 273.551C109.627 273.881 109.239 274.139 108.77 274.323C108.305 274.505 107.774 274.595 107.177 274.595ZM112.455 274.43V266.248H113.994V267.548H114.079C114.228 267.107 114.491 266.761 114.868 266.509C115.248 266.253 115.677 266.126 116.157 266.126C116.256 266.126 116.373 266.129 116.508 266.136C116.647 266.143 116.755 266.152 116.833 266.163V267.686C116.769 267.669 116.656 267.649 116.492 267.628C116.329 267.603 116.166 267.59 116.002 267.59C115.626 267.59 115.29 267.67 114.995 267.83C114.704 267.986 114.473 268.205 114.303 268.485C114.132 268.762 114.047 269.078 114.047 269.433V274.43H112.455ZM123.774 269.572V274.43H122.181V266.248H123.71V267.58H123.811C123.999 267.147 124.294 266.799 124.695 266.536C125.1 266.273 125.61 266.142 126.224 266.142C126.782 266.142 127.27 266.259 127.689 266.493C128.108 266.724 128.433 267.068 128.664 267.527C128.895 267.985 129.01 268.551 129.01 269.226V274.43H127.417V269.418C127.417 268.824 127.263 268.361 126.954 268.027C126.645 267.69 126.221 267.521 125.681 267.521C125.311 267.521 124.983 267.601 124.695 267.761C124.411 267.921 124.186 268.155 124.019 268.464C123.856 268.769 123.774 269.139 123.774 269.572ZM133.527 274.611C133.009 274.611 132.54 274.515 132.121 274.323C131.702 274.128 131.37 273.846 131.125 273.476C130.883 273.107 130.762 272.654 130.762 272.118C130.762 271.656 130.851 271.277 131.029 270.978C131.206 270.68 131.446 270.444 131.748 270.27C132.05 270.096 132.387 269.964 132.76 269.876C133.133 269.787 133.513 269.719 133.9 269.673C134.39 269.616 134.788 269.57 135.093 269.535C135.398 269.496 135.62 269.433 135.759 269.348C135.897 269.263 135.967 269.125 135.967 268.933V268.895C135.967 268.43 135.835 268.07 135.572 267.814C135.313 267.558 134.926 267.431 134.411 267.431C133.875 267.431 133.452 267.55 133.143 267.788C132.838 268.022 132.627 268.283 132.51 268.571L131.013 268.23C131.19 267.732 131.45 267.331 131.791 267.026C132.135 266.717 132.531 266.493 132.978 266.355C133.426 266.213 133.896 266.142 134.39 266.142C134.717 266.142 135.063 266.181 135.429 266.259C135.798 266.333 136.142 266.472 136.462 266.674C136.785 266.877 137.05 267.166 137.256 267.543C137.462 267.915 137.565 268.4 137.565 268.997V274.43H136.009V273.311H135.945C135.842 273.517 135.688 273.72 135.482 273.919C135.276 274.117 135.011 274.283 134.688 274.414C134.365 274.545 133.978 274.611 133.527 274.611ZM133.873 273.333C134.314 273.333 134.69 273.246 135.003 273.072C135.319 272.898 135.558 272.67 135.722 272.39C135.889 272.106 135.972 271.802 135.972 271.479V270.424C135.915 270.481 135.805 270.534 135.642 270.584C135.482 270.63 135.299 270.671 135.093 270.707C134.887 270.739 134.686 270.769 134.491 270.797C134.296 270.822 134.132 270.843 134.001 270.861C133.692 270.9 133.41 270.966 133.154 271.058C132.902 271.15 132.7 271.284 132.547 271.458C132.398 271.628 132.323 271.855 132.323 272.139C132.323 272.534 132.469 272.832 132.76 273.034C133.051 273.233 133.422 273.333 133.873 273.333ZM139.686 274.43V266.248H141.215V267.58H141.316C141.486 267.129 141.765 266.777 142.152 266.525C142.539 266.269 143.003 266.142 143.543 266.142C144.089 266.142 144.548 266.269 144.917 266.525C145.29 266.781 145.565 267.132 145.742 267.58H145.828C146.023 267.143 146.334 266.795 146.76 266.536C147.186 266.273 147.694 266.142 148.283 266.142C149.026 266.142 149.631 266.374 150.1 266.839C150.572 267.305 150.808 268.006 150.808 268.943V274.43H149.215V269.093C149.215 268.539 149.065 268.137 148.763 267.889C148.461 267.64 148.1 267.516 147.681 267.516C147.163 267.516 146.76 267.676 146.472 267.995C146.185 268.311 146.041 268.718 146.041 269.215V274.43H144.453V268.991C144.453 268.547 144.315 268.191 144.038 267.921C143.761 267.651 143.401 267.516 142.957 267.516C142.655 267.516 142.376 267.596 142.12 267.756C141.868 267.912 141.664 268.13 141.508 268.411C141.355 268.691 141.279 269.016 141.279 269.386V274.43H139.686ZM156.469 274.595C155.663 274.595 154.969 274.423 154.386 274.078C153.808 273.73 153.36 273.242 153.044 272.614C152.732 271.981 152.575 271.241 152.575 270.392C152.575 269.554 152.732 268.816 153.044 268.176C153.36 267.537 153.8 267.038 154.365 266.68C154.933 266.321 155.597 266.142 156.357 266.142C156.819 266.142 157.266 266.218 157.7 266.371C158.133 266.523 158.522 266.763 158.866 267.09C159.211 267.416 159.482 267.841 159.681 268.363C159.88 268.881 159.979 269.512 159.979 270.254V270.818H153.476V269.625H158.419C158.419 269.206 158.333 268.835 158.163 268.512C157.993 268.185 157.753 267.928 157.444 267.74C157.139 267.551 156.78 267.457 156.368 267.457C155.92 267.457 155.53 267.567 155.196 267.788C154.866 268.004 154.61 268.288 154.429 268.64C154.251 268.988 154.163 269.366 154.163 269.774V270.707C154.163 271.253 154.259 271.719 154.45 272.102C154.646 272.486 154.917 272.779 155.265 272.981C155.613 273.18 156.02 273.279 156.485 273.279C156.787 273.279 157.062 273.237 157.311 273.152C157.559 273.063 157.774 272.931 157.955 272.757C158.136 272.583 158.275 272.368 158.371 272.113L159.878 272.384C159.757 272.828 159.541 273.217 159.228 273.551C158.919 273.881 158.531 274.139 158.062 274.323C157.597 274.505 157.066 274.595 156.469 274.595Z" fill="#F3F3F3" fill-opacity="0.8"/>
</g>
<g filter="url(#filter3_i_458_55)">
<path d="M258.352 274.43V263.52H265.191V264.937H259.998V268.261H264.834V269.673H259.998V273.013H265.255V274.43H258.352ZM268.519 266.248L270.325 269.433L272.147 266.248H273.888L271.337 270.339L273.91 274.43H272.168L270.325 271.372L268.487 274.43H266.74L269.286 270.339L266.772 266.248H268.519ZM275.524 277.498V266.248H277.079V267.574H277.212C277.305 267.404 277.438 267.207 277.612 266.983C277.786 266.759 278.027 266.564 278.336 266.397C278.645 266.226 279.054 266.141 279.561 266.141C280.222 266.141 280.811 266.308 281.33 266.642C281.848 266.976 282.255 267.457 282.55 268.085C282.848 268.714 282.997 269.47 282.997 270.355C282.997 271.239 282.85 271.997 282.555 272.629C282.26 273.258 281.855 273.742 281.341 274.083C280.826 274.421 280.238 274.589 279.577 274.589C279.08 274.589 278.674 274.506 278.358 274.339C278.045 274.172 277.8 273.977 277.623 273.753C277.445 273.529 277.308 273.33 277.212 273.156H277.116V277.498H275.524ZM277.085 270.339C277.085 270.914 277.168 271.418 277.335 271.851C277.502 272.285 277.743 272.624 278.059 272.869C278.375 273.11 278.762 273.231 279.221 273.231C279.696 273.231 280.094 273.105 280.414 272.853C280.733 272.597 280.975 272.251 281.138 271.814C281.305 271.377 281.388 270.886 281.388 270.339C281.388 269.799 281.307 269.314 281.143 268.884C280.984 268.455 280.742 268.116 280.419 267.867C280.099 267.618 279.7 267.494 279.221 267.494C278.759 267.494 278.368 267.613 278.049 267.851C277.733 268.089 277.493 268.421 277.33 268.847C277.166 269.273 277.085 269.77 277.085 270.339ZM284.782 274.43V266.248H286.374V274.43H284.782ZM285.586 264.985C285.309 264.985 285.071 264.893 284.872 264.708C284.677 264.52 284.579 264.296 284.579 264.037C284.579 263.774 284.677 263.551 284.872 263.366C285.071 263.178 285.309 263.084 285.586 263.084C285.863 263.084 286.099 263.178 286.294 263.366C286.493 263.551 286.593 263.774 286.593 264.037C286.593 264.296 286.493 264.52 286.294 264.708C286.099 264.893 285.863 264.985 285.586 264.985ZM288.517 274.43V266.248H290.056V267.547H290.142C290.291 267.107 290.554 266.761 290.93 266.509C291.31 266.253 291.74 266.125 292.219 266.125C292.318 266.125 292.436 266.129 292.571 266.136C292.709 266.143 292.817 266.152 292.896 266.163V267.686C292.832 267.668 292.718 267.649 292.555 267.627C292.391 267.603 292.228 267.59 292.065 267.59C291.688 267.59 291.353 267.67 291.058 267.83C290.767 267.986 290.536 268.204 290.365 268.485C290.195 268.762 290.11 269.078 290.11 269.433V274.43H288.517ZM295.53 277.498C295.292 277.498 295.075 277.478 294.88 277.439C294.684 277.404 294.539 277.365 294.443 277.322L294.826 276.017C295.118 276.095 295.377 276.129 295.604 276.118C295.831 276.107 296.032 276.022 296.206 275.862C296.384 275.703 296.54 275.442 296.675 275.079L296.872 274.536L293.878 266.248H295.583L297.655 272.597H297.74L299.812 266.248H301.522L298.15 275.522C297.994 275.948 297.795 276.308 297.554 276.603C297.312 276.901 297.025 277.125 296.691 277.274C296.357 277.423 295.97 277.498 295.53 277.498ZM310.051 274.589C309.391 274.589 308.801 274.421 308.283 274.083C307.768 273.742 307.363 273.258 307.069 272.629C306.777 271.997 306.632 271.239 306.632 270.355C306.632 269.47 306.779 268.714 307.074 268.085C307.372 267.457 307.781 266.976 308.299 266.642C308.817 266.308 309.405 266.141 310.062 266.141C310.57 266.141 310.978 266.226 311.287 266.397C311.6 266.564 311.841 266.759 312.012 266.983C312.186 267.207 312.321 267.404 312.417 267.574H312.512V263.52H314.105V274.43H312.55V273.156H312.417C312.321 273.33 312.182 273.529 312.001 273.753C311.824 273.977 311.578 274.172 311.266 274.339C310.953 274.506 310.549 274.589 310.051 274.589ZM310.403 273.231C310.861 273.231 311.248 273.11 311.564 272.869C311.884 272.624 312.125 272.285 312.289 271.851C312.456 271.418 312.539 270.914 312.539 270.339C312.539 269.77 312.457 269.273 312.294 268.847C312.131 268.421 311.891 268.089 311.575 267.851C311.259 267.613 310.868 267.494 310.403 267.494C309.924 267.494 309.524 267.618 309.205 267.867C308.885 268.116 308.643 268.455 308.48 268.884C308.32 269.314 308.24 269.799 308.24 270.339C308.24 270.886 308.322 271.377 308.485 271.814C308.649 272.251 308.89 272.597 309.21 272.853C309.533 273.105 309.931 273.231 310.403 273.231ZM318.759 274.611C318.241 274.611 317.772 274.515 317.353 274.323C316.934 274.128 316.602 273.845 316.357 273.476C316.116 273.107 315.995 272.654 315.995 272.118C315.995 271.656 316.084 271.276 316.261 270.978C316.439 270.68 316.678 270.443 316.98 270.269C317.282 270.095 317.619 269.964 317.992 269.875C318.365 269.786 318.745 269.719 319.132 269.673C319.622 269.616 320.02 269.57 320.325 269.534C320.631 269.495 320.853 269.433 320.991 269.348C321.13 269.263 321.199 269.124 321.199 268.932V268.895C321.199 268.43 321.068 268.069 320.805 267.814C320.546 267.558 320.158 267.43 319.644 267.43C319.107 267.43 318.685 267.549 318.376 267.787C318.07 268.022 317.859 268.283 317.742 268.57L316.245 268.229C316.423 267.732 316.682 267.331 317.023 267.025C317.367 266.716 317.763 266.493 318.211 266.354C318.658 266.212 319.129 266.141 319.622 266.141C319.949 266.141 320.295 266.18 320.661 266.258C321.03 266.333 321.375 266.471 321.694 266.674C322.017 266.876 322.282 267.166 322.488 267.542C322.694 267.915 322.797 268.4 322.797 268.996V274.43H321.242V273.311H321.178C321.075 273.517 320.92 273.719 320.714 273.918C320.508 274.117 320.244 274.282 319.921 274.414C319.597 274.545 319.21 274.611 318.759 274.611ZM319.106 273.332C319.546 273.332 319.922 273.245 320.235 273.071C320.551 272.897 320.791 272.67 320.954 272.389C321.121 272.105 321.204 271.802 321.204 271.479V270.424C321.147 270.481 321.037 270.534 320.874 270.584C320.714 270.63 320.531 270.671 320.325 270.706C320.119 270.738 319.919 270.768 319.723 270.797C319.528 270.822 319.365 270.843 319.233 270.861C318.924 270.9 318.642 270.965 318.386 271.058C318.134 271.15 317.932 271.283 317.779 271.457C317.63 271.628 317.555 271.855 317.555 272.139C317.555 272.533 317.701 272.832 317.992 273.034C318.283 273.233 318.655 273.332 319.106 273.332ZM328.738 266.248V267.526H324.268V266.248H328.738ZM325.467 264.288H327.06V272.027C327.06 272.336 327.106 272.569 327.198 272.725C327.29 272.878 327.409 272.982 327.555 273.039C327.704 273.093 327.866 273.119 328.04 273.119C328.168 273.119 328.279 273.11 328.375 273.093C328.471 273.075 328.546 273.061 328.599 273.05L328.887 274.366C328.794 274.401 328.663 274.437 328.493 274.472C328.322 274.511 328.109 274.533 327.853 274.536C327.434 274.543 327.044 274.469 326.681 274.312C326.319 274.156 326.026 273.915 325.803 273.588C325.579 273.261 325.467 272.851 325.467 272.357V264.288ZM333.938 274.595C333.132 274.595 332.437 274.422 331.855 274.078C331.276 273.73 330.829 273.242 330.513 272.613C330.2 271.981 330.044 271.241 330.044 270.392C330.044 269.554 330.2 268.815 330.513 268.176C330.829 267.537 331.269 267.038 331.834 266.679C332.402 266.321 333.066 266.141 333.826 266.141C334.288 266.141 334.735 266.218 335.168 266.37C335.601 266.523 335.99 266.763 336.335 267.089C336.679 267.416 336.951 267.84 337.15 268.362C337.349 268.881 337.448 269.511 337.448 270.253V270.818H330.944V269.625H335.887C335.887 269.206 335.802 268.835 335.632 268.512C335.461 268.185 335.222 267.927 334.913 267.739C334.607 267.551 334.248 267.457 333.837 267.457C333.389 267.457 332.998 267.567 332.665 267.787C332.334 268.004 332.079 268.288 331.898 268.639C331.72 268.987 331.631 269.366 331.631 269.774V270.706C331.631 271.253 331.727 271.718 331.919 272.102C332.114 272.485 332.386 272.778 332.734 272.981C333.082 273.18 333.489 273.279 333.954 273.279C334.256 273.279 334.531 273.236 334.779 273.151C335.028 273.062 335.243 272.931 335.424 272.757C335.605 272.583 335.744 272.368 335.839 272.112L337.347 272.384C337.226 272.828 337.009 273.217 336.697 273.551C336.388 273.881 335.999 274.138 335.53 274.323C335.065 274.504 334.534 274.595 333.938 274.595Z" fill="#F3F3F3" fill-opacity="0.8"/>
</g>
<g filter="url(#filter4_di_458_55)">
<path d="M264.035 306.749C262.814 306.745 261.763 306.444 260.882 305.847C260.006 305.251 259.331 304.387 258.858 303.255C258.389 302.123 258.157 300.762 258.162 299.171C258.162 297.585 258.396 296.233 258.865 295.116C259.338 293.998 260.013 293.148 260.889 292.566C261.77 291.979 262.819 291.685 264.035 291.685C265.252 291.685 266.299 291.979 267.175 292.566C268.055 293.153 268.732 294.005 269.206 295.123C269.679 296.236 269.914 297.585 269.909 299.171C269.909 300.767 269.672 302.13 269.199 303.262C268.73 304.394 268.058 305.258 267.182 305.854C266.306 306.451 265.257 306.749 264.035 306.749ZM264.035 304.2C264.869 304.2 265.534 303.781 266.031 302.942C266.528 302.104 266.775 300.847 266.77 299.171C266.77 298.068 266.656 297.149 266.429 296.415C266.206 295.682 265.889 295.13 265.477 294.761C265.07 294.391 264.589 294.207 264.035 294.207C263.207 294.207 262.544 294.621 262.047 295.45C261.55 296.278 261.299 297.519 261.294 299.171C261.294 300.289 261.405 301.221 261.628 301.969C261.855 302.713 262.175 303.272 262.587 303.646C262.998 304.015 263.481 304.2 264.035 304.2ZM272.102 306.43V304.214L277.279 299.42C277.72 298.994 278.089 298.61 278.387 298.269C278.69 297.928 278.92 297.594 279.076 297.268C279.233 296.936 279.311 296.579 279.311 296.195C279.311 295.769 279.214 295.402 279.019 295.094C278.825 294.782 278.56 294.543 278.224 294.377C277.888 294.207 277.507 294.121 277.081 294.121C276.635 294.121 276.247 294.211 275.916 294.391C275.584 294.571 275.329 294.829 275.149 295.165C274.969 295.502 274.879 295.902 274.879 296.366H271.96C271.96 295.414 272.175 294.588 272.606 293.887C273.037 293.186 273.641 292.644 274.417 292.261C275.194 291.877 276.089 291.685 277.102 291.685C278.143 291.685 279.05 291.87 279.822 292.239C280.599 292.604 281.202 293.111 281.633 293.759C282.064 294.408 282.279 295.151 282.279 295.989C282.279 296.539 282.17 297.081 281.953 297.616C281.74 298.151 281.358 298.745 280.809 299.398C280.26 300.047 279.486 300.826 278.487 301.735L276.363 303.816V303.915H282.471V306.43H272.102ZM291.063 291.202L286.376 308.617H283.769L288.457 291.202H291.063ZM297.869 306.629C296.808 306.629 295.864 306.446 295.035 306.082C294.211 305.712 293.56 305.206 293.082 304.562C292.608 303.913 292.365 303.165 292.35 302.317H295.447C295.466 302.673 295.582 302.985 295.795 303.255C296.013 303.52 296.302 303.726 296.661 303.873C297.021 304.02 297.426 304.093 297.876 304.093C298.345 304.093 298.759 304.01 299.119 303.844C299.479 303.679 299.76 303.449 299.964 303.156C300.168 302.862 300.269 302.523 300.269 302.14C300.269 301.752 300.161 301.408 299.943 301.11C299.73 300.807 299.422 300.57 299.019 300.4C298.622 300.229 298.148 300.144 297.599 300.144H296.242V297.886H297.599C298.063 297.886 298.473 297.805 298.828 297.644C299.188 297.483 299.467 297.261 299.666 296.977C299.865 296.688 299.964 296.352 299.964 295.968C299.964 295.603 299.876 295.284 299.701 295.009C299.531 294.73 299.289 294.512 298.977 294.356C298.669 294.2 298.309 294.121 297.897 294.121C297.481 294.121 297.099 294.197 296.754 294.349C296.408 294.496 296.131 294.706 295.923 294.981C295.715 295.255 295.603 295.577 295.589 295.947H292.642C292.656 295.109 292.895 294.37 293.359 293.731C293.823 293.092 294.448 292.592 295.234 292.232C296.025 291.868 296.917 291.685 297.911 291.685C298.915 291.685 299.794 291.868 300.546 292.232C301.299 292.597 301.884 293.089 302.301 293.71C302.722 294.325 302.93 295.016 302.926 295.783C302.93 296.598 302.677 297.277 302.166 297.822C301.659 298.366 300.999 298.712 300.184 298.859V298.972C301.254 299.11 302.069 299.481 302.627 300.087C303.191 300.689 303.47 301.442 303.465 302.346C303.47 303.174 303.231 303.911 302.748 304.555C302.27 305.199 301.609 305.705 300.767 306.075C299.924 306.444 298.958 306.629 297.869 306.629ZM311.379 306.749C310.158 306.745 309.106 306.444 308.226 305.847C307.35 305.251 306.675 304.387 306.202 303.255C305.733 302.123 305.501 300.762 305.506 299.171C305.506 297.585 305.74 296.233 306.209 295.116C306.682 293.998 307.357 293.148 308.233 292.566C309.114 291.979 310.162 291.685 311.379 291.685C312.596 291.685 313.642 291.979 314.518 292.566C315.399 293.153 316.076 294.005 316.55 295.123C317.023 296.236 317.257 297.585 317.253 299.171C317.253 300.767 317.016 302.13 316.543 303.262C316.074 304.394 315.401 305.258 314.525 305.854C313.65 306.451 312.601 306.749 311.379 306.749ZM311.379 304.2C312.213 304.2 312.878 303.781 313.375 302.942C313.872 302.104 314.118 300.847 314.114 299.171C314.114 298.068 314 297.149 313.773 296.415C313.55 295.682 313.233 295.13 312.821 294.761C312.414 294.391 311.933 294.207 311.379 294.207C310.551 294.207 309.888 294.621 309.391 295.45C308.893 296.278 308.642 297.519 308.638 299.171C308.638 300.289 308.749 301.221 308.972 301.969C309.199 302.713 309.518 303.272 309.93 303.646C310.342 304.015 310.825 304.2 311.379 304.2Z" fill="#F3F3F3"/>
</g>
<path fill-rule="evenodd" clip-rule="evenodd" d="M35.1576 54.865L35.1516 54.8729L35.1459 54.881C34.8266 55.3331 34.1114 55.466 33.552 55.0709C33.1043 54.7547 32.9697 54.05 33.351 53.4931C33.9198 52.768 34.333 51.9202 34.6044 51.0914C34.8869 50.2286 35.0183 49.2482 35.0131 48.2866C35.008 47.325 34.8662 46.3461 34.5745 45.4863C34.2943 44.6605 33.8722 43.8172 33.2956 43.0981C32.9084 42.5453 33.0355 41.8392 33.4799 41.5183C34.035 41.1173 34.7516 41.2425 35.0757 41.6912L35.0815 41.6992L35.0875 41.7071C35.8051 42.6534 36.3937 43.7048 36.7455 44.7363C37.1157 45.9498 37.3516 47.1236 37.3577 48.2741C37.3642 49.4849 37.2485 50.6308 36.8042 51.759C36.3203 52.9876 35.8517 53.9291 35.1576 54.865ZM40.3463 57.1122L40.3603 57.0923L40.3732 57.0717C41.9637 54.5234 42.8811 51.4483 42.8641 48.2448C42.847 45.0421 41.8974 41.9777 40.2805 39.4468C39.9301 38.8912 40.0875 38.2342 40.6781 37.8076C41.0748 37.5211 41.8194 37.6225 42.2612 38.2146C44.0867 41.111 45.1894 44.6121 45.2087 48.2323C45.2286 51.9761 44.1641 55.3637 42.3679 58.2811C41.9524 58.853 41.3163 59.0133 40.7677 58.6891C40.1731 58.2534 40.0644 57.5113 40.3463 57.1122ZM49.6573 34.4077L49.673 34.4386L49.6911 34.4682C52.1647 38.501 53.5393 43.1528 53.5661 48.1878C53.5929 53.2206 52.2692 57.8847 49.8408 61.9423C49.4685 62.541 48.84 62.7097 48.2027 62.4132C47.6228 62.0352 47.467 61.4089 47.7699 60.7762C49.8351 57.1085 51.1193 52.7865 51.0949 48.201C51.0706 43.6359 49.8769 39.3208 47.6318 35.6528C47.328 35.0265 47.4784 34.4027 48.0515 34.0205C48.7429 33.6902 49.4164 33.9323 49.6573 34.4077ZM56.9815 30.5697L56.9922 30.5909L57.004 30.6114C60.0016 35.7928 61.7627 41.7167 61.7969 48.144C61.8311 54.5647 60.1367 60.5014 57.2001 65.7106C56.8271 66.3023 56.2015 66.468 55.5673 66.1729C54.9892 65.7961 54.8326 65.1725 55.1317 64.542C57.9607 59.7137 59.4841 54.1199 59.4523 48.1565C59.4205 42.1777 57.7035 36.6056 54.9609 31.8249C54.6172 31.1271 54.8594 30.4436 55.3391 30.2005C56.0431 29.8438 56.7363 30.0859 56.9815 30.5697Z" fill="white"/>
<path d="M467.986 58.2123L471.826 35.6852H477.966L474.125 58.2123H467.986ZM496.28 36.1794C494.518 35.5412 492.656 35.2209 490.782 35.2335C484.723 35.2335 480.454 38.2851 480.417 42.6595C480.384 45.8926 483.465 47.6958 485.792 48.7716C488.179 49.875 488.981 50.5784 488.97 51.5634C488.955 53.0713 487.063 53.7598 485.301 53.7598C482.846 53.7598 481.543 53.415 479.528 52.5794L478.738 52.222L477.877 57.2584C479.309 57.8859 481.959 58.4307 484.708 58.4583C491.155 58.4583 495.339 55.4424 495.388 50.7715C495.411 48.2119 493.779 46.2638 490.239 44.6581C488.095 43.6237 486.783 42.9226 486.796 41.8687C486.796 40.9343 487.908 39.9344 490.309 39.9344C491.882 39.8992 493.445 40.1928 494.898 40.7964L495.447 41.0561L496.28 36.1794V36.1794ZM512.053 35.6852H507.329C505.866 35.6852 504.771 36.0852 504.128 37.5449L495.049 58.0974H501.511C501.511 58.0974 502.546 55.3643 502.784 54.7643L510.527 54.7735C510.707 55.5505 511.262 58.0974 511.262 58.0974H517L512.053 35.6852ZM504.542 50.1669C505.049 48.8705 506.986 43.8777 506.986 43.8777C506.949 43.9375 507.489 42.5744 507.798 41.7296L508.213 43.6697C508.213 43.6697 509.388 49.0406 509.633 50.1669H504.542ZM462.776 35.6852L456.786 50.9933L456.148 47.8821C455.033 44.2961 451.559 40.4113 447.674 38.4667L453.152 58.0974L459.625 58.0905L469.257 35.6852H462.746" fill="url(#paint3_linear_458_55)"/>
<path d="M450.926 35.6853H441.079L441 36.153C448.694 38.0161 453.784 42.517 455.898 47.9235L453.747 37.5794C453.376 36.1553 452.3 35.7301 450.968 35.6807" fill="url(#paint4_linear_458_55)"/>
<g opacity="0.7">
<rect x="459.7" y="276.95" width="56.6" height="42.7905" rx="6.55" fill="white" fill-opacity="0.26" stroke="white" stroke-width="1.4"/>
<path d="M459.906 289.844H475.312C477.314 289.844 478.937 291.466 478.937 293.469V300.492M478.937 319.569V311.14M478.937 311.14V300.492M478.937 311.14H459.906M478.937 300.492H459.906" stroke="white" stroke-width="1.4"/>
<path d="M516.094 289.844H497.969M497.969 289.844V300.492M497.969 289.844V277.156M497.969 319.569V311.141M497.969 311.141V300.492M497.969 311.141H516.094M497.969 300.492H516.094" stroke="white" stroke-width="1.4"/>
</g>
</g>
</g>
<defs>
<filter id="filter0_d_458_55" x="30.9703" y="159.986" width="445.321" height="36.6215" filterUnits="userSpaceOnUse" color-interpolation-filters="sRGB">
<feFlood flood-opacity="0" result="BackgroundImageFix"/>
<feColorMatrix in="SourceAlpha" type="matrix" values="0 0 0 0 0 0 0 0 0 0 0 0 0 0 0 0 0 0 127 0" result="hardAlpha"/>
<feOffset dy="1"/>
<feGaussianBlur stdDeviation="2"/>
<feComposite in2="hardAlpha" operator="out"/>
<feColorMatrix type="matrix" values="0 0 0 0 0 0 0 0 0 0 0 0 0 0 0 0 0 0 0.16 0"/>
<feBlend mode="normal" in2="BackgroundImageFix" result="effect1_dropShadow_458_55"/>
<feBlend mode="normal" in="SourceGraphic" in2="effect1_dropShadow_458_55" result="shape"/>
</filter>
<filter id="filter1_di_458_55" x="30.2643" y="286.053" width="193.838" height="23.5895" filterUnits="userSpaceOnUse" color-interpolation-filters="sRGB">
<feFlood flood-opacity="0" result="BackgroundImageFix"/>
<feColorMatrix in="SourceAlpha" type="matrix" values="0 0 0 0 0 0 0 0 0 0 0 0 0 0 0 0 0 0 127 0" result="hardAlpha"/>
<feOffset dy="1"/>
<feGaussianBlur stdDeviation="2"/>
<feComposite in2="hardAlpha" operator="out"/>
<feColorMatrix type="matrix" values="0 0 0 0 0.154167 0 0 0 0 0.154167 0 0 0 0 0.154167 0 0 0 0.58 0"/>
<feBlend mode="normal" in2="BackgroundImageFix" result="effect1_dropShadow_458_55"/>
<feBlend mode="normal" in="SourceGraphic" in2="effect1_dropShadow_458_55" result="shape"/>
<feColorMatrix in="SourceAlpha" type="matrix" values="0 0 0 0 0 0 0 0 0 0 0 0 0 0 0 0 0 0 127 0" result="hardAlpha"/>
<feOffset dy="-1"/>
<feGaussianBlur stdDeviation="0.5"/>
<feComposite in2="hardAlpha" operator="arithmetic" k2="-1" k3="1"/>
<feColorMatrix type="matrix" values="0 0 0 0 0.208333 0 0 0 0 0.208333 0 0 0 0 0.208333 0 0 0 0.22 0"/>
<feBlend mode="normal" in2="shape" result="effect2_innerShadow_458_55"/>
</filter>
<filter id="filter2_i_458_55" x="33.847" y="262.372" width="126.132" height="12.2394" filterUnits="userSpaceOnUse" color-interpolation-filters="sRGB">
<feFlood flood-opacity="0" result="BackgroundImageFix"/>
<feBlend mode="normal" in="SourceGraphic" in2="BackgroundImageFix" result="shape"/>
<feColorMatrix in="SourceAlpha" type="matrix" values="0 0 0 0 0 0 0 0 0 0 0 0 0 0 0 0 0 0 127 0" result="hardAlpha"/>
<feOffset dy="-1"/>
<feGaussianBlur stdDeviation="0.5"/>
<feComposite in2="hardAlpha" operator="arithmetic" k2="-1" k3="1"/>
<feColorMatrix type="matrix" values="0 0 0 0 0.316667 0 0 0 0 0.316667 0 0 0 0 0.316667 0 0 0 0.4 0"/>
<feBlend mode="normal" in2="shape" result="effect1_innerShadow_458_55"/>
</filter>
<filter id="filter3_i_458_55" x="258.352" y="262.084" width="79.0963" height="15.4141" filterUnits="userSpaceOnUse" color-interpolation-filters="sRGB">
<feFlood flood-opacity="0" result="BackgroundImageFix"/>
<feBlend mode="normal" in="SourceGraphic" in2="BackgroundImageFix" result="shape"/>
<feColorMatrix in="SourceAlpha" type="matrix" values="0 0 0 0 0 0 0 0 0 0 0 0 0 0 0 0 0 0 127 0" result="hardAlpha"/>
<feOffset dy="-1"/>
<feGaussianBlur stdDeviation="0.5"/>
<feComposite in2="hardAlpha" operator="arithmetic" k2="-1" k3="1"/>
<feColorMatrix type="matrix" values="0 0 0 0 0.316667 0 0 0 0 0.316667 0 0 0 0 0.316667 0 0 0 0.4 0"/>
<feBlend mode="normal" in2="shape" result="effect1_innerShadow_458_55"/>
</filter>
<filter id="filter4_di_458_55" x="254.155" y="288.202" width="67.1051" height="25.4148" filterUnits="userSpaceOnUse" color-interpolation-filters="sRGB">
<feFlood flood-opacity="0" result="BackgroundImageFix"/>
<feColorMatrix in="SourceAlpha" type="matrix" values="0 0 0 0 0 0 0 0 0 0 0 0 0 0 0 0 0 0 127 0" result="hardAlpha"/>
<feOffset dy="1"/>
<feGaussianBlur stdDeviation="2"/>
<feComposite in2="hardAlpha" operator="out"/>
<feColorMatrix type="matrix" values="0 0 0 0 0.154167 0 0 0 0 0.154167 0 0 0 0 0.154167 0 0 0 0.58 0"/>
<feBlend mode="normal" in2="BackgroundImageFix" result="effect1_dropShadow_458_55"/>
<feBlend mode="normal" in="SourceGraphic" in2="effect1_dropShadow_458_55" result="shape"/>
<feColorMatrix in="SourceAlpha" type="matrix" values="0 0 0 0 0 0 0 0 0 0 0 0 0 0 0 0 0 0 127 0" result="hardAlpha"/>
<feOffset dy="-1"/>
<feGaussianBlur stdDeviation="0.5"/>
<feComposite in2="hardAlpha" operator="arithmetic" k2="-1" k3="1"/>
<feColorMatrix type="matrix" values="0 0 0 0 0.208333 0 0 0 0 0.208333 0 0 0 0 0.208333 0 0 0 0.22 0"/>
<feBlend mode="normal" in2="shape" result="effect2_innerShadow_458_55"/>
</filter>
<linearGradient id="paint0_linear_458_55" x1="-3.901e-06" y1="83" x2="531" y2="355" gradientUnits="userSpaceOnUse">
<stop/>
<stop offset="0.706073" stop-color="#404040" stop-opacity="0.293927"/>
<stop offset="1" stop-color="#050505" stop-opacity="0"/>
</linearGradient>
<linearGradient id="paint1_linear_458_55" x1="543.826" y1="114.486" x2="62.6494" y2="290.422" gradientUnits="userSpaceOnUse">
<stop stop-color="#A3A3A3"/>
<stop offset="0.742198" stop-color="white" stop-opacity="0"/>
</linearGradient>
<linearGradient id="paint2_linear_458_55" x1="254" y1="154" x2="254" y2="200" gradientUnits="userSpaceOnUse">
<stop stop-color="white"/>
<stop offset="1" stop-color="#F8F8F8" stop-opacity="0.81"/>
</linearGradient>
<linearGradient id="paint3_linear_458_55" x1="482.337" y1="35.2332" x2="482.337" y2="58.4583" gradientUnits="userSpaceOnUse">
<stop stop-color="white"/>
<stop offset="1" stop-color="white" stop-opacity="0.75"/>
</linearGradient>
<linearGradient id="paint4_linear_458_55" x1="448.449" y1="35.6807" x2="448.449" y2="47.9235" gradientUnits="userSpaceOnUse">
<stop stop-color="white"/>
<stop offset="1" stop-color="white" stop-opacity="0.75"/>
</linearGradient>
<clipPath id="clip0_458_55">
<rect width="561" height="355" fill="white"/>
</clipPath>
<clipPath id="clip1_458_55">
<rect width="561" height="355" rx="30" fill="white"/>
</clipPath>
</defs>
</svg>
