<svg width="1225" height="814" viewBox="0 0 1225 814" fill="none" xmlns="http://www.w3.org/2000/svg">
<rect width="1225" height="814" fill="#F6FAFD"/>
<g opacity="0.5" clip-path="url(#clip0_849_35)">
<path d="M635.5 375.667H635.577" stroke="#5783DA" stroke-width="15.6667" stroke-linecap="round" stroke-linejoin="round"/>
<path d="M541.5 439L594 391L628 421L649.5 408L683.5 437.5V456L672.5 475.5L560 477.5L544 463.5L541.5 439Z" fill="url(#paint0_linear_849_35)"/>
<path d="M541.5 360C541.5 353.767 543.976 347.79 548.383 343.383C552.79 338.976 558.767 336.5 565 336.5H659C665.233 336.5 671.21 338.976 675.617 343.383C680.024 347.79 682.5 353.767 682.5 360V454C682.5 460.233 680.024 466.21 675.617 470.617C671.21 475.024 665.233 477.5 659 477.5H565C558.767 477.5 552.79 475.024 548.383 470.617C543.976 466.21 541.5 460.233 541.5 454V360Z" stroke="#5783DA" stroke-width="10" stroke-linecap="round" stroke-linejoin="round"/>
<path d="M541.5 438.332L580.667 399.165C587.936 392.17 596.897 392.17 604.167 399.165L643.333 438.332" stroke="#5783DA" stroke-width="10" stroke-linecap="round" stroke-linejoin="round"/>
<path d="M627.667 422.665L635.5 414.832C642.769 407.837 651.731 407.837 659 414.832L682.5 438.332" stroke="#5783DA" stroke-width="10" stroke-linecap="round" stroke-linejoin="round"/>
</g>
<defs>
<linearGradient id="paint0_linear_849_35" x1="612" y1="378" x2="612" y2="494" gradientUnits="userSpaceOnUse">
<stop offset="0.235" stop-color="#5783DA"/>
<stop offset="0.595" stop-color="#A6BDEB"/>
<stop offset="1" stop-color="white"/>
</linearGradient>
<clipPath id="clip0_849_35">
<rect width="188" height="188" fill="white" transform="translate(518 313)"/>
</clipPath>
</defs>
</svg>
