<svg width="355" height="555" viewBox="0 0 355 555" fill="none" xmlns="http://www.w3.org/2000/svg">
<rect width="355" height="555" fill="#F7FAFF"/>
<g opacity="0.5" clip-path="url(#clip0_849_32)">
<path d="M189.125 262H189.163" stroke="#5783DA" stroke-width="7.75" stroke-linecap="round" stroke-linejoin="round"/>
<path d="M142.625 293.33L168.596 269.585L185.415 284.425L196.051 277.995L212.87 292.588V301.739L207.428 311.385L151.777 312.375L143.862 305.449L142.625 293.33Z" fill="url(#paint0_linear_849_32)"/>
<path d="M142.625 254.25C142.625 251.167 143.85 248.21 146.03 246.03C148.21 243.85 151.167 242.625 154.25 242.625H200.75C203.833 242.625 206.79 243.85 208.97 246.03C211.15 248.21 212.375 251.167 212.375 254.25V300.75C212.375 303.833 211.15 306.79 208.97 308.97C206.79 311.15 203.833 312.375 200.75 312.375H154.25C151.167 312.375 148.21 311.15 146.03 308.97C143.85 306.79 142.625 303.833 142.625 300.75V254.25Z" stroke="#5783DA" stroke-width="4.94681" stroke-linecap="round" stroke-linejoin="round"/>
<path d="M142.625 293L162 273.625C165.596 270.164 170.029 270.164 173.625 273.625L193 293" stroke="#5783DA" stroke-width="4.94681" stroke-linecap="round" stroke-linejoin="round"/>
<path d="M185.25 285.249L189.125 281.374C192.721 277.914 197.154 277.914 200.75 281.374L212.375 292.999" stroke="#5783DA" stroke-width="4.94681" stroke-linecap="round" stroke-linejoin="round"/>
</g>
<defs>
<linearGradient id="paint0_linear_849_32" x1="177.5" y1="263.154" x2="177.5" y2="320.537" gradientUnits="userSpaceOnUse">
<stop offset="0.235" stop-color="#5783DA"/>
<stop offset="0.595" stop-color="#A6BDEB"/>
<stop offset="1" stop-color="white"/>
</linearGradient>
<clipPath id="clip0_849_32">
<rect width="93" height="93" fill="white" transform="translate(131 231)"/>
</clipPath>
</defs>
</svg>
