<svg  viewBox="0 0 200 200" fill="none"
	xmlns="http://www.w3.org/2000/svg">
	<g clip-path="url(#clip0_955_2300)">
		<path d="M8 0H0V8H8V0Z" fill="black"/>
		<path d="M8 8H0V16H8V8Z" fill="black"/>
		<path d="M8 16H0V24H8V16Z" fill="black"/>
		<path d="M8 24H0V32H8V24Z" fill="black"/>
		<path d="M8 32H0V40H8V32Z" fill="black"/>
		<path d="M8 40H0V48H8V40Z" fill="black"/>
		<path d="M8 48H0V56H8V48Z" fill="black"/>
		<path d="M8 64H0V72H8V64Z" fill="black"/>
		<path d="M8 88H0V96H8V88Z" fill="black"/>
		<path d="M8 96H0V104H8V96Z" fill="black"/>
		<path d="M8 104H0V112H8V104Z" fill="black"/>
		<path d="M8 120H0V128H8V120Z" fill="black"/>
		<path d="M8 144H0V152H8V144Z" fill="black"/>
		<path d="M8 152H0V160H8V152Z" fill="black"/>
		<path d="M8 160H0V168H8V160Z" fill="black"/>
		<path d="M8 168H0V176H8V168Z" fill="black"/>
		<path d="M8 176H0V184H8V176Z" fill="black"/>
		<path d="M8 184H0V192H8V184Z" fill="black"/>
		<path d="M8 192H0V200H8V192Z" fill="black"/>
		<path d="M16 0H8V8H16V0Z" fill="black"/>
		<path d="M16 48H8V56H16V48Z" fill="black"/>
		<path d="M16 64H8V72H16V64Z" fill="black"/>
		<path d="M16 72H8V80H16V72Z" fill="black"/>
		<path d="M16 80H8V88H16V80Z" fill="black"/>
		<path d="M16 88H8V96H16V88Z" fill="black"/>
		<path d="M16 112H8V120H16V112Z" fill="black"/>
		<path d="M16 144H8V152H16V144Z" fill="black"/>
		<path d="M16 192H8V200H16V192Z" fill="black"/>
		<path d="M24 0H16V8H24V0Z" fill="black"/>
		<path d="M24 16H16V24H24V16Z" fill="black"/>
		<path d="M24 24H16V32H24V24Z" fill="black"/>
		<path d="M24 32H16V40H24V32Z" fill="black"/>
		<path d="M24 48H16V56H24V48Z" fill="black"/>
		<path d="M24 96H16V104H24V96Z" fill="black"/>
		<path d="M24 128H16V136H24V128Z" fill="black"/>
		<path d="M24 144H16V152H24V144Z" fill="black"/>
		<path d="M24 160H16V168H24V160Z" fill="black"/>
		<path d="M24 168H16V176H24V168Z" fill="black"/>
		<path d="M24 176H16V184H24V176Z" fill="black"/>
		<path d="M24 192H16V200H24V192Z" fill="black"/>
		<path d="M32 0H24V8H32V0Z" fill="black"/>
		<path d="M32 16H24V24H32V16Z" fill="black"/>
		<path d="M32 24H24V32H32V24Z" fill="black"/>
		<path d="M32 32H24V40H32V32Z" fill="black"/>
		<path d="M32 48H24V56H32V48Z" fill="black"/>
		<path d="M32 64H24V72H32V64Z" fill="black"/>
		<path d="M32 88H24V96H32V88Z" fill="black"/>
		<path d="M32 96H24V104H32V96Z" fill="black"/>
		<path d="M32 112H24V120H32V112Z" fill="black"/>
		<path d="M32 120H24V128H32V120Z" fill="black"/>
		<path d="M32 128H24V136H32V128Z" fill="black"/>
		<path d="M32 144H24V152H32V144Z" fill="black"/>
		<path d="M32 160H24V168H32V160Z" fill="black"/>
		<path d="M32 168H24V176H32V168Z" fill="black"/>
		<path d="M32 176H24V184H32V176Z" fill="black"/>
		<path d="M32 192H24V200H32V192Z" fill="black"/>
		<path d="M40 0H32V8H40V0Z" fill="black"/>
		<path d="M40 16H32V24H40V16Z" fill="black"/>
		<path d="M40 24H32V32H40V24Z" fill="black"/>
		<path d="M40 32H32V40H40V32Z" fill="black"/>
		<path d="M40 48H32V56H40V48Z" fill="black"/>
		<path d="M40 72H32V80H40V72Z" fill="black"/>
		<path d="M40 80H32V88H40V80Z" fill="black"/>
		<path d="M40 96H32V104H40V96Z" fill="black"/>
		<path d="M40 112H32V120H40V112Z" fill="black"/>
		<path d="M40 120H32V128H40V120Z" fill="black"/>
		<path d="M40 144H32V152H40V144Z" fill="black"/>
		<path d="M40 160H32V168H40V160Z" fill="black"/>
		<path d="M40 168H32V176H40V168Z" fill="black"/>
		<path d="M40 176H32V184H40V176Z" fill="black"/>
		<path d="M40 192H32V200H40V192Z" fill="black"/>
		<path d="M48 0H40V8H48V0Z" fill="black"/>
		<path d="M48 48H40V56H48V48Z" fill="black"/>
		<path d="M48 80H40V88H48V80Z" fill="black"/>
		<path d="M48 104H40V112H48V104Z" fill="black"/>
		<path d="M48 112H40V120H48V112Z" fill="black"/>
		<path d="M48 120H40V128H48V120Z" fill="black"/>
		<path d="M48 144H40V152H48V144Z" fill="black"/>
		<path d="M48 192H40V200H48V192Z" fill="black"/>
		<path d="M56 0H48V8H56V0Z" fill="black"/>
		<path d="M56 8H48V16H56V8Z" fill="black"/>
		<path d="M56 16H48V24H56V16Z" fill="black"/>
		<path d="M56 24H48V32H56V24Z" fill="black"/>
		<path d="M56 32H48V40H56V32Z" fill="black"/>
		<path d="M56 40H48V48H56V40Z" fill="black"/>
		<path d="M56 48H48V56H56V48Z" fill="black"/>
		<path d="M56 64H48V72H56V64Z" fill="black"/>
		<path d="M56 80H48V88H56V80Z" fill="black"/>
		<path d="M56 96H48V104H56V96Z" fill="black"/>
		<path d="M56 112H48V120H56V112Z" fill="black"/>
		<path d="M56 128H48V136H56V128Z" fill="black"/>
		<path d="M56 144H48V152H56V144Z" fill="black"/>
		<path d="M56 152H48V160H56V152Z" fill="black"/>
		<path d="M56 160H48V168H56V160Z" fill="black"/>
		<path d="M56 168H48V176H56V168Z" fill="black"/>
		<path d="M56 176H48V184H56V176Z" fill="black"/>
		<path d="M56 184H48V192H56V184Z" fill="black"/>
		<path d="M56 192H48V200H56V192Z" fill="black"/>
		<path d="M64 64H56V72H64V64Z" fill="black"/>
		<path d="M64 80H56V88H64V80Z" fill="black"/>
		<path d="M64 88H56V96H64V88Z" fill="black"/>
		<path d="M64 96H56V104H64V96Z" fill="black"/>
		<path d="M64 120H56V128H64V120Z" fill="black"/>
		<path d="M72 8H64V16H72V8Z" fill="black"/>
		<path d="M72 16H64V24H72V16Z" fill="black"/>
		<path d="M72 32H64V40H72V32Z" fill="black"/>
		<path d="M72 40H64V48H72V40Z" fill="black"/>
		<path d="M72 48H64V56H72V48Z" fill="black"/>
		<path d="M72 56H64V64H72V56Z" fill="black"/>
		<path d="M72 72H64V80H72V72Z" fill="black"/>
		<path d="M72 104H64V112H72V104Z" fill="black"/>
		<path d="M72 112H64V120H72V112Z" fill="black"/>
		<path d="M72 120H64V128H72V120Z" fill="black"/>
		<path d="M72 128H64V136H72V128Z" fill="black"/>
		<path d="M72 136H64V144H72V136Z" fill="black"/>
		<path d="M72 144H64V152H72V144Z" fill="black"/>
		<path d="M72 168H64V176H72V168Z" fill="black"/>
		<path d="M72 184H64V192H72V184Z" fill="black"/>
		<path d="M72 192H64V200H72V192Z" fill="black"/>
		<path d="M80 8H72V16H80V8Z" fill="black"/>
		<path d="M80 24H72V32H80V24Z" fill="black"/>
		<path d="M80 32H72V40H80V32Z" fill="black"/>
		<path d="M80 72H72V80H80V72Z" fill="black"/>
		<path d="M80 88H72V96H80V88Z" fill="black"/>
		<path d="M80 104H72V112H80V104Z" fill="black"/>
		<path d="M80 136H72V144H80V136Z" fill="black"/>
		<path d="M80 192H72V200H80V192Z" fill="black"/>
		<path d="M88 0H80V8H88V0Z" fill="black"/>
		<path d="M88 8H80V16H88V8Z" fill="black"/>
		<path d="M88 32H80V40H88V32Z" fill="black"/>
		<path d="M88 40H80V48H88V40Z" fill="black"/>
		<path d="M88 48H80V56H88V48Z" fill="black"/>
		<path d="M88 56H80V64H88V56Z" fill="black"/>
		<path d="M88 88H80V96H88V88Z" fill="black"/>
		<path d="M88 96H80V104H88V96Z" fill="black"/>
		<path d="M88 112H80V120H88V112Z" fill="black"/>
		<path d="M88 128H80V136H88V128Z" fill="black"/>
		<path d="M88 144H80V152H88V144Z" fill="black"/>
		<path d="M88 152H80V160H88V152Z" fill="black"/>
		<path d="M96 96H88V104H96V96Z" fill="black"/>
		<path d="M96 112H88V120H96V112Z" fill="black"/>
		<path d="M96 128H88V136H96V128Z" fill="black"/>
		<path d="M96 136H88V144H96V136Z" fill="black"/>
		<path d="M96 160H88V168H96V160Z" fill="black"/>
		<path d="M96 184H88V192H96V184Z" fill="black"/>
		<path d="M96 192H88V200H96V192Z" fill="black"/>
		<path d="M104 32H96V40H104V32Z" fill="black"/>
		<path d="M104 40H96V48H104V40Z" fill="black"/>
		<path d="M104 48H96V56H104V48Z" fill="black"/>
		<path d="M104 56H96V64H104V56Z" fill="black"/>
		<path d="M104 64H96V72H104V64Z" fill="black"/>
		<path d="M104 88H96V96H104V88Z" fill="black"/>
		<path d="M104 96H96V104H104V96Z" fill="black"/>
		<path d="M104 104H96V112H104V104Z" fill="black"/>
		<path d="M104 120H96V128H104V120Z" fill="black"/>
		<path d="M104 128H96V136H104V128Z" fill="black"/>
		<path d="M104 136H96V144H104V136Z" fill="black"/>
		<path d="M104 160H96V168H104V160Z" fill="black"/>
		<path d="M104 168H96V176H104V168Z" fill="black"/>
		<path d="M104 176H96V184H104V176Z" fill="black"/>
		<path d="M104 184H96V192H104V184Z" fill="black"/>
		<path d="M104 192H96V200H104V192Z" fill="black"/>
		<path d="M112 40H104V48H112V40Z" fill="black"/>
		<path d="M112 64H104V72H112V64Z" fill="black"/>
		<path d="M112 72H104V80H112V72Z" fill="black"/>
		<path d="M112 80H104V88H112V80Z" fill="black"/>
		<path d="M112 88H104V96H112V88Z" fill="black"/>
		<path d="M112 96H104V104H112V96Z" fill="black"/>
		<path d="M112 104H104V112H112V104Z" fill="black"/>
		<path d="M112 120H104V128H112V120Z" fill="black"/>
		<path d="M112 136H104V144H112V136Z" fill="black"/>
		<path d="M112 160H104V168H112V160Z" fill="black"/>
		<path d="M112 168H104V176H112V168Z" fill="black"/>
		<path d="M112 184H104V192H112V184Z" fill="black"/>
		<path d="M112 192H104V200H112V192Z" fill="black"/>
		<path d="M120 8H112V16H120V8Z" fill="black"/>
		<path d="M120 24H112V32H120V24Z" fill="black"/>
		<path d="M120 32H112V40H120V32Z" fill="black"/>
		<path d="M120 40H112V48H120V40Z" fill="black"/>
		<path d="M120 48H112V56H120V48Z" fill="black"/>
		<path d="M120 64H112V72H120V64Z" fill="black"/>
		<path d="M120 112H112V120H120V112Z" fill="black"/>
		<path d="M120 120H112V128H120V120Z" fill="black"/>
		<path d="M120 136H112V144H120V136Z" fill="black"/>
		<path d="M120 152H112V160H120V152Z" fill="black"/>
		<path d="M120 160H112V168H120V160Z" fill="black"/>
		<path d="M120 168H112V176H120V168Z" fill="black"/>
		<path d="M120 176H112V184H120V176Z" fill="black"/>
		<path d="M120 192H112V200H120V192Z" fill="black"/>
		<path d="M128 0H120V8H128V0Z" fill="black"/>
		<path d="M128 8H120V16H128V8Z" fill="black"/>
		<path d="M128 16H120V24H128V16Z" fill="black"/>
		<path d="M128 32H120V40H128V32Z" fill="black"/>
		<path d="M128 40H120V48H128V40Z" fill="black"/>
		<path d="M128 64H120V72H128V64Z" fill="black"/>
		<path d="M128 88H120V96H128V88Z" fill="black"/>
		<path d="M128 136H120V144H128V136Z" fill="black"/>
		<path d="M128 144H120V152H128V144Z" fill="black"/>
		<path d="M128 168H120V176H128V168Z" fill="black"/>
		<path d="M128 176H120V184H128V176Z" fill="black"/>
		<path d="M128 184H120V192H128V184Z" fill="black"/>
		<path d="M128 192H120V200H128V192Z" fill="black"/>
		<path d="M136 8H128V16H136V8Z" fill="black"/>
		<path d="M136 32H128V40H136V32Z" fill="black"/>
		<path d="M136 40H128V48H136V40Z" fill="black"/>
		<path d="M136 48H128V56H136V48Z" fill="black"/>
		<path d="M136 64H128V72H136V64Z" fill="black"/>
		<path d="M136 72H128V80H136V72Z" fill="black"/>
		<path d="M136 88H128V96H136V88Z" fill="black"/>
		<path d="M136 120H128V128H136V120Z" fill="black"/>
		<path d="M136 128H128V136H136V128Z" fill="black"/>
		<path d="M136 136H128V144H136V136Z" fill="black"/>
		<path d="M136 144H128V152H136V144Z" fill="black"/>
		<path d="M136 152H128V160H136V152Z" fill="black"/>
		<path d="M136 160H128V168H136V160Z" fill="black"/>
		<path d="M136 168H128V176H136V168Z" fill="black"/>
		<path d="M136 176H128V184H136V176Z" fill="black"/>
		<path d="M136 184H128V192H136V184Z" fill="black"/>
		<path d="M136 192H128V200H136V192Z" fill="black"/>
		<path d="M144 72H136V80H144V72Z" fill="black"/>
		<path d="M144 80H136V88H144V80Z" fill="black"/>
		<path d="M144 88H136V96H144V88Z" fill="black"/>
		<path d="M144 96H136V104H144V96Z" fill="black"/>
		<path d="M144 112H136V120H144V112Z" fill="black"/>
		<path d="M144 120H136V128H144V120Z" fill="black"/>
		<path d="M144 128H136V136H144V128Z" fill="black"/>
		<path d="M144 160H136V168H144V160Z" fill="black"/>
		<path d="M144 192H136V200H144V192Z" fill="black"/>
		<path d="M152 0H144V8H152V0Z" fill="black"/>
		<path d="M152 8H144V16H152V8Z" fill="black"/>
		<path d="M152 16H144V24H152V16Z" fill="black"/>
		<path d="M152 24H144V32H152V24Z" fill="black"/>
		<path d="M152 32H144V40H152V32Z" fill="black"/>
		<path d="M152 40H144V48H152V40Z" fill="black"/>
		<path d="M152 48H144V56H152V48Z" fill="black"/>
		<path d="M152 64H144V72H152V64Z" fill="black"/>
		<path d="M152 72H144V80H152V72Z" fill="black"/>
		<path d="M152 80H144V88H152V80Z" fill="black"/>
		<path d="M152 96H144V104H152V96Z" fill="black"/>
		<path d="M152 104H144V112H152V104Z" fill="black"/>
		<path d="M152 128H144V136H152V128Z" fill="black"/>
		<path d="M152 144H144V152H152V144Z" fill="black"/>
		<path d="M152 160H144V168H152V160Z" fill="black"/>
		<path d="M152 184H144V192H152V184Z" fill="black"/>
		<path d="M152 192H144V200H152V192Z" fill="black"/>
		<path d="M160 0H152V8H160V0Z" fill="black"/>
		<path d="M160 48H152V56H160V48Z" fill="black"/>
		<path d="M160 64H152V72H160V64Z" fill="black"/>
		<path d="M160 80H152V88H160V80Z" fill="black"/>
		<path d="M160 104H152V112H160V104Z" fill="black"/>
		<path d="M160 112H152V120H160V112Z" fill="black"/>
		<path d="M160 128H152V136H160V128Z" fill="black"/>
		<path d="M160 160H152V168H160V160Z" fill="black"/>
		<path d="M160 168H152V176H160V168Z" fill="black"/>
		<path d="M160 176H152V184H160V176Z" fill="black"/>
		<path d="M160 192H152V200H160V192Z" fill="black"/>
		<path d="M168 0H160V8H168V0Z" fill="black"/>
		<path d="M168 16H160V24H168V16Z" fill="black"/>
		<path d="M168 24H160V32H168V24Z" fill="black"/>
		<path d="M168 32H160V40H168V32Z" fill="black"/>
		<path d="M168 48H160V56H168V48Z" fill="black"/>
		<path d="M168 64H160V72H168V64Z" fill="black"/>
		<path d="M168 80H160V88H168V80Z" fill="black"/>
		<path d="M168 112H160V120H168V112Z" fill="black"/>
		<path d="M168 120H160V128H168V120Z" fill="black"/>
		<path d="M168 128H160V136H168V128Z" fill="black"/>
		<path d="M168 136H160V144H168V136Z" fill="black"/>
		<path d="M168 144H160V152H168V144Z" fill="black"/>
		<path d="M168 152H160V160H168V152Z" fill="black"/>
		<path d="M168 160H160V168H168V160Z" fill="black"/>
		<path d="M168 168H160V176H168V168Z" fill="black"/>
		<path d="M168 176H160V184H168V176Z" fill="black"/>
		<path d="M176 0H168V8H176V0Z" fill="black"/>
		<path d="M176 16H168V24H176V16Z" fill="black"/>
		<path d="M176 24H168V32H176V24Z" fill="black"/>
		<path d="M176 32H168V40H176V32Z" fill="black"/>
		<path d="M176 48H168V56H176V48Z" fill="black"/>
		<path d="M176 96H168V104H176V96Z" fill="black"/>
		<path d="M176 104H168V112H176V104Z" fill="black"/>
		<path d="M176 128H168V136H176V128Z" fill="black"/>
		<path d="M176 136H168V144H176V136Z" fill="black"/>
		<path d="M176 144H168V152H176V144Z" fill="black"/>
		<path d="M176 152H168V160H176V152Z" fill="black"/>
		<path d="M176 160H168V168H176V160Z" fill="black"/>
		<path d="M176 168H168V176H176V168Z" fill="black"/>
		<path d="M176 184H168V192H176V184Z" fill="black"/>
		<path d="M184 0H176V8H184V0Z" fill="black"/>
		<path d="M184 16H176V24H184V16Z" fill="black"/>
		<path d="M184 24H176V32H184V24Z" fill="black"/>
		<path d="M184 32H176V40H184V32Z" fill="black"/>
		<path d="M184 48H176V56H184V48Z" fill="black"/>
		<path d="M184 64H176V72H184V64Z" fill="black"/>
		<path d="M184 104H176V112H184V104Z" fill="black"/>
		<path d="M184 112H176V120H184V112Z" fill="black"/>
		<path d="M184 128H176V136H184V128Z" fill="black"/>
		<path d="M184 152H176V160H184V152Z" fill="black"/>
		<path d="M184 168H176V176H184V168Z" fill="black"/>
		<path d="M184 176H176V184H184V176Z" fill="black"/>
		<path d="M192 0H184V8H192V0Z" fill="black"/>
		<path d="M192 48H184V56H192V48Z" fill="black"/>
		<path d="M192 64H184V72H192V64Z" fill="black"/>
		<path d="M192 80H184V88H192V80Z" fill="black"/>
		<path d="M192 96H184V104H192V96Z" fill="black"/>
		<path d="M192 120H184V128H192V120Z" fill="black"/>
		<path d="M192 144H184V152H192V144Z" fill="black"/>
		<path d="M192 152H184V160H192V152Z" fill="black"/>
		<path d="M192 192H184V200H192V192Z" fill="black"/>
		<path d="M200 0H192V8H200V0Z" fill="black"/>
		<path d="M200 8H192V16H200V8Z" fill="black"/>
		<path d="M200 16H192V24H200V16Z" fill="black"/>
		<path d="M200 24H192V32H200V24Z" fill="black"/>
		<path d="M200 32H192V40H200V32Z" fill="black"/>
		<path d="M200 40H192V48H200V40Z" fill="black"/>
		<path d="M200 48H192V56H200V48Z" fill="black"/>
		<path d="M200 72H192V80H200V72Z" fill="black"/>
		<path d="M200 80H192V88H200V80Z" fill="black"/>
		<path d="M200 96H192V104H200V96Z" fill="black"/>
		<path d="M200 104H192V112H200V104Z" fill="black"/>
		<path d="M200 112H192V120H200V112Z" fill="black"/>
		<path d="M200 136H192V144H200V136Z" fill="black"/>
		<path d="M200 144H192V152H200V144Z" fill="black"/>
		<path d="M200 176H192V184H200V176Z" fill="black"/>
		<path d="M200 192H192V200H200V192Z" fill="black"/>
		<mask id="mask0_955_2300" style="mask-type:luminance" maskUnits="userSpaceOnUse" x="-32" y="-32" width="264" height="264">
			<path d="M232 -32H-32V232H232V-32Z" fill="white"/>
		</mask>
		<g mask="url(#mask0_955_2300)">
			<path d="M232 -32H-32V232H232V-32Z" fill="white"/>
			<path d="M8 0H0V8H8V0Z" fill="black"/>
			<path d="M8 8H0V16H8V8Z" fill="black"/>
			<path d="M8 16H0V24H8V16Z" fill="black"/>
			<path d="M8 24H0V32H8V24Z" fill="black"/>
			<path d="M8 32H0V40H8V32Z" fill="black"/>
			<path d="M8 40H0V48H8V40Z" fill="black"/>
			<path d="M8 48H0V56H8V48Z" fill="black"/>
			<path d="M8 64H0V72H8V64Z" fill="black"/>
			<path d="M8 88H0V96H8V88Z" fill="black"/>
			<path d="M8 96H0V104H8V96Z" fill="black"/>
			<path d="M8 104H0V112H8V104Z" fill="black"/>
			<path d="M8 120H0V128H8V120Z" fill="black"/>
			<path d="M8 144H0V152H8V144Z" fill="black"/>
			<path d="M8 152H0V160H8V152Z" fill="black"/>
			<path d="M8 160H0V168H8V160Z" fill="black"/>
			<path d="M8 168H0V176H8V168Z" fill="black"/>
			<path d="M8 176H0V184H8V176Z" fill="black"/>
			<path d="M8 184H0V192H8V184Z" fill="black"/>
			<path d="M8 192H0V200H8V192Z" fill="black"/>
			<path d="M16 0H8V8H16V0Z" fill="black"/>
			<path d="M16 48H8V56H16V48Z" fill="black"/>
			<path d="M16 64H8V72H16V64Z" fill="black"/>
			<path d="M16 72H8V80H16V72Z" fill="black"/>
			<path d="M16 80H8V88H16V80Z" fill="black"/>
			<path d="M16 88H8V96H16V88Z" fill="black"/>
			<path d="M16 112H8V120H16V112Z" fill="black"/>
			<path d="M16 144H8V152H16V144Z" fill="black"/>
			<path d="M16 192H8V200H16V192Z" fill="black"/>
			<path d="M24 0H16V8H24V0Z" fill="black"/>
			<path d="M24 16H16V24H24V16Z" fill="black"/>
			<path d="M24 24H16V32H24V24Z" fill="black"/>
			<path d="M24 32H16V40H24V32Z" fill="black"/>
			<path d="M24 48H16V56H24V48Z" fill="black"/>
			<path d="M24 96H16V104H24V96Z" fill="black"/>
			<path d="M24 128H16V136H24V128Z" fill="black"/>
			<path d="M24 144H16V152H24V144Z" fill="black"/>
			<path d="M24 160H16V168H24V160Z" fill="black"/>
			<path d="M24 168H16V176H24V168Z" fill="black"/>
			<path d="M24 176H16V184H24V176Z" fill="black"/>
			<path d="M24 192H16V200H24V192Z" fill="black"/>
			<path d="M32 0H24V8H32V0Z" fill="black"/>
			<path d="M32 16H24V24H32V16Z" fill="black"/>
			<path d="M32 24H24V32H32V24Z" fill="black"/>
			<path d="M32 32H24V40H32V32Z" fill="black"/>
			<path d="M32 48H24V56H32V48Z" fill="black"/>
			<path d="M32 64H24V72H32V64Z" fill="black"/>
			<path d="M32 88H24V96H32V88Z" fill="black"/>
			<path d="M32 96H24V104H32V96Z" fill="black"/>
			<path d="M32 112H24V120H32V112Z" fill="black"/>
			<path d="M32 120H24V128H32V120Z" fill="black"/>
			<path d="M32 128H24V136H32V128Z" fill="black"/>
			<path d="M32 144H24V152H32V144Z" fill="black"/>
			<path d="M32 160H24V168H32V160Z" fill="black"/>
			<path d="M32 168H24V176H32V168Z" fill="black"/>
			<path d="M32 176H24V184H32V176Z" fill="black"/>
			<path d="M32 192H24V200H32V192Z" fill="black"/>
			<path d="M40 0H32V8H40V0Z" fill="black"/>
			<path d="M40 16H32V24H40V16Z" fill="black"/>
			<path d="M40 24H32V32H40V24Z" fill="black"/>
			<path d="M40 32H32V40H40V32Z" fill="black"/>
			<path d="M40 48H32V56H40V48Z" fill="black"/>
			<path d="M40 72H32V80H40V72Z" fill="black"/>
			<path d="M40 80H32V88H40V80Z" fill="black"/>
			<path d="M40 96H32V104H40V96Z" fill="black"/>
			<path d="M40 112H32V120H40V112Z" fill="black"/>
			<path d="M40 120H32V128H40V120Z" fill="black"/>
			<path d="M40 144H32V152H40V144Z" fill="black"/>
			<path d="M40 160H32V168H40V160Z" fill="black"/>
			<path d="M40 168H32V176H40V168Z" fill="black"/>
			<path d="M40 176H32V184H40V176Z" fill="black"/>
			<path d="M40 192H32V200H40V192Z" fill="black"/>
			<path d="M48 0H40V8H48V0Z" fill="black"/>
			<path d="M48 48H40V56H48V48Z" fill="black"/>
			<path d="M48 80H40V88H48V80Z" fill="black"/>
			<path d="M48 104H40V112H48V104Z" fill="black"/>
			<path d="M48 112H40V120H48V112Z" fill="black"/>
			<path d="M48 120H40V128H48V120Z" fill="black"/>
			<path d="M48 144H40V152H48V144Z" fill="black"/>
			<path d="M48 192H40V200H48V192Z" fill="black"/>
			<path d="M56 0H48V8H56V0Z" fill="black"/>
			<path d="M56 8H48V16H56V8Z" fill="black"/>
			<path d="M56 16H48V24H56V16Z" fill="black"/>
			<path d="M56 24H48V32H56V24Z" fill="black"/>
			<path d="M56 32H48V40H56V32Z" fill="black"/>
			<path d="M56 40H48V48H56V40Z" fill="black"/>
			<path d="M56 48H48V56H56V48Z" fill="black"/>
			<path d="M56 64H48V72H56V64Z" fill="black"/>
			<path d="M56 80H48V88H56V80Z" fill="black"/>
			<path d="M56 96H48V104H56V96Z" fill="black"/>
			<path d="M56 112H48V120H56V112Z" fill="black"/>
			<path d="M56 128H48V136H56V128Z" fill="black"/>
			<path d="M56 144H48V152H56V144Z" fill="black"/>
			<path d="M56 152H48V160H56V152Z" fill="black"/>
			<path d="M56 160H48V168H56V160Z" fill="black"/>
			<path d="M56 168H48V176H56V168Z" fill="black"/>
			<path d="M56 176H48V184H56V176Z" fill="black"/>
			<path d="M56 184H48V192H56V184Z" fill="black"/>
			<path d="M56 192H48V200H56V192Z" fill="black"/>
			<path d="M64 64H56V72H64V64Z" fill="black"/>
			<path d="M64 80H56V88H64V80Z" fill="black"/>
			<path d="M64 88H56V96H64V88Z" fill="black"/>
			<path d="M64 96H56V104H64V96Z" fill="black"/>
			<path d="M64 120H56V128H64V120Z" fill="black"/>
			<path d="M72 8H64V16H72V8Z" fill="black"/>
			<path d="M72 16H64V24H72V16Z" fill="black"/>
			<path d="M72 32H64V40H72V32Z" fill="black"/>
			<path d="M72 40H64V48H72V40Z" fill="black"/>
			<path d="M72 48H64V56H72V48Z" fill="black"/>
			<path d="M72 56H64V64H72V56Z" fill="black"/>
			<path d="M72 72H64V80H72V72Z" fill="black"/>
			<path d="M72 104H64V112H72V104Z" fill="black"/>
			<path d="M72 112H64V120H72V112Z" fill="black"/>
			<path d="M72 120H64V128H72V120Z" fill="black"/>
			<path d="M72 128H64V136H72V128Z" fill="black"/>
			<path d="M72 136H64V144H72V136Z" fill="black"/>
			<path d="M72 144H64V152H72V144Z" fill="black"/>
			<path d="M72 168H64V176H72V168Z" fill="black"/>
			<path d="M72 184H64V192H72V184Z" fill="black"/>
			<path d="M72 192H64V200H72V192Z" fill="black"/>
			<path d="M80 8H72V16H80V8Z" fill="black"/>
			<path d="M80 24H72V32H80V24Z" fill="black"/>
			<path d="M80 32H72V40H80V32Z" fill="black"/>
			<path d="M80 72H72V80H80V72Z" fill="black"/>
			<path d="M80 88H72V96H80V88Z" fill="black"/>
			<path d="M80 104H72V112H80V104Z" fill="black"/>
			<path d="M80 136H72V144H80V136Z" fill="black"/>
			<path d="M80 192H72V200H80V192Z" fill="black"/>
			<path d="M88 0H80V8H88V0Z" fill="black"/>
			<path d="M88 8H80V16H88V8Z" fill="black"/>
			<path d="M88 32H80V40H88V32Z" fill="black"/>
			<path d="M88 40H80V48H88V40Z" fill="black"/>
			<path d="M88 48H80V56H88V48Z" fill="black"/>
			<path d="M88 56H80V64H88V56Z" fill="black"/>
			<path d="M88 88H80V96H88V88Z" fill="black"/>
			<path d="M88 96H80V104H88V96Z" fill="black"/>
			<path d="M88 112H80V120H88V112Z" fill="black"/>
			<path d="M88 128H80V136H88V128Z" fill="black"/>
			<path d="M88 144H80V152H88V144Z" fill="black"/>
			<path d="M88 152H80V160H88V152Z" fill="black"/>
			<path d="M96 96H88V104H96V96Z" fill="black"/>
			<path d="M96 112H88V120H96V112Z" fill="black"/>
			<path d="M96 128H88V136H96V128Z" fill="black"/>
			<path d="M96 136H88V144H96V136Z" fill="black"/>
			<path d="M96 160H88V168H96V160Z" fill="black"/>
			<path d="M96 184H88V192H96V184Z" fill="black"/>
			<path d="M96 192H88V200H96V192Z" fill="black"/>
			<path d="M104 32H96V40H104V32Z" fill="black"/>
			<path d="M104 40H96V48H104V40Z" fill="black"/>
			<path d="M104 48H96V56H104V48Z" fill="black"/>
			<path d="M104 56H96V64H104V56Z" fill="black"/>
			<path d="M104 64H96V72H104V64Z" fill="black"/>
			<path d="M104 88H96V96H104V88Z" fill="black"/>
			<path d="M104 96H96V104H104V96Z" fill="black"/>
			<path d="M104 104H96V112H104V104Z" fill="black"/>
			<path d="M104 120H96V128H104V120Z" fill="black"/>
			<path d="M104 128H96V136H104V128Z" fill="black"/>
			<path d="M104 136H96V144H104V136Z" fill="black"/>
			<path d="M104 160H96V168H104V160Z" fill="black"/>
			<path d="M104 168H96V176H104V168Z" fill="black"/>
			<path d="M104 176H96V184H104V176Z" fill="black"/>
			<path d="M104 184H96V192H104V184Z" fill="black"/>
			<path d="M104 192H96V200H104V192Z" fill="black"/>
			<path d="M112 40H104V48H112V40Z" fill="black"/>
			<path d="M112 64H104V72H112V64Z" fill="black"/>
			<path d="M112 72H104V80H112V72Z" fill="black"/>
			<path d="M112 80H104V88H112V80Z" fill="black"/>
			<path d="M112 88H104V96H112V88Z" fill="black"/>
			<path d="M112 96H104V104H112V96Z" fill="black"/>
			<path d="M112 104H104V112H112V104Z" fill="black"/>
			<path d="M112 120H104V128H112V120Z" fill="black"/>
			<path d="M112 136H104V144H112V136Z" fill="black"/>
			<path d="M112 160H104V168H112V160Z" fill="black"/>
			<path d="M112 168H104V176H112V168Z" fill="black"/>
			<path d="M112 184H104V192H112V184Z" fill="black"/>
			<path d="M112 192H104V200H112V192Z" fill="black"/>
			<path d="M120 8H112V16H120V8Z" fill="black"/>
			<path d="M120 24H112V32H120V24Z" fill="black"/>
			<path d="M120 32H112V40H120V32Z" fill="black"/>
			<path d="M120 40H112V48H120V40Z" fill="black"/>
			<path d="M120 48H112V56H120V48Z" fill="black"/>
			<path d="M120 64H112V72H120V64Z" fill="black"/>
			<path d="M120 112H112V120H120V112Z" fill="black"/>
			<path d="M120 120H112V128H120V120Z" fill="black"/>
			<path d="M120 136H112V144H120V136Z" fill="black"/>
			<path d="M120 152H112V160H120V152Z" fill="black"/>
			<path d="M120 160H112V168H120V160Z" fill="black"/>
			<path d="M120 168H112V176H120V168Z" fill="black"/>
			<path d="M120 176H112V184H120V176Z" fill="black"/>
			<path d="M120 192H112V200H120V192Z" fill="black"/>
			<path d="M128 0H120V8H128V0Z" fill="black"/>
			<path d="M128 8H120V16H128V8Z" fill="black"/>
			<path d="M128 16H120V24H128V16Z" fill="black"/>
			<path d="M128 32H120V40H128V32Z" fill="black"/>
			<path d="M128 40H120V48H128V40Z" fill="black"/>
			<path d="M128 64H120V72H128V64Z" fill="black"/>
			<path d="M128 88H120V96H128V88Z" fill="black"/>
			<path d="M128 136H120V144H128V136Z" fill="black"/>
			<path d="M128 144H120V152H128V144Z" fill="black"/>
			<path d="M128 168H120V176H128V168Z" fill="black"/>
			<path d="M128 176H120V184H128V176Z" fill="black"/>
			<path d="M128 184H120V192H128V184Z" fill="black"/>
			<path d="M128 192H120V200H128V192Z" fill="black"/>
			<path d="M136 8H128V16H136V8Z" fill="black"/>
			<path d="M136 32H128V40H136V32Z" fill="black"/>
			<path d="M136 40H128V48H136V40Z" fill="black"/>
			<path d="M136 48H128V56H136V48Z" fill="black"/>
			<path d="M136 64H128V72H136V64Z" fill="black"/>
			<path d="M136 72H128V80H136V72Z" fill="black"/>
			<path d="M136 88H128V96H136V88Z" fill="black"/>
			<path d="M136 120H128V128H136V120Z" fill="black"/>
			<path d="M136 128H128V136H136V128Z" fill="black"/>
			<path d="M136 136H128V144H136V136Z" fill="black"/>
			<path d="M136 144H128V152H136V144Z" fill="black"/>
			<path d="M136 152H128V160H136V152Z" fill="black"/>
			<path d="M136 160H128V168H136V160Z" fill="black"/>
			<path d="M136 168H128V176H136V168Z" fill="black"/>
			<path d="M136 176H128V184H136V176Z" fill="black"/>
			<path d="M136 184H128V192H136V184Z" fill="black"/>
			<path d="M136 192H128V200H136V192Z" fill="black"/>
			<path d="M144 72H136V80H144V72Z" fill="black"/>
			<path d="M144 80H136V88H144V80Z" fill="black"/>
			<path d="M144 88H136V96H144V88Z" fill="black"/>
			<path d="M144 96H136V104H144V96Z" fill="black"/>
			<path d="M144 112H136V120H144V112Z" fill="black"/>
			<path d="M144 120H136V128H144V120Z" fill="black"/>
			<path d="M144 128H136V136H144V128Z" fill="black"/>
			<path d="M144 160H136V168H144V160Z" fill="black"/>
			<path d="M144 192H136V200H144V192Z" fill="black"/>
			<path d="M152 0H144V8H152V0Z" fill="black"/>
			<path d="M152 8H144V16H152V8Z" fill="black"/>
			<path d="M152 16H144V24H152V16Z" fill="black"/>
			<path d="M152 24H144V32H152V24Z" fill="black"/>
			<path d="M152 32H144V40H152V32Z" fill="black"/>
			<path d="M152 40H144V48H152V40Z" fill="black"/>
			<path d="M152 48H144V56H152V48Z" fill="black"/>
			<path d="M152 64H144V72H152V64Z" fill="black"/>
			<path d="M152 72H144V80H152V72Z" fill="black"/>
			<path d="M152 80H144V88H152V80Z" fill="black"/>
			<path d="M152 96H144V104H152V96Z" fill="black"/>
			<path d="M152 104H144V112H152V104Z" fill="black"/>
			<path d="M152 128H144V136H152V128Z" fill="black"/>
			<path d="M152 144H144V152H152V144Z" fill="black"/>
			<path d="M152 160H144V168H152V160Z" fill="black"/>
			<path d="M152 184H144V192H152V184Z" fill="black"/>
			<path d="M152 192H144V200H152V192Z" fill="black"/>
			<path d="M160 0H152V8H160V0Z" fill="black"/>
			<path d="M160 48H152V56H160V48Z" fill="black"/>
			<path d="M160 64H152V72H160V64Z" fill="black"/>
			<path d="M160 80H152V88H160V80Z" fill="black"/>
			<path d="M160 104H152V112H160V104Z" fill="black"/>
			<path d="M160 112H152V120H160V112Z" fill="black"/>
			<path d="M160 128H152V136H160V128Z" fill="black"/>
			<path d="M160 160H152V168H160V160Z" fill="black"/>
			<path d="M160 168H152V176H160V168Z" fill="black"/>
			<path d="M160 176H152V184H160V176Z" fill="black"/>
			<path d="M160 192H152V200H160V192Z" fill="black"/>
			<path d="M168 0H160V8H168V0Z" fill="black"/>
			<path d="M168 16H160V24H168V16Z" fill="black"/>
			<path d="M168 24H160V32H168V24Z" fill="black"/>
			<path d="M168 32H160V40H168V32Z" fill="black"/>
			<path d="M168 48H160V56H168V48Z" fill="black"/>
			<path d="M168 64H160V72H168V64Z" fill="black"/>
			<path d="M168 80H160V88H168V80Z" fill="black"/>
			<path d="M168 112H160V120H168V112Z" fill="black"/>
			<path d="M168 120H160V128H168V120Z" fill="black"/>
			<path d="M168 128H160V136H168V128Z" fill="black"/>
			<path d="M168 136H160V144H168V136Z" fill="black"/>
			<path d="M168 144H160V152H168V144Z" fill="black"/>
			<path d="M168 152H160V160H168V152Z" fill="black"/>
			<path d="M168 160H160V168H168V160Z" fill="black"/>
			<path d="M168 168H160V176H168V168Z" fill="black"/>
			<path d="M168 176H160V184H168V176Z" fill="black"/>
			<path d="M176 0H168V8H176V0Z" fill="black"/>
			<path d="M176 16H168V24H176V16Z" fill="black"/>
			<path d="M176 24H168V32H176V24Z" fill="black"/>
			<path d="M176 32H168V40H176V32Z" fill="black"/>
			<path d="M176 48H168V56H176V48Z" fill="black"/>
			<path d="M176 96H168V104H176V96Z" fill="black"/>
			<path d="M176 104H168V112H176V104Z" fill="black"/>
			<path d="M176 128H168V136H176V128Z" fill="black"/>
			<path d="M176 136H168V144H176V136Z" fill="black"/>
			<path d="M176 144H168V152H176V144Z" fill="black"/>
			<path d="M176 152H168V160H176V152Z" fill="black"/>
			<path d="M176 160H168V168H176V160Z" fill="black"/>
			<path d="M176 168H168V176H176V168Z" fill="black"/>
			<path d="M176 184H168V192H176V184Z" fill="black"/>
			<path d="M184 0H176V8H184V0Z" fill="black"/>
			<path d="M184 16H176V24H184V16Z" fill="black"/>
			<path d="M184 24H176V32H184V24Z" fill="black"/>
			<path d="M184 32H176V40H184V32Z" fill="black"/>
			<path d="M184 48H176V56H184V48Z" fill="black"/>
			<path d="M184 64H176V72H184V64Z" fill="black"/>
			<path d="M184 104H176V112H184V104Z" fill="black"/>
			<path d="M184 112H176V120H184V112Z" fill="black"/>
			<path d="M184 128H176V136H184V128Z" fill="black"/>
			<path d="M184 152H176V160H184V152Z" fill="black"/>
			<path d="M184 168H176V176H184V168Z" fill="black"/>
			<path d="M184 176H176V184H184V176Z" fill="black"/>
			<path d="M192 0H184V8H192V0Z" fill="black"/>
			<path d="M192 48H184V56H192V48Z" fill="black"/>
			<path d="M192 64H184V72H192V64Z" fill="black"/>
			<path d="M192 80H184V88H192V80Z" fill="black"/>
			<path d="M192 96H184V104H192V96Z" fill="black"/>
			<path d="M192 120H184V128H192V120Z" fill="black"/>
			<path d="M192 144H184V152H192V144Z" fill="black"/>
			<path d="M192 152H184V160H192V152Z" fill="black"/>
			<path d="M192 192H184V200H192V192Z" fill="black"/>
			<path d="M200 0H192V8H200V0Z" fill="black"/>
			<path d="M200 8H192V16H200V8Z" fill="black"/>
			<path d="M200 16H192V24H200V16Z" fill="black"/>
			<path d="M200 24H192V32H200V24Z" fill="black"/>
			<path d="M200 32H192V40H200V32Z" fill="black"/>
			<path d="M200 40H192V48H200V40Z" fill="black"/>
			<path d="M200 48H192V56H200V48Z" fill="black"/>
			<path d="M200 72H192V80H200V72Z" fill="black"/>
			<path d="M200 80H192V88H200V80Z" fill="black"/>
			<path d="M200 96H192V104H200V96Z" fill="black"/>
			<path d="M200 104H192V112H200V104Z" fill="black"/>
			<path d="M200 112H192V120H200V112Z" fill="black"/>
			<path d="M200 136H192V144H200V136Z" fill="black"/>
			<path d="M200 144H192V152H200V144Z" fill="black"/>
			<path d="M200 176H192V184H200V176Z" fill="black"/>
			<path d="M200 192H192V200H200V192Z" fill="black"/>
		</g>
	</g>
	<defs>
		<clipPath id="clip0_955_2300">
			<rect width="200" height="200" fill="white"/>
		</clipPath>
	</defs>
</svg>
