<svg width="512" height="211" viewBox="0 0 512 211" fill="none"
    xmlns="http://www.w3.org/2000/svg">
    <g clip-path="url(#clip0_1719_3173)">
        <path d="M93.6 27.1C87.6 34.2 78 39.8 68.4 39C67.2 29.4 71.9 19.2 77.4 12.9C83.4 5.6 93.9 0.4 102.4 0C103.4 10 99.5 19.8 93.6 27.1ZM102.3 40.9C88.4 40.1 76.5 48.8 69.9 48.8C63.2 48.8 53.1 41.3 42.1 41.5C27.8 41.7 14.5 49.8 7.2 62.7C-7.8 88.5 3.3 126.7 17.8 147.7C24.9 158.1 33.4 169.5 44.6 169.1C55.2 168.7 59.4 162.2 72.2 162.2C85.1 162.2 88.8 169.1 100 168.9C111.6 168.7 118.9 158.5 126 148.1C134.1 136.3 137.4 124.8 137.6 124.2C137.4 124 115.2 115.5 115 89.9C114.8 68.5 132.5 58.3 133.3 57.7C123.3 42.9 107.7 41.3 102.3 40.9ZM182.6 11.9V167.8H206.8V114.5H240.3C270.9 114.5 292.4 93.5 292.4 63.1C292.4 32.7 271.3 11.9 241.1 11.9H182.6ZM206.8 32.3H234.7C255.7 32.3 267.7 43.5 267.7 63.2C267.7 82.9 255.7 94.2 234.6 94.2H206.8V32.3ZM336.6 169C351.8 169 365.9 161.3 372.3 149.1H372.8V167.8H395.2V90.2C395.2 67.7 377.2 53.2 349.5 53.2C323.8 53.2 304.8 67.9 304.1 88.1H325.9C327.7 78.5 336.6 72.2 348.8 72.2C363.6 72.2 371.9 79.1 371.9 91.8V100.4L341.7 102.2C313.6 103.9 298.4 115.4 298.4 135.4C298.4 155.6 314.1 169 336.6 169ZM343.1 150.5C330.2 150.5 322 144.3 322 134.8C322 125 329.9 119.3 345 118.4L371.9 116.7V125.5C371.9 140.1 359.5 150.5 343.1 150.5ZM425.1 210.2C448.7 210.2 459.8 201.2 469.5 173.9L512 54.7H487.4L458.9 146.8H458.4L429.9 54.7H404.6L445.6 168.2L443.4 175.1C439.7 186.8 433.7 191.3 423 191.3C421.1 191.3 417.4 191.1 415.9 190.9V209.6C417.3 210 423.3 210.2 425.1 210.2Z" fill="black"/>
    </g>
    <defs>
        <clipPath id="clip0_1719_3173">
            <rect width="512" height="210.2" fill="white"/>
        </clipPath>
    </defs>
</svg>
