<svg width="512" height="512" viewBox="0 0 512 512" fill="none"
    xmlns="http://www.w3.org/2000/svg">
    <g clip-path="url(#clip0_1720_3217)">
        <path d="M384 0H128C57.3075 0 0 57.3075 0 128V384C0 454.691 57.3075 512 128 512H384C454.691 512 512 454.691 512 384V128C512 57.3075 454.691 0 384 0Z" fill="url(#paint0_linear_1720_3217)"/>
        <path d="M269.016 169.528C293.657 169.615 317.478 178.385 336.293 194.297C338.245 196.067 340.798 197.025 343.432 196.976C346.066 196.925 348.581 195.871 350.462 194.028L369.662 174.521C370.635 173.556 371.4 172.4 371.906 171.125C372.411 169.851 372.648 168.486 372.603 167.115C372.555 165.745 372.226 164.4 371.634 163.163C371.042 161.926 370.2 160.825 369.163 159.928C353.963 147.003 336.395 137.156 317.439 130.937L323.506 102.252C323.81 100.782 323.781 99.2642 323.422 97.8072C323.064 96.3502 322.386 94.9915 321.438 93.8293C320.488 92.6674 319.292 91.7314 317.936 91.0891C316.581 90.4472 315.099 90.1151 313.599 90.1173H276.12C273.8 90.1157 271.55 90.9064 269.741 92.3592C267.932 93.8117 266.674 95.8389 266.175 98.1045L260.722 123.602C210.802 126.06 168.562 150.712 168.562 201.247C168.562 244.985 203.468 263.724 240.37 276.703C275.276 289.682 293.708 294.482 293.708 312.761C293.708 331.04 275.276 342.56 248.127 342.56C221.768 342.976 196.305 333.002 177.24 314.796C175.34 312.943 172.791 311.906 170.136 311.906C167.482 311.906 164.933 312.943 163.032 314.796L142.181 335.149C141.209 336.087 140.436 337.21 139.908 338.455C139.38 339.699 139.108 341.034 139.108 342.387C139.108 343.738 139.38 345.075 139.908 346.317C140.436 347.562 141.209 348.685 142.181 349.626C159.147 365.629 179.886 377.085 202.469 382.919L196.863 409.607C196.559 411.088 196.584 412.618 196.936 414.09C197.287 415.562 197.957 416.941 198.898 418.125C199.838 419.312 201.027 420.279 202.38 420.954C203.734 421.632 205.219 422.003 206.732 422.048H244.479C246.814 422.074 249.086 421.293 250.912 419.837C252.738 418.384 254.006 416.343 254.501 414.061L259.916 388.487C319.551 384.647 355.915 352.736 355.915 305.695C355.915 262.457 319.512 244.255 275.276 229.279C250.047 220.14 228.236 213.919 228.236 195.141C228.236 176.364 248.626 169.528 269.016 169.528Z" fill="white"/>
    </g>
    <defs>
        <linearGradient id="paint0_linear_1720_3217" x1="0" y1="256" x2="512" y2="256" gradientUnits="userSpaceOnUse">
            <stop stop-color="#00C244"/>
            <stop offset="1" stop-color="#00D64B"/>
        </linearGradient>
        <clipPath id="clip0_1720_3217">
            <rect width="512" height="512" fill="white"/>
        </clipPath>
    </defs>
</svg>
