<svg width="441" height="210" viewBox="0 0 441 210" fill="none"
    xmlns="http://www.w3.org/2000/svg">
    <g clip-path="url(#clip0_1719_3186)">
        <path d="M208.347 108.583V159.843H191.811V33.0709H234.803C245.276 33.0709 255.197 36.9292 262.914 44.0945C270.63 50.7087 274.488 60.63 274.488 71.1024C274.488 81.5749 270.63 90.9449 262.914 98.1103C255.197 105.276 245.827 109.134 234.803 109.134L208.347 108.583ZM208.347 48.504V92.5985H235.906C241.969 92.5985 248.032 90.3938 251.89 85.9843C260.709 77.7166 260.709 63.9371 252.441 55.6694L251.89 55.1182C247.481 50.7087 241.969 47.9528 235.906 48.504H208.347Z" fill="#5F6368"/>
        <path d="M312.52 70.55C324.646 70.55 334.016 73.8571 341.181 80.4713C348.347 87.0855 351.654 95.9044 351.654 106.928V159.841H336.221V147.715H335.67C329.055 157.637 319.685 162.597 308.662 162.597C299.292 162.597 291.024 159.841 284.41 154.33C278.347 148.818 274.489 141.101 274.489 132.834C274.489 124.015 277.796 116.849 284.41 111.337C291.024 105.826 300.394 103.621 311.418 103.621C321.339 103.621 329.055 105.274 335.118 109.133V105.274C335.118 99.7626 332.914 94.2508 328.504 90.9437C324.095 87.0855 318.583 84.8808 312.52 84.8808C303.15 84.8808 295.985 88.739 291.024 96.4556L276.693 87.6367C285.512 76.0619 297.087 70.55 312.52 70.55ZM291.575 133.385C291.575 137.794 293.78 141.652 297.087 143.857C300.945 146.613 305.355 148.267 309.764 148.267C316.378 148.267 322.992 145.511 327.953 140.55C333.465 135.589 336.221 129.526 336.221 122.912C331.26 119.054 324.095 116.849 314.725 116.849C308.111 116.849 302.599 118.503 298.189 121.81C293.78 124.566 291.575 128.424 291.575 133.385Z" fill="#5F6368"/>
        <path d="M440.945 73.306L386.378 198.424H369.843L390.236 154.881L354.41 73.8572H372.047L397.953 136.141H398.504L423.858 73.8572H440.945V73.306Z" fill="#5F6368"/>
        <path d="M142.756 97.559C142.756 92.5984 142.204 87.6378 141.653 82.6771H72.7556V110.787H111.889C110.236 119.606 105.275 127.874 97.5588 132.835V151.024H121.26C135.039 138.346 142.756 119.606 142.756 97.559Z" fill="#4285F4"/>
        <path d="M72.7554 168.661C92.598 168.661 109.133 162.047 121.259 151.023L97.5586 132.834C90.9444 137.244 82.6767 140 72.7554 140C54.0153 140 37.4798 127.322 31.968 109.685H7.71606V128.425C20.3932 153.228 45.1964 168.661 72.7554 168.661Z" fill="#34A853"/>
        <path d="M31.9691 109.685C28.662 100.866 28.662 90.9443 31.9691 81.5743V62.8341H7.71712C-2.75532 83.2278 -2.75532 107.48 7.71712 128.425L31.9691 109.685Z" fill="#FBBC04"/>
        <path d="M72.756 51.8122C83.2285 51.8122 93.1497 55.6704 100.866 62.8358L121.811 41.8909C108.583 29.7649 90.945 22.5996 73.3072 23.1507C45.7481 23.1507 20.3938 38.5838 8.26782 63.387L32.5198 82.1271C37.4804 64.4893 54.0159 51.8122 72.756 51.8122Z" fill="#EA4335"/>
    </g>
    <defs>
        <clipPath id="clip0_1719_3186">
            <rect width="440.945" height="210" fill="white"/>
        </clipPath>
    </defs>
</svg>
