<svg width="297" height="187" viewBox="0 0 297 187" fill="none"
    xmlns="http://www.w3.org/2000/svg">
    <path d="M187.17 24.3955H109.833V163.366H187.17V24.3955Z" fill="#FF5F00"/>
    <path d="M114.745 93.8811C114.733 80.4974 117.765 67.2858 123.614 55.2474C129.463 43.209 137.974 32.6589 148.502 24.3957C135.464 14.1476 119.805 7.77472 103.316 6.00482C86.8263 4.23492 70.1717 7.14002 55.2552 14.3879C40.3392 21.6358 27.7629 32.9339 18.9646 46.9914C10.1657 61.0483 5.5 77.2975 5.5 93.8811C5.5 110.465 10.1657 126.713 18.9646 140.771C27.7629 154.828 40.3392 166.126 55.2552 173.374C70.1717 180.622 86.8263 183.527 103.316 181.757C119.805 179.987 135.464 173.614 148.502 163.366C137.974 155.103 129.463 144.553 123.614 132.514C117.765 120.476 114.733 107.265 114.745 93.8811Z" fill="#EB001B"/>
    <path d="M291.5 93.8811C291.501 110.464 286.836 126.713 278.038 140.77C269.24 154.828 256.664 166.126 241.748 173.374C226.832 180.622 210.178 183.527 193.688 181.757C177.2 179.987 161.541 173.614 148.503 163.366C159.022 155.094 167.526 144.543 173.374 132.506C179.221 120.47 182.26 107.263 182.26 93.8811C182.26 80.499 179.221 67.2919 173.374 55.2557C167.526 43.2189 159.022 32.6672 148.503 24.3957C161.541 14.1476 177.2 7.77417 193.688 6.00482C210.178 4.23492 226.832 7.14002 241.748 14.3879C256.664 21.6358 269.24 32.9345 278.038 46.9914C286.836 61.0488 291.501 77.2975 291.5 93.8811Z" fill="#F79E1B"/>
    <path d="M283.068 148.646V145.801H284.215V145.222H281.293V145.801H282.441V148.646H283.068ZM288.74 148.646V145.216H287.845L286.815 147.575L285.784 145.216H284.888V148.646H285.521V146.059L286.487 148.29H287.143L288.108 146.053V148.646H288.74Z" fill="#F79E1B"/>
</svg>
