<svg width="863" height="210" viewBox="0 0 863 210" fill="none"
    xmlns="http://www.w3.org/2000/svg">
    <g clip-path="url(#clip0_1719_3175)">
        <path d="M329.652 89.4159C327.416 106.183 314.003 106.183 301.707 106.183H295.001L300.589 73.7673C300.589 71.5318 302.825 70.4135 305.06 70.4135H308.414C317.356 70.4135 325.181 70.4135 329.652 74.8845C329.652 79.3566 329.652 83.8276 329.652 89.4159ZM324.063 44.7046H275.998C272.645 44.7046 270.409 46.9401 269.291 50.2939L250.289 173.25C250.289 175.487 251.407 177.722 254.76 177.722H277.116C280.469 177.722 282.705 175.487 283.822 172.133L289.412 138.599C289.412 135.245 292.765 133.01 296.118 133.01H311.768C343.066 133.01 360.95 117.361 366.539 87.1804C368.775 73.7673 366.539 63.707 360.95 55.8822C352.008 49.1756 339.712 44.7046 324.063 44.7046Z" fill="#001C64"/>
        <path d="M434.723 134.131C432.487 147.544 422.428 156.487 409.014 156.487C402.308 156.487 396.718 154.25 393.365 149.779C390.012 145.308 388.893 139.72 390.012 134.131C392.247 120.717 402.308 111.774 415.722 111.774C422.428 111.774 428.016 114.01 431.37 118.481C433.606 121.835 435.841 127.424 434.723 134.131ZM466.022 89.4184H443.666C441.431 89.4184 440.312 90.5366 439.194 92.7721L438.077 99.4787L436.959 97.2431C432.487 90.5366 421.31 87.1829 410.132 87.1829C384.423 87.1829 363.185 106.186 358.714 133.012C356.478 146.426 359.832 158.722 367.656 167.664C374.363 175.489 384.422 178.842 396.718 178.842C416.839 178.842 428.016 165.429 428.016 165.429L426.899 172.135C426.899 174.371 428.016 176.606 431.37 176.606H451.49C454.844 176.606 457.079 174.371 458.197 171.017L470.493 92.7721C470.493 91.6548 469.375 89.4184 466.022 89.4184Z" fill="#001C64"/>
        <path d="M587.859 89.4203H564.386C562.15 89.4203 559.915 90.5375 558.796 92.7731L527.498 139.721L514.085 95.0086C512.967 91.6558 510.731 90.5375 507.379 90.5375H485.022C482.787 90.5375 480.551 92.7731 481.669 96.1268L507.379 169.901L483.904 203.434C481.669 205.67 483.904 210.141 487.258 210.141H510.731C512.967 210.141 515.202 209.024 516.321 206.788L592.33 96.1268C593.448 92.7731 591.213 89.4203 587.859 89.4203Z" fill="#001C64"/>
        <path d="M669.458 89.4159C667.223 106.183 653.809 106.183 641.513 106.183H634.806L640.396 73.7673C640.396 71.5318 642.631 70.4135 644.867 70.4135H648.22C657.162 70.4135 664.987 70.4135 669.458 74.8845C670.575 79.3566 670.575 83.8276 669.458 89.4159ZM663.869 44.7046H615.804C612.451 44.7046 610.215 46.9401 609.097 50.2939L590.095 173.25C590.095 175.487 591.212 177.722 594.566 177.722H619.158C621.393 177.722 623.629 176.604 623.629 173.25L629.217 138.599C629.217 135.245 632.571 133.01 635.925 133.01H651.573C682.871 133.01 700.756 117.361 706.345 87.1804C708.581 73.7673 706.345 63.707 700.756 55.8822C692.932 49.1756 680.636 44.7046 663.869 44.7046Z" fill="#2199D6"/>
        <path d="M775.648 134.131C773.413 147.544 763.352 156.487 749.939 156.487C743.233 156.487 737.643 154.25 734.291 149.779C730.937 145.308 729.819 139.72 730.937 134.131C733.172 120.717 743.233 111.774 756.646 111.774C763.353 111.774 768.942 114.01 772.295 118.481C774.531 121.835 776.766 127.424 775.648 134.131ZM806.946 89.4184H784.591C782.356 89.4184 781.237 90.5366 780.119 92.7721L779.002 99.4787L777.884 97.2431C773.413 90.5366 762.235 87.1829 751.057 87.1829C725.348 87.1829 704.11 106.186 699.639 133.012C697.403 146.426 700.756 158.722 708.581 167.664C715.287 175.489 725.348 178.842 737.643 178.842C757.764 178.842 768.942 165.429 768.942 165.429L767.824 172.135C767.824 174.371 768.942 176.606 772.295 176.606H792.415C795.769 176.606 798.004 174.371 799.122 171.017L811.417 92.7721C811.417 91.6548 809.182 89.4184 806.946 89.4184Z" fill="#2199D6"/>
        <path d="M833.771 48.0584L813.652 173.25C813.652 175.487 814.771 177.722 818.125 177.722H838.244C841.599 177.722 843.835 175.487 844.954 172.133L863.954 49.1756C863.954 46.9401 862.836 44.7046 859.481 44.7046H837.126C836.008 44.7046 834.889 46.9401 833.771 48.0584Z" fill="#2199D6"/>
        <path d="M51.3209 201.198L54.6747 177.725H46.8499H7.72693L34.5541 6.70237C34.5541 6.70237 34.5541 5.58411 35.6723 5.58411H36.7896H102.74C123.978 5.58411 139.626 10.0551 147.451 18.9982C150.805 23.4692 153.04 27.9402 154.158 32.4113C155.276 38.0005 155.276 43.5888 154.158 51.4136V55.8847L157.511 58.1202C160.865 59.2384 163.101 61.4739 165.336 63.7095C168.689 67.0632 170.924 71.5343 170.924 77.1235C172.043 82.7118 172.043 89.4184 169.807 97.2432C167.572 106.185 165.336 112.893 161.982 119.599C158.629 125.188 154.158 129.66 149.687 134.131C145.216 137.483 138.509 139.719 132.92 141.954C126.213 143.073 119.507 144.191 111.682 144.191H106.093C102.74 144.191 99.386 145.308 96.0332 147.544C93.7977 149.779 91.5612 153.133 90.4439 156.486V158.721L83.7374 200.08V201.198V202.315C83.7374 202.315 83.7374 202.315 82.6191 202.315H51.3209V201.198Z" fill="#001C64"/>
        <path d="M161.98 51.4116C161.98 52.5299 161.98 53.6471 160.863 54.7654C151.92 99.4766 122.859 114.008 84.8538 114.008H65.8504C61.3794 114.008 56.9084 117.362 56.9084 121.833L46.8481 184.429L44.6125 202.313C44.6125 205.667 46.8481 207.903 49.0836 207.903H83.7355C88.2066 207.903 91.5603 204.549 91.5603 201.196V198.961L98.2669 158.719V156.484C99.3841 152.013 102.738 149.777 106.092 149.777H111.68C145.214 149.777 170.924 136.364 177.63 97.2411C180.983 80.4743 178.747 67.0612 170.924 58.1182C168.688 55.8827 165.334 53.6471 161.98 51.4116Z" fill="#2199D6"/>
        <path d="M153.04 48.0584C151.922 48.0584 150.805 46.9401 148.569 46.9401C147.451 46.9401 145.216 45.8228 144.098 45.8228C138.509 44.7046 132.92 44.7046 127.332 44.7046H75.9128C74.7955 44.7046 73.6773 44.7046 72.559 45.8228C70.3235 46.9401 68.088 49.1756 68.088 51.4111L56.9104 120.714V122.95C58.0287 118.479 61.3814 115.126 65.8525 115.126H84.8548C122.861 115.126 151.922 99.4762 160.865 55.8822C160.865 54.7649 160.865 53.6466 161.983 52.5294C159.747 51.4111 157.512 50.2939 155.276 49.1756C154.158 48.0584 153.04 48.0584 153.04 48.0584Z" fill="#001C64"/>
        <path d="M68.0879 51.413C68.0879 49.1775 70.3234 46.942 72.559 45.8237C73.6772 45.8237 74.7945 44.7065 75.9127 44.7065H127.331C132.92 44.7065 139.626 44.7065 144.097 45.8237C145.216 45.8237 147.451 45.8237 148.568 46.942C149.687 46.942 150.804 48.0592 153.04 48.0592C154.158 48.0592 154.158 48.0593 155.276 49.1775C157.511 50.2958 159.747 51.413 161.983 52.5313C164.218 35.7644 161.982 24.5859 153.04 14.5256C142.98 3.34799 125.095 -1.12305 102.739 -1.12305H36.7897C32.3187 -1.12305 27.8477 2.23073 27.8477 6.70176L1.02051 178.841C1.02051 182.195 3.25603 185.548 6.60979 185.548H46.85L56.9103 120.716L68.0879 51.413Z" fill="#001C64"/>
    </g>
    <defs>
        <clipPath id="clip0_1719_3175">
            <rect width="862.771" height="210" fill="white"/>
        </clipPath>
    </defs>
</svg>
