<svg width="538" height="187" viewBox="0 0 538 187" fill="none"
    xmlns="http://www.w3.org/2000/svg">
    <path fill-rule="evenodd" clip-rule="evenodd" d="M138.918 176.633H93.8852L60.1162 44.0131C58.5137 37.9128 55.1103 32.5191 50.1044 29.9775C37.6112 23.5894 23.8447 18.5054 8.82617 15.9419V10.836H81.37C91.3826 10.836 98.8919 18.5055 100.143 27.4132L117.664 123.077L162.675 10.836H206.457L138.918 176.633ZM231.479 176.633H188.949L223.971 10.836H266.5L231.479 176.633ZM321.541 56.7413C322.793 47.8116 330.302 42.7057 339.062 42.7057C352.83 41.4235 367.826 43.9878 380.341 50.354L387.85 14.6565C375.335 9.55059 361.568 6.98706 349.075 6.98706C307.797 6.98706 277.761 29.9523 277.761 61.8252C277.761 86.0726 299.036 98.804 314.054 106.474C330.302 114.122 336.56 119.228 335.308 126.875C335.308 138.347 322.793 143.453 310.299 143.453C295.282 143.453 280.263 139.629 266.519 133.241L259.009 168.96C274.028 175.326 290.276 177.89 305.294 177.89C351.578 179.15 380.341 156.207 380.341 121.769C380.341 78.4024 321.541 75.8608 321.541 56.7413ZM529.158 176.633L495.388 10.836H459.116C451.607 10.836 444.098 15.9419 441.595 23.5894L379.063 176.633H422.844L431.583 152.408H485.376L490.382 176.633H529.158ZM465.379 55.4664L477.873 117.953H442.852L465.379 55.4664Z" fill="#001C64"/>
</svg>
