<svg width="585" height="550" viewBox="0 0 585 550" fill="none"
    xmlns="http://www.w3.org/2000/svg">
    <g clip-path="url(#clip0_1720_3392)">
        <mask id="mask0_1720_3392" style="mask-type:luminance" maskUnits="userSpaceOnUse" x="0" y="0" width="585" height="550">
            <path d="M0.1875 0H584.562V550H0.1875V0Z" fill="white"/>
        </mask>
        <g mask="url(#mask0_1720_3392)">
            <path fill-rule="evenodd" clip-rule="evenodd" d="M530.113 136.572L529.597 135.988C475.25 73.1844 388.316 34.375 292.719 34.375C137.653 34.375 0.1875 138.05 0.1875 279.881C0.1875 352.138 37.5188 416.006 93.55 459.869L91.1437 468.6C89.1276 476.205 87.1223 483.814 85.1281 491.425C83.5958 496.349 82.7627 501.463 82.6531 506.619V506.687C82.5477 514.469 84.5748 522.132 88.5147 528.844C92.4547 535.555 98.157 541.06 105.003 544.761C111.85 548.463 119.579 550.219 127.352 549.839C135.125 549.46 142.647 546.96 149.1 542.609L201.419 512.566C230.953 520.73 261.458 524.847 292.1 524.803C446.444 524.803 584.562 421.162 584.562 279.297V279.056C584.294 241.873 574.482 205.382 556.066 173.078" fill="white"/>
            <path d="M222.181 351.416C219.769 352.613 217.105 353.214 214.412 353.169C211.358 353.189 208.354 352.382 205.721 350.832C203.089 349.283 200.925 347.049 199.459 344.369L198.291 342.031L151.059 241.175C150.574 240.062 150.373 238.845 150.475 237.634C150.453 236.547 150.655 235.467 151.069 234.462C151.483 233.456 152.1 232.547 152.881 231.791C153.667 231.025 154.598 230.424 155.619 230.023C156.64 229.621 157.731 229.428 158.828 229.453C160.753 229.453 162.644 230.106 164.225 231.172L219.775 269.913C224.106 272.491 229.056 273.9 234.109 274.038C237.203 274.003 240.228 273.384 243.081 272.25L503.644 158.469C456.344 103.95 379.275 68.75 292.65 68.75C149.891 68.75 34.5625 163.178 34.5625 279.881C34.5625 343.2 69.2125 400.675 123.594 439.381C126.676 441.281 128.975 444.223 130.073 447.673C131.17 451.124 130.994 454.853 129.575 458.184C125.381 473.997 118.231 499.847 118.231 500.981C117.489 503.058 117.083 505.239 117.028 507.444C117.006 508.531 117.208 509.611 117.622 510.617C118.036 511.622 118.653 512.531 119.434 513.288C120.22 514.053 121.151 514.654 122.172 515.055C123.193 515.457 124.284 515.65 125.381 515.625C127.14 515.673 128.85 515.046 130.159 513.872L186.328 481.594C190.49 479.08 195.22 477.661 200.078 477.469C202.691 477.606 205.303 477.984 207.812 478.672C235.208 486.516 263.569 490.473 292.066 490.428C434.275 490.428 550.188 396 550.188 279.297C549.929 244.532 539.77 210.561 520.9 181.363L223.969 350.247L222.181 351.416Z" fill="#1AAD19"/>
        </g>
    </g>
    <defs>
        <clipPath id="clip0_1720_3392">
            <rect width="584.375" height="550" fill="white" transform="translate(0.1875)"/>
        </clipPath>
    </defs>
</svg>
