<svg width="616" height="833" viewBox="0 0 616 833" fill="none" xmlns="http://www.w3.org/2000/svg">
<rect width="616" height="832.691" fill="white"/>
<path d="M66.2141 112.864H61.7851L71.7368 85.21H76.5574L86.5092 112.864H82.0802L74.2619 90.2331H74.0459L66.2141 112.864ZM66.9567 102.035H81.324V105.546H66.9567V102.035ZM97.8205 113.283C95.813 113.283 94.0846 112.828 92.6353 111.919C91.195 111.001 90.0877 109.736 89.3135 108.125C88.5394 106.513 88.1523 104.668 88.1523 102.588C88.1523 100.482 88.5484 98.6231 89.3405 97.0117C90.1327 95.3913 91.249 94.1265 92.6893 93.2173C94.1296 92.3081 95.8265 91.8535 97.78 91.8535C99.3553 91.8535 100.76 92.1461 101.993 92.7312C103.226 93.3073 104.221 94.1175 104.977 95.1618C105.742 96.206 106.197 97.4258 106.341 98.8211H102.412C102.195 97.8489 101.7 97.0117 100.926 96.3095C100.161 95.6074 99.1348 95.2563 97.8475 95.2563C96.7222 95.2563 95.7365 95.5534 94.8903 96.1475C94.0531 96.7326 93.4005 97.5698 92.9324 98.6591C92.4643 99.7393 92.2302 101.018 92.2302 102.494C92.2302 104.006 92.4598 105.312 92.9189 106.41C93.378 107.508 94.0261 108.359 94.8633 108.962C95.7095 109.565 96.7042 109.867 97.8475 109.867C98.6127 109.867 99.3058 109.727 99.927 109.448C100.557 109.16 101.084 108.75 101.507 108.219C101.939 107.688 102.24 107.049 102.412 106.302H106.341C106.197 107.643 105.76 108.84 105.031 109.894C104.302 110.947 103.325 111.775 102.101 112.378C100.886 112.981 99.4589 113.283 97.8205 113.283ZM119.58 92.1236V95.3643H108.251V92.1236H119.58ZM111.289 87.1544H115.326V106.774C115.326 107.558 115.443 108.147 115.677 108.543C115.911 108.93 116.213 109.196 116.582 109.34C116.96 109.475 117.37 109.543 117.811 109.543C118.135 109.543 118.418 109.52 118.662 109.475C118.905 109.43 119.094 109.394 119.229 109.367L119.958 112.702C119.724 112.792 119.391 112.882 118.959 112.972C118.527 113.071 117.986 113.125 117.338 113.134C116.276 113.152 115.286 112.963 114.368 112.567C113.449 112.171 112.707 111.559 112.14 110.731C111.572 109.903 111.289 108.863 111.289 107.612V87.1544ZM123.285 112.864V92.1236H127.323V112.864H123.285ZM125.324 88.9233C124.622 88.9233 124.019 88.6893 123.515 88.2212C123.02 87.7441 122.772 87.1769 122.772 86.5198C122.772 85.8536 123.02 85.2865 123.515 84.8184C124.019 84.3413 124.622 84.1027 125.324 84.1027C126.027 84.1027 126.625 84.3413 127.12 84.8184C127.624 85.2865 127.876 85.8536 127.876 86.5198C127.876 87.1769 127.624 87.7441 127.12 88.2212C126.625 88.6893 126.027 88.9233 125.324 88.9233ZM149.737 92.1236L142.216 112.864H137.895L130.36 92.1236H134.695L139.947 108.084H140.163L145.403 92.1236H149.737ZM152.771 112.864V92.1236H156.808V112.864H152.771ZM154.81 88.9233C154.108 88.9233 153.505 88.6893 153 88.2212C152.505 87.7441 152.258 87.1769 152.258 86.5198C152.258 85.8536 152.505 85.2865 153 84.8184C153.505 84.3413 154.108 84.1027 154.81 84.1027C155.512 84.1027 156.111 84.3413 156.606 84.8184C157.11 85.2865 157.362 85.8536 157.362 86.5198C157.362 87.1769 157.11 87.7441 156.606 88.2212C156.111 88.6893 155.512 88.9233 154.81 88.9233ZM171.161 92.1236V95.3643H159.832V92.1236H171.161ZM162.87 87.1544H166.908V106.774C166.908 107.558 167.025 108.147 167.259 108.543C167.493 108.93 167.794 109.196 168.163 109.34C168.542 109.475 168.951 109.543 169.392 109.543C169.716 109.543 170 109.52 170.243 109.475C170.486 109.43 170.675 109.394 170.81 109.367L171.539 112.702C171.305 112.792 170.972 112.882 170.54 112.972C170.108 113.071 169.568 113.125 168.92 113.134C167.857 113.152 166.867 112.963 165.949 112.567C165.031 112.171 164.288 111.559 163.721 110.731C163.154 109.903 162.87 108.863 162.87 107.612V87.1544ZM177.419 120.642C176.816 120.642 176.267 120.593 175.772 120.494C175.276 120.404 174.907 120.305 174.664 120.196L175.636 116.888C176.375 117.086 177.032 117.172 177.608 117.145C178.184 117.118 178.693 116.902 179.134 116.497C179.584 116.092 179.98 115.43 180.322 114.512L180.822 113.134L173.233 92.1236H177.554L182.807 108.219H183.023L188.275 92.1236H192.61L184.062 115.632C183.666 116.713 183.162 117.626 182.55 118.374C181.938 119.13 181.209 119.697 180.363 120.075C179.516 120.453 178.535 120.642 177.419 120.642Z" fill="#101010"/>
<rect x="479.111" y="60.8396" width="76.0494" height="76.0494" rx="38.0247" fill="#757575" fill-opacity="0.2"/>
<path d="M521.756 87.3238L533.296 98.8643L521.756 110.405" stroke="#101010" stroke-width="2.85185" stroke-miterlimit="10" stroke-linecap="round" stroke-linejoin="round"/>
<path d="M500.976 98.8643H532.973" stroke="#101010" stroke-width="2.85185" stroke-miterlimit="10" stroke-linecap="round" stroke-linejoin="round"/>
<path d="M83.6549 224.346C94.1552 224.346 102.667 215.834 102.667 205.333C102.667 194.833 94.1552 186.321 83.6549 186.321C73.1547 186.321 64.6426 194.833 64.6426 205.333C64.6426 215.834 73.1547 224.346 83.6549 224.346Z" stroke="#006DED" stroke-width="2.85185" stroke-linecap="round" stroke-linejoin="round"/>
<path d="M83.6543 211.988V200.58" stroke="#006DED" stroke-width="2.85185" stroke-linecap="round" stroke-linejoin="round"/>
<path d="M77.9512 204.383L83.6549 198.679L89.3586 204.383" stroke="#006DED" stroke-width="2.85185" stroke-linecap="round" stroke-linejoin="round"/>
<g opacity="0.5" filter="url(#filter0_f_1346_426)">
<path d="M83.6549 224.346C94.1552 224.346 102.667 215.834 102.667 205.333C102.667 194.833 94.1552 186.321 83.6549 186.321C73.1547 186.321 64.6426 194.833 64.6426 205.333C64.6426 215.834 73.1547 224.346 83.6549 224.346Z" stroke="#006DED" stroke-width="2.85185" stroke-linecap="round" stroke-linejoin="round"/>
<path d="M83.6543 211.988V200.58" stroke="#006DED" stroke-width="2.85185" stroke-linecap="round" stroke-linejoin="round"/>
<path d="M77.9512 204.383L83.6549 198.679L89.3586 204.383" stroke="#006DED" stroke-width="2.85185" stroke-linecap="round" stroke-linejoin="round"/>
</g>
<path d="M127.591 220.749C125.551 220.749 123.729 220.398 122.125 219.695C120.53 218.992 119.268 218.016 118.337 216.769C117.416 215.511 116.921 214.055 116.852 212.402H121.516C121.575 213.303 121.877 214.085 122.422 214.749C122.976 215.402 123.699 215.907 124.59 216.264C125.482 216.62 126.472 216.798 127.561 216.798C128.759 216.798 129.819 216.59 130.74 216.175C131.671 215.759 132.398 215.179 132.923 214.437C133.448 213.684 133.71 212.818 133.71 211.837C133.71 210.817 133.448 209.921 132.923 209.149C132.408 208.367 131.651 207.753 130.651 207.307C129.66 206.861 128.462 206.639 127.056 206.639H124.486V202.896H127.056C128.185 202.896 129.175 202.693 130.027 202.287C130.888 201.881 131.562 201.316 132.047 200.593C132.532 199.861 132.775 199.004 132.775 198.024C132.775 197.083 132.562 196.266 132.136 195.573C131.72 194.87 131.126 194.32 130.354 193.924C129.591 193.528 128.69 193.33 127.65 193.33C126.66 193.33 125.734 193.513 124.873 193.88C124.021 194.236 123.328 194.751 122.793 195.424C122.258 196.088 121.971 196.885 121.932 197.816H117.49C117.54 196.172 118.025 194.726 118.946 193.479C119.877 192.231 121.105 191.255 122.63 190.552C124.155 189.849 125.848 189.498 127.71 189.498C129.66 189.498 131.344 189.879 132.76 190.642C134.186 191.394 135.285 192.399 136.057 193.657C136.84 194.914 137.226 196.291 137.216 197.786C137.226 199.489 136.75 200.935 135.79 202.123C134.839 203.311 133.572 204.109 131.987 204.515V204.752C134.007 205.059 135.572 205.861 136.681 207.159C137.8 208.456 138.355 210.065 138.345 211.986C138.355 213.659 137.889 215.16 136.948 216.486C136.018 217.813 134.745 218.858 133.131 219.621C131.517 220.373 129.67 220.749 127.591 220.749ZM144.148 220.333L157.427 194.073V193.85H142.068V189.914H162.18V193.984L148.945 220.333H144.148Z" fill="#101010"/>
<path d="M183.879 214.63V213.026C183.879 211.877 184.116 210.827 184.592 209.877C185.077 208.916 185.78 208.149 186.701 207.574C187.632 206.99 188.755 206.698 190.072 206.698C191.419 206.698 192.548 206.985 193.459 207.56C194.37 208.134 195.058 208.901 195.524 209.862C195.999 210.822 196.237 211.877 196.237 213.026V214.63C196.237 215.778 195.999 216.833 195.524 217.794C195.048 218.744 194.35 219.512 193.429 220.096C192.518 220.67 191.399 220.957 190.072 220.957C188.736 220.957 187.607 220.67 186.686 220.096C185.765 219.512 185.067 218.744 184.592 217.794C184.116 216.833 183.879 215.778 183.879 214.63ZM187.339 213.026V214.63C187.339 215.481 187.542 216.254 187.948 216.947C188.354 217.64 189.062 217.987 190.072 217.987C191.073 217.987 191.771 217.64 192.167 216.947C192.563 216.254 192.761 215.481 192.761 214.63V213.026C192.761 212.174 192.568 211.402 192.182 210.708C191.805 210.015 191.102 209.669 190.072 209.669C189.082 209.669 188.379 210.015 187.963 210.708C187.547 211.402 187.339 212.174 187.339 213.026ZM168.58 197.222V195.617C168.58 194.469 168.817 193.414 169.293 192.454C169.778 191.493 170.481 190.726 171.402 190.151C172.333 189.577 173.456 189.29 174.773 189.29C176.12 189.29 177.249 189.577 178.16 190.151C179.071 190.726 179.759 191.493 180.225 192.454C180.69 193.414 180.923 194.469 180.923 195.617V197.222C180.923 198.37 180.685 199.425 180.21 200.385C179.744 201.336 179.051 202.103 178.13 202.688C177.219 203.262 176.1 203.549 174.773 203.549C173.427 203.549 172.293 203.262 171.372 202.688C170.461 202.103 169.768 201.336 169.293 200.385C168.817 199.425 168.58 198.37 168.58 197.222ZM172.055 195.617V197.222C172.055 198.073 172.253 198.846 172.649 199.539C173.055 200.232 173.763 200.578 174.773 200.578C175.764 200.578 176.457 200.232 176.853 199.539C177.259 198.846 177.462 198.073 177.462 197.222V195.617C177.462 194.766 177.269 193.993 176.883 193.3C176.496 192.607 175.793 192.261 174.773 192.261C173.783 192.261 173.08 192.607 172.664 193.3C172.258 193.993 172.055 194.766 172.055 195.617ZM169.991 220.333L190.904 189.914H194.454L173.541 220.333H169.991Z" fill="#101010"/>
<path d="M63.0814 245.531L67.1863 257.171H67.3483L71.4533 245.531H73.2087L68.1315 259.358H66.4031L61.326 245.531H63.0814ZM81.6194 251.31L80.1881 251.715C80.0981 251.477 79.9653 251.245 79.7897 251.02C79.6187 250.79 79.3846 250.601 79.0876 250.453C78.7905 250.304 78.4102 250.23 77.9466 250.23C77.3119 250.23 76.7831 250.376 76.36 250.669C75.9414 250.957 75.7321 251.324 75.7321 251.769C75.7321 252.166 75.8761 252.478 76.1642 252.708C76.4522 252.937 76.9023 253.129 77.5145 253.282L79.0538 253.66C79.981 253.885 80.6719 254.229 81.1265 254.693C81.5811 255.152 81.8084 255.744 81.8084 256.468C81.8084 257.063 81.6374 257.594 81.2953 258.062C80.9578 258.53 80.4851 258.899 79.8775 259.169C79.2699 259.439 78.5632 259.574 77.7575 259.574C76.6998 259.574 75.8243 259.345 75.1312 258.886C74.438 258.426 73.9992 257.756 73.8146 256.874L75.327 256.495C75.471 257.054 75.7433 257.472 76.1439 257.751C76.549 258.03 77.0779 258.17 77.7305 258.17C78.4732 258.17 79.0628 258.012 79.4994 257.697C79.9405 257.378 80.1611 256.995 80.1611 256.55C80.1611 256.189 80.035 255.888 79.783 255.645C79.5309 255.397 79.1438 255.213 78.6217 255.091L76.8933 254.686C75.9436 254.461 75.2459 254.112 74.8003 253.64C74.3592 253.162 74.1387 252.566 74.1387 251.85C74.1387 251.265 74.303 250.748 74.6316 250.298C74.9646 249.847 75.417 249.494 75.9886 249.238C76.5648 248.981 77.2174 248.853 77.9466 248.853C78.9728 248.853 79.7785 249.078 80.3636 249.528C80.9533 249.978 81.3718 250.572 81.6194 251.31ZM85.3682 259.466C85.0351 259.466 84.7493 259.347 84.5108 259.108C84.2722 258.87 84.1529 258.584 84.1529 258.251C84.1529 257.918 84.2722 257.632 84.5108 257.393C84.7493 257.155 85.0351 257.036 85.3682 257.036C85.7013 257.036 85.9871 257.155 86.2256 257.393C86.4642 257.632 86.5835 257.918 86.5835 258.251C86.5835 258.471 86.5272 258.674 86.4147 258.859C86.3067 259.043 86.1604 259.192 85.9758 259.304C85.7958 259.412 85.5933 259.466 85.3682 259.466ZM93.8178 245.531H95.7352L99.5701 251.985H99.7321L103.567 245.531H105.484L100.488 253.66V259.358H98.8139V253.66L93.8178 245.531ZM110.315 259.574C109.316 259.574 108.454 259.354 107.729 258.913C107.009 258.467 106.453 257.846 106.062 257.049C105.675 256.248 105.481 255.316 105.481 254.254C105.481 253.192 105.675 252.256 106.062 251.445C106.453 250.631 106.998 249.996 107.696 249.541C108.398 249.082 109.217 248.853 110.153 248.853C110.693 248.853 111.227 248.943 111.753 249.123C112.28 249.303 112.759 249.595 113.191 250.001C113.623 250.401 113.968 250.932 114.224 251.594C114.481 252.256 114.609 253.07 114.609 254.038V254.713H106.615V253.336H112.989C112.989 252.751 112.872 252.229 112.638 251.769C112.408 251.31 112.08 250.948 111.652 250.682C111.229 250.417 110.729 250.284 110.153 250.284C109.518 250.284 108.969 250.442 108.506 250.757C108.047 251.067 107.693 251.472 107.446 251.972C107.198 252.472 107.074 253.007 107.074 253.579V254.497C107.074 255.28 107.209 255.944 107.48 256.489C107.754 257.029 108.134 257.441 108.621 257.724C109.107 258.003 109.672 258.143 110.315 258.143C110.734 258.143 111.112 258.084 111.449 257.967C111.791 257.846 112.086 257.666 112.334 257.427C112.581 257.184 112.773 256.883 112.908 256.523L114.447 256.955C114.285 257.477 114.013 257.936 113.63 258.332C113.248 258.724 112.775 259.03 112.212 259.25C111.65 259.466 111.017 259.574 110.315 259.574ZM124.379 251.31L122.947 251.715C122.857 251.477 122.724 251.245 122.549 251.02C122.378 250.79 122.144 250.601 121.847 250.453C121.55 250.304 121.169 250.23 120.706 250.23C120.071 250.23 119.542 250.376 119.119 250.669C118.701 250.957 118.491 251.324 118.491 251.769C118.491 252.166 118.635 252.478 118.923 252.708C119.211 252.937 119.662 253.129 120.274 253.282L121.813 253.66C122.74 253.885 123.431 254.229 123.886 254.693C124.34 255.152 124.568 255.744 124.568 256.468C124.568 257.063 124.397 257.594 124.055 258.062C123.717 258.53 123.244 258.899 122.637 259.169C122.029 259.439 121.322 259.574 120.517 259.574C119.459 259.574 118.584 259.345 117.89 258.886C117.197 258.426 116.758 257.756 116.574 256.874L118.086 256.495C118.23 257.054 118.503 257.472 118.903 257.751C119.308 258.03 119.837 258.17 120.49 258.17C121.232 258.17 121.822 258.012 122.259 257.697C122.7 257.378 122.92 256.995 122.92 256.55C122.92 256.189 122.794 255.888 122.542 255.645C122.29 255.397 121.903 255.213 121.381 255.091L119.653 254.686C118.703 254.461 118.005 254.112 117.56 253.64C117.118 253.162 116.898 252.566 116.898 251.85C116.898 251.265 117.062 250.748 117.391 250.298C117.724 249.847 118.176 249.494 118.748 249.238C119.324 248.981 119.977 248.853 120.706 248.853C121.732 248.853 122.538 249.078 123.123 249.528C123.712 249.978 124.131 250.572 124.379 251.31ZM131.476 248.988V250.338H126.102V248.988H131.476ZM127.668 246.503H129.262V256.387C129.262 256.838 129.327 257.175 129.457 257.4C129.592 257.621 129.764 257.769 129.971 257.846C130.182 257.918 130.405 257.954 130.639 257.954C130.815 257.954 130.959 257.945 131.071 257.927C131.184 257.904 131.274 257.886 131.341 257.873L131.665 259.304C131.557 259.345 131.406 259.385 131.213 259.426C131.019 259.471 130.774 259.493 130.477 259.493C130.027 259.493 129.586 259.396 129.154 259.203C128.726 259.009 128.37 258.715 128.087 258.318C127.808 257.922 127.668 257.423 127.668 256.82V246.503ZM138.11 259.574C137.11 259.574 136.248 259.354 135.524 258.913C134.804 258.467 134.248 257.846 133.856 257.049C133.469 256.248 133.275 255.316 133.275 254.254C133.275 253.192 133.469 252.256 133.856 251.445C134.248 250.631 134.792 249.996 135.49 249.541C136.192 249.082 137.011 248.853 137.948 248.853C138.488 248.853 139.021 248.943 139.548 249.123C140.074 249.303 140.554 249.595 140.986 250.001C141.418 250.401 141.762 250.932 142.019 251.594C142.275 252.256 142.404 253.07 142.404 254.038V254.713H134.41V253.336H140.783C140.783 252.751 140.666 252.229 140.432 251.769C140.203 251.31 139.874 250.948 139.446 250.682C139.023 250.417 138.524 250.284 137.948 250.284C137.313 250.284 136.764 250.442 136.3 250.757C135.841 251.067 135.488 251.472 135.24 251.972C134.993 252.472 134.869 253.007 134.869 253.579V254.497C134.869 255.28 135.004 255.944 135.274 256.489C135.548 257.029 135.929 257.441 136.415 257.724C136.901 258.003 137.466 258.143 138.11 258.143C138.528 258.143 138.906 258.084 139.244 257.967C139.586 257.846 139.881 257.666 140.128 257.427C140.376 257.184 140.567 256.883 140.702 256.523L142.242 256.955C142.079 257.477 141.807 257.936 141.425 258.332C141.042 258.724 140.569 259.03 140.007 259.25C139.444 259.466 138.812 259.574 138.11 259.574ZM144.827 259.358V248.988H146.367V250.554H146.475C146.664 250.041 147.006 249.625 147.501 249.305C147.996 248.986 148.554 248.826 149.175 248.826C149.292 248.826 149.439 248.828 149.614 248.832C149.79 248.837 149.923 248.844 150.013 248.853V250.473C149.959 250.46 149.835 250.439 149.641 250.412C149.452 250.381 149.252 250.365 149.04 250.365C148.536 250.365 148.086 250.471 147.69 250.682C147.298 250.889 146.988 251.178 146.758 251.547C146.533 251.911 146.421 252.328 146.421 252.796V259.358H144.827ZM155.502 259.574C154.637 259.574 153.874 259.356 153.213 258.919C152.551 258.478 152.034 257.857 151.66 257.056C151.286 256.25 151.1 255.298 151.1 254.2C151.1 253.111 151.286 252.166 151.66 251.364C152.034 250.563 152.553 249.944 153.22 249.508C153.886 249.071 154.655 248.853 155.529 248.853C156.204 248.853 156.737 248.965 157.129 249.19C157.525 249.411 157.826 249.663 158.033 249.947C158.245 250.226 158.409 250.455 158.526 250.635H158.661V245.531H160.255V259.358H158.715V257.765H158.526C158.409 257.954 158.243 258.192 158.027 258.48C157.811 258.764 157.502 259.018 157.102 259.243C156.701 259.464 156.168 259.574 155.502 259.574ZM155.718 258.143C156.357 258.143 156.897 257.976 157.338 257.643C157.779 257.306 158.114 256.84 158.344 256.246C158.574 255.647 158.688 254.956 158.688 254.173C158.688 253.399 158.576 252.721 158.351 252.141C158.126 251.556 157.793 251.101 157.351 250.777C156.91 250.448 156.366 250.284 155.718 250.284C155.042 250.284 154.48 250.457 154.03 250.804C153.584 251.146 153.249 251.612 153.024 252.202C152.803 252.787 152.693 253.444 152.693 254.173C152.693 254.911 152.805 255.582 153.03 256.185C153.26 256.784 153.598 257.261 154.043 257.616C154.493 257.967 155.051 258.143 155.718 258.143ZM166.446 259.601C165.789 259.601 165.192 259.477 164.657 259.23C164.121 258.978 163.696 258.615 163.381 258.143C163.066 257.666 162.908 257.09 162.908 256.414C162.908 255.82 163.025 255.339 163.259 254.97C163.493 254.596 163.806 254.303 164.198 254.092C164.589 253.88 165.021 253.723 165.494 253.619C165.971 253.511 166.45 253.426 166.932 253.363C167.562 253.282 168.073 253.221 168.465 253.18C168.861 253.135 169.149 253.061 169.329 252.958C169.513 252.854 169.606 252.674 169.606 252.418V252.364C169.606 251.697 169.423 251.18 169.059 250.811C168.699 250.442 168.152 250.257 167.418 250.257C166.657 250.257 166.061 250.424 165.629 250.757C165.197 251.09 164.893 251.445 164.717 251.823L163.205 251.283C163.475 250.653 163.835 250.163 164.285 249.811C164.74 249.456 165.235 249.208 165.771 249.069C166.311 248.925 166.842 248.853 167.364 248.853C167.697 248.853 168.08 248.893 168.512 248.974C168.948 249.051 169.369 249.211 169.774 249.454C170.184 249.697 170.524 250.064 170.794 250.554C171.064 251.045 171.199 251.702 171.199 252.526V259.358H169.606V257.954H169.525C169.416 258.179 169.236 258.42 168.984 258.676C168.732 258.933 168.397 259.151 167.978 259.331C167.56 259.511 167.049 259.601 166.446 259.601ZM166.689 258.17C167.319 258.17 167.85 258.046 168.282 257.799C168.719 257.551 169.047 257.231 169.268 256.84C169.493 256.448 169.606 256.036 169.606 255.604V254.146C169.538 254.227 169.389 254.301 169.16 254.369C168.935 254.432 168.674 254.488 168.377 254.538C168.084 254.583 167.798 254.623 167.519 254.659C167.245 254.691 167.022 254.718 166.851 254.74C166.437 254.794 166.05 254.882 165.69 255.003C165.334 255.12 165.046 255.298 164.825 255.537C164.609 255.771 164.501 256.09 164.501 256.495C164.501 257.049 164.706 257.468 165.116 257.751C165.53 258.03 166.054 258.17 166.689 258.17ZM174.762 263.247C174.492 263.247 174.251 263.225 174.04 263.18C173.828 263.139 173.682 263.099 173.601 263.058L174.006 261.654C174.393 261.753 174.735 261.789 175.032 261.762C175.329 261.735 175.592 261.602 175.822 261.363C176.056 261.129 176.27 260.749 176.463 260.222L176.76 259.412L172.926 248.988H174.654L177.517 257.252H177.625L180.487 248.988H182.216L177.814 260.87C177.616 261.406 177.37 261.849 177.078 262.201C176.785 262.556 176.445 262.819 176.058 262.99C175.676 263.162 175.244 263.247 174.762 263.247Z" fill="#101010" fill-opacity="0.5"/>
<path d="M264.554 189.498C265.911 189.508 267.247 189.755 268.564 190.24C269.881 190.726 271.07 191.518 272.129 192.617C273.199 193.716 274.05 195.202 274.684 197.073C275.328 198.935 275.654 201.252 275.664 204.024C275.664 206.688 275.397 209.06 274.862 211.139C274.328 213.209 273.56 214.957 272.56 216.382C271.57 217.808 270.367 218.893 268.951 219.635C267.535 220.378 265.94 220.749 264.168 220.749C262.356 220.749 260.747 220.393 259.34 219.68C257.934 218.967 256.791 217.982 255.909 216.724C255.028 215.457 254.478 214.001 254.261 212.357H258.791C259.088 213.664 259.692 214.724 260.603 215.536C261.524 216.338 262.712 216.739 264.168 216.739C266.396 216.739 268.134 215.769 269.381 213.828C270.629 211.877 271.258 209.154 271.268 205.658H271.03C270.515 206.51 269.871 207.243 269.099 207.857C268.337 208.471 267.48 208.946 266.529 209.283C265.579 209.619 264.564 209.788 263.485 209.788C261.732 209.788 260.138 209.357 258.702 208.495C257.266 207.634 256.122 206.45 255.271 204.945C254.419 203.44 253.993 201.722 253.993 199.791C253.993 197.87 254.429 196.127 255.3 194.563C256.182 192.998 257.409 191.76 258.984 190.849C260.568 189.929 262.425 189.478 264.554 189.498ZM264.569 193.36C263.41 193.36 262.366 193.647 261.435 194.221C260.514 194.786 259.786 195.553 259.251 196.523C258.717 197.484 258.449 198.553 258.449 199.732C258.449 200.91 258.707 201.98 259.222 202.94C259.746 203.891 260.459 204.648 261.36 205.213C262.272 205.767 263.311 206.044 264.48 206.044C265.351 206.044 266.163 205.876 266.916 205.539C267.668 205.203 268.327 204.737 268.891 204.143C269.456 203.539 269.896 202.856 270.213 202.093C270.53 201.331 270.688 200.529 270.688 199.687C270.688 198.568 270.421 197.529 269.886 196.568C269.362 195.608 268.639 194.835 267.718 194.251C266.797 193.657 265.747 193.36 264.569 193.36ZM290.784 220.749C288.744 220.749 286.922 220.398 285.318 219.695C283.724 218.992 282.461 218.016 281.53 216.769C280.609 215.511 280.114 214.055 280.045 212.402H284.709C284.768 213.303 285.07 214.085 285.615 214.749C286.17 215.402 286.892 215.907 287.784 216.264C288.675 216.62 289.665 216.798 290.754 216.798C291.952 216.798 293.012 216.59 293.933 216.175C294.864 215.759 295.592 215.179 296.116 214.437C296.641 213.684 296.904 212.818 296.904 211.837C296.904 210.817 296.641 209.921 296.116 209.149C295.601 208.367 294.844 207.753 293.844 207.307C292.854 206.861 291.655 206.639 290.249 206.639H287.68V202.896H290.249C291.378 202.896 292.368 202.693 293.22 202.287C294.081 201.881 294.755 201.316 295.24 200.593C295.725 199.861 295.968 199.004 295.968 198.024C295.968 197.083 295.755 196.266 295.329 195.573C294.913 194.87 294.319 194.32 293.547 193.924C292.784 193.528 291.883 193.33 290.843 193.33C289.853 193.33 288.927 193.513 288.066 193.88C287.214 194.236 286.521 194.751 285.986 195.424C285.452 196.088 285.164 196.885 285.125 197.816H280.684C280.733 196.172 281.218 194.726 282.139 193.479C283.07 192.231 284.298 191.255 285.823 190.552C287.348 189.849 289.041 189.498 290.903 189.498C292.854 189.498 294.537 189.879 295.953 190.642C297.379 191.394 298.478 192.399 299.25 193.657C300.033 194.914 300.419 196.291 300.409 197.786C300.419 199.489 299.944 200.935 298.983 202.123C298.032 203.311 296.765 204.109 295.181 204.515V204.752C297.201 205.059 298.765 205.861 299.874 207.159C300.993 208.456 301.548 210.065 301.538 211.986C301.548 213.659 301.082 215.16 300.142 216.486C299.211 217.813 297.938 218.858 296.324 219.621C294.71 220.373 292.864 220.749 290.784 220.749ZM316.357 220.749C314.495 220.749 312.822 220.393 311.336 219.68C309.861 218.957 308.683 217.967 307.801 216.709C306.92 215.452 306.45 214.016 306.39 212.402H310.846C310.955 213.709 311.534 214.783 312.584 215.625C313.634 216.467 314.891 216.887 316.357 216.887C317.525 216.887 318.56 216.62 319.461 216.085C320.372 215.541 321.085 214.793 321.6 213.843C322.125 212.892 322.387 211.808 322.387 210.59C322.387 209.352 322.12 208.248 321.585 207.277C321.05 206.307 320.313 205.544 319.372 204.99C318.441 204.435 317.372 204.153 316.164 204.143C315.243 204.143 314.317 204.302 313.386 204.619C312.455 204.935 311.703 205.351 311.128 205.866L306.925 205.242L308.633 189.914H325.358V193.85H312.45L311.485 202.361H311.663C312.257 201.787 313.045 201.306 314.025 200.92C315.015 200.534 316.075 200.341 317.203 200.341C319.055 200.341 320.704 200.781 322.15 201.663C323.605 202.544 324.749 203.747 325.581 205.272C326.422 206.787 326.838 208.53 326.828 210.501C326.838 212.471 326.393 214.229 325.492 215.773C324.6 217.318 323.363 218.536 321.778 219.427C320.204 220.309 318.397 220.749 316.357 220.749Z" fill="#101010"/>
<g opacity="0.5">
<path d="M339.244 218.531V199.173H342.165V208.417H342.401L350.52 199.173H354.197L346.39 207.888L354.226 218.531H350.709L344.452 209.882L342.165 212.51V218.531H339.244ZM361.742 218.824C360.337 218.824 359.127 218.506 358.113 217.869C357.105 217.227 356.329 216.341 355.788 215.213C355.246 214.085 354.975 212.794 354.975 211.338C354.975 209.863 355.252 208.562 355.806 207.434C356.361 206.3 357.142 205.415 358.151 204.778C359.159 204.142 360.347 203.823 361.714 203.823C362.817 203.823 363.8 204.028 364.663 204.438C365.526 204.841 366.223 205.408 366.752 206.139C367.288 206.87 367.606 207.724 367.707 208.701H364.956C364.805 208.02 364.458 207.434 363.916 206.943C363.381 206.451 362.662 206.205 361.761 206.205C360.974 206.205 360.284 206.413 359.691 206.829C359.105 207.239 358.648 207.825 358.321 208.587C357.993 209.344 357.829 210.238 357.829 211.272C357.829 212.33 357.99 213.244 358.311 214.013C358.633 214.782 359.086 215.377 359.672 215.799C360.265 216.222 360.961 216.433 361.761 216.433C362.297 216.433 362.782 216.335 363.217 216.14C363.658 215.938 364.027 215.651 364.323 215.279C364.625 214.908 364.836 214.46 364.956 213.937H367.707C367.606 214.876 367.3 215.714 366.79 216.452C366.279 217.189 365.596 217.769 364.739 218.191C363.888 218.613 362.889 218.824 361.742 218.824ZM374.954 218.852C374.034 218.852 373.202 218.682 372.459 218.342C371.715 217.995 371.126 217.494 370.691 216.839C370.263 216.184 370.049 215.38 370.049 214.429C370.049 213.61 370.206 212.935 370.521 212.406C370.836 211.877 371.262 211.458 371.797 211.149C372.333 210.84 372.931 210.607 373.593 210.449C374.255 210.292 374.929 210.172 375.616 210.09C376.485 209.989 377.191 209.907 377.733 209.844C378.275 209.775 378.669 209.665 378.915 209.514C379.16 209.362 379.283 209.117 379.283 208.776V208.71C379.283 207.885 379.05 207.245 378.584 206.791C378.124 206.338 377.437 206.111 376.523 206.111C375.572 206.111 374.822 206.322 374.274 206.744C373.732 207.16 373.357 207.623 373.149 208.134L370.493 207.529C370.808 206.646 371.268 205.934 371.873 205.393C372.484 204.844 373.187 204.447 373.981 204.202C374.775 203.949 375.61 203.823 376.485 203.823C377.065 203.823 377.68 203.893 378.329 204.031C378.984 204.164 379.595 204.409 380.162 204.769C380.736 205.128 381.205 205.641 381.571 206.309C381.936 206.971 382.119 207.831 382.119 208.89V218.531H379.359V216.546H379.245C379.063 216.912 378.789 217.271 378.423 217.624C378.058 217.976 377.588 218.269 377.015 218.503C376.441 218.736 375.754 218.852 374.954 218.852ZM375.569 216.584C376.35 216.584 377.018 216.429 377.572 216.121C378.133 215.812 378.559 215.409 378.848 214.911C379.145 214.407 379.293 213.868 379.293 213.295V211.423C379.192 211.524 378.997 211.618 378.707 211.707C378.423 211.788 378.099 211.861 377.733 211.924C377.368 211.981 377.012 212.034 376.665 212.085C376.318 212.129 376.029 212.167 375.795 212.198C375.247 212.267 374.746 212.384 374.293 212.548C373.845 212.712 373.486 212.948 373.215 213.257C372.95 213.559 372.818 213.962 372.818 214.467C372.818 215.166 373.076 215.695 373.593 216.055C374.11 216.407 374.768 216.584 375.569 216.584ZM388.709 199.173V218.531H385.883V199.173H388.709Z" fill="#101010"/>
</g>
<path d="M252.431 245.202V243.716H262.801V245.202H258.453V257.543H256.779V245.202H252.431ZM267.878 257.759C266.942 257.759 266.121 257.537 265.414 257.091C264.712 256.645 264.163 256.022 263.767 255.221C263.375 254.42 263.179 253.483 263.179 252.412C263.179 251.332 263.375 250.389 263.767 249.583C264.163 248.778 264.712 248.152 265.414 247.706C266.121 247.261 266.942 247.038 267.878 247.038C268.815 247.038 269.634 247.261 270.336 247.706C271.043 248.152 271.592 248.778 271.983 249.583C272.379 250.389 272.578 251.332 272.578 252.412C272.578 253.483 272.379 254.42 271.983 255.221C271.592 256.022 271.043 256.645 270.336 257.091C269.634 257.537 268.815 257.759 267.878 257.759ZM267.878 256.328C268.59 256.328 269.175 256.146 269.634 255.781C270.093 255.417 270.433 254.937 270.653 254.343C270.874 253.749 270.984 253.105 270.984 252.412C270.984 251.719 270.874 251.073 270.653 250.474C270.433 249.876 270.093 249.392 269.634 249.023C269.175 248.654 268.59 248.469 267.878 248.469C267.167 248.469 266.582 248.654 266.123 249.023C265.664 249.392 265.324 249.876 265.104 250.474C264.883 251.073 264.773 251.719 264.773 252.412C264.773 253.105 264.883 253.749 265.104 254.343C265.324 254.937 265.664 255.417 266.123 255.781C266.582 256.146 267.167 256.328 267.878 256.328ZM279.52 247.173V248.523H274.146V247.173H279.52ZM275.712 244.688H277.305V254.573C277.305 255.023 277.371 255.36 277.501 255.585C277.636 255.806 277.807 255.954 278.014 256.031C278.226 256.103 278.449 256.139 278.683 256.139C278.858 256.139 279.002 256.13 279.115 256.112C279.227 256.09 279.317 256.071 279.385 256.058L279.709 257.489C279.601 257.53 279.45 257.57 279.256 257.611C279.063 257.656 278.818 257.678 278.521 257.678C278.07 257.678 277.629 257.582 277.197 257.388C276.77 257.195 276.414 256.9 276.131 256.504C275.851 256.108 275.712 255.608 275.712 255.005V244.688ZM284.968 257.786C284.311 257.786 283.715 257.663 283.179 257.415C282.643 257.163 282.218 256.801 281.903 256.328C281.588 255.851 281.43 255.275 281.43 254.6C281.43 254.006 281.547 253.524 281.782 253.155C282.016 252.781 282.328 252.489 282.72 252.277C283.112 252.066 283.544 251.908 284.016 251.805C284.493 251.696 284.973 251.611 285.454 251.548C286.085 251.467 286.595 251.406 286.987 251.366C287.383 251.321 287.671 251.246 287.851 251.143C288.036 251.039 288.128 250.859 288.128 250.603V250.549C288.128 249.883 287.946 249.365 287.581 248.996C287.221 248.627 286.674 248.442 285.941 248.442C285.18 248.442 284.583 248.609 284.151 248.942C283.719 249.275 283.415 249.631 283.24 250.009L281.728 249.468C281.998 248.838 282.358 248.348 282.808 247.997C283.262 247.641 283.758 247.394 284.293 247.254C284.833 247.11 285.364 247.038 285.886 247.038C286.22 247.038 286.602 247.078 287.034 247.159C287.471 247.236 287.892 247.396 288.297 247.639C288.706 247.882 289.046 248.249 289.316 248.739C289.586 249.23 289.721 249.887 289.721 250.711V257.543H288.128V256.139H288.047C287.939 256.364 287.759 256.605 287.507 256.861C287.255 257.118 286.919 257.336 286.501 257.516C286.082 257.696 285.571 257.786 284.968 257.786ZM285.211 256.355C285.841 256.355 286.373 256.231 286.805 255.984C287.241 255.736 287.57 255.417 287.79 255.025C288.015 254.633 288.128 254.222 288.128 253.789V252.331C288.06 252.412 287.912 252.486 287.682 252.554C287.457 252.617 287.196 252.673 286.899 252.723C286.607 252.768 286.321 252.808 286.042 252.844C285.767 252.876 285.544 252.903 285.373 252.925C284.959 252.979 284.572 253.067 284.212 253.189C283.857 253.306 283.568 253.483 283.348 253.722C283.132 253.956 283.024 254.276 283.024 254.681C283.024 255.234 283.229 255.653 283.638 255.936C284.052 256.216 284.577 256.355 285.211 256.355ZM294.223 243.716V257.543H292.63V243.716H294.223ZM302.705 257.543V243.716H307.539C308.502 243.716 309.296 243.883 309.922 244.216C310.548 244.544 311.013 244.988 311.32 245.546C311.626 246.099 311.779 246.714 311.779 247.389C311.779 247.983 311.673 248.474 311.461 248.861C311.254 249.248 310.98 249.554 310.638 249.779C310.3 250.004 309.933 250.171 309.537 250.279V250.414C309.96 250.441 310.386 250.589 310.813 250.859C311.241 251.129 311.599 251.516 311.887 252.021C312.175 252.525 312.319 253.141 312.319 253.87C312.319 254.564 312.161 255.187 311.846 255.741C311.531 256.294 311.034 256.733 310.354 257.057C309.674 257.381 308.79 257.543 307.701 257.543H302.705ZM304.379 256.058H307.701C308.794 256.058 309.571 255.846 310.03 255.423C310.494 254.996 310.725 254.478 310.725 253.87C310.725 253.402 310.606 252.97 310.368 252.574C310.129 252.174 309.789 251.854 309.348 251.615C308.907 251.372 308.385 251.251 307.782 251.251H304.379V256.058ZM304.379 249.793H307.485C307.989 249.793 308.443 249.694 308.848 249.495C309.258 249.297 309.582 249.018 309.821 248.658C310.064 248.298 310.185 247.875 310.185 247.389C310.185 246.781 309.974 246.266 309.551 245.843C309.128 245.415 308.457 245.202 307.539 245.202H304.379V249.793ZM321.389 253.303V247.173H322.983V257.543H321.389V255.788H321.281C321.038 256.315 320.66 256.762 320.147 257.131C319.634 257.496 318.986 257.678 318.203 257.678C317.555 257.678 316.978 257.537 316.474 257.253C315.97 256.965 315.574 256.533 315.286 255.957C314.998 255.376 314.854 254.645 314.854 253.762V247.173H316.447V253.654C316.447 254.411 316.659 255.014 317.082 255.464C317.51 255.914 318.054 256.139 318.716 256.139C319.112 256.139 319.515 256.038 319.924 255.835C320.338 255.633 320.685 255.322 320.964 254.903C321.248 254.485 321.389 253.952 321.389 253.303ZM325.901 257.543V247.173H327.441V248.739H327.549C327.738 248.226 328.08 247.81 328.575 247.49C329.07 247.171 329.628 247.011 330.249 247.011C330.366 247.011 330.513 247.013 330.688 247.018C330.864 247.022 330.996 247.029 331.086 247.038V248.658C331.032 248.645 330.909 248.625 330.715 248.598C330.526 248.566 330.326 248.55 330.114 248.55C329.61 248.55 329.16 248.656 328.764 248.868C328.372 249.075 328.062 249.363 327.832 249.732C327.607 250.096 327.495 250.513 327.495 250.981V257.543H325.901ZM334.568 251.305V257.543H332.975V247.173H334.514V248.793H334.65C334.893 248.267 335.262 247.844 335.757 247.524C336.252 247.2 336.891 247.038 337.674 247.038C338.376 247.038 338.991 247.182 339.517 247.47C340.044 247.754 340.454 248.186 340.746 248.766C341.039 249.342 341.185 250.072 341.185 250.954V257.543H339.592V251.062C339.592 250.247 339.38 249.613 338.957 249.158C338.534 248.699 337.953 248.469 337.215 248.469C336.706 248.469 336.252 248.58 335.851 248.8C335.455 249.021 335.142 249.342 334.913 249.766C334.683 250.189 334.568 250.702 334.568 251.305ZM348.445 257.759C347.445 257.759 346.583 257.539 345.859 257.098C345.139 256.652 344.583 256.031 344.191 255.234C343.804 254.433 343.61 253.501 343.61 252.439C343.61 251.377 343.804 250.441 344.191 249.631C344.583 248.816 345.127 248.181 345.825 247.727C346.527 247.267 347.346 247.038 348.283 247.038C348.823 247.038 349.356 247.128 349.883 247.308C350.409 247.488 350.889 247.781 351.321 248.186C351.753 248.586 352.097 249.117 352.354 249.779C352.61 250.441 352.739 251.255 352.739 252.223V252.898H344.745V251.521H351.118C351.118 250.936 351.001 250.414 350.767 249.955C350.538 249.495 350.209 249.133 349.781 248.868C349.358 248.602 348.859 248.469 348.283 248.469C347.648 248.469 347.099 248.627 346.635 248.942C346.176 249.252 345.823 249.658 345.575 250.157C345.328 250.657 345.204 251.192 345.204 251.764V252.682C345.204 253.465 345.339 254.129 345.609 254.674C345.884 255.214 346.264 255.626 346.75 255.909C347.236 256.189 347.801 256.328 348.445 256.328C348.863 256.328 349.241 256.27 349.579 256.153C349.921 256.031 350.216 255.851 350.463 255.612C350.711 255.369 350.902 255.068 351.037 254.708L352.577 255.14C352.415 255.662 352.142 256.121 351.76 256.517C351.377 256.909 350.904 257.215 350.342 257.435C349.779 257.651 349.147 257.759 348.445 257.759ZM359.078 257.759C358.214 257.759 357.451 257.541 356.79 257.104C356.128 256.663 355.61 256.042 355.237 255.241C354.863 254.435 354.676 253.483 354.676 252.385C354.676 251.296 354.863 250.351 355.237 249.55C355.61 248.748 356.13 248.129 356.796 247.693C357.462 247.256 358.232 247.038 359.105 247.038C359.78 247.038 360.314 247.15 360.705 247.376C361.101 247.596 361.403 247.848 361.61 248.132C361.822 248.411 361.986 248.64 362.103 248.82H362.238V243.716H363.831V257.543H362.292V255.95H362.103C361.986 256.139 361.819 256.378 361.603 256.666C361.387 256.949 361.079 257.204 360.678 257.429C360.278 257.649 359.744 257.759 359.078 257.759ZM359.294 256.328C359.933 256.328 360.474 256.162 360.915 255.828C361.356 255.491 361.691 255.025 361.921 254.431C362.15 253.832 362.265 253.141 362.265 252.358C362.265 251.584 362.152 250.907 361.927 250.326C361.702 249.741 361.369 249.286 360.928 248.962C360.487 248.634 359.942 248.469 359.294 248.469C358.619 248.469 358.057 248.643 357.606 248.989C357.161 249.331 356.826 249.797 356.6 250.387C356.38 250.972 356.27 251.629 356.27 252.358C356.27 253.096 356.382 253.767 356.607 254.37C356.837 254.969 357.174 255.446 357.62 255.801C358.07 256.153 358.628 256.328 359.294 256.328Z" fill="#101010" fill-opacity="0.5"/>
<path d="M456.072 220.749C454.032 220.749 452.21 220.398 450.606 219.695C449.012 218.992 447.749 218.016 446.819 216.769C445.898 215.511 445.403 214.055 445.333 212.402H449.997C450.057 213.303 450.359 214.085 450.903 214.749C451.458 215.402 452.181 215.907 453.072 216.264C453.963 216.62 454.953 216.798 456.043 216.798C457.241 216.798 458.3 216.59 459.221 216.175C460.152 215.759 460.88 215.179 461.405 214.437C461.929 213.684 462.192 212.818 462.192 211.837C462.192 210.817 461.929 209.921 461.405 209.149C460.89 208.367 460.132 207.753 459.132 207.307C458.142 206.861 456.944 206.639 455.538 206.639H452.968V202.896H455.538C456.666 202.896 457.657 202.693 458.508 202.287C459.37 201.881 460.043 201.316 460.528 200.593C461.013 199.861 461.256 199.004 461.256 198.024C461.256 197.083 461.043 196.266 460.617 195.573C460.201 194.87 459.607 194.32 458.835 193.924C458.073 193.528 457.171 193.33 456.132 193.33C455.141 193.33 454.216 193.513 453.354 193.88C452.502 194.236 451.809 194.751 451.275 195.424C450.74 196.088 450.453 196.885 450.413 197.816H445.972C446.021 196.172 446.507 194.726 447.428 193.479C448.358 192.231 449.586 191.255 451.111 190.552C452.636 189.849 454.329 189.498 456.191 189.498C458.142 189.498 459.825 189.879 461.241 190.642C462.667 191.394 463.766 192.399 464.539 193.657C465.321 194.914 465.707 196.291 465.697 197.786C465.707 199.489 465.232 200.935 464.271 202.123C463.321 203.311 462.053 204.109 460.469 204.515V204.752C462.489 205.059 464.053 205.861 465.163 207.159C466.281 208.456 466.836 210.065 466.826 211.986C466.836 213.659 466.371 215.16 465.43 216.486C464.499 217.813 463.227 218.858 461.613 219.621C459.999 220.373 458.152 220.749 456.072 220.749ZM472.629 220.333L485.908 194.073V193.85H470.55V189.914H490.661V193.984L477.427 220.333H472.629Z" fill="#101010"/>
<g opacity="0.5">
<path d="M503.287 218.531V199.173H506.208V208.417H506.444L514.563 199.173H518.24L510.433 207.888L518.269 218.531H514.752L508.495 209.882L506.208 212.51V218.531H503.287ZM525.785 218.824C524.38 218.824 523.17 218.506 522.156 217.869C521.148 217.227 520.372 216.341 519.831 215.213C519.289 214.085 519.018 212.794 519.018 211.338C519.018 209.863 519.295 208.562 519.849 207.434C520.404 206.3 521.185 205.415 522.194 204.778C523.202 204.142 524.39 203.823 525.757 203.823C526.86 203.823 527.843 204.028 528.706 204.438C529.569 204.841 530.266 205.408 530.795 206.139C531.331 206.87 531.649 207.724 531.75 208.701H528.999C528.848 208.02 528.501 207.434 527.959 206.943C527.424 206.451 526.705 206.205 525.804 206.205C525.017 206.205 524.327 206.413 523.734 206.829C523.148 207.239 522.691 207.825 522.364 208.587C522.036 209.344 521.872 210.238 521.872 211.272C521.872 212.33 522.033 213.244 522.354 214.013C522.676 214.782 523.129 215.377 523.715 215.799C524.308 216.222 525.004 216.433 525.804 216.433C526.34 216.433 526.825 216.335 527.26 216.14C527.701 215.938 528.07 215.651 528.366 215.279C528.668 214.908 528.879 214.46 528.999 213.937H531.75C531.649 214.876 531.343 215.714 530.833 216.452C530.322 217.189 529.639 217.769 528.782 218.191C527.931 218.613 526.932 218.824 525.785 218.824ZM538.997 218.852C538.077 218.852 537.245 218.682 536.502 218.342C535.758 217.995 535.169 217.494 534.734 216.839C534.306 216.184 534.091 215.38 534.091 214.429C534.091 213.61 534.249 212.935 534.564 212.406C534.879 211.877 535.305 211.458 535.84 211.149C536.376 210.84 536.974 210.607 537.636 210.449C538.298 210.292 538.972 210.172 539.659 210.09C540.528 209.989 541.234 209.907 541.776 209.844C542.318 209.775 542.712 209.665 542.958 209.514C543.203 209.362 543.326 209.117 543.326 208.776V208.71C543.326 207.885 543.093 207.245 542.627 206.791C542.167 206.338 541.48 206.111 540.566 206.111C539.615 206.111 538.865 206.322 538.317 206.744C537.775 207.16 537.4 207.623 537.192 208.134L534.536 207.529C534.851 206.646 535.311 205.934 535.916 205.393C536.527 204.844 537.23 204.447 538.024 204.202C538.818 203.949 539.653 203.823 540.528 203.823C541.108 203.823 541.723 203.893 542.372 204.031C543.027 204.164 543.638 204.409 544.205 204.769C544.779 205.128 545.248 205.641 545.614 206.309C545.979 206.971 546.162 207.831 546.162 208.89V218.531H543.402V216.546H543.288C543.106 216.912 542.832 217.271 542.466 217.624C542.101 217.976 541.631 218.269 541.058 218.503C540.484 218.736 539.797 218.852 538.997 218.852ZM539.612 216.584C540.393 216.584 541.061 216.429 541.615 216.121C542.176 215.812 542.602 215.409 542.891 214.911C543.188 214.407 543.336 213.868 543.336 213.295V211.423C543.235 211.524 543.04 211.618 542.75 211.707C542.466 211.788 542.142 211.861 541.776 211.924C541.411 211.981 541.055 212.034 540.708 212.085C540.361 212.129 540.072 212.167 539.838 212.198C539.29 212.267 538.789 212.384 538.336 212.548C537.888 212.712 537.529 212.948 537.258 213.257C536.993 213.559 536.861 213.962 536.861 214.467C536.861 215.166 537.119 215.695 537.636 216.055C538.153 216.407 538.811 216.584 539.612 216.584ZM552.752 199.173V218.531H549.926V199.173H552.752Z" fill="#101010"/>
</g>
<path d="M448.497 257.543H444.23V243.716H448.686C450.027 243.716 451.175 243.993 452.129 244.547C453.084 245.096 453.815 245.886 454.324 246.916C454.832 247.943 455.087 249.171 455.087 250.603C455.087 252.043 454.83 253.283 454.317 254.323C453.804 255.358 453.057 256.155 452.075 256.713C451.094 257.267 449.901 257.543 448.497 257.543ZM445.904 256.058H448.389C449.532 256.058 450.48 255.837 451.231 255.396C451.983 254.955 452.543 254.327 452.913 253.513C453.282 252.698 453.466 251.728 453.466 250.603C453.466 249.486 453.284 248.526 452.919 247.72C452.555 246.91 452.01 246.289 451.285 245.856C450.561 245.42 449.658 245.202 448.578 245.202H445.904V256.058ZM460.731 257.786C460.074 257.786 459.477 257.663 458.942 257.415C458.406 257.163 457.981 256.801 457.666 256.328C457.351 255.851 457.193 255.275 457.193 254.6C457.193 254.006 457.31 253.524 457.544 253.155C457.778 252.781 458.091 252.489 458.483 252.277C458.874 252.066 459.306 251.908 459.779 251.805C460.256 251.696 460.735 251.611 461.217 251.548C461.847 251.467 462.358 251.406 462.75 251.366C463.146 251.321 463.434 251.246 463.614 251.143C463.798 251.039 463.891 250.859 463.891 250.603V250.549C463.891 249.883 463.708 249.365 463.344 248.996C462.984 248.627 462.437 248.442 461.703 248.442C460.942 248.442 460.346 248.609 459.914 248.942C459.482 249.275 459.178 249.631 459.002 250.009L457.49 249.468C457.76 248.838 458.12 248.348 458.57 247.997C459.025 247.641 459.52 247.394 460.056 247.254C460.596 247.11 461.127 247.038 461.649 247.038C461.982 247.038 462.365 247.078 462.797 247.159C463.233 247.236 463.654 247.396 464.059 247.639C464.469 247.882 464.809 248.249 465.079 248.739C465.349 249.23 465.484 249.887 465.484 250.711V257.543H463.891V256.139H463.81C463.701 256.364 463.521 256.605 463.269 256.861C463.017 257.118 462.682 257.336 462.263 257.516C461.845 257.696 461.334 257.786 460.731 257.786ZM460.974 256.355C461.604 256.355 462.135 256.231 462.567 255.984C463.004 255.736 463.332 255.417 463.553 255.025C463.778 254.633 463.891 254.222 463.891 253.789V252.331C463.823 252.412 463.674 252.486 463.445 252.554C463.22 252.617 462.959 252.673 462.662 252.723C462.369 252.768 462.083 252.808 461.804 252.844C461.53 252.876 461.307 252.903 461.136 252.925C460.722 252.979 460.335 253.067 459.975 253.189C459.619 253.306 459.331 253.483 459.11 253.722C458.894 253.956 458.786 254.276 458.786 254.681C458.786 255.234 458.991 255.653 459.401 255.936C459.815 256.216 460.339 256.355 460.974 256.355ZM468.392 257.543V247.173H469.985V257.543H468.392ZM469.202 245.445C468.892 245.445 468.624 245.339 468.399 245.127C468.178 244.916 468.068 244.661 468.068 244.364C468.068 244.067 468.178 243.813 468.399 243.601C468.624 243.39 468.892 243.284 469.202 243.284C469.513 243.284 469.778 243.39 469.999 243.601C470.224 243.813 470.337 244.067 470.337 244.364C470.337 244.661 470.224 244.916 469.999 245.127C469.778 245.339 469.513 245.445 469.202 245.445ZM474.497 243.716V257.543H472.904V243.716H474.497ZM478.442 261.432C478.172 261.432 477.931 261.41 477.719 261.365C477.508 261.324 477.362 261.284 477.281 261.243L477.686 259.839C478.073 259.938 478.415 259.974 478.712 259.947C479.009 259.92 479.272 259.787 479.502 259.549C479.736 259.314 479.95 258.934 480.143 258.408L480.44 257.597L476.605 247.173H478.334L481.196 255.437H481.304L484.167 247.173H485.896L481.494 259.056C481.295 259.591 481.05 260.035 480.758 260.386C480.465 260.741 480.125 261.005 479.738 261.176C479.356 261.347 478.923 261.432 478.442 261.432ZM494.129 257.543H492.374L497.451 243.716H499.179L504.256 257.543H502.501L498.369 245.904H498.261L494.129 257.543ZM494.777 252.142H501.853V253.627H494.777V252.142ZM513.374 247.173L509.539 257.543H507.919L504.084 247.173H505.813L508.675 255.437H508.783L511.646 247.173H513.374ZM519.292 261.648C518.522 261.648 517.861 261.549 517.307 261.351C516.753 261.158 516.292 260.901 515.923 260.582C515.558 260.266 515.268 259.929 515.052 259.569L516.321 258.678C516.465 258.867 516.648 259.083 516.868 259.326C517.089 259.573 517.39 259.787 517.773 259.967C518.16 260.152 518.666 260.244 519.292 260.244C520.129 260.244 520.82 260.041 521.365 259.636C521.909 259.231 522.182 258.597 522.182 257.732V255.626H522.047C521.93 255.815 521.763 256.049 521.547 256.328C521.335 256.603 521.029 256.848 520.629 257.064C520.233 257.276 519.697 257.381 519.022 257.381C518.185 257.381 517.433 257.183 516.767 256.787C516.105 256.391 515.581 255.815 515.194 255.059C514.811 254.303 514.62 253.384 514.62 252.304C514.62 251.242 514.807 250.317 515.18 249.529C515.554 248.737 516.074 248.125 516.74 247.693C517.406 247.256 518.176 247.038 519.049 247.038C519.724 247.038 520.26 247.15 520.656 247.376C521.056 247.596 521.362 247.848 521.574 248.132C521.79 248.411 521.957 248.64 522.074 248.82H522.236V247.173H523.775V257.84C523.775 258.732 523.572 259.456 523.167 260.014C522.767 260.577 522.227 260.989 521.547 261.25C520.872 261.515 520.12 261.648 519.292 261.648ZM519.238 255.95C519.877 255.95 520.417 255.804 520.858 255.511C521.299 255.219 521.635 254.798 521.864 254.249C522.094 253.699 522.209 253.042 522.209 252.277C522.209 251.53 522.096 250.871 521.871 250.299C521.646 249.727 521.313 249.279 520.872 248.955C520.431 248.631 519.886 248.469 519.238 248.469C518.563 248.469 518 248.64 517.55 248.982C517.105 249.324 516.769 249.784 516.544 250.36C516.324 250.936 516.213 251.575 516.213 252.277C516.213 252.997 516.326 253.634 516.551 254.188C516.78 254.737 517.118 255.169 517.564 255.484C518.014 255.795 518.572 255.95 519.238 255.95ZM527.853 257.651C527.52 257.651 527.234 257.532 526.996 257.294C526.757 257.055 526.638 256.769 526.638 256.436C526.638 256.103 526.757 255.817 526.996 255.579C527.234 255.34 527.52 255.221 527.853 255.221C528.186 255.221 528.472 255.34 528.71 255.579C528.949 255.817 529.068 256.103 529.068 256.436C529.068 256.657 529.012 256.859 528.899 257.044C528.791 257.228 528.645 257.377 528.461 257.489C528.281 257.597 528.078 257.651 527.853 257.651Z" fill="#101010" fill-opacity="0.5"/>
<rect x="76.0498" y="307.988" width="23.1951" height="243.358" rx="11.5975" fill="#757575" fill-opacity="0.2"/>
<rect x="149.502" y="307.988" width="23.1951" height="243.358" rx="11.5975" fill="#757575" fill-opacity="0.2"/>
<rect x="369.854" y="307.988" width="23.1951" height="243.358" rx="11.5975" fill="#757575" fill-opacity="0.2"/>
<rect x="222.953" y="307.988" width="23.1951" height="243.358" rx="11.5975" fill="#757575" fill-opacity="0.2"/>
<rect x="443.306" y="307.988" width="23.1951" height="243.358" rx="11.5975" fill="#757575" fill-opacity="0.2"/>
<rect x="296.401" y="307.988" width="23.1951" height="243.358" rx="11.5975" fill="#757575" fill-opacity="0.2"/>
<rect x="516.756" y="307.988" width="23.1951" height="243.358" rx="11.5975" fill="#757575" fill-opacity="0.2"/>
<rect x="76.0498" y="368.827" width="23.1951" height="182.519" rx="11.5975" fill="#006DED"/>
<rect x="149.502" y="418.259" width="23.1951" height="133.086" rx="11.5975" fill="#006DED"/>
<rect x="369.854" y="368.827" width="23.1951" height="182.519" rx="11.5975" fill="#006DED"/>
<rect x="222.953" y="353.617" width="23.1951" height="197.728" rx="11.5975" fill="#006DED"/>
<rect x="443.306" y="340.309" width="23.1951" height="211.037" rx="11.5975" fill="#006DED"/>
<rect x="296.401" y="460.087" width="23.1951" height="91.2593" rx="11.5975" fill="#006DED"/>
<rect x="516.756" y="418.259" width="23.1951" height="133.086" rx="11.5975" fill="#006DED"/>
<rect x="60.8398" y="596.975" width="494.321" height="22.8148" rx="11.4074" fill="#006DED" fill-opacity="0.2"/>
<rect x="60.8398" y="596.975" width="374.86" height="22.8148" fill="#006DED" fill-opacity="0.2"/>
<path d="M60.8398 608.383C60.8398 602.083 65.9471 596.975 72.2473 596.975H287.404V619.79H72.2472C65.9471 619.79 60.8398 614.683 60.8398 608.383V608.383Z" fill="#006DED"/>
<path d="M63.1273 729.701V725.987L76.2725 705.222H79.1986V710.688H77.342L67.9398 725.572V725.809H85.9569V729.701H63.1273ZM77.5499 735.642V728.572L77.5796 726.879V705.222H81.9317V735.642H77.5499ZM100.887 736.147C98.5404 736.137 96.5352 735.518 94.8716 734.29C93.2081 733.063 91.9356 731.275 91.0543 728.928C90.173 726.582 89.7324 723.754 89.7324 720.447C89.7324 717.15 90.173 714.332 91.0543 711.996C91.9455 709.659 93.2229 707.876 94.8865 706.648C96.56 705.42 98.5602 704.807 100.887 704.807C103.214 704.807 105.21 705.425 106.873 706.663C108.537 707.891 109.809 709.673 110.691 712.01C111.582 714.337 112.027 717.15 112.027 720.447C112.027 723.764 111.587 726.596 110.705 728.943C109.824 731.28 108.552 733.068 106.888 734.305C105.224 735.533 103.224 736.147 100.887 736.147ZM100.887 732.181C102.947 732.181 104.556 731.176 105.715 729.166C106.883 727.156 107.467 724.25 107.467 720.447C107.467 717.922 107.2 715.788 106.665 714.045C106.14 712.293 105.383 710.966 104.393 710.065C103.412 709.154 102.244 708.698 100.887 708.698C98.8375 708.698 97.2284 709.708 96.0599 711.728C94.8914 713.748 94.3023 716.655 94.2924 720.447C94.2924 722.982 94.5548 725.126 95.0796 726.879C95.6143 728.621 96.3718 729.943 97.3522 730.845C98.3325 731.736 99.5109 732.181 100.887 732.181ZM116.46 735.642V732.315L126.753 721.65C127.853 720.492 128.759 719.477 129.472 718.605C130.194 717.724 130.734 716.887 131.091 716.095C131.447 715.303 131.625 714.461 131.625 713.57C131.625 712.56 131.388 711.689 130.912 710.956C130.437 710.213 129.788 709.644 128.967 709.248C128.145 708.842 127.219 708.639 126.189 708.639C125.1 708.639 124.149 708.861 123.337 709.307C122.525 709.753 121.901 710.381 121.466 711.193C121.03 712.005 120.812 712.956 120.812 714.045H116.43C116.43 712.194 116.856 710.575 117.708 709.188C118.559 707.802 119.728 706.728 121.213 705.965C122.698 705.193 124.387 704.807 126.278 704.807C128.189 704.807 129.873 705.188 131.328 705.95C132.794 706.703 133.938 707.733 134.759 709.04C135.581 710.337 135.992 711.802 135.992 713.436C135.992 714.565 135.779 715.669 135.354 716.749C134.938 717.828 134.21 719.031 133.17 720.358C132.13 721.675 130.685 723.274 128.833 725.156L122.788 731.483V731.706H136.482V735.642H116.46Z" fill="#101010"/>
<g opacity="0.5">
<path d="M155.46 734.133C154.055 734.133 152.845 733.815 151.83 733.178C150.822 732.535 150.047 731.65 149.505 730.522C148.963 729.394 148.692 728.102 148.692 726.647C148.692 725.172 148.969 723.871 149.524 722.743C150.078 721.609 150.86 720.723 151.868 720.087C152.876 719.45 154.064 719.132 155.431 719.132C156.534 719.132 157.517 719.337 158.38 719.747C159.244 720.15 159.94 720.717 160.469 721.448C161.005 722.179 161.323 723.033 161.424 724.009H158.674C158.522 723.329 158.176 722.743 157.634 722.251C157.098 721.76 156.38 721.514 155.479 721.514C154.691 721.514 154.001 721.722 153.409 722.138C152.823 722.548 152.366 723.134 152.038 723.896C151.71 724.652 151.547 725.547 151.547 726.58C151.547 727.639 151.707 728.553 152.029 729.322C152.35 730.09 152.804 730.686 153.39 731.108C153.982 731.53 154.678 731.741 155.479 731.741C156.014 731.741 156.5 731.644 156.934 731.448C157.375 731.247 157.744 730.96 158.04 730.588C158.343 730.216 158.554 729.769 158.674 729.246H161.424C161.323 730.185 161.018 731.023 160.507 731.76C159.997 732.498 159.313 733.077 158.456 733.499C157.605 733.922 156.607 734.133 155.46 734.133ZM168.672 734.161C167.752 734.161 166.92 733.991 166.176 733.651C165.433 733.304 164.843 732.803 164.409 732.148C163.98 731.492 163.766 730.689 163.766 729.737C163.766 728.918 163.923 728.244 164.238 727.715C164.554 727.185 164.979 726.766 165.515 726.458C166.05 726.149 166.649 725.916 167.31 725.758C167.972 725.601 168.646 725.481 169.333 725.399C170.203 725.298 170.909 725.216 171.45 725.153C171.992 725.084 172.386 724.974 172.632 724.822C172.878 724.671 173.001 724.425 173.001 724.085V724.019C173.001 723.193 172.767 722.554 172.301 722.1C171.841 721.646 171.154 721.42 170.241 721.42C169.289 721.42 168.539 721.631 167.991 722.053C167.449 722.469 167.074 722.932 166.866 723.442L164.21 722.837C164.525 721.955 164.985 721.243 165.59 720.701C166.201 720.153 166.904 719.756 167.698 719.51C168.492 719.258 169.327 719.132 170.203 719.132C170.783 719.132 171.397 719.201 172.046 719.34C172.701 719.472 173.313 719.718 173.88 720.077C174.453 720.437 174.923 720.95 175.288 721.618C175.654 722.28 175.836 723.14 175.836 724.199V733.84H173.076V731.855H172.963C172.78 732.22 172.506 732.579 172.14 732.932C171.775 733.285 171.306 733.578 170.732 733.811C170.159 734.045 169.472 734.161 168.672 734.161ZM169.286 731.893C170.067 731.893 170.735 731.738 171.29 731.429C171.851 731.121 172.276 730.717 172.566 730.22C172.862 729.715 173.01 729.177 173.01 728.603V726.732C172.909 726.833 172.714 726.927 172.424 727.015C172.14 727.097 171.816 727.17 171.45 727.233C171.085 727.289 170.729 727.343 170.382 727.393C170.036 727.437 169.746 727.475 169.513 727.507C168.965 727.576 168.464 727.693 168.01 727.857C167.562 728.02 167.203 728.257 166.932 728.565C166.668 728.868 166.535 729.271 166.535 729.775C166.535 730.475 166.794 731.004 167.31 731.363C167.827 731.716 168.486 731.893 169.286 731.893ZM182.427 714.482V733.84H179.601V714.482H182.427Z" fill="#101010"/>
</g>
<circle cx="66.5435" cy="764.352" r="5.7037" fill="#006DED"/>
<path d="M81.192 769.852V758.79H84.9297C85.7939 758.79 86.5033 758.938 87.0578 759.233C87.6123 759.525 88.0228 759.926 88.2893 760.438C88.5557 760.949 88.689 761.531 88.689 762.182C88.689 762.834 88.5557 763.412 88.2893 763.916C88.0228 764.42 87.6141 764.816 87.0632 765.104C86.5123 765.389 85.8083 765.531 84.9513 765.531H81.9266V764.321H84.9081C85.4986 764.321 85.9739 764.235 86.334 764.062C86.6977 763.889 86.9606 763.644 87.1226 763.327C87.2882 763.007 87.3711 762.625 87.3711 762.182C87.3711 761.739 87.2882 761.352 87.1226 761.021C86.957 760.69 86.6923 760.434 86.3286 760.254C85.9649 760.07 85.4842 759.979 84.8865 759.979H82.5316V769.852H81.192ZM86.3988 764.883L89.1211 769.852H87.5655L84.8865 764.883H86.3988ZM95.9766 766.46V761.556H97.2513V769.852H95.9766V768.448H95.8902C95.6957 768.869 95.3932 769.227 94.9827 769.523C94.5723 769.814 94.0537 769.96 93.4272 769.96C92.9087 769.96 92.4478 769.847 92.0445 769.62C91.6412 769.389 91.3243 769.044 91.0939 768.583C90.8634 768.118 90.7482 767.533 90.7482 766.827V761.556H92.0229V766.741C92.0229 767.346 92.1921 767.828 92.5306 768.188C92.8727 768.549 93.3084 768.729 93.8377 768.729C94.1546 768.729 94.4768 768.648 94.8045 768.486C95.1358 768.324 95.413 768.075 95.6363 767.74C95.8631 767.405 95.9766 766.979 95.9766 766.46ZM100.861 764.861V769.852H99.586V761.556H100.817V762.852H100.925C101.12 762.431 101.415 762.092 101.811 761.837C102.207 761.577 102.719 761.448 103.345 761.448C103.907 761.448 104.398 761.563 104.82 761.793C105.241 762.02 105.569 762.366 105.803 762.83C106.037 763.291 106.154 763.875 106.154 764.58V769.852H104.879V764.667C104.879 764.015 104.71 763.507 104.371 763.144C104.033 762.776 103.568 762.593 102.978 762.593C102.571 762.593 102.207 762.681 101.887 762.857C101.57 763.034 101.32 763.291 101.136 763.63C100.952 763.968 100.861 764.379 100.861 764.861ZM109.758 764.861V769.852H108.483V761.556H109.715V762.852H109.823C110.017 762.431 110.312 762.092 110.708 761.837C111.105 761.577 111.616 761.448 112.242 761.448C112.804 761.448 113.296 761.563 113.717 761.793C114.138 762.02 114.466 762.366 114.7 762.83C114.934 763.291 115.051 763.875 115.051 764.58V769.852H113.776V764.667C113.776 764.015 113.607 763.507 113.269 763.144C112.93 762.776 112.466 762.593 111.875 762.593C111.468 762.593 111.105 762.681 110.784 762.857C110.467 763.034 110.217 763.291 110.033 763.63C109.85 763.968 109.758 764.379 109.758 764.861ZM117.38 769.852V761.556H118.655V769.852H117.38ZM118.028 760.173C117.78 760.173 117.566 760.088 117.386 759.919C117.209 759.75 117.121 759.546 117.121 759.309C117.121 759.071 117.209 758.868 117.386 758.699C117.566 758.529 117.78 758.445 118.028 758.445C118.277 758.445 118.489 758.529 118.666 758.699C118.846 758.868 118.936 759.071 118.936 759.309C118.936 759.546 118.846 759.75 118.666 759.919C118.489 760.088 118.277 760.173 118.028 760.173ZM122.264 764.861V769.852H120.99V761.556H122.221V762.852H122.329C122.524 762.431 122.819 762.092 123.215 761.837C123.611 761.577 124.122 761.448 124.749 761.448C125.311 761.448 125.802 761.563 126.223 761.793C126.645 762.02 126.972 762.366 127.207 762.83C127.441 763.291 127.558 763.875 127.558 764.58V769.852H126.283V764.667C126.283 764.015 126.114 763.507 125.775 763.144C125.437 762.776 124.972 762.593 124.382 762.593C123.975 762.593 123.611 762.681 123.291 762.857C122.974 763.034 122.723 763.291 122.54 763.63C122.356 763.968 122.264 764.379 122.264 764.861ZM133.236 773.136C132.62 773.136 132.091 773.057 131.648 772.898C131.205 772.744 130.836 772.538 130.54 772.283C130.249 772.031 130.017 771.76 129.844 771.472L130.859 770.759C130.974 770.911 131.12 771.084 131.297 771.278C131.473 771.476 131.714 771.647 132.02 771.791C132.33 771.939 132.735 772.013 133.236 772.013C133.905 772.013 134.458 771.851 134.894 771.526C135.33 771.202 135.547 770.695 135.547 770.003V768.318H135.439C135.346 768.469 135.212 768.657 135.04 768.88C134.87 769.099 134.626 769.296 134.305 769.469C133.988 769.638 133.56 769.722 133.02 769.722C132.35 769.722 131.749 769.564 131.216 769.247C130.686 768.93 130.267 768.469 129.957 767.864C129.651 767.259 129.498 766.525 129.498 765.661C129.498 764.811 129.647 764.071 129.946 763.441C130.245 762.807 130.661 762.317 131.194 761.972C131.727 761.622 132.343 761.448 133.041 761.448C133.581 761.448 134.01 761.538 134.327 761.718C134.647 761.894 134.892 762.096 135.061 762.323C135.234 762.546 135.367 762.73 135.461 762.874H135.591V761.556H136.822V770.09C136.822 770.803 136.66 771.382 136.336 771.829C136.015 772.279 135.583 772.608 135.04 772.817C134.5 773.03 133.898 773.136 133.236 773.136ZM133.192 768.577C133.704 768.577 134.136 768.46 134.489 768.226C134.842 767.992 135.11 767.656 135.294 767.216C135.477 766.777 135.569 766.251 135.569 765.639C135.569 765.041 135.479 764.514 135.299 764.057C135.119 763.599 134.852 763.241 134.5 762.982C134.147 762.722 133.711 762.593 133.192 762.593C132.652 762.593 132.202 762.73 131.842 763.003C131.486 763.277 131.217 763.644 131.037 764.105C130.861 764.566 130.773 765.077 130.773 765.639C130.773 766.215 130.863 766.725 131.043 767.168C131.226 767.607 131.496 767.953 131.853 768.205C132.213 768.453 132.66 768.577 133.192 768.577Z" fill="#101010" fill-opacity="0.5"/>
<path d="M148.575 764.516V765.704H143.736V764.516H148.575Z" fill="#101010" fill-opacity="0.5"/>
<path d="M154.343 767.584V766.482L159.204 758.79H160.003V760.497H159.463L155.79 766.309V766.395H162.337V767.584H154.343ZM159.55 769.852V767.249V766.736V758.79H160.824V769.852H159.55ZM168.098 770.003C167.385 770.003 166.75 769.881 166.192 769.636C165.637 769.391 165.196 769.051 164.868 768.615C164.544 768.176 164.368 767.666 164.339 767.087H165.7C165.729 767.443 165.852 767.751 166.068 768.01C166.284 768.266 166.566 768.464 166.916 768.604C167.265 768.745 167.652 768.815 168.077 768.815C168.552 768.815 168.973 768.732 169.341 768.567C169.708 768.401 169.996 768.17 170.205 767.875C170.414 767.58 170.518 767.238 170.518 766.849C170.518 766.442 170.417 766.084 170.216 765.774C170.014 765.461 169.719 765.216 169.33 765.04C168.941 764.863 168.466 764.775 167.904 764.775H167.018V763.587H167.904C168.343 763.587 168.729 763.507 169.06 763.349C169.395 763.191 169.656 762.967 169.843 762.679C170.034 762.391 170.129 762.053 170.129 761.664C170.129 761.289 170.046 760.963 169.881 760.686C169.715 760.409 169.481 760.193 169.179 760.038C168.88 759.883 168.527 759.806 168.12 759.806C167.738 759.806 167.378 759.876 167.04 760.016C166.705 760.153 166.431 760.353 166.219 760.616C166.006 760.875 165.891 761.188 165.873 761.556H164.577C164.598 760.976 164.773 760.468 165.101 760.033C165.428 759.593 165.857 759.251 166.386 759.006C166.919 758.762 167.504 758.639 168.142 758.639C168.826 758.639 169.413 758.778 169.902 759.055C170.392 759.329 170.768 759.691 171.031 760.141C171.294 760.591 171.426 761.077 171.426 761.599C171.426 762.222 171.262 762.753 170.934 763.192C170.61 763.632 170.169 763.936 169.611 764.105V764.192C170.309 764.307 170.855 764.604 171.247 765.083C171.64 765.558 171.836 766.147 171.836 766.849C171.836 767.45 171.672 767.99 171.345 768.469C171.02 768.945 170.578 769.319 170.016 769.593C169.454 769.866 168.815 770.003 168.098 770.003ZM179.684 767.778V767.195C179.684 766.791 179.767 766.422 179.933 766.087C180.102 765.749 180.347 765.479 180.667 765.277C180.991 765.072 181.384 764.969 181.845 764.969C182.313 764.969 182.705 765.072 183.022 765.277C183.339 765.479 183.578 765.749 183.74 766.087C183.902 766.422 183.983 766.791 183.983 767.195V767.778C183.983 768.181 183.901 768.552 183.735 768.891C183.573 769.226 183.332 769.496 183.011 769.701C182.694 769.902 182.305 770.003 181.845 770.003C181.376 770.003 180.982 769.902 180.662 769.701C180.341 769.496 180.098 769.226 179.933 768.891C179.767 768.552 179.684 768.181 179.684 767.778ZM180.786 767.195V767.778C180.786 768.113 180.865 768.414 181.024 768.68C181.182 768.943 181.456 769.074 181.845 769.074C182.223 769.074 182.489 768.943 182.644 768.68C182.802 768.414 182.882 768.113 182.882 767.778V767.195C182.882 766.86 182.806 766.561 182.655 766.298C182.504 766.032 182.233 765.898 181.845 765.898C181.466 765.898 181.195 766.032 181.029 766.298C180.867 766.561 180.786 766.86 180.786 767.195ZM174.175 761.448V760.864C174.175 760.461 174.258 760.092 174.423 759.757C174.593 759.419 174.837 759.149 175.158 758.947C175.482 758.742 175.874 758.639 176.335 758.639C176.803 758.639 177.196 758.742 177.513 758.947C177.83 759.149 178.069 759.419 178.231 759.757C178.393 760.092 178.474 760.461 178.474 760.864V761.448C178.474 761.851 178.391 762.222 178.226 762.56C178.064 762.895 177.822 763.165 177.502 763.371C177.185 763.572 176.796 763.673 176.335 763.673C175.867 763.673 175.473 763.572 175.152 763.371C174.832 763.165 174.589 762.895 174.423 762.56C174.258 762.222 174.175 761.851 174.175 761.448ZM175.277 760.864V761.448C175.277 761.783 175.356 762.083 175.514 762.35C175.673 762.613 175.946 762.744 176.335 762.744C176.713 762.744 176.98 762.613 177.135 762.35C177.293 762.083 177.372 761.783 177.372 761.448V760.864C177.372 760.53 177.297 760.231 177.145 759.968C176.994 759.701 176.724 759.568 176.335 759.568C175.957 759.568 175.685 759.701 175.52 759.968C175.358 760.231 175.277 760.53 175.277 760.864ZM174.585 769.852L182.19 758.79H183.422L175.817 769.852H174.585Z" fill="#101010" fill-opacity="0.5"/>
<path d="M263.708 736.058C261.668 736.058 259.846 735.707 258.242 735.003C256.648 734.3 255.385 733.325 254.454 732.077C253.533 730.82 253.038 729.364 252.969 727.71H257.633C257.692 728.612 257.994 729.394 258.539 730.057C259.094 730.711 259.816 731.216 260.708 731.572C261.599 731.929 262.589 732.107 263.678 732.107C264.876 732.107 265.936 731.899 266.857 731.483C267.788 731.067 268.516 730.488 269.04 729.745C269.565 728.993 269.828 728.126 269.828 727.146C269.828 726.126 269.565 725.23 269.04 724.458C268.525 723.675 267.768 723.061 266.768 722.616C265.778 722.17 264.579 721.947 263.173 721.947H260.604V718.204H263.173C264.302 718.204 265.292 718.001 266.144 717.595C267.005 717.189 267.679 716.625 268.164 715.902C268.649 715.169 268.892 714.313 268.892 713.332C268.892 712.392 268.679 711.575 268.253 710.882C267.837 710.178 267.243 709.629 266.471 709.233C265.708 708.837 264.807 708.639 263.767 708.639C262.777 708.639 261.851 708.822 260.99 709.188C260.138 709.545 259.445 710.06 258.91 710.733C258.376 711.396 258.088 712.194 258.049 713.124H253.608C253.657 711.481 254.142 710.035 255.063 708.787C255.994 707.54 257.222 706.564 258.747 705.861C260.272 705.158 261.965 704.807 263.827 704.807C265.778 704.807 267.461 705.188 268.877 705.95C270.303 706.703 271.402 707.708 272.174 708.965C272.957 710.223 273.343 711.599 273.333 713.095C273.343 714.798 272.868 716.244 271.907 717.432C270.956 718.62 269.689 719.417 268.105 719.823V720.061C270.125 720.368 271.689 721.17 272.798 722.467C273.917 723.764 274.472 725.374 274.462 727.295C274.472 728.968 274.006 730.468 273.066 731.795C272.135 733.122 270.862 734.167 269.248 734.929C267.634 735.682 265.787 736.058 263.708 736.058ZM290.781 705.222V735.642H286.176V709.827H285.998L278.72 714.58V710.183L286.31 705.222H290.781ZM308.452 736.058C306.323 736.058 304.441 735.692 302.807 734.959C301.184 734.226 299.911 733.216 298.99 731.929C298.069 730.642 297.614 729.176 297.624 727.532C297.614 726.245 297.876 725.062 298.411 723.982C298.955 722.893 299.693 721.987 300.624 721.264C301.555 720.531 302.595 720.066 303.743 719.868V719.69C302.228 719.323 301.015 718.511 300.104 717.254C299.193 715.996 298.743 714.55 298.753 712.916C298.743 711.362 299.154 709.975 299.985 708.758C300.827 707.53 301.981 706.564 303.446 705.861C304.912 705.158 306.58 704.807 308.452 704.807C310.303 704.807 311.957 705.163 313.413 705.876C314.878 706.579 316.032 707.544 316.874 708.772C317.715 709.99 318.141 711.372 318.151 712.916C318.141 714.55 317.676 715.996 316.755 717.254C315.834 718.511 314.636 719.323 313.16 719.69V719.868C314.299 720.066 315.324 720.531 316.235 721.264C317.156 721.987 317.889 722.893 318.433 723.982C318.988 725.062 319.27 726.245 319.28 727.532C319.27 729.176 318.805 730.642 317.884 731.929C316.963 733.216 315.685 734.226 314.051 734.959C312.428 735.692 310.561 736.058 308.452 736.058ZM308.452 732.3C309.709 732.3 310.799 732.092 311.72 731.676C312.64 731.25 313.353 730.661 313.858 729.909C314.363 729.146 314.621 728.255 314.631 727.235C314.621 726.176 314.344 725.24 313.799 724.428C313.264 723.616 312.536 722.977 311.616 722.512C310.695 722.046 309.64 721.814 308.452 721.814C307.254 721.814 306.189 722.046 305.258 722.512C304.327 722.977 303.595 723.616 303.06 724.428C302.525 725.24 302.263 726.176 302.273 727.235C302.263 728.255 302.505 729.146 303.001 729.909C303.506 730.661 304.224 731.25 305.154 731.676C306.085 732.092 307.184 732.3 308.452 732.3ZM308.452 718.145C309.462 718.145 310.358 717.942 311.14 717.536C311.923 717.13 312.536 716.565 312.982 715.843C313.438 715.12 313.67 714.273 313.68 713.303C313.67 712.352 313.443 711.52 312.997 710.807C312.561 710.094 311.952 709.545 311.17 709.159C310.388 708.762 309.482 708.564 308.452 708.564C307.402 708.564 306.481 708.762 305.689 709.159C304.907 709.545 304.298 710.094 303.862 710.807C303.426 711.52 303.213 712.352 303.223 713.303C303.213 714.273 303.431 715.12 303.877 715.843C304.323 716.565 304.936 717.13 305.719 717.536C306.511 717.942 307.422 718.145 308.452 718.145Z" fill="#101010"/>
<g opacity="0.5">
<path d="M337.811 734.133C336.406 734.133 335.196 733.815 334.182 733.178C333.173 732.535 332.398 731.65 331.856 730.522C331.315 729.394 331.044 728.102 331.044 726.647C331.044 725.172 331.321 723.871 331.875 722.743C332.43 721.609 333.211 720.723 334.22 720.087C335.228 719.45 336.416 719.132 337.783 719.132C338.886 719.132 339.869 719.337 340.732 719.747C341.595 720.15 342.292 720.717 342.821 721.448C343.357 722.179 343.675 723.033 343.776 724.009H341.025C340.874 723.329 340.527 722.743 339.985 722.251C339.45 721.76 338.731 721.514 337.83 721.514C337.043 721.514 336.353 721.722 335.76 722.138C335.174 722.548 334.717 723.134 334.39 723.896C334.062 724.652 333.898 725.547 333.898 726.58C333.898 727.639 334.059 728.553 334.38 729.322C334.702 730.09 335.155 730.686 335.741 731.108C336.334 731.53 337.03 731.741 337.83 731.741C338.366 731.741 338.851 731.644 339.286 731.448C339.727 731.247 340.096 730.96 340.392 730.588C340.694 730.216 340.905 729.769 341.025 729.246H343.776C343.675 730.185 343.369 731.023 342.859 731.76C342.348 732.498 341.665 733.077 340.808 733.499C339.957 733.922 338.958 734.133 337.811 734.133ZM351.023 734.161C350.103 734.161 349.271 733.991 348.528 733.651C347.784 733.304 347.195 732.803 346.76 732.148C346.332 731.492 346.117 730.689 346.117 729.737C346.117 728.918 346.275 728.244 346.59 727.715C346.905 727.185 347.33 726.766 347.866 726.458C348.402 726.149 349 725.916 349.662 725.758C350.324 725.601 350.998 725.481 351.685 725.399C352.554 725.298 353.26 725.216 353.802 725.153C354.344 725.084 354.738 724.974 354.984 724.822C355.229 724.671 355.352 724.425 355.352 724.085V724.019C355.352 723.193 355.119 722.554 354.653 722.1C354.193 721.646 353.506 721.42 352.592 721.42C351.641 721.42 350.891 721.631 350.343 722.053C349.801 722.469 349.426 722.932 349.218 723.442L346.562 722.837C346.877 721.955 347.337 721.243 347.942 720.701C348.553 720.153 349.256 719.756 350.05 719.51C350.843 719.258 351.678 719.132 352.554 719.132C353.134 719.132 353.748 719.201 354.398 719.34C355.053 719.472 355.664 719.718 356.231 720.077C356.805 720.437 357.274 720.95 357.64 721.618C358.005 722.28 358.188 723.14 358.188 724.199V733.84H355.428V731.855H355.314C355.132 732.22 354.858 732.579 354.492 732.932C354.127 733.285 353.657 733.578 353.084 733.811C352.51 734.045 351.823 734.161 351.023 734.161ZM351.637 731.893C352.419 731.893 353.087 731.738 353.641 731.429C354.202 731.121 354.628 730.717 354.917 730.22C355.214 729.715 355.362 729.177 355.362 728.603V726.732C355.261 726.833 355.065 726.927 354.776 727.015C354.492 727.097 354.168 727.17 353.802 727.233C353.437 727.289 353.081 727.343 352.734 727.393C352.387 727.437 352.097 727.475 351.864 727.507C351.316 727.576 350.815 727.693 350.361 727.857C349.914 728.02 349.555 728.257 349.284 728.565C349.019 728.868 348.887 729.271 348.887 729.775C348.887 730.475 349.145 731.004 349.662 731.363C350.179 731.716 350.837 731.893 351.637 731.893ZM364.778 714.482V733.84H361.952V714.482H364.778Z" fill="#101010"/>
</g>
<circle cx="255.895" cy="764.352" r="5.7037" fill="#A3CBF8"/>
<path d="M272.553 769.852L269.528 758.79H270.889L273.201 767.8H273.309L275.664 758.79H277.176L279.531 767.8H279.639L281.951 758.79H283.312L280.287 769.852H278.905L276.463 761.037H276.377L273.936 769.852H272.553ZM286.477 770.046C285.952 770.046 285.474 769.947 285.046 769.749C284.617 769.548 284.277 769.258 284.025 768.88C283.773 768.498 283.647 768.037 283.647 767.497C283.647 767.022 283.741 766.637 283.928 766.341C284.115 766.042 284.365 765.808 284.679 765.639C284.992 765.47 285.338 765.344 285.716 765.261C286.097 765.175 286.481 765.106 286.866 765.056C287.37 764.991 287.779 764.942 288.092 764.91C288.409 764.874 288.64 764.814 288.784 764.732C288.931 764.649 289.005 764.505 289.005 764.3V764.256C289.005 763.723 288.859 763.309 288.568 763.014C288.279 762.719 287.842 762.571 287.255 762.571C286.646 762.571 286.169 762.704 285.824 762.971C285.478 763.237 285.235 763.522 285.095 763.824L283.885 763.392C284.101 762.888 284.389 762.496 284.749 762.215C285.113 761.93 285.509 761.732 285.937 761.621C286.369 761.505 286.794 761.448 287.212 761.448C287.478 761.448 287.784 761.48 288.13 761.545C288.479 761.606 288.816 761.734 289.14 761.928C289.468 762.123 289.74 762.416 289.956 762.809C290.172 763.201 290.28 763.727 290.28 764.386V769.852H289.005V768.729H288.94C288.854 768.909 288.71 769.101 288.508 769.307C288.306 769.512 288.038 769.686 287.703 769.83C287.368 769.974 286.96 770.046 286.477 770.046ZM286.672 768.901C287.176 768.901 287.601 768.802 287.946 768.604C288.296 768.406 288.559 768.151 288.735 767.837C288.915 767.524 289.005 767.195 289.005 766.849V765.682C288.951 765.747 288.832 765.807 288.649 765.861C288.469 765.911 288.26 765.956 288.022 765.996C287.788 766.032 287.559 766.064 287.336 766.093C287.116 766.118 286.938 766.14 286.801 766.158C286.47 766.201 286.16 766.271 285.872 766.368C285.588 766.462 285.357 766.604 285.181 766.795C285.008 766.982 284.922 767.238 284.922 767.562C284.922 768.005 285.086 768.34 285.413 768.567C285.744 768.79 286.164 768.901 286.672 768.901ZM293.881 758.79V769.852H292.606V758.79H293.881ZM297.404 766.827L297.382 765.25H297.642L301.271 761.556H302.848L298.981 765.466H298.873L297.404 766.827ZM296.216 769.852V758.79H297.49V769.852H296.216ZM301.487 769.852L298.247 765.747L299.154 764.861L303.108 769.852H301.487ZM304.489 769.852V761.556H305.764V769.852H304.489ZM305.137 760.173C304.889 760.173 304.674 760.088 304.494 759.919C304.318 759.75 304.23 759.546 304.23 759.309C304.23 759.071 304.318 758.868 304.494 758.699C304.674 758.529 304.889 758.445 305.137 758.445C305.386 758.445 305.598 758.529 305.775 758.699C305.955 758.868 306.045 759.071 306.045 759.309C306.045 759.546 305.955 759.75 305.775 759.919C305.598 760.088 305.386 760.173 305.137 760.173ZM309.373 764.861V769.852H308.098V761.556H309.33V762.852H309.438C309.632 762.431 309.928 762.092 310.324 761.837C310.72 761.577 311.231 761.448 311.858 761.448C312.419 761.448 312.911 761.563 313.332 761.793C313.753 762.02 314.081 762.366 314.315 762.83C314.549 763.291 314.666 763.875 314.666 764.58V769.852H313.392V764.667C313.392 764.015 313.222 763.507 312.884 763.144C312.545 762.776 312.081 762.593 311.49 762.593C311.083 762.593 310.72 762.681 310.399 762.857C310.082 763.034 309.832 763.291 309.649 763.63C309.465 763.968 309.373 764.379 309.373 764.861ZM320.344 773.136C319.729 773.136 319.199 773.057 318.756 772.898C318.313 772.744 317.944 772.538 317.649 772.283C317.357 772.031 317.125 771.76 316.952 771.472L317.968 770.759C318.083 770.911 318.229 771.084 318.405 771.278C318.582 771.476 318.823 771.647 319.129 771.791C319.439 771.939 319.844 772.013 320.344 772.013C321.014 772.013 321.567 771.851 322.003 771.526C322.438 771.202 322.656 770.695 322.656 770.003V768.318H322.548C322.454 768.469 322.321 768.657 322.148 768.88C321.979 769.099 321.734 769.296 321.414 769.469C321.097 769.638 320.668 769.722 320.128 769.722C319.459 769.722 318.857 769.564 318.324 769.247C317.795 768.93 317.375 768.469 317.066 767.864C316.76 767.259 316.607 766.525 316.607 765.661C316.607 764.811 316.756 764.071 317.055 763.441C317.354 762.807 317.77 762.317 318.303 761.972C318.836 761.622 319.451 761.448 320.15 761.448C320.69 761.448 321.119 761.538 321.435 761.718C321.756 761.894 322.001 762.096 322.17 762.323C322.343 762.546 322.476 762.73 322.57 762.874H322.699V761.556H323.931V770.09C323.931 770.803 323.769 771.382 323.445 771.829C323.124 772.279 322.692 772.608 322.148 772.817C321.608 773.03 321.007 773.136 320.344 773.136ZM320.301 768.577C320.812 768.577 321.245 768.46 321.597 768.226C321.95 767.992 322.219 767.656 322.402 767.216C322.586 766.777 322.678 766.251 322.678 765.639C322.678 765.041 322.588 764.514 322.408 764.057C322.228 763.599 321.961 763.241 321.608 762.982C321.255 762.722 320.82 762.593 320.301 762.593C319.761 762.593 319.311 762.73 318.951 763.003C318.594 763.277 318.326 763.644 318.146 764.105C317.97 764.566 317.881 765.077 317.881 765.639C317.881 766.215 317.971 766.725 318.151 767.168C318.335 767.607 318.605 767.953 318.962 768.205C319.322 768.453 319.768 768.577 320.301 768.577Z" fill="#101010" fill-opacity="0.5"/>
<path d="M334.927 764.516V765.704H330.087V764.516H334.927Z" fill="#101010" fill-opacity="0.5"/>
<path d="M344.691 770.003C343.978 770.003 343.343 769.881 342.785 769.636C342.23 769.391 341.789 769.051 341.461 768.615C341.137 768.176 340.961 767.666 340.932 767.087H342.293C342.322 767.443 342.444 767.751 342.66 768.01C342.876 768.266 343.159 768.464 343.508 768.604C343.858 768.745 344.245 768.815 344.67 768.815C345.145 768.815 345.566 768.732 345.934 768.567C346.301 768.401 346.589 768.17 346.798 767.875C347.007 767.58 347.111 767.238 347.111 766.849C347.111 766.442 347.01 766.084 346.809 765.774C346.607 765.461 346.312 765.216 345.923 765.04C345.534 764.863 345.059 764.775 344.497 764.775H343.611V763.587H344.497C344.936 763.587 345.321 763.507 345.653 763.349C345.988 763.191 346.249 762.967 346.436 762.679C346.627 762.391 346.722 762.053 346.722 761.664C346.722 761.289 346.639 760.963 346.474 760.686C346.308 760.409 346.074 760.193 345.772 760.038C345.473 759.883 345.12 759.806 344.713 759.806C344.331 759.806 343.971 759.876 343.633 760.016C343.298 760.153 343.024 760.353 342.812 760.616C342.599 760.875 342.484 761.188 342.466 761.556H341.17C341.191 760.976 341.366 760.468 341.694 760.033C342.021 759.593 342.45 759.251 342.979 759.006C343.512 758.762 344.097 758.639 344.735 758.639C345.419 758.639 346.006 758.778 346.495 759.055C346.985 759.329 347.361 759.691 347.624 760.141C347.887 760.591 348.018 761.077 348.018 761.599C348.018 762.222 347.855 762.753 347.527 763.192C347.203 763.632 346.762 763.936 346.204 764.105V764.192C346.902 764.307 347.448 764.604 347.84 765.083C348.233 765.558 348.429 766.147 348.429 766.849C348.429 767.45 348.265 767.99 347.937 768.469C347.613 768.945 347.17 769.319 346.609 769.593C346.047 769.866 345.408 770.003 344.691 770.003ZM350.379 767.584V766.482L355.24 758.79H356.039V760.497H355.499L351.826 766.309V766.395H358.373V767.584H350.379ZM355.586 769.852V767.249V766.736V758.79H356.86V769.852H355.586ZM366.036 767.778V767.195C366.036 766.791 366.118 766.422 366.284 766.087C366.453 765.749 366.698 765.479 367.019 765.277C367.343 765.072 367.735 764.969 368.196 764.969C368.664 764.969 369.057 765.072 369.374 765.277C369.69 765.479 369.93 765.749 370.092 766.087C370.254 766.422 370.335 766.791 370.335 767.195V767.778C370.335 768.181 370.252 768.552 370.087 768.891C369.925 769.226 369.683 769.496 369.363 769.701C369.046 769.902 368.657 770.003 368.196 770.003C367.728 770.003 367.334 769.902 367.013 769.701C366.693 769.496 366.45 769.226 366.284 768.891C366.118 768.552 366.036 768.181 366.036 767.778ZM367.137 767.195V767.778C367.137 768.113 367.217 768.414 367.375 768.68C367.534 768.943 367.807 769.074 368.196 769.074C368.574 769.074 368.841 768.943 368.996 768.68C369.154 768.414 369.233 768.113 369.233 767.778V767.195C369.233 766.86 369.158 766.561 369.006 766.298C368.855 766.032 368.585 765.898 368.196 765.898C367.818 765.898 367.546 766.032 367.381 766.298C367.219 766.561 367.137 766.86 367.137 767.195ZM360.526 761.448V760.864C360.526 760.461 360.609 760.092 360.775 759.757C360.944 759.419 361.189 759.149 361.509 758.947C361.833 758.742 362.226 758.639 362.687 758.639C363.155 758.639 363.547 758.742 363.864 758.947C364.181 759.149 364.421 759.419 364.583 759.757C364.745 760.092 364.826 760.461 364.826 760.864V761.448C364.826 761.851 364.743 762.222 364.577 762.56C364.415 762.895 364.174 763.165 363.854 763.371C363.537 763.572 363.148 763.673 362.687 763.673C362.219 763.673 361.824 763.572 361.504 763.371C361.184 763.165 360.94 762.895 360.775 762.56C360.609 762.222 360.526 761.851 360.526 761.448ZM361.628 760.864V761.448C361.628 761.783 361.707 762.083 361.866 762.35C362.024 762.613 362.298 762.744 362.687 762.744C363.065 762.744 363.331 762.613 363.486 762.35C363.645 762.083 363.724 761.783 363.724 761.448V760.864C363.724 760.53 363.648 760.231 363.497 759.968C363.346 759.701 363.076 759.568 362.687 759.568C362.309 759.568 362.037 759.701 361.871 759.968C361.709 760.231 361.628 760.53 361.628 760.864ZM360.937 769.852L368.542 758.79H369.773L362.168 769.852H360.937Z" fill="#101010" fill-opacity="0.5"/>
<path d="M439.47 735.642V732.315L449.763 721.65C450.863 720.492 451.769 719.477 452.482 718.605C453.205 717.724 453.744 716.887 454.101 716.095C454.457 715.303 454.635 714.461 454.635 713.57C454.635 712.56 454.398 711.689 453.922 710.956C453.447 710.213 452.799 709.644 451.977 709.248C451.155 708.842 450.229 708.639 449.199 708.639C448.11 708.639 447.159 708.861 446.347 709.307C445.535 709.753 444.911 710.381 444.476 711.193C444.04 712.005 443.822 712.956 443.822 714.045H439.44C439.44 712.194 439.866 710.575 440.718 709.188C441.569 707.802 442.738 706.728 444.223 705.965C445.708 705.193 447.397 704.807 449.288 704.807C451.199 704.807 452.883 705.188 454.338 705.95C455.804 706.703 456.948 707.733 457.769 709.04C458.591 710.337 459.002 711.802 459.002 713.436C459.002 714.565 458.789 715.669 458.364 716.749C457.948 717.828 457.22 719.031 456.18 720.358C455.14 721.675 453.695 723.274 451.843 725.156L445.798 731.483V731.706H459.492V735.642H439.47ZM475.826 705.222V735.642H471.222V709.827H471.044L463.765 714.58V710.183L471.356 705.222H475.826ZM493.26 736.058C491.398 736.058 489.724 735.702 488.239 734.989C486.764 734.266 485.585 733.276 484.704 732.018C483.823 730.76 483.352 729.325 483.293 727.71H487.749C487.858 729.018 488.437 730.092 489.487 730.934C490.536 731.775 491.794 732.196 493.26 732.196C494.428 732.196 495.463 731.929 496.364 731.394C497.275 730.849 497.988 730.102 498.503 729.151C499.028 728.201 499.29 727.116 499.29 725.898C499.29 724.661 499.023 723.556 498.488 722.586C497.953 721.616 497.216 720.853 496.275 720.299C495.344 719.744 494.275 719.462 493.066 719.452C492.146 719.452 491.22 719.61 490.289 719.927C489.358 720.244 488.605 720.66 488.031 721.175L483.828 720.551L485.536 705.222H502.261V709.159H489.353L488.388 717.67H488.566C489.16 717.095 489.947 716.615 490.928 716.229C491.918 715.843 492.977 715.649 494.106 715.649C495.958 715.649 497.607 716.09 499.052 716.971C500.508 717.853 501.652 719.056 502.484 720.581C503.325 722.096 503.741 723.839 503.731 725.809C503.741 727.78 503.295 729.537 502.394 731.082C501.503 732.627 500.265 733.845 498.681 734.736C497.107 735.617 495.299 736.058 493.26 736.058Z" fill="#101010"/>
<g opacity="0.5">
<path d="M522.164 734.133C520.759 734.133 519.549 733.815 518.534 733.178C517.526 732.535 516.751 731.65 516.209 730.522C515.667 729.394 515.396 728.102 515.396 726.647C515.396 725.172 515.673 723.871 516.228 722.743C516.782 721.609 517.564 720.723 518.572 720.087C519.58 719.45 520.768 719.132 522.136 719.132C523.238 719.132 524.221 719.337 525.085 719.747C525.948 720.15 526.644 720.717 527.174 721.448C527.709 722.179 528.027 723.033 528.128 724.009H525.378C525.226 723.329 524.88 722.743 524.338 722.251C523.802 721.76 523.084 721.514 522.183 721.514C521.395 721.514 520.705 721.722 520.113 722.138C519.527 722.548 519.07 723.134 518.742 723.896C518.415 724.652 518.251 725.547 518.251 726.58C518.251 727.639 518.411 728.553 518.733 729.322C519.054 730.09 519.508 730.686 520.094 731.108C520.686 731.53 521.382 731.741 522.183 731.741C522.718 731.741 523.204 731.644 523.638 731.448C524.08 731.247 524.448 730.96 524.744 730.588C525.047 730.216 525.258 729.769 525.378 729.246H528.128C528.027 730.185 527.722 731.023 527.211 731.76C526.701 732.498 526.017 733.077 525.16 733.499C524.31 733.922 523.311 734.133 522.164 734.133ZM535.376 734.161C534.456 734.161 533.624 733.991 532.88 733.651C532.137 733.304 531.548 732.803 531.113 732.148C530.684 731.492 530.47 730.689 530.47 729.737C530.47 728.918 530.627 728.244 530.943 727.715C531.258 727.185 531.683 726.766 532.219 726.458C532.754 726.149 533.353 725.916 534.015 725.758C534.676 725.601 535.35 725.481 536.037 725.399C536.907 725.298 537.613 725.216 538.155 725.153C538.696 725.084 539.09 724.974 539.336 724.822C539.582 724.671 539.705 724.425 539.705 724.085V724.019C539.705 723.193 539.472 722.554 539.005 722.1C538.545 721.646 537.858 721.42 536.945 721.42C535.993 721.42 535.243 721.631 534.695 722.053C534.153 722.469 533.778 722.932 533.57 723.442L530.914 722.837C531.229 721.955 531.689 721.243 532.294 720.701C532.905 720.153 533.608 719.756 534.402 719.51C535.196 719.258 536.031 719.132 536.907 719.132C537.487 719.132 538.101 719.201 538.75 719.34C539.405 719.472 540.017 719.718 540.584 720.077C541.157 720.437 541.627 720.95 541.992 721.618C542.358 722.28 542.54 723.14 542.54 724.199V733.84H539.78V731.855H539.667C539.484 732.22 539.21 732.579 538.845 732.932C538.479 733.285 538.01 733.578 537.436 733.811C536.863 734.045 536.176 734.161 535.376 734.161ZM535.99 731.893C536.771 731.893 537.439 731.738 537.994 731.429C538.555 731.121 538.98 730.717 539.27 730.22C539.566 729.715 539.714 729.177 539.714 728.603V726.732C539.613 726.833 539.418 726.927 539.128 727.015C538.845 727.097 538.52 727.17 538.155 727.233C537.789 727.289 537.433 727.343 537.086 727.393C536.74 727.437 536.45 727.475 536.217 727.507C535.669 727.576 535.168 727.693 534.714 727.857C534.267 728.02 533.907 728.257 533.636 728.565C533.372 728.868 533.239 729.271 533.239 729.775C533.239 730.475 533.498 731.004 534.015 731.363C534.531 731.716 535.19 731.893 535.99 731.893ZM549.131 714.482V733.84H546.305V714.482H549.131Z" fill="#101010"/>
</g>
<circle cx="442.248" cy="764.352" r="5.7037" fill="#CCE2FB"/>
<path d="M465.797 762.247H464.458C464.379 761.862 464.24 761.523 464.042 761.232C463.848 760.94 463.61 760.695 463.329 760.497C463.052 760.295 462.744 760.144 462.405 760.043C462.067 759.943 461.714 759.892 461.347 759.892C460.677 759.892 460.07 760.061 459.527 760.4C458.986 760.738 458.556 761.237 458.236 761.896C457.919 762.555 457.76 763.363 457.76 764.321C457.76 765.279 457.919 766.087 458.236 766.746C458.556 767.405 458.986 767.904 459.527 768.242C460.07 768.581 460.677 768.75 461.347 768.75C461.714 768.75 462.067 768.7 462.405 768.599C462.744 768.498 463.052 768.349 463.329 768.151C463.61 767.949 463.848 767.702 464.042 767.411C464.24 767.115 464.379 766.777 464.458 766.395H465.797C465.697 766.961 465.513 767.467 465.246 767.913C464.98 768.36 464.649 768.739 464.253 769.053C463.857 769.362 463.412 769.598 462.919 769.76C462.429 769.922 461.905 770.003 461.347 770.003C460.403 770.003 459.564 769.773 458.83 769.312C458.095 768.851 457.517 768.196 457.096 767.346C456.675 766.496 456.464 765.488 456.464 764.321C456.464 763.155 456.675 762.146 457.096 761.296C457.517 760.447 458.095 759.791 458.83 759.33C459.564 758.87 460.403 758.639 461.347 758.639C461.905 758.639 462.429 758.72 462.919 758.882C463.412 759.044 463.857 759.282 464.253 759.595C464.649 759.905 464.98 760.283 465.246 760.729C465.513 761.172 465.697 761.678 465.797 762.247ZM468.61 772.963C468.394 772.963 468.201 772.945 468.032 772.909C467.863 772.877 467.746 772.844 467.681 772.812L468.005 771.688C468.315 771.768 468.588 771.796 468.826 771.775C469.064 771.753 469.274 771.647 469.458 771.456C469.645 771.269 469.816 770.965 469.971 770.543L470.209 769.895L467.141 761.556H468.524L470.814 768.167H470.9L473.19 761.556H474.573L471.051 771.062C470.893 771.49 470.697 771.845 470.463 772.126C470.229 772.41 469.957 772.621 469.647 772.758C469.341 772.895 468.995 772.963 468.61 772.963ZM479.329 770.025C478.551 770.025 477.881 769.841 477.32 769.474C476.758 769.107 476.326 768.601 476.023 767.956C475.721 767.312 475.57 766.575 475.57 765.747C475.57 764.905 475.724 764.161 476.034 763.516C476.347 762.868 476.783 762.362 477.341 761.999C477.903 761.631 478.558 761.448 479.307 761.448C479.891 761.448 480.416 761.556 480.884 761.772C481.352 761.988 481.736 762.29 482.035 762.679C482.334 763.068 482.519 763.522 482.591 764.04H481.316C481.219 763.662 481.003 763.327 480.668 763.036C480.337 762.74 479.891 762.593 479.329 762.593C478.832 762.593 478.396 762.722 478.022 762.982C477.651 763.237 477.361 763.599 477.152 764.067C476.947 764.532 476.844 765.077 476.844 765.704C476.844 766.345 476.945 766.903 477.147 767.378C477.352 767.854 477.64 768.223 478.011 768.486C478.385 768.748 478.825 768.88 479.329 768.88C479.66 768.88 479.961 768.822 480.231 768.707C480.501 768.592 480.73 768.426 480.917 768.21C481.104 767.994 481.237 767.735 481.316 767.432H482.591C482.519 767.922 482.341 768.363 482.056 768.756C481.776 769.144 481.403 769.454 480.938 769.685C480.477 769.911 479.941 770.025 479.329 770.025ZM485.729 758.79V769.852H484.455V758.79H485.729ZM488.064 769.852V761.556H489.339V769.852H488.064ZM488.712 760.173C488.464 760.173 488.249 760.088 488.069 759.919C487.893 759.75 487.805 759.546 487.805 759.309C487.805 759.071 487.893 758.868 488.069 758.699C488.249 758.529 488.464 758.445 488.712 758.445C488.961 758.445 489.173 758.529 489.349 758.699C489.53 758.868 489.62 759.071 489.62 759.309C489.62 759.546 489.53 759.75 489.349 759.919C489.173 760.088 488.961 760.173 488.712 760.173ZM492.948 764.861V769.852H491.673V761.556H492.905V762.852H493.013C493.207 762.431 493.503 762.092 493.899 761.837C494.295 761.577 494.806 761.448 495.433 761.448C495.994 761.448 496.486 761.563 496.907 761.793C497.328 762.02 497.656 762.366 497.89 762.83C498.124 763.291 498.241 763.875 498.241 764.58V769.852H496.967V764.667C496.967 764.015 496.797 763.507 496.459 763.144C496.12 762.776 495.656 762.593 495.065 762.593C494.658 762.593 494.295 762.681 493.974 762.857C493.657 763.034 493.407 763.291 493.224 763.63C493.04 763.968 492.948 764.379 492.948 764.861ZM503.919 773.136C503.304 773.136 502.774 773.057 502.331 772.898C501.888 772.744 501.519 772.538 501.224 772.283C500.932 772.031 500.7 771.76 500.527 771.472L501.543 770.759C501.658 770.911 501.804 771.084 501.98 771.278C502.157 771.476 502.398 771.647 502.704 771.791C503.014 771.939 503.419 772.013 503.919 772.013C504.589 772.013 505.142 771.851 505.577 771.526C506.013 771.202 506.231 770.695 506.231 770.003V768.318H506.123C506.029 768.469 505.896 768.657 505.723 768.88C505.554 769.099 505.309 769.296 504.989 769.469C504.672 769.638 504.243 769.722 503.703 769.722C503.033 769.722 502.432 769.564 501.899 769.247C501.37 768.93 500.95 768.469 500.641 767.864C500.335 767.259 500.182 766.525 500.182 765.661C500.182 764.811 500.331 764.071 500.63 763.441C500.929 762.807 501.345 762.317 501.878 761.972C502.411 761.622 503.026 761.448 503.725 761.448C504.265 761.448 504.693 761.538 505.01 761.718C505.331 761.894 505.576 762.096 505.745 762.323C505.918 762.546 506.051 762.73 506.145 762.874H506.274V761.556H507.506V770.09C507.506 770.803 507.344 771.382 507.02 771.829C506.699 772.279 506.267 772.608 505.723 772.817C505.183 773.03 504.582 773.136 503.919 773.136ZM503.876 768.577C504.387 768.577 504.82 768.46 505.172 768.226C505.525 767.992 505.794 767.656 505.977 767.216C506.161 766.777 506.253 766.251 506.253 765.639C506.253 765.041 506.163 764.514 505.983 764.057C505.803 763.599 505.536 763.241 505.183 762.982C504.83 762.722 504.395 762.593 503.876 762.593C503.336 762.593 502.886 762.73 502.526 763.003C502.169 763.277 501.901 763.644 501.721 764.105C501.545 764.566 501.456 765.077 501.456 765.639C501.456 766.215 501.546 766.725 501.726 767.168C501.91 767.607 502.18 767.953 502.537 768.205C502.897 768.453 503.343 768.577 503.876 768.577Z" fill="#101010" fill-opacity="0.5"/>
<path d="M519.279 764.516V765.704H514.44V764.516H519.279Z" fill="#101010" fill-opacity="0.5"/>
<path d="M525.306 769.852V768.88L528.957 764.883C529.386 764.415 529.739 764.008 530.016 763.662C530.293 763.313 530.499 762.985 530.632 762.679C530.769 762.37 530.837 762.045 530.837 761.707C530.837 761.318 530.743 760.981 530.556 760.697C530.373 760.412 530.12 760.193 529.8 760.038C529.48 759.883 529.119 759.806 528.72 759.806C528.295 759.806 527.924 759.894 527.607 760.07C527.294 760.243 527.051 760.486 526.878 760.8C526.709 761.113 526.624 761.48 526.624 761.901H525.349C525.349 761.253 525.499 760.684 525.798 760.195C526.097 759.705 526.503 759.323 527.018 759.05C527.537 758.776 528.118 758.639 528.763 758.639C529.411 758.639 529.985 758.776 530.486 759.05C530.986 759.323 531.379 759.692 531.663 760.157C531.948 760.621 532.09 761.138 532.09 761.707C532.09 762.114 532.016 762.512 531.869 762.901C531.725 763.286 531.473 763.716 531.113 764.192C530.756 764.663 530.261 765.239 529.627 765.92L527.143 768.577V768.664H532.285V769.852H525.306ZM534.515 769.852V768.88L538.167 764.883C538.595 764.415 538.948 764.008 539.225 763.662C539.502 763.313 539.708 762.985 539.841 762.679C539.978 762.37 540.046 762.045 540.046 761.707C540.046 761.318 539.953 760.981 539.765 760.697C539.582 760.412 539.33 760.193 539.009 760.038C538.689 759.883 538.329 759.806 537.929 759.806C537.504 759.806 537.133 759.894 536.816 760.07C536.503 760.243 536.26 760.486 536.087 760.8C535.918 761.113 535.833 761.48 535.833 761.901H534.559C534.559 761.253 534.708 760.684 535.007 760.195C535.306 759.705 535.713 759.323 536.227 759.05C536.746 758.776 537.328 758.639 537.972 758.639C538.62 758.639 539.195 758.776 539.695 759.05C540.196 759.323 540.588 759.692 540.873 760.157C541.157 760.621 541.299 761.138 541.299 761.707C541.299 762.114 541.225 762.512 541.078 762.901C540.934 763.286 540.682 763.716 540.322 764.192C539.965 764.663 539.47 765.239 538.836 765.92L536.352 768.577V768.664H541.494V769.852H534.515ZM549.363 767.778V767.195C549.363 766.791 549.446 766.422 549.612 766.087C549.781 765.749 550.026 765.479 550.346 765.277C550.67 765.072 551.063 764.969 551.524 764.969C551.992 764.969 552.384 765.072 552.701 765.277C553.018 765.479 553.258 765.749 553.42 766.087C553.582 766.422 553.663 766.791 553.663 767.195V767.778C553.663 768.181 553.58 768.552 553.414 768.891C553.252 769.226 553.011 769.496 552.69 769.701C552.374 769.902 551.985 770.003 551.524 770.003C551.056 770.003 550.661 769.902 550.341 769.701C550.02 769.496 549.777 769.226 549.612 768.891C549.446 768.552 549.363 768.181 549.363 767.778ZM550.465 767.195V767.778C550.465 768.113 550.544 768.414 550.703 768.68C550.861 768.943 551.135 769.074 551.524 769.074C551.902 769.074 552.168 768.943 552.323 768.68C552.482 768.414 552.561 768.113 552.561 767.778V767.195C552.561 766.86 552.485 766.561 552.334 766.298C552.183 766.032 551.913 765.898 551.524 765.898C551.146 765.898 550.874 766.032 550.708 766.298C550.546 766.561 550.465 766.86 550.465 767.195ZM543.854 761.448V760.864C543.854 760.461 543.937 760.092 544.102 759.757C544.272 759.419 544.517 759.149 544.837 758.947C545.161 758.742 545.554 758.639 546.015 758.639C546.483 758.639 546.875 758.742 547.192 758.947C547.509 759.149 547.748 759.419 547.91 759.757C548.072 760.092 548.153 760.461 548.153 760.864V761.448C548.153 761.851 548.071 762.222 547.905 762.56C547.743 762.895 547.502 763.165 547.181 763.371C546.864 763.572 546.475 763.673 546.015 763.673C545.546 763.673 545.152 763.572 544.832 763.371C544.511 763.165 544.268 762.895 544.102 762.56C543.937 762.222 543.854 761.851 543.854 761.448ZM544.956 760.864V761.448C544.956 761.783 545.035 762.083 545.194 762.35C545.352 762.613 545.626 762.744 546.015 762.744C546.393 762.744 546.659 762.613 546.814 762.35C546.972 762.083 547.052 761.783 547.052 761.448V760.864C547.052 760.53 546.976 760.231 546.825 759.968C546.673 759.701 546.403 759.568 546.015 759.568C545.636 759.568 545.365 759.701 545.199 759.968C545.037 760.231 544.956 760.53 544.956 760.864ZM544.265 769.852L551.869 758.79H553.101L545.496 769.852H544.265Z" fill="#101010" fill-opacity="0.5"/>
<defs>
<filter id="filter0_f_1346_426" x="45.63" y="167.309" width="76.0496" height="76.0494" filterUnits="userSpaceOnUse" color-interpolation-filters="sRGB">
<feFlood flood-opacity="0" result="BackgroundImageFix"/>
<feBlend mode="normal" in="SourceGraphic" in2="BackgroundImageFix" result="shape"/>
<feGaussianBlur stdDeviation="7.60494" result="effect1_foregroundBlur_1346_426"/>
</filter>
</defs>
</svg>
