<svg width="710" height="412" viewBox="0 0 710 412" fill="none" xmlns="http://www.w3.org/2000/svg">
<path d="M73.7441 364.977H75.0007L75.0007 370.901C75.0007 371.436 74.8946 371.895 74.6825 372.276C74.4731 372.656 74.1779 372.947 73.7971 373.149C73.4164 373.347 72.9703 373.447 72.4589 373.447C71.9884 373.447 71.5654 373.361 71.1901 373.189C70.8174 373.018 70.5223 372.769 70.3047 372.443C70.0898 372.114 69.9824 371.714 69.9824 371.243H71.2349C71.2349 371.475 71.288 371.674 71.3941 371.843C71.5029 372.012 71.6511 372.144 71.8388 372.239C72.0292 372.331 72.2468 372.378 72.4916 372.378C72.7581 372.378 72.9839 372.322 73.1688 372.21C73.3565 372.096 73.4993 371.929 73.5972 371.708C73.6951 371.488 73.7441 371.219 73.7441 370.901L73.7441 364.977ZM77.5415 373.332H76.2033L79.2102 364.977H80.6667L83.6736 373.332H82.3354L79.9731 366.494H79.9079L77.5415 373.332ZM77.7659 370.06H82.107L82.107 371.121H77.7659L77.7659 370.06ZM91.6244 364.977L91.6244 373.332H90.4657L86.2185 367.204H86.141L86.141 373.332H84.8803L84.8803 364.977H86.0471L90.2984 371.113H90.376L90.376 364.977H91.6244Z" fill="#838383"/>
<path d="M227.666 373.332H226.327L229.334 364.977H230.791L233.798 373.332H232.46L230.097 366.494H230.032L227.666 373.332ZM227.89 370.06H232.231L232.231 371.121H227.89L227.89 370.06ZM235.004 373.332L235.004 364.977H237.983C238.633 364.977 239.171 365.095 239.598 365.332C240.026 365.568 240.345 365.892 240.557 366.303C240.769 366.711 240.876 367.17 240.876 367.682C240.876 368.196 240.768 368.658 240.553 369.069C240.341 369.477 240.02 369.8 239.59 370.04C239.163 370.276 238.626 370.395 237.979 370.395H235.931L235.931 369.326H237.865C238.275 369.326 238.608 369.255 238.864 369.114C239.12 368.969 239.307 368.774 239.427 368.526C239.547 368.279 239.607 367.997 239.607 367.682C239.607 367.366 239.547 367.086 239.427 366.841C239.307 366.596 239.118 366.405 238.86 366.266C238.604 366.127 238.267 366.058 237.848 366.058H236.265L236.265 373.332H235.004ZM242.353 373.332L242.353 364.977H245.332C245.979 364.977 246.516 365.088 246.943 365.311C247.373 365.534 247.694 365.843 247.906 366.237C248.118 366.629 248.224 367.082 248.224 367.596C248.224 368.107 248.117 368.557 247.902 368.946C247.69 369.333 247.369 369.633 246.939 369.848C246.512 370.063 245.975 370.17 245.328 370.17H243.072L243.072 369.085H245.214C245.621 369.085 245.953 369.027 246.209 368.91C246.467 368.793 246.656 368.623 246.776 368.4C246.896 368.177 246.956 367.909 246.956 367.596C246.956 367.28 246.894 367.007 246.772 366.776C246.652 366.545 246.463 366.368 246.205 366.245C245.949 366.12 245.613 366.058 245.197 366.058H243.614L243.614 373.332H242.353ZM246.478 369.562L248.543 373.332H247.107L245.083 369.562H246.478Z" fill="#838383"/>
<path d="M387.977 364.977H389.234L389.234 370.901C389.234 371.436 389.127 371.895 388.915 372.276C388.706 372.656 388.411 372.947 388.03 373.149C387.649 373.347 387.203 373.447 386.692 373.447C386.221 373.447 385.798 373.361 385.423 373.189C385.05 373.018 384.755 372.769 384.538 372.443C384.323 372.114 384.215 371.714 384.215 371.243H385.468C385.468 371.475 385.521 371.674 385.627 371.843C385.736 372.012 385.884 372.144 386.072 372.239C386.262 372.331 386.48 372.378 386.724 372.378C386.991 372.378 387.217 372.322 387.402 372.21C387.589 372.096 387.732 371.929 387.83 371.708C387.928 371.488 387.977 371.219 387.977 370.901L387.977 364.977ZM396.442 364.977H397.707L397.707 370.472C397.707 371.057 397.569 371.575 397.294 372.027C397.02 372.475 396.634 372.829 396.136 373.087C395.638 373.343 395.055 373.471 394.385 373.471C393.719 373.471 393.137 373.343 392.639 373.087C392.142 372.829 391.755 372.475 391.481 372.027C391.206 371.575 391.069 371.057 391.069 370.472L391.069 364.977H392.329L392.329 370.37C392.329 370.748 392.412 371.084 392.578 371.378C392.747 371.672 392.985 371.903 393.292 372.072C393.599 372.237 393.964 372.32 394.385 372.32C394.81 372.32 395.176 372.237 395.483 372.072C395.793 371.903 396.03 371.672 396.193 371.378C396.359 371.084 396.442 370.748 396.442 370.37L396.442 364.977ZM399.539 373.332L399.539 364.977H400.8L400.8 372.247H404.586L404.586 373.332H399.539Z" fill="#838383"/>
<path d="M553.655 369.154C553.655 370.047 553.491 370.814 553.165 371.456C552.839 372.095 552.391 372.587 551.823 372.932C551.257 373.275 550.614 373.447 549.893 373.447C549.169 373.447 548.523 373.275 547.955 372.932C547.389 372.587 546.943 372.093 546.617 371.451C546.29 370.81 546.127 370.044 546.127 369.154C546.127 368.262 546.29 367.497 546.617 366.857C546.943 366.216 547.389 365.723 547.955 365.38C548.523 365.035 549.169 364.862 549.893 364.862C550.614 364.862 551.257 365.035 551.823 365.38C552.391 365.723 552.839 366.216 553.165 366.857C553.491 367.497 553.655 368.262 553.655 369.154ZM552.406 369.154C552.406 368.474 552.296 367.902 552.076 367.437C551.858 366.969 551.559 366.615 551.178 366.376C550.8 366.134 550.372 366.013 549.893 366.013C549.411 366.013 548.982 366.134 548.604 366.376C548.226 366.615 547.926 366.969 547.706 367.437C547.488 367.902 547.38 368.474 547.38 369.154C547.38 369.834 547.488 370.408 547.706 370.876C547.926 371.341 548.226 371.695 548.604 371.937C548.982 372.176 549.411 372.296 549.893 372.296C550.372 372.296 550.8 372.176 551.178 371.937C551.559 371.695 551.858 371.341 552.076 370.876C552.296 370.408 552.406 369.834 552.406 369.154ZM562.166 367.694H560.893C560.844 367.422 560.753 367.182 560.62 366.976C560.487 366.769 560.324 366.594 560.13 366.449C559.937 366.305 559.721 366.196 559.482 366.123C559.245 366.05 558.994 366.013 558.727 366.013C558.246 366.013 557.814 366.134 557.434 366.376C557.056 366.618 556.756 366.973 556.536 367.441C556.318 367.909 556.21 368.48 556.21 369.154C556.21 369.834 556.318 370.408 556.536 370.876C556.756 371.344 557.057 371.698 557.438 371.937C557.819 372.176 558.247 372.296 558.723 372.296C558.987 372.296 559.237 372.261 559.474 372.19C559.713 372.116 559.929 372.009 560.122 371.868C560.315 371.726 560.479 371.553 560.612 371.349C560.748 371.143 560.842 370.906 560.893 370.64L562.166 370.644C562.098 371.054 561.966 371.432 561.771 371.778C561.577 372.121 561.329 372.417 561.024 372.667C560.722 372.915 560.377 373.107 559.988 373.243C559.599 373.379 559.174 373.447 558.715 373.447C557.991 373.447 557.347 373.275 556.781 372.932C556.215 372.587 555.769 372.093 555.443 371.451C555.119 370.81 554.957 370.044 554.957 369.154C554.957 368.262 555.12 367.497 555.447 366.857C555.773 366.216 556.219 365.723 556.785 365.38C557.351 365.035 557.994 364.862 558.715 364.862C559.158 364.862 559.572 364.926 559.955 365.054C560.341 365.179 560.688 365.364 560.995 365.609C561.303 365.851 561.557 366.148 561.758 366.498C561.96 366.847 562.096 367.245 562.166 367.694ZM563.263 366.062L563.263 364.977H569.73L569.73 366.062H567.122L567.122 373.332H565.866L565.866 366.062H563.263Z" fill="#838383"/>
<path d="M122.457 373.332L122.457 364.977H127.638L127.638 366.062H123.717L123.717 368.608H127.267L127.267 369.689H123.717L123.717 373.332H122.457ZM129.189 373.332L129.189 364.977H134.427L134.427 366.062H130.449L130.449 368.608H134.154L134.154 369.689H130.449L130.449 372.247H134.476L134.476 373.332H129.189ZM136.111 373.332L136.111 364.977H139.171C139.764 364.977 140.255 365.074 140.644 365.27C141.033 365.463 141.324 365.726 141.517 366.058C141.71 366.387 141.807 366.758 141.807 367.172C141.807 367.52 141.743 367.813 141.615 368.053C141.487 368.289 141.316 368.48 141.101 368.624C140.889 368.765 140.655 368.869 140.399 368.934L140.399 369.016C140.677 369.029 140.947 369.119 141.211 369.285C141.478 369.448 141.698 369.681 141.872 369.983C142.046 370.285 142.133 370.652 142.133 371.084C142.133 371.511 142.033 371.895 141.831 372.235C141.633 372.572 141.325 372.84 140.909 373.039C140.493 373.234 139.961 373.332 139.314 373.332H136.111ZM137.372 372.251H139.192C139.795 372.251 140.228 372.134 140.489 371.9C140.75 371.666 140.881 371.374 140.881 371.023C140.881 370.759 140.814 370.517 140.681 370.297C140.547 370.076 140.357 369.901 140.11 369.77C139.865 369.64 139.574 369.575 139.236 369.575H137.372L137.372 372.251ZM137.372 368.591H139.061C139.344 368.591 139.598 368.537 139.824 368.428C140.052 368.319 140.233 368.167 140.367 367.971C140.503 367.773 140.571 367.539 140.571 367.269C140.571 366.924 140.449 366.634 140.207 366.4C139.965 366.167 139.594 366.05 139.094 366.05H137.372L137.372 368.591Z" fill="#838383"/>
<path d="M278.653 364.977H280.183L282.843 371.472H282.941L285.601 364.977H287.131L287.131 373.332H285.931L285.931 367.286H285.854L283.39 373.32H282.394L279.93 367.282H279.852L279.852 373.332H278.653L278.653 364.977ZM289.67 373.332H288.331L291.338 364.977H292.795L295.802 373.332H294.463L292.101 366.494H292.036L289.67 373.332ZM289.894 370.06H294.235L294.235 371.121H289.894L289.894 370.06ZM295.511 364.977H296.943L299.126 368.775H299.216L301.398 364.977H302.83L299.799 370.052L299.799 373.332H298.542L298.542 370.052L295.511 364.977Z" fill="#838383"/>
<path d="M437.776 373.332H436.438L439.445 364.977H440.901L443.908 373.332H442.57L440.208 366.494H440.143L437.776 373.332ZM438.001 370.06H442.342L442.342 371.121H438.001L438.001 370.06ZM450.488 364.977H451.753L451.753 370.472C451.753 371.057 451.616 371.575 451.341 372.027C451.066 372.475 450.68 372.829 450.182 373.087C449.685 373.343 449.101 373.471 448.432 373.471C447.766 373.471 447.184 373.343 446.686 373.087C446.188 372.829 445.802 372.475 445.527 372.027C445.252 371.575 445.115 371.057 445.115 370.472L445.115 364.977H446.376L446.376 370.37C446.376 370.748 446.459 371.084 446.625 371.378C446.793 371.672 447.031 371.903 447.339 372.072C447.646 372.237 448.01 372.32 448.432 372.32C448.856 372.32 449.222 372.237 449.529 372.072C449.84 371.903 450.076 371.672 450.239 371.378C450.405 371.084 450.488 370.748 450.488 370.37L450.488 364.977ZM459.241 367.616C459.162 367.369 459.056 367.147 458.922 366.951C458.792 366.753 458.636 366.584 458.453 366.445C458.271 366.304 458.063 366.196 457.829 366.123C457.598 366.05 457.344 366.013 457.066 366.013C456.596 366.013 456.171 366.134 455.793 366.376C455.415 366.618 455.116 366.973 454.896 367.441C454.678 367.906 454.569 368.476 454.569 369.15C454.569 369.828 454.679 370.4 454.9 370.868C455.12 371.336 455.422 371.691 455.805 371.933C456.189 372.175 456.625 372.296 457.115 372.296C457.569 372.296 457.965 372.203 458.302 372.019C458.642 371.834 458.905 371.572 459.09 371.235C459.277 370.895 459.371 370.495 459.371 370.036L459.698 370.097H457.307L457.307 369.057H460.591L460.591 370.007C460.591 370.709 460.442 371.318 460.142 371.835C459.846 372.349 459.435 372.746 458.91 373.026C458.388 373.306 457.79 373.447 457.115 373.447C456.359 373.447 455.695 373.272 455.124 372.924C454.556 372.576 454.112 372.082 453.794 371.443C453.476 370.801 453.317 370.04 453.317 369.159C453.317 368.492 453.409 367.894 453.594 367.363C453.779 366.833 454.039 366.383 454.373 366.013C454.711 365.64 455.106 365.356 455.561 365.16C456.018 364.962 456.517 364.862 457.058 364.862C457.509 364.862 457.93 364.929 458.319 365.062C458.71 365.196 459.058 365.385 459.363 365.629C459.67 365.874 459.925 366.165 460.126 366.502C460.327 366.837 460.463 367.208 460.534 367.616H459.241Z" fill="#838383"/>
<path d="M607.254 364.977L607.254 373.332H606.096L601.848 367.204H601.771L601.771 373.332H600.51L600.51 364.977H601.677L605.928 371.113H606.006L606.006 364.977H607.254ZM616.352 369.154C616.352 370.047 616.188 370.814 615.862 371.456C615.536 372.095 615.088 372.587 614.52 372.932C613.954 373.275 613.311 373.447 612.59 373.447C611.866 373.447 611.22 373.275 610.652 372.932C610.086 372.587 609.64 372.093 609.314 371.451C608.987 370.81 608.824 370.044 608.824 369.154C608.824 368.262 608.987 367.497 609.314 366.857C609.64 366.216 610.086 365.723 610.652 365.38C611.22 365.035 611.866 364.862 612.59 364.862C613.311 364.862 613.954 365.035 614.52 365.38C615.088 365.723 615.536 366.216 615.862 366.857C616.188 367.497 616.352 368.262 616.352 369.154ZM615.103 369.154C615.103 368.474 614.993 367.902 614.773 367.437C614.555 366.969 614.256 366.615 613.875 366.376C613.497 366.134 613.069 366.013 612.59 366.013C612.108 366.013 611.679 366.134 611.301 366.376C610.923 366.615 610.623 366.969 610.403 367.437C610.185 367.902 610.077 368.474 610.077 369.154C610.077 369.834 610.185 370.408 610.403 370.876C610.623 371.341 610.923 371.695 611.301 371.937C611.679 372.176 612.108 372.296 612.59 372.296C613.069 372.296 613.497 372.176 613.875 371.937C614.256 371.695 614.555 371.341 614.773 370.876C614.993 370.408 615.103 369.834 615.103 369.154ZM618.239 364.977L620.564 371.782H620.658L622.983 364.977H624.346L621.339 373.332H619.883L616.876 364.977H618.239Z" fill="#838383"/>
<path d="M171.225 365.636H172.755L175.415 372.131H175.513L178.173 365.636H179.703L179.703 373.992H178.503L178.503 367.945H178.426L175.962 373.979H174.966L172.502 367.941H172.424L172.424 373.992H171.225L171.225 365.636ZM182.242 373.992H180.903L183.91 365.636H185.367L188.374 373.992H187.036L184.673 367.154H184.608L182.242 373.992ZM182.466 370.72H186.807L186.807 371.78H182.466L182.466 370.72ZM189.58 373.992L189.58 365.636H192.559C193.206 365.636 193.743 365.748 194.17 365.971C194.6 366.194 194.921 366.502 195.133 366.897C195.345 367.288 195.451 367.741 195.451 368.255C195.451 368.767 195.344 369.217 195.129 369.606C194.917 369.992 194.596 370.293 194.166 370.507C193.739 370.722 193.202 370.83 192.555 370.83H190.299L190.299 369.744H192.441C192.848 369.744 193.18 369.686 193.436 369.569C193.694 369.452 193.883 369.282 194.003 369.059C194.123 368.836 194.183 368.568 194.183 368.255C194.183 367.94 194.121 367.666 193.999 367.435C193.879 367.204 193.69 367.027 193.432 366.905C193.176 366.78 192.84 366.717 192.424 366.717H190.841L190.841 373.992H189.58ZM193.705 370.222L195.77 373.992H194.334L192.31 370.222H193.705Z" fill="#838383"/>
<path d="M337.142 364.977H338.398L338.398 370.901C338.398 371.436 338.292 371.895 338.08 372.276C337.871 372.656 337.576 372.947 337.195 373.149C336.814 373.347 336.368 373.447 335.857 373.447C335.386 373.447 334.963 373.361 334.588 373.189C334.215 373.018 333.92 372.769 333.702 372.443C333.487 372.114 333.38 371.714 333.38 371.243H334.633C334.633 371.475 334.686 371.674 334.792 371.843C334.901 372.012 335.049 372.144 335.236 372.239C335.427 372.331 335.644 372.378 335.889 372.378C336.156 372.378 336.382 372.322 336.566 372.21C336.754 372.096 336.897 371.929 336.995 371.708C337.093 371.488 337.142 371.219 337.142 370.901L337.142 364.977ZM345.607 364.977H346.871L346.871 370.472C346.871 371.057 346.734 371.575 346.459 372.027C346.185 372.475 345.798 372.829 345.301 373.087C344.803 373.343 344.219 373.471 343.55 373.471C342.884 373.471 342.302 373.343 341.804 373.087C341.306 372.829 340.92 372.475 340.645 372.027C340.371 371.575 340.233 371.057 340.233 370.472L340.233 364.977H341.494L341.494 370.37C341.494 370.748 341.577 371.084 341.743 371.378C341.912 371.672 342.15 371.903 342.457 372.072C342.764 372.237 343.129 372.32 343.55 372.32C343.975 372.32 344.34 372.237 344.648 372.072C344.958 371.903 345.195 371.672 345.358 371.378C345.524 371.084 345.607 370.748 345.607 370.37L345.607 364.977ZM355.448 364.977L355.448 373.332H354.29L350.043 367.204H349.965L349.965 373.332H348.704L348.704 364.977H349.871L354.122 371.113H354.2L354.2 364.977H355.448Z" fill="#838383"/>
<path d="M496.971 367.172C496.928 366.785 496.748 366.486 496.433 366.274C496.117 366.059 495.72 365.952 495.241 365.952C494.899 365.952 494.602 366.006 494.352 366.115C494.102 366.221 493.907 366.368 493.769 366.556C493.633 366.74 493.565 366.951 493.565 367.188C493.565 367.386 493.611 367.558 493.703 367.702C493.798 367.846 493.922 367.967 494.075 368.065C494.23 368.16 494.396 368.241 494.572 368.306C494.749 368.368 494.919 368.42 495.082 368.461L495.898 368.673C496.165 368.738 496.438 368.827 496.718 368.938C496.999 369.05 497.258 369.197 497.498 369.379C497.737 369.561 497.93 369.787 498.077 370.056C498.227 370.325 498.301 370.648 498.301 371.023C498.301 371.496 498.179 371.917 497.934 372.284C497.692 372.651 497.34 372.941 496.877 373.153C496.418 373.365 495.862 373.471 495.209 373.471C494.583 373.471 494.042 373.372 493.585 373.173C493.128 372.975 492.77 372.693 492.512 372.329C492.254 371.961 492.111 371.526 492.084 371.023H493.348C493.373 371.325 493.471 371.577 493.642 371.778C493.816 371.976 494.038 372.125 494.307 372.223C494.579 372.318 494.877 372.365 495.201 372.365C495.557 372.365 495.874 372.31 496.151 372.198C496.431 372.084 496.652 371.926 496.812 371.725C496.973 371.521 497.053 371.283 497.053 371.011C497.053 370.763 496.982 370.561 496.841 370.403C496.702 370.245 496.513 370.115 496.274 370.011C496.037 369.908 495.769 369.817 495.47 369.738L494.483 369.469C493.813 369.286 493.283 369.018 492.891 368.665C492.502 368.311 492.308 367.843 492.308 367.261C492.308 366.78 492.439 366.36 492.7 366.001C492.961 365.642 493.314 365.363 493.76 365.164C494.206 364.963 494.71 364.862 495.27 364.862C495.836 364.862 496.335 364.962 496.767 365.16C497.203 365.359 497.545 365.632 497.795 365.98C498.046 366.326 498.176 366.723 498.187 367.172H496.971ZM499.808 373.332L499.808 364.977H505.047L505.047 366.062H501.069L501.069 368.608H504.773L504.773 369.689H501.069L501.069 372.247H505.095L505.095 373.332H499.808ZM506.731 373.332L506.731 364.977H509.709C510.359 364.977 510.897 365.095 511.325 365.332C511.752 365.568 512.071 365.892 512.283 366.303C512.495 366.711 512.602 367.17 512.602 367.682C512.602 368.196 512.494 368.658 512.279 369.069C512.067 369.477 511.746 369.8 511.316 370.04C510.889 370.276 510.352 370.395 509.705 370.395H507.657L507.657 369.326H509.591C510.001 369.326 510.334 369.255 510.59 369.114C510.846 368.969 511.033 368.774 511.153 368.526C511.273 368.279 511.333 367.997 511.333 367.682C511.333 367.366 511.273 367.086 511.153 366.841C511.033 366.596 510.844 366.405 510.586 366.266C510.33 366.127 509.993 366.058 509.574 366.058H507.991L507.991 373.332H506.731Z" fill="#838383"/>
<path d="M656.244 373.332H653.539L653.539 364.977H656.33C657.149 364.977 657.852 365.144 658.439 365.478C659.027 365.81 659.477 366.288 659.79 366.91C660.105 367.531 660.263 368.275 660.263 369.142C660.263 370.013 660.104 370.761 659.786 371.386C659.47 372.012 659.013 372.493 658.415 372.83C657.817 373.165 657.093 373.332 656.244 373.332ZM654.8 372.231H656.175C656.811 372.231 657.341 372.111 657.762 371.872C658.184 371.63 658.499 371.28 658.709 370.823C658.918 370.363 659.023 369.803 659.023 369.142C659.023 368.487 658.918 367.93 658.709 367.473C658.502 367.017 658.193 366.67 657.783 366.433C657.372 366.196 656.862 366.078 656.253 366.078H654.8L654.8 372.231ZM661.831 373.332L661.831 364.977H667.069L667.069 366.062H663.092L663.092 368.608H666.796L666.796 369.689H663.092L663.092 372.247H667.118L667.118 373.332H661.831ZM675.693 367.694H674.42C674.372 367.422 674.28 367.182 674.147 366.976C674.014 366.769 673.851 366.594 673.658 366.449C673.464 366.305 673.248 366.196 673.009 366.123C672.772 366.05 672.521 366.013 672.254 366.013C671.773 366.013 671.341 366.134 670.961 366.376C670.583 366.618 670.283 366.973 670.063 367.441C669.846 367.909 669.737 368.48 669.737 369.154C669.737 369.834 669.846 370.408 670.063 370.876C670.283 371.344 670.584 371.698 670.965 371.937C671.346 372.176 671.774 372.296 672.25 372.296C672.514 372.296 672.764 372.261 673.001 372.19C673.24 372.116 673.456 372.009 673.649 371.868C673.842 371.726 674.006 371.553 674.139 371.349C674.275 371.143 674.369 370.906 674.42 370.64L675.693 370.644C675.625 371.054 675.493 371.432 675.298 371.778C675.105 372.121 674.856 372.417 674.551 372.667C674.249 372.915 673.904 373.107 673.515 373.243C673.126 373.379 672.701 373.447 672.242 373.447C671.518 373.447 670.874 373.275 670.308 372.932C669.742 372.587 669.296 372.093 668.97 371.451C668.646 370.81 668.484 370.044 668.484 369.154C668.484 368.262 668.647 367.497 668.974 366.857C669.3 366.216 669.746 365.723 670.312 365.38C670.878 365.035 671.521 364.862 672.242 364.862C672.685 364.862 673.099 364.926 673.482 365.054C673.868 365.179 674.215 365.364 674.522 365.609C674.83 365.851 675.084 366.148 675.285 366.498C675.487 366.847 675.623 367.245 675.693 367.694Z" fill="#838383"/>
<path d="M76.5939 93.2446C76.5939 91.099 78.3333 89.3596 80.4789 89.3596V89.3596C82.6246 89.3596 84.3639 91.099 84.3639 93.2446L84.3639 339.511C84.3639 341.657 82.6246 343.396 80.4789 343.396V343.396C78.3333 343.396 76.5939 341.657 76.5939 339.511L76.5939 93.2446Z" fill="#F2F7FF"/>
<path d="M76.5939 271.964C76.5939 269.818 78.3333 268.079 80.4789 268.079V268.079C82.6246 268.079 84.3639 269.818 84.3639 271.964L84.3639 340.788C84.3639 342.933 82.6246 344.673 80.4789 344.673V344.673C78.3333 344.673 76.5939 342.933 76.5939 340.788L76.5939 271.964Z" fill="#0B8AFF"/>
<path d="M130.21 93.2446C130.21 91.099 131.949 89.3596 134.095 89.3596V89.3596C136.24 89.3596 137.98 91.099 137.98 93.2446L137.98 339.511C137.98 341.657 136.24 343.396 134.095 343.396V343.396C131.949 343.396 130.21 341.657 130.21 339.511L130.21 93.2446Z" fill="#F2F7FF"/>
<path d="M130.21 251.539C130.21 249.393 131.949 247.654 134.095 247.654V247.654C136.24 247.654 137.98 249.393 137.98 251.539L137.98 340.788C137.98 342.933 136.24 344.673 134.095 344.673V344.673C131.949 344.673 130.21 342.933 130.21 340.788L130.21 251.539Z" fill="#0B8AFF"/>
<path d="M182.549 93.2446C182.549 91.099 184.288 89.3596 186.434 89.3596V89.3596C188.58 89.3596 190.319 91.099 190.319 93.2446L190.319 339.511C190.319 341.657 188.58 343.396 186.434 343.396V343.396C184.288 343.396 182.549 341.657 182.549 339.511L182.549 93.2446Z" fill="#F2F7FF"/>
<path d="M182.549 251.539C182.549 249.393 184.288 247.654 186.434 247.654V247.654C188.58 247.654 190.319 249.393 190.319 251.539L190.319 340.788C190.319 342.933 188.58 344.673 186.434 344.673V344.673C184.288 344.673 182.549 342.933 182.549 340.788L182.549 251.539Z" fill="#0B8AFF"/>
<path d="M233.612 93.2446C233.612 91.099 235.351 89.3596 237.497 89.3596V89.3596C239.642 89.3596 241.382 91.099 241.382 93.2446L241.382 339.511C241.382 341.657 239.642 343.396 237.497 343.396V343.396C235.351 343.396 233.612 341.657 233.612 339.511L233.612 93.2446Z" fill="#F2F7FF"/>
<path d="M233.612 192.817C233.612 190.671 235.351 188.932 237.497 188.932V188.932C239.642 188.932 241.382 190.671 241.382 192.817L241.382 340.788C241.382 342.934 239.642 344.673 237.497 344.673V344.673C235.351 344.673 233.612 342.934 233.612 340.788L233.612 192.817Z" fill="#0B8AFF"/>
<path d="M285.951 93.2446C285.951 91.099 287.69 89.3596 289.836 89.3596V89.3596C291.981 89.3596 293.721 91.099 293.721 93.2446L293.721 339.511C293.721 341.657 291.981 343.396 289.836 343.396V343.396C287.69 343.396 285.951 341.657 285.951 339.511L285.951 93.2446Z" fill="#F2F7FF"/>
<path d="M285.951 172.392C285.951 170.246 287.69 168.507 289.836 168.507V168.507C291.981 168.507 293.721 170.246 293.721 172.392L293.721 340.788C293.721 342.933 291.981 344.673 289.836 344.673V344.673C287.69 344.673 285.951 342.933 285.951 340.788L285.951 172.392Z" fill="#0B8AFF"/>
<path d="M342.12 93.2446C342.12 91.099 343.859 89.3596 346.005 89.3596V89.3596C348.15 89.3596 349.89 91.099 349.89 93.2446L349.89 339.511C349.89 341.657 348.15 343.396 346.005 343.396V343.396C343.859 343.396 342.12 341.657 342.12 339.511L342.12 93.2446Z" fill="#F2F7FF"/>
<path d="M342.12 213.242C342.12 211.096 343.859 209.357 346.005 209.357V209.357C348.15 209.357 349.89 211.096 349.89 213.242L349.89 340.788C349.89 342.933 348.15 344.673 346.005 344.673V344.673C343.859 344.673 342.12 342.933 342.12 340.788L342.12 213.242Z" fill="#0B8AFF"/>
<path d="M390.293 93.2446C390.293 91.099 392.033 89.3596 394.178 89.3596V89.3596C396.324 89.3596 398.063 91.099 398.063 93.2446L398.063 339.511C398.063 341.657 396.324 343.396 394.178 343.396V343.396C392.033 343.396 390.293 341.657 390.293 339.511L390.293 93.2446Z" fill="#F2F7FF"/>
<path d="M390.321 192.267C390.305 190.122 392.032 188.36 394.178 188.333V188.333C396.323 188.305 398.075 190.022 398.09 192.168L399.134 340.688C399.15 342.833 397.423 344.595 395.277 344.623V344.623C393.132 344.65 391.38 342.933 391.365 340.788L390.321 192.267Z" fill="#0B8AFF"/>
<path d="M445.522 93.2446C445.522 91.099 447.261 89.3596 449.407 89.3596V89.3596C451.552 89.3596 453.292 91.099 453.292 93.2446L453.292 339.511C453.292 341.657 451.552 343.396 449.407 343.396V343.396C447.261 343.396 445.522 341.657 445.522 339.511L445.522 93.2446Z" fill="#F2F7FF"/>
<path d="M445.522 271.964C445.522 269.818 447.261 268.079 449.407 268.079V268.079C451.552 268.079 453.292 269.818 453.292 271.964L453.292 340.788C453.292 342.933 451.552 344.673 449.407 344.673V344.673C447.261 344.673 445.522 342.933 445.522 340.788L445.522 271.964Z" fill="#0B8AFF"/>
<path d="M497.861 93.2446C497.861 91.099 499.6 89.3596 501.746 89.3596V89.3596C503.891 89.3596 505.631 91.099 505.631 93.2446L505.631 339.511C505.631 341.657 503.891 343.396 501.746 343.396V343.396C499.6 343.396 497.861 341.657 497.861 339.511L497.861 93.2446Z" fill="#F2F7FF"/>
<path d="M497.861 172.392C497.861 170.246 499.6 168.507 501.746 168.507V168.507C503.891 168.507 505.631 170.246 505.631 172.392L505.631 340.788C505.631 342.933 503.891 344.673 501.746 344.673V344.673C499.6 344.673 497.861 342.933 497.861 340.788L497.861 172.392Z" fill="#0B8AFF"/>
<path d="M551.477 93.2446C551.477 91.099 553.216 89.3596 555.362 89.3596V89.3596C557.507 89.3596 559.247 91.099 559.247 93.2446L559.247 339.511C559.247 341.657 557.507 343.396 555.362 343.396V343.396C553.216 343.396 551.477 341.657 551.477 339.511L551.477 93.2446Z" fill="#F2F7FF"/>
<path d="M551.477 136.648C551.477 134.502 553.216 132.763 555.362 132.763V132.763C557.507 132.763 559.247 134.502 559.247 136.648L559.247 340.788C559.247 342.933 557.507 344.673 555.362 344.673V344.673C553.216 344.673 551.477 342.933 551.477 340.788L551.477 136.648Z" fill="#0B8AFF"/>
<path d="M602.539 93.2446C602.539 91.099 604.279 89.3596 606.424 89.3596V89.3596C608.57 89.3596 610.309 91.099 610.309 93.2446L610.309 339.511C610.309 341.657 608.57 343.396 606.424 343.396V343.396C604.279 343.396 602.539 341.657 602.539 339.511L602.539 93.2446Z" fill="#F2F7FF"/>
<path d="M602.539 116.223C602.539 114.077 604.279 112.338 606.424 112.338V112.338C608.57 112.338 610.309 114.077 610.309 116.223L610.309 340.788C610.309 342.934 608.57 344.673 606.424 344.673V344.673C604.279 344.673 602.539 342.934 602.539 340.788L602.539 116.223Z" fill="#0B8AFF"/>
<path d="M656.155 95.7424C656.155 92.2173 659.013 89.3596 662.538 89.3596V89.3596C666.063 89.3596 668.921 92.2173 668.921 95.7424L668.921 337.013C668.921 340.539 666.063 343.396 662.538 343.396V343.396C659.013 343.396 656.155 340.539 656.155 337.013L656.155 95.7424Z" fill="#F2F7FF"/>
<path d="M656.155 93.2446C656.155 91.099 657.894 89.3596 660.04 89.3596V89.3596C662.186 89.3596 663.925 91.099 663.925 93.2446L663.925 340.788C663.925 342.933 662.186 344.673 660.04 344.673V344.673C657.894 344.673 656.155 342.933 656.155 340.788L656.155 93.2446Z" fill="#0B8AFF"/>
<g opacity="0.5">
<path d="M30.8247 99.4044V98.1011L34.6639 92.0353H35.7507V93.8908H35.088L32.5035 97.9863V98.057H37.8625V99.4044H30.8247ZM35.1411 101.083V99.0068L35.1587 98.4236V92.0353H36.705V101.083H35.1411ZM42.6184 101.256C41.8909 101.256 41.2665 101.071 40.7452 100.703C40.2269 100.332 39.8278 99.7976 39.548 99.0996C39.2711 98.3986 39.1327 97.5548 39.1327 96.5681C39.1356 95.5814 39.2755 94.742 39.5524 94.0499C39.8322 93.3548 40.2313 92.8246 40.7496 92.4594C41.271 92.0942 41.8939 91.9116 42.6184 91.9116C43.343 91.9116 43.9659 92.0942 44.4872 92.4594C45.0085 92.8246 45.4076 93.3548 45.6845 94.0499C45.9643 94.745 46.1042 95.5844 46.1042 96.5681C46.1042 97.5577 45.9643 98.403 45.6845 99.104C45.4076 99.802 45.0085 100.335 44.4872 100.703C43.9689 101.071 43.3459 101.256 42.6184 101.256ZM42.6184 99.8727C43.1839 99.8727 43.6301 99.5944 43.9571 99.0377C44.2869 98.4781 44.4519 97.6549 44.4519 96.5681C44.4519 95.8495 44.3768 95.2457 44.2266 94.7567C44.0764 94.2678 43.8643 93.8997 43.5904 93.6523C43.3165 93.4019 42.9925 93.2767 42.6184 93.2767C42.0559 93.2767 41.6111 93.5565 41.2842 94.1161C40.9573 94.6728 40.7923 95.4901 40.7894 96.5681C40.7865 97.2897 40.8586 97.8964 41.0059 98.3883C41.1561 98.8802 41.3682 99.2513 41.6421 99.5016C41.916 99.749 42.2414 99.8727 42.6184 99.8727ZM50.9164 101.256C50.189 101.256 49.5646 101.071 49.0432 100.703C48.5249 100.332 48.1258 99.7976 47.846 99.0996C47.5691 98.3986 47.4307 97.5548 47.4307 96.5681C47.4336 95.5814 47.5735 94.742 47.8504 94.0499C48.1302 93.3548 48.5293 92.8246 49.0477 92.4594C49.569 92.0942 50.1919 91.9116 50.9164 91.9116C51.641 91.9116 52.2639 92.0942 52.7852 92.4594C53.3066 92.8246 53.7056 93.3548 53.9825 94.0499C54.2623 94.745 54.4022 95.5844 54.4022 96.5681C54.4022 97.5577 54.2623 98.403 53.9825 99.104C53.7056 99.802 53.3066 100.335 52.7852 100.703C52.2669 101.071 51.6439 101.256 50.9164 101.256ZM50.9164 99.8727C51.4819 99.8727 51.9282 99.5944 52.2551 99.0377C52.585 98.4781 52.7499 97.6549 52.7499 96.5681C52.7499 95.8495 52.6748 95.2457 52.5246 94.7567C52.3744 94.2678 52.1623 93.8997 51.8884 93.6523C51.6145 93.4019 51.2905 93.2767 50.9164 93.2767C50.3539 93.2767 49.9092 93.5565 49.5822 94.1161C49.2553 94.6728 49.0904 95.4901 49.0874 96.5681C49.0845 97.2897 49.1566 97.8964 49.3039 98.3883C49.4541 98.8802 49.6662 99.2513 49.9401 99.5016C50.214 99.749 50.5395 99.8727 50.9164 99.8727Z" fill="#141D40"/>
<path d="M34.4176 159.528C33.7814 159.528 33.2159 159.419 32.7211 159.201C32.2293 158.983 31.8405 158.68 31.5548 158.291C31.2691 157.902 31.1174 157.453 31.0997 156.943H32.7609C32.7756 157.188 32.8566 157.401 33.0039 157.584C33.1511 157.764 33.347 157.904 33.5915 158.004C33.8359 158.104 34.1098 158.154 34.4132 158.154C34.7372 158.154 35.0243 158.098 35.2747 157.986C35.525 157.871 35.7209 157.712 35.8623 157.509C36.0037 157.306 36.0729 157.072 36.0699 156.807C36.0729 156.533 36.0022 156.291 35.8579 156.082C35.7135 155.873 35.5044 155.709 35.2305 155.592C34.9595 155.474 34.6326 155.415 34.2497 155.415H33.4501V154.151H34.2497C34.5649 154.151 34.8403 154.097 35.0759 153.988C35.3145 153.879 35.5015 153.726 35.637 153.528C35.7725 153.328 35.8387 153.097 35.8358 152.835C35.8387 152.579 35.7813 152.356 35.6635 152.168C35.5486 151.976 35.3851 151.828 35.1731 151.721C34.964 151.615 34.718 151.562 34.4353 151.562C34.1584 151.562 33.9022 151.613 33.6666 151.713C33.4309 151.813 33.241 151.956 33.0966 152.141C32.9523 152.324 32.8757 152.542 32.8669 152.795H31.2897C31.3015 152.288 31.4473 151.844 31.7271 151.461C32.0098 151.075 32.3868 150.775 32.8581 150.56C33.3293 150.342 33.858 150.233 34.4441 150.233C35.0479 150.233 35.5722 150.346 36.0169 150.573C36.4646 150.797 36.8107 151.099 37.0551 151.478C37.2996 151.858 37.4218 152.278 37.4218 152.738C37.4248 153.247 37.2746 153.674 36.9712 154.019C36.6708 154.363 36.2761 154.589 35.7872 154.695V154.765C36.4234 154.854 36.9108 155.089 37.2495 155.472C37.5912 155.852 37.7605 156.325 37.7576 156.89C37.7576 157.397 37.6133 157.851 37.3246 158.251C37.0389 158.649 36.6443 158.961 36.1406 159.188C35.6399 159.415 35.0656 159.528 34.4176 159.528ZM42.6184 159.577C41.8909 159.577 41.2665 159.393 40.7452 159.024C40.2268 158.653 39.8278 158.119 39.548 157.421C39.2711 156.72 39.1327 155.876 39.1327 154.889C39.1356 153.902 39.2755 153.063 39.5524 152.371C39.8322 151.676 40.2313 151.146 40.7496 150.78C41.271 150.415 41.8939 150.233 42.6184 150.233C43.343 150.233 43.9659 150.415 44.4872 150.78C45.0085 151.146 45.4076 151.676 45.6845 152.371C45.9643 153.066 46.1042 153.905 46.1042 154.889C46.1042 155.879 45.9643 156.724 45.6845 157.425C45.4076 158.123 45.0085 158.656 44.4872 159.024C43.9689 159.393 43.3459 159.577 42.6184 159.577ZM42.6184 158.194C43.1839 158.194 43.6301 157.915 43.9571 157.359C44.2869 156.799 44.4519 155.976 44.4519 154.889C44.4519 154.17 44.3768 153.567 44.2266 153.078C44.0764 152.589 43.8643 152.221 43.5904 151.973C43.3165 151.723 42.9925 151.598 42.6184 151.598C42.0559 151.598 41.6111 151.878 41.2842 152.437C40.9573 152.994 40.7923 153.811 40.7894 154.889C40.7865 155.611 40.8586 156.217 41.0059 156.709C41.1561 157.201 41.3682 157.572 41.6421 157.823C41.916 158.07 42.2414 158.194 42.6184 158.194ZM50.9164 159.577C50.189 159.577 49.5646 159.393 49.0432 159.024C48.5249 158.653 48.1258 158.119 47.846 157.421C47.5691 156.72 47.4307 155.876 47.4307 154.889C47.4336 153.902 47.5735 153.063 47.8504 152.371C48.1302 151.676 48.5293 151.146 49.0477 150.78C49.569 150.415 50.1919 150.233 50.9164 150.233C51.641 150.233 52.2639 150.415 52.7852 150.78C53.3066 151.146 53.7056 151.676 53.9825 152.371C54.2623 153.066 54.4022 153.905 54.4022 154.889C54.4022 155.879 54.2623 156.724 53.9825 157.425C53.7056 158.123 53.3066 158.656 52.7852 159.024C52.2669 159.393 51.6439 159.577 50.9164 159.577ZM50.9164 158.194C51.4819 158.194 51.9282 157.915 52.2551 157.359C52.585 156.799 52.7499 155.976 52.7499 154.889C52.7499 154.17 52.6748 153.567 52.5246 153.078C52.3744 152.589 52.1623 152.221 51.8884 151.973C51.6145 151.723 51.2905 151.598 50.9164 151.598C50.3539 151.598 49.9092 151.878 49.5822 152.437C49.2553 152.994 49.0904 153.811 49.0874 154.889C49.0845 155.611 49.1566 156.217 49.3039 156.709C49.4541 157.201 49.6662 157.572 49.9401 157.823C50.214 158.07 50.5394 158.194 50.9164 158.194Z" fill="#141D40"/>
<path d="M31.5471 217.726V216.542L34.6882 213.463C34.9886 213.159 35.239 212.89 35.4393 212.654C35.6395 212.419 35.7898 212.19 35.8899 211.969C35.99 211.749 36.0401 211.513 36.0401 211.263C36.0401 210.977 35.9753 210.732 35.8457 210.529C35.7161 210.323 35.5379 210.164 35.3111 210.052C35.0844 209.94 34.8266 209.884 34.538 209.884C34.2405 209.884 33.9799 209.946 33.756 210.07C33.5322 210.191 33.3584 210.363 33.2347 210.587C33.114 210.811 33.0536 211.077 33.0536 211.386H31.494C31.494 210.812 31.6251 210.313 31.8872 209.889C32.1494 209.465 32.5102 209.136 32.9696 208.903C33.432 208.671 33.9622 208.554 34.5601 208.554C35.1668 208.554 35.6999 208.668 36.1594 208.895C36.6189 209.121 36.9752 209.432 37.2285 209.827C37.4848 210.221 37.6129 210.672 37.6129 211.179C37.6129 211.517 37.5481 211.85 37.4185 212.177C37.2889 212.504 37.0607 212.866 36.7337 213.264C36.4097 213.662 35.9547 214.143 35.3686 214.709L33.809 216.295V216.357H37.7499V217.726H31.5471ZM42.6184 217.898C41.8909 217.898 41.2665 217.714 40.7452 217.346C40.2268 216.975 39.8278 216.44 39.548 215.742C39.2711 215.041 39.1327 214.198 39.1327 213.211C39.1356 212.224 39.2755 211.385 39.5524 210.693C39.8322 209.998 40.2313 209.467 40.7496 209.102C41.271 208.737 41.8939 208.554 42.6184 208.554C43.343 208.554 43.9659 208.737 44.4872 209.102C45.0085 209.467 45.4076 209.998 45.6845 210.693C45.9643 211.388 46.1042 212.227 46.1042 213.211C46.1042 214.201 45.9643 215.046 45.6845 215.747C45.4076 216.445 45.0085 216.978 44.4872 217.346C43.9689 217.714 43.3459 217.898 42.6184 217.898ZM42.6184 216.516C43.1839 216.516 43.6301 216.237 43.9571 215.681C44.2869 215.121 44.4519 214.298 44.4519 213.211C44.4519 212.492 44.3768 211.888 44.2266 211.4C44.0764 210.911 43.8643 210.542 43.5904 210.295C43.3165 210.045 42.9925 209.92 42.6184 209.92C42.0559 209.92 41.6111 210.199 41.2842 210.759C40.9573 211.316 40.7923 212.133 40.7894 213.211C40.7865 213.933 40.8586 214.539 41.0059 215.031C41.1561 215.523 41.3682 215.894 41.6421 216.144C41.916 216.392 42.2414 216.516 42.6184 216.516ZM50.9164 217.898C50.189 217.898 49.5646 217.714 49.0432 217.346C48.5249 216.975 48.1258 216.44 47.846 215.742C47.5691 215.041 47.4307 214.198 47.4307 213.211C47.4336 212.224 47.5735 211.385 47.8504 210.693C48.1302 209.998 48.5293 209.467 49.0477 209.102C49.569 208.737 50.1919 208.554 50.9164 208.554C51.641 208.554 52.2639 208.737 52.7852 209.102C53.3066 209.467 53.7056 209.998 53.9825 210.693C54.2623 211.388 54.4022 212.227 54.4022 213.211C54.4022 214.201 54.2623 215.046 53.9825 215.747C53.7056 216.445 53.3066 216.978 52.7852 217.346C52.2669 217.714 51.6439 217.898 50.9164 217.898ZM50.9164 216.516C51.4819 216.516 51.9282 216.237 52.2551 215.681C52.585 215.121 52.7499 214.298 52.7499 213.211C52.7499 212.492 52.6748 211.888 52.5246 211.4C52.3744 210.911 52.1623 210.542 51.8884 210.295C51.6145 210.045 51.2905 209.92 50.9164 209.92C50.3539 209.92 49.9092 210.199 49.5822 210.759C49.2553 211.316 49.0904 212.133 49.0874 213.211C49.0845 213.933 49.1566 214.539 49.3039 215.031C49.4541 215.523 49.6662 215.894 49.9401 216.144C50.214 216.392 50.5395 216.516 50.9164 216.516Z" fill="#141D40"/>
<path d="M36.9767 266.999V276.047H35.3377V268.594H35.2846L33.1684 269.946V268.444L35.4172 266.999H36.9767ZM42.6184 276.219C41.8909 276.219 41.2665 276.035 40.7452 275.667C40.2268 275.296 39.8278 274.761 39.548 274.063C39.2711 273.362 39.1327 272.518 39.1327 271.532C39.1356 270.545 39.2755 269.706 39.5524 269.013C39.8322 268.318 40.2313 267.788 40.7496 267.423C41.271 267.058 41.8939 266.875 42.6184 266.875C43.343 266.875 43.9659 267.058 44.4872 267.423C45.0085 267.788 45.4076 268.318 45.6845 269.013C45.9643 269.709 46.1042 270.548 46.1042 271.532C46.1042 272.521 45.9643 273.367 45.6845 274.068C45.4076 274.766 45.0085 275.299 44.4872 275.667C43.9689 276.035 43.3459 276.219 42.6184 276.219ZM42.6184 274.836C43.1839 274.836 43.6301 274.558 43.9571 274.001C44.2869 273.442 44.4519 272.619 44.4519 271.532C44.4519 270.813 44.3768 270.209 44.2266 269.72C44.0764 269.231 43.8643 268.863 43.5904 268.616C43.3165 268.366 42.9925 268.24 42.6184 268.24C42.0559 268.24 41.6111 268.52 41.2842 269.08C40.9573 269.636 40.7923 270.454 40.7894 271.532C40.7865 272.253 40.8586 272.86 41.0059 273.352C41.1561 273.844 41.3682 274.215 41.6421 274.465C41.916 274.713 42.2414 274.836 42.6184 274.836ZM50.9164 276.219C50.189 276.219 49.5646 276.035 49.0432 275.667C48.5249 275.296 48.1258 274.761 47.846 274.063C47.5691 273.362 47.4307 272.518 47.4307 271.532C47.4336 270.545 47.5735 269.706 47.8504 269.013C48.1302 268.318 48.5293 267.788 49.0477 267.423C49.569 267.058 50.1919 266.875 50.9164 266.875C51.641 266.875 52.2639 267.058 52.7852 267.423C53.3066 267.788 53.7056 268.318 53.9825 269.013C54.2623 269.709 54.4022 270.548 54.4022 271.532C54.4022 272.521 54.2623 273.367 53.9825 274.068C53.7056 274.766 53.3066 275.299 52.7852 275.667C52.2669 276.035 51.6439 276.219 50.9164 276.219ZM50.9164 274.836C51.4819 274.836 51.9282 274.558 52.2551 274.001C52.585 273.442 52.7499 272.619 52.7499 271.532C52.7499 270.813 52.6748 270.209 52.5246 269.72C52.3744 269.231 52.1623 268.863 51.8884 268.616C51.6145 268.366 51.2905 268.24 50.9164 268.24C50.3539 268.24 49.9092 268.52 49.5822 269.08C49.2553 269.636 49.0904 270.454 49.0874 271.532C49.0845 272.253 49.1566 272.86 49.3039 273.352C49.4541 273.844 49.6662 274.215 49.9401 274.465C50.214 274.713 50.5395 274.836 50.9164 274.836Z" fill="#141D40"/>
<path d="M49.4113 334.541C48.6838 334.541 48.0594 334.357 47.5381 333.989C47.0197 333.618 46.6206 333.083 46.3408 332.385C46.0639 331.684 45.9255 330.84 45.9255 329.854C45.9284 328.867 46.0683 328.027 46.3452 327.335C46.625 326.64 47.0241 326.11 47.5425 325.745C48.0638 325.38 48.6867 325.197 49.4113 325.197C50.1358 325.197 50.7587 325.38 51.2801 325.745C51.8014 326.11 52.2005 326.64 52.4773 327.335C52.7571 328.03 52.897 328.87 52.897 329.854C52.897 330.843 52.7571 331.688 52.4773 332.389C52.2005 333.087 51.8014 333.621 51.2801 333.989C50.7617 334.357 50.1387 334.541 49.4113 334.541ZM49.4113 333.158C49.9768 333.158 50.423 332.88 50.7499 332.323C51.0798 331.764 51.2447 330.94 51.2447 329.854C51.2447 329.135 51.1696 328.531 51.0194 328.042C50.8692 327.553 50.6571 327.185 50.3832 326.938C50.1093 326.687 49.7853 326.562 49.4113 326.562C48.8487 326.562 48.404 326.842 48.077 327.402C47.7501 327.958 47.5852 328.776 47.5822 329.854C47.5793 330.575 47.6514 331.182 47.7987 331.674C47.9489 332.166 48.161 332.537 48.4349 332.787C48.7088 333.034 49.0343 333.158 49.4113 333.158Z" fill="#141D40"/>
</g>
<path d="M26.0497 36.1484L30.4462 23.6381H33.252L37.6843 36.1484H35.6826L34.5567 32.6634H29.1415L27.9977 36.1484H26.0497ZM29.6598 31.1264H34.0027L32.4657 26.8729C32.2512 26.301 32.2155 25.6219 32.2333 25.0857H31.4291C31.447 25.6219 31.3934 26.301 31.1789 26.8729L29.6598 31.1264ZM42.7144 36.345C39.9621 36.345 38.3179 34.54 38.3179 31.6805C38.3179 28.8209 39.9621 27.0159 42.7144 27.0159C45.0914 27.0159 46.6641 28.3384 46.7713 30.5724H44.9484C44.8412 29.3214 44.1084 28.5529 42.7144 28.5529C40.9808 28.5529 40.123 29.8575 40.123 31.6805C40.123 33.5034 41.0523 34.808 42.7144 34.808C44.0727 34.808 44.9126 34.0574 45.0377 32.6992H46.8607C46.6998 35.0046 45.1092 36.345 42.7144 36.345ZM51.5056 36.1484C50.0401 36.1484 49.2716 35.2012 49.2716 33.6285L49.2894 28.678H47.4308V27.2125H49.3073V24.7104H50.9515V27.2125H53.6681V28.678H50.9873V33.5391C50.9873 34.4863 51.1481 34.6472 52.0417 34.6472H53.7574V36.1484H51.5056ZM55.2 36.1484V27.2125H56.9693V36.1484H55.2ZM55.1822 25.7827V23.6381H57.0051V25.7827H55.1822ZM61.4943 36.1484L58.3488 27.2303H60.1896L62.1556 32.9136C62.3522 33.5391 62.37 34.2719 62.3522 34.808H63.1564C63.1385 34.2719 63.1385 33.5391 63.353 32.9136L65.301 27.2303H67.124L63.9785 36.1484H61.4943ZM68.49 36.1484V27.2125H70.2594V36.1484H68.49ZM68.4722 25.7827V23.6381H70.2951V25.7827H68.4722ZM75.6422 36.1484C74.1767 36.1484 73.4082 35.2012 73.4082 33.6285L73.426 28.678H71.5674V27.2125H73.4439V24.7104H75.0881V27.2125H77.8047V28.678H75.1239V33.5391C75.1239 34.4863 75.2847 34.6472 76.1783 34.6472H77.894V36.1484H75.6422ZM78.7647 39.3654V37.8284H80.3732C81.1774 37.8284 81.4276 37.5961 81.5527 37.0063L81.8566 35.9518L78.2464 27.2125H80.123L82.0889 32.1809C82.3927 32.9136 82.357 33.9323 82.357 34.6651H83.1612C83.1612 33.9502 83.1433 32.9136 83.4829 32.1809L85.288 27.2125H87.1288L83.0719 37.8284C82.7502 38.6684 81.9995 39.3654 80.9451 39.3654H78.7647Z" fill="#968F8F"/>
<line x1="25.5314" y1="54.3818" x2="677.857" y2="54.3818" stroke="#E4E5E7" stroke-width="1.02125"/>
<path d="M613.851 28.1137H616.32L619.628 36.1865H619.758L623.066 28.1137H625.536V39.2546H623.599V31.6007H623.496L620.417 39.222H618.97L615.891 31.5844H615.787V39.2546H613.851V28.1137ZM631.316 39.4178C630.5 39.4178 629.793 39.2383 629.195 38.8793C628.597 38.5203 628.132 38.018 627.802 37.3724C627.476 36.7269 627.313 35.9726 627.313 35.1094C627.313 34.2463 627.476 33.4901 627.802 32.841C628.132 32.1918 628.597 31.6877 629.195 31.3287C629.793 30.9697 630.5 30.7901 631.316 30.7901C632.132 30.7901 632.84 30.9697 633.438 31.3287C634.036 31.6877 634.499 32.1918 634.825 32.841C635.155 33.4901 635.32 34.2463 635.32 35.1094C635.32 35.9726 635.155 36.7269 634.825 37.3724C634.499 38.018 634.036 38.5203 633.438 38.8793C632.84 39.2383 632.132 39.4178 631.316 39.4178ZM631.327 37.8403C631.77 37.8403 632.14 37.7188 632.437 37.4758C632.734 37.2292 632.956 36.8992 633.101 36.4857C633.249 36.0723 633.324 35.6117 633.324 35.104C633.324 34.5926 633.249 34.1302 633.101 33.7168C632.956 33.2997 632.734 32.9679 632.437 32.7213C632.14 32.4747 631.77 32.3514 631.327 32.3514C630.874 32.3514 630.497 32.4747 630.196 32.7213C629.898 32.9679 629.675 33.2997 629.527 33.7168C629.382 34.1302 629.309 34.5926 629.309 35.104C629.309 35.6117 629.382 36.0723 629.527 36.4857C629.675 36.8992 629.898 37.2292 630.196 37.4758C630.497 37.7188 630.874 37.8403 631.327 37.8403ZM638.986 34.3587V39.2546H637.017V30.8989H638.899V32.3187H638.997C639.19 31.8509 639.496 31.4792 639.917 31.2036C640.341 30.9279 640.865 30.7901 641.489 30.7901C642.065 30.7901 642.568 30.9134 642.996 31.16C643.427 31.4067 643.761 31.7639 643.997 32.2317C644.236 32.6995 644.354 33.2671 644.35 33.9344V39.2546H642.381V34.239C642.381 33.6805 642.236 33.2435 641.946 32.928C641.659 32.6125 641.262 32.4547 640.754 32.4547C640.41 32.4547 640.103 32.5309 639.835 32.6832C639.57 32.8319 639.362 33.0477 639.209 33.3306C639.061 33.6134 638.986 33.9562 638.986 34.3587ZM650.55 30.8989V32.4221H645.747V30.8989H650.55ZM646.932 28.897H648.902V36.7414C648.902 37.0061 648.942 37.2092 649.021 37.3507C649.105 37.4885 649.214 37.5828 649.348 37.6335C649.482 37.6843 649.631 37.7097 649.794 37.7097C649.917 37.7097 650.03 37.7006 650.131 37.6825C650.236 37.6644 650.316 37.6481 650.371 37.6335L650.702 39.173C650.597 39.2093 650.447 39.2492 650.251 39.2927C650.059 39.3362 649.823 39.3616 649.544 39.3689C649.05 39.3834 648.606 39.309 648.211 39.1458C647.816 38.979 647.502 38.7215 647.27 38.3734C647.041 38.0252 646.929 37.59 646.932 37.0678V28.897ZM654.371 34.3587V39.2546H652.402V28.1137H654.328V32.3187H654.426C654.621 31.8473 654.924 31.4756 655.334 31.2036C655.748 30.9279 656.273 30.7901 656.912 30.7901C657.492 30.7901 657.998 30.9116 658.429 31.1546C658.861 31.3976 659.195 31.753 659.43 32.2208C659.67 32.6887 659.789 33.2599 659.789 33.9344V39.2546H657.82V34.239C657.82 33.6769 657.675 33.2399 657.385 32.928C657.098 32.6125 656.696 32.4547 656.177 32.4547C655.829 32.4547 655.517 32.5309 655.242 32.6832C654.97 32.8319 654.756 33.0477 654.6 33.3306C654.447 33.6134 654.371 33.9562 654.371 34.3587Z" fill="#0F2552"/>
<path d="M666.591 30.4039L671.474 35.2868L676.357 30.4039L677.857 31.9145L671.474 38.2974L665.091 31.9145L666.591 30.4039Z" fill="#848A95"/>
</svg>
