<svg width="371" height="184" viewBox="0 0 371 184" fill="none" xmlns="http://www.w3.org/2000/svg">
<rect width="371" height="184" fill="white"/>
<path d="M22.3118 38H20.343L23.9276 27.8182H26.2045L29.794 38H27.8253L25.1058 29.9062H25.0263L22.3118 38ZM22.3764 34.0078H27.7457V35.4893H22.3764V34.0078ZM32.8553 33.5256V38H31.0556V30.3636H32.7757V31.6612H32.8652C33.0409 31.2337 33.321 30.8939 33.7054 30.642C34.0932 30.3902 34.5721 30.2642 35.1422 30.2642C35.6692 30.2642 36.1283 30.3769 36.5194 30.6023C36.9138 30.8277 37.2187 31.1541 37.4341 31.5817C37.6529 32.0092 37.7606 32.5279 37.7573 33.1378V38H35.9576V33.4162C35.9576 32.9058 35.825 32.5064 35.5598 32.218C35.298 31.9297 34.9351 31.7855 34.4711 31.7855C34.1562 31.7855 33.8761 31.8551 33.6309 31.9943C33.3889 32.1302 33.1983 32.3274 33.0591 32.5859C32.9232 32.8445 32.8553 33.1577 32.8553 33.5256ZM41.7843 38.1541C41.3004 38.1541 40.8645 38.0679 40.4767 37.8956C40.0923 37.7199 39.7873 37.4614 39.562 37.12C39.3399 36.7786 39.2289 36.3577 39.2289 35.8572C39.2289 35.4264 39.3084 35.0701 39.4675 34.7884C39.6266 34.5066 39.8437 34.2812 40.1188 34.1122C40.3939 33.9432 40.7038 33.8156 41.0485 33.7294C41.3965 33.6399 41.7561 33.5753 42.1273 33.5355C42.5748 33.4891 42.9377 33.4477 43.2161 33.4112C43.4945 33.3714 43.6967 33.3118 43.8226 33.2322C43.9519 33.1494 44.0165 33.0218 44.0165 32.8494V32.8196C44.0165 32.4451 43.9055 32.1551 43.6834 31.9496C43.4614 31.7441 43.1415 31.6413 42.7239 31.6413C42.2831 31.6413 41.9334 31.7375 41.6749 31.9297C41.4197 32.1219 41.2473 32.349 41.1578 32.6108L39.4775 32.3722C39.61 31.9081 39.8288 31.5204 40.1337 31.2088C40.4386 30.8939 40.8115 30.6586 41.2523 30.5028C41.6931 30.3438 42.1803 30.2642 42.714 30.2642C43.0819 30.2642 43.4481 30.3073 43.8127 30.3935C44.1773 30.4796 44.5104 30.6222 44.812 30.821C45.1136 31.0166 45.3555 31.2834 45.5378 31.6214C45.7234 31.9595 45.8162 32.3821 45.8162 32.8892V38H44.0861V36.951H44.0265C43.9171 37.1631 43.763 37.362 43.5641 37.5476C43.3685 37.7299 43.1216 37.8774 42.8233 37.9901C42.5283 38.0994 42.182 38.1541 41.7843 38.1541ZM42.2516 36.8317C42.6129 36.8317 42.9261 36.7604 43.1912 36.6179C43.4564 36.4721 43.6602 36.2798 43.8027 36.0412C43.9486 35.8026 44.0215 35.5424 44.0215 35.2607V34.3608C43.9651 34.4072 43.869 34.4503 43.7331 34.4901C43.6006 34.5298 43.4514 34.5646 43.2857 34.5945C43.12 34.6243 42.9559 34.6508 42.7935 34.674C42.6311 34.6972 42.4902 34.7171 42.3709 34.7337C42.1025 34.7701 41.8622 34.8298 41.65 34.9126C41.4379 34.9955 41.2705 35.1115 41.1479 35.2607C41.0253 35.4065 40.964 35.5954 40.964 35.8274C40.964 36.1589 41.0849 36.4091 41.3269 36.5781C41.5688 36.7472 41.8771 36.8317 42.2516 36.8317ZM49.4256 27.8182V38H47.6259V27.8182H49.4256ZM52.3949 40.8636C52.1496 40.8636 51.9226 40.8438 51.7138 40.804C51.5083 40.7675 51.3442 40.7244 51.2216 40.6747L51.6392 39.2727C51.901 39.349 52.1347 39.3854 52.3402 39.3821C52.5457 39.3788 52.7263 39.3142 52.8821 39.1882C53.0412 39.0656 53.1754 38.8601 53.2848 38.5717L53.4389 38.1591L50.6697 30.3636H52.5788L54.3388 36.1307H54.4183L56.1832 30.3636H58.0973L55.0398 38.9247C54.8973 39.3291 54.7083 39.6754 54.473 39.9638C54.2377 40.2554 53.9493 40.4775 53.608 40.63C53.2699 40.7857 52.8655 40.8636 52.3949 40.8636ZM63.1559 30.3636V31.7557H58.766V30.3636H63.1559ZM59.8498 28.5341H61.6495V35.7031C61.6495 35.9451 61.686 36.1307 61.7589 36.2599C61.8351 36.3859 61.9345 36.4721 62.0572 36.5185C62.1798 36.5649 62.3157 36.5881 62.4648 36.5881C62.5775 36.5881 62.6803 36.5798 62.7731 36.5632C62.8692 36.5466 62.9421 36.5317 62.9918 36.5185L63.2951 37.9254C63.199 37.9586 63.0614 37.995 62.8825 38.0348C62.7068 38.0746 62.4914 38.0978 62.2362 38.1044C61.7854 38.1177 61.3794 38.0497 61.0181 37.9006C60.6568 37.7481 60.3701 37.5128 60.158 37.1946C59.9492 36.8764 59.8465 36.4787 59.8498 36.0014V28.5341ZM64.661 38V30.3636H66.4608V38H64.661ZM65.5659 29.2798C65.2808 29.2798 65.0356 29.1854 64.8301 28.9964C64.6246 28.8042 64.5218 28.5739 64.5218 28.3054C64.5218 28.0336 64.6246 27.8033 64.8301 27.6143C65.0356 27.4221 65.2808 27.326 65.5659 27.326C65.8542 27.326 66.0995 27.4221 66.3017 27.6143C66.5072 27.8033 66.6099 28.0336 66.6099 28.3054C66.6099 28.5739 66.5072 28.8042 66.3017 28.9964C66.0995 29.1854 65.8542 29.2798 65.5659 29.2798ZM71.6424 38.1491C70.8801 38.1491 70.2255 37.9818 69.6786 37.647C69.1351 37.3123 68.7158 36.8499 68.4208 36.2599C68.1291 35.6667 67.9833 34.9839 67.9833 34.2116C67.9833 33.4361 68.1325 32.7517 68.4308 32.1584C68.729 31.5618 69.15 31.0978 69.6935 30.7663C70.2404 30.4316 70.8867 30.2642 71.6325 30.2642C72.2522 30.2642 72.8008 30.3786 73.2781 30.6072C73.7586 30.8326 74.1415 31.1525 74.4265 31.5668C74.7115 31.9777 74.8739 32.4583 74.9137 33.0085H73.1935C73.1239 32.6406 72.9582 32.334 72.6964 32.0888C72.4379 31.8402 72.0915 31.7159 71.6573 31.7159C71.2894 31.7159 70.9663 31.8153 70.6879 32.0142C70.4094 32.2098 70.1924 32.4915 70.0366 32.8594C69.8841 33.2273 69.8079 33.6681 69.8079 34.1818C69.8079 34.7022 69.8841 35.1496 70.0366 35.5241C70.189 35.8954 70.4028 36.1821 70.6779 36.3842C70.9563 36.5831 71.2828 36.6825 71.6573 36.6825C71.9225 36.6825 72.1594 36.6328 72.3683 36.5334C72.5804 36.4306 72.7577 36.2831 72.9002 36.0909C73.0427 35.8987 73.1405 35.665 73.1935 35.3899H74.9137C74.8706 35.9302 74.7115 36.4091 74.4364 36.8267C74.1613 37.241 73.7868 37.5658 73.3129 37.8011C72.8389 38.0331 72.2821 38.1491 71.6424 38.1491ZM82.427 32.3821L80.7864 32.5611C80.74 32.3954 80.6588 32.2396 80.5428 32.0938C80.4301 31.9479 80.2776 31.8303 80.0854 31.7408C79.8932 31.6513 79.6578 31.6065 79.3794 31.6065C79.0049 31.6065 78.69 31.6877 78.4348 31.8501C78.1829 32.0125 78.0587 32.223 78.062 32.4815C78.0587 32.7036 78.1399 32.8842 78.3056 33.0234C78.4746 33.1626 78.753 33.277 79.1408 33.3665L80.4434 33.6449C81.1659 33.8007 81.7028 34.0476 82.0542 34.3857C82.4088 34.7237 82.5878 35.1662 82.5911 35.7131C82.5878 36.1937 82.4469 36.6179 82.1685 36.9858C81.8934 37.3504 81.5106 37.6354 81.0201 37.8409C80.5295 38.0464 79.9661 38.1491 79.3297 38.1491C78.3951 38.1491 77.6427 37.9536 77.0726 37.5625C76.5025 37.1681 76.1628 36.6196 76.0534 35.9169L77.8084 35.7479C77.888 36.0926 78.057 36.3527 78.3155 36.5284C78.574 36.7041 78.9105 36.7919 79.3248 36.7919C79.7523 36.7919 80.0953 36.7041 80.3539 36.5284C80.6157 36.3527 80.7466 36.1357 80.7466 35.8771C80.7466 35.6584 80.6621 35.4777 80.4931 35.3352C80.3274 35.1927 80.0688 35.0833 79.7175 35.0071L78.415 34.7337C77.6825 34.5812 77.1406 34.3243 76.7892 33.9631C76.4379 33.5985 76.2639 33.1378 76.2672 32.581C76.2639 32.1103 76.3915 31.7027 76.65 31.358C76.9119 31.0099 77.2748 30.7415 77.7388 30.5526C78.2061 30.3603 78.7447 30.2642 79.3546 30.2642C80.2495 30.2642 80.9538 30.4548 81.4675 30.8359C81.9846 31.2171 82.3044 31.7325 82.427 32.3821Z" fill="#141D40"/>
<path d="M287.776 37V35.858L290.805 32.8878C291.095 32.5952 291.337 32.3352 291.53 32.108C291.723 31.8807 291.868 31.6605 291.964 31.4474C292.061 31.2344 292.109 31.0071 292.109 30.7656C292.109 30.4901 292.047 30.2543 291.922 30.0582C291.797 29.8594 291.625 29.706 291.406 29.598C291.188 29.4901 290.939 29.4361 290.661 29.4361C290.374 29.4361 290.122 29.4957 289.906 29.6151C289.69 29.7315 289.523 29.8977 289.403 30.1136C289.287 30.3295 289.229 30.5866 289.229 30.8849H287.724C287.724 30.331 287.851 29.8494 288.104 29.4403C288.357 29.0312 288.705 28.7145 289.148 28.4901C289.594 28.2656 290.105 28.1534 290.682 28.1534C291.267 28.1534 291.781 28.2628 292.224 28.4815C292.668 28.7003 293.011 29 293.256 29.3807C293.503 29.7614 293.626 30.196 293.626 30.6847C293.626 31.0114 293.564 31.3324 293.439 31.6477C293.314 31.9631 293.094 32.3125 292.778 32.696C292.466 33.0795 292.027 33.544 291.462 34.0895L289.957 35.6193V35.679H293.759V37H287.776ZM298.455 37.1662C297.753 37.1662 297.151 36.9886 296.648 36.6335C296.148 36.2756 295.763 35.7599 295.493 35.0866C295.226 34.4105 295.092 33.5966 295.092 32.6449C295.095 31.6932 295.23 30.8835 295.497 30.2159C295.767 29.5455 296.152 29.0341 296.652 28.6818C297.155 28.3295 297.756 28.1534 298.455 28.1534C299.153 28.1534 299.754 28.3295 300.257 28.6818C300.76 29.0341 301.145 29.5455 301.412 30.2159C301.682 30.8864 301.817 31.696 301.817 32.6449C301.817 33.5994 301.682 34.4148 301.412 35.0909C301.145 35.7642 300.76 36.2784 300.257 36.6335C299.757 36.9886 299.156 37.1662 298.455 37.1662ZM298.455 35.8324C299 35.8324 299.43 35.5639 299.746 35.027C300.064 34.4872 300.223 33.6932 300.223 32.6449C300.223 31.9517 300.151 31.3693 300.006 30.8977C299.861 30.4261 299.656 30.071 299.392 29.8324C299.128 29.5909 298.815 29.4702 298.455 29.4702C297.912 29.4702 297.483 29.7401 297.168 30.2798C296.852 30.8168 296.693 31.6051 296.69 32.6449C296.688 33.3409 296.757 33.9261 296.899 34.4006C297.044 34.875 297.249 35.233 297.513 35.4744C297.777 35.7131 298.091 35.8324 298.455 35.8324ZM303.233 37V35.858L306.262 32.8878C306.552 32.5952 306.794 32.3352 306.987 32.108C307.18 31.8807 307.325 31.6605 307.422 31.4474C307.518 31.2344 307.566 31.0071 307.566 30.7656C307.566 30.4901 307.504 30.2543 307.379 30.0582C307.254 29.8594 307.082 29.706 306.863 29.598C306.645 29.4901 306.396 29.4361 306.118 29.4361C305.831 29.4361 305.579 29.4957 305.363 29.6151C305.147 29.7315 304.98 29.8977 304.86 30.1136C304.744 30.3295 304.686 30.5866 304.686 30.8849H303.181C303.181 30.331 303.308 29.8494 303.561 29.4403C303.814 29.0312 304.162 28.7145 304.605 28.4901C305.051 28.2656 305.562 28.1534 306.139 28.1534C306.724 28.1534 307.238 28.2628 307.681 28.4815C308.125 28.7003 308.468 29 308.713 29.3807C308.96 29.7614 309.083 30.196 309.083 30.6847C309.083 31.0114 309.021 31.3324 308.896 31.6477C308.771 31.9631 308.551 32.3125 308.235 32.696C307.923 33.0795 307.484 33.544 306.919 34.0895L305.414 35.6193V35.679H309.216V37H303.233ZM310.341 35.3807V34.1236L314.044 28.2727H315.092V30.0625H314.453L311.96 34.0128V34.081H317.129V35.3807H310.341ZM314.504 37V34.9972L314.521 34.4347V28.2727H316.012V37H314.504ZM322.475 32.0014V33.2713H318.546V32.0014H322.475ZM323.776 37V35.858L326.805 32.8878C327.095 32.5952 327.337 32.3352 327.53 32.108C327.723 31.8807 327.868 31.6605 327.964 31.4474C328.061 31.2344 328.109 31.0071 328.109 30.7656C328.109 30.4901 328.047 30.2543 327.922 30.0582C327.797 29.8594 327.625 29.706 327.406 29.598C327.188 29.4901 326.939 29.4361 326.661 29.4361C326.374 29.4361 326.122 29.4957 325.906 29.6151C325.69 29.7315 325.523 29.8977 325.403 30.1136C325.287 30.3295 325.229 30.5866 325.229 30.8849H323.724C323.724 30.331 323.851 29.8494 324.104 29.4403C324.357 29.0312 324.705 28.7145 325.148 28.4901C325.594 28.2656 326.105 28.1534 326.682 28.1534C327.267 28.1534 327.781 28.2628 328.224 28.4815C328.668 28.7003 329.011 29 329.256 29.3807C329.503 29.7614 329.626 30.196 329.626 30.6847C329.626 31.0114 329.564 31.3324 329.439 31.6477C329.314 31.9631 329.094 32.3125 328.778 32.696C328.466 33.0795 328.027 33.544 327.462 34.0895L325.957 35.6193V35.679H329.759V37H323.776ZM334.455 37.1662C333.753 37.1662 333.151 36.9886 332.648 36.6335C332.148 36.2756 331.763 35.7599 331.493 35.0866C331.226 34.4105 331.092 33.5966 331.092 32.6449C331.095 31.6932 331.23 30.8835 331.497 30.2159C331.767 29.5455 332.152 29.0341 332.652 28.6818C333.155 28.3295 333.756 28.1534 334.455 28.1534C335.153 28.1534 335.754 28.3295 336.257 28.6818C336.76 29.0341 337.145 29.5455 337.412 30.2159C337.682 30.8864 337.817 31.696 337.817 32.6449C337.817 33.5994 337.682 34.4148 337.412 35.0909C337.145 35.7642 336.76 36.2784 336.257 36.6335C335.757 36.9886 335.156 37.1662 334.455 37.1662ZM334.455 35.8324C335 35.8324 335.43 35.5639 335.746 35.027C336.064 34.4872 336.223 33.6932 336.223 32.6449C336.223 31.9517 336.151 31.3693 336.006 30.8977C335.861 30.4261 335.656 30.071 335.392 29.8324C335.128 29.5909 334.815 29.4702 334.455 29.4702C333.912 29.4702 333.483 29.7401 333.168 30.2798C332.852 30.8168 332.693 31.6051 332.69 32.6449C332.688 33.3409 332.757 33.9261 332.899 34.4006C333.044 34.875 333.249 35.233 333.513 35.4744C333.777 35.7131 334.091 35.8324 334.455 35.8324ZM339.233 37V35.858L342.262 32.8878C342.552 32.5952 342.794 32.3352 342.987 32.108C343.18 31.8807 343.325 31.6605 343.422 31.4474C343.518 31.2344 343.566 31.0071 343.566 30.7656C343.566 30.4901 343.504 30.2543 343.379 30.0582C343.254 29.8594 343.082 29.706 342.863 29.598C342.645 29.4901 342.396 29.4361 342.118 29.4361C341.831 29.4361 341.579 29.4957 341.363 29.6151C341.147 29.7315 340.98 29.8977 340.86 30.1136C340.744 30.3295 340.686 30.5866 340.686 30.8849H339.181C339.181 30.331 339.308 29.8494 339.561 29.4403C339.814 29.0312 340.162 28.7145 340.605 28.4901C341.051 28.2656 341.562 28.1534 342.139 28.1534C342.724 28.1534 343.238 28.2628 343.681 28.4815C344.125 28.7003 344.468 29 344.713 29.3807C344.96 29.7614 345.083 30.196 345.083 30.6847C345.083 31.0114 345.021 31.3324 344.896 31.6477C344.771 31.9631 344.551 32.3125 344.235 32.696C343.923 33.0795 343.484 33.544 342.919 34.0895L341.414 35.6193V35.679H345.216V37H339.233ZM349.72 37.1193C349.152 37.1193 348.643 37.0128 348.194 36.7997C347.745 36.5838 347.389 36.2884 347.125 35.9134C346.863 35.5384 346.724 35.1094 346.707 34.6264H348.241C348.27 34.9844 348.424 35.277 348.706 35.5043C348.987 35.7287 349.325 35.8409 349.72 35.8409C350.029 35.8409 350.305 35.7699 350.547 35.6278C350.788 35.4858 350.978 35.2884 351.118 35.0355C351.257 34.7827 351.325 34.4943 351.322 34.1705C351.325 33.8409 351.255 33.5483 351.113 33.2926C350.971 33.0369 350.777 32.8366 350.529 32.6918C350.282 32.544 349.998 32.4702 349.677 32.4702C349.416 32.4673 349.159 32.5156 348.906 32.6151C348.653 32.7145 348.453 32.8452 348.305 33.0071L346.877 32.7727L347.333 28.2727H352.396V29.5938H348.642L348.39 31.9077H348.441C348.603 31.7173 348.832 31.5597 349.127 31.4347C349.423 31.3068 349.747 31.2429 350.099 31.2429C350.627 31.2429 351.099 31.3679 351.514 31.6179C351.929 31.8651 352.255 32.206 352.494 32.6406C352.733 33.0753 352.852 33.5724 352.852 34.1321C352.852 34.7088 352.718 35.223 352.451 35.6747C352.187 36.1236 351.819 36.4773 351.348 36.7358C350.879 36.9915 350.336 37.1193 349.72 37.1193Z" fill="#141D40"/>
<path opacity="0.9" d="M30.6204 153.182H31.8363V157.239C31.8363 157.614 31.752 157.939 31.5835 158.216C31.4168 158.492 31.1848 158.705 30.8874 158.855C30.5901 159.005 30.2444 159.08 29.8505 159.08C29.5001 159.08 29.1819 159.018 28.896 158.895C28.6119 158.77 28.3865 158.58 28.2198 158.327C28.0531 158.071 27.9708 157.75 27.9727 157.364H29.1971C29.2009 157.517 29.2321 157.649 29.2908 157.759C29.3514 157.866 29.4338 157.95 29.538 158.009C29.6441 158.065 29.7691 158.094 29.913 158.094C30.0645 158.094 30.1924 158.062 30.2965 157.997C30.4026 157.931 30.4831 157.834 30.538 157.707C30.5929 157.58 30.6204 157.424 30.6204 157.239V153.182ZM33.8562 159H32.538L34.5465 153.182H36.1317L38.1374 159H36.8192L35.3619 154.511H35.3164L33.8562 159ZM33.7738 156.713H36.8874V157.673H33.7738V156.713ZM43.7042 153.182V159H42.6417L40.1104 155.338H40.0678V159H38.8377V153.182H39.9173L42.4286 156.841H42.4798V153.182H43.7042Z" fill="#141D40"/>
<path opacity="0.9" d="M56.0721 159V153.182H59.9244V154.196H57.3022V155.582H59.6687V156.597H57.3022V159H56.0721ZM60.7518 159V153.182H64.6722V154.196H61.9819V155.582H64.4705V156.597H61.9819V157.986H64.6836V159H60.7518ZM65.6502 159V153.182H67.9798C68.4078 153.182 68.7648 153.245 69.0508 153.372C69.3368 153.499 69.5517 153.675 69.6957 153.901C69.8396 154.124 69.9116 154.382 69.9116 154.673C69.9116 154.901 69.8661 155.1 69.7752 155.273C69.6843 155.443 69.5593 155.583 69.4002 155.693C69.243 155.801 69.0631 155.878 68.8604 155.923V155.98C69.082 155.99 69.2894 156.052 69.4826 156.168C69.6777 156.283 69.8358 156.445 69.957 156.653C70.0782 156.86 70.1388 157.106 70.1388 157.392C70.1388 157.701 70.0621 157.976 69.9087 158.219C69.7572 158.459 69.5328 158.65 69.2354 158.79C68.9381 158.93 68.5716 159 68.136 159H65.6502ZM66.8803 157.994H67.8832C68.226 157.994 68.476 157.929 68.6332 157.798C68.7904 157.666 68.869 157.49 68.869 157.27C68.869 157.109 68.8301 156.967 68.7525 156.844C68.6748 156.721 68.564 156.624 68.4201 156.554C68.2781 156.484 68.1085 156.449 67.9116 156.449H66.8803V157.994ZM66.8803 155.616H67.7923C67.9608 155.616 68.1104 155.587 68.2411 155.528C68.3737 155.468 68.4779 155.383 68.5536 155.273C68.6313 155.163 68.6701 155.031 68.6701 154.878C68.6701 154.668 68.5953 154.498 68.4457 154.369C68.2979 154.241 68.0877 154.176 67.815 154.176H66.8803V155.616Z" fill="#141D40"/>
<path opacity="0.9" d="M82.7283 153.182H84.2454L85.8477 157.091H85.9158L87.5181 153.182H89.0352V159H87.842V155.213H87.7937L86.288 158.972H85.4755L83.9698 155.199H83.9215V159H82.7283V153.182ZM91.0515 159H89.7333L91.7418 153.182H93.3271L95.3327 159H94.0146L92.5572 154.511H92.5117L91.0515 159ZM90.9691 156.713H94.0827V157.673H90.9691V156.713ZM96.033 159V153.182H98.3285C98.7679 153.182 99.1429 153.26 99.4535 153.418C99.766 153.573 100.004 153.794 100.167 154.08C100.331 154.364 100.414 154.698 100.414 155.082C100.414 155.469 100.33 155.801 100.164 156.08C99.997 156.356 99.7556 156.568 99.4393 156.716C99.1249 156.864 98.7442 156.938 98.2972 156.938H96.7603V155.949H98.0984C98.3332 155.949 98.5283 155.917 98.6836 155.852C98.8389 155.788 98.9544 155.691 99.0302 155.562C99.1078 155.434 99.1467 155.274 99.1467 155.082C99.1467 154.889 99.1078 154.726 99.0302 154.594C98.9544 154.461 98.8379 154.361 98.6808 154.293C98.5254 154.223 98.3294 154.188 98.0927 154.188H97.2631V159H96.033ZM99.1751 156.352L100.621 159H99.2631L97.8484 156.352H99.1751Z" fill="#141D40"/>
<path opacity="0.9" d="M113.301 159H111.983L113.992 153.182H115.577L117.583 159H116.265L114.807 154.511H114.762L113.301 159ZM113.219 156.713H116.333V157.673H113.219V156.713ZM118.283 159V153.182H120.578C121.02 153.182 121.396 153.266 121.706 153.435C122.017 153.601 122.254 153.833 122.417 154.131C122.581 154.426 122.664 154.767 122.664 155.153C122.664 155.54 122.58 155.881 122.414 156.176C122.247 156.472 122.006 156.702 121.689 156.866C121.375 157.031 120.994 157.114 120.547 157.114H119.084V156.128H120.348C120.585 156.128 120.78 156.087 120.934 156.006C121.089 155.922 121.204 155.808 121.28 155.662C121.358 155.514 121.397 155.345 121.397 155.153C121.397 154.96 121.358 154.792 121.28 154.648C121.204 154.502 121.089 154.389 120.934 154.31C120.778 154.228 120.581 154.188 120.343 154.188H119.513V159H118.283ZM123.463 159V153.182H125.758C126.198 153.182 126.573 153.26 126.883 153.418C127.196 153.573 127.433 153.794 127.596 154.08C127.761 154.364 127.843 154.698 127.843 155.082C127.843 155.469 127.76 155.801 127.593 156.08C127.427 156.356 127.185 156.568 126.869 156.716C126.555 156.864 126.174 156.938 125.727 156.938H124.19V155.949H125.528C125.763 155.949 125.958 155.917 126.113 155.852C126.269 155.788 126.384 155.691 126.46 155.562C126.538 155.434 126.576 155.274 126.576 155.082C126.576 154.889 126.538 154.726 126.46 154.594C126.384 154.461 126.268 154.361 126.11 154.293C125.955 154.223 125.759 154.188 125.522 154.188H124.693V159H123.463ZM126.605 156.352L128.051 159H126.693L125.278 156.352H126.605Z" fill="#141D40"/>
<path opacity="0.9" d="M139.252 153.182H140.769L142.371 157.091H142.439L144.042 153.182H145.559V159H144.365V155.213H144.317L142.811 158.972H141.999L140.493 155.199H140.445V159H139.252V153.182ZM147.575 159H146.257L148.265 153.182H149.85L151.856 159H150.538L149.081 154.511H149.035L147.575 159ZM147.493 156.713H150.606V157.673H147.493V156.713ZM151.622 153.182H153L154.326 155.688H154.383L155.71 153.182H157.088L154.966 156.943V159H153.744V156.943L151.622 153.182Z" fill="#141D40"/>
<path opacity="0.9" d="M171.695 153.182H172.911V157.239C172.911 157.614 172.826 157.939 172.658 158.216C172.491 158.492 172.259 158.705 171.962 158.855C171.664 159.005 171.319 159.08 170.925 159.08C170.574 159.08 170.256 159.018 169.97 158.895C169.686 158.77 169.461 158.58 169.294 158.327C169.127 158.071 169.045 157.75 169.047 157.364H170.271C170.275 157.517 170.306 157.649 170.365 157.759C170.426 157.866 170.508 157.95 170.612 158.009C170.718 158.065 170.843 158.094 170.987 158.094C171.139 158.094 171.267 158.062 171.371 157.997C171.477 157.931 171.557 157.834 171.612 157.707C171.667 157.58 171.695 157.424 171.695 157.239V153.182ZM177.521 153.182H178.751V156.96C178.751 157.384 178.65 157.756 178.447 158.074C178.247 158.392 177.965 158.64 177.604 158.818C177.242 158.994 176.821 159.082 176.339 159.082C175.857 159.082 175.434 158.994 175.072 158.818C174.711 158.64 174.429 158.392 174.229 158.074C174.028 157.756 173.928 157.384 173.928 156.96V153.182H175.158V156.855C175.158 157.077 175.206 157.274 175.303 157.446C175.401 157.618 175.539 157.754 175.717 157.852C175.895 157.951 176.103 158 176.339 158C176.578 158 176.786 157.951 176.962 157.852C177.14 157.754 177.277 157.618 177.374 157.446C177.472 157.274 177.521 157.077 177.521 156.855V153.182ZM184.63 153.182V159H183.567L181.036 155.338H180.994V159H179.763V153.182H180.843L183.354 156.841H183.406V153.182H184.63Z" fill="#141D40"/>
<path opacity="0.9" d="M199.366 153.182H200.582V157.239C200.582 157.614 200.498 157.939 200.33 158.216C200.163 158.492 199.931 158.705 199.634 158.855C199.336 159.005 198.991 159.08 198.597 159.08C198.246 159.08 197.928 159.018 197.642 158.895C197.358 158.77 197.133 158.58 196.966 158.327C196.799 158.071 196.717 157.75 196.719 157.364H197.943C197.947 157.517 197.978 157.649 198.037 157.759C198.098 157.866 198.18 157.95 198.284 158.009C198.39 158.065 198.515 158.094 198.659 158.094C198.811 158.094 198.938 158.062 199.043 157.997C199.149 157.931 199.229 157.834 199.284 157.707C199.339 157.58 199.366 157.424 199.366 157.239V153.182ZM205.193 153.182H206.423V156.96C206.423 157.384 206.322 157.756 206.119 158.074C205.919 158.392 205.637 158.64 205.276 158.818C204.914 158.994 204.492 159.082 204.011 159.082C203.528 159.082 203.106 158.994 202.744 158.818C202.383 158.64 202.101 158.392 201.901 158.074C201.7 157.756 201.599 157.384 201.599 156.96V153.182H202.83V156.855C202.83 157.077 202.878 157.274 202.974 157.446C203.073 157.618 203.211 157.754 203.389 157.852C203.567 157.951 203.775 158 204.011 158C204.25 158 204.457 157.951 204.634 157.852C204.812 157.754 204.949 157.618 205.045 157.446C205.144 157.274 205.193 157.077 205.193 156.855V153.182ZM207.435 159V153.182H208.665V157.986H211.16V159H207.435Z" fill="#141D40"/>
<path opacity="0.9" d="M222.555 159H221.237L223.246 153.182H224.831L226.837 159H225.518L224.061 154.511H224.016L222.555 159ZM222.473 156.713H225.587V157.673H222.473V156.713ZM231.131 153.182H232.361V156.96C232.361 157.384 232.259 157.756 232.057 158.074C231.856 158.392 231.575 158.64 231.213 158.818C230.851 158.994 230.43 159.082 229.949 159.082C229.466 159.082 229.044 158.994 228.682 158.818C228.32 158.64 228.039 158.392 227.838 158.074C227.637 157.756 227.537 157.384 227.537 156.96V153.182H228.767V156.855C228.767 157.077 228.815 157.274 228.912 157.446C229.01 157.618 229.149 157.754 229.327 157.852C229.505 157.951 229.712 158 229.949 158C230.188 158 230.395 157.951 230.571 157.852C230.749 157.754 230.886 157.618 230.983 157.446C231.081 157.274 231.131 157.077 231.131 156.855V153.182ZM237.231 155.062C237.191 154.924 237.135 154.802 237.063 154.696C236.991 154.588 236.903 154.497 236.799 154.423C236.697 154.348 236.579 154.29 236.447 154.25C236.316 154.21 236.171 154.19 236.012 154.19C235.715 154.19 235.453 154.264 235.228 154.412C235.004 154.56 234.83 154.775 234.705 155.057C234.58 155.337 234.518 155.68 234.518 156.085C234.518 156.491 234.579 156.835 234.702 157.119C234.826 157.403 235 157.62 235.225 157.77C235.451 157.918 235.717 157.991 236.023 157.991C236.302 157.991 236.54 157.942 236.737 157.844C236.935 157.743 237.087 157.602 237.191 157.42C237.297 157.239 237.35 157.024 237.35 156.776L237.6 156.812H236.1V155.886H238.535V156.619C238.535 157.131 238.427 157.57 238.211 157.938C237.995 158.303 237.698 158.585 237.319 158.784C236.94 158.981 236.506 159.08 236.018 159.08C235.472 159.08 234.993 158.959 234.58 158.719C234.167 158.476 233.845 158.133 233.614 157.688C233.385 157.241 233.271 156.71 233.271 156.097C233.271 155.625 233.339 155.205 233.475 154.835C233.613 154.464 233.807 154.15 234.055 153.892C234.303 153.634 234.592 153.438 234.921 153.304C235.251 153.17 235.608 153.102 235.992 153.102C236.322 153.102 236.629 153.151 236.913 153.247C237.197 153.342 237.449 153.476 237.668 153.651C237.89 153.825 238.071 154.032 238.211 154.273C238.351 154.511 238.441 154.775 238.481 155.062H237.231Z" fill="#141D40"/>
<path opacity="0.9" d="M252.002 154.855C251.979 154.626 251.882 154.448 251.709 154.321C251.537 154.194 251.303 154.131 251.007 154.131C250.807 154.131 250.637 154.159 250.499 154.216C250.361 154.271 250.255 154.348 250.181 154.446C250.109 154.545 250.073 154.656 250.073 154.781C250.069 154.885 250.091 154.976 250.138 155.054C250.187 155.132 250.255 155.199 250.34 155.256C250.425 155.311 250.524 155.359 250.635 155.401C250.747 155.44 250.866 155.474 250.993 155.503L251.516 155.628C251.77 155.685 252.003 155.76 252.215 155.855C252.427 155.95 252.611 156.066 252.766 156.205C252.921 156.343 253.042 156.506 253.127 156.693C253.214 156.881 253.258 157.096 253.26 157.338C253.258 157.694 253.167 158.003 252.988 158.264C252.81 158.524 252.552 158.725 252.215 158.869C251.88 159.011 251.475 159.082 251.002 159.082C250.532 159.082 250.123 159.01 249.775 158.866C249.428 158.723 249.157 158.509 248.962 158.227C248.769 157.943 248.667 157.592 248.658 157.173H249.848C249.862 157.368 249.917 157.531 250.016 157.662C250.116 157.791 250.25 157.888 250.417 157.955C250.585 158.019 250.775 158.051 250.988 158.051C251.196 158.051 251.377 158.021 251.53 157.96C251.685 157.9 251.806 157.815 251.891 157.707C251.976 157.599 252.019 157.475 252.019 157.335C252.019 157.205 251.98 157.095 251.902 157.006C251.827 156.917 251.715 156.841 251.567 156.778C251.421 156.716 251.242 156.659 251.03 156.608L250.397 156.449C249.906 156.33 249.519 156.143 249.235 155.889C248.951 155.635 248.81 155.294 248.811 154.864C248.81 154.511 248.903 154.204 249.093 153.94C249.284 153.677 249.546 153.472 249.88 153.324C250.213 153.176 250.592 153.102 251.016 153.102C251.448 153.102 251.825 153.176 252.147 153.324C252.471 153.472 252.722 153.677 252.902 153.94C253.082 154.204 253.175 154.509 253.181 154.855H252.002ZM254.088 159V153.182H258.008V154.196H255.318V155.582H257.806V156.597H255.318V157.986H258.02V159H254.088ZM258.986 159V153.182H261.282C261.723 153.182 262.099 153.266 262.409 153.435C262.72 153.601 262.957 153.833 263.12 154.131C263.284 154.426 263.367 154.767 263.367 155.153C263.367 155.54 263.283 155.881 263.117 156.176C262.95 156.472 262.709 156.702 262.392 156.866C262.078 157.031 261.697 157.114 261.25 157.114H259.787V156.128H261.051C261.288 156.128 261.483 156.087 261.637 156.006C261.792 155.922 261.908 155.808 261.983 155.662C262.061 155.514 262.1 155.345 262.1 155.153C262.1 154.96 262.061 154.792 261.983 154.648C261.908 154.502 261.792 154.389 261.637 154.31C261.481 154.228 261.284 154.188 261.046 154.188H260.216V159H258.986Z" fill="#141D40"/>
<path opacity="0.9" d="M279.044 156.091C279.044 156.725 278.923 157.265 278.683 157.71C278.444 158.155 278.118 158.495 277.706 158.73C277.295 158.963 276.833 159.08 276.319 159.08C275.802 159.08 275.338 158.962 274.927 158.727C274.516 158.492 274.191 158.152 273.953 157.707C273.714 157.262 273.595 156.723 273.595 156.091C273.595 155.456 273.714 154.917 273.953 154.472C274.191 154.027 274.516 153.687 274.927 153.455C275.338 153.22 275.802 153.102 276.319 153.102C276.833 153.102 277.295 153.22 277.706 153.455C278.118 153.687 278.444 154.027 278.683 154.472C278.923 154.917 279.044 155.456 279.044 156.091ZM277.797 156.091C277.797 155.68 277.735 155.333 277.612 155.051C277.491 154.769 277.319 154.555 277.098 154.409C276.876 154.263 276.617 154.19 276.319 154.19C276.022 154.19 275.762 154.263 275.541 154.409C275.319 154.555 275.147 154.769 275.024 155.051C274.903 155.333 274.842 155.68 274.842 156.091C274.842 156.502 274.903 156.848 275.024 157.131C275.147 157.413 275.319 157.627 275.541 157.773C275.762 157.919 276.022 157.991 276.319 157.991C276.617 157.991 276.876 157.919 277.098 157.773C277.319 157.627 277.491 157.413 277.612 157.131C277.735 156.848 277.797 156.502 277.797 156.091ZM285.088 155.219H283.844C283.821 155.058 283.775 154.915 283.705 154.79C283.635 154.663 283.545 154.555 283.435 154.466C283.325 154.377 283.198 154.309 283.054 154.261C282.912 154.214 282.758 154.19 282.591 154.19C282.29 154.19 282.028 154.265 281.804 154.415C281.581 154.562 281.408 154.778 281.284 155.062C281.161 155.345 281.1 155.687 281.1 156.091C281.1 156.506 281.161 156.854 281.284 157.136C281.409 157.419 281.584 157.632 281.807 157.776C282.031 157.92 282.289 157.991 282.583 157.991C282.748 157.991 282.9 157.97 283.04 157.926C283.182 157.883 283.308 157.819 283.418 157.736C283.528 157.651 283.619 157.547 283.691 157.426C283.765 157.305 283.816 157.167 283.844 157.011L285.088 157.017C285.056 157.284 284.976 157.542 284.847 157.79C284.72 158.036 284.549 158.257 284.333 158.452C284.119 158.645 283.863 158.798 283.566 158.912C283.27 159.024 282.936 159.08 282.563 159.08C282.044 159.08 281.58 158.962 281.171 158.727C280.764 158.492 280.442 158.152 280.205 157.707C279.97 157.262 279.853 156.723 279.853 156.091C279.853 155.456 279.972 154.917 280.211 154.472C280.449 154.027 280.773 153.687 281.182 153.455C281.591 153.22 282.051 153.102 282.563 153.102C282.9 153.102 283.212 153.15 283.5 153.244C283.79 153.339 284.047 153.477 284.27 153.659C284.494 153.839 284.676 154.06 284.816 154.321C284.958 154.582 285.049 154.882 285.088 155.219ZM285.749 154.196V153.182H290.527V154.196H288.746V159H287.53V154.196H285.749Z" fill="#141D40"/>
<path opacity="0.9" d="M304.474 153.182V159H303.411L300.88 155.338H300.837V159H299.607V153.182H300.687L303.198 156.841H303.249V153.182H304.474ZM310.837 156.091C310.837 156.725 310.716 157.265 310.476 157.71C310.237 158.155 309.911 158.495 309.499 158.73C309.088 158.963 308.625 159.08 308.112 159.08C307.595 159.08 307.131 158.962 306.72 158.727C306.309 158.492 305.984 158.152 305.746 157.707C305.507 157.262 305.388 156.723 305.388 156.091C305.388 155.456 305.507 154.917 305.746 154.472C305.984 154.027 306.309 153.687 306.72 153.455C307.131 153.22 307.595 153.102 308.112 153.102C308.625 153.102 309.088 153.22 309.499 153.455C309.911 153.687 310.237 154.027 310.476 154.472C310.716 154.917 310.837 155.456 310.837 156.091ZM309.589 156.091C309.589 155.68 309.528 155.333 309.405 155.051C309.284 154.769 309.112 154.555 308.891 154.409C308.669 154.263 308.41 154.19 308.112 154.19C307.815 154.19 307.555 154.263 307.334 154.409C307.112 154.555 306.94 154.769 306.817 155.051C306.696 155.333 306.635 155.68 306.635 156.091C306.635 156.502 306.696 156.848 306.817 157.131C306.94 157.413 307.112 157.627 307.334 157.773C307.555 157.919 307.815 157.991 308.112 157.991C308.41 157.991 308.669 157.919 308.891 157.773C309.112 157.627 309.284 157.413 309.405 157.131C309.528 156.848 309.589 156.502 309.589 156.091ZM312.471 153.182L313.877 157.602H313.931L315.34 153.182H316.704L314.698 159H313.113L311.104 153.182H312.471Z" fill="#141D40"/>
<path opacity="0.9" d="M328.201 159H326.138V153.182H328.218C328.803 153.182 329.307 153.298 329.729 153.531C330.152 153.762 330.477 154.095 330.704 154.528C330.933 154.962 331.048 155.481 331.048 156.085C331.048 156.691 330.933 157.212 330.704 157.648C330.477 158.083 330.15 158.418 329.724 158.651C329.299 158.884 328.792 159 328.201 159ZM327.369 157.946H328.15C328.513 157.946 328.819 157.882 329.067 157.753C329.317 157.622 329.505 157.42 329.63 157.148C329.757 156.873 329.82 156.519 329.82 156.085C329.82 155.655 329.757 155.304 329.63 155.031C329.505 154.759 329.318 154.558 329.07 154.429C328.822 154.3 328.516 154.236 328.153 154.236H327.369V157.946ZM331.959 159V153.182H335.879V154.196H333.189V155.582H335.678V156.597H333.189V157.986H335.891V159H331.959ZM341.991 155.219H340.746C340.724 155.058 340.677 154.915 340.607 154.79C340.537 154.663 340.447 154.555 340.337 154.466C340.228 154.377 340.101 154.309 339.957 154.261C339.815 154.214 339.66 154.19 339.494 154.19C339.192 154.19 338.93 154.265 338.707 154.415C338.483 154.562 338.31 154.778 338.187 155.062C338.064 155.345 338.002 155.687 338.002 156.091C338.002 156.506 338.064 156.854 338.187 157.136C338.312 157.419 338.486 157.632 338.71 157.776C338.933 157.92 339.192 157.991 339.485 157.991C339.65 157.991 339.802 157.97 339.942 157.926C340.085 157.883 340.21 157.819 340.32 157.736C340.43 157.651 340.521 157.547 340.593 157.426C340.667 157.305 340.718 157.167 340.746 157.011L341.991 157.017C341.959 157.284 341.878 157.542 341.749 157.79C341.622 158.036 341.451 158.257 341.235 158.452C341.021 158.645 340.765 158.798 340.468 158.912C340.173 159.024 339.838 159.08 339.465 159.08C338.946 159.08 338.482 158.962 338.073 158.727C337.666 158.492 337.344 158.152 337.107 157.707C336.872 157.262 336.755 156.723 336.755 156.091C336.755 155.456 336.874 154.917 337.113 154.472C337.352 154.027 337.675 153.687 338.085 153.455C338.494 153.22 338.954 153.102 339.465 153.102C339.802 153.102 340.115 153.15 340.403 153.244C340.692 153.339 340.949 153.477 341.173 153.659C341.396 153.839 341.578 154.06 341.718 154.321C341.86 154.582 341.951 154.882 341.991 155.219Z" fill="#141D40"/>
<path d="M20 123L32.2281 116.544C40.7497 112.045 50.889 111.807 59.6125 115.901V115.901C69.0445 120.327 80.0775 119.669 88.9168 114.154L93.4318 111.336C103.531 105.034 115.892 103.496 127.228 107.13L134.31 109.4L141.359 112.454C156.951 119.208 174.584 119.511 190.399 113.298V113.298C196.968 110.717 203.067 107.071 208.451 102.508L227.69 86.2L231.038 83.5381C243.683 73.4851 261.069 71.8404 275.374 79.3437V79.3437C278.984 81.2372 282.29 83.6611 285.182 86.5347L285.577 86.9277C299.096 100.363 319.671 103.695 336.74 95.2138L342 92.6" stroke="url(#paint0_linear_1321_282)" stroke-width="4"/>
<path d="M20 91.5098L35.8643 102.834C39.1174 105.156 41.5263 108.474 42.7272 112.286L43.0715 113.379C46.7101 124.93 60.6585 129.437 70.368 122.199V122.199C76.6738 117.498 85.3335 117.554 91.5785 122.335L95.8793 125.627C104.669 132.357 116.858 132.435 125.733 125.819L138.355 116.41C140.28 114.975 142.314 113.695 144.44 112.581L161.194 103.8C169.797 99.2907 177.697 93.552 184.646 86.7647L198.189 73.5359C200.886 70.9014 204.054 68.796 207.527 67.3289V67.3289C221.507 61.4239 237.697 66.8277 245.327 79.9457L248.496 85.3922C250.847 89.4346 253.937 92.9989 257.606 95.8995L274.145 108.978C281.808 115.037 290.703 119.347 300.208 121.605V121.605C310.258 123.993 320.725 124.024 330.789 121.695L346 118.176" stroke="#0B8AFF" stroke-width="4"/>
<circle cx="220" cy="65" r="6" fill="#0B8AFF"/>
<defs>
<linearGradient id="paint0_linear_1321_282" x1="340.278" y1="67.2366" x2="269.189" y2="231.104" gradientUnits="userSpaceOnUse">
<stop stop-color="#2B43E3"/>
<stop offset="0.995876" stop-color="#202ED0"/>
</linearGradient>
</defs>
</svg>
