<svg width="699" height="348" viewBox="0 0 699 348" fill="none" xmlns="http://www.w3.org/2000/svg">
<rect width="699" height="346.674" transform="translate(0 0.396118)" fill="white"/>
<path d="M42.0373 71.6146H38.328L45.0815 52.431H49.3716L56.1346 71.6146H52.4252L47.3015 56.3652H47.1516L42.0373 71.6146ZM42.159 64.0929H52.2754V66.8842H42.159V64.0929ZM61.9023 63.1843V71.6146H58.5114V57.2269H61.7524V59.6717H61.921C62.252 58.8661 62.7796 58.2261 63.504 57.7515C64.2346 57.2769 65.137 57.0396 66.2111 57.0396C67.204 57.0396 68.0688 57.2519 68.8057 57.6765C69.5488 58.1012 70.1233 58.7163 70.5292 59.5218C70.9414 60.3274 71.1443 61.3047 71.1381 62.4537V71.6146H67.7472V62.9782C67.7472 62.0166 67.4975 61.2641 66.9979 60.7208C66.5046 60.1775 65.8208 59.9059 64.9465 59.9059C64.3533 59.9059 63.8256 60.037 63.3635 60.2993C62.9076 60.5553 62.5486 60.9269 62.2863 61.4139C62.0303 61.901 61.9023 62.4911 61.9023 63.1843ZM78.7253 71.9049C77.8136 71.9049 76.9924 71.7426 76.2618 71.4179C75.5374 71.0869 74.9629 70.5998 74.5383 69.9566C74.1199 69.3134 73.9107 68.5203 73.9107 67.5774C73.9107 66.7656 74.0606 66.0943 74.3603 65.5635C74.6601 65.0327 75.0691 64.6081 75.5874 64.2896C76.1057 63.9711 76.6896 63.7307 77.339 63.5683C77.9947 63.3997 78.6722 63.278 79.3716 63.203C80.2147 63.1156 80.8985 63.0376 81.423 62.9689C81.9475 62.8939 82.3285 62.7815 82.5658 62.6316C82.8093 62.4755 82.9311 62.2351 82.9311 61.9104V61.8542C82.9311 61.1485 82.7219 60.6021 82.3035 60.215C81.8851 59.8278 81.2825 59.6342 80.4957 59.6342C79.6651 59.6342 79.0063 59.8153 78.5192 60.1775C78.0384 60.5397 77.7137 60.9675 77.5451 61.4608L74.379 61.0112C74.6288 60.1369 75.041 59.4063 75.6155 58.8193C76.19 58.2261 76.8925 57.7827 77.7231 57.4892C78.5536 57.1894 79.4716 57.0396 80.4769 57.0396C81.1701 57.0396 81.8601 57.1208 82.547 57.2831C83.2339 57.4455 83.8615 57.714 84.4298 58.0887C84.9981 58.4571 85.4539 58.9598 85.7974 59.5968C86.1471 60.2337 86.3219 61.0299 86.3219 61.9853V71.6146H83.0622V69.6381H82.9498C82.7437 70.0378 82.4534 70.4125 82.0787 70.7622C81.7103 71.1056 81.245 71.3835 80.683 71.5958C80.1272 71.8019 79.4747 71.9049 78.7253 71.9049ZM79.6058 69.4133C80.2865 69.4133 80.8766 69.2791 81.3762 69.0105C81.8757 68.7358 82.2598 68.3736 82.5283 67.924C82.8031 67.4744 82.9404 66.9842 82.9404 66.4534V64.7579C82.8343 64.8454 82.6532 64.9266 82.3972 65.0015C82.1474 65.0764 81.8664 65.142 81.5541 65.1982C81.2419 65.2544 80.9328 65.3044 80.6268 65.3481C80.3208 65.3918 80.0554 65.4292 79.8306 65.4605C79.3248 65.5292 78.8721 65.6416 78.4724 65.7977C78.0728 65.9538 77.7574 66.1724 77.5263 66.4534C77.2953 66.7281 77.1798 67.0841 77.1798 67.5212C77.1798 68.1457 77.4077 68.6171 77.8636 68.9356C78.3194 69.2541 78.9002 69.4133 79.6058 69.4133ZM93.1223 52.431V71.6146H89.7315V52.431H93.1223ZM98.7167 77.0099C98.2546 77.0099 97.8269 76.9725 97.4335 76.8975C97.0463 76.8288 96.7372 76.7477 96.5061 76.654L97.293 74.0125C97.7863 74.1561 98.2265 74.2248 98.6137 74.2186C99.0009 74.2123 99.3412 74.0906 99.6347 73.8533C99.9344 73.6222 100.187 73.235 100.393 72.6918L100.684 71.9143L95.4664 57.2269H99.0633L102.379 68.0926H102.529L105.854 57.2269H109.461L103.7 73.3568C103.431 74.1187 103.076 74.7712 102.632 75.3145C102.189 75.864 101.645 76.2824 101.002 76.5697C100.365 76.8632 99.6035 77.0099 98.7167 77.0099ZM118.992 57.2269V59.8497H110.721V57.2269H118.992ZM112.763 53.7799H116.153V67.287C116.153 67.7429 116.222 68.0926 116.359 68.3361C116.503 68.5734 116.69 68.7358 116.921 68.8232C117.152 68.9106 117.409 68.9543 117.69 68.9543C117.902 68.9543 118.095 68.9387 118.27 68.9075C118.451 68.8763 118.589 68.8482 118.682 68.8232L119.254 71.4741C119.073 71.5365 118.814 71.6052 118.476 71.6801C118.145 71.7551 117.739 71.7988 117.259 71.8113C116.409 71.8362 115.644 71.7082 114.964 71.4272C114.283 71.14 113.743 70.6966 113.343 70.0971C112.95 69.4976 112.756 68.7483 112.763 67.849V53.7799ZM121.827 71.6146V57.2269H125.218V71.6146H121.827ZM123.532 55.1849C122.995 55.1849 122.533 55.0069 122.146 54.651C121.759 54.2888 121.565 53.8548 121.565 53.349C121.565 52.8369 121.759 52.4029 122.146 52.047C122.533 51.6848 122.995 51.5037 123.532 51.5037C124.075 51.5037 124.538 51.6848 124.918 52.047C125.306 52.4029 125.499 52.8369 125.499 53.349C125.499 53.8548 125.306 54.2888 124.918 54.651C124.538 55.0069 124.075 55.1849 123.532 55.1849ZM134.981 71.8956C133.545 71.8956 132.311 71.5802 131.281 70.9495C130.257 70.3188 129.467 69.4477 128.911 68.3361C128.362 67.2183 128.087 65.9319 128.087 64.4769C128.087 63.0157 128.368 61.7262 128.93 60.6084C129.492 59.4844 130.285 58.6101 131.309 57.9856C132.339 57.3549 133.557 57.0396 134.962 57.0396C136.13 57.0396 137.163 57.255 138.063 57.6859C138.968 58.1105 139.689 58.7131 140.226 59.4937C140.763 60.2681 141.069 61.1735 141.144 62.2101H137.903C137.772 61.517 137.46 60.9394 136.967 60.4772C136.48 60.0089 135.827 59.7747 135.009 59.7747C134.316 59.7747 133.707 59.9621 133.182 60.3367C132.658 60.7052 132.249 61.236 131.955 61.9291C131.668 62.6223 131.525 63.4528 131.525 64.4207C131.525 65.4011 131.668 66.2442 131.955 66.9498C132.243 67.6492 132.645 68.1894 133.164 68.5703C133.688 68.945 134.303 69.1323 135.009 69.1323C135.509 69.1323 135.955 69.0386 136.349 68.8513C136.748 68.6577 137.082 68.3798 137.351 68.0177C137.619 67.6555 137.804 67.2152 137.903 66.6969H141.144C141.063 67.7148 140.763 68.6171 140.245 69.404C139.727 70.1845 139.021 70.7965 138.128 71.2399C137.235 71.677 136.186 71.8956 134.981 71.8956ZM155.3 61.0299L152.209 61.3671C152.122 61.0549 151.969 60.7614 151.75 60.4866C151.538 60.2119 151.251 59.9902 150.888 59.8216C150.526 59.653 150.083 59.5687 149.558 59.5687C148.853 59.5687 148.259 59.7216 147.779 60.0276C147.304 60.3336 147.07 60.7302 147.076 61.2172C147.07 61.6356 147.223 61.976 147.535 62.2382C147.853 62.5005 148.378 62.716 149.109 62.8846L151.563 63.4091C152.924 63.7026 153.936 64.1678 154.598 64.8048C155.266 65.4417 155.603 66.2754 155.609 67.3058C155.603 68.2112 155.338 69.0105 154.813 69.7037C154.295 70.3906 153.574 70.9277 152.649 71.3148C151.725 71.702 150.664 71.8956 149.465 71.8956C147.704 71.8956 146.286 71.5271 145.212 70.7903C144.138 70.0472 143.498 69.0137 143.292 67.6898L146.598 67.3713C146.748 68.0208 147.067 68.511 147.554 68.8419C148.041 69.1729 148.675 69.3384 149.455 69.3384C150.261 69.3384 150.907 69.1729 151.394 68.8419C151.888 68.511 152.134 68.102 152.134 67.6149C152.134 67.2027 151.975 66.8624 151.656 66.5939C151.344 66.3254 150.857 66.1193 150.195 65.9757L147.741 65.4605C146.361 65.1732 145.34 64.6893 144.678 64.0086C144.016 63.3217 143.688 62.4537 143.695 61.4046C143.688 60.5178 143.929 59.7497 144.416 59.1003C144.909 58.4446 145.593 57.9388 146.467 57.5829C147.348 57.2207 148.362 57.0396 149.511 57.0396C151.197 57.0396 152.524 57.3986 153.492 58.1168C154.467 58.8349 155.069 59.8059 155.3 61.0299Z" fill="#141D40"/>
<path d="M542.198 69.4987V67.3469L547.906 61.7508C548.452 61.1995 548.907 60.7098 549.271 60.2816C549.635 59.8534 549.908 59.4385 550.09 59.0371C550.272 58.6357 550.363 58.2075 550.363 57.7525C550.363 57.2333 550.245 56.789 550.01 56.4197C549.774 56.045 549.45 55.756 549.038 55.5526C548.626 55.3492 548.158 55.2475 547.633 55.2475C547.092 55.2475 546.619 55.3599 546.212 55.5847C545.805 55.8042 545.489 56.1173 545.265 56.5241C545.045 56.9309 544.935 57.4153 544.935 57.9773H542.101C542.101 56.9336 542.339 56.0263 542.816 55.2555C543.292 54.4848 543.948 53.8879 544.783 53.4651C545.623 53.0422 546.587 52.8308 547.673 52.8308C548.776 52.8308 549.745 53.0369 550.58 53.449C551.415 53.8612 552.062 54.4259 552.523 55.1431C552.988 55.8604 553.221 56.6793 553.221 57.5999C553.221 58.2155 553.103 58.8203 552.868 59.4145C552.632 60.0086 552.218 60.667 551.623 61.3895C551.035 62.1121 550.208 62.9873 549.143 64.015L546.308 66.8973V67.0097H553.47V69.4987H542.198ZM562.318 69.8118C560.996 69.8118 559.861 69.4772 558.914 68.8082C557.972 68.1338 557.246 67.1623 556.738 65.8937C556.235 64.6198 555.983 63.0863 555.983 61.2932C555.988 59.5001 556.243 57.9746 556.746 56.7168C557.254 55.4536 557.98 54.4901 558.922 53.8264C559.869 53.1627 561.001 52.8308 562.318 52.8308C563.635 52.8308 564.767 53.1627 565.714 53.8264C566.661 54.4901 567.387 55.4536 567.89 56.7168C568.398 57.98 568.653 59.5054 568.653 61.2932C568.653 63.0917 568.398 64.6278 567.89 65.9017C567.387 67.1703 566.661 68.1391 565.714 68.8082C564.772 69.4772 563.64 69.8118 562.318 69.8118ZM562.318 67.2988C563.345 67.2988 564.156 66.7929 564.751 65.7813C565.35 64.7643 565.65 63.2683 565.65 61.2932C565.65 59.9872 565.513 58.8899 565.24 58.0014C564.967 57.1129 564.582 56.4438 564.084 55.9942C563.586 55.5392 562.998 55.3117 562.318 55.3117C561.295 55.3117 560.487 55.8202 559.893 56.8372C559.299 57.8488 558.999 59.3342 558.994 61.2932C558.989 62.6046 559.12 63.7072 559.387 64.6011C559.66 65.495 560.046 66.1694 560.543 66.6243C561.041 67.074 561.633 67.2988 562.318 67.2988ZM571.32 69.4987V67.3469L577.029 61.7508C577.575 61.1995 578.03 60.7098 578.394 60.2816C578.757 59.8534 579.03 59.4385 579.212 59.0371C579.394 58.6357 579.485 58.2075 579.485 57.7525C579.485 57.2333 579.368 56.789 579.132 56.4197C578.897 56.045 578.573 55.756 578.161 55.5526C577.749 55.3492 577.28 55.2475 576.756 55.2475C576.215 55.2475 575.741 55.3599 575.335 55.5847C574.928 55.8042 574.612 56.1173 574.387 56.5241C574.168 56.9309 574.058 57.4153 574.058 57.9773H571.224C571.224 56.9336 571.462 56.0263 571.938 55.2555C572.415 54.4848 573.07 53.8879 573.905 53.4651C574.746 53.0422 575.709 52.8308 576.796 52.8308C577.898 52.8308 578.867 53.0369 579.702 53.449C580.537 53.8612 581.185 54.4259 581.645 55.1431C582.111 55.8604 582.344 56.6793 582.344 57.5999C582.344 58.2155 582.226 58.8203 581.99 59.4145C581.755 60.0086 581.34 60.667 580.746 61.3895C580.157 62.1121 579.33 62.9873 578.265 64.015L575.431 66.8973V67.0097H582.593V69.4987H571.32ZM584.712 66.4477V64.0792L591.689 53.0556H593.664V56.4277H592.46L587.763 63.8705V63.9989H597.502V66.4477H584.712ZM592.556 69.4987V65.7251L592.588 64.6653V53.0556H595.399V69.4987H592.556ZM607.574 60.0808V62.4734H600.172V60.0808H607.574ZM610.025 69.4987V67.3469L615.734 61.7508C616.28 61.1995 616.734 60.7098 617.098 60.2816C617.462 59.8534 617.735 59.4385 617.917 59.0371C618.099 58.6357 618.19 58.2075 618.19 57.7525C618.19 57.2333 618.073 56.789 617.837 56.4197C617.602 56.045 617.278 55.756 616.866 55.5526C616.453 55.3492 615.985 55.2475 615.461 55.2475C614.92 55.2475 614.446 55.3599 614.039 55.5847C613.633 55.8042 613.317 56.1173 613.092 56.5241C612.873 56.9309 612.763 57.4153 612.763 57.9773H609.929C609.929 56.9336 610.167 56.0263 610.643 55.2555C611.12 54.4848 611.775 53.8879 612.61 53.4651C613.451 53.0422 614.414 52.8308 615.501 52.8308C616.603 52.8308 617.572 53.0369 618.407 53.449C619.242 53.8612 619.89 54.4259 620.35 55.1431C620.816 55.8604 621.049 56.6793 621.049 57.5999C621.049 58.2155 620.931 58.8203 620.695 59.4145C620.46 60.0086 620.045 60.667 619.451 61.3895C618.862 62.1121 618.035 62.9873 616.97 64.015L614.136 66.8973V67.0097H621.298V69.4987H610.025ZM630.145 69.8118C628.823 69.8118 627.688 69.4772 626.741 68.8082C625.799 68.1338 625.074 67.1623 624.565 65.8937C624.062 64.6198 623.811 63.0863 623.811 61.2932C623.816 59.5001 624.07 57.9746 624.573 56.7168C625.082 55.4536 625.807 54.4901 626.749 53.8264C627.697 53.1627 628.829 52.8308 630.145 52.8308C631.462 52.8308 632.594 53.1627 633.541 53.8264C634.489 54.4901 635.214 55.4536 635.717 56.7168C636.226 57.98 636.48 59.5054 636.48 61.2932C636.48 63.0917 636.226 64.6278 635.717 65.9017C635.214 67.1703 634.489 68.1391 633.541 68.8082C632.599 69.4772 631.467 69.8118 630.145 69.8118ZM630.145 67.2988C631.173 67.2988 631.984 66.7929 632.578 65.7813C633.178 64.7643 633.477 63.2683 633.477 61.2932C633.477 59.9872 633.341 58.8899 633.068 58.0014C632.795 57.1129 632.409 56.4438 631.912 55.9942C631.414 55.5392 630.825 55.3117 630.145 55.3117C629.123 55.3117 628.315 55.8202 627.721 56.8372C627.126 57.8488 626.827 59.3342 626.821 61.2932C626.816 62.6046 626.947 63.7072 627.215 64.6011C627.488 65.495 627.873 66.1694 628.371 66.6243C628.869 67.074 629.46 67.2988 630.145 67.2988ZM639.148 69.4987V67.3469L644.856 61.7508C645.402 61.1995 645.857 60.7098 646.221 60.2816C646.585 59.8534 646.858 59.4385 647.04 59.0371C647.222 58.6357 647.313 58.2075 647.313 57.7525C647.313 57.2333 647.195 56.789 646.96 56.4197C646.724 56.045 646.4 55.756 645.988 55.5526C645.576 55.3492 645.108 55.2475 644.583 55.2475C644.043 55.2475 643.569 55.3599 643.162 55.5847C642.755 55.8042 642.439 56.1173 642.215 56.5241C641.995 56.9309 641.885 57.4153 641.885 57.9773H639.051C639.051 56.9336 639.289 56.0263 639.766 55.2555C640.242 54.4848 640.898 53.8879 641.733 53.4651C642.573 53.0422 643.537 52.8308 644.623 52.8308C645.726 52.8308 646.695 53.0369 647.53 53.449C648.365 53.8612 649.012 54.4259 649.473 55.1431C649.938 55.8604 650.171 56.6793 650.171 57.5999C650.171 58.2155 650.053 58.8203 649.818 59.4145C649.582 60.0086 649.168 60.667 648.573 61.3895C647.985 62.1121 647.158 62.9873 646.093 64.015L643.258 66.8973V67.0097H650.42V69.4987H639.148ZM658.907 69.7235C657.836 69.7235 656.878 69.5227 656.032 69.1213C655.187 68.7145 654.515 68.1578 654.017 67.4513C653.525 66.7448 653.262 65.9365 653.23 65.0266H656.121C656.174 65.701 656.466 66.2523 656.996 66.6805C657.526 67.1034 658.163 67.3148 658.907 67.3148C659.49 67.3148 660.009 67.181 660.464 66.9134C660.919 66.6457 661.278 66.2737 661.54 65.7974C661.802 65.321 661.931 64.7777 661.925 64.1675C661.931 63.5466 661.8 62.9953 661.532 62.5136C661.264 62.0319 660.898 61.6545 660.432 61.3815C659.966 61.1032 659.431 60.964 658.826 60.964C658.334 60.9587 657.849 61.0497 657.373 61.237C656.897 61.4243 656.519 61.6706 656.241 61.9757L653.551 61.5341L654.41 53.0556H663.949V55.5446H656.875L656.402 59.9042H656.498C656.803 59.5456 657.234 59.2485 657.791 59.013C658.347 58.7722 658.957 58.6517 659.621 58.6517C660.617 58.6517 661.505 58.8872 662.287 59.3583C663.068 59.8239 663.684 60.4662 664.133 61.2852C664.583 62.1041 664.808 63.0408 664.808 64.0953C664.808 65.1818 664.556 66.1506 664.053 67.0017C663.555 67.8474 662.862 68.5138 661.974 69.0009C661.09 69.4826 660.068 69.7235 658.907 69.7235Z" fill="#141D40"/>
<path opacity="0.9" d="M57.6915 288.774H59.9824V296.417C59.9824 297.124 59.8236 297.738 59.506 298.259C59.192 298.78 58.7548 299.181 58.1946 299.463C57.6344 299.745 56.9832 299.886 56.2409 299.886C55.5808 299.886 54.9813 299.77 54.4425 299.538C53.9072 299.302 53.4826 298.945 53.1686 298.467C52.8546 297.986 52.6993 297.381 52.7029 296.653H55.0098C55.017 296.942 55.0759 297.19 55.1865 297.397C55.3007 297.6 55.4559 297.757 55.6522 297.868C55.852 297.975 56.0875 298.028 56.3587 298.028C56.6442 298.028 56.885 297.968 57.0813 297.846C57.2811 297.721 57.4328 297.54 57.5362 297.3C57.6397 297.061 57.6915 296.767 57.6915 296.417V288.774ZM63.788 299.736H61.3044L65.0887 288.774H68.0754L71.8543 299.736H69.3707L66.6249 291.279H66.5392L63.788 299.736ZM63.6328 295.427H69.4992V297.236H63.6328V295.427ZM82.3426 288.774V299.736H80.3408L75.5717 292.836H75.4914V299.736H73.1737V288.774H75.2077L79.9393 295.668H80.0357V288.774H82.3426Z" fill="#141D40"/>
<path opacity="0.9" d="M105.645 299.736V288.774H112.903V290.685H107.963V293.297H112.421V295.208H107.963V299.736H105.645ZM114.462 299.736V288.774H121.849V290.685H116.78V293.297H121.469V295.208H116.78V297.825H121.87V299.736H114.462ZM123.691 299.736V288.774H128.08C128.887 288.774 129.559 288.893 130.098 289.132C130.637 289.372 131.042 289.703 131.313 290.128C131.584 290.549 131.72 291.034 131.72 291.584C131.72 292.012 131.634 292.389 131.463 292.713C131.292 293.034 131.056 293.299 130.757 293.505C130.46 293.709 130.121 293.853 129.74 293.939V294.046C130.157 294.064 130.548 294.182 130.912 294.399C131.279 294.617 131.577 294.922 131.806 295.315C132.034 295.704 132.148 296.167 132.148 296.706C132.148 297.288 132.004 297.807 131.715 298.264C131.429 298.717 131.006 299.076 130.446 299.34C129.886 299.604 129.195 299.736 128.375 299.736H123.691ZM126.009 297.841H127.898C128.544 297.841 129.015 297.718 129.311 297.472C129.608 297.222 129.756 296.89 129.756 296.476C129.756 296.173 129.683 295.905 129.536 295.673C129.39 295.441 129.181 295.259 128.91 295.127C128.642 294.995 128.323 294.929 127.952 294.929H126.009V297.841ZM126.009 293.361H127.727C128.045 293.361 128.327 293.306 128.573 293.195C128.823 293.081 129.019 292.92 129.162 292.713C129.308 292.506 129.381 292.258 129.381 291.969C129.381 291.573 129.24 291.254 128.958 291.011C128.68 290.769 128.284 290.647 127.77 290.647H126.009V293.361Z" fill="#141D40"/>
<path opacity="0.9" d="M155.868 288.774H158.726L161.745 296.139H161.873L164.892 288.774H167.751V299.736H165.502V292.601H165.411L162.575 299.682H161.044L158.207 292.574H158.116V299.736H155.868V288.774ZM171.55 299.736H169.066L172.85 288.774H175.837L179.616 299.736H177.132L174.386 291.279H174.301L171.55 299.736ZM171.394 295.427H177.261V297.236H171.394V295.427ZM180.935 299.736V288.774H185.26C186.088 288.774 186.794 288.922 187.38 289.218C187.968 289.511 188.416 289.926 188.723 290.465C189.034 291 189.189 291.63 189.189 292.355C189.189 293.083 189.032 293.709 188.718 294.233C188.404 294.754 187.949 295.154 187.353 295.432C186.761 295.711 186.043 295.85 185.201 295.85H182.305V293.987H184.827C185.269 293.987 185.637 293.927 185.929 293.805C186.222 293.684 186.439 293.502 186.582 293.259C186.728 293.017 186.802 292.715 186.802 292.355C186.802 291.991 186.728 291.684 186.582 291.434C186.439 291.184 186.22 290.995 185.924 290.867C185.631 290.735 185.262 290.669 184.816 290.669H183.253V299.736H180.935ZM186.855 294.747L189.58 299.736H187.021L184.355 294.747H186.855Z" fill="#141D40"/>
<path opacity="0.9" d="M213.471 299.736H210.987L214.772 288.774H217.758L221.537 299.736H219.054L216.308 291.279H216.222L213.471 299.736ZM213.316 295.427H219.182V297.236H213.316V295.427ZM222.857 299.736V288.774H227.181C228.013 288.774 228.721 288.933 229.306 289.25C229.892 289.564 230.338 290.001 230.645 290.562C230.955 291.118 231.11 291.761 231.11 292.488C231.11 293.216 230.953 293.859 230.639 294.415C230.325 294.972 229.87 295.406 229.274 295.716C228.682 296.027 227.965 296.182 227.123 296.182H224.366V294.324H226.748C227.194 294.324 227.561 294.248 227.851 294.094C228.143 293.937 228.361 293.721 228.504 293.447C228.65 293.168 228.723 292.849 228.723 292.488C228.723 292.125 228.65 291.807 228.504 291.536C228.361 291.261 228.143 291.049 227.851 290.899C227.558 290.745 227.187 290.669 226.737 290.669H225.174V299.736H222.857ZM232.616 299.736V288.774H236.94C237.768 288.774 238.475 288.922 239.06 289.218C239.649 289.511 240.097 289.926 240.404 290.465C240.714 291 240.869 291.63 240.869 292.355C240.869 293.083 240.712 293.709 240.398 294.233C240.084 294.754 239.629 295.154 239.033 295.432C238.441 295.711 237.724 295.85 236.882 295.85H233.986V293.987H236.507C236.949 293.987 237.317 293.927 237.61 293.805C237.902 293.684 238.12 293.502 238.263 293.259C238.409 293.017 238.482 292.715 238.482 292.355C238.482 291.991 238.409 291.684 238.263 291.434C238.12 291.184 237.9 290.995 237.604 290.867C237.312 290.735 236.942 290.669 236.496 290.669H234.933V299.736H232.616ZM238.536 294.747L241.26 299.736H238.701L236.036 294.747H238.536Z" fill="#141D40"/>
<path opacity="0.9" d="M262.364 288.774H265.222L268.241 296.139H268.369L271.388 288.774H274.246V299.736H271.998V292.601H271.907L269.07 299.682H267.539L264.703 292.574H264.612V299.736H262.364V288.774ZM278.045 299.736H275.562L279.346 288.774H282.333L286.111 299.736H283.628L280.882 291.279H280.796L278.045 299.736ZM277.89 295.427H283.756V297.236H277.89V295.427ZM285.67 288.774H288.266L290.766 293.495H290.873L293.372 288.774H295.968L291.97 295.861V299.736H289.668V295.861L285.67 288.774Z" fill="#141D40"/>
<path opacity="0.9" d="M323.489 288.774H325.779V296.417C325.779 297.124 325.621 297.738 325.303 298.259C324.989 298.78 324.552 299.181 323.992 299.463C323.431 299.745 322.78 299.886 322.038 299.886C321.378 299.886 320.778 299.77 320.24 299.538C319.704 299.302 319.28 298.945 318.966 298.467C318.652 297.986 318.496 297.381 318.5 296.653H320.807C320.814 296.942 320.873 297.19 320.984 297.397C321.098 297.6 321.253 297.757 321.449 297.868C321.649 297.975 321.885 298.028 322.156 298.028C322.441 298.028 322.682 297.968 322.878 297.846C323.078 297.721 323.23 297.54 323.333 297.3C323.437 297.061 323.489 296.767 323.489 296.417V288.774ZM334.467 288.774H336.784V295.893C336.784 296.692 336.593 297.391 336.212 297.991C335.833 298.59 335.303 299.058 334.622 299.393C333.94 299.725 333.146 299.891 332.24 299.891C331.33 299.891 330.534 299.725 329.853 299.393C329.171 299.058 328.641 298.59 328.263 297.991C327.885 297.391 327.696 296.692 327.696 295.893V288.774H330.013V295.695C330.013 296.112 330.104 296.483 330.286 296.808C330.472 297.133 330.732 297.388 331.068 297.573C331.403 297.759 331.794 297.852 332.24 297.852C332.69 297.852 333.08 297.759 333.412 297.573C333.748 297.388 334.006 297.133 334.188 296.808C334.374 296.483 334.467 296.112 334.467 295.695V288.774ZM347.86 288.774V299.736H345.858L341.089 292.836H341.009V299.736H338.691V288.774H340.725L345.457 295.668H345.553V288.774H347.86Z" fill="#141D40"/>
<path opacity="0.9" d="M375.625 288.774H377.916V296.417C377.916 297.124 377.757 297.738 377.44 298.259C377.126 298.78 376.689 299.181 376.128 299.463C375.568 299.745 374.917 299.886 374.175 299.886C373.515 299.886 372.915 299.77 372.376 299.538C371.841 299.302 371.416 298.945 371.102 298.467C370.788 297.986 370.633 297.381 370.637 296.653H372.944C372.951 296.942 373.01 297.19 373.12 297.397C373.234 297.6 373.39 297.757 373.586 297.868C373.786 297.975 374.021 298.028 374.292 298.028C374.578 298.028 374.819 297.968 375.015 297.846C375.215 297.721 375.366 297.54 375.47 297.3C375.573 297.061 375.625 296.767 375.625 296.417V288.774ZM386.603 288.774H388.921V295.893C388.921 296.692 388.73 297.391 388.348 297.991C387.97 298.59 387.44 299.058 386.758 299.393C386.077 299.725 385.283 299.891 384.377 299.891C383.467 299.891 382.671 299.725 381.989 299.393C381.308 299.058 380.778 298.59 380.4 297.991C380.021 297.391 379.832 296.692 379.832 295.893V288.774H382.15V295.695C382.15 296.112 382.241 296.483 382.423 296.808C382.608 297.133 382.869 297.388 383.204 297.573C383.54 297.759 383.931 297.852 384.377 297.852C384.826 297.852 385.217 297.759 385.549 297.573C385.884 297.388 386.143 297.133 386.325 296.808C386.51 296.483 386.603 296.112 386.603 295.695V288.774ZM390.828 299.736V288.774H393.145V297.825H397.845V299.736H390.828Z" fill="#141D40"/>
<path opacity="0.9" d="M419.315 299.736H416.832L420.616 288.774H423.603L427.381 299.736H424.898L422.152 291.279H422.066L419.315 299.736ZM419.16 295.427H425.026V297.236H419.16V295.427ZM435.472 288.774H437.79V295.893C437.79 296.692 437.599 297.391 437.217 297.991C436.839 298.59 436.309 299.058 435.627 299.393C434.946 299.725 434.152 299.891 433.245 299.891C432.335 299.891 431.54 299.725 430.858 299.393C430.176 299.058 429.646 298.59 429.268 297.991C428.89 297.391 428.701 296.692 428.701 295.893V288.774H431.019V295.695C431.019 296.112 431.11 296.483 431.292 296.808C431.477 297.133 431.738 297.388 432.073 297.573C432.408 297.759 432.799 297.852 433.245 297.852C433.695 297.852 434.086 297.759 434.417 297.573C434.753 297.388 435.012 297.133 435.194 296.808C435.379 296.483 435.472 296.112 435.472 295.695V288.774ZM446.965 292.317C446.89 292.057 446.785 291.827 446.649 291.627C446.514 291.423 446.348 291.252 446.152 291.113C445.959 290.97 445.738 290.861 445.488 290.786C445.242 290.711 444.969 290.674 444.669 290.674C444.109 290.674 443.616 290.813 443.192 291.091C442.77 291.37 442.442 291.775 442.207 292.307C441.971 292.835 441.853 293.48 441.853 294.244C441.853 295.008 441.969 295.657 442.201 296.192C442.433 296.728 442.762 297.136 443.186 297.418C443.611 297.697 444.112 297.836 444.69 297.836C445.215 297.836 445.663 297.743 446.034 297.557C446.408 297.368 446.694 297.102 446.89 296.76C447.09 296.417 447.19 296.012 447.19 295.545L447.661 295.614H444.835V293.869H449.422V295.25C449.422 296.214 449.219 297.042 448.812 297.734C448.405 298.423 447.845 298.954 447.131 299.329C446.417 299.7 445.6 299.886 444.68 299.886C443.652 299.886 442.749 299.659 441.971 299.206C441.193 298.749 440.587 298.102 440.151 297.263C439.72 296.421 439.504 295.422 439.504 294.266C439.504 293.377 439.632 292.585 439.889 291.889C440.15 291.19 440.514 290.597 440.981 290.112C441.448 289.627 441.993 289.257 442.613 289.004C443.234 288.751 443.907 288.624 444.631 288.624C445.252 288.624 445.83 288.715 446.366 288.897C446.901 289.075 447.375 289.329 447.789 289.657C448.207 289.985 448.548 290.376 448.812 290.829C449.076 291.279 449.245 291.775 449.32 292.317H446.965Z" fill="#141D40"/>
<path opacity="0.9" d="M474.796 291.926C474.753 291.495 474.569 291.159 474.244 290.92C473.92 290.681 473.479 290.562 472.922 290.562C472.544 290.562 472.225 290.615 471.964 290.722C471.704 290.826 471.504 290.97 471.365 291.156C471.229 291.341 471.161 291.552 471.161 291.787C471.154 291.984 471.195 292.155 471.285 292.301C471.377 292.447 471.504 292.574 471.665 292.681C471.825 292.785 472.011 292.876 472.221 292.954C472.432 293.029 472.657 293.093 472.896 293.147L473.881 293.382C474.359 293.489 474.798 293.632 475.197 293.811C475.597 293.989 475.943 294.208 476.236 294.469C476.528 294.729 476.755 295.036 476.915 295.39C477.08 295.743 477.163 296.148 477.167 296.605C477.163 297.275 476.992 297.857 476.653 298.35C476.318 298.838 475.832 299.218 475.197 299.49C474.566 299.757 473.804 299.891 472.912 299.891C472.027 299.891 471.256 299.755 470.599 299.484C469.946 299.213 469.436 298.812 469.069 298.28C468.705 297.745 468.514 297.083 468.496 296.294H470.739C470.764 296.662 470.869 296.969 471.054 297.215C471.243 297.457 471.495 297.641 471.809 297.766C472.127 297.887 472.485 297.948 472.885 297.948C473.277 297.948 473.618 297.891 473.907 297.777C474.2 297.663 474.426 297.504 474.587 297.3C474.748 297.097 474.828 296.863 474.828 296.599C474.828 296.353 474.755 296.146 474.608 295.978C474.466 295.811 474.255 295.668 473.977 295.55C473.702 295.432 473.365 295.325 472.965 295.229L471.772 294.929C470.847 294.704 470.118 294.353 469.582 293.875C469.047 293.397 468.781 292.753 468.785 291.943C468.781 291.279 468.958 290.699 469.315 290.203C469.675 289.707 470.169 289.32 470.797 289.041C471.425 288.763 472.139 288.624 472.938 288.624C473.752 288.624 474.462 288.763 475.069 289.041C475.679 289.32 476.154 289.707 476.493 290.203C476.832 290.699 477.006 291.273 477.017 291.926H474.796ZM478.726 299.736V288.774H486.112V290.685H481.044V293.297H485.732V295.208H481.044V297.825H486.134V299.736H478.726ZM487.955 299.736V288.774H492.28C493.111 288.774 493.82 288.933 494.405 289.25C494.99 289.564 495.436 290.001 495.743 290.562C496.053 291.118 496.209 291.761 496.209 292.488C496.209 293.216 496.052 293.859 495.738 294.415C495.424 294.972 494.969 295.406 494.373 295.716C493.78 296.027 493.063 296.182 492.221 296.182H489.464V294.324H491.846C492.292 294.324 492.66 294.248 492.949 294.094C493.242 293.937 493.459 293.721 493.602 293.447C493.748 293.168 493.821 292.849 493.821 292.488C493.821 292.125 493.748 291.807 493.602 291.536C493.459 291.261 493.242 291.049 492.949 290.899C492.656 290.745 492.285 290.669 491.836 290.669H490.273V299.736H487.955Z" fill="#141D40"/>
<path opacity="0.9" d="M525.745 294.255C525.745 295.45 525.519 296.467 525.065 297.306C524.616 298.144 524.002 298.785 523.224 299.227C522.45 299.666 521.579 299.886 520.612 299.886C519.638 299.886 518.764 299.664 517.989 299.222C517.215 298.78 516.603 298.139 516.153 297.3C515.704 296.462 515.479 295.447 515.479 294.255C515.479 293.059 515.704 292.042 516.153 291.204C516.603 290.365 517.215 289.727 517.989 289.288C518.764 288.845 519.638 288.624 520.612 288.624C521.579 288.624 522.45 288.845 523.224 289.288C524.002 289.727 524.616 290.365 525.065 291.204C525.519 292.042 525.745 293.059 525.745 294.255ZM523.395 294.255C523.395 293.48 523.279 292.827 523.047 292.296C522.819 291.764 522.496 291.361 522.079 291.086C521.661 290.811 521.172 290.674 520.612 290.674C520.052 290.674 519.563 290.811 519.145 291.086C518.728 291.361 518.403 291.764 518.171 292.296C517.943 292.827 517.829 293.48 517.829 294.255C517.829 295.029 517.943 295.682 518.171 296.214C518.403 296.746 518.728 297.149 519.145 297.424C519.563 297.698 520.052 297.836 520.612 297.836C521.172 297.836 521.661 297.698 522.079 297.424C522.496 297.149 522.819 296.746 523.047 296.214C523.279 295.682 523.395 295.029 523.395 294.255ZM537.134 292.612H534.79C534.747 292.308 534.659 292.039 534.527 291.803C534.395 291.564 534.226 291.361 534.019 291.193C533.812 291.025 533.573 290.897 533.302 290.808C533.034 290.719 532.743 290.674 532.429 290.674C531.862 290.674 531.368 290.815 530.947 291.097C530.525 291.375 530.199 291.782 529.967 292.317C529.735 292.849 529.619 293.495 529.619 294.255C529.619 295.036 529.735 295.693 529.967 296.225C530.203 296.756 530.531 297.158 530.952 297.429C531.373 297.7 531.86 297.836 532.413 297.836C532.724 297.836 533.011 297.795 533.275 297.713C533.542 297.631 533.78 297.511 533.987 297.354C534.194 297.193 534.365 296.999 534.501 296.771C534.64 296.542 534.736 296.282 534.79 295.989L537.134 296C537.073 296.503 536.922 296.988 536.679 297.456C536.44 297.92 536.117 298.335 535.71 298.703C535.307 299.067 534.825 299.356 534.265 299.57C533.708 299.78 533.079 299.886 532.376 299.886C531.398 299.886 530.524 299.664 529.753 299.222C528.986 298.78 528.379 298.139 527.933 297.3C527.491 296.462 527.269 295.447 527.269 294.255C527.269 293.059 527.494 292.042 527.944 291.204C528.393 290.365 529.004 289.727 529.774 289.288C530.545 288.845 531.412 288.624 532.376 288.624C533.011 288.624 533.6 288.713 534.142 288.892C534.688 289.07 535.171 289.33 535.593 289.673C536.014 290.012 536.356 290.428 536.62 290.92C536.888 291.413 537.059 291.976 537.134 292.612ZM538.379 290.685V288.774H547.382V290.685H544.025V299.736H541.735V290.685H538.379Z" fill="#141D40"/>
<path opacity="0.9" d="M573.658 288.774V299.736H571.656L566.887 292.836H566.806V299.736H564.489V288.774H566.523L571.254 295.668H571.351V288.774H573.658ZM585.646 294.255C585.646 295.45 585.419 296.467 584.966 297.306C584.517 298.144 583.903 298.785 583.125 299.227C582.351 299.666 581.48 299.886 580.513 299.886C579.539 299.886 578.665 299.664 577.89 299.222C577.116 298.78 576.504 298.139 576.054 297.3C575.605 296.462 575.38 295.447 575.38 294.255C575.38 293.059 575.605 292.042 576.054 291.204C576.504 290.365 577.116 289.727 577.89 289.288C578.665 288.845 579.539 288.624 580.513 288.624C581.48 288.624 582.351 288.845 583.125 289.288C583.903 289.727 584.517 290.365 584.966 291.204C585.419 292.042 585.646 293.059 585.646 294.255ZM583.296 294.255C583.296 293.48 583.18 292.827 582.948 292.296C582.72 291.764 582.397 291.361 581.98 291.086C581.562 290.811 581.073 290.674 580.513 290.674C579.953 290.674 579.464 290.811 579.046 291.086C578.629 291.361 578.304 291.764 578.072 292.296C577.844 292.827 577.73 293.48 577.73 294.255C577.73 295.029 577.844 295.682 578.072 296.214C578.304 296.746 578.629 297.149 579.046 297.424C579.464 297.698 579.953 297.836 580.513 297.836C581.073 297.836 581.562 297.698 581.98 297.424C582.397 297.149 582.72 296.746 582.948 296.214C583.18 295.682 583.296 295.029 583.296 294.255ZM588.725 288.774L591.375 297.102H591.476L594.131 288.774H596.7L592.921 299.736H589.935L586.15 288.774H588.725Z" fill="#141D40"/>
<path opacity="0.9" d="M618.362 299.736H614.476V288.774H618.394C619.497 288.774 620.446 288.993 621.242 289.432C622.037 289.868 622.649 290.494 623.078 291.311C623.509 292.128 623.725 293.106 623.725 294.244C623.725 295.386 623.509 296.367 623.078 297.188C622.649 298.009 622.034 298.639 621.231 299.077C620.432 299.516 619.475 299.736 618.362 299.736ZM616.794 297.75H618.266C618.951 297.75 619.527 297.629 619.994 297.386C620.465 297.14 620.819 296.76 621.054 296.246C621.293 295.729 621.413 295.061 621.413 294.244C621.413 293.434 621.293 292.772 621.054 292.258C620.819 291.744 620.467 291.366 620 291.124C619.532 290.881 618.956 290.76 618.271 290.76H616.794V297.75ZM625.442 299.736V288.774H632.829V290.685H627.76V293.297H632.449V295.208H627.76V297.825H632.85V299.736H625.442ZM644.343 292.612H641.999C641.956 292.308 641.869 292.039 641.737 291.803C641.604 291.564 641.435 291.361 641.228 291.193C641.021 291.025 640.782 290.897 640.511 290.808C640.243 290.719 639.952 290.674 639.638 290.674C639.071 290.674 638.577 290.815 638.156 291.097C637.735 291.375 637.408 291.782 637.176 292.317C636.944 292.849 636.828 293.495 636.828 294.255C636.828 295.036 636.944 295.693 637.176 296.225C637.412 296.756 637.74 297.158 638.161 297.429C638.582 297.7 639.069 297.836 639.622 297.836C639.933 297.836 640.22 297.795 640.484 297.713C640.752 297.631 640.989 297.511 641.196 297.354C641.403 297.193 641.574 296.999 641.71 296.771C641.849 296.542 641.945 296.282 641.999 295.989L644.343 296C644.283 296.503 644.131 296.988 643.888 297.456C643.649 297.92 643.326 298.335 642.919 298.703C642.516 299.067 642.034 299.356 641.474 299.57C640.918 299.78 640.288 299.886 639.585 299.886C638.607 299.886 637.733 299.664 636.962 299.222C636.195 298.78 635.588 298.139 635.142 297.3C634.7 296.462 634.478 295.447 634.478 294.255C634.478 293.059 634.703 292.042 635.153 291.204C635.602 290.365 636.213 289.727 636.983 289.288C637.754 288.845 638.621 288.624 639.585 288.624C640.22 288.624 640.809 288.713 641.351 288.892C641.897 289.07 642.381 289.33 642.802 289.673C643.223 290.012 643.565 290.428 643.829 290.92C644.097 291.413 644.268 291.976 644.343 292.612Z" fill="#141D40"/>
<path d="M37.6816 232.14L60.7205 219.977C76.7761 211.5 95.8795 211.051 112.315 218.765V218.765C130.086 227.104 150.874 225.865 167.528 215.473L176.034 210.164C195.062 198.291 218.351 195.392 239.71 202.239L253.053 206.516L266.334 212.27C295.711 224.996 328.933 225.567 358.731 213.86V213.86C371.107 208.998 382.598 202.129 392.741 193.531L428.99 162.805L435.298 157.79C459.122 138.849 491.878 135.75 518.831 149.887V149.887C525.633 153.455 531.862 158.022 537.31 163.436L538.055 164.177C563.526 189.49 602.291 195.768 634.45 179.788L644.361 174.864" stroke="url(#paint0_linear_1321_282)" stroke-width="7.53639"/>
<path d="M37.6816 172.81L67.5714 194.145C73.7006 198.52 78.2394 204.771 80.5019 211.954L81.1506 214.013C88.006 235.776 114.286 244.267 132.58 230.631V230.631C144.461 221.774 160.776 221.879 172.543 230.887L180.646 237.091C197.207 249.769 220.171 249.917 236.893 237.451L260.675 219.724C264.3 217.021 268.133 214.609 272.139 212.51L303.704 195.965C319.914 187.47 334.799 176.657 347.891 163.869L373.408 138.945C378.489 133.981 384.457 130.014 391.001 127.25V127.25C417.34 116.125 447.844 126.306 462.22 151.022L468.19 161.283C472.62 168.9 478.442 175.615 485.354 181.08L516.515 205.721C530.953 217.137 547.713 225.257 565.62 229.511V229.511C584.556 234.011 604.276 234.069 623.238 229.682L651.897 223.052" stroke="#0B8AFF" stroke-width="7.53639"/>
<circle cx="414.502" cy="122.863" r="11.3046" fill="#0B8AFF"/>
<defs>
<linearGradient id="paint0_linear_1321_282" x1="641.117" y1="127.077" x2="507.178" y2="435.818" gradientUnits="userSpaceOnUse">
<stop stop-color="#2B43E3"/>
<stop offset="0.995876" stop-color="#202ED0"/>
</linearGradient>
</defs>
</svg>
