<svg width="699" height="441" viewBox="0 0 699 441" fill="none" xmlns="http://www.w3.org/2000/svg">
<rect width="699" height="441" fill="white"/>
<path d="M42.0373 71.2184H38.328L45.0815 52.0349H49.3716L56.1346 71.2184H52.4252L47.3015 55.969H47.1516L42.0373 71.2184ZM42.159 63.6968H52.2754V66.4881H42.159V63.6968ZM61.9023 62.7882V71.2184H58.5114V56.8308H61.7524V59.2756H61.921C62.252 58.47 62.7796 57.8299 63.504 57.3553C64.2346 56.8808 65.137 56.6435 66.2111 56.6435C67.204 56.6435 68.0688 56.8558 68.8057 57.2804C69.5488 57.705 70.1233 58.3201 70.5292 59.1257C70.9414 59.9313 71.1443 60.9085 71.1381 62.0576V71.2184H67.7472V62.5821C67.7472 61.6204 67.4975 60.868 66.9979 60.3247C66.5046 59.7814 65.8208 59.5097 64.9465 59.5097C64.3533 59.5097 63.8256 59.6409 63.3635 59.9032C62.9076 60.1592 62.5486 60.5307 62.2863 61.0178C62.0303 61.5049 61.9023 62.095 61.9023 62.7882ZM78.7253 71.5088C77.8136 71.5088 76.9924 71.3465 76.2618 71.0217C75.5374 70.6908 74.9629 70.2037 74.5383 69.5605C74.1199 68.9173 73.9107 68.1242 73.9107 67.1813C73.9107 66.3695 74.0606 65.6982 74.3603 65.1674C74.6601 64.6366 75.0691 64.212 75.5874 63.8935C76.1057 63.575 76.6896 63.3346 77.339 63.1722C77.9947 63.0036 78.6722 62.8819 79.3716 62.8069C80.2147 62.7195 80.8985 62.6414 81.423 62.5727C81.9475 62.4978 82.3285 62.3854 82.5658 62.2355C82.8093 62.0794 82.9311 61.839 82.9311 61.5143V61.4581C82.9311 60.7524 82.7219 60.206 82.3035 59.8189C81.8851 59.4317 81.2825 59.2381 80.4957 59.2381C79.6651 59.2381 79.0063 59.4192 78.5192 59.7814C78.0384 60.1436 77.7137 60.5713 77.5451 61.0647L74.379 60.615C74.6288 59.7408 75.041 59.0102 75.6155 58.4232C76.19 57.8299 76.8925 57.3866 77.7231 57.0931C78.5536 56.7933 79.4716 56.6435 80.4769 56.6435C81.1701 56.6435 81.8601 56.7246 82.547 56.887C83.2339 57.0494 83.8615 57.3179 84.4298 57.6926C84.9981 58.061 85.4539 58.5637 85.7974 59.2006C86.1471 59.8376 86.3219 60.6338 86.3219 61.5892V71.2184H83.0622V69.242H82.9498C82.7437 69.6417 82.4534 70.0164 82.0787 70.3661C81.7103 70.7095 81.245 70.9874 80.683 71.1997C80.1272 71.4058 79.4747 71.5088 78.7253 71.5088ZM79.6058 69.0172C80.2865 69.0172 80.8766 68.8829 81.3762 68.6144C81.8757 68.3397 82.2598 67.9775 82.5283 67.5279C82.8031 67.0782 82.9404 66.588 82.9404 66.0572V64.3618C82.8343 64.4493 82.6532 64.5304 82.3972 64.6054C82.1474 64.6803 81.8664 64.7459 81.5541 64.8021C81.2419 64.8583 80.9328 64.9082 80.6268 64.9519C80.3208 64.9957 80.0554 65.0331 79.8306 65.0644C79.3248 65.133 78.8721 65.2454 78.4724 65.4016C78.0728 65.5577 77.7574 65.7762 77.5263 66.0572C77.2953 66.332 77.1798 66.688 77.1798 67.1251C77.1798 67.7495 77.4077 68.221 77.8636 68.5395C78.3194 68.858 78.9002 69.0172 79.6058 69.0172ZM93.1223 52.0349V71.2184H89.7315V52.0349H93.1223ZM98.7167 76.6138C98.2546 76.6138 97.8269 76.5763 97.4335 76.5014C97.0463 76.4327 96.7372 76.3515 96.5061 76.2579L97.293 73.6164C97.7863 73.76 98.2265 73.8287 98.6137 73.8225C99.0009 73.8162 99.3412 73.6944 99.6347 73.4571C99.9344 73.2261 100.187 72.8389 100.393 72.2956L100.684 71.5182L95.4664 56.8308H99.0633L102.379 67.6965H102.529L105.854 56.8308H109.461L103.7 72.9607C103.431 73.7225 103.076 74.3751 102.632 74.9184C102.189 75.4679 101.645 75.8863 101.002 76.1736C100.365 76.4671 99.6035 76.6138 98.7167 76.6138ZM118.992 56.8308V59.4535H110.721V56.8308H118.992ZM112.763 53.3838H116.153V66.8909C116.153 67.3468 116.222 67.6965 116.359 67.94C116.503 68.1773 116.69 68.3397 116.921 68.4271C117.152 68.5145 117.409 68.5582 117.69 68.5582C117.902 68.5582 118.095 68.5426 118.27 68.5114C118.451 68.4802 118.589 68.4521 118.682 68.4271L119.254 71.0779C119.073 71.1404 118.814 71.2091 118.476 71.284C118.145 71.3589 117.739 71.4027 117.259 71.4152C116.409 71.4401 115.644 71.3121 114.964 71.0311C114.283 70.7439 113.743 70.3005 113.343 69.701C112.95 69.1015 112.756 68.3522 112.763 67.4529V53.3838ZM121.827 71.2184V56.8308H125.218V71.2184H121.827ZM123.532 54.7888C122.995 54.7888 122.533 54.6108 122.146 54.2549C121.759 53.8927 121.565 53.4587 121.565 52.9529C121.565 52.4408 121.759 52.0068 122.146 51.6509C122.533 51.2887 122.995 51.1076 123.532 51.1076C124.075 51.1076 124.538 51.2887 124.918 51.6509C125.306 52.0068 125.499 52.4408 125.499 52.9529C125.499 53.4587 125.306 53.8927 124.918 54.2549C124.538 54.6108 124.075 54.7888 123.532 54.7888ZM134.981 71.4995C133.545 71.4995 132.311 71.1841 131.281 70.5534C130.257 69.9227 129.467 69.0516 128.911 67.94C128.362 66.8222 128.087 65.5358 128.087 64.0808C128.087 62.6196 128.368 61.3301 128.93 60.2123C129.492 59.0882 130.285 58.214 131.309 57.5895C132.339 56.9588 133.557 56.6435 134.962 56.6435C136.13 56.6435 137.163 56.8589 138.063 57.2898C138.968 57.7144 139.689 58.317 140.226 59.0976C140.763 59.8719 141.069 60.7774 141.144 61.814H137.903C137.772 61.1209 137.46 60.5432 136.967 60.0811C136.48 59.6128 135.827 59.3786 135.009 59.3786C134.316 59.3786 133.707 59.5659 133.182 59.9406C132.658 60.3091 132.249 60.8399 131.955 61.533C131.668 62.2262 131.525 63.0567 131.525 64.0246C131.525 65.005 131.668 65.8481 131.955 66.5537C132.243 67.2531 132.645 67.7933 133.164 68.1742C133.688 68.5489 134.303 68.7362 135.009 68.7362C135.509 68.7362 135.955 68.6425 136.349 68.4552C136.748 68.2616 137.082 67.9837 137.351 67.6215C137.619 67.2593 137.804 66.8191 137.903 66.3008H141.144C141.063 67.3187 140.763 68.221 140.245 69.0078C139.727 69.7884 139.021 70.4004 138.128 70.8438C137.235 71.2809 136.186 71.4995 134.981 71.4995ZM155.3 60.6338L152.209 60.971C152.122 60.6588 151.969 60.3653 151.75 60.0905C151.538 59.8157 151.251 59.594 150.888 59.4254C150.526 59.2568 150.083 59.1725 149.558 59.1725C148.853 59.1725 148.259 59.3255 147.779 59.6315C147.304 59.9375 147.07 60.334 147.076 60.8211C147.07 61.2395 147.223 61.5798 147.535 61.8421C147.853 62.1044 148.378 62.3198 149.109 62.4884L151.563 63.013C152.924 63.3065 153.936 63.7717 154.598 64.4087C155.266 65.0456 155.603 65.8793 155.609 66.9096C155.603 67.8151 155.338 68.6144 154.813 69.3076C154.295 69.9945 153.574 70.5315 152.649 70.9187C151.725 71.3059 150.664 71.4995 149.465 71.4995C147.704 71.4995 146.286 71.131 145.212 70.3942C144.138 69.651 143.498 68.6176 143.292 67.2937L146.598 66.9752C146.748 67.6247 147.067 68.1149 147.554 68.4458C148.041 68.7768 148.675 68.9423 149.455 68.9423C150.261 68.9423 150.907 68.7768 151.394 68.4458C151.888 68.1149 152.134 67.7058 152.134 67.2188C152.134 66.8066 151.975 66.4663 151.656 66.1978C151.344 65.9292 150.857 65.7232 150.195 65.5795L147.741 65.0644C146.361 64.7771 145.34 64.2931 144.678 63.6125C144.016 62.9256 143.688 62.0576 143.695 61.0085C143.688 60.1217 143.929 59.3536 144.416 58.7042C144.909 58.0485 145.593 57.5427 146.467 57.1867C147.348 56.8246 148.362 56.6435 149.511 56.6435C151.197 56.6435 152.524 57.0025 153.492 57.7207C154.467 58.4388 155.069 59.4098 155.3 60.6338Z" fill="#141D40"/>
<path d="M542.198 69.1025V66.9508L547.906 61.3547C548.452 60.8034 548.907 60.3137 549.271 59.8855C549.635 59.4572 549.908 59.0424 550.09 58.641C550.272 58.2395 550.363 57.8113 550.363 57.3564C550.363 56.8372 550.245 56.3929 550.01 56.0236C549.774 55.6489 549.45 55.3599 549.038 55.1565C548.626 54.9531 548.158 54.8514 547.633 54.8514C547.092 54.8514 546.619 54.9638 546.212 55.1886C545.805 55.408 545.489 55.7212 545.265 56.128C545.045 56.5348 544.935 57.0192 544.935 57.5812H542.101C542.101 56.5374 542.339 55.6302 542.816 54.8594C543.292 54.0886 543.948 53.4918 544.783 53.069C545.623 52.6461 546.587 52.4347 547.673 52.4347C548.776 52.4347 549.745 52.6408 550.58 53.0529C551.415 53.4651 552.062 54.0298 552.523 54.747C552.988 55.4642 553.221 56.2832 553.221 57.2038C553.221 57.8194 553.103 58.4242 552.868 59.0183C552.632 59.6125 552.218 60.2708 551.623 60.9934C551.035 61.716 550.208 62.5912 549.143 63.6189L546.308 66.5012V66.6136H553.47V69.1025H542.198ZM562.318 69.4157C560.996 69.4157 559.861 69.0811 558.914 68.4121C557.972 67.7376 557.246 66.7662 556.738 65.4976C556.235 64.2237 555.983 62.6902 555.983 60.8971C555.988 59.104 556.243 57.5785 556.746 56.3207C557.254 55.0575 557.98 54.094 558.922 53.4303C559.869 52.7666 561.001 52.4347 562.318 52.4347C563.635 52.4347 564.767 52.7666 565.714 53.4303C566.661 54.094 567.387 55.0575 567.89 56.3207C568.398 57.5839 568.653 59.1093 568.653 60.8971C568.653 62.6955 568.398 64.2317 567.89 65.5056C567.387 66.7742 566.661 67.743 565.714 68.4121C564.772 69.0811 563.64 69.4157 562.318 69.4157ZM562.318 66.9026C563.345 66.9026 564.156 66.3968 564.751 65.3852C565.35 64.3682 565.65 62.8722 565.65 60.8971C565.65 59.5911 565.513 58.4938 565.24 57.6053C564.967 56.7167 564.582 56.0477 564.084 55.5981C563.586 55.1431 562.998 54.9156 562.318 54.9156C561.295 54.9156 560.487 55.4241 559.893 56.4411C559.299 57.4527 558.999 58.938 558.994 60.8971C558.989 62.2085 559.12 63.3111 559.387 64.205C559.66 65.0988 560.046 65.7733 560.543 66.2282C561.041 66.6778 561.633 66.9026 562.318 66.9026ZM571.32 69.1025V66.9508L577.029 61.3547C577.575 60.8034 578.03 60.3137 578.394 59.8855C578.757 59.4572 579.03 59.0424 579.212 58.641C579.394 58.2395 579.485 57.8113 579.485 57.3564C579.485 56.8372 579.368 56.3929 579.132 56.0236C578.897 55.6489 578.573 55.3599 578.161 55.1565C577.749 54.9531 577.28 54.8514 576.756 54.8514C576.215 54.8514 575.741 54.9638 575.335 55.1886C574.928 55.408 574.612 55.7212 574.387 56.128C574.168 56.5348 574.058 57.0192 574.058 57.5812H571.224C571.224 56.5374 571.462 55.6302 571.938 54.8594C572.415 54.0886 573.07 53.4918 573.905 53.069C574.746 52.6461 575.709 52.4347 576.796 52.4347C577.898 52.4347 578.867 52.6408 579.702 53.0529C580.537 53.4651 581.185 54.0298 581.645 54.747C582.111 55.4642 582.344 56.2832 582.344 57.2038C582.344 57.8194 582.226 58.4242 581.99 59.0183C581.755 59.6125 581.34 60.2708 580.746 60.9934C580.157 61.716 579.33 62.5912 578.265 63.6189L575.431 66.5012V66.6136H582.593V69.1025H571.32ZM584.712 66.0516V63.6831L591.689 52.6595H593.664V56.0316H592.46L587.763 63.4743V63.6028H597.502V66.0516H584.712ZM592.556 69.1025V65.329L592.588 64.2692V52.6595H595.399V69.1025H592.556ZM607.574 59.6847V62.0773H600.172V59.6847H607.574ZM610.025 69.1025V66.9508L615.734 61.3547C616.28 60.8034 616.734 60.3137 617.098 59.8855C617.462 59.4572 617.735 59.0424 617.917 58.641C618.099 58.2395 618.19 57.8113 618.19 57.3564C618.19 56.8372 618.073 56.3929 617.837 56.0236C617.602 55.6489 617.278 55.3599 616.866 55.1565C616.453 54.9531 615.985 54.8514 615.461 54.8514C614.92 54.8514 614.446 54.9638 614.039 55.1886C613.633 55.408 613.317 55.7212 613.092 56.128C612.873 56.5348 612.763 57.0192 612.763 57.5812H609.929C609.929 56.5374 610.167 55.6302 610.643 54.8594C611.12 54.0886 611.775 53.4918 612.61 53.069C613.451 52.6461 614.414 52.4347 615.501 52.4347C616.603 52.4347 617.572 52.6408 618.407 53.0529C619.242 53.4651 619.89 54.0298 620.35 54.747C620.816 55.4642 621.049 56.2832 621.049 57.2038C621.049 57.8194 620.931 58.4242 620.695 59.0183C620.46 59.6125 620.045 60.2708 619.451 60.9934C618.862 61.716 618.035 62.5912 616.97 63.6189L614.136 66.5012V66.6136H621.298V69.1025H610.025ZM630.145 69.4157C628.823 69.4157 627.688 69.0811 626.741 68.4121C625.799 67.7376 625.074 66.7662 624.565 65.4976C624.062 64.2237 623.811 62.6902 623.811 60.8971C623.816 59.104 624.07 57.5785 624.573 56.3207C625.082 55.0575 625.807 54.094 626.749 53.4303C627.697 52.7666 628.829 52.4347 630.145 52.4347C631.462 52.4347 632.594 52.7666 633.541 53.4303C634.489 54.094 635.214 55.0575 635.717 56.3207C636.226 57.5839 636.48 59.1093 636.48 60.8971C636.48 62.6955 636.226 64.2317 635.717 65.5056C635.214 66.7742 634.489 67.743 633.541 68.4121C632.599 69.0811 631.467 69.4157 630.145 69.4157ZM630.145 66.9026C631.173 66.9026 631.984 66.3968 632.578 65.3852C633.178 64.3682 633.477 62.8722 633.477 60.8971C633.477 59.5911 633.341 58.4938 633.068 57.6053C632.795 56.7167 632.409 56.0477 631.912 55.5981C631.414 55.1431 630.825 54.9156 630.145 54.9156C629.123 54.9156 628.315 55.4241 627.721 56.4411C627.126 57.4527 626.827 58.938 626.821 60.8971C626.816 62.2085 626.947 63.3111 627.215 64.205C627.488 65.0988 627.873 65.7733 628.371 66.2282C628.869 66.6778 629.46 66.9026 630.145 66.9026ZM639.148 69.1025V66.9508L644.856 61.3547C645.402 60.8034 645.857 60.3137 646.221 59.8855C646.585 59.4572 646.858 59.0424 647.04 58.641C647.222 58.2395 647.313 57.8113 647.313 57.3564C647.313 56.8372 647.195 56.3929 646.96 56.0236C646.724 55.6489 646.4 55.3599 645.988 55.1565C645.576 54.9531 645.108 54.8514 644.583 54.8514C644.043 54.8514 643.569 54.9638 643.162 55.1886C642.755 55.408 642.439 55.7212 642.215 56.128C641.995 56.5348 641.885 57.0192 641.885 57.5812H639.051C639.051 56.5374 639.289 55.6302 639.766 54.8594C640.242 54.0886 640.898 53.4918 641.733 53.069C642.573 52.6461 643.537 52.4347 644.623 52.4347C645.726 52.4347 646.695 52.6408 647.53 53.0529C648.365 53.4651 649.012 54.0298 649.473 54.747C649.938 55.4642 650.171 56.2832 650.171 57.2038C650.171 57.8194 650.053 58.4242 649.818 59.0183C649.582 59.6125 649.168 60.2708 648.573 60.9934C647.985 61.716 647.158 62.5912 646.093 63.6189L643.258 66.5012V66.6136H650.42V69.1025H639.148ZM658.907 69.3273C657.836 69.3273 656.878 69.1266 656.032 68.7252C655.187 68.3184 654.515 67.7617 654.017 67.0552C653.525 66.3487 653.262 65.5404 653.23 64.6305H656.121C656.174 65.3049 656.466 65.8562 656.996 66.2844C657.526 66.7073 658.163 66.9187 658.907 66.9187C659.49 66.9187 660.009 66.7849 660.464 66.5173C660.919 66.2496 661.278 65.8776 661.54 65.4013C661.802 64.9249 661.931 64.3816 661.925 63.7714C661.931 63.1505 661.8 62.5992 661.532 62.1175C661.264 61.6357 660.898 61.2584 660.432 60.9854C659.966 60.7071 659.431 60.5679 658.826 60.5679C658.334 60.5625 657.849 60.6535 657.373 60.8409C656.897 61.0282 656.519 61.2744 656.241 61.5795L653.551 61.1379L654.41 52.6595H663.949V55.1484H656.875L656.402 59.5081H656.498C656.803 59.1495 657.234 58.8524 657.791 58.6169C658.347 58.376 658.957 58.2556 659.621 58.2556C660.617 58.2556 661.505 58.4911 662.287 58.9621C663.068 59.4278 663.684 60.0701 664.133 60.8891C664.583 61.708 664.808 62.6447 664.808 63.6991C664.808 64.7857 664.556 65.7545 664.053 66.6056C663.555 67.4513 662.862 68.1177 661.974 68.6048C661.09 69.0865 660.068 69.3273 658.907 69.3273Z" fill="#141D40"/>
<path opacity="0.9" d="M57.6915 382.378H59.9824V390.021C59.9824 390.728 59.8236 391.341 59.506 391.862C59.192 392.383 58.7548 392.785 58.1946 393.067C57.6344 393.349 56.9832 393.49 56.2409 393.49C55.5808 393.49 54.9813 393.374 54.4425 393.142C53.9072 392.906 53.4826 392.549 53.1686 392.071C52.8546 391.589 52.6993 390.985 52.7029 390.257H55.0098C55.017 390.546 55.0759 390.794 55.1865 391.001C55.3007 391.204 55.4559 391.361 55.6522 391.472C55.852 391.579 56.0875 391.632 56.3587 391.632C56.6442 391.632 56.885 391.572 57.0813 391.45C57.2811 391.325 57.4328 391.143 57.5362 390.904C57.6397 390.665 57.6915 390.371 57.6915 390.021V382.378ZM63.788 393.34H61.3044L65.0887 382.378H68.0754L71.8543 393.34H69.3707L66.6249 384.883H66.5392L63.788 393.34ZM63.6328 389.031H69.4992V390.84H63.6328V389.031ZM82.3426 382.378V393.34H80.3408L75.5717 386.44H75.4914V393.34H73.1737V382.378H75.2077L79.9393 389.272H80.0357V382.378H82.3426Z" fill="#141D40"/>
<path opacity="0.9" d="M105.645 393.34V382.378H112.903V384.289H107.963V386.901H112.421V388.811H107.963V393.34H105.645ZM114.462 393.34V382.378H121.849V384.289H116.78V386.901H121.469V388.811H116.78V391.429H121.87V393.34H114.462ZM123.691 393.34V382.378H128.08C128.887 382.378 129.559 382.497 130.098 382.736C130.637 382.975 131.042 383.307 131.313 383.732C131.584 384.153 131.72 384.638 131.72 385.188C131.72 385.616 131.634 385.992 131.463 386.317C131.292 386.638 131.056 386.902 130.757 387.109C130.46 387.313 130.121 387.457 129.74 387.543V387.65C130.157 387.668 130.548 387.786 130.912 388.003C131.279 388.221 131.577 388.526 131.806 388.919C132.034 389.307 132.148 389.771 132.148 390.31C132.148 390.892 132.004 391.411 131.715 391.868C131.429 392.321 131.006 392.68 130.446 392.944C129.886 393.208 129.195 393.34 128.375 393.34H123.691ZM126.009 391.445H127.898C128.544 391.445 129.015 391.322 129.311 391.076C129.608 390.826 129.756 390.494 129.756 390.08C129.756 389.777 129.683 389.509 129.536 389.277C129.39 389.045 129.181 388.863 128.91 388.731C128.642 388.599 128.323 388.533 127.952 388.533H126.009V391.445ZM126.009 386.965H127.727C128.045 386.965 128.327 386.91 128.573 386.799C128.823 386.685 129.019 386.524 129.162 386.317C129.308 386.11 129.381 385.862 129.381 385.573C129.381 385.177 129.24 384.858 128.958 384.615C128.68 384.372 128.284 384.251 127.77 384.251H126.009V386.965Z" fill="#141D40"/>
<path opacity="0.9" d="M155.868 382.378H158.726L161.745 389.743H161.873L164.892 382.378H167.751V393.34H165.502V386.205H165.411L162.575 393.286H161.044L158.207 386.178H158.116V393.34H155.868V382.378ZM171.55 393.34H169.066L172.85 382.378H175.837L179.616 393.34H177.132L174.386 384.883H174.301L171.55 393.34ZM171.394 389.031H177.261V390.84H171.394V389.031ZM180.935 393.34V382.378H185.26C186.088 382.378 186.794 382.526 187.38 382.822C187.968 383.115 188.416 383.53 188.723 384.069C189.034 384.604 189.189 385.234 189.189 385.959C189.189 386.687 189.032 387.313 188.718 387.837C188.404 388.358 187.949 388.758 187.353 389.036C186.761 389.315 186.043 389.454 185.201 389.454H182.305V387.591H184.827C185.269 387.591 185.637 387.53 185.929 387.409C186.222 387.288 186.439 387.106 186.582 386.863C186.728 386.62 186.802 386.319 186.802 385.959C186.802 385.595 186.728 385.288 186.582 385.038C186.439 384.788 186.22 384.599 185.924 384.471C185.631 384.339 185.262 384.273 184.816 384.273H183.253V393.34H180.935ZM186.855 388.351L189.58 393.34H187.021L184.355 388.351H186.855Z" fill="#141D40"/>
<path opacity="0.9" d="M213.471 393.34H210.987L214.772 382.378H217.758L221.537 393.34H219.054L216.308 384.883H216.222L213.471 393.34ZM213.316 389.031H219.182V390.84H213.316V389.031ZM222.857 393.34V382.378H227.181C228.013 382.378 228.721 382.536 229.306 382.854C229.892 383.168 230.338 383.605 230.645 384.165C230.955 384.722 231.11 385.364 231.11 386.092C231.11 386.82 230.953 387.463 230.639 388.019C230.325 388.576 229.87 389.01 229.274 389.32C228.682 389.63 227.965 389.786 227.123 389.786H224.366V387.928H226.748C227.194 387.928 227.561 387.852 227.851 387.698C228.143 387.541 228.361 387.325 228.504 387.05C228.65 386.772 228.723 386.453 228.723 386.092C228.723 385.728 228.65 385.411 228.504 385.14C228.361 384.865 228.143 384.653 227.851 384.503C227.558 384.349 227.187 384.273 226.737 384.273H225.174V393.34H222.857ZM232.616 393.34V382.378H236.94C237.768 382.378 238.475 382.526 239.06 382.822C239.649 383.115 240.097 383.53 240.404 384.069C240.714 384.604 240.869 385.234 240.869 385.959C240.869 386.687 240.712 387.313 240.398 387.837C240.084 388.358 239.629 388.758 239.033 389.036C238.441 389.315 237.724 389.454 236.882 389.454H233.986V387.591H236.507C236.949 387.591 237.317 387.53 237.61 387.409C237.902 387.288 238.12 387.106 238.263 386.863C238.409 386.62 238.482 386.319 238.482 385.959C238.482 385.595 238.409 385.288 238.263 385.038C238.12 384.788 237.9 384.599 237.604 384.471C237.312 384.339 236.942 384.273 236.496 384.273H234.933V393.34H232.616ZM238.536 388.351L241.26 393.34H238.701L236.036 388.351H238.536Z" fill="#141D40"/>
<path opacity="0.9" d="M262.364 382.378H265.222L268.241 389.743H268.369L271.388 382.378H274.246V393.34H271.998V386.205H271.907L269.07 393.286H267.539L264.703 386.178H264.612V393.34H262.364V382.378ZM278.045 393.34H275.562L279.346 382.378H282.333L286.111 393.34H283.628L280.882 384.883H280.796L278.045 393.34ZM277.89 389.031H283.756V390.84H277.89V389.031ZM285.67 382.378H288.266L290.766 387.099H290.873L293.372 382.378H295.968L291.97 389.464V393.34H289.668V389.464L285.67 382.378Z" fill="#141D40"/>
<path opacity="0.9" d="M323.489 382.378H325.779V390.021C325.779 390.728 325.621 391.341 325.303 391.862C324.989 392.383 324.552 392.785 323.992 393.067C323.431 393.349 322.78 393.49 322.038 393.49C321.378 393.49 320.778 393.374 320.24 393.142C319.704 392.906 319.28 392.549 318.966 392.071C318.652 391.589 318.496 390.985 318.5 390.257H320.807C320.814 390.546 320.873 390.794 320.984 391.001C321.098 391.204 321.253 391.361 321.449 391.472C321.649 391.579 321.885 391.632 322.156 391.632C322.441 391.632 322.682 391.572 322.878 391.45C323.078 391.325 323.23 391.143 323.333 390.904C323.437 390.665 323.489 390.371 323.489 390.021V382.378ZM334.467 382.378H336.784V389.497C336.784 390.296 336.593 390.995 336.212 391.595C335.833 392.194 335.303 392.662 334.622 392.997C333.94 393.329 333.146 393.495 332.24 393.495C331.33 393.495 330.534 393.329 329.853 392.997C329.171 392.662 328.641 392.194 328.263 391.595C327.885 390.995 327.696 390.296 327.696 389.497V382.378H330.013V389.299C330.013 389.716 330.104 390.087 330.286 390.412C330.472 390.737 330.732 390.992 331.068 391.177C331.403 391.363 331.794 391.456 332.24 391.456C332.69 391.456 333.08 391.363 333.412 391.177C333.748 390.992 334.006 390.737 334.188 390.412C334.374 390.087 334.467 389.716 334.467 389.299V382.378ZM347.86 382.378V393.34H345.858L341.089 386.44H341.009V393.34H338.691V382.378H340.725L345.457 389.272H345.553V382.378H347.86Z" fill="#141D40"/>
<path opacity="0.9" d="M375.625 382.378H377.916V390.021C377.916 390.728 377.757 391.341 377.44 391.862C377.126 392.383 376.689 392.785 376.128 393.067C375.568 393.349 374.917 393.49 374.175 393.49C373.515 393.49 372.915 393.374 372.376 393.142C371.841 392.906 371.416 392.549 371.102 392.071C370.788 391.589 370.633 390.985 370.637 390.257H372.944C372.951 390.546 373.01 390.794 373.12 391.001C373.234 391.204 373.39 391.361 373.586 391.472C373.786 391.579 374.021 391.632 374.292 391.632C374.578 391.632 374.819 391.572 375.015 391.45C375.215 391.325 375.366 391.143 375.47 390.904C375.573 390.665 375.625 390.371 375.625 390.021V382.378ZM386.603 382.378H388.921V389.497C388.921 390.296 388.73 390.995 388.348 391.595C387.97 392.194 387.44 392.662 386.758 392.997C386.077 393.329 385.283 393.495 384.377 393.495C383.467 393.495 382.671 393.329 381.989 392.997C381.308 392.662 380.778 392.194 380.4 391.595C380.021 390.995 379.832 390.296 379.832 389.497V382.378H382.15V389.299C382.15 389.716 382.241 390.087 382.423 390.412C382.608 390.737 382.869 390.992 383.204 391.177C383.54 391.363 383.931 391.456 384.377 391.456C384.826 391.456 385.217 391.363 385.549 391.177C385.884 390.992 386.143 390.737 386.325 390.412C386.51 390.087 386.603 389.716 386.603 389.299V382.378ZM390.828 393.34V382.378H393.145V391.429H397.845V393.34H390.828Z" fill="#141D40"/>
<path opacity="0.9" d="M419.315 393.34H416.832L420.616 382.378H423.603L427.381 393.34H424.898L422.152 384.883H422.066L419.315 393.34ZM419.16 389.031H425.026V390.84H419.16V389.031ZM435.472 382.378H437.79V389.497C437.79 390.296 437.599 390.995 437.217 391.595C436.839 392.194 436.309 392.662 435.627 392.997C434.946 393.329 434.152 393.495 433.245 393.495C432.335 393.495 431.54 393.329 430.858 392.997C430.176 392.662 429.646 392.194 429.268 391.595C428.89 390.995 428.701 390.296 428.701 389.497V382.378H431.019V389.299C431.019 389.716 431.11 390.087 431.292 390.412C431.477 390.737 431.738 390.992 432.073 391.177C432.408 391.363 432.799 391.456 433.245 391.456C433.695 391.456 434.086 391.363 434.417 391.177C434.753 390.992 435.012 390.737 435.194 390.412C435.379 390.087 435.472 389.716 435.472 389.299V382.378ZM446.965 385.921C446.89 385.661 446.785 385.43 446.649 385.231C446.514 385.027 446.348 384.856 446.152 384.717C445.959 384.574 445.738 384.465 445.488 384.39C445.242 384.315 444.969 384.278 444.669 384.278C444.109 384.278 443.616 384.417 443.192 384.695C442.77 384.974 442.442 385.379 442.207 385.91C441.971 386.439 441.853 387.084 441.853 387.848C441.853 388.612 441.969 389.261 442.201 389.796C442.433 390.332 442.762 390.74 443.186 391.022C443.611 391.3 444.112 391.44 444.69 391.44C445.215 391.44 445.663 391.347 446.034 391.161C446.408 390.972 446.694 390.706 446.89 390.364C447.09 390.021 447.19 389.616 447.19 389.149L447.661 389.218H444.835V387.473H449.422V388.854C449.422 389.818 449.219 390.646 448.812 391.338C448.405 392.027 447.845 392.558 447.131 392.933C446.417 393.304 445.6 393.49 444.68 393.49C443.652 393.49 442.749 393.263 441.971 392.81C441.193 392.353 440.587 391.705 440.151 390.867C439.72 390.025 439.504 389.026 439.504 387.869C439.504 386.981 439.632 386.189 439.889 385.493C440.15 384.793 440.514 384.201 440.981 383.716C441.448 383.231 441.993 382.861 442.613 382.608C443.234 382.355 443.907 382.228 444.631 382.228C445.252 382.228 445.83 382.319 446.366 382.501C446.901 382.679 447.375 382.933 447.789 383.261C448.207 383.589 448.548 383.98 448.812 384.433C449.076 384.883 449.245 385.379 449.32 385.921H446.965Z" fill="#141D40"/>
<path opacity="0.9" d="M474.796 385.53C474.753 385.099 474.569 384.763 474.244 384.524C473.92 384.285 473.479 384.165 472.922 384.165C472.544 384.165 472.225 384.219 471.964 384.326C471.704 384.43 471.504 384.574 471.365 384.76C471.229 384.945 471.161 385.156 471.161 385.391C471.154 385.587 471.195 385.759 471.285 385.905C471.377 386.051 471.504 386.178 471.665 386.285C471.825 386.389 472.011 386.48 472.221 386.558C472.432 386.633 472.657 386.697 472.896 386.751L473.881 386.986C474.359 387.093 474.798 387.236 475.197 387.414C475.597 387.593 475.943 387.812 476.236 388.073C476.528 388.333 476.755 388.64 476.915 388.993C477.08 389.347 477.163 389.752 477.167 390.208C477.163 390.879 476.992 391.461 476.653 391.953C476.318 392.442 475.832 392.822 475.197 393.094C474.566 393.361 473.804 393.495 472.912 393.495C472.027 393.495 471.256 393.359 470.599 393.088C469.946 392.817 469.436 392.416 469.069 391.884C468.705 391.349 468.514 390.687 468.496 389.898H470.739C470.764 390.266 470.869 390.572 471.054 390.819C471.243 391.061 471.495 391.245 471.809 391.37C472.127 391.491 472.485 391.552 472.885 391.552C473.277 391.552 473.618 391.495 473.907 391.381C474.2 391.267 474.426 391.108 474.587 390.904C474.748 390.701 474.828 390.467 474.828 390.203C474.828 389.957 474.755 389.75 474.608 389.582C474.466 389.415 474.255 389.272 473.977 389.154C473.702 389.036 473.365 388.929 472.965 388.833L471.772 388.533C470.847 388.308 470.118 387.957 469.582 387.479C469.047 387.001 468.781 386.356 468.785 385.546C468.781 384.883 468.958 384.303 469.315 383.807C469.675 383.311 470.169 382.924 470.797 382.645C471.425 382.367 472.139 382.228 472.938 382.228C473.752 382.228 474.462 382.367 475.069 382.645C475.679 382.924 476.154 383.311 476.493 383.807C476.832 384.303 477.006 384.877 477.017 385.53H474.796ZM478.726 393.34V382.378H486.112V384.289H481.044V386.901H485.732V388.811H481.044V391.429H486.134V393.34H478.726ZM487.955 393.34V382.378H492.28C493.111 382.378 493.82 382.536 494.405 382.854C494.99 383.168 495.436 383.605 495.743 384.165C496.053 384.722 496.209 385.364 496.209 386.092C496.209 386.82 496.052 387.463 495.738 388.019C495.424 388.576 494.969 389.01 494.373 389.32C493.78 389.63 493.063 389.786 492.221 389.786H489.464V387.928H491.846C492.292 387.928 492.66 387.852 492.949 387.698C493.242 387.541 493.459 387.325 493.602 387.05C493.748 386.772 493.821 386.453 493.821 386.092C493.821 385.728 493.748 385.411 493.602 385.14C493.459 384.865 493.242 384.653 492.949 384.503C492.656 384.349 492.285 384.273 491.836 384.273H490.273V393.34H487.955Z" fill="#141D40"/>
<path opacity="0.9" d="M525.745 387.859C525.745 389.054 525.519 390.071 525.065 390.91C524.616 391.748 524.002 392.389 523.224 392.831C522.45 393.27 521.579 393.49 520.612 393.49C519.638 393.49 518.764 393.268 517.989 392.826C517.215 392.383 516.603 391.743 516.153 390.904C515.704 390.066 515.479 389.051 515.479 387.859C515.479 386.663 515.704 385.646 516.153 384.808C516.603 383.969 517.215 383.33 517.989 382.892C518.764 382.449 519.638 382.228 520.612 382.228C521.579 382.228 522.45 382.449 523.224 382.892C524.002 383.33 524.616 383.969 525.065 384.808C525.519 385.646 525.745 386.663 525.745 387.859ZM523.395 387.859C523.395 387.084 523.279 386.431 523.047 385.9C522.819 385.368 522.496 384.965 522.079 384.69C521.661 384.415 521.172 384.278 520.612 384.278C520.052 384.278 519.563 384.415 519.145 384.69C518.728 384.965 518.403 385.368 518.171 385.9C517.943 386.431 517.829 387.084 517.829 387.859C517.829 388.633 517.943 389.286 518.171 389.818C518.403 390.349 518.728 390.753 519.145 391.027C519.563 391.302 520.052 391.44 520.612 391.44C521.172 391.44 521.661 391.302 522.079 391.027C522.496 390.753 522.819 390.349 523.047 389.818C523.279 389.286 523.395 388.633 523.395 387.859ZM537.134 386.215H534.79C534.747 385.912 534.659 385.643 534.527 385.407C534.395 385.168 534.226 384.965 534.019 384.797C533.812 384.629 533.573 384.501 533.302 384.412C533.034 384.322 532.743 384.278 532.429 384.278C531.862 384.278 531.368 384.419 530.947 384.701C530.525 384.979 530.199 385.386 529.967 385.921C529.735 386.453 529.619 387.099 529.619 387.859C529.619 388.64 529.735 389.297 529.967 389.828C530.203 390.36 530.531 390.762 530.952 391.033C531.373 391.304 531.86 391.44 532.413 391.44C532.724 391.44 533.011 391.399 533.275 391.316C533.542 391.234 533.78 391.115 533.987 390.958C534.194 390.797 534.365 390.603 534.501 390.374C534.64 390.146 534.736 389.886 534.79 389.593L537.134 389.604C537.073 390.107 536.922 390.592 536.679 391.06C536.44 391.523 536.117 391.939 535.71 392.307C535.307 392.671 534.825 392.96 534.265 393.174C533.708 393.384 533.079 393.49 532.376 393.49C531.398 393.49 530.524 393.268 529.753 392.826C528.986 392.383 528.379 391.743 527.933 390.904C527.491 390.066 527.269 389.051 527.269 387.859C527.269 386.663 527.494 385.646 527.944 384.808C528.393 383.969 529.004 383.33 529.774 382.892C530.545 382.449 531.412 382.228 532.376 382.228C533.011 382.228 533.6 382.317 534.142 382.495C534.688 382.674 535.171 382.934 535.593 383.277C536.014 383.616 536.356 384.032 536.62 384.524C536.888 385.017 537.059 385.58 537.134 386.215ZM538.379 384.289V382.378H547.382V384.289H544.025V393.34H541.735V384.289H538.379Z" fill="#141D40"/>
<path opacity="0.9" d="M573.658 382.378V393.34H571.656L566.887 386.44H566.806V393.34H564.489V382.378H566.523L571.254 389.272H571.351V382.378H573.658ZM585.646 387.859C585.646 389.054 585.419 390.071 584.966 390.91C584.517 391.748 583.903 392.389 583.125 392.831C582.351 393.27 581.48 393.49 580.513 393.49C579.539 393.49 578.665 393.268 577.89 392.826C577.116 392.383 576.504 391.743 576.054 390.904C575.605 390.066 575.38 389.051 575.38 387.859C575.38 386.663 575.605 385.646 576.054 384.808C576.504 383.969 577.116 383.33 577.89 382.892C578.665 382.449 579.539 382.228 580.513 382.228C581.48 382.228 582.351 382.449 583.125 382.892C583.903 383.33 584.517 383.969 584.966 384.808C585.419 385.646 585.646 386.663 585.646 387.859ZM583.296 387.859C583.296 387.084 583.18 386.431 582.948 385.9C582.72 385.368 582.397 384.965 581.98 384.69C581.562 384.415 581.073 384.278 580.513 384.278C579.953 384.278 579.464 384.415 579.046 384.69C578.629 384.965 578.304 385.368 578.072 385.9C577.844 386.431 577.73 387.084 577.73 387.859C577.73 388.633 577.844 389.286 578.072 389.818C578.304 390.349 578.629 390.753 579.046 391.027C579.464 391.302 579.953 391.44 580.513 391.44C581.073 391.44 581.562 391.302 581.98 391.027C582.397 390.753 582.72 390.349 582.948 389.818C583.18 389.286 583.296 388.633 583.296 387.859ZM588.725 382.378L591.375 390.706H591.476L594.131 382.378H596.7L592.921 393.34H589.935L586.15 382.378H588.725Z" fill="#141D40"/>
<path opacity="0.9" d="M618.362 393.34H614.476V382.378H618.394C619.497 382.378 620.446 382.597 621.242 383.036C622.037 383.471 622.649 384.098 623.078 384.915C623.509 385.732 623.725 386.71 623.725 387.848C623.725 388.99 623.509 389.971 623.078 390.792C622.649 391.613 622.034 392.242 621.231 392.681C620.432 393.12 619.475 393.34 618.362 393.34ZM616.794 391.354H618.266C618.951 391.354 619.527 391.233 619.994 390.99C620.465 390.744 620.819 390.364 621.054 389.85C621.293 389.332 621.413 388.665 621.413 387.848C621.413 387.038 621.293 386.376 621.054 385.862C620.819 385.348 620.467 384.97 620 384.727C619.532 384.485 618.956 384.363 618.271 384.363H616.794V391.354ZM625.442 393.34V382.378H632.829V384.289H627.76V386.901H632.449V388.811H627.76V391.429H632.85V393.34H625.442ZM644.343 386.215H641.999C641.956 385.912 641.869 385.643 641.737 385.407C641.604 385.168 641.435 384.965 641.228 384.797C641.021 384.629 640.782 384.501 640.511 384.412C640.243 384.322 639.952 384.278 639.638 384.278C639.071 384.278 638.577 384.419 638.156 384.701C637.735 384.979 637.408 385.386 637.176 385.921C636.944 386.453 636.828 387.099 636.828 387.859C636.828 388.64 636.944 389.297 637.176 389.828C637.412 390.36 637.74 390.762 638.161 391.033C638.582 391.304 639.069 391.44 639.622 391.44C639.933 391.44 640.22 391.399 640.484 391.316C640.752 391.234 640.989 391.115 641.196 390.958C641.403 390.797 641.574 390.603 641.71 390.374C641.849 390.146 641.945 389.886 641.999 389.593L644.343 389.604C644.283 390.107 644.131 390.592 643.888 391.06C643.649 391.523 643.326 391.939 642.919 392.307C642.516 392.671 642.034 392.96 641.474 393.174C640.918 393.384 640.288 393.49 639.585 393.49C638.607 393.49 637.733 393.268 636.962 392.826C636.195 392.383 635.588 391.743 635.142 390.904C634.7 390.066 634.478 389.051 634.478 387.859C634.478 386.663 634.703 385.646 635.153 384.808C635.602 383.969 636.213 383.33 636.983 382.892C637.754 382.449 638.621 382.228 639.585 382.228C640.22 382.228 640.809 382.317 641.351 382.495C641.897 382.674 642.381 382.934 642.802 383.277C643.223 383.616 643.565 384.032 643.829 384.524C644.097 385.017 644.268 385.58 644.343 386.215Z" fill="#141D40"/>
<path d="M37.6816 325.744L61.4595 302.006C75.3676 288.122 97.6816 287.466 112.381 300.51V300.51C127.98 314.353 151.913 312.651 165.397 296.741L176.378 283.785C193.462 263.625 222.664 258.871 245.262 272.569L253.053 277.292L261.619 284.308C291.352 308.663 333.841 309.669 364.693 286.748V286.748C373.105 280.499 380.269 272.728 385.815 263.839L428.99 194.638L436.615 183.175C456.232 153.684 497.898 149.45 523.047 174.392V174.392C527.054 178.366 530.44 182.921 533.092 187.903L539.597 200.129C560.286 239.006 612.266 247.595 644.361 217.439V217.439" stroke="url(#paint0_linear_1321_282)" stroke-width="7.53639"/>
<path d="M37.6816 212.962L70.0646 250.493C74.6193 255.772 77.7143 262.15 79.0422 268.994L84.2834 296.009C88.6262 318.393 117.053 325.635 131.576 308.057V308.057C142.461 294.884 162.693 295.016 173.404 308.331L180.646 317.332C195.095 335.293 222.39 335.471 237.073 317.7L262.28 287.191C264.836 284.098 267.658 281.234 270.714 278.633L306.231 248.409C320.758 236.046 333.324 221.549 343.498 205.414L376.127 153.665C379.406 148.465 383.713 143.989 388.783 140.512V140.512C413.193 123.771 446.839 134.653 456.822 162.518L470.736 201.355C473.491 209.044 477.452 216.246 482.471 222.69L522.899 274.594C533.064 287.644 546.587 297.684 562.02 303.637V303.637C582.883 311.685 605.975 311.788 626.907 303.925L651.897 294.538" stroke="#0B8AFF" stroke-width="7.53639"/>
<circle cx="414.502" cy="122.466" r="11.3046" fill="#0B8AFF"/>
<defs>
<linearGradient id="paint0_linear_1321_282" x1="641.117" y1="127.078" x2="300.972" y2="541.726" gradientUnits="userSpaceOnUse">
<stop stop-color="#2B43E3"/>
<stop offset="0.995876" stop-color="#202ED0"/>
</linearGradient>
</defs>
</svg>
