<svg width="695" height="328" viewBox="0 0 695 328" fill="none" xmlns="http://www.w3.org/2000/svg">
<g clip-path="url(#clip0_1347_144)">
<rect width="695" height="327.432" transform="translate(0 0.111328)" fill="white"/>
<rect y="0.111328" width="276.548" height="327.432" fill="#0B8AFF"/>
<path d="M642.258 51.8858L643.229 42.3618H653.015V44.6051H645.289L644.711 49.8131C645.647 49.2621 646.71 48.9866 647.899 48.9866C649.64 48.9866 651.021 49.5638 652.045 50.7182C653.068 51.8639 653.579 53.4163 653.579 55.3753C653.579 57.343 653.046 58.8954 651.979 60.0323C650.921 61.1605 649.438 61.7245 647.532 61.7245C645.844 61.7245 644.467 61.2567 643.4 60.3209C642.333 59.3851 641.725 58.0908 641.576 56.4378H643.872C644.021 57.531 644.41 58.3575 645.039 58.9172C645.669 59.4682 646.5 59.7437 647.532 59.7437C648.66 59.7437 649.543 59.3589 650.182 58.5893C650.829 57.8197 651.153 56.7571 651.153 55.4015C651.153 54.1246 650.803 53.1014 650.103 52.3318C649.412 51.5534 648.49 51.1643 647.335 51.1643C646.277 51.1643 645.446 51.396 644.843 51.8595L644.2 52.3843L642.258 51.8858Z" fill="#141D40"/>
<path d="M600.683 55.0473H603.333V57.0282H600.683V61.4622H598.243V57.0282H589.546V55.5983L598.099 42.3618H600.683V55.0473ZM592.301 55.0473H598.243V45.6808L597.955 46.2055L592.301 55.0473Z" fill="#141D40"/>
<path d="M543.425 50.7315H545.248C546.394 50.714 547.295 50.4123 547.951 49.8263C548.607 49.2404 548.935 48.4489 548.935 47.4519C548.935 45.213 547.82 44.0936 545.59 44.0936C544.54 44.0936 543.701 44.3953 543.071 44.9988C542.45 45.5935 542.139 46.3849 542.139 47.3732H539.713C539.713 45.8602 540.264 44.6052 541.365 43.6082C542.476 42.6025 543.884 42.0996 545.59 42.0996C547.391 42.0996 548.804 42.5762 549.827 43.5295C550.85 44.4828 551.362 45.8077 551.362 47.5044C551.362 48.3352 551.091 49.1398 550.548 49.9182C550.015 50.6965 549.285 51.2781 548.358 51.6629C549.407 51.9952 550.216 52.5462 550.784 53.3158C551.362 54.0854 551.65 55.0256 551.65 56.1363C551.65 57.8504 551.091 59.2103 549.971 60.2161C548.852 61.2218 547.396 61.7247 545.603 61.7247C543.81 61.7247 542.349 61.2393 541.221 60.2685C540.102 59.2978 539.542 58.0166 539.542 56.4249H541.982C541.982 57.4306 542.31 58.2352 542.966 58.8386C543.622 59.4421 544.501 59.7438 545.603 59.7438C546.775 59.7438 547.671 59.4377 548.292 58.8255C548.913 58.2133 549.223 57.3344 549.223 56.1887C549.223 55.078 548.882 54.2254 548.2 53.6307C547.518 53.036 546.534 52.7299 545.248 52.7124H543.425V50.7315Z" fill="#141D40"/>
<path d="M502.037 61.4623H489.522V59.7176L496.133 52.3713C497.113 51.2606 497.786 50.3598 498.153 49.6689C498.53 48.9693 498.718 48.2477 498.718 47.5044C498.718 46.5074 498.416 45.6897 497.812 45.0512C497.209 44.4128 496.404 44.0936 495.399 44.0936C494.192 44.0936 493.252 44.4391 492.578 45.13C491.914 45.8121 491.581 46.7654 491.581 47.9898H489.154C489.154 46.2319 489.718 44.8107 490.847 43.7263C491.983 42.6418 493.501 42.0996 495.399 42.0996C497.174 42.0996 498.578 42.5675 499.61 43.5033C500.642 44.4303 501.158 45.6678 501.158 47.2158C501.158 49.0961 499.959 51.3349 497.563 53.9324L492.447 59.4814H502.037V61.4623Z" fill="#141D40"/>
<path d="M446.956 61.4645H444.516V45.2896L439.623 47.0868V44.8829L446.576 42.2724H446.956V61.4645Z" fill="#141D40"/>
<path d="M540.657 119.871H538.217V103.696L533.324 105.494V103.29L540.277 100.679H540.657V119.871Z" fill="#141D40"/>
<path d="M559.745 111.725C559.745 114.567 559.259 116.679 558.288 118.061C557.318 119.443 555.8 120.134 553.736 120.134C551.699 120.134 550.19 119.46 549.211 118.113C548.231 116.758 547.724 114.738 547.689 112.053V108.812C547.689 106.005 548.174 103.919 549.145 102.555C550.116 101.191 551.637 100.509 553.71 100.509C555.765 100.509 557.278 101.169 558.249 102.489C559.22 103.801 559.718 105.83 559.745 108.576V111.725ZM557.318 108.406C557.318 106.351 557.029 104.855 556.452 103.919C555.875 102.975 554.961 102.503 553.71 102.503C552.468 102.503 551.563 102.97 550.995 103.906C550.426 104.842 550.133 106.281 550.116 108.222V112.105C550.116 114.169 550.413 115.695 551.008 116.683C551.611 117.663 552.521 118.153 553.736 118.153C554.935 118.153 555.822 117.689 556.399 116.762C556.985 115.835 557.291 114.375 557.318 112.381V108.406Z" fill="#141D40"/>
<path d="M450.891 105.756C450.891 106.709 450.637 107.557 450.13 108.301C449.632 109.044 448.954 109.626 448.097 110.046C449.094 110.474 449.881 111.099 450.458 111.922C451.044 112.744 451.337 113.675 451.337 114.716C451.337 116.369 450.777 117.685 449.658 118.664C448.547 119.644 447.082 120.134 445.263 120.134C443.427 120.134 441.953 119.644 440.842 118.664C439.74 117.676 439.189 116.36 439.189 114.716C439.189 113.684 439.469 112.752 440.029 111.922C440.597 111.091 441.38 110.461 442.377 110.032C441.529 109.613 440.86 109.031 440.37 108.288C439.88 107.544 439.635 106.7 439.635 105.756C439.635 104.147 440.151 102.87 441.183 101.925C442.215 100.981 443.575 100.509 445.263 100.509C446.942 100.509 448.298 100.981 449.33 101.925C450.371 102.87 450.891 104.147 450.891 105.756ZM448.91 114.663C448.91 113.596 448.569 112.726 447.887 112.053C447.214 111.379 446.33 111.043 445.237 111.043C444.144 111.043 443.265 111.375 442.6 112.04C441.944 112.704 441.616 113.579 441.616 114.663C441.616 115.748 441.936 116.6 442.574 117.221C443.221 117.842 444.118 118.153 445.263 118.153C446.4 118.153 447.292 117.842 447.939 117.221C448.587 116.592 448.91 115.739 448.91 114.663ZM445.263 102.503C444.31 102.503 443.536 102.8 442.941 103.395C442.355 103.981 442.062 104.781 442.062 105.795C442.062 106.766 442.351 107.553 442.928 108.157C443.514 108.751 444.292 109.049 445.263 109.049C446.234 109.049 447.008 108.751 447.585 108.157C448.171 107.553 448.464 106.766 448.464 105.795C448.464 104.824 448.162 104.033 447.559 103.421C446.956 102.809 446.19 102.503 445.263 102.503Z" fill="#141D40"/>
<path d="M402.07 102.135L394.159 119.871H391.614L399.498 102.765H389.161V100.771H402.07V102.135Z" fill="#141D40"/>
<path d="M348.885 100.758V102.817H348.439C346.55 102.852 345.046 103.412 343.927 104.497C342.807 105.581 342.16 107.107 341.985 109.075C342.991 107.92 344.364 107.343 346.104 107.343C347.766 107.343 349.091 107.929 350.079 109.101C351.076 110.273 351.575 111.786 351.575 113.64C351.575 115.608 351.037 117.182 349.961 118.363C348.894 119.543 347.46 120.134 345.658 120.134C343.831 120.134 342.348 119.434 341.211 118.035C340.074 116.627 339.506 114.816 339.506 112.604V111.672C339.506 108.157 340.254 105.472 341.749 103.618C343.253 101.755 345.488 100.802 348.453 100.758H348.885ZM345.698 109.364C344.867 109.364 344.102 109.613 343.402 110.111C342.702 110.61 342.217 111.235 341.946 111.987V112.879C341.946 114.453 342.3 115.722 343.008 116.684C343.717 117.646 344.6 118.127 345.658 118.127C346.752 118.127 347.609 117.724 348.23 116.92C348.859 116.115 349.174 115.061 349.174 113.758C349.174 112.446 348.855 111.388 348.216 110.584C347.587 109.77 346.747 109.364 345.698 109.364Z" fill="#141D40"/>
<path d="M499.148 111.475C498.64 112.079 498.033 112.564 497.324 112.932C496.625 113.299 495.855 113.483 495.015 113.483C493.913 113.483 492.951 113.211 492.129 112.669C491.316 112.127 490.686 111.366 490.24 110.387C489.794 109.398 489.571 108.31 489.571 107.12C489.571 105.843 489.812 104.693 490.293 103.67C490.783 102.647 491.473 101.864 492.366 101.322C493.258 100.78 494.298 100.509 495.488 100.509C497.377 100.509 498.863 101.217 499.948 102.634C501.041 104.042 501.588 105.966 501.588 108.406V109.114C501.588 112.831 500.853 115.547 499.384 117.261C497.915 118.966 495.698 119.841 492.733 119.884H492.261V117.838H492.772C494.775 117.803 496.314 117.283 497.39 116.277C498.466 115.262 499.051 113.662 499.148 111.475ZM495.409 111.475C496.222 111.475 496.97 111.226 497.652 110.728C498.343 110.229 498.846 109.613 499.161 108.878V107.907C499.161 106.316 498.815 105.021 498.124 104.024C497.434 103.027 496.559 102.529 495.501 102.529C494.434 102.529 493.577 102.94 492.93 103.762C492.282 104.575 491.959 105.651 491.959 106.989C491.959 108.292 492.269 109.368 492.89 110.216C493.52 111.056 494.359 111.475 495.409 111.475Z" fill="#141D40"/>
<path d="M591.195 119.871H588.755V103.696L583.862 105.493V103.29L590.815 100.679H591.195V119.871Z" fill="#141D40"/>
<path d="M606.282 119.871H603.842V103.696L598.948 105.493V103.29L605.901 100.679H606.282V119.871Z" fill="#141D40"/>
<path d="M641.575 119.871H639.135V103.696L634.242 105.494V103.29L641.195 100.679H641.575V119.871Z" fill="#141D40"/>
<path d="M661.2 119.871H648.686V118.127L655.297 110.78C656.277 109.67 656.95 108.769 657.317 108.078C657.693 107.378 657.881 106.657 657.881 105.913C657.881 104.916 657.58 104.099 656.976 103.46C656.373 102.822 655.568 102.503 654.563 102.503C653.356 102.503 652.415 102.848 651.742 103.539C651.077 104.221 650.745 105.174 650.745 106.399H648.318C648.318 104.641 648.882 103.22 650.01 102.135C651.147 101.051 652.665 100.509 654.563 100.509C656.338 100.509 657.742 100.976 658.774 101.912C659.806 102.839 660.321 104.077 660.321 105.625C660.321 107.505 659.123 109.744 656.727 112.341L651.611 117.89H661.2V119.871Z" fill="#141D40"/>
<path fill-rule="evenodd" clip-rule="evenodd" d="M393.543 242.801C404.776 242.801 413.881 233.695 413.881 222.463C413.881 211.231 404.776 202.125 393.543 202.125C382.311 202.125 373.206 211.231 373.206 222.463C373.206 233.695 382.311 242.801 393.543 242.801ZM393.543 244.749C405.852 244.749 415.83 234.771 415.83 222.463C415.83 210.154 405.852 200.176 393.543 200.176C381.235 200.176 371.257 210.154 371.257 222.463C371.257 234.771 381.235 244.749 393.543 244.749Z" fill="#0B8AFF"/>
<g filter="url(#filter0_d_1347_144)">
<path d="M571.147 166.049C571.147 179.792 560.006 190.933 546.264 190.933C532.521 190.933 521.381 179.792 521.381 166.049C521.381 152.307 532.521 141.166 546.264 141.166C560.006 141.166 571.147 152.307 571.147 166.049Z" fill="#0B8AFF"/>
</g>
<path d="M541.345 175.645H537.554V161.031L533.028 162.435V159.352L540.939 156.518H541.345V175.645Z" fill="white"/>
<path d="M560.551 158.67L553.165 175.645H549.164L556.563 159.614H547.065V156.544H560.551V158.67Z" fill="white"/>
<path d="M439.743 178.28H437.303V162.105L432.41 163.902V161.699L439.363 159.088H439.743V178.28Z" fill="#141D40"/>
<path d="M447.969 168.704L448.939 159.18H458.726V161.423H450.999L450.422 166.631C451.357 166.08 452.42 165.805 453.609 165.805C455.35 165.805 456.732 166.382 457.755 167.536C458.778 168.682 459.29 170.234 459.29 172.193C459.29 174.161 458.756 175.713 457.689 176.85C456.631 177.978 455.149 178.543 453.242 178.543C451.554 178.543 450.177 178.075 449.11 177.139C448.043 176.203 447.435 174.909 447.286 173.256H449.582C449.731 174.349 450.12 175.176 450.75 175.735C451.379 176.286 452.21 176.562 453.242 176.562C454.37 176.562 455.254 176.177 455.892 175.407C456.539 174.638 456.863 173.575 456.863 172.219C456.863 170.943 456.513 169.919 455.813 169.15C455.122 168.371 454.2 167.982 453.045 167.982C451.987 167.982 451.156 168.214 450.553 168.678L449.91 169.202L447.969 168.704Z" fill="#141D40"/>
<path d="M390.174 178.28H387.734V162.105L382.841 163.902V161.699L389.794 159.088H390.174V178.28Z" fill="#141D40"/>
<path d="M407.53 171.865H410.179V173.846H407.53V178.28H405.09V173.846H396.392V172.416L404.945 159.18H407.53V171.865ZM399.147 171.865H405.09V162.499L404.801 163.024L399.147 171.865Z" fill="#141D40"/>
<path d="M339.797 178.28H337.357V162.105L332.464 163.903V161.699L339.417 159.088H339.797V178.28Z" fill="#141D40"/>
<path d="M350.436 167.549H352.259C353.405 167.532 354.306 167.23 354.962 166.644C355.618 166.058 355.946 165.267 355.946 164.27C355.946 162.031 354.831 160.912 352.601 160.912C351.551 160.912 350.712 161.213 350.082 161.817C349.461 162.411 349.15 163.203 349.15 164.191H346.724C346.724 162.678 347.275 161.423 348.376 160.426C349.487 159.42 350.895 158.918 352.601 158.918C354.402 158.918 355.815 159.394 356.838 160.347C357.861 161.301 358.373 162.626 358.373 164.322C358.373 165.153 358.102 165.958 357.559 166.736C357.026 167.514 356.296 168.096 355.369 168.481C356.418 168.813 357.227 169.364 357.795 170.134C358.373 170.903 358.661 171.844 358.661 172.954C358.661 174.668 358.102 176.028 356.982 177.034C355.863 178.04 354.407 178.543 352.614 178.543C350.821 178.543 349.36 178.057 348.232 177.086C347.113 176.116 346.553 174.834 346.553 173.243H348.993C348.993 174.249 349.321 175.053 349.977 175.657C350.633 176.26 351.512 176.562 352.614 176.562C353.786 176.562 354.682 176.256 355.303 175.643C355.924 175.031 356.234 174.152 356.234 173.007C356.234 171.896 355.893 171.043 355.211 170.449C354.529 169.854 353.545 169.548 352.259 169.53H350.436V167.549Z" fill="#141D40"/>
<path d="M490.283 178.28H487.843V162.105L482.95 163.902V161.699L489.903 159.088H490.283V178.28Z" fill="#141D40"/>
<path d="M506.917 159.167V161.226H506.471C504.582 161.261 503.078 161.821 501.959 162.905C500.839 163.99 500.192 165.516 500.017 167.484C501.023 166.329 502.396 165.752 504.136 165.752C505.798 165.752 507.123 166.338 508.111 167.51C509.108 168.682 509.607 170.195 509.607 172.049C509.607 174.017 509.069 175.591 507.993 176.772C506.926 177.952 505.492 178.543 503.69 178.543C501.863 178.543 500.38 177.843 499.243 176.444C498.106 175.036 497.538 173.225 497.538 171.013V170.081C497.538 166.565 498.286 163.881 499.781 162.027C501.285 160.164 503.52 159.21 506.485 159.167H506.917ZM503.73 167.772C502.899 167.772 502.134 168.022 501.434 168.52C500.734 169.019 500.249 169.644 499.978 170.396V171.288C499.978 172.862 500.332 174.13 501.04 175.092C501.749 176.054 502.632 176.535 503.69 176.535C504.784 176.535 505.641 176.133 506.262 175.329C506.891 174.524 507.206 173.47 507.206 172.167C507.206 170.855 506.887 169.797 506.248 168.992C505.619 168.179 504.779 167.772 503.73 167.772Z" fill="#141D40"/>
<path d="M591.198 178.28H588.758V162.105L583.865 163.903V161.699L590.818 159.088H591.198V178.28Z" fill="#141D40"/>
<path d="M609.892 164.165C609.892 165.118 609.638 165.966 609.131 166.71C608.633 167.453 607.955 168.035 607.098 168.455C608.095 168.883 608.882 169.508 609.459 170.331C610.045 171.153 610.338 172.084 610.338 173.125C610.338 174.778 609.778 176.094 608.659 177.073C607.548 178.053 606.083 178.543 604.264 178.543C602.428 178.543 600.954 178.053 599.843 177.073C598.741 176.085 598.19 174.769 598.19 173.125C598.19 172.093 598.47 171.161 599.03 170.331C599.599 169.5 600.381 168.87 601.378 168.441C600.53 168.022 599.861 167.44 599.371 166.697C598.881 165.953 598.637 165.109 598.637 164.165C598.637 162.556 599.153 161.279 600.184 160.334C601.216 159.39 602.576 158.918 604.264 158.918C605.943 158.918 607.299 159.39 608.331 160.334C609.372 161.279 609.892 162.556 609.892 164.165ZM607.911 173.072C607.911 172.005 607.57 171.135 606.888 170.462C606.215 169.788 605.331 169.452 604.238 169.452C603.145 169.452 602.266 169.784 601.601 170.449C600.945 171.113 600.617 171.988 600.617 173.072C600.617 174.157 600.937 175.009 601.575 175.63C602.222 176.251 603.119 176.562 604.264 176.562C605.401 176.562 606.293 176.251 606.94 175.63C607.588 175.001 607.911 174.148 607.911 173.072ZM604.264 160.912C603.311 160.912 602.537 161.209 601.942 161.804C601.356 162.39 601.063 163.19 601.063 164.204C601.063 165.175 601.352 165.962 601.929 166.566C602.515 167.16 603.294 167.458 604.264 167.458C605.235 167.458 606.009 167.16 606.586 166.566C607.172 165.962 607.465 165.175 607.465 164.204C607.465 163.233 607.163 162.442 606.56 161.83C605.957 161.218 605.191 160.912 604.264 160.912Z" fill="#141D40"/>
<path d="M641.576 178.28H639.136V162.105L634.243 163.903V161.699L641.196 159.088H641.576V178.28Z" fill="#141D40"/>
<path d="M657.987 169.884C657.48 170.488 656.872 170.973 656.164 171.341C655.464 171.708 654.695 171.892 653.855 171.892C652.753 171.892 651.791 171.62 650.969 171.078C650.156 170.536 649.526 169.775 649.08 168.796C648.634 167.807 648.411 166.719 648.411 165.529C648.411 164.252 648.652 163.102 649.133 162.079C649.622 161.056 650.313 160.273 651.205 159.731C652.097 159.189 653.138 158.918 654.327 158.918C656.216 158.918 657.703 159.626 658.788 161.043C659.881 162.451 660.427 164.375 660.427 166.815V167.523C660.427 171.24 659.693 173.956 658.224 175.67C656.754 177.375 654.537 178.25 651.573 178.293H651.1V176.247H651.612C653.615 176.212 655.154 175.692 656.23 174.686C657.305 173.671 657.891 172.071 657.987 169.884ZM654.249 169.884C655.062 169.884 655.81 169.635 656.492 169.137C657.183 168.638 657.686 168.022 658.001 167.287V166.316C658.001 164.725 657.655 163.43 656.964 162.433C656.273 161.436 655.399 160.938 654.34 160.938C653.274 160.938 652.416 161.349 651.769 162.171C651.122 162.984 650.799 164.06 650.799 165.398C650.799 166.701 651.109 167.777 651.73 168.625C652.36 169.465 653.199 169.884 654.249 169.884Z" fill="#141D40"/>
<path d="M444.281 232.013H431.766V230.268L438.377 222.922C439.357 221.812 440.03 220.911 440.398 220.22C440.774 219.52 440.962 218.799 440.962 218.055C440.962 217.058 440.66 216.241 440.057 215.602C439.453 214.964 438.649 214.645 437.643 214.645C436.436 214.645 435.496 214.99 434.822 215.681C434.158 216.363 433.825 217.316 433.825 218.541H431.398C431.398 216.783 431.963 215.362 433.091 214.277C434.228 213.193 435.745 212.651 437.643 212.651C439.418 212.651 440.822 213.118 441.854 214.054C442.886 214.981 443.402 216.219 443.402 217.767C443.402 219.647 442.204 221.886 439.807 224.483L434.691 230.032H444.281V232.013Z" fill="#141D40"/>
<path d="M459.367 232.013H446.852V230.268L453.464 222.922C454.443 221.812 455.116 220.911 455.484 220.22C455.86 219.52 456.048 218.799 456.048 218.055C456.048 217.058 455.746 216.241 455.143 215.602C454.539 214.964 453.735 214.645 452.729 214.645C451.522 214.645 450.582 214.99 449.908 215.681C449.244 216.363 448.911 217.316 448.911 218.541H446.485C446.485 216.783 447.049 215.362 448.177 214.277C449.314 213.193 450.831 212.651 452.729 212.651C454.504 212.651 455.908 213.118 456.94 214.054C457.972 214.981 458.488 216.219 458.488 217.767C458.488 219.647 457.29 221.886 454.893 224.483L449.777 230.032H459.367V232.013Z" fill="#141D40"/>
<path d="M394.711 232.013H382.196V230.268L388.808 222.922C389.788 221.812 390.461 220.911 390.828 220.22C391.204 219.52 391.392 218.799 391.392 218.055C391.392 217.058 391.091 216.241 390.487 215.602C389.884 214.964 389.079 214.645 388.073 214.645C386.867 214.645 385.926 214.99 385.253 215.681C384.588 216.363 384.256 217.316 384.256 218.541H381.829C381.829 216.783 382.393 215.362 383.521 214.277C384.658 213.193 386.176 212.651 388.073 212.651C389.849 212.651 391.252 213.118 392.284 214.054C393.316 214.981 393.832 216.219 393.832 217.767C393.832 219.647 392.634 221.886 390.238 224.483L385.122 230.032H394.711V232.013Z" fill="#141D40"/>
<path d="M405.258 232.013H402.818V215.838L397.925 217.635V215.432L404.878 212.821H405.258V232.013Z" fill="#141D40"/>
<path d="M344.334 232.013H331.819V230.268L338.431 222.922C339.411 221.812 340.084 220.911 340.451 220.22C340.827 219.52 341.015 218.799 341.015 218.055C341.015 217.058 340.714 216.241 340.11 215.602C339.507 214.964 338.702 214.645 337.696 214.645C336.49 214.645 335.549 214.99 334.876 215.681C334.211 216.363 333.879 217.316 333.879 218.541H331.452C331.452 216.783 332.016 215.362 333.144 214.277C334.281 213.193 335.799 212.651 337.696 212.651C339.472 212.651 340.876 213.118 341.907 214.054C342.939 214.981 343.455 216.219 343.455 217.767C343.455 219.647 342.257 221.886 339.861 224.483L334.745 230.032H344.334V232.013Z" fill="#141D40"/>
<path d="M358.883 223.867C358.883 226.709 358.397 228.821 357.427 230.203C356.456 231.585 354.938 232.276 352.874 232.276C350.837 232.276 349.328 231.602 348.349 230.255C347.369 228.9 346.862 226.88 346.827 224.195V220.954C346.827 218.147 347.312 216.061 348.283 214.697C349.254 213.333 350.775 212.651 352.848 212.651C354.903 212.651 356.416 213.311 357.387 214.631C358.358 215.943 358.856 217.972 358.883 220.718V223.867ZM356.456 220.548C356.456 218.493 356.167 216.997 355.59 216.061C355.013 215.117 354.099 214.645 352.848 214.645C351.606 214.645 350.701 215.112 350.133 216.048C349.564 216.984 349.271 218.423 349.254 220.364V224.247C349.254 226.311 349.551 227.837 350.146 228.825C350.749 229.805 351.659 230.295 352.874 230.295C354.073 230.295 354.96 229.831 355.537 228.904C356.123 227.977 356.43 226.517 356.456 224.523V220.548Z" fill="#141D40"/>
<path d="M494.821 232.013H482.306V230.268L488.917 222.922C489.897 221.812 490.57 220.911 490.938 220.22C491.314 219.52 491.502 218.799 491.502 218.055C491.502 217.058 491.2 216.241 490.597 215.602C489.993 214.964 489.189 214.645 488.183 214.645C486.976 214.645 486.036 214.99 485.362 215.681C484.698 216.363 484.365 217.316 484.365 218.541H481.938C481.938 216.783 482.503 215.362 483.631 214.277C484.768 213.193 486.285 212.651 488.183 212.651C489.958 212.651 491.362 213.118 492.394 214.054C493.426 214.981 493.942 216.219 493.942 217.767C493.942 219.647 492.744 221.886 490.347 224.483L485.231 230.032H494.821V232.013Z" fill="#141D40"/>
<path d="M500.921 221.282H502.744C503.89 221.265 504.791 220.963 505.447 220.377C506.103 219.791 506.43 219 506.43 218.003C506.43 215.764 505.315 214.645 503.085 214.645C502.036 214.645 501.196 214.946 500.567 215.55C499.946 216.144 499.635 216.936 499.635 217.924H497.208C497.208 216.411 497.759 215.156 498.861 214.159C499.972 213.153 501.38 212.651 503.085 212.651C504.887 212.651 506.299 213.127 507.323 214.08C508.346 215.034 508.857 216.359 508.857 218.055C508.857 218.886 508.586 219.691 508.044 220.469C507.511 221.247 506.78 221.829 505.853 222.214C506.903 222.546 507.712 223.097 508.28 223.867C508.857 224.636 509.146 225.576 509.146 226.687C509.146 228.401 508.586 229.761 507.467 230.767C506.347 231.773 504.891 232.276 503.098 232.276C501.306 232.276 499.845 231.79 498.717 230.819C497.597 229.849 497.038 228.567 497.038 226.976H499.478C499.478 227.982 499.806 228.786 500.462 229.39C501.118 229.993 501.996 230.295 503.098 230.295C504.27 230.295 505.167 229.989 505.788 229.376C506.409 228.764 506.719 227.885 506.719 226.74C506.719 225.629 506.378 224.776 505.696 224.182C505.014 223.587 504.03 223.281 502.744 223.263H500.921V221.282Z" fill="#141D40"/>
<path d="M595.736 232.013H583.221V230.268L589.832 222.922C590.812 221.812 591.485 220.911 591.853 220.22C592.229 219.52 592.417 218.799 592.417 218.055C592.417 217.058 592.115 216.241 591.512 215.602C590.908 214.964 590.104 214.645 589.098 214.645C587.891 214.645 586.951 214.99 586.277 215.681C585.613 216.363 585.28 217.316 585.28 218.541H582.854C582.854 216.783 583.418 215.362 584.546 214.277C585.683 213.193 587.2 212.651 589.098 212.651C590.873 212.651 592.277 213.118 593.309 214.054C594.341 214.981 594.857 216.219 594.857 217.767C594.857 219.647 593.659 221.886 591.262 224.483L586.146 230.032H595.736V232.013Z" fill="#141D40"/>
<path d="M599.422 222.437L600.393 212.913H610.179V215.156H602.452L601.875 220.364C602.811 219.813 603.874 219.538 605.063 219.538C606.803 219.538 608.185 220.115 609.208 221.269C610.232 222.415 610.743 223.967 610.743 225.926C610.743 227.894 610.21 229.446 609.143 230.583C608.084 231.711 606.602 232.276 604.696 232.276C603.008 232.276 601.63 231.808 600.563 230.872C599.496 229.936 598.889 228.642 598.74 226.989H601.036C601.184 228.082 601.573 228.909 602.203 229.468C602.833 230.019 603.664 230.295 604.696 230.295C605.824 230.295 606.707 229.91 607.345 229.14C607.993 228.371 608.316 227.308 608.316 225.953C608.316 224.676 607.966 223.652 607.267 222.883C606.576 222.104 605.653 221.715 604.499 221.715C603.441 221.715 602.61 221.947 602.006 222.411L601.364 222.935L599.422 222.437Z" fill="#141D40"/>
<path d="M545.198 232.013H532.683V230.268L539.294 222.922C540.274 221.812 540.947 220.911 541.315 220.22C541.691 219.52 541.879 218.799 541.879 218.055C541.879 217.058 541.577 216.241 540.974 215.602C540.37 214.964 539.566 214.645 538.56 214.645C537.353 214.645 536.413 214.99 535.739 215.681C535.075 216.363 534.742 217.316 534.742 218.541H532.315C532.315 216.783 532.88 215.362 534.008 214.277C535.145 213.193 536.662 212.651 538.56 212.651C540.335 212.651 541.739 213.118 542.771 214.054C543.803 214.981 544.319 216.219 544.319 217.767C544.319 219.647 543.121 221.886 540.724 224.483L535.608 230.032H545.198V232.013Z" fill="#141D40"/>
<path d="M558.014 225.598H560.664V227.579H558.014V232.013H555.574V227.579H546.877V226.149L555.43 212.913H558.014V225.598ZM549.632 225.598H555.574V216.232L555.286 216.757L549.632 225.598Z" fill="#141D40"/>
<path d="M646.114 232.013H633.599V230.268L640.21 222.922C641.19 221.812 641.863 220.911 642.231 220.22C642.607 219.52 642.795 218.799 642.795 218.055C642.795 217.058 642.493 216.241 641.89 215.602C641.286 214.964 640.482 214.645 639.476 214.645C638.269 214.645 637.329 214.99 636.655 215.681C635.991 216.363 635.658 217.316 635.658 218.541H633.231C633.231 216.783 633.796 215.362 634.924 214.277C636.061 213.193 637.578 212.651 639.476 212.651C641.251 212.651 642.655 213.118 643.687 214.054C644.719 214.981 645.235 216.219 645.235 217.767C645.235 219.647 644.037 221.886 641.64 224.483L636.524 230.032H646.114V232.013Z" fill="#141D40"/>
<path d="M658.209 212.9V214.959H657.763C655.874 214.994 654.37 215.554 653.25 216.638C652.131 217.723 651.483 219.249 651.309 221.217C652.314 220.062 653.687 219.485 655.428 219.485C657.089 219.485 658.414 220.071 659.403 221.243C660.4 222.415 660.898 223.928 660.898 225.782C660.898 227.75 660.36 229.324 659.285 230.505C658.218 231.685 656.783 232.276 654.982 232.276C653.154 232.276 651.671 231.576 650.535 230.177C649.398 228.769 648.829 226.958 648.829 224.746V223.814C648.829 220.299 649.577 217.614 651.072 215.76C652.577 213.897 654.811 212.943 657.776 212.9H658.209ZM655.021 221.505C654.19 221.505 653.425 221.755 652.725 222.253C652.026 222.752 651.54 223.377 651.269 224.129V225.021C651.269 226.595 651.623 227.863 652.332 228.825C653.04 229.787 653.923 230.268 654.982 230.268C656.075 230.268 656.932 229.866 657.553 229.062C658.183 228.257 658.497 227.203 658.497 225.9C658.497 224.588 658.178 223.53 657.54 222.725C656.91 221.912 656.071 221.505 655.021 221.505Z" fill="#141D40"/>
<path d="M444.281 285.292H431.766V283.548L438.377 276.201C439.357 275.091 440.03 274.19 440.398 273.499C440.774 272.799 440.962 272.078 440.962 271.334C440.962 270.337 440.66 269.52 440.057 268.881C439.453 268.243 438.649 267.924 437.643 267.924C436.436 267.924 435.496 268.269 434.822 268.96C434.158 269.642 433.825 270.595 433.825 271.82H431.398C431.398 270.062 431.963 268.641 433.091 267.556C434.228 266.472 435.745 265.93 437.643 265.93C439.418 265.93 440.822 266.397 441.854 267.333C442.886 268.26 443.402 269.498 443.402 271.046C443.402 272.926 442.204 275.165 439.807 277.762L434.691 283.311H444.281V285.292Z" fill="#141D40"/>
<path d="M456.153 276.897C455.646 277.5 455.038 277.985 454.329 278.353C453.63 278.72 452.86 278.904 452.021 278.904C450.919 278.904 449.957 278.633 449.134 278.09C448.321 277.548 447.691 276.787 447.245 275.808C446.799 274.819 446.576 273.731 446.576 272.541C446.576 271.264 446.817 270.114 447.298 269.091C447.788 268.068 448.479 267.285 449.371 266.743C450.263 266.201 451.303 265.93 452.493 265.93C454.382 265.93 455.869 266.638 456.953 268.055C458.046 269.463 458.593 271.387 458.593 273.827V274.535C458.593 278.252 457.858 280.968 456.389 282.682C454.92 284.387 452.703 285.262 449.738 285.305H449.266V283.259H449.777C451.78 283.224 453.319 282.704 454.395 281.698C455.471 280.683 456.057 279.083 456.153 276.897ZM452.414 276.897C453.227 276.897 453.975 276.647 454.657 276.149C455.348 275.65 455.851 275.034 456.166 274.299V273.328C456.166 271.737 455.82 270.442 455.13 269.445C454.439 268.448 453.564 267.95 452.506 267.95C451.439 267.95 450.582 268.361 449.935 269.183C449.288 269.996 448.964 271.072 448.964 272.41C448.964 273.713 449.274 274.789 449.895 275.637C450.525 276.477 451.365 276.897 452.414 276.897Z" fill="#141D40"/>
<path d="M394.711 285.292H382.196V283.548L388.808 276.201C389.788 275.091 390.461 274.19 390.828 273.499C391.204 272.799 391.392 272.078 391.392 271.334C391.392 270.337 391.091 269.52 390.487 268.881C389.884 268.243 389.079 267.924 388.073 267.924C386.867 267.924 385.926 268.269 385.253 268.96C384.588 269.642 384.256 270.595 384.256 271.82H381.829C381.829 270.062 382.393 268.641 383.521 267.556C384.658 266.472 386.176 265.93 388.073 265.93C389.849 265.93 391.252 266.397 392.284 267.333C393.316 268.26 393.832 269.498 393.832 271.046C393.832 272.926 392.634 275.165 390.238 277.762L385.122 283.311H394.711V285.292Z" fill="#141D40"/>
<path d="M408.866 271.177C408.866 272.13 408.612 272.978 408.105 273.722C407.607 274.465 406.929 275.047 406.072 275.467C407.069 275.895 407.856 276.52 408.433 277.343C409.019 278.165 409.312 279.096 409.312 280.137C409.312 281.79 408.752 283.106 407.633 284.085C406.522 285.065 405.057 285.555 403.238 285.555C401.402 285.555 399.928 285.065 398.817 284.085C397.715 283.097 397.164 281.781 397.164 280.137C397.164 279.105 397.444 278.173 398.004 277.343C398.573 276.512 399.355 275.882 400.352 275.453C399.504 275.034 398.835 274.452 398.345 273.709C397.855 272.965 397.61 272.121 397.61 271.177C397.61 269.568 398.126 268.291 399.158 267.346C400.19 266.402 401.55 265.93 403.238 265.93C404.917 265.93 406.273 266.402 407.305 267.346C408.346 268.291 408.866 269.568 408.866 271.177ZM406.885 280.084C406.885 279.017 406.544 278.147 405.862 277.474C405.189 276.8 404.305 276.464 403.212 276.464C402.119 276.464 401.24 276.796 400.575 277.461C399.919 278.125 399.591 279 399.591 280.084C399.591 281.169 399.911 282.021 400.549 282.642C401.196 283.263 402.093 283.574 403.238 283.574C404.375 283.574 405.267 283.263 405.914 282.642C406.562 282.013 406.885 281.16 406.885 280.084ZM403.238 267.924C402.285 267.924 401.511 268.221 400.916 268.816C400.33 269.402 400.037 270.202 400.037 271.216C400.037 272.187 400.326 272.974 400.903 273.578C401.489 274.172 402.268 274.47 403.238 274.47C404.209 274.47 404.983 274.172 405.56 273.578C406.146 272.974 406.439 272.187 406.439 271.216C406.439 270.246 406.137 269.454 405.534 268.842C404.931 268.23 404.165 267.924 403.238 267.924Z" fill="#141D40"/>
<path d="M344.334 285.292H331.819V283.548L338.431 276.201C339.411 275.091 340.084 274.19 340.451 273.499C340.827 272.799 341.015 272.078 341.015 271.334C341.015 270.337 340.714 269.52 340.11 268.881C339.507 268.243 338.702 267.924 337.696 267.924C336.49 267.924 335.549 268.269 334.876 268.96C334.211 269.642 333.879 270.595 333.879 271.82H331.452C331.452 270.062 332.016 268.641 333.144 267.556C334.281 266.472 335.799 265.93 337.696 265.93C339.472 265.93 340.876 266.397 341.907 267.333C342.939 268.26 343.455 269.498 343.455 271.046C343.455 272.926 342.257 275.165 339.861 277.762L334.745 283.311H344.334V285.292Z" fill="#141D40"/>
<path d="M359.237 267.556L351.326 285.292H348.782L356.666 268.186H346.328V266.192H359.237V267.556Z" fill="#141D40"/>
<path d="M485.834 274.561H487.658C488.803 274.544 489.704 274.242 490.36 273.656C491.016 273.07 491.344 272.279 491.344 271.282C491.344 269.043 490.229 267.924 487.999 267.924C486.949 267.924 486.11 268.225 485.48 268.829C484.859 269.423 484.549 270.215 484.549 271.203H482.122C482.122 269.69 482.673 268.435 483.775 267.438C484.885 266.432 486.293 265.93 487.999 265.93C489.8 265.93 491.213 266.406 492.236 267.359C493.259 268.313 493.771 269.638 493.771 271.334C493.771 272.165 493.5 272.97 492.957 273.748C492.424 274.526 491.694 275.108 490.767 275.493C491.816 275.825 492.625 276.376 493.194 277.146C493.771 277.915 494.059 278.856 494.059 279.966C494.059 281.68 493.5 283.04 492.38 284.046C491.261 285.052 489.805 285.555 488.012 285.555C486.219 285.555 484.759 285.069 483.63 284.098C482.511 283.128 481.951 281.847 481.951 280.255H484.391C484.391 281.261 484.719 282.065 485.375 282.669C486.031 283.272 486.91 283.574 488.012 283.574C489.184 283.574 490.08 283.268 490.701 282.655C491.322 282.043 491.633 281.164 491.633 280.019C491.633 278.908 491.291 278.055 490.609 277.461C489.927 276.866 488.943 276.56 487.658 276.542H485.834V274.561Z" fill="#141D40"/>
<path d="M509.369 277.146C509.369 279.988 508.883 282.1 507.912 283.482C506.942 284.864 505.424 285.555 503.36 285.555C501.323 285.555 499.814 284.881 498.835 283.534C497.855 282.179 497.348 280.159 497.313 277.474V274.233C497.313 271.426 497.798 269.34 498.769 267.976C499.74 266.612 501.261 265.93 503.334 265.93C505.389 265.93 506.902 266.59 507.873 267.91C508.844 269.222 509.342 271.251 509.369 273.997V277.146ZM506.942 273.827C506.942 271.772 506.653 270.276 506.076 269.34C505.499 268.396 504.585 267.924 503.334 267.924C502.092 267.924 501.187 268.391 500.619 269.327C500.05 270.263 499.757 271.702 499.74 273.643V277.526C499.74 279.59 500.037 281.116 500.632 282.105C501.235 283.084 502.145 283.574 503.36 283.574C504.558 283.574 505.446 283.11 506.023 282.183C506.609 281.256 506.915 279.796 506.942 277.802V273.827Z" fill="#141D40"/>
<rect x="325.301" y="33.9107" width="96.2577" height="35.6609" rx="17.8304" fill="#101010" fill-opacity="0.03"/>
<rect x="519.564" y="258.083" width="141.636" height="35.6609" rx="17.8304" fill="#101010" fill-opacity="0.03"/>
<path d="M93.3107 45.1833V61.7035H90.4628V45.1833H93.3107ZM100.05 52.4109V54.6688H92.5846V52.4109H100.05ZM100.992 45.1833V47.4526H92.5846V45.1833H100.992ZM108.152 61.9304C107.244 61.9304 106.423 61.7829 105.689 61.4879C104.963 61.1853 104.343 60.7655 103.829 60.2285C103.322 59.6914 102.932 59.0598 102.66 58.3336C102.388 57.6075 102.252 56.8246 102.252 55.985V55.5311C102.252 54.5705 102.392 53.7006 102.671 52.9215C102.951 52.1424 103.341 51.4767 103.84 50.9245C104.339 50.3648 104.929 49.9374 105.61 49.6424C106.291 49.3474 107.028 49.1999 107.823 49.1999C108.7 49.1999 109.468 49.3474 110.126 49.6424C110.784 49.9374 111.329 50.3534 111.76 50.8905C112.198 51.42 112.524 52.0516 112.735 52.7853C112.955 53.519 113.065 54.3284 113.065 55.2134V56.3821H103.579V54.4192H110.364V54.2036C110.349 53.7119 110.251 53.2505 110.069 52.8194C109.895 52.3882 109.627 52.0403 109.264 51.7755C108.9 51.5108 108.416 51.3784 107.811 51.3784C107.357 51.3784 106.953 51.4767 106.597 51.6734C106.249 51.8625 105.958 52.1386 105.724 52.5017C105.489 52.8647 105.307 53.3035 105.179 53.8178C105.058 54.3246 104.997 54.8957 104.997 55.5311V55.985C104.997 56.522 105.069 57.0212 105.213 57.4827C105.364 57.9365 105.584 58.3336 105.871 58.674C106.158 59.0144 106.506 59.2829 106.915 59.4796C107.323 59.6687 107.789 59.7633 108.31 59.7633C108.969 59.7633 109.555 59.6309 110.069 59.3661C110.583 59.1014 111.03 58.727 111.408 58.2429L112.849 59.6384C112.584 60.0242 112.24 60.3949 111.816 60.7504C111.393 61.0983 110.875 61.382 110.262 61.6013C109.657 61.8207 108.953 61.9304 108.152 61.9304ZM115.209 44.2756H117.943V59.0825L117.682 61.7035H115.209V44.2756ZM125.954 55.4517V55.69C125.954 56.5977 125.852 57.4335 125.647 58.1975C125.451 58.9539 125.148 59.612 124.74 60.1717C124.339 60.7315 123.84 61.1664 123.242 61.4765C122.652 61.7791 121.968 61.9304 121.188 61.9304C120.424 61.9304 119.759 61.7867 119.191 61.4992C118.624 61.2118 118.148 60.8033 117.762 60.2738C117.384 59.7443 117.077 59.1127 116.843 58.379C116.608 57.6453 116.442 56.8359 116.344 55.9509V55.1907C116.442 54.2982 116.608 53.4888 116.843 52.7626C117.077 52.0289 117.384 51.3973 117.762 50.8678C118.148 50.3308 118.62 49.9185 119.18 49.6311C119.747 49.3436 120.409 49.1999 121.166 49.1999C121.952 49.1999 122.645 49.3512 123.242 49.6538C123.847 49.9563 124.35 50.3875 124.751 50.9472C125.152 51.4994 125.451 52.1575 125.647 52.9215C125.852 53.6855 125.954 54.5289 125.954 55.4517ZM123.219 55.69V55.4517C123.219 54.8995 123.174 54.3814 123.083 53.8973C122.992 53.4056 122.841 52.9744 122.629 52.6038C122.425 52.2331 122.145 51.9419 121.79 51.7301C121.442 51.5108 121.007 51.4011 120.485 51.4011C120.001 51.4011 119.585 51.4843 119.237 51.6507C118.889 51.8171 118.598 52.044 118.363 52.3315C118.129 52.6189 117.943 52.9517 117.807 53.3299C117.679 53.7081 117.592 54.1166 117.546 54.5553V56.609C117.614 57.1763 117.758 57.6982 117.977 58.1748C118.204 58.6438 118.522 59.022 118.931 59.3094C119.339 59.5893 119.865 59.7292 120.508 59.7292C121.014 59.7292 121.442 59.6271 121.79 59.4229C122.138 59.2186 122.414 58.935 122.618 58.5719C122.83 58.2013 122.981 57.7701 123.072 57.2784C123.17 56.7868 123.219 56.2573 123.219 55.69ZM144.97 59.525V61.7035H133.896V59.8313L139.274 53.9653C139.864 53.2997 140.33 52.7248 140.67 52.2407C141.01 51.7566 141.249 51.3217 141.385 50.9359C141.528 50.5426 141.6 50.1606 141.6 49.7899C141.6 49.268 141.502 48.8104 141.305 48.417C141.116 48.0161 140.836 47.7022 140.466 47.4753C140.095 47.2408 139.645 47.1236 139.115 47.1236C138.503 47.1236 137.988 47.2559 137.572 47.5207C137.156 47.7854 136.842 48.1523 136.631 48.6213C136.419 49.0827 136.313 49.6122 136.313 50.2097H133.579C133.579 49.2491 133.798 48.3716 134.237 47.5774C134.675 46.7756 135.311 46.1402 136.143 45.6712C136.975 45.1947 137.977 44.9564 139.15 44.9564C140.254 44.9564 141.192 45.1417 141.963 45.5124C142.735 45.883 143.321 46.4087 143.722 47.0895C144.131 47.7703 144.335 48.5759 144.335 49.5063C144.335 50.0206 144.252 50.5312 144.085 51.038C143.919 51.5448 143.68 52.0516 143.37 52.5584C143.068 53.0576 142.708 53.5606 142.292 54.0674C141.876 54.5667 141.419 55.0735 140.92 55.5878L137.345 59.525H144.97ZM157.871 52.0592V54.7596C157.871 56.053 157.742 57.1574 157.485 58.0727C157.235 58.9804 156.872 59.7179 156.396 60.2852C155.919 60.8525 155.348 61.2685 154.683 61.5333C154.024 61.798 153.287 61.9304 152.47 61.9304C151.819 61.9304 151.214 61.8472 150.655 61.6808C150.102 61.5144 149.603 61.2534 149.157 60.8979C148.711 60.5424 148.329 60.0847 148.011 59.525C147.701 58.9577 147.459 58.2807 147.285 57.494C147.118 56.7073 147.035 55.7959 147.035 54.7596V52.0592C147.035 50.7581 147.164 49.6613 147.421 48.7688C147.678 47.8686 148.045 47.1387 148.522 46.5789C148.998 46.0116 149.565 45.5994 150.223 45.3422C150.889 45.085 151.63 44.9564 152.447 44.9564C153.105 44.9564 153.711 45.0396 154.263 45.206C154.822 45.3649 155.322 45.6183 155.76 45.9662C156.207 46.3142 156.585 46.768 156.895 47.3278C157.213 47.88 157.455 48.5494 157.621 49.3361C157.788 50.1152 157.871 51.0229 157.871 52.0592ZM155.136 55.1453V51.6507C155.136 50.9926 155.099 50.414 155.023 49.9147C154.947 49.4079 154.834 48.9806 154.683 48.6326C154.539 48.2771 154.357 47.9896 154.138 47.7703C153.919 47.5434 153.669 47.3807 153.389 47.2824C153.109 47.1765 152.795 47.1236 152.447 47.1236C152.024 47.1236 151.645 47.2068 151.313 47.3732C150.98 47.532 150.7 47.7892 150.473 48.1447C150.246 48.5002 150.072 48.9692 149.951 49.5516C149.838 50.1265 149.781 50.8262 149.781 51.6507V55.1453C149.781 55.811 149.819 56.3972 149.894 56.904C149.97 57.4108 150.083 57.8457 150.235 58.2088C150.386 58.5643 150.568 58.8593 150.779 59.0938C150.999 59.3208 151.248 59.4872 151.528 59.5931C151.816 59.699 152.13 59.7519 152.47 59.7519C152.901 59.7519 153.283 59.6687 153.616 59.5023C153.949 59.3359 154.229 59.0711 154.456 58.7081C154.683 58.3374 154.853 57.8571 154.966 57.2671C155.08 56.6771 155.136 55.9698 155.136 55.1453ZM171.384 59.525V61.7035H160.31V59.8313L165.688 53.9653C166.278 53.2997 166.744 52.7248 167.084 52.2407C167.424 51.7566 167.663 51.3217 167.799 50.9359C167.942 50.5426 168.014 50.1606 168.014 49.7899C168.014 49.268 167.916 48.8104 167.719 48.417C167.53 48.0161 167.25 47.7022 166.88 47.4753C166.509 47.2408 166.059 47.1236 165.53 47.1236C164.917 47.1236 164.402 47.2559 163.986 47.5207C163.57 47.7854 163.256 48.1523 163.045 48.6213C162.833 49.0827 162.727 49.6122 162.727 50.2097H159.993C159.993 49.2491 160.212 48.3716 160.651 47.5774C161.089 46.7756 161.725 46.1402 162.557 45.6712C163.389 45.1947 164.391 44.9564 165.564 44.9564C166.668 44.9564 167.606 45.1417 168.377 45.5124C169.149 45.883 169.735 46.4087 170.136 47.0895C170.545 47.7703 170.749 48.5759 170.749 49.5063C170.749 50.0206 170.666 50.5312 170.499 51.038C170.333 51.5448 170.094 52.0516 169.784 52.5584C169.482 53.0576 169.122 53.5606 168.706 54.0674C168.29 54.5667 167.833 55.0735 167.334 55.5878L163.759 59.525H171.384ZM180.983 45.1266V61.7035H178.249V48.3716L174.198 49.7445V47.4866L180.654 45.1266H180.983Z" fill="white"/>
<path d="M56.2569 34.5291C57.0215 35.2787 57.091 36.4518 56.4654 37.2784L56.2569 37.5152L38.9979 54.4341L56.2569 71.353C57.0215 72.1027 57.091 73.2757 56.4654 74.1023L56.2569 74.3391C55.4922 75.0887 54.2956 75.1569 53.4525 74.5435L53.2109 74.3391L34.4297 55.9271C33.665 55.1775 33.5955 54.0045 34.2211 53.1779L34.4297 52.9411L53.2109 34.5291C54.052 33.7045 55.4157 33.7045 56.2569 34.5291Z" fill="white"/>
<path d="M220.291 34.5291C219.526 35.2787 219.456 36.4518 220.082 37.2784L220.291 37.5152L237.55 54.4344L220.291 71.3536C219.526 72.1032 219.456 73.2763 220.082 74.1029L220.291 74.3397C221.055 75.0893 222.252 75.1575 223.095 74.5442L223.337 74.3397L242.118 55.9275C242.883 55.1778 242.952 54.0048 242.327 53.1782L242.118 52.9414L223.337 34.5291C222.496 33.7045 221.132 33.7045 220.291 34.5291Z" fill="white"/>
<path d="M87.2176 106.615H90.8855L96.2863 122.052L101.687 106.615H105.355L97.7592 127.641H94.8134L87.2176 106.615ZM85.2392 106.615H88.8927L89.557 121.662V127.641H85.2392V106.615ZM103.68 106.615H107.348V127.641H103.016V121.662L103.68 106.615ZM110.222 119.987V119.684C110.222 118.538 110.385 117.484 110.713 116.521C111.04 115.549 111.516 114.707 112.142 113.994C112.768 113.282 113.538 112.728 114.453 112.334C115.367 111.929 116.417 111.727 117.601 111.727C118.785 111.727 119.839 111.929 120.763 112.334C121.687 112.728 122.462 113.282 123.088 113.994C123.724 114.707 124.205 115.549 124.532 116.521C124.86 117.484 125.023 118.538 125.023 119.684V119.987C125.023 121.123 124.86 122.177 124.532 123.15C124.205 124.112 123.724 124.955 123.088 125.677C122.462 126.389 121.692 126.943 120.778 127.337C119.863 127.732 118.814 127.93 117.63 127.93C116.445 127.93 115.391 127.732 114.467 127.337C113.553 126.943 112.778 126.389 112.142 125.677C111.516 124.955 111.04 124.112 110.713 123.15C110.385 122.177 110.222 121.123 110.222 119.987ZM114.38 119.684V119.987C114.38 120.642 114.438 121.253 114.554 121.821C114.669 122.389 114.852 122.89 115.102 123.323C115.362 123.747 115.699 124.079 116.113 124.319C116.527 124.56 117.033 124.68 117.63 124.68C118.207 124.68 118.703 124.56 119.117 124.319C119.531 124.079 119.863 123.747 120.113 123.323C120.364 122.89 120.547 122.389 120.662 121.821C120.787 121.253 120.85 120.642 120.85 119.987V119.684C120.85 119.049 120.787 118.452 120.662 117.893C120.547 117.325 120.359 116.825 120.099 116.391C119.849 115.949 119.517 115.602 119.103 115.352C118.689 115.101 118.188 114.976 117.601 114.976C117.013 114.976 116.513 115.101 116.099 115.352C115.695 115.602 115.362 115.949 115.102 116.391C114.852 116.825 114.669 117.325 114.554 117.893C114.438 118.452 114.38 119.049 114.38 119.684ZM131.651 115.352V127.641H127.493V112.016H131.392L131.651 115.352ZM131.045 119.28H129.919C129.919 118.124 130.068 117.085 130.366 116.16C130.665 115.227 131.083 114.432 131.623 113.778C132.162 113.113 132.802 112.608 133.543 112.261C134.294 111.905 135.132 111.727 136.056 111.727C136.788 111.727 137.457 111.833 138.063 112.045C138.67 112.257 139.189 112.594 139.623 113.056C140.066 113.518 140.403 114.129 140.634 114.89C140.874 115.65 140.995 116.579 140.995 117.677V127.641H136.807V117.662C136.807 116.969 136.711 116.43 136.518 116.045C136.325 115.66 136.041 115.39 135.666 115.236C135.3 115.073 134.848 114.991 134.309 114.991C133.75 114.991 133.264 115.101 132.85 115.323C132.446 115.544 132.109 115.852 131.839 116.247C131.579 116.632 131.382 117.085 131.247 117.604C131.112 118.124 131.045 118.683 131.045 119.28ZM158.237 127.641H153.659L153.688 124.262H158.237C159.373 124.262 160.331 124.007 161.11 123.496C161.89 122.976 162.477 122.221 162.872 121.229C163.277 120.238 163.479 119.039 163.479 117.633V116.608C163.479 115.53 163.363 114.582 163.132 113.763C162.911 112.945 162.579 112.257 162.136 111.698C161.693 111.14 161.149 110.721 160.504 110.442C159.859 110.153 159.118 110.009 158.28 110.009H153.572V106.615H158.28C159.686 106.615 160.971 106.856 162.136 107.337C163.31 107.809 164.326 108.488 165.183 109.373C166.039 110.259 166.699 111.318 167.161 112.55C167.633 113.773 167.869 115.135 167.869 116.637V117.633C167.869 119.126 167.633 120.488 167.161 121.72C166.699 122.952 166.039 124.011 165.183 124.897C164.335 125.773 163.32 126.452 162.136 126.933C160.961 127.405 159.662 127.641 158.237 127.641ZM156.114 106.615V127.641H151.782V106.615H156.114ZM179.19 124.117V117.157C179.19 116.656 179.108 116.228 178.945 115.872C178.781 115.506 178.526 115.222 178.179 115.02C177.842 114.817 177.404 114.716 176.865 114.716C176.403 114.716 176.004 114.798 175.667 114.962C175.33 115.116 175.07 115.342 174.887 115.641C174.704 115.929 174.612 116.271 174.612 116.666H170.454C170.454 116.002 170.608 115.371 170.916 114.774C171.224 114.177 171.671 113.653 172.259 113.2C172.846 112.738 173.544 112.377 174.352 112.117C175.171 111.857 176.085 111.727 177.096 111.727C178.309 111.727 179.387 111.929 180.331 112.334C181.274 112.738 182.016 113.344 182.555 114.153C183.104 114.962 183.378 115.973 183.378 117.186V123.872C183.378 124.729 183.431 125.431 183.537 125.98C183.643 126.519 183.797 126.991 183.999 127.395V127.641H179.797C179.594 127.217 179.44 126.688 179.335 126.052C179.238 125.407 179.19 124.762 179.19 124.117ZM179.739 118.124L179.768 120.478H177.443C176.894 120.478 176.418 120.541 176.013 120.666C175.609 120.791 175.277 120.969 175.017 121.2C174.757 121.422 174.564 121.682 174.439 121.98C174.324 122.278 174.266 122.606 174.266 122.962C174.266 123.318 174.348 123.641 174.511 123.929C174.675 124.209 174.911 124.43 175.219 124.594C175.527 124.748 175.888 124.825 176.302 124.825C176.928 124.825 177.472 124.7 177.934 124.449C178.396 124.199 178.752 123.891 179.002 123.525C179.262 123.159 179.397 122.813 179.407 122.485L180.504 124.247C180.35 124.642 180.138 125.051 179.869 125.475C179.609 125.898 179.277 126.298 178.872 126.673C178.468 127.039 177.982 127.342 177.414 127.583C176.846 127.814 176.172 127.93 175.392 127.93C174.401 127.93 173.5 127.732 172.692 127.337C171.893 126.933 171.257 126.38 170.786 125.677C170.324 124.964 170.093 124.156 170.093 123.251C170.093 122.432 170.247 121.706 170.555 121.07C170.863 120.435 171.315 119.901 171.912 119.467C172.519 119.024 173.274 118.692 174.179 118.471C175.084 118.24 176.134 118.124 177.327 118.124H179.739ZM190.988 125.879L195.133 112.016H199.595L193.313 129.995C193.178 130.389 192.995 130.813 192.764 131.265C192.543 131.718 192.24 132.146 191.855 132.551C191.479 132.965 191.003 133.301 190.425 133.561C189.857 133.821 189.159 133.951 188.331 133.951C187.936 133.951 187.614 133.927 187.364 133.879C187.113 133.831 186.815 133.764 186.468 133.677V130.63C186.574 130.63 186.685 130.63 186.8 130.63C186.916 130.64 187.027 130.644 187.132 130.644C187.681 130.644 188.129 130.582 188.475 130.457C188.822 130.332 189.101 130.139 189.313 129.879C189.525 129.629 189.693 129.301 189.818 128.897L190.988 125.879ZM189.255 112.016L192.649 123.337L193.241 127.742L190.411 128.045L184.793 112.016H189.255Z" fill="white"/>
<path d="M122.844 148.866V221.103H108.585V165.304L91.4538 170.75V159.511L121.309 148.866H122.844ZM195.278 149.015V156.689L167.403 221.103H152.352L180.227 160.155H144.331V149.015H195.278Z" fill="white"/>
<path d="M107.171 270.697H109.492V279.73C109.492 280.757 109.269 281.617 108.823 282.31C108.378 283.004 107.771 283.527 107.004 283.879C106.243 284.226 105.392 284.399 104.451 284.399C103.479 284.399 102.613 284.226 101.852 283.879C101.09 283.527 100.49 283.004 100.051 282.31C99.6174 281.617 99.4008 280.757 99.4008 279.73V270.697H101.722V279.73C101.722 280.38 101.833 280.915 102.056 281.336C102.279 281.75 102.594 282.057 103.003 282.255C103.411 282.453 103.894 282.552 104.451 282.552C105.008 282.552 105.488 282.453 105.89 282.255C106.298 282.057 106.614 281.75 106.837 281.336C107.059 280.915 107.171 280.38 107.171 279.73V270.697ZM119.137 280.732C119.137 280.454 119.094 280.206 119.007 279.99C118.927 279.773 118.781 279.575 118.571 279.395C118.36 279.216 118.063 279.043 117.68 278.876C117.302 278.702 116.819 278.526 116.231 278.346C115.588 278.148 114.994 277.929 114.449 277.687C113.911 277.44 113.44 277.155 113.038 276.833C112.636 276.505 112.323 276.131 112.1 275.71C111.878 275.283 111.766 274.791 111.766 274.234C111.766 273.683 111.881 273.182 112.11 272.73C112.345 272.278 112.676 271.888 113.103 271.56C113.536 271.226 114.047 270.969 114.635 270.79C115.223 270.604 115.872 270.511 116.584 270.511C117.587 270.511 118.45 270.697 119.174 271.068C119.904 271.44 120.465 271.938 120.854 272.563C121.251 273.188 121.449 273.878 121.449 274.633H119.137C119.137 274.188 119.041 273.795 118.849 273.454C118.664 273.108 118.379 272.835 117.995 272.637C117.618 272.439 117.138 272.34 116.556 272.34C116.005 272.34 115.548 272.424 115.182 272.591C114.817 272.758 114.545 272.984 114.365 273.269C114.186 273.553 114.096 273.875 114.096 274.234C114.096 274.488 114.155 274.72 114.273 274.93C114.39 275.134 114.57 275.326 114.811 275.506C115.052 275.679 115.356 275.843 115.721 275.998C116.086 276.153 116.516 276.301 117.011 276.443C117.76 276.666 118.413 276.914 118.97 277.186C119.527 277.452 119.991 277.755 120.362 278.096C120.734 278.436 121.012 278.823 121.198 279.256C121.384 279.683 121.476 280.169 121.476 280.714C121.476 281.283 121.362 281.797 121.133 282.255C120.904 282.707 120.576 283.093 120.149 283.415C119.728 283.731 119.221 283.975 118.626 284.149C118.039 284.316 117.383 284.399 116.658 284.399C116.009 284.399 115.368 284.313 114.737 284.139C114.112 283.966 113.542 283.703 113.029 283.35C112.515 282.991 112.107 282.546 111.803 282.013C111.5 281.475 111.348 280.847 111.348 280.129H113.678C113.678 280.568 113.753 280.943 113.901 281.252C114.056 281.562 114.27 281.815 114.542 282.013C114.814 282.205 115.13 282.348 115.489 282.44C115.854 282.533 116.244 282.58 116.658 282.58C117.203 282.58 117.658 282.502 118.023 282.348C118.394 282.193 118.673 281.976 118.859 281.698C119.044 281.419 119.137 281.097 119.137 280.732ZM128.801 272.498L124.763 284.214H122.321L127.408 270.697H128.968L128.801 272.498ZM132.18 284.214L128.133 272.498L127.956 270.697H129.525L134.631 284.214H132.18ZM131.985 279.201V281.048H124.633V279.201H131.985ZM138.019 282.06L138.01 283.657C138.01 284.288 137.852 284.938 137.537 285.606C137.221 286.274 136.803 286.825 136.283 287.258L135.086 286.562C135.259 286.284 135.417 286.002 135.559 285.717C135.702 285.433 135.816 285.129 135.903 284.808C135.989 284.486 136.033 284.13 136.033 283.74V282.06H138.019ZM151.118 270.697V284.214H148.788L142.726 274.531V284.214H140.396V270.697H142.726L148.806 280.398V270.697H151.118ZM158.099 284.399C157.356 284.399 156.685 284.278 156.084 284.037C155.49 283.79 154.983 283.446 154.562 283.007C154.147 282.567 153.829 282.05 153.606 281.456C153.383 280.862 153.272 280.222 153.272 279.535V279.163C153.272 278.377 153.386 277.666 153.615 277.028C153.844 276.391 154.163 275.846 154.571 275.394C154.98 274.936 155.463 274.587 156.02 274.345C156.577 274.104 157.18 273.983 157.83 273.983C158.548 273.983 159.176 274.104 159.714 274.345C160.253 274.587 160.698 274.927 161.051 275.367C161.41 275.8 161.676 276.317 161.849 276.917C162.029 277.517 162.119 278.179 162.119 278.903V279.86H154.358V278.254H159.909V278.077C159.897 277.675 159.816 277.297 159.668 276.945C159.526 276.592 159.306 276.307 159.009 276.091C158.712 275.874 158.316 275.766 157.82 275.766C157.449 275.766 157.118 275.846 156.827 276.007C156.542 276.162 156.304 276.388 156.112 276.685C155.92 276.982 155.772 277.341 155.667 277.762C155.568 278.176 155.518 278.644 155.518 279.163V279.535C155.518 279.974 155.577 280.383 155.695 280.76C155.818 281.131 155.998 281.456 156.233 281.735C156.468 282.013 156.753 282.233 157.087 282.394C157.421 282.549 157.802 282.626 158.229 282.626C158.767 282.626 159.247 282.518 159.668 282.301C160.089 282.085 160.454 281.778 160.763 281.382L161.942 282.524C161.726 282.84 161.444 283.143 161.097 283.434C160.751 283.718 160.327 283.95 159.826 284.13C159.331 284.309 158.755 284.399 158.099 284.399ZM166.593 281.986L168.914 274.169H170.344L169.954 276.508L167.614 284.214H166.333L166.593 281.986ZM165.229 274.169L167.039 282.023L167.187 284.214H165.758L163.038 274.169H165.229ZM172.516 281.93L174.27 274.169H176.452L173.741 284.214H172.312L172.516 281.93ZM170.585 274.169L172.878 281.893L173.166 284.214H171.885L169.517 276.499L169.127 274.169H170.585ZM184.222 270.697L187.36 277.149L190.498 270.697H193.078L188.53 279.238V284.214H186.181V279.238L181.632 270.697H184.222ZM193.292 279.303V279.089C193.292 278.365 193.397 277.694 193.608 277.075C193.818 276.45 194.121 275.908 194.517 275.45C194.92 274.986 195.408 274.627 195.984 274.373C196.566 274.113 197.222 273.983 197.952 273.983C198.689 273.983 199.345 274.113 199.92 274.373C200.502 274.627 200.994 274.986 201.396 275.45C201.798 275.908 202.105 276.45 202.315 277.075C202.526 277.694 202.631 278.365 202.631 279.089V279.303C202.631 280.027 202.526 280.698 202.315 281.317C202.105 281.936 201.798 282.478 201.396 282.942C200.994 283.4 200.505 283.759 199.929 284.019C199.354 284.272 198.701 284.399 197.971 284.399C197.234 284.399 196.575 284.272 195.993 284.019C195.418 283.759 194.929 283.4 194.527 282.942C194.124 282.478 193.818 281.936 193.608 281.317C193.397 280.698 193.292 280.027 193.292 279.303ZM195.529 279.089V279.303C195.529 279.754 195.576 280.181 195.668 280.584C195.761 280.986 195.907 281.339 196.105 281.642C196.303 281.945 196.556 282.184 196.866 282.357C197.175 282.53 197.544 282.617 197.971 282.617C198.385 282.617 198.744 282.53 199.048 282.357C199.357 282.184 199.611 281.945 199.809 281.642C200.007 281.339 200.152 280.986 200.245 280.584C200.344 280.181 200.394 279.754 200.394 279.303V279.089C200.394 278.644 200.344 278.223 200.245 277.827C200.152 277.424 200.004 277.068 199.799 276.759C199.601 276.45 199.348 276.208 199.038 276.035C198.735 275.855 198.373 275.766 197.952 275.766C197.531 275.766 197.166 275.855 196.857 276.035C196.553 276.208 196.303 276.45 196.105 276.759C195.907 277.068 195.761 277.424 195.668 277.827C195.576 278.223 195.529 278.644 195.529 279.089ZM206.753 276.081V284.214H204.515V274.169H206.651L206.753 276.081ZM209.825 274.104L209.807 276.183C209.671 276.159 209.522 276.14 209.361 276.128C209.207 276.115 209.052 276.109 208.897 276.109C208.513 276.109 208.176 276.165 207.885 276.276C207.594 276.382 207.35 276.536 207.152 276.74C206.96 276.939 206.811 277.18 206.706 277.465C206.601 277.749 206.539 278.068 206.521 278.421L206.01 278.458C206.01 277.827 206.072 277.242 206.196 276.703C206.319 276.165 206.505 275.691 206.753 275.283C207.006 274.875 207.322 274.556 207.7 274.327C208.083 274.098 208.526 273.983 209.027 273.983C209.163 273.983 209.309 273.996 209.463 274.02C209.624 274.045 209.745 274.073 209.825 274.104ZM213.483 269.954V284.214H211.236V269.954H213.483ZM219.721 274.169L215.349 279.015L212.954 281.466L212.369 279.572L214.179 277.335L217.02 274.169H219.721ZM217.503 284.214L214.244 279.498L215.655 277.929L220.093 284.214H217.503Z" fill="white"/>
<path d="M75.7177 263.92L76.0982 263.927C82.9215 264.153 88.3727 269.784 88.3495 276.674L88.3492 276.826C88.2716 280.936 86.2151 284.983 82.8032 288.595C81.12 290.348 79.2404 291.9 77.2018 293.221L77.2166 293.21L77.1448 293.27C76.3298 293.856 75.2499 293.898 74.3971 293.396L74.2046 293.27L74.1146 293.2L73.4981 292.785C70.9376 291.02 68.6571 288.878 66.7382 286.438L66.266 285.822C64.2557 283.187 63.1142 279.989 63 276.634L63.0069 276.21C63.2313 269.365 68.845 263.897 75.7177 263.92ZM75.7101 266.183L75.3519 266.188C69.7628 266.358 65.2749 270.947 65.2557 276.595L65.2842 277.127C65.4779 279.782 66.4404 282.328 68.0645 284.456C70.0808 287.157 72.5552 289.481 75.3746 291.322L75.4971 291.414C75.5991 291.503 75.7503 291.503 75.8522 291.414L75.9783 291.32C77.8709 290.094 79.6158 288.653 81.1721 287.032C84.2242 283.801 86.0284 280.251 86.0937 276.805L86.0888 276.311C85.919 270.704 81.3444 266.203 75.7101 266.183ZM75.6747 271.975C78.3414 271.975 80.5033 274.143 80.5033 276.818C80.5033 279.493 78.3414 281.662 75.6747 281.662C73.0079 281.662 70.8461 279.493 70.8461 276.818C70.8461 274.143 73.0079 271.975 75.6747 271.975ZM75.6747 274.237C74.2537 274.237 73.1018 275.393 73.1018 276.818C73.1018 278.243 74.2537 279.399 75.6747 279.399C77.0956 279.399 78.2475 278.243 78.2475 276.818C78.2475 275.393 77.0956 274.237 75.6747 274.237Z" fill="white"/>
</g>
<defs>
<filter id="filter0_d_1347_144" x="479.132" y="98.9171" width="134.265" height="134.265" filterUnits="userSpaceOnUse" color-interpolation-filters="sRGB">
<feFlood flood-opacity="0" result="BackgroundImageFix"/>
<feColorMatrix in="SourceAlpha" type="matrix" values="0 0 0 0 0 0 0 0 0 0 0 0 0 0 0 0 0 0 127 0" result="hardAlpha"/>
<feOffset/>
<feGaussianBlur stdDeviation="21.1246"/>
<feColorMatrix type="matrix" values="0 0 0 0 0.255903 0 0 0 0 0.877021 0 0 0 0 0.916667 0 0 0 0.25 0"/>
<feBlend mode="normal" in2="BackgroundImageFix" result="effect1_dropShadow_1347_144"/>
<feBlend mode="normal" in="SourceGraphic" in2="effect1_dropShadow_1347_144" result="shape"/>
</filter>
<clipPath id="clip0_1347_144">
<rect width="695" height="327.432" fill="white" transform="translate(0 0.111328)"/>
</clipPath>
</defs>
</svg>
