<svg width="700" height="616" viewBox="0 0 700 616" fill="none" xmlns="http://www.w3.org/2000/svg">
<rect width="700" height="616" fill="white"/>
<path d="M89.4531 60V92H84.2969L69.2188 70.2031H68.9531V92H63.1562V60H68.3438L83.4063 81.8125H83.6875V60H89.4531ZM105.988 92.4688C103.645 92.4688 101.613 91.9531 99.8945 90.9219C98.1758 89.8906 96.8424 88.4479 95.8945 86.5937C94.957 84.7396 94.4883 82.5729 94.4883 80.0937C94.4883 77.6146 94.957 75.4427 95.8945 73.5781C96.8424 71.7135 98.1758 70.2656 99.8945 69.2344C101.613 68.2031 103.645 67.6875 105.988 67.6875C108.332 67.6875 110.363 68.2031 112.082 69.2344C113.801 70.2656 115.129 71.7135 116.066 73.5781C117.014 75.4427 117.488 77.6146 117.488 80.0937C117.488 82.5729 117.014 84.7396 116.066 86.5937C115.129 88.4479 113.801 89.8906 112.082 90.9219C110.363 91.9531 108.332 92.4688 105.988 92.4688ZM106.02 87.9375C107.29 87.9375 108.353 87.5885 109.207 86.8906C110.061 86.1823 110.697 85.2344 111.113 84.0469C111.54 82.8594 111.754 81.5365 111.754 80.0781C111.754 78.6094 111.54 77.2812 111.113 76.0937C110.697 74.8958 110.061 73.9427 109.207 73.2344C108.353 72.526 107.29 72.1719 106.02 72.1719C104.717 72.1719 103.634 72.526 102.77 73.2344C101.915 73.9427 101.275 74.8958 100.848 76.0937C100.431 77.2812 100.223 78.6094 100.223 80.0781C100.223 81.5365 100.431 82.8594 100.848 84.0469C101.275 85.2344 101.915 86.1823 102.77 86.8906C103.634 87.5885 104.717 87.9375 106.02 87.9375ZM142.91 68L134.363 92H128.113L119.566 68H125.598L131.113 85.8281H131.363L136.895 68H142.91ZM156.633 92.4688C154.227 92.4688 152.148 91.9688 150.398 90.9688C148.659 89.9583 147.32 88.5312 146.383 86.6875C145.445 84.8333 144.977 82.651 144.977 80.1406C144.977 77.6719 145.445 75.5052 146.383 73.6406C147.331 71.7656 148.654 70.3073 150.352 69.2656C152.049 68.2135 154.044 67.6875 156.336 67.6875C157.815 67.6875 159.211 67.9271 160.523 68.4062C161.846 68.875 163.013 69.6042 164.023 70.5937C165.044 71.5833 165.846 72.8437 166.43 74.375C167.013 75.8958 167.305 77.7083 167.305 79.8125V81.5469H147.633V77.7344H161.883C161.872 76.651 161.638 75.6875 161.18 74.8437C160.721 73.9896 160.081 73.3177 159.258 72.8281C158.445 72.3385 157.497 72.0937 156.414 72.0937C155.258 72.0937 154.242 72.375 153.367 72.9375C152.492 73.4896 151.81 74.2187 151.32 75.125C150.841 76.0208 150.596 77.0052 150.586 78.0781V81.4062C150.586 82.8021 150.841 84 151.352 85C151.862 85.9896 152.576 86.75 153.492 87.2812C154.409 87.8021 155.482 88.0625 156.711 88.0625C157.534 88.0625 158.279 87.9479 158.945 87.7187C159.612 87.4792 160.19 87.1302 160.68 86.6719C161.169 86.2135 161.539 85.6458 161.789 84.9687L167.07 85.5625C166.737 86.9583 166.102 88.1771 165.164 89.2188C164.237 90.25 163.049 91.0521 161.602 91.625C160.154 92.1875 158.497 92.4688 156.633 92.4688ZM172.09 92V68H177.496V72.0781H177.777C178.277 70.7031 179.105 69.6302 180.262 68.8594C181.418 68.0781 182.798 67.6875 184.402 67.6875C186.027 67.6875 187.397 68.0833 188.512 68.875C189.637 69.6562 190.428 70.724 190.887 72.0781H191.137C191.668 70.7448 192.564 69.6823 193.824 68.8906C195.095 68.0885 196.6 67.6875 198.34 67.6875C200.548 67.6875 202.35 68.3854 203.746 69.7812C205.142 71.1771 205.84 73.2135 205.84 75.8906V92H200.168V76.7656C200.168 75.276 199.772 74.1875 198.98 73.5C198.189 72.8021 197.22 72.4531 196.074 72.4531C194.71 72.4531 193.642 72.8802 192.871 73.7344C192.111 74.5781 191.73 75.6771 191.73 77.0312V92H186.184V76.5312C186.184 75.2917 185.809 74.3021 185.059 73.5625C184.319 72.8229 183.35 72.4531 182.152 72.4531C181.34 72.4531 180.6 72.6615 179.934 73.0781C179.267 73.4844 178.736 74.0625 178.34 74.8125C177.944 75.5521 177.746 76.4167 177.746 77.4062V92H172.09ZM211.828 92V60H217.484V71.9687H217.719C218.01 71.3854 218.422 70.7656 218.953 70.1094C219.484 69.4427 220.203 68.875 221.109 68.4062C222.016 67.9271 223.172 67.6875 224.578 67.6875C226.432 67.6875 228.104 68.1615 229.594 69.1094C231.094 70.0469 232.281 71.4375 233.156 73.2812C234.042 75.1146 234.484 77.3646 234.484 80.0312C234.484 82.6667 234.052 84.9062 233.188 86.75C232.323 88.5937 231.146 90 229.656 90.9688C228.167 91.9375 226.479 92.4219 224.594 92.4219C223.219 92.4219 222.078 92.1927 221.172 91.7344C220.266 91.276 219.536 90.724 218.984 90.0781C218.443 89.4219 218.021 88.8021 217.719 88.2188H217.391V92H211.828ZM217.375 80C217.375 81.5521 217.594 82.9115 218.031 84.0781C218.479 85.2448 219.12 86.1562 219.953 86.8125C220.797 87.4583 221.818 87.7812 223.016 87.7812C224.266 87.7812 225.313 87.4479 226.156 86.7812C227 86.1042 227.635 85.1823 228.063 84.0156C228.5 82.8385 228.719 81.5 228.719 80C228.719 78.5104 228.505 77.1875 228.078 76.0312C227.651 74.875 227.016 73.9687 226.172 73.3125C225.328 72.6562 224.276 72.3281 223.016 72.3281C221.807 72.3281 220.781 72.6458 219.938 73.2812C219.094 73.9167 218.453 74.8073 218.016 75.9531C217.589 77.099 217.375 78.4479 217.375 80ZM249.918 92.4688C247.512 92.4688 245.434 91.9688 243.684 90.9688C241.944 89.9583 240.605 88.5312 239.668 86.6875C238.73 84.8333 238.262 82.651 238.262 80.1406C238.262 77.6719 238.73 75.5052 239.668 73.6406C240.616 71.7656 241.939 70.3073 243.637 69.2656C245.335 68.2135 247.329 67.6875 249.621 67.6875C251.1 67.6875 252.496 67.9271 253.809 68.4062C255.132 68.875 256.298 69.6042 257.309 70.5937C258.329 71.5833 259.132 72.8437 259.715 74.375C260.298 75.8958 260.59 77.7083 260.59 79.8125V81.5469H240.918V77.7344H255.168C255.158 76.651 254.923 75.6875 254.465 74.8437C254.007 73.9896 253.366 73.3177 252.543 72.8281C251.73 72.3385 250.783 72.0937 249.699 72.0937C248.543 72.0937 247.527 72.375 246.652 72.9375C245.777 73.4896 245.095 74.2187 244.605 75.125C244.126 76.0208 243.882 77.0052 243.871 78.0781V81.4062C243.871 82.8021 244.126 84 244.637 85C245.147 85.9896 245.861 86.75 246.777 87.2812C247.694 87.8021 248.767 88.0625 249.996 88.0625C250.819 88.0625 251.564 87.9479 252.23 87.7187C252.897 87.4792 253.475 87.1302 253.965 86.6719C254.454 86.2135 254.824 85.6458 255.074 84.9687L260.355 85.5625C260.022 86.9583 259.387 88.1771 258.449 89.2188C257.522 90.25 256.335 91.0521 254.887 91.625C253.439 92.1875 251.783 92.4688 249.918 92.4688ZM265.375 92V68H270.859V72H271.109C271.547 70.6146 272.297 69.5469 273.359 68.7969C274.432 68.0365 275.656 67.6562 277.031 67.6562C277.344 67.6562 277.693 67.6719 278.078 67.7031C278.474 67.724 278.802 67.7604 279.063 67.8125V73.0156C278.823 72.9323 278.443 72.8594 277.922 72.7969C277.411 72.724 276.917 72.6875 276.438 72.6875C275.406 72.6875 274.479 72.9115 273.656 73.3594C272.844 73.7969 272.203 74.4062 271.734 75.1875C271.266 75.9687 271.031 76.8698 271.031 77.8906V92H265.375Z" fill="#495057"/>
<path d="M61.6435 172.091H66.5739L71.7812 184.795H72.0028L77.2102 172.091H82.1406V191H78.2628V178.692H78.1058L73.2124 190.908H70.5717L65.6783 178.646H65.5213V191H61.6435V172.091Z" fill="#495057"/>
<path d="M158.923 175.387V172.091H174.453V175.387H168.664V191H164.712V175.387H158.923Z" fill="#495057"/>
<path d="M255.9 191L250.489 172.091H254.857L257.987 185.229H258.143L261.597 172.091H265.336L268.78 185.257H268.946L272.076 172.091H276.443L271.033 191H267.136L263.536 178.637H263.388L259.796 191H255.9Z" fill="#495057"/>
<path d="M351.923 175.387V172.091H367.453V175.387H361.664V191H357.712V175.387H351.923Z" fill="#495057"/>
<path d="M444.643 191V172.091H457.163V175.387H448.641V179.893H456.332V183.189H448.641V191H444.643Z" fill="#495057"/>
<path d="M544.901 177.529C544.827 176.784 544.51 176.206 543.95 175.793C543.39 175.381 542.63 175.175 541.67 175.175C541.017 175.175 540.466 175.267 540.017 175.452C539.568 175.63 539.223 175.879 538.983 176.2C538.749 176.52 538.632 176.883 538.632 177.289C538.62 177.628 538.691 177.923 538.844 178.175C539.004 178.428 539.223 178.646 539.5 178.831C539.777 179.009 540.097 179.166 540.46 179.302C540.823 179.431 541.211 179.542 541.624 179.634L543.322 180.04C544.147 180.225 544.904 180.471 545.594 180.779C546.283 181.087 546.88 181.465 547.385 181.915C547.89 182.364 548.281 182.893 548.558 183.503C548.841 184.112 548.985 184.811 548.991 185.599C548.985 186.756 548.69 187.759 548.105 188.609C547.527 189.452 546.689 190.107 545.594 190.575C544.504 191.037 543.19 191.268 541.651 191.268C540.125 191.268 538.795 191.034 537.663 190.566C536.536 190.098 535.656 189.406 535.022 188.489C534.394 187.565 534.065 186.424 534.034 185.063H537.903C537.946 185.697 538.127 186.227 538.447 186.651C538.774 187.07 539.208 187.387 539.749 187.602C540.297 187.812 540.916 187.916 541.605 187.916C542.282 187.916 542.87 187.818 543.369 187.621C543.873 187.424 544.264 187.15 544.541 186.799C544.818 186.448 544.957 186.045 544.957 185.589C544.957 185.165 544.83 184.808 544.578 184.518C544.332 184.229 543.969 183.983 543.489 183.78C543.015 183.577 542.433 183.392 541.744 183.226L539.685 182.709C538.09 182.321 536.832 181.715 535.908 180.89C534.985 180.065 534.527 178.954 534.533 177.557C534.527 176.412 534.831 175.412 535.447 174.556C536.068 173.701 536.921 173.033 538.004 172.553C539.088 172.072 540.319 171.832 541.697 171.832C543.101 171.832 544.326 172.072 545.372 172.553C546.425 173.033 547.243 173.701 547.828 174.556C548.413 175.412 548.714 176.403 548.733 177.529H544.901Z" fill="#ADB5BD"/>
<path d="M636.901 177.529C636.827 176.784 636.51 176.206 635.95 175.793C635.39 175.381 634.63 175.175 633.67 175.175C633.017 175.175 632.466 175.267 632.017 175.452C631.568 175.63 631.223 175.879 630.983 176.2C630.749 176.52 630.632 176.883 630.632 177.289C630.62 177.628 630.691 177.923 630.844 178.175C631.004 178.428 631.223 178.646 631.5 178.831C631.777 179.009 632.097 179.166 632.46 179.302C632.823 179.431 633.211 179.542 633.624 179.634L635.322 180.04C636.147 180.225 636.904 180.471 637.594 180.779C638.283 181.087 638.88 181.465 639.385 181.915C639.89 182.364 640.281 182.893 640.558 183.503C640.841 184.112 640.985 184.811 640.991 185.599C640.985 186.756 640.69 187.759 640.105 188.609C639.527 189.452 638.689 190.107 637.594 190.575C636.504 191.037 635.19 191.268 633.651 191.268C632.125 191.268 630.795 191.034 629.663 190.566C628.536 190.098 627.656 189.406 627.022 188.489C626.394 187.565 626.065 186.424 626.034 185.063H629.903C629.946 185.697 630.127 186.227 630.447 186.651C630.774 187.07 631.208 187.387 631.749 187.602C632.297 187.812 632.916 187.916 633.605 187.916C634.282 187.916 634.87 187.818 635.369 187.621C635.873 187.424 636.264 187.15 636.541 186.799C636.818 186.448 636.957 186.045 636.957 185.589C636.957 185.165 636.83 184.808 636.578 184.518C636.332 184.229 635.969 183.983 635.489 183.78C635.015 183.577 634.433 183.392 633.744 183.226L631.685 182.709C630.09 182.321 628.832 181.715 627.908 180.89C626.985 180.065 626.527 178.954 626.533 177.557C626.527 176.412 626.831 175.412 627.447 174.556C628.068 173.701 628.921 173.033 630.004 172.553C631.088 172.072 632.319 171.832 633.697 171.832C635.101 171.832 636.326 172.072 637.372 172.553C638.425 173.033 639.243 173.701 639.828 174.556C640.413 175.412 640.714 176.403 640.733 177.529H636.901Z" fill="#ADB5BD"/>
<circle cx="361" cy="389" r="25" fill="#3A86FF"/>
<path d="M266.625 241.091V260H263.2V244.424H263.089L258.667 247.249V244.11L263.366 241.091H266.625Z" fill="#6C757D"/>
<path d="M354.106 260V257.526L360.671 251.09C361.299 250.456 361.822 249.893 362.24 249.401C362.659 248.908 362.973 248.431 363.182 247.969C363.391 247.508 363.496 247.015 363.496 246.492C363.496 245.895 363.361 245.384 363.09 244.96C362.819 244.529 362.447 244.196 361.973 243.962C361.499 243.728 360.96 243.612 360.357 243.612C359.735 243.612 359.19 243.741 358.723 243.999C358.255 244.252 357.892 244.612 357.633 245.08C357.381 245.547 357.255 246.104 357.255 246.751H353.995C353.995 245.55 354.269 244.507 354.817 243.621C355.365 242.734 356.119 242.048 357.079 241.562C358.046 241.076 359.154 240.832 360.403 240.832C361.671 240.832 362.785 241.069 363.745 241.543C364.706 242.017 365.45 242.667 365.98 243.491C366.515 244.316 366.783 245.258 366.783 246.317C366.783 247.025 366.648 247.72 366.377 248.403C366.106 249.087 365.629 249.844 364.946 250.675C364.269 251.506 363.318 252.512 362.093 253.694L358.833 257.009V257.138H367.069V260H354.106Z" fill="#6C757D"/>
<path d="M451.499 260.259C450.169 260.259 448.987 260.031 447.953 259.575C446.925 259.12 446.113 258.486 445.516 257.673C444.919 256.861 444.602 255.922 444.565 254.857H448.036C448.067 255.368 448.237 255.814 448.544 256.196C448.852 256.571 449.261 256.864 449.772 257.073C450.283 257.282 450.856 257.387 451.49 257.387C452.167 257.387 452.767 257.27 453.29 257.036C453.813 256.796 454.223 256.464 454.518 256.039C454.813 255.614 454.958 255.125 454.952 254.571C454.958 253.999 454.81 253.494 454.509 253.057C454.207 252.62 453.77 252.278 453.198 252.032C452.631 251.786 451.948 251.663 451.148 251.663H449.477V249.022H451.148C451.807 249.022 452.382 248.908 452.875 248.68C453.373 248.453 453.764 248.133 454.047 247.72C454.33 247.302 454.469 246.818 454.463 246.271C454.469 245.735 454.349 245.27 454.103 244.876C453.862 244.476 453.521 244.165 453.078 243.944C452.641 243.722 452.127 243.612 451.536 243.612C450.957 243.612 450.422 243.716 449.929 243.925C449.437 244.135 449.04 244.433 448.738 244.821C448.437 245.203 448.277 245.658 448.258 246.188H444.962C444.987 245.129 445.291 244.199 445.876 243.399C446.467 242.593 447.255 241.965 448.24 241.516C449.224 241.06 450.329 240.832 451.554 240.832C452.816 240.832 453.912 241.069 454.841 241.543C455.777 242.011 456.5 242.642 457.011 243.436C457.522 244.23 457.777 245.107 457.777 246.067C457.783 247.132 457.469 248.025 456.835 248.745C456.208 249.465 455.383 249.936 454.361 250.158V250.305C455.691 250.49 456.709 250.982 457.417 251.783C458.131 252.577 458.485 253.565 458.479 254.746C458.479 255.805 458.177 256.753 457.574 257.59C456.977 258.421 456.152 259.074 455.1 259.548C454.053 260.022 452.853 260.259 451.499 260.259Z" fill="#6C757D"/>
<path d="M533.681 256.491V253.768L541.704 241.091H543.975V244.969H542.59L537.189 253.528V253.675H548.389V256.491H533.681ZM542.701 260V255.661L542.738 254.442V241.091H545.97V260H542.701Z" fill="#6C757D"/>
<path d="M632.528 260.259C631.297 260.259 630.195 260.028 629.222 259.566C628.25 259.098 627.477 258.458 626.905 257.646C626.339 256.833 626.037 255.904 626 254.857H629.324C629.385 255.633 629.721 256.267 630.33 256.759C630.94 257.246 631.672 257.489 632.528 257.489C633.199 257.489 633.796 257.335 634.319 257.027C634.842 256.719 635.254 256.291 635.556 255.744C635.858 255.196 636.005 254.571 635.999 253.869C636.005 253.155 635.855 252.521 635.547 251.967C635.239 251.413 634.817 250.979 634.282 250.665C633.746 250.345 633.131 250.185 632.435 250.185C631.869 250.179 631.312 250.284 630.764 250.499C630.216 250.715 629.782 250.998 629.462 251.349L626.369 250.841L627.357 241.091H638.326V243.953H630.192L629.647 248.967H629.758C630.109 248.554 630.604 248.213 631.244 247.942C631.884 247.665 632.586 247.526 633.349 247.526C634.494 247.526 635.516 247.797 636.415 248.339C637.313 248.874 638.021 249.613 638.538 250.555C639.055 251.496 639.314 252.574 639.314 253.786C639.314 255.036 639.025 256.15 638.446 257.129C637.874 258.101 637.076 258.867 636.055 259.428C635.039 259.982 633.863 260.259 632.528 260.259Z" fill="#6C757D"/>
<path d="M72.6754 329.259C71.7706 329.252 70.8873 329.095 70.0256 328.788C69.1638 328.474 68.3883 327.966 67.6989 327.264C67.0095 326.556 66.4616 325.618 66.0554 324.448C65.6491 323.272 65.4491 321.817 65.4553 320.081C65.4553 318.462 65.6276 317.019 65.9723 315.751C66.317 314.483 66.8125 313.412 67.4588 312.538C68.1051 311.657 68.8838 310.987 69.7947 310.525C70.7119 310.063 71.7367 309.832 72.8693 309.832C74.0573 309.832 75.1098 310.066 76.027 310.534C76.9503 311.002 77.6951 311.642 78.2614 312.455C78.8277 313.261 79.1785 314.172 79.3139 315.188H75.9439C75.7715 314.461 75.4176 313.883 74.8821 313.452C74.3527 313.015 73.6818 312.796 72.8693 312.796C71.5582 312.796 70.5488 313.366 69.8409 314.504C69.1392 315.643 68.7853 317.206 68.7791 319.195H68.9084C69.21 318.653 69.6009 318.188 70.081 317.8C70.5611 317.413 71.1027 317.114 71.706 316.905C72.3153 316.689 72.9586 316.582 73.6357 316.582C74.7436 316.582 75.7377 316.846 76.6179 317.376C77.5043 317.905 78.206 318.634 78.723 319.564C79.2401 320.487 79.4955 321.546 79.4893 322.74C79.4955 323.983 79.2124 325.101 78.6399 326.092C78.0675 327.076 77.2704 327.852 76.2486 328.418C75.2268 328.985 74.0357 329.265 72.6754 329.259ZM72.657 326.489C73.3279 326.489 73.928 326.326 74.4574 325.999C74.9867 325.673 75.4053 325.233 75.7131 324.679C76.0208 324.125 76.1716 323.503 76.1655 322.814C76.1716 322.137 76.0239 321.524 75.7223 320.977C75.4268 320.429 75.0175 319.995 74.4943 319.675C73.9711 319.355 73.3741 319.195 72.7031 319.195C72.2045 319.195 71.7398 319.29 71.3089 319.481C70.8781 319.672 70.5026 319.936 70.1825 320.275C69.8625 320.607 69.6101 320.995 69.4254 321.438C69.2469 321.875 69.1546 322.343 69.1484 322.842C69.1546 323.5 69.3085 324.107 69.6101 324.661C69.9117 325.214 70.3272 325.658 70.8565 325.99C71.3859 326.322 71.986 326.489 72.657 326.489Z" fill="#6C757D"/>
<path d="M161.743 329L169.785 313.082V312.953H160.45V310.091H173.33V313.018L165.298 329H161.743Z" fill="#6C757D"/>
<path d="M263.51 329.259C262.138 329.259 260.919 329.028 259.854 328.566C258.795 328.104 257.964 327.473 257.361 326.673C256.764 325.867 256.469 324.953 256.475 323.931C256.469 323.137 256.641 322.408 256.992 321.743C257.343 321.078 257.817 320.524 258.414 320.081C259.017 319.632 259.688 319.345 260.427 319.222V319.093C259.454 318.878 258.666 318.382 258.063 317.607C257.466 316.825 257.17 315.923 257.177 314.901C257.17 313.929 257.441 313.061 257.989 312.298C258.537 311.534 259.288 310.934 260.242 310.497C261.196 310.054 262.285 309.832 263.51 309.832C264.723 309.832 265.803 310.054 266.751 310.497C267.705 310.934 268.456 311.534 269.004 312.298C269.558 313.061 269.835 313.929 269.835 314.901C269.835 315.923 269.53 316.825 268.921 317.607C268.318 318.382 267.539 318.878 266.585 319.093V319.222C267.324 319.345 267.988 319.632 268.579 320.081C269.176 320.524 269.65 321.078 270.001 321.743C270.358 322.408 270.537 323.137 270.537 323.931C270.537 324.953 270.235 325.867 269.632 326.673C269.029 327.473 268.198 328.104 267.139 328.566C266.086 329.028 264.877 329.259 263.51 329.259ZM263.51 326.618C264.218 326.618 264.834 326.498 265.357 326.258C265.88 326.012 266.286 325.667 266.576 325.224C266.865 324.781 267.013 324.27 267.019 323.691C267.013 323.088 266.856 322.555 266.548 322.094C266.246 321.626 265.831 321.26 265.302 320.995C264.778 320.73 264.181 320.598 263.51 320.598C262.833 320.598 262.23 320.73 261.701 320.995C261.171 321.26 260.753 321.626 260.445 322.094C260.143 322.555 259.996 323.088 260.002 323.691C259.996 324.27 260.137 324.781 260.427 325.224C260.716 325.661 261.122 326.002 261.645 326.249C262.175 326.495 262.796 326.618 263.51 326.618ZM263.51 318.004C264.089 318.004 264.6 317.887 265.043 317.653C265.492 317.419 265.846 317.093 266.105 316.674C266.363 316.255 266.496 315.772 266.502 315.224C266.496 314.683 266.366 314.209 266.114 313.803C265.862 313.39 265.511 313.073 265.062 312.852C264.612 312.624 264.095 312.51 263.51 312.51C262.913 312.51 262.387 312.624 261.932 312.852C261.482 313.073 261.131 313.39 260.879 313.803C260.633 314.209 260.513 314.683 260.519 315.224C260.513 315.772 260.636 316.255 260.888 316.674C261.147 317.086 261.501 317.413 261.95 317.653C262.406 317.887 262.926 318.004 263.51 318.004Z" fill="#6C757D"/>
<path d="M360.315 309.832C361.22 309.839 362.1 309.999 362.956 310.312C363.818 310.62 364.593 311.125 365.283 311.827C365.972 312.522 366.52 313.455 366.926 314.624C367.332 315.794 367.536 317.24 367.536 318.964C367.542 320.589 367.369 322.041 367.018 323.322C366.674 324.596 366.178 325.673 365.532 326.553C364.886 327.433 364.107 328.104 363.196 328.566C362.285 329.028 361.26 329.259 360.121 329.259C358.927 329.259 357.869 329.025 356.945 328.557C356.028 328.089 355.286 327.449 354.72 326.636C354.154 325.824 353.806 324.894 353.677 323.848H357.047C357.219 324.599 357.57 325.196 358.099 325.639C358.635 326.076 359.309 326.295 360.121 326.295C361.433 326.295 362.442 325.725 363.15 324.587C363.858 323.448 364.212 321.866 364.212 319.841H364.082C363.781 320.383 363.39 320.85 362.91 321.244C362.43 321.632 361.885 321.931 361.276 322.14C360.672 322.349 360.032 322.454 359.355 322.454C358.247 322.454 357.25 322.189 356.364 321.66C355.483 321.13 354.785 320.404 354.268 319.481C353.757 318.558 353.498 317.502 353.492 316.314C353.492 315.083 353.775 313.978 354.342 312.999C354.914 312.014 355.711 311.239 356.733 310.673C357.755 310.1 358.949 309.82 360.315 309.832ZM360.325 312.602C359.66 312.602 359.06 312.765 358.524 313.092C357.995 313.412 357.576 313.849 357.268 314.403C356.967 314.951 356.816 315.563 356.816 316.24C356.822 316.911 356.973 317.52 357.268 318.068C357.57 318.616 357.979 319.05 358.496 319.37C359.02 319.69 359.617 319.85 360.288 319.85C360.786 319.85 361.251 319.755 361.682 319.564C362.113 319.373 362.488 319.108 362.808 318.77C363.134 318.425 363.387 318.034 363.565 317.597C363.75 317.16 363.839 316.699 363.833 316.212C363.833 315.566 363.679 314.969 363.371 314.421C363.07 313.873 362.654 313.433 362.125 313.101C361.602 312.768 361.002 312.602 360.325 312.602Z" fill="#6C757D"/>
<path d="M445.454 310.091V329H442.029V313.424H441.918L437.496 316.249V313.11L442.195 310.091H445.454ZM457.245 329.36C455.725 329.36 454.42 328.975 453.33 328.206C452.247 327.43 451.413 326.313 450.828 324.854C450.249 323.389 449.96 321.626 449.96 319.564C449.966 317.502 450.259 315.748 450.837 314.301C451.422 312.848 452.256 311.741 453.339 310.977C454.429 310.214 455.731 309.832 457.245 309.832C458.759 309.832 460.061 310.214 461.15 310.977C462.24 311.741 463.074 312.848 463.653 314.301C464.237 315.754 464.53 317.508 464.53 319.564C464.53 321.632 464.237 323.399 463.653 324.864C463.074 326.322 462.24 327.437 461.15 328.206C460.067 328.975 458.765 329.36 457.245 329.36ZM457.245 326.47C458.427 326.47 459.359 325.888 460.043 324.725C460.732 323.556 461.077 321.835 461.077 319.564C461.077 318.062 460.92 316.8 460.606 315.778C460.292 314.757 459.849 313.987 459.276 313.47C458.704 312.947 458.027 312.685 457.245 312.685C456.069 312.685 455.14 313.27 454.457 314.44C453.773 315.603 453.429 317.311 453.422 319.564C453.416 321.072 453.567 322.34 453.875 323.368C454.189 324.396 454.632 325.171 455.204 325.695C455.777 326.212 456.457 326.47 457.245 326.47Z" fill="#6C757D"/>
<path d="M538.379 310.091V329H534.954V313.424H534.843L530.42 316.249V313.11L535.12 310.091H538.379ZM550.871 310.091V329H547.446V313.424H547.335L542.913 316.249V313.11L547.612 310.091H550.871Z" fill="#6C757D"/>
<path d="M627.551 310.091V329H624.126V313.424H624.015L619.592 316.249V313.11L624.292 310.091H627.551ZM632.352 329V326.526L638.917 320.09C639.545 319.456 640.068 318.893 640.487 318.401C640.905 317.908 641.219 317.431 641.428 316.969C641.638 316.508 641.742 316.015 641.742 315.492C641.742 314.895 641.607 314.384 641.336 313.96C641.065 313.529 640.693 313.196 640.219 312.962C639.745 312.728 639.206 312.612 638.603 312.612C637.981 312.612 637.437 312.741 636.969 312.999C636.501 313.252 636.138 313.612 635.879 314.08C635.627 314.547 635.501 315.104 635.501 315.751H632.241C632.241 314.55 632.515 313.507 633.063 312.621C633.611 311.734 634.365 311.048 635.325 310.562C636.292 310.076 637.4 309.832 638.649 309.832C639.917 309.832 641.031 310.069 641.991 310.543C642.952 311.017 643.696 311.667 644.226 312.491C644.761 313.316 645.029 314.258 645.029 315.317C645.029 316.025 644.894 316.72 644.623 317.403C644.352 318.087 643.875 318.844 643.192 319.675C642.515 320.506 641.564 321.512 640.339 322.694L637.08 326.009V326.138H645.315V329H632.352Z" fill="#6C757D"/>
<path d="M66.6576 379.091V398H63.2322V382.424H63.1214L58.6988 385.249V382.11L63.3983 379.091H66.6576ZM78.2449 398.259C76.9154 398.259 75.7336 398.031 74.6995 397.575C73.6715 397.12 72.859 396.486 72.262 395.673C71.6649 394.861 71.3479 393.922 71.311 392.857H74.7826C74.8134 393.368 74.9826 393.814 75.2904 394.196C75.5982 394.571 76.0075 394.864 76.5184 395.073C77.0293 395.282 77.6017 395.387 78.2357 395.387C78.9128 395.387 79.5129 395.27 80.0361 395.036C80.5593 394.796 80.9687 394.464 81.2641 394.039C81.5596 393.614 81.7042 393.125 81.6981 392.571C81.7042 391.999 81.5565 391.494 81.2549 391.057C80.9533 390.62 80.5162 390.278 79.9438 390.032C79.3775 389.786 78.6943 389.663 77.8941 389.663H76.2229V387.022H77.8941C78.5527 387.022 79.1282 386.908 79.6207 386.68C80.1192 386.453 80.5101 386.133 80.7932 385.72C81.0764 385.302 81.2149 384.818 81.2087 384.271C81.2149 383.735 81.0948 383.27 80.8486 382.876C80.6086 382.476 80.267 382.165 79.8238 381.944C79.3867 381.722 78.8728 381.612 78.2819 381.612C77.7033 381.612 77.1678 381.716 76.6753 381.925C76.1829 382.135 75.7859 382.433 75.4843 382.821C75.1827 383.203 75.0226 383.658 75.0042 384.188H71.708C71.7326 383.129 72.0373 382.199 72.6221 381.399C73.213 380.593 74.0009 379.965 74.9857 379.516C75.9706 379.06 77.0754 378.832 78.3003 378.832C79.5622 378.832 80.6578 379.069 81.5873 379.543C82.5229 380.011 83.2461 380.642 83.757 381.436C84.2679 382.23 84.5233 383.107 84.5233 384.067C84.5295 385.132 84.2156 386.025 83.5816 386.745C82.9537 387.465 82.1289 387.936 81.1072 388.158V388.305C82.4367 388.49 83.4554 388.982 84.1633 389.783C84.8773 390.577 85.2312 391.565 85.2251 392.746C85.2251 393.805 84.9234 394.753 84.3202 395.59C83.7232 396.421 82.8983 397.074 81.8458 397.548C80.7994 398.022 79.5991 398.259 78.2449 398.259Z" fill="#6C757D"/>
<path d="M161.467 379.091V398H158.042V382.424H157.931L153.508 385.249V382.11L158.208 379.091H161.467ZM165.927 394.491V391.768L173.95 379.091H176.221V382.969H174.836L169.435 391.528V391.675H180.635V394.491H165.927ZM174.947 398V393.661L174.984 392.442V379.091H178.216V398H174.947Z" fill="#6C757D"/>
<path d="M258.399 379.091V398H254.973V382.424H254.863L250.44 385.249V382.11L255.14 379.091H258.399ZM269.774 398.259C268.543 398.259 267.441 398.028 266.468 397.566C265.496 397.098 264.723 396.458 264.151 395.646C263.585 394.833 263.283 393.904 263.246 392.857H266.57C266.632 393.633 266.967 394.267 267.576 394.759C268.186 395.246 268.918 395.489 269.774 395.489C270.445 395.489 271.042 395.335 271.565 395.027C272.088 394.719 272.501 394.291 272.802 393.744C273.104 393.196 273.252 392.571 273.245 391.869C273.252 391.155 273.101 390.521 272.793 389.967C272.485 389.413 272.064 388.979 271.528 388.665C270.993 388.345 270.377 388.185 269.681 388.185C269.115 388.179 268.558 388.284 268.01 388.499C267.462 388.715 267.029 388.998 266.708 389.349L263.615 388.841L264.603 379.091H275.572V381.953H267.438L266.893 386.967H267.004C267.355 386.554 267.85 386.213 268.49 385.942C269.131 385.665 269.832 385.526 270.596 385.526C271.74 385.526 272.762 385.797 273.661 386.339C274.56 386.874 275.267 387.613 275.784 388.555C276.301 389.496 276.56 390.574 276.56 391.786C276.56 393.036 276.271 394.15 275.692 395.129C275.12 396.101 274.323 396.867 273.301 397.428C272.285 397.982 271.109 398.259 269.774 398.259Z" fill="#6C757D"/>
<path d="M354.696 379.091V398H351.27V382.424H351.159L346.737 385.249V382.11L351.436 379.091H354.696ZM366.422 398.259C365.517 398.252 364.633 398.095 363.772 397.788C362.91 397.474 362.134 396.966 361.445 396.264C360.756 395.556 360.208 394.618 359.801 393.448C359.395 392.272 359.195 390.817 359.201 389.081C359.201 387.462 359.374 386.019 359.718 384.751C360.063 383.483 360.559 382.412 361.205 381.538C361.851 380.657 362.63 379.987 363.541 379.525C364.458 379.063 365.483 378.832 366.615 378.832C367.803 378.832 368.856 379.066 369.773 379.534C370.696 380.002 371.441 380.642 372.007 381.455C372.574 382.261 372.925 383.172 373.06 384.188H369.69C369.518 383.461 369.164 382.883 368.628 382.452C368.099 382.015 367.428 381.796 366.615 381.796C365.304 381.796 364.295 382.366 363.587 383.504C362.885 384.643 362.531 386.206 362.525 388.195H362.654C362.956 387.653 363.347 387.188 363.827 386.8C364.307 386.413 364.849 386.114 365.452 385.905C366.061 385.689 366.705 385.582 367.382 385.582C368.49 385.582 369.484 385.846 370.364 386.376C371.25 386.905 371.952 387.634 372.469 388.564C372.986 389.487 373.242 390.546 373.235 391.74C373.242 392.983 372.958 394.101 372.386 395.092C371.814 396.076 371.016 396.852 369.995 397.418C368.973 397.985 367.782 398.265 366.422 398.259ZM366.403 395.489C367.074 395.489 367.674 395.326 368.203 394.999C368.733 394.673 369.151 394.233 369.459 393.679C369.767 393.125 369.918 392.503 369.912 391.814C369.918 391.137 369.77 390.524 369.468 389.977C369.173 389.429 368.764 388.995 368.24 388.675C367.717 388.355 367.12 388.195 366.449 388.195C365.951 388.195 365.486 388.29 365.055 388.481C364.624 388.672 364.249 388.936 363.929 389.275C363.609 389.607 363.356 389.995 363.172 390.438C362.993 390.875 362.901 391.343 362.895 391.842C362.901 392.5 363.055 393.107 363.356 393.661C363.658 394.214 364.073 394.658 364.603 394.99C365.132 395.322 365.732 395.489 366.403 395.489Z" fill="white"/>
<path d="M446.495 379.091V398H443.07V382.424H442.959L438.537 385.249V382.11L443.236 379.091H446.495ZM451.989 398L460.031 382.082V381.953H450.696V379.091H463.576V382.018L455.544 398H451.989Z" fill="#6C757D"/>
<path d="M535.734 379.091V398H532.308V382.424H532.198L527.775 385.249V382.11L532.475 379.091H535.734ZM547.256 398.259C545.884 398.259 544.665 398.028 543.6 397.566C542.542 397.104 541.711 396.473 541.107 395.673C540.51 394.867 540.215 393.953 540.221 392.931C540.215 392.137 540.387 391.408 540.738 390.743C541.089 390.078 541.563 389.524 542.16 389.081C542.763 388.632 543.434 388.345 544.173 388.222V388.093C543.2 387.878 542.412 387.382 541.809 386.607C541.212 385.825 540.917 384.923 540.923 383.901C540.917 382.929 541.187 382.061 541.735 381.298C542.283 380.534 543.034 379.934 543.988 379.497C544.942 379.054 546.032 378.832 547.256 378.832C548.469 378.832 549.549 379.054 550.497 379.497C551.451 379.934 552.202 380.534 552.75 381.298C553.304 382.061 553.581 382.929 553.581 383.901C553.581 384.923 553.276 385.825 552.667 386.607C552.064 387.382 551.285 387.878 550.331 388.093V388.222C551.07 388.345 551.734 388.632 552.325 389.081C552.922 389.524 553.396 390.078 553.747 390.743C554.104 391.408 554.283 392.137 554.283 392.931C554.283 393.953 553.981 394.867 553.378 395.673C552.775 396.473 551.944 397.104 550.885 397.566C549.832 398.028 548.623 398.259 547.256 398.259ZM547.256 395.618C547.964 395.618 548.58 395.498 549.103 395.258C549.626 395.012 550.033 394.667 550.322 394.224C550.611 393.781 550.759 393.27 550.765 392.691C550.759 392.088 550.602 391.555 550.294 391.094C549.993 390.626 549.577 390.26 549.048 389.995C548.524 389.73 547.927 389.598 547.256 389.598C546.579 389.598 545.976 389.73 545.447 389.995C544.917 390.26 544.499 390.626 544.191 391.094C543.89 391.555 543.742 392.088 543.748 392.691C543.742 393.27 543.883 393.781 544.173 394.224C544.462 394.661 544.868 395.002 545.391 395.249C545.921 395.495 546.542 395.618 547.256 395.618ZM547.256 387.004C547.835 387.004 548.346 386.887 548.789 386.653C549.238 386.419 549.592 386.093 549.851 385.674C550.109 385.255 550.242 384.772 550.248 384.224C550.242 383.683 550.113 383.209 549.86 382.803C549.608 382.39 549.257 382.073 548.808 381.852C548.358 381.624 547.841 381.51 547.256 381.51C546.659 381.51 546.133 381.624 545.678 381.852C545.228 382.073 544.877 382.39 544.625 382.803C544.379 383.209 544.259 383.683 544.265 384.224C544.259 384.772 544.382 385.255 544.634 385.674C544.893 386.086 545.247 386.413 545.696 386.653C546.152 386.887 546.672 387.004 547.256 387.004Z" fill="#6C757D"/>
<path d="M626.696 379.091V398H623.27V382.424H623.159L618.737 385.249V382.11L623.436 379.091H626.696ZM638.061 378.832C638.966 378.839 639.846 378.999 640.702 379.312C641.564 379.62 642.339 380.125 643.029 380.827C643.718 381.522 644.266 382.455 644.672 383.624C645.078 384.794 645.282 386.24 645.282 387.964C645.288 389.589 645.115 391.041 644.765 392.322C644.42 393.596 643.924 394.673 643.278 395.553C642.632 396.433 641.853 397.104 640.942 397.566C640.031 398.028 639.006 398.259 637.868 398.259C636.673 398.259 635.615 398.025 634.691 397.557C633.774 397.089 633.033 396.449 632.466 395.636C631.9 394.824 631.552 393.894 631.423 392.848H634.793C634.965 393.599 635.316 394.196 635.846 394.639C636.381 395.076 637.055 395.295 637.868 395.295C639.179 395.295 640.188 394.725 640.896 393.587C641.604 392.448 641.958 390.866 641.958 388.841H641.828C641.527 389.383 641.136 389.85 640.656 390.244C640.176 390.632 639.631 390.931 639.022 391.14C638.418 391.349 637.778 391.454 637.101 391.454C635.993 391.454 634.996 391.189 634.11 390.66C633.23 390.13 632.531 389.404 632.014 388.481C631.503 387.558 631.244 386.502 631.238 385.314C631.238 384.083 631.521 382.978 632.088 381.999C632.66 381.014 633.457 380.239 634.479 379.673C635.501 379.1 636.695 378.82 638.061 378.832ZM638.071 381.602C637.406 381.602 636.806 381.765 636.27 382.092C635.741 382.412 635.322 382.849 635.015 383.403C634.713 383.951 634.562 384.563 634.562 385.24C634.568 385.911 634.719 386.52 635.015 387.068C635.316 387.616 635.725 388.05 636.243 388.37C636.766 388.69 637.363 388.85 638.034 388.85C638.532 388.85 638.997 388.755 639.428 388.564C639.859 388.373 640.234 388.108 640.554 387.77C640.881 387.425 641.133 387.034 641.311 386.597C641.496 386.16 641.585 385.699 641.579 385.212C641.579 384.566 641.425 383.969 641.118 383.421C640.816 382.873 640.4 382.433 639.871 382.101C639.348 381.768 638.748 381.602 638.071 381.602Z" fill="#6C757D"/>
<path d="M56.9353 467V464.526L63.4999 458.09C64.1278 457.456 64.651 456.893 65.0695 456.401C65.4881 455.908 65.802 455.431 66.0113 454.969C66.2206 454.508 66.3252 454.015 66.3252 453.492C66.3252 452.895 66.1898 452.384 65.9189 451.96C65.6481 451.529 65.2757 451.196 64.8018 450.962C64.3278 450.728 63.7892 450.612 63.186 450.612C62.5643 450.612 62.0196 450.741 61.5518 450.999C61.084 451.252 60.7208 451.612 60.4623 452.08C60.2099 452.547 60.0837 453.104 60.0837 453.751H56.8245C56.8245 452.55 57.0984 451.507 57.6462 450.621C58.194 449.734 58.9481 449.048 59.9083 448.562C60.8747 448.076 61.9826 447.832 63.2322 447.832C64.5001 447.832 65.6143 448.069 66.5745 448.543C67.5347 449.017 68.2795 449.667 68.8089 450.491C69.3444 451.316 69.6121 452.258 69.6121 453.317C69.6121 454.025 69.4767 454.72 69.2059 455.403C68.935 456.087 68.458 456.844 67.7748 457.675C67.0977 458.506 66.1467 459.512 64.9218 460.694L61.6626 464.009V464.138H69.8983V467H56.9353ZM80.0731 467.36C78.5527 467.36 77.2478 466.975 76.1583 466.206C75.075 465.43 74.2409 464.313 73.6562 462.854C73.0776 461.389 72.7883 459.626 72.7883 457.564C72.7944 455.502 73.0868 453.748 73.6654 452.301C74.2501 450.848 75.0842 449.741 76.1675 448.977C77.257 448.214 78.5589 447.832 80.0731 447.832C81.5873 447.832 82.8891 448.214 83.9786 448.977C85.0681 449.741 85.9021 450.848 86.4807 452.301C87.0655 453.754 87.3579 455.508 87.3579 457.564C87.3579 459.632 87.0655 461.399 86.4807 462.864C85.9021 464.322 85.0681 465.437 83.9786 466.206C82.8953 466.975 81.5934 467.36 80.0731 467.36ZM80.0731 464.47C81.2549 464.47 82.1874 463.888 82.8707 462.725C83.56 461.556 83.9047 459.835 83.9047 457.564C83.9047 456.062 83.7478 454.8 83.4339 453.778C83.1199 452.757 82.6768 451.987 82.1043 451.47C81.5319 450.947 80.8548 450.685 80.0731 450.685C78.8974 450.685 77.968 451.27 77.2847 452.44C76.6015 453.603 76.2568 455.311 76.2506 457.564C76.2445 459.072 76.3953 460.34 76.703 461.368C77.017 462.396 77.4601 463.171 78.0326 463.695C78.605 464.212 79.2852 464.47 80.0731 464.47Z" fill="#6C757D"/>
<path d="M154.86 467V464.526L161.425 458.09C162.053 457.456 162.576 456.893 162.994 456.401C163.413 455.908 163.727 455.431 163.936 454.969C164.145 454.508 164.25 454.015 164.25 453.492C164.25 452.895 164.115 452.384 163.844 451.96C163.573 451.529 163.201 451.196 162.727 450.962C162.253 450.728 161.714 450.612 161.111 450.612C160.489 450.612 159.944 450.741 159.477 450.999C159.009 451.252 158.646 451.612 158.387 452.08C158.135 452.547 158.009 453.104 158.009 453.751H154.749C154.749 452.55 155.023 451.507 155.571 450.621C156.119 449.734 156.873 449.048 157.833 448.562C158.799 448.076 159.907 447.832 161.157 447.832C162.425 447.832 163.539 448.069 164.499 448.543C165.46 449.017 166.204 449.667 166.734 450.491C167.269 451.316 167.537 452.258 167.537 453.317C167.537 454.025 167.402 454.72 167.131 455.403C166.86 456.087 166.383 456.844 165.7 457.675C165.022 458.506 164.071 459.512 162.847 460.694L159.587 464.009V464.138H167.823V467H154.86ZM178.7 448.091V467H175.274V451.424H175.163L170.741 454.249V451.11L175.44 448.091H178.7Z" fill="#6C757D"/>
<path d="M249.032 467V464.526L255.597 458.09C256.224 457.456 256.748 456.893 257.166 456.401C257.585 455.908 257.899 455.431 258.108 454.969C258.317 454.508 258.422 454.015 258.422 453.492C258.422 452.895 258.286 452.384 258.016 451.96C257.745 451.529 257.372 451.196 256.898 450.962C256.424 450.728 255.886 450.612 255.283 450.612C254.661 450.612 254.116 450.741 253.648 450.999C253.181 451.252 252.817 451.612 252.559 452.08C252.307 452.547 252.18 453.104 252.18 453.751H248.921C248.921 452.55 249.195 451.507 249.743 450.621C250.291 449.734 251.045 449.048 252.005 448.562C252.971 448.076 254.079 447.832 255.329 447.832C256.597 447.832 257.711 448.069 258.671 448.543C259.631 449.017 260.376 449.667 260.906 450.491C261.441 451.316 261.709 452.258 261.709 453.317C261.709 454.025 261.573 454.72 261.303 455.403C261.032 456.087 260.555 456.844 259.871 457.675C259.194 458.506 258.243 459.512 257.018 460.694L253.759 464.009V464.138H261.995V467H249.032ZM265.18 467V464.526L271.745 458.09C272.373 457.456 272.896 456.893 273.315 456.401C273.733 455.908 274.047 455.431 274.256 454.969C274.466 454.508 274.57 454.015 274.57 453.492C274.57 452.895 274.435 452.384 274.164 451.96C273.893 451.529 273.521 451.196 273.047 450.962C272.573 450.728 272.034 450.612 271.431 450.612C270.809 450.612 270.265 450.741 269.797 450.999C269.329 451.252 268.966 451.612 268.707 452.08C268.455 452.547 268.329 453.104 268.329 453.751H265.07C265.07 452.55 265.344 451.507 265.891 450.621C266.439 449.734 267.193 449.048 268.153 448.562C269.12 448.076 270.228 447.832 271.477 447.832C272.745 447.832 273.859 448.069 274.82 448.543C275.78 449.017 276.525 449.667 277.054 450.491C277.589 451.316 277.857 452.258 277.857 453.317C277.857 454.025 277.722 454.72 277.451 455.403C277.18 456.087 276.703 456.844 276.02 457.675C275.343 458.506 274.392 459.512 273.167 460.694L269.908 464.009V464.138H278.143V467H265.18Z" fill="#6C757D"/>
<path d="M345.138 467V464.526L351.703 458.09C352.331 457.456 352.854 456.893 353.273 456.401C353.691 455.908 354.005 455.431 354.214 454.969C354.424 454.508 354.528 454.015 354.528 453.492C354.528 452.895 354.393 452.384 354.122 451.96C353.851 451.529 353.479 451.196 353.005 450.962C352.531 450.728 351.992 450.612 351.389 450.612C350.767 450.612 350.223 450.741 349.755 450.999C349.287 451.252 348.924 451.612 348.665 452.08C348.413 452.547 348.287 453.104 348.287 453.751H345.028C345.028 452.55 345.302 451.507 345.849 450.621C346.397 449.734 347.151 449.048 348.111 448.562C349.078 448.076 350.186 447.832 351.435 447.832C352.703 447.832 353.817 448.069 354.778 448.543C355.738 449.017 356.483 449.667 357.012 450.491C357.547 451.316 357.815 452.258 357.815 453.317C357.815 454.025 357.68 454.72 357.409 455.403C357.138 456.087 356.661 456.844 355.978 457.675C355.301 458.506 354.35 459.512 353.125 460.694L349.866 464.009V464.138H358.101V467H345.138ZM368.073 467.259C366.744 467.259 365.562 467.031 364.528 466.575C363.5 466.12 362.687 465.486 362.09 464.673C361.493 463.861 361.176 462.922 361.139 461.857H364.611C364.641 462.368 364.811 462.814 365.119 463.196C365.426 463.571 365.836 463.864 366.347 464.073C366.857 464.282 367.43 464.387 368.064 464.387C368.741 464.387 369.341 464.27 369.864 464.036C370.387 463.796 370.797 463.464 371.092 463.039C371.388 462.614 371.532 462.125 371.526 461.571C371.532 460.999 371.385 460.494 371.083 460.057C370.781 459.62 370.344 459.278 369.772 459.032C369.206 458.786 368.522 458.663 367.722 458.663H366.051V456.022H367.722C368.381 456.022 368.956 455.908 369.449 455.68C369.947 455.453 370.338 455.133 370.621 454.72C370.905 454.302 371.043 453.818 371.037 453.271C371.043 452.735 370.923 452.27 370.677 451.876C370.437 451.476 370.095 451.165 369.652 450.944C369.215 450.722 368.701 450.612 368.11 450.612C367.531 450.612 366.996 450.716 366.503 450.925C366.011 451.135 365.614 451.433 365.312 451.821C365.011 452.203 364.851 452.658 364.832 453.188H361.536C361.561 452.129 361.865 451.199 362.45 450.399C363.041 449.593 363.829 448.965 364.814 448.516C365.799 448.06 366.904 447.832 368.128 447.832C369.39 447.832 370.486 448.069 371.415 448.543C372.351 449.011 373.074 449.642 373.585 450.436C374.096 451.23 374.351 452.107 374.351 453.067C374.358 454.132 374.044 455.025 373.41 455.745C372.782 456.465 371.957 456.936 370.935 457.158V457.305C372.265 457.49 373.284 457.982 373.991 458.783C374.705 459.577 375.059 460.565 375.053 461.746C375.053 462.805 374.752 463.753 374.148 464.59C373.551 465.421 372.726 466.074 371.674 466.548C370.628 467.022 369.427 467.259 368.073 467.259Z" fill="#6C757D"/>
<path d="M436.151 467V464.526L442.716 458.09C443.344 457.456 443.867 456.893 444.285 456.401C444.704 455.908 445.018 455.431 445.227 454.969C445.436 454.508 445.541 454.015 445.541 453.492C445.541 452.895 445.406 452.384 445.135 451.96C444.864 451.529 444.492 451.196 444.018 450.962C443.544 450.728 443.005 450.612 442.402 450.612C441.78 450.612 441.235 450.741 440.768 450.999C440.3 451.252 439.937 451.612 439.678 452.08C439.426 452.547 439.3 453.104 439.3 453.751H436.04C436.04 452.55 436.314 451.507 436.862 450.621C437.41 449.734 438.164 449.048 439.124 448.562C440.09 448.076 441.198 447.832 442.448 447.832C443.716 447.832 444.83 448.069 445.79 448.543C446.751 449.017 447.495 449.667 448.025 450.491C448.56 451.316 448.828 452.258 448.828 453.317C448.828 454.025 448.693 454.72 448.422 455.403C448.151 456.087 447.674 456.844 446.991 457.675C446.314 458.506 445.363 459.512 444.138 460.694L440.878 464.009V464.138H449.114V467H436.151ZM451.552 463.491V460.768L459.575 448.091H461.846V451.969H460.461L455.06 460.528V460.675H466.26V463.491H451.552ZM460.572 467V462.661L460.609 461.442V448.091H463.841V467H460.572Z" fill="#6C757D"/>
<path d="M526.88 467V464.526L533.444 458.09C534.072 457.456 534.595 456.893 535.014 456.401C535.432 455.908 535.746 455.431 535.956 454.969C536.165 454.508 536.27 454.015 536.27 453.492C536.27 452.895 536.134 452.384 535.863 451.96C535.592 451.529 535.22 451.196 534.746 450.962C534.272 450.728 533.734 450.612 533.13 450.612C532.509 450.612 531.964 450.741 531.496 450.999C531.028 451.252 530.665 451.612 530.407 452.08C530.154 452.547 530.028 453.104 530.028 453.751H526.769C526.769 452.55 527.043 451.507 527.591 450.621C528.138 449.734 528.892 449.048 529.853 448.562C530.819 448.076 531.927 447.832 533.176 447.832C534.444 447.832 535.559 448.069 536.519 448.543C537.479 449.017 538.224 449.667 538.753 450.491C539.289 451.316 539.556 452.258 539.556 453.317C539.556 454.025 539.421 454.72 539.15 455.403C538.879 456.087 538.402 456.844 537.719 457.675C537.042 458.506 536.091 459.512 534.866 460.694L531.607 464.009V464.138H539.843V467H526.88ZM549.602 467.259C548.371 467.259 547.269 467.028 546.297 466.566C545.324 466.098 544.551 465.458 543.979 464.646C543.413 463.833 543.111 462.904 543.074 461.857H546.398C546.46 462.633 546.795 463.267 547.404 463.759C548.014 464.246 548.746 464.489 549.602 464.489C550.273 464.489 550.87 464.335 551.393 464.027C551.916 463.719 552.329 463.291 552.63 462.744C552.932 462.196 553.08 461.571 553.074 460.869C553.08 460.155 552.929 459.521 552.621 458.967C552.313 458.413 551.892 457.979 551.356 457.665C550.821 457.345 550.205 457.185 549.51 457.185C548.943 457.179 548.386 457.284 547.838 457.499C547.291 457.715 546.857 457.998 546.537 458.349L543.444 457.841L544.431 448.091H555.4V450.953H547.266L546.721 455.967H546.832C547.183 455.554 547.678 455.213 548.319 454.942C548.959 454.665 549.66 454.526 550.424 454.526C551.569 454.526 552.59 454.797 553.489 455.339C554.388 455.874 555.096 456.613 555.613 457.555C556.13 458.496 556.388 459.574 556.388 460.786C556.388 462.036 556.099 463.15 555.52 464.129C554.948 465.101 554.151 465.867 553.129 466.428C552.113 466.982 550.938 467.259 549.602 467.259Z" fill="#6C757D"/>
<path d="M617.176 467V464.526L623.741 458.09C624.369 457.456 624.892 456.893 625.311 456.401C625.729 455.908 626.043 455.431 626.252 454.969C626.462 454.508 626.566 454.015 626.566 453.492C626.566 452.895 626.431 452.384 626.16 451.96C625.889 451.529 625.517 451.196 625.043 450.962C624.569 450.728 624.03 450.612 623.427 450.612C622.806 450.612 622.261 450.741 621.793 450.999C621.325 451.252 620.962 451.612 620.703 452.08C620.451 452.547 620.325 453.104 620.325 453.751H617.066C617.066 452.55 617.34 451.507 617.887 450.621C618.435 449.734 619.189 449.048 620.15 448.562C621.116 448.076 622.224 447.832 623.473 447.832C624.741 447.832 625.855 448.069 626.816 448.543C627.776 449.017 628.521 449.667 629.05 450.491C629.586 451.316 629.853 452.258 629.853 453.317C629.853 454.025 629.718 454.72 629.447 455.403C629.176 456.087 628.699 456.844 628.016 457.675C627.339 458.506 626.388 459.512 625.163 460.694L621.904 464.009V464.138H630.14V467H617.176ZM640.25 467.259C639.345 467.252 638.462 467.095 637.6 466.788C636.738 466.474 635.962 465.966 635.273 465.264C634.584 464.556 634.036 463.618 633.63 462.448C633.223 461.272 633.023 459.817 633.029 458.081C633.029 456.462 633.202 455.019 633.547 453.751C633.891 452.483 634.387 451.412 635.033 450.538C635.679 449.657 636.458 448.987 637.369 448.525C638.286 448.063 639.311 447.832 640.444 447.832C641.632 447.832 642.684 448.066 643.601 448.534C644.525 449.002 645.269 449.642 645.836 450.455C646.402 451.261 646.753 452.172 646.888 453.188H643.518C643.346 452.461 642.992 451.883 642.456 451.452C641.927 451.015 641.256 450.796 640.444 450.796C639.132 450.796 638.123 451.366 637.415 452.504C636.713 453.643 636.359 455.206 636.353 457.195H636.483C636.784 456.653 637.175 456.188 637.655 455.8C638.135 455.413 638.677 455.114 639.28 454.905C639.89 454.689 640.533 454.582 641.21 454.582C642.318 454.582 643.312 454.846 644.192 455.376C645.078 455.905 645.78 456.634 646.297 457.564C646.814 458.487 647.07 459.546 647.064 460.74C647.07 461.983 646.787 463.101 646.214 464.092C645.642 465.076 644.845 465.852 643.823 466.418C642.801 466.985 641.61 467.265 640.25 467.259ZM640.231 464.489C640.902 464.489 641.502 464.326 642.032 463.999C642.561 463.673 642.98 463.233 643.287 462.679C643.595 462.125 643.746 461.503 643.74 460.814C643.746 460.137 643.598 459.524 643.297 458.977C643.001 458.429 642.592 457.995 642.069 457.675C641.545 457.355 640.948 457.195 640.277 457.195C639.779 457.195 639.314 457.29 638.883 457.481C638.452 457.672 638.077 457.936 637.757 458.275C637.437 458.607 637.184 458.995 637 459.438C636.821 459.875 636.729 460.343 636.723 460.842C636.729 461.5 636.883 462.107 637.184 462.661C637.486 463.214 637.901 463.658 638.431 463.99C638.96 464.322 639.56 464.489 640.231 464.489Z" fill="#6C757D"/>
<path d="M57.9763 536V533.526L64.5409 527.09C65.1688 526.456 65.692 525.893 66.1105 525.401C66.5291 524.908 66.843 524.431 67.0523 523.969C67.2616 523.508 67.3662 523.015 67.3662 522.492C67.3662 521.895 67.2308 521.384 66.96 520.96C66.6891 520.529 66.3167 520.196 65.8428 519.962C65.3688 519.728 64.8302 519.612 64.227 519.612C63.6053 519.612 63.0606 519.741 62.5928 519.999C62.125 520.252 61.7618 520.612 61.5033 521.08C61.2509 521.547 61.1247 522.104 61.1247 522.751H57.8655C57.8655 521.55 58.1394 520.507 58.6872 519.621C59.2351 518.734 59.9891 518.048 60.9493 517.562C61.9157 517.076 63.0236 516.832 64.2732 516.832C65.5412 516.832 66.6553 517.069 67.6155 517.543C68.5757 518.017 69.3205 518.667 69.8499 519.491C70.3854 520.316 70.6531 521.258 70.6531 522.317C70.6531 523.025 70.5177 523.72 70.2469 524.403C69.9761 525.087 69.499 525.844 68.8158 526.675C68.1387 527.506 67.1877 528.512 65.9628 529.694L62.7036 533.009V533.138H70.9394V536H57.9763ZM74.8172 536L82.8591 520.082V519.953H73.5246V517.091H86.4046V520.018L78.3719 536H74.8172Z" fill="#6C757D"/>
<path d="M152.715 536V533.526L159.279 527.09C159.907 526.456 160.43 525.893 160.849 525.401C161.267 524.908 161.581 524.431 161.791 523.969C162 523.508 162.104 523.015 162.104 522.492C162.104 521.895 161.969 521.384 161.698 520.96C161.427 520.529 161.055 520.196 160.581 519.962C160.107 519.728 159.569 519.612 158.965 519.612C158.344 519.612 157.799 519.741 157.331 519.999C156.863 520.252 156.5 520.612 156.242 521.08C155.989 521.547 155.863 522.104 155.863 522.751H152.604C152.604 521.55 152.878 520.507 153.426 519.621C153.973 518.734 154.727 518.048 155.688 517.562C156.654 517.076 157.762 516.832 159.011 516.832C160.279 516.832 161.394 517.069 162.354 517.543C163.314 518.017 164.059 518.667 164.588 519.491C165.124 520.316 165.391 521.258 165.391 522.317C165.391 523.025 165.256 523.72 164.985 524.403C164.714 525.087 164.237 525.844 163.554 526.675C162.877 527.506 161.926 528.512 160.701 529.694L157.442 533.009V533.138H165.678V536H152.715ZM175.585 536.259C174.212 536.259 172.993 536.028 171.928 535.566C170.87 535.104 170.039 534.473 169.435 533.673C168.838 532.867 168.543 531.953 168.549 530.931C168.543 530.137 168.715 529.408 169.066 528.743C169.417 528.078 169.891 527.524 170.488 527.081C171.091 526.632 171.762 526.345 172.501 526.222V526.093C171.528 525.878 170.74 525.382 170.137 524.607C169.54 523.825 169.245 522.923 169.251 521.901C169.245 520.929 169.515 520.061 170.063 519.298C170.611 518.534 171.362 517.934 172.316 517.497C173.27 517.054 174.36 516.832 175.585 516.832C176.797 516.832 177.877 517.054 178.825 517.497C179.779 517.934 180.53 518.534 181.078 519.298C181.632 520.061 181.909 520.929 181.909 521.901C181.909 522.923 181.604 523.825 180.995 524.607C180.392 525.382 179.613 525.878 178.659 526.093V526.222C179.398 526.345 180.063 526.632 180.653 527.081C181.251 527.524 181.725 528.078 182.075 528.743C182.432 529.408 182.611 530.137 182.611 530.931C182.611 531.953 182.309 532.867 181.706 533.673C181.103 534.473 180.272 535.104 179.213 535.566C178.161 536.028 176.951 536.259 175.585 536.259ZM175.585 533.618C176.292 533.618 176.908 533.498 177.431 533.258C177.954 533.012 178.361 532.667 178.65 532.224C178.939 531.781 179.087 531.27 179.093 530.691C179.087 530.088 178.93 529.555 178.622 529.094C178.321 528.626 177.905 528.26 177.376 527.995C176.853 527.73 176.256 527.598 175.585 527.598C174.908 527.598 174.304 527.73 173.775 527.995C173.246 528.26 172.827 528.626 172.519 529.094C172.218 529.555 172.07 530.088 172.076 530.691C172.07 531.27 172.212 531.781 172.501 532.224C172.79 532.661 173.196 533.002 173.72 533.249C174.249 533.495 174.871 533.618 175.585 533.618ZM175.585 525.004C176.163 525.004 176.674 524.887 177.117 524.653C177.567 524.419 177.921 524.093 178.179 523.674C178.438 523.255 178.57 522.772 178.576 522.224C178.57 521.683 178.441 521.209 178.188 520.803C177.936 520.39 177.585 520.073 177.136 519.852C176.686 519.624 176.169 519.51 175.585 519.51C174.988 519.51 174.461 519.624 174.006 519.852C173.556 520.073 173.206 520.39 172.953 520.803C172.707 521.209 172.587 521.683 172.593 522.224C172.587 522.772 172.71 523.255 172.962 523.674C173.221 524.086 173.575 524.413 174.024 524.653C174.48 524.887 175 525.004 175.585 525.004Z" fill="#6C757D"/>
<path d="M248.176 536V533.526L254.741 527.09C255.369 526.456 255.892 525.893 256.311 525.401C256.729 524.908 257.043 524.431 257.252 523.969C257.462 523.508 257.566 523.015 257.566 522.492C257.566 521.895 257.431 521.384 257.16 520.96C256.889 520.529 256.517 520.196 256.043 519.962C255.569 519.728 255.03 519.612 254.427 519.612C253.806 519.612 253.261 519.741 252.793 519.999C252.325 520.252 251.962 520.612 251.703 521.08C251.451 521.547 251.325 522.104 251.325 522.751H248.066C248.066 521.55 248.34 520.507 248.887 519.621C249.435 518.734 250.189 518.048 251.15 517.562C252.116 517.076 253.224 516.832 254.473 516.832C255.741 516.832 256.855 517.069 257.816 517.543C258.776 518.017 259.521 518.667 260.05 519.491C260.586 520.316 260.853 521.258 260.853 522.317C260.853 523.025 260.718 523.72 260.447 524.403C260.176 525.087 259.699 525.844 259.016 526.675C258.339 527.506 257.388 528.512 256.163 529.694L252.904 533.009V533.138H261.14V536H248.176ZM270.89 516.832C271.794 516.839 272.675 516.999 273.53 517.312C274.392 517.62 275.167 518.125 275.857 518.827C276.546 519.522 277.094 520.455 277.5 521.624C277.907 522.794 278.11 524.24 278.11 525.964C278.116 527.589 277.944 529.041 277.593 530.322C277.248 531.596 276.752 532.673 276.106 533.553C275.46 534.433 274.681 535.104 273.77 535.566C272.859 536.028 271.834 536.259 270.696 536.259C269.502 536.259 268.443 536.025 267.52 535.557C266.602 535.089 265.861 534.449 265.294 533.636C264.728 532.824 264.38 531.894 264.251 530.848H267.621C267.793 531.599 268.144 532.196 268.674 532.639C269.209 533.076 269.883 533.295 270.696 533.295C272.007 533.295 273.016 532.725 273.724 531.587C274.432 530.448 274.786 528.866 274.786 526.841H274.657C274.355 527.383 273.964 527.85 273.484 528.244C273.004 528.632 272.459 528.931 271.85 529.14C271.247 529.349 270.606 529.454 269.929 529.454C268.821 529.454 267.824 529.189 266.938 528.66C266.058 528.13 265.359 527.404 264.842 526.481C264.331 525.558 264.073 524.502 264.066 523.314C264.066 522.083 264.35 520.978 264.916 519.999C265.488 519.014 266.285 518.239 267.307 517.673C268.329 517.1 269.523 516.82 270.89 516.832ZM270.899 519.602C270.234 519.602 269.634 519.765 269.098 520.092C268.569 520.412 268.15 520.849 267.843 521.403C267.541 521.951 267.39 522.563 267.39 523.24C267.396 523.911 267.547 524.52 267.843 525.068C268.144 525.616 268.554 526.05 269.071 526.37C269.594 526.69 270.191 526.85 270.862 526.85C271.36 526.85 271.825 526.755 272.256 526.564C272.687 526.373 273.062 526.108 273.382 525.77C273.709 525.425 273.961 525.034 274.14 524.597C274.324 524.16 274.413 523.699 274.407 523.212C274.407 522.566 274.253 521.969 273.946 521.421C273.644 520.873 273.229 520.433 272.699 520.101C272.176 519.768 271.576 519.602 270.899 519.602Z" fill="#6C757D"/>
<path d="M351.828 536.259C350.498 536.259 349.317 536.031 348.282 535.575C347.255 535.12 346.442 534.486 345.845 533.673C345.248 532.861 344.931 531.922 344.894 530.857H348.366C348.396 531.368 348.566 531.814 348.873 532.196C349.181 532.571 349.59 532.864 350.101 533.073C350.612 533.282 351.185 533.387 351.819 533.387C352.496 533.387 353.096 533.27 353.619 533.036C354.142 532.796 354.552 532.464 354.847 532.039C355.143 531.614 355.287 531.125 355.281 530.571C355.287 529.999 355.14 529.494 354.838 529.057C354.536 528.62 354.099 528.278 353.527 528.032C352.961 527.786 352.277 527.663 351.477 527.663H349.806V525.022H351.477C352.136 525.022 352.711 524.908 353.204 524.68C353.702 524.453 354.093 524.133 354.376 523.72C354.659 523.302 354.798 522.818 354.792 522.271C354.798 521.735 354.678 521.27 354.432 520.876C354.192 520.476 353.85 520.165 353.407 519.944C352.97 519.722 352.456 519.612 351.865 519.612C351.286 519.612 350.751 519.716 350.258 519.925C349.766 520.135 349.369 520.433 349.067 520.821C348.766 521.203 348.606 521.658 348.587 522.188H345.291C345.316 521.129 345.62 520.199 346.205 519.399C346.796 518.593 347.584 517.965 348.569 517.516C349.554 517.06 350.658 516.832 351.883 516.832C353.145 516.832 354.241 517.069 355.17 517.543C356.106 518.011 356.829 518.642 357.34 519.436C357.851 520.23 358.106 521.107 358.106 522.067C358.113 523.132 357.799 524.025 357.165 524.745C356.537 525.465 355.712 525.936 354.69 526.158V526.305C356.02 526.49 357.038 526.982 357.746 527.783C358.46 528.577 358.814 529.565 358.808 530.746C358.808 531.805 358.506 532.753 357.903 533.59C357.306 534.421 356.481 535.074 355.429 535.548C354.382 536.022 353.182 536.259 351.828 536.259ZM368.967 536.36C367.446 536.36 366.141 535.975 365.052 535.206C363.969 534.43 363.134 533.313 362.55 531.854C361.971 530.389 361.682 528.626 361.682 526.564C361.688 524.502 361.98 522.748 362.559 521.301C363.144 519.848 363.978 518.741 365.061 517.977C366.151 517.214 367.452 516.832 368.967 516.832C370.481 516.832 371.783 517.214 372.872 517.977C373.962 518.741 374.796 519.848 375.374 521.301C375.959 522.754 376.251 524.508 376.251 526.564C376.251 528.632 375.959 530.399 375.374 531.864C374.796 533.322 373.962 534.437 372.872 535.206C371.789 535.975 370.487 536.36 368.967 536.36ZM368.967 533.47C370.148 533.47 371.081 532.888 371.764 531.725C372.454 530.556 372.798 528.835 372.798 526.564C372.798 525.062 372.641 523.8 372.327 522.778C372.013 521.757 371.57 520.987 370.998 520.47C370.425 519.947 369.748 519.685 368.967 519.685C367.791 519.685 366.862 520.27 366.178 521.44C365.495 522.603 365.15 524.311 365.144 526.564C365.138 528.072 365.289 529.34 365.597 530.368C365.911 531.396 366.354 532.171 366.926 532.695C367.499 533.212 368.179 533.47 368.967 533.47Z" fill="#6C757D"/>
<path d="M500.163 89V85.1932L510.263 75.2926C511.229 74.3172 512.034 73.4508 512.678 72.6932C513.321 71.9356 513.804 71.2017 514.126 70.4915C514.448 69.7812 514.609 69.0237 514.609 68.2188C514.609 67.3002 514.401 66.5142 513.984 65.8608C513.568 65.1979 512.995 64.6866 512.266 64.3267C511.536 63.9669 510.708 63.7869 509.78 63.7869C508.823 63.7869 507.985 63.9858 507.266 64.3835C506.546 64.7718 505.987 65.3258 505.589 66.0455C505.201 66.7652 505.007 67.6222 505.007 68.6165H499.993C499.993 66.7699 500.414 65.1648 501.257 63.8011C502.1 62.4375 503.26 61.3816 504.737 60.6335C506.224 59.8854 507.929 59.5114 509.851 59.5114C511.802 59.5114 513.516 59.8759 514.993 60.6051C516.47 61.3343 517.616 62.3333 518.43 63.6023C519.254 64.8712 519.666 66.3201 519.666 67.9489C519.666 69.0379 519.458 70.108 519.041 71.1591C518.625 72.2102 517.891 73.375 516.839 74.6534C515.798 75.9318 514.335 77.4801 512.45 79.2983L507.436 84.3977V84.5966H520.107V89H500.163ZM535.76 89.554C533.421 89.554 531.413 88.9621 529.737 87.7784C528.071 86.5852 526.787 84.8665 525.888 82.6222C524.998 80.3684 524.553 77.6553 524.553 74.483C524.562 71.3106 525.012 68.6117 525.902 66.3864C526.802 64.1515 528.085 62.447 529.751 61.2727C531.428 60.0985 533.43 59.5114 535.76 59.5114C538.089 59.5114 540.092 60.0985 541.768 61.2727C543.445 62.447 544.728 64.1515 545.618 66.3864C546.518 68.6212 546.967 71.3201 546.967 74.483C546.967 77.6648 546.518 80.3826 545.618 82.6364C544.728 84.8807 543.445 86.5947 541.768 87.7784C540.102 88.9621 538.099 89.554 535.76 89.554ZM535.76 85.108C537.578 85.108 539.013 84.2131 540.064 82.4233C541.125 80.6241 541.655 77.9773 541.655 74.483C541.655 72.1723 541.413 70.2311 540.93 68.6591C540.447 67.0871 539.766 65.9034 538.885 65.108C538.004 64.303 536.963 63.9006 535.76 63.9006C533.951 63.9006 532.521 64.8002 531.47 66.5994C530.419 68.3892 529.889 71.017 529.879 74.483C529.87 76.803 530.102 78.7538 530.575 80.3352C531.058 81.9167 531.74 83.1098 532.621 83.9148C533.501 84.7102 534.548 85.108 535.76 85.108ZM551.687 89V85.1932L561.786 75.2926C562.752 74.3172 563.557 73.4508 564.201 72.6932C564.845 71.9356 565.328 71.2017 565.65 70.4915C565.972 69.7812 566.133 69.0237 566.133 68.2188C566.133 67.3002 565.924 66.5142 565.508 65.8608C565.091 65.1979 564.518 64.6866 563.789 64.3267C563.06 63.9669 562.231 63.7869 561.303 63.7869C560.347 63.7869 559.509 63.9858 558.789 64.3835C558.069 64.7718 557.511 65.3258 557.113 66.0455C556.725 66.7652 556.531 67.6222 556.531 68.6165H551.516C551.516 66.7699 551.938 65.1648 552.781 63.8011C553.623 62.4375 554.783 61.3816 556.261 60.6335C557.747 59.8854 559.452 59.5114 561.374 59.5114C563.325 59.5114 565.039 59.8759 566.516 60.6051C567.994 61.3343 569.139 62.3333 569.954 63.6023C570.778 64.8712 571.19 66.3201 571.19 67.9489C571.19 69.0379 570.981 70.108 570.565 71.1591C570.148 72.2102 569.414 73.375 568.363 74.6534C567.321 75.9318 565.858 77.4801 563.974 79.2983L558.96 84.3977V84.5966H571.63V89H551.687ZM586.971 89.3977C584.925 89.3977 583.107 89.0473 581.516 88.3466C579.935 87.6458 578.685 86.6705 577.766 85.4205C576.848 84.1705 576.36 82.7263 576.303 81.0881H581.644C581.692 81.8741 581.952 82.5606 582.425 83.1477C582.899 83.7254 583.529 84.1752 584.315 84.4972C585.101 84.8191 585.981 84.9801 586.957 84.9801C587.998 84.9801 588.922 84.8002 589.727 84.4403C590.531 84.071 591.161 83.5597 591.616 82.9062C592.07 82.2528 592.293 81.5 592.283 80.6477C592.293 79.767 592.066 78.9905 591.602 78.3182C591.138 77.6458 590.465 77.1203 589.585 76.7415C588.713 76.3627 587.662 76.1733 586.431 76.1733H583.86V72.1108H586.431C587.444 72.1108 588.33 71.9356 589.087 71.5852C589.854 71.2348 590.456 70.7424 590.891 70.108C591.327 69.464 591.54 68.7206 591.531 67.8778C591.54 67.054 591.355 66.339 590.977 65.733C590.607 65.1174 590.082 64.6392 589.4 64.2983C588.728 63.9574 587.937 63.7869 587.028 63.7869C586.138 63.7869 585.314 63.9479 584.556 64.2699C583.799 64.5919 583.188 65.0511 582.724 65.6477C582.26 66.2348 582.013 66.9356 581.985 67.75H576.914C576.952 66.1212 577.421 64.6913 578.32 63.4602C579.229 62.2197 580.442 61.2538 581.957 60.5625C583.472 59.8617 585.172 59.5114 587.056 59.5114C588.997 59.5114 590.683 59.8759 592.113 60.6051C593.552 61.3248 594.665 62.2955 595.451 63.517C596.237 64.7386 596.63 66.0881 596.63 67.5653C596.639 69.2036 596.156 70.5767 595.181 71.6847C594.215 72.7926 592.946 73.517 591.374 73.858V74.0852C593.42 74.3693 594.987 75.1269 596.076 76.358C597.174 77.5795 597.719 79.0994 597.71 80.9176C597.71 82.5464 597.246 84.0047 596.317 85.2926C595.399 86.571 594.13 87.5748 592.511 88.304C590.901 89.0331 589.054 89.3977 586.971 89.3977Z" fill="#3A86FF"/>
</svg>
