<svg width="371" height="508" viewBox="0 0 371 508" fill="none" xmlns="http://www.w3.org/2000/svg">
<rect width="371" height="508" fill="white"/>
<path d="M30.6548 62.8182V73H29.1186V62.8182H30.6548ZM34.2592 68.4659V73H32.7727V65.3636H34.1996V66.6065H34.294C34.4697 66.2022 34.7448 65.8774 35.1193 65.6321C35.4972 65.3868 35.9728 65.2642 36.5462 65.2642C37.0665 65.2642 37.5223 65.3736 37.9134 65.5923C38.3045 65.8078 38.6077 66.1293 38.8232 66.5568C39.0386 66.9844 39.1463 67.513 39.1463 68.1428V73H37.6598V68.3217C37.6598 67.7682 37.5156 67.3357 37.2273 67.0241C36.9389 66.7093 36.5429 66.5518 36.0391 66.5518C35.6944 66.5518 35.3878 66.6264 35.1193 66.7756C34.8542 66.9247 34.6437 67.1435 34.4879 67.4318C34.3355 67.7169 34.2592 68.0616 34.2592 68.4659ZM48.4096 65.3636V66.5568H44.2385V65.3636H48.4096ZM45.3571 63.5341H46.8436V70.7578C46.8436 71.0462 46.8867 71.2633 46.9728 71.4091C47.059 71.5516 47.17 71.6494 47.3059 71.7024C47.4451 71.7521 47.5959 71.777 47.7583 71.777C47.8777 71.777 47.9821 71.7687 48.0716 71.7521C48.161 71.7356 48.2306 71.7223 48.2804 71.7124L48.5488 72.9403C48.4627 72.9735 48.34 73.0066 48.1809 73.0398C48.0218 73.0762 47.823 73.0961 47.5843 73.0994C47.1932 73.1061 46.8287 73.0365 46.4906 72.8906C46.1525 72.7448 45.8791 72.5194 45.6703 72.2145C45.4615 71.9096 45.3571 71.5268 45.3571 71.0661V63.5341ZM51.7045 68.4659V73H50.218V62.8182H51.6847V66.6065H51.7791C51.9581 66.1955 52.2315 65.8691 52.5994 65.6271C52.9673 65.3852 53.4479 65.2642 54.0412 65.2642C54.5649 65.2642 55.0223 65.3719 55.4134 65.5874C55.8078 65.8028 56.1127 66.1243 56.3281 66.5518C56.5469 66.9761 56.6562 67.5064 56.6562 68.1428V73H55.1697V68.3217C55.1697 67.7616 55.0256 67.3274 54.7372 67.0192C54.4489 66.7076 54.0478 66.5518 53.5341 66.5518C53.1828 66.5518 52.8679 66.6264 52.5895 66.7756C52.3144 66.9247 52.0973 67.1435 51.9382 67.4318C51.7824 67.7169 51.7045 68.0616 51.7045 68.4659ZM61.9311 73.1541C61.1787 73.1541 60.5308 72.9934 59.9872 72.6719C59.447 72.3471 59.0294 71.8913 58.7344 71.3047C58.4427 70.7147 58.2969 70.0237 58.2969 69.2315C58.2969 68.4493 58.4427 67.7599 58.7344 67.1634C59.0294 66.5668 59.4403 66.1011 59.9673 65.7663C60.4976 65.4316 61.1174 65.2642 61.8267 65.2642C62.2576 65.2642 62.6752 65.3355 63.0795 65.478C63.4839 65.6205 63.8468 65.8442 64.1683 66.1491C64.4898 66.4541 64.7434 66.8501 64.929 67.3374C65.1146 67.8213 65.2074 68.4096 65.2074 69.1023V69.6293H59.1371V68.5156H63.7507C63.7507 68.1245 63.6712 67.7782 63.5121 67.4766C63.353 67.1716 63.1293 66.9313 62.8409 66.7557C62.5559 66.58 62.2211 66.4922 61.8366 66.4922C61.419 66.4922 61.0545 66.5949 60.7429 66.8004C60.4347 67.0026 60.196 67.2678 60.027 67.5959C59.8613 67.9207 59.7784 68.2737 59.7784 68.6548V69.5249C59.7784 70.0353 59.8679 70.4695 60.0469 70.8274C60.2292 71.1854 60.4827 71.4588 60.8075 71.6477C61.1323 71.8333 61.5118 71.9261 61.946 71.9261C62.2277 71.9261 62.4846 71.8864 62.7166 71.8068C62.9486 71.724 63.1491 71.6013 63.3182 71.4389C63.4872 71.2765 63.6165 71.076 63.706 70.8374L65.1129 71.0909C65.0002 71.5052 64.7981 71.8681 64.5064 72.1797C64.218 72.4879 63.8551 72.7282 63.4176 72.9006C62.9834 73.0696 62.4879 73.1541 61.9311 73.1541ZM70.5618 75.8636V65.3636H72.0135V66.6016H72.1378C72.224 66.4425 72.3482 66.2585 72.5107 66.0497C72.6731 65.8409 72.8984 65.6586 73.1868 65.5028C73.4751 65.3438 73.8563 65.2642 74.3303 65.2642C74.9467 65.2642 75.4969 65.42 75.9808 65.7315C76.4647 66.0431 76.8442 66.4922 77.1193 67.0788C77.3977 67.6655 77.5369 68.3714 77.5369 69.1967C77.5369 70.022 77.3994 70.7296 77.1243 71.3196C76.8492 71.9062 76.4714 72.3587 75.9908 72.6768C75.5102 72.9917 74.9616 73.1491 74.3452 73.1491C73.8812 73.1491 73.5017 73.0713 73.2067 72.9155C72.915 72.7597 72.6863 72.5774 72.5206 72.3686C72.3549 72.1598 72.2273 71.9742 72.1378 71.8118H72.0483V75.8636H70.5618ZM72.0185 69.1818C72.0185 69.7187 72.0964 70.1894 72.2521 70.5938C72.4079 70.9981 72.6333 71.3146 72.9283 71.5433C73.2232 71.7687 73.5845 71.8814 74.0121 71.8814C74.4562 71.8814 74.8274 71.7637 75.1257 71.5284C75.424 71.2898 75.6494 70.9666 75.8018 70.5589C75.9576 70.1513 76.0355 69.6922 76.0355 69.1818C76.0355 68.678 75.9593 68.2256 75.8068 67.8246C75.6577 67.4235 75.4323 67.107 75.1307 66.875C74.8324 66.643 74.4595 66.527 74.0121 66.527C73.5812 66.527 73.2166 66.638 72.9183 66.8601C72.6233 67.0821 72.3996 67.392 72.2472 67.7898C72.0947 68.1875 72.0185 68.6515 72.0185 69.1818ZM81.4247 73.169C80.9408 73.169 80.5033 73.0795 80.1122 72.9006C79.7211 72.7183 79.4112 72.4548 79.1825 72.1101C78.9571 71.7654 78.8445 71.3428 78.8445 70.8423C78.8445 70.4115 78.9273 70.0568 79.093 69.7784C79.2588 69.5 79.4825 69.2796 79.7642 69.1172C80.0459 68.9548 80.3608 68.8321 80.7088 68.7493C81.0568 68.6664 81.4115 68.6035 81.7727 68.5604C82.2301 68.5073 82.6013 68.4643 82.8864 68.4311C83.1714 68.3946 83.3786 68.3366 83.5078 68.2571C83.6371 68.1776 83.7017 68.0483 83.7017 67.8693V67.8345C83.7017 67.4003 83.5791 67.0639 83.3338 66.8253C83.0919 66.5866 82.7306 66.4673 82.25 66.4673C81.7495 66.4673 81.3551 66.5784 81.0668 66.8004C80.7817 67.0192 80.5845 67.2628 80.4751 67.5312L79.0781 67.2131C79.2438 66.7491 79.4858 66.3745 79.804 66.0895C80.1255 65.8011 80.495 65.5923 80.9126 65.4631C81.3303 65.3305 81.7694 65.2642 82.2301 65.2642C82.535 65.2642 82.8582 65.3007 83.1996 65.3736C83.5443 65.4432 83.8658 65.5724 84.1641 65.7614C84.4657 65.9503 84.7126 66.2204 84.9048 66.5717C85.0971 66.9197 85.1932 67.3722 85.1932 67.929V73H83.7415V71.956H83.6818C83.5857 72.1482 83.4415 72.3371 83.2493 72.5227C83.0571 72.7083 82.8101 72.8625 82.5085 72.9851C82.2069 73.1077 81.8456 73.169 81.4247 73.169ZM81.7479 71.9759C82.1589 71.9759 82.5102 71.8946 82.8018 71.7322C83.0968 71.5698 83.3205 71.3577 83.473 71.0959C83.6288 70.8307 83.7067 70.5473 83.7067 70.2457V69.2614C83.6536 69.3144 83.5509 69.3641 83.3984 69.4105C83.2493 69.4536 83.0786 69.4917 82.8864 69.5249C82.6941 69.5547 82.5069 69.5829 82.3246 69.6094C82.1423 69.6326 81.9898 69.6525 81.8672 69.669C81.5788 69.7055 81.3153 69.7668 81.0767 69.853C80.8414 69.9392 80.6525 70.0634 80.5099 70.2259C80.3707 70.3849 80.3011 70.5971 80.3011 70.8622C80.3011 71.2301 80.437 71.5085 80.7088 71.6974C80.9806 71.883 81.3269 71.9759 81.7479 71.9759ZM92.8954 67.228L91.5481 67.4666C91.4918 67.2943 91.4023 67.1302 91.2797 66.9744C91.1603 66.8187 90.9979 66.6911 90.7924 66.5916C90.5869 66.4922 90.3301 66.4425 90.0218 66.4425C89.6009 66.4425 89.2496 66.5369 88.9679 66.7259C88.6861 66.9115 88.5453 67.1518 88.5453 67.4467C88.5453 67.7019 88.6397 67.9074 88.8287 68.0632C89.0176 68.219 89.3225 68.3466 89.7434 68.446L90.9565 68.7244C91.6592 68.8868 92.1828 69.1371 92.5275 69.4751C92.8722 69.8132 93.0446 70.2524 93.0446 70.7926C93.0446 71.25 92.912 71.6577 92.6468 72.0156C92.385 72.3703 92.0188 72.6487 91.5481 72.8509C91.0808 73.053 90.5389 73.1541 89.9224 73.1541C89.0673 73.1541 88.3696 72.9718 87.8294 72.6072C87.2891 72.2393 86.9577 71.7173 86.835 71.0412L88.2718 70.8224C88.3613 71.197 88.5453 71.4804 88.8237 71.6726C89.1021 71.8615 89.465 71.956 89.9125 71.956C90.3997 71.956 90.7891 71.8549 91.0808 71.6527C91.3725 71.4472 91.5183 71.197 91.5183 70.902C91.5183 70.6634 91.4288 70.4628 91.2498 70.3004C91.0742 70.138 90.804 70.0154 90.4395 69.9325L89.1468 69.6491C88.4342 69.4867 87.9073 69.2282 87.5659 68.8736C87.2278 68.5189 87.0588 68.0698 87.0588 67.5263C87.0588 67.0755 87.1847 66.6811 87.4366 66.343C87.6885 66.005 88.0365 65.7415 88.4806 65.5526C88.9248 65.3603 89.4335 65.2642 90.0069 65.2642C90.8322 65.2642 91.4818 65.4432 91.9558 65.8011C92.4297 66.1558 92.743 66.6314 92.8954 67.228ZM98.2436 65.3636V66.5568H94.0724V65.3636H98.2436ZM95.1911 63.5341H96.6776V70.7578C96.6776 71.0462 96.7206 71.2633 96.8068 71.4091C96.893 71.5516 97.004 71.6494 97.1399 71.7024C97.2791 71.7521 97.4299 71.777 97.5923 71.777C97.7116 71.777 97.8161 71.7687 97.9055 71.7521C97.995 71.7356 98.0646 71.7223 98.1143 71.7124L98.3828 72.9403C98.2966 72.9735 98.174 73.0066 98.0149 73.0398C97.8558 73.0762 97.657 73.0961 97.4183 73.0994C97.0272 73.1061 96.6626 73.0365 96.3246 72.8906C95.9865 72.7448 95.7131 72.5194 95.5043 72.2145C95.2955 71.9096 95.1911 71.5268 95.1911 71.0661V63.5341ZM103.916 73L108.361 64.2102V64.1357H103.22V62.8182H109.952V64.1804L105.522 73H103.916ZM118.264 73.1491C117.648 73.1491 117.098 72.9917 116.614 72.6768C116.133 72.3587 115.755 71.9062 115.48 71.3196C115.208 70.7296 115.072 70.022 115.072 69.1967C115.072 68.3714 115.21 67.6655 115.485 67.0788C115.763 66.4922 116.145 66.0431 116.629 65.7315C117.112 65.42 117.661 65.2642 118.274 65.2642C118.748 65.2642 119.129 65.3438 119.418 65.5028C119.709 65.6586 119.935 65.8409 120.094 66.0497C120.256 66.2585 120.382 66.4425 120.472 66.6016H120.561V62.8182H122.048V73H120.596V71.8118H120.472C120.382 71.9742 120.253 72.1598 120.084 72.3686C119.918 72.5774 119.689 72.7597 119.398 72.9155C119.106 73.0713 118.728 73.1491 118.264 73.1491ZM118.592 71.8814C119.02 71.8814 119.381 71.7687 119.676 71.5433C119.974 71.3146 120.2 70.9981 120.352 70.5938C120.508 70.1894 120.586 69.7187 120.586 69.1818C120.586 68.6515 120.51 68.1875 120.357 67.7898C120.205 67.392 119.981 67.0821 119.686 66.8601C119.391 66.638 119.027 66.527 118.592 66.527C118.145 66.527 117.772 66.643 117.474 66.875C117.175 67.107 116.95 67.4235 116.798 67.8246C116.648 68.2256 116.574 68.678 116.574 69.1818C116.574 69.6922 116.65 70.1513 116.803 70.5589C116.955 70.9666 117.18 71.2898 117.479 71.5284C117.78 71.7637 118.152 71.8814 118.592 71.8814ZM126.392 73.169C125.908 73.169 125.47 73.0795 125.079 72.9006C124.688 72.7183 124.378 72.4548 124.149 72.1101C123.924 71.7654 123.811 71.3428 123.811 70.8423C123.811 70.4115 123.894 70.0568 124.06 69.7784C124.226 69.5 124.449 69.2796 124.731 69.1172C125.013 68.9548 125.328 68.8321 125.676 68.7493C126.024 68.6664 126.378 68.6035 126.74 68.5604C127.197 68.5073 127.568 68.4643 127.853 68.4311C128.138 68.3946 128.345 68.3366 128.475 68.2571C128.604 68.1776 128.669 68.0483 128.669 67.8693V67.8345C128.669 67.4003 128.546 67.0639 128.301 66.8253C128.059 66.5866 127.697 66.4673 127.217 66.4673C126.716 66.4673 126.322 66.5784 126.034 66.8004C125.749 67.0192 125.551 67.2628 125.442 67.5312L124.045 67.2131C124.211 66.7491 124.453 66.3745 124.771 66.0895C125.092 65.8011 125.462 65.5923 125.879 65.4631C126.297 65.3305 126.736 65.2642 127.197 65.2642C127.502 65.2642 127.825 65.3007 128.166 65.3736C128.511 65.4432 128.833 65.5724 129.131 65.7614C129.432 65.9503 129.679 66.2204 129.872 66.5717C130.064 66.9197 130.16 67.3722 130.16 67.929V73H128.708V71.956H128.649C128.552 72.1482 128.408 72.3371 128.216 72.5227C128.024 72.7083 127.777 72.8625 127.475 72.9851C127.174 73.1077 126.812 73.169 126.392 73.169ZM126.715 71.9759C127.126 71.9759 127.477 71.8946 127.769 71.7322C128.064 71.5698 128.287 71.3577 128.44 71.0959C128.596 70.8307 128.673 70.5473 128.673 70.2457V69.2614C128.62 69.3144 128.518 69.3641 128.365 69.4105C128.216 69.4536 128.045 69.4917 127.853 69.5249C127.661 69.5547 127.474 69.5829 127.291 69.6094C127.109 69.6326 126.957 69.6525 126.834 69.669C126.546 69.7055 126.282 69.7668 126.044 69.853C125.808 69.9392 125.619 70.0634 125.477 70.2259C125.338 70.3849 125.268 70.5971 125.268 70.8622C125.268 71.2301 125.404 71.5085 125.676 71.6974C125.947 71.883 126.294 71.9759 126.715 71.9759ZM132.806 75.8636C132.584 75.8636 132.382 75.8454 132.2 75.8089C132.017 75.7758 131.881 75.7393 131.792 75.6996L132.15 74.4815C132.422 74.5545 132.664 74.5859 132.876 74.576C133.088 74.5661 133.275 74.4865 133.438 74.3374C133.603 74.1882 133.749 73.9446 133.875 73.6065L134.059 73.0994L131.265 65.3636H132.856L134.79 71.2898H134.869L136.803 65.3636H138.399L135.252 74.0192C135.106 74.4169 134.921 74.7533 134.695 75.0284C134.47 75.3068 134.201 75.5156 133.89 75.6548C133.578 75.794 133.217 75.8636 132.806 75.8636ZM145.518 67.228L144.171 67.4666C144.115 67.2943 144.025 67.1302 143.903 66.9744C143.783 66.8187 143.621 66.6911 143.415 66.5916C143.21 66.4922 142.953 66.4425 142.645 66.4425C142.224 66.4425 141.873 66.5369 141.591 66.7259C141.309 66.9115 141.168 67.1518 141.168 67.4467C141.168 67.7019 141.263 67.9074 141.452 68.0632C141.641 68.219 141.946 68.3466 142.366 68.446L143.58 68.7244C144.282 68.8868 144.806 69.1371 145.151 69.4751C145.495 69.8132 145.668 70.2524 145.668 70.7926C145.668 71.25 145.535 71.6577 145.27 72.0156C145.008 72.3703 144.642 72.6487 144.171 72.8509C143.704 73.053 143.162 73.1541 142.545 73.1541C141.69 73.1541 140.993 72.9718 140.452 72.6072C139.912 72.2393 139.581 71.7173 139.458 71.0412L140.895 70.8224C140.984 71.197 141.168 71.4804 141.447 71.6726C141.725 71.8615 142.088 71.956 142.536 71.956C143.023 71.956 143.412 71.8549 143.704 71.6527C143.996 71.4472 144.141 71.197 144.141 70.902C144.141 70.6634 144.052 70.4628 143.873 70.3004C143.697 70.138 143.427 70.0154 143.062 69.9325L141.77 69.6491C141.057 69.4867 140.53 69.2282 140.189 68.8736C139.851 68.5189 139.682 68.0698 139.682 67.5263C139.682 67.0755 139.808 66.6811 140.06 66.343C140.312 66.005 140.66 65.7415 141.104 65.5526C141.548 65.3603 142.057 65.2642 142.63 65.2642C143.455 65.2642 144.105 65.4432 144.579 65.8011C145.053 66.1558 145.366 66.6314 145.518 67.228Z" fill="#141D40"/>
<rect x="28" y="28" width="95" height="19" rx="9.5" fill="#CEE8FF" fill-opacity="0.24"/>
<path d="M39.8182 42H36.8608V33.2727H39.8778C40.7443 33.2727 41.4886 33.4474 42.1108 33.7969C42.7358 34.1435 43.2159 34.642 43.5511 35.2926C43.8864 35.9432 44.054 36.7216 44.054 37.6278C44.054 38.5369 43.8849 39.3182 43.5469 39.9716C43.2116 40.625 42.7273 41.1264 42.0938 41.4759C41.4631 41.8253 40.7045 42 39.8182 42ZM38.4418 40.6321H39.7415C40.3494 40.6321 40.8565 40.5213 41.2628 40.2997C41.669 40.0753 41.9744 39.7415 42.179 39.2983C42.3835 38.8523 42.4858 38.2955 42.4858 37.6278C42.4858 36.9602 42.3835 36.4062 42.179 35.9659C41.9744 35.5227 41.6719 35.1918 41.2713 34.973C40.8736 34.7514 40.3793 34.6406 39.7884 34.6406H38.4418V40.6321ZM45.5561 42V33.2727H51.2322V34.598H47.1371V36.9673H50.9382V38.2926H47.1371V40.6747H51.2663V42H45.5561ZM54.0128 33.2727L56.2841 40.142H56.3736L58.6406 33.2727H60.3793L57.3026 42H55.3509L52.2784 33.2727H54.0128ZM63.1097 33.2727V42H61.5288V33.2727H63.1097ZM72.2919 36.2173H70.6982C70.6527 35.956 70.5689 35.7244 70.4467 35.5227C70.3246 35.3182 70.1726 35.1449 69.9908 35.0028C69.8089 34.8608 69.6016 34.7543 69.3686 34.6832C69.1385 34.6094 68.8899 34.5724 68.6229 34.5724C68.1484 34.5724 67.728 34.6918 67.3615 34.9304C66.995 35.1662 66.7081 35.5128 66.5007 35.9702C66.2933 36.4247 66.1896 36.9801 66.1896 37.6364C66.1896 38.304 66.2933 38.8665 66.5007 39.3239C66.7109 39.7784 66.9979 40.1222 67.3615 40.3551C67.728 40.5852 68.147 40.7003 68.6186 40.7003C68.88 40.7003 69.1243 40.6662 69.3516 40.598C69.5817 40.527 69.7876 40.4233 69.9695 40.2869C70.1541 40.1506 70.3089 39.983 70.4339 39.7841C70.5618 39.5852 70.6499 39.358 70.6982 39.1023L72.2919 39.1108C72.2322 39.5256 72.103 39.9148 71.9041 40.2784C71.7081 40.642 71.451 40.9631 71.1328 41.2415C70.8146 41.517 70.4425 41.733 70.0163 41.8892C69.5902 42.0426 69.1172 42.1193 68.5973 42.1193C67.8303 42.1193 67.1456 41.9418 66.5433 41.5866C65.9411 41.2315 65.4666 40.7188 65.12 40.0483C64.7734 39.3778 64.6001 38.5739 64.6001 37.6364C64.6001 36.696 64.7749 35.892 65.1243 35.2244C65.4737 34.554 65.9496 34.0412 66.5518 33.6861C67.1541 33.331 67.8359 33.1534 68.5973 33.1534C69.0831 33.1534 69.5348 33.2216 69.9524 33.358C70.37 33.4943 70.7422 33.6946 71.0689 33.9588C71.3956 34.2202 71.6641 34.5412 71.8743 34.9219C72.0874 35.2997 72.2266 35.7315 72.2919 36.2173ZM73.7397 42V33.2727H79.4158V34.598H75.3207V36.9673H79.1218V38.2926H75.3207V40.6747H79.4499V42H73.7397ZM83.6218 34.598V33.2727H90.5849V34.598H87.8874V42H86.3192V34.598H83.6218ZM91.3306 33.2727H93.1161L95.2511 37.1335H95.3363L97.4712 33.2727H99.2567L96.082 38.7443V42H94.5053V38.7443L91.3306 33.2727ZM100.376 42V33.2727H103.649C104.32 33.2727 104.882 33.3977 105.337 33.6477C105.794 33.8977 106.139 34.2415 106.372 34.679C106.608 35.1136 106.726 35.608 106.726 36.1619C106.726 36.7216 106.608 37.2187 106.372 37.6534C106.136 38.0881 105.788 38.4304 105.328 38.6804C104.868 38.9276 104.301 39.0511 103.628 39.0511H101.459V37.7514H103.415C103.807 37.7514 104.128 37.6832 104.378 37.5469C104.628 37.4105 104.813 37.223 104.932 36.9844C105.054 36.7457 105.115 36.4716 105.115 36.1619C105.115 35.8523 105.054 35.5795 104.932 35.3438C104.813 35.108 104.626 34.9247 104.374 34.794C104.124 34.6605 103.801 34.5938 103.406 34.5938H101.957V42H100.376ZM108.099 42V33.2727H113.775V34.598H109.68V36.9673H113.481V38.2926H109.68V40.6747H113.809V42H108.099Z" fill="#0B8AFF"/>
<g clip-path="url(#clip0_1321_39)">
<path opacity="0.25" d="M278.742 197.439C282.895 196.294 285.361 191.986 283.909 187.93C277.287 169.441 265.56 153.2 250.094 141.097C246.701 138.443 241.836 139.429 239.443 143.011V143.011C237.05 146.592 238.039 151.41 241.396 154.11C253.786 164.072 263.263 177.197 268.821 192.092C270.327 196.128 274.589 198.583 278.742 197.439V197.439Z" fill="#0B8AFF"/>
<path opacity="0.75" d="M147.222 134.962C145.485 131.02 140.865 129.206 137.064 131.233C126.973 136.614 117.823 143.631 109.993 152.014C100.386 162.301 92.9667 174.431 88.185 187.67C83.4033 200.908 81.3588 214.98 82.1751 229.031C82.8403 240.483 85.3945 251.728 89.7175 262.315C91.346 266.303 96.0591 267.86 99.914 265.938V265.938C103.769 264.015 105.3 259.341 103.725 255.332C100.314 246.651 98.2916 237.47 97.7488 228.127C97.0549 216.183 98.7928 204.222 102.857 192.969C106.922 181.717 113.228 171.406 121.394 162.662C127.782 155.822 135.205 150.052 143.375 145.555C147.149 143.478 148.958 138.904 147.222 134.962V134.962Z" fill="#0B8AFF"/>
<path d="M280.244 203.701C284.465 202.837 288.617 205.557 289.163 209.83C291.946 231.623 287.76 253.815 277.095 273.176C265.173 294.822 245.932 311.515 222.82 320.264C199.709 329.013 174.237 329.246 150.969 320.922C130.157 313.477 112.324 299.621 99.9775 281.448C97.5566 277.885 98.8671 273.097 102.602 270.95V270.95C106.336 268.802 111.077 270.113 113.545 273.644C124.01 288.617 138.903 300.038 156.223 306.234C176.001 313.31 197.652 313.111 217.297 305.674C236.942 298.238 253.297 284.049 263.431 265.65C272.306 249.537 275.903 231.117 273.829 212.967C273.34 208.687 276.024 204.565 280.244 203.701V203.701Z" fill="#0B8AFF"/>
<path opacity="0.5" d="M153.126 132.591C151.654 128.543 153.736 124.037 157.884 122.873C170.011 119.467 182.678 118.287 195.267 119.414C207.857 120.54 220.113 123.95 231.443 129.454C235.318 131.336 236.568 136.14 234.4 139.863V139.863C232.233 143.585 227.47 144.812 223.571 142.981C214.236 138.599 204.188 135.874 193.877 134.952C183.566 134.029 173.194 134.927 163.23 137.583C159.067 138.693 154.598 136.64 153.126 132.591V132.591Z" fill="#0B8AFF"/>
<path opacity="0.9" d="M154.158 241.497C151.719 241.497 149.541 241.077 147.624 240.237C145.718 239.396 144.209 238.23 143.096 236.739C141.995 235.235 141.403 233.495 141.32 231.518H146.896C146.967 232.596 147.328 233.531 147.979 234.324C148.642 235.105 149.506 235.709 150.571 236.135C151.636 236.561 152.82 236.774 154.122 236.774C155.554 236.774 156.821 236.526 157.922 236.028C159.035 235.531 159.905 234.839 160.532 233.951C161.159 233.051 161.473 232.016 161.473 230.844C161.473 229.625 161.159 228.553 160.532 227.63C159.916 226.695 159.011 225.961 157.815 225.428C156.632 224.896 155.199 224.629 153.518 224.629H150.447V220.155H153.518C154.868 220.155 156.052 219.912 157.07 219.427C158.099 218.942 158.904 218.267 159.484 217.403C160.064 216.527 160.354 215.503 160.354 214.331C160.354 213.206 160.1 212.23 159.591 211.401C159.094 210.561 158.384 209.904 157.46 209.43C156.549 208.957 155.472 208.72 154.229 208.72C153.045 208.72 151.938 208.939 150.908 209.377C149.89 209.803 149.062 210.419 148.423 211.224C147.783 212.017 147.44 212.97 147.393 214.082H142.084C142.143 212.117 142.723 210.389 143.824 208.898C144.937 207.406 146.404 206.24 148.227 205.4C150.05 204.559 152.074 204.139 154.3 204.139C156.632 204.139 158.644 204.595 160.337 205.506C162.041 206.406 163.355 207.607 164.278 209.111C165.214 210.614 165.675 212.259 165.663 214.047C165.675 216.083 165.107 217.811 163.959 219.232C162.822 220.652 161.307 221.605 159.413 222.09V222.374C161.828 222.741 163.698 223.7 165.024 225.251C166.362 226.801 167.025 228.725 167.013 231.021C167.025 233.022 166.468 234.815 165.344 236.401C164.231 237.987 162.71 239.236 160.781 240.148C158.851 241.047 156.643 241.497 154.158 241.497ZM173.724 241V237.023L186.029 224.274C187.343 222.889 188.426 221.676 189.278 220.634C190.143 219.581 190.788 218.58 191.214 217.634C191.64 216.687 191.853 215.68 191.853 214.615C191.853 213.408 191.569 212.366 191.001 211.49C190.433 210.602 189.657 209.922 188.675 209.448C187.692 208.963 186.585 208.72 185.354 208.72C184.052 208.72 182.916 208.987 181.945 209.519C180.975 210.052 180.229 210.804 179.708 211.774C179.187 212.745 178.927 213.881 178.927 215.183H173.689C173.689 212.97 174.198 211.034 175.216 209.377C176.234 207.72 177.631 206.436 179.406 205.524C181.182 204.601 183.2 204.139 185.461 204.139C187.746 204.139 189.758 204.595 191.498 205.506C193.25 206.406 194.617 207.637 195.599 209.2C196.582 210.75 197.073 212.502 197.073 214.455C197.073 215.805 196.819 217.125 196.31 218.415C195.813 219.705 194.942 221.143 193.7 222.729C192.457 224.304 190.728 226.215 188.515 228.464L181.288 236.028V236.295H197.659V241H173.724ZM204.886 241V204.636H210.372V222.001H210.816L226.068 204.636H232.975L218.309 221.007L233.028 241H226.423L214.669 224.754L210.372 229.69V241H204.886Z" fill="#141D40"/>
</g>
<circle cx="32" cy="363.5" r="4" fill="#0B8AFF"/>
<path d="M48.4148 369H45.1186V358.818H48.5192C49.5168 358.818 50.3736 359.022 51.0895 359.43C51.8054 359.834 52.3539 360.416 52.7351 361.175C53.1196 361.93 53.3118 362.837 53.3118 363.894C53.3118 364.955 53.1179 365.866 52.7301 366.629C52.3456 367.391 51.7888 367.978 51.0597 368.388C50.3305 368.796 49.4489 369 48.4148 369ZM46.6548 367.658H48.3303C49.1058 367.658 49.7505 367.512 50.2642 367.22C50.7779 366.925 51.1624 366.499 51.4176 365.942C51.6728 365.382 51.8004 364.7 51.8004 363.894C51.8004 363.095 51.6728 362.418 51.4176 361.861C51.1657 361.304 50.7895 360.881 50.2891 360.593C49.7886 360.305 49.1671 360.161 48.4247 360.161H46.6548V367.658ZM58.394 369.154C57.6416 369.154 56.9937 368.993 56.4501 368.672C55.9099 368.347 55.4922 367.891 55.1973 367.305C54.9056 366.715 54.7598 366.024 54.7598 365.232C54.7598 364.449 54.9056 363.76 55.1973 363.163C55.4922 362.567 55.9032 362.101 56.4302 361.766C56.9605 361.432 57.5803 361.264 58.2896 361.264C58.7205 361.264 59.1381 361.335 59.5424 361.478C59.9468 361.621 60.3097 361.844 60.6312 362.149C60.9527 362.454 61.2063 362.85 61.3919 363.337C61.5775 363.821 61.6703 364.41 61.6703 365.102V365.629H55.6V364.516H60.2136C60.2136 364.125 60.1341 363.778 59.975 363.477C59.8159 363.172 59.5922 362.931 59.3038 362.756C59.0188 362.58 58.684 362.492 58.2995 362.492C57.8819 362.492 57.5173 362.595 57.2058 362.8C56.8975 363.003 56.6589 363.268 56.4899 363.596C56.3242 363.921 56.2413 364.274 56.2413 364.655V365.525C56.2413 366.035 56.3308 366.469 56.5098 366.827C56.6921 367.185 56.9456 367.459 57.2704 367.648C57.5952 367.833 57.9747 367.926 58.4089 367.926C58.6906 367.926 58.9475 367.886 59.1795 367.807C59.4115 367.724 59.612 367.601 59.7811 367.439C59.9501 367.277 60.0794 367.076 60.1689 366.837L61.5758 367.091C61.4631 367.505 61.2609 367.868 60.9693 368.18C60.6809 368.488 60.318 368.728 59.8805 368.901C59.4463 369.07 58.9508 369.154 58.394 369.154ZM69.0419 363.228L67.6946 363.467C67.6383 363.294 67.5488 363.13 67.4261 362.974C67.3068 362.819 67.1444 362.691 66.9389 362.592C66.7334 362.492 66.4766 362.442 66.1683 362.442C65.7474 362.442 65.3961 362.537 65.1143 362.726C64.8326 362.911 64.6918 363.152 64.6918 363.447C64.6918 363.702 64.7862 363.907 64.9751 364.063C65.1641 364.219 65.469 364.347 65.8899 364.446L67.103 364.724C67.8056 364.887 68.3293 365.137 68.674 365.475C69.0187 365.813 69.1911 366.252 69.1911 366.793C69.1911 367.25 69.0585 367.658 68.7933 368.016C68.5315 368.37 68.1652 368.649 67.6946 368.851C67.2273 369.053 66.6854 369.154 66.0689 369.154C65.2138 369.154 64.5161 368.972 63.9759 368.607C63.4356 368.239 63.1042 367.717 62.9815 367.041L64.4183 366.822C64.5078 367.197 64.6918 367.48 64.9702 367.673C65.2486 367.862 65.6115 367.956 66.0589 367.956C66.5462 367.956 66.9356 367.855 67.2273 367.653C67.5189 367.447 67.6648 367.197 67.6648 366.902C67.6648 366.663 67.5753 366.463 67.3963 366.3C67.2206 366.138 66.9505 366.015 66.5859 365.933L65.2933 365.649C64.5807 365.487 64.0537 365.228 63.7124 364.874C63.3743 364.519 63.2053 364.07 63.2053 363.526C63.2053 363.076 63.3312 362.681 63.5831 362.343C63.835 362.005 64.183 361.741 64.6271 361.553C65.0713 361.36 65.58 361.264 66.1534 361.264C66.9787 361.264 67.6283 361.443 68.1023 361.801C68.5762 362.156 68.8894 362.631 69.0419 363.228ZM72.1926 366.41L72.1827 364.595H72.4412L75.4838 361.364H77.2637L73.7935 365.043H73.5598L72.1926 366.41ZM70.8255 369V358.818H72.312V369H70.8255ZM75.6479 369L72.9135 365.371L73.9377 364.332L77.4725 369H75.6479ZM82.1831 361.364V362.557H78.0119V361.364H82.1831ZM79.1305 359.534H80.617V366.758C80.617 367.046 80.6601 367.263 80.7463 367.409C80.8324 367.552 80.9435 367.649 81.0794 367.702C81.2186 367.752 81.3694 367.777 81.5318 367.777C81.6511 367.777 81.7555 367.769 81.845 367.752C81.9345 367.736 82.0041 367.722 82.0538 367.712L82.3223 368.94C82.2361 368.973 82.1135 369.007 81.9544 369.04C81.7953 369.076 81.5964 369.096 81.3578 369.099C80.9667 369.106 80.6021 369.036 80.264 368.891C79.926 368.745 79.6525 368.519 79.4437 368.214C79.2349 367.91 79.1305 367.527 79.1305 367.066V359.534ZM86.962 369.154C86.2461 369.154 85.6213 368.99 85.0877 368.662C84.5541 368.334 84.1398 367.875 83.8448 367.285C83.5498 366.695 83.4023 366.005 83.4023 365.217C83.4023 364.424 83.5498 363.732 83.8448 363.138C84.1398 362.545 84.5541 362.085 85.0877 361.756C85.6213 361.428 86.2461 361.264 86.962 361.264C87.6779 361.264 88.3027 361.428 88.8363 361.756C89.3699 362.085 89.7842 362.545 90.0792 363.138C90.3742 363.732 90.5217 364.424 90.5217 365.217C90.5217 366.005 90.3742 366.695 90.0792 367.285C89.7842 367.875 89.3699 368.334 88.8363 368.662C88.3027 368.99 87.6779 369.154 86.962 369.154ZM86.967 367.906C87.431 367.906 87.8155 367.784 88.1204 367.538C88.4253 367.293 88.6507 366.967 88.7965 366.559C88.9457 366.151 89.0202 365.702 89.0202 365.212C89.0202 364.724 88.9457 364.277 88.7965 363.869C88.6507 363.458 88.4253 363.129 88.1204 362.88C87.8155 362.631 87.431 362.507 86.967 362.507C86.4996 362.507 86.1119 362.631 85.8036 362.88C85.4987 363.129 85.2717 363.458 85.1225 363.869C84.9767 364.277 84.9038 364.724 84.9038 365.212C84.9038 365.702 84.9767 366.151 85.1225 366.559C85.2717 366.967 85.4987 367.293 85.8036 367.538C86.1119 367.784 86.4996 367.906 86.967 367.906ZM92.1809 371.864V361.364H93.6326V362.602H93.7569C93.8431 362.442 93.9674 362.259 94.1298 362.05C94.2922 361.841 94.5176 361.659 94.8059 361.503C95.0943 361.344 95.4754 361.264 95.9494 361.264C96.5659 361.264 97.1161 361.42 97.6 361.732C98.0839 362.043 98.4634 362.492 98.7385 363.079C99.0169 363.665 99.1561 364.371 99.1561 365.197C99.1561 366.022 99.0185 366.73 98.7434 367.32C98.4683 367.906 98.0905 368.359 97.6099 368.677C97.1293 368.992 96.5808 369.149 95.9643 369.149C95.5003 369.149 95.1208 369.071 94.8258 368.915C94.5342 368.76 94.3055 368.577 94.1397 368.369C93.974 368.16 93.8464 367.974 93.7569 367.812H93.6674V371.864H92.1809ZM93.6376 365.182C93.6376 365.719 93.7155 366.189 93.8713 366.594C94.027 366.998 94.2524 367.315 94.5474 367.543C94.8424 367.769 95.2037 367.881 95.6312 367.881C96.0753 367.881 96.4466 367.764 96.7449 367.528C97.0431 367.29 97.2685 366.967 97.421 366.559C97.5768 366.151 97.6547 365.692 97.6547 365.182C97.6547 364.678 97.5784 364.226 97.426 363.825C97.2768 363.424 97.0514 363.107 96.7498 362.875C96.4515 362.643 96.0787 362.527 95.6312 362.527C95.2003 362.527 94.8358 362.638 94.5375 362.86C94.2425 363.082 94.0188 363.392 93.8663 363.79C93.7138 364.187 93.6376 364.652 93.6376 365.182Z" fill="#141D40"/>
<path d="M317.905 369.139C317.282 369.139 316.721 369.02 316.224 368.781C315.73 368.539 315.336 368.208 315.041 367.787C314.746 367.366 314.589 366.885 314.569 366.345H316.06C316.097 366.783 316.291 367.142 316.642 367.424C316.993 367.706 317.414 367.847 317.905 367.847C318.296 367.847 318.642 367.757 318.944 367.578C319.249 367.396 319.487 367.146 319.66 366.827C319.835 366.509 319.923 366.146 319.923 365.739C319.923 365.324 319.834 364.955 319.655 364.63C319.476 364.305 319.229 364.05 318.914 363.864C318.602 363.679 318.244 363.584 317.84 363.581C317.532 363.581 317.222 363.634 316.91 363.74C316.599 363.846 316.347 363.985 316.155 364.158L314.748 363.949L315.319 358.818H320.917V360.136H316.597L316.274 362.984H316.334C316.532 362.792 316.796 362.631 317.124 362.502C317.456 362.373 317.81 362.308 318.188 362.308C318.808 362.308 319.36 362.456 319.844 362.751C320.331 363.046 320.714 363.448 320.992 363.959C321.274 364.466 321.413 365.049 321.41 365.709C321.413 366.368 321.264 366.957 320.962 367.474C320.664 367.991 320.25 368.398 319.719 368.697C319.192 368.992 318.587 369.139 317.905 369.139ZM323.012 367.011V365.768L327.412 358.818H328.391V360.648H327.77L324.623 365.629V365.709H330.653V367.011H323.012ZM327.839 369V366.634L327.849 366.067V358.818H329.306V369H327.839ZM337.7 367.091V366.554C337.7 366.17 337.78 365.818 337.939 365.5C338.101 365.179 338.337 364.922 338.645 364.729C338.956 364.534 339.333 364.436 339.773 364.436C340.224 364.436 340.602 364.532 340.907 364.724C341.212 364.917 341.442 365.174 341.598 365.495C341.757 365.817 341.837 366.17 341.837 366.554V367.091C341.837 367.475 341.757 367.828 341.598 368.15C341.439 368.468 341.205 368.725 340.897 368.92C340.592 369.113 340.218 369.209 339.773 369.209C339.326 369.209 338.948 369.113 338.64 368.92C338.332 368.725 338.098 368.468 337.939 368.15C337.78 367.828 337.7 367.475 337.7 367.091ZM338.859 366.554V367.091C338.859 367.376 338.927 367.634 339.062 367.866C339.198 368.098 339.435 368.214 339.773 368.214C340.108 368.214 340.342 368.098 340.474 367.866C340.607 367.634 340.673 367.376 340.673 367.091V366.554C340.673 366.269 340.609 366.01 340.479 365.778C340.353 365.546 340.118 365.43 339.773 365.43C339.442 365.43 339.207 365.546 339.067 365.778C338.928 366.01 338.859 366.269 338.859 366.554ZM332.58 361.264V360.727C332.58 360.343 332.659 359.99 332.818 359.668C332.981 359.347 333.216 359.09 333.524 358.898C333.836 358.705 334.212 358.609 334.653 358.609C335.103 358.609 335.481 358.705 335.786 358.898C336.091 359.09 336.321 359.347 336.477 359.668C336.633 359.99 336.711 360.343 336.711 360.727V361.264C336.711 361.649 336.631 362.002 336.472 362.323C336.317 362.641 336.085 362.898 335.776 363.094C335.471 363.286 335.097 363.382 334.653 363.382C334.202 363.382 333.822 363.286 333.514 363.094C333.209 362.898 332.977 362.641 332.818 362.323C332.659 362.002 332.58 361.649 332.58 361.264ZM333.743 360.727V361.264C333.743 361.549 333.809 361.808 333.942 362.04C334.078 362.272 334.315 362.388 334.653 362.388C334.984 362.388 335.216 362.272 335.349 362.04C335.485 361.808 335.553 361.549 335.553 361.264V360.727C335.553 360.442 335.488 360.184 335.359 359.952C335.229 359.72 334.994 359.604 334.653 359.604C334.321 359.604 334.086 359.72 333.947 359.952C333.811 360.184 333.743 360.442 333.743 360.727ZM333.052 369L340.052 358.818H341.24L334.24 369H333.052Z" fill="#141D40"/>
<line opacity="0.3" x1="28" y1="379.5" x2="343" y2="379.5" stroke="#0B8AFF"/>
<circle opacity="0.7" cx="32" cy="396.5" r="4" fill="#0B8AFF"/>
<path d="M45.1186 391.818H46.983L50.2244 399.733H50.3438L53.5852 391.818H55.4496V402H53.9879V394.632H53.8935L50.8906 401.985H49.6776L46.6747 394.627H46.5803V402H45.1186V391.818ZM60.7804 402.154C60.0645 402.154 59.4397 401.99 58.9061 401.662C58.3725 401.334 57.9582 400.875 57.6632 400.285C57.3682 399.695 57.2207 399.005 57.2207 398.217C57.2207 397.424 57.3682 396.732 57.6632 396.138C57.9582 395.545 58.3725 395.085 58.9061 394.756C59.4397 394.428 60.0645 394.264 60.7804 394.264C61.4963 394.264 62.121 394.428 62.6547 394.756C63.1883 395.085 63.6026 395.545 63.8975 396.138C64.1925 396.732 64.34 397.424 64.34 398.217C64.34 399.005 64.1925 399.695 63.8975 400.285C63.6026 400.875 63.1883 401.334 62.6547 401.662C62.121 401.99 61.4963 402.154 60.7804 402.154ZM60.7853 400.906C61.2493 400.906 61.6338 400.784 61.9387 400.538C62.2437 400.293 62.469 399.967 62.6149 399.559C62.764 399.151 62.8386 398.702 62.8386 398.212C62.8386 397.724 62.764 397.277 62.6149 396.869C62.469 396.458 62.2437 396.129 61.9387 395.88C61.6338 395.631 61.2493 395.507 60.7853 395.507C60.318 395.507 59.9302 395.631 59.622 395.88C59.3171 396.129 59.09 396.458 58.9409 396.869C58.795 397.277 58.7221 397.724 58.7221 398.212C58.7221 398.702 58.795 399.151 58.9409 399.559C59.09 399.967 59.3171 400.293 59.622 400.538C59.9302 400.784 60.318 400.906 60.7853 400.906ZM66.1186 402V391.818H67.6051V395.602H67.6946C67.7808 395.442 67.9051 395.259 68.0675 395.05C68.2299 394.841 68.4553 394.659 68.7436 394.503C69.032 394.344 69.4131 394.264 69.8871 394.264C70.5036 394.264 71.0537 394.42 71.5376 394.732C72.0215 395.043 72.401 395.492 72.6761 396.079C72.9545 396.665 73.0938 397.371 73.0938 398.197C73.0938 399.022 72.9562 399.73 72.6811 400.32C72.406 400.906 72.0282 401.359 71.5476 401.677C71.067 401.992 70.5185 402.149 69.902 402.149C69.438 402.149 69.0585 402.071 68.7635 401.915C68.4718 401.76 68.2431 401.577 68.0774 401.369C67.9117 401.16 67.7841 400.974 67.6946 400.812H67.5703V402H66.1186ZM67.5753 398.182C67.5753 398.719 67.6532 399.189 67.8089 399.594C67.9647 399.998 68.1901 400.315 68.4851 400.543C68.7801 400.769 69.1413 400.881 69.5689 400.881C70.013 400.881 70.3842 400.764 70.6825 400.528C70.9808 400.29 71.2062 399.967 71.3587 399.559C71.5144 399.151 71.5923 398.692 71.5923 398.182C71.5923 397.678 71.5161 397.226 71.3636 396.825C71.2145 396.424 70.9891 396.107 70.6875 395.875C70.3892 395.643 70.0163 395.527 69.5689 395.527C69.138 395.527 68.7734 395.638 68.4751 395.86C68.1802 396.082 67.9564 396.392 67.804 396.79C67.6515 397.187 67.5753 397.652 67.5753 398.182ZM74.763 402V394.364H76.2495V402H74.763ZM75.5137 393.185C75.2551 393.185 75.0331 393.099 74.8475 392.927C74.6652 392.751 74.574 392.542 74.574 392.3C74.574 392.055 74.6652 391.846 74.8475 391.674C75.0331 391.498 75.2551 391.411 75.5137 391.411C75.7722 391.411 75.9926 391.498 76.1749 391.674C76.3605 391.846 76.4533 392.055 76.4533 392.3C76.4533 392.542 76.3605 392.751 76.1749 392.927C75.9926 393.099 75.7722 393.185 75.5137 393.185ZM79.7358 391.818V402H78.2493V391.818H79.7358ZM85.0268 402.154C84.2744 402.154 83.6265 401.993 83.0829 401.672C82.5427 401.347 82.1251 400.891 81.8301 400.305C81.5384 399.715 81.3926 399.024 81.3926 398.232C81.3926 397.449 81.5384 396.76 81.8301 396.163C82.1251 395.567 82.536 395.101 83.063 394.766C83.5933 394.432 84.2131 394.264 84.9224 394.264C85.3533 394.264 85.7709 394.335 86.1752 394.478C86.5796 394.621 86.9425 394.844 87.264 395.149C87.5855 395.454 87.8391 395.85 88.0247 396.337C88.2103 396.821 88.3031 397.41 88.3031 398.102V398.629H82.2328V397.516H86.8464C86.8464 397.125 86.7669 396.778 86.6078 396.477C86.4487 396.172 86.225 395.931 85.9366 395.756C85.6516 395.58 85.3168 395.492 84.9324 395.492C84.5147 395.492 84.1502 395.595 83.8386 395.8C83.5304 396.003 83.2917 396.268 83.1227 396.596C82.957 396.921 82.8741 397.274 82.8741 397.655V398.525C82.8741 399.035 82.9636 399.469 83.1426 399.827C83.3249 400.185 83.5784 400.459 83.9032 400.648C84.228 400.833 84.6075 400.926 85.0417 400.926C85.3234 400.926 85.5803 400.886 85.8123 400.807C86.0443 400.724 86.2449 400.601 86.4139 400.439C86.5829 400.277 86.7122 400.076 86.8017 399.837L88.2086 400.091C88.0959 400.505 87.8938 400.868 87.6021 401.18C87.3137 401.488 86.9508 401.728 86.5133 401.901C86.0791 402.07 85.5836 402.154 85.0268 402.154Z" fill="#141D40"/>
<path d="M315.692 402V400.886L319.138 397.317C319.506 396.929 319.809 396.589 320.047 396.298C320.289 396.003 320.47 395.723 320.589 395.457C320.709 395.192 320.768 394.911 320.768 394.612C320.768 394.274 320.689 393.982 320.53 393.737C320.371 393.489 320.153 393.298 319.878 393.165C319.603 393.03 319.293 392.962 318.949 392.962C318.584 392.962 318.266 393.036 317.994 393.185C317.722 393.335 317.514 393.545 317.368 393.817C317.222 394.089 317.149 394.407 317.149 394.771H315.682C315.682 394.152 315.825 393.61 316.11 393.146C316.395 392.682 316.786 392.322 317.283 392.067C317.78 391.808 318.345 391.679 318.979 391.679C319.618 391.679 320.182 391.807 320.669 392.062C321.159 392.314 321.542 392.658 321.817 393.096C322.092 393.53 322.23 394.021 322.23 394.567C322.23 394.945 322.159 395.315 322.016 395.676C321.877 396.037 321.633 396.44 321.285 396.884C320.937 397.325 320.453 397.86 319.834 398.49L317.81 400.608V400.683H322.394V402H315.692ZM324.621 402L329.066 393.21V393.136H323.925V391.818H330.657V393.18L326.227 402H324.621ZM337.7 400.091V399.554C337.7 399.17 337.78 398.818 337.939 398.5C338.101 398.179 338.337 397.922 338.645 397.729C338.956 397.534 339.333 397.436 339.773 397.436C340.224 397.436 340.602 397.532 340.907 397.724C341.212 397.917 341.442 398.174 341.598 398.495C341.757 398.817 341.837 399.17 341.837 399.554V400.091C341.837 400.475 341.757 400.828 341.598 401.15C341.439 401.468 341.205 401.725 340.897 401.92C340.592 402.113 340.218 402.209 339.773 402.209C339.326 402.209 338.948 402.113 338.64 401.92C338.332 401.725 338.098 401.468 337.939 401.15C337.78 400.828 337.7 400.475 337.7 400.091ZM338.859 399.554V400.091C338.859 400.376 338.927 400.634 339.062 400.866C339.198 401.098 339.435 401.214 339.773 401.214C340.108 401.214 340.342 401.098 340.474 400.866C340.607 400.634 340.673 400.376 340.673 400.091V399.554C340.673 399.269 340.609 399.01 340.479 398.778C340.353 398.546 340.118 398.43 339.773 398.43C339.442 398.43 339.207 398.546 339.067 398.778C338.928 399.01 338.859 399.269 338.859 399.554ZM332.58 394.264V393.727C332.58 393.343 332.659 392.99 332.818 392.668C332.981 392.347 333.216 392.09 333.524 391.898C333.836 391.705 334.212 391.609 334.653 391.609C335.103 391.609 335.481 391.705 335.786 391.898C336.091 392.09 336.321 392.347 336.477 392.668C336.633 392.99 336.711 393.343 336.711 393.727V394.264C336.711 394.649 336.631 395.002 336.472 395.323C336.317 395.641 336.085 395.898 335.776 396.094C335.471 396.286 335.097 396.382 334.653 396.382C334.202 396.382 333.822 396.286 333.514 396.094C333.209 395.898 332.977 395.641 332.818 395.323C332.659 395.002 332.58 394.649 332.58 394.264ZM333.743 393.727V394.264C333.743 394.549 333.809 394.808 333.942 395.04C334.078 395.272 334.315 395.388 334.653 395.388C334.984 395.388 335.216 395.272 335.349 395.04C335.485 394.808 335.553 394.549 335.553 394.264V393.727C335.553 393.442 335.488 393.184 335.359 392.952C335.229 392.72 334.994 392.604 334.653 392.604C334.321 392.604 334.086 392.72 333.947 392.952C333.811 393.184 333.743 393.442 333.743 393.727ZM333.052 402L340.052 391.818H341.24L334.24 402H333.052Z" fill="#141D40"/>
<line opacity="0.3" x1="28" y1="412.5" x2="343" y2="412.5" stroke="#0B8AFF"/>
<circle opacity="0.4" cx="32" cy="429.5" r="4" fill="#0B8AFF"/>
<path d="M44.6165 426.141V424.818H52.4964V426.141H49.3196V435H47.7884V426.141H44.6165ZM55.3017 435.169C54.8178 435.169 54.3803 435.08 53.9892 434.901C53.5981 434.718 53.2882 434.455 53.0595 434.11C52.8341 433.765 52.7214 433.343 52.7214 432.842C52.7214 432.411 52.8043 432.057 52.97 431.778C53.1357 431.5 53.3594 431.28 53.6412 431.117C53.9229 430.955 54.2377 430.832 54.5858 430.749C54.9338 430.666 55.2884 430.603 55.6497 430.56C56.1071 430.507 56.4783 430.464 56.7633 430.431C57.0484 430.395 57.2555 430.337 57.3848 430.257C57.514 430.178 57.5787 430.048 57.5787 429.869V429.835C57.5787 429.4 57.456 429.064 57.2108 428.825C56.9688 428.587 56.6075 428.467 56.127 428.467C55.6265 428.467 55.2321 428.578 54.9437 428.8C54.6587 429.019 54.4615 429.263 54.3521 429.531L52.9551 429.213C53.1208 428.749 53.3627 428.375 53.6809 428.089C54.0024 427.801 54.372 427.592 54.7896 427.463C55.2072 427.33 55.6464 427.264 56.1071 427.264C56.412 427.264 56.7351 427.301 57.0765 427.374C57.4212 427.443 57.7427 427.572 58.041 427.761C58.3426 427.95 58.5895 428.22 58.7818 428.572C58.974 428.92 59.0701 429.372 59.0701 429.929V435H57.6184V433.956H57.5588C57.4627 434.148 57.3185 434.337 57.1262 434.523C56.934 434.708 56.6871 434.862 56.3855 434.985C56.0839 435.108 55.7226 435.169 55.3017 435.169ZM55.6248 433.976C56.0358 433.976 56.3871 433.895 56.6788 433.732C56.9738 433.57 57.1975 433.358 57.35 433.096C57.5057 432.831 57.5836 432.547 57.5836 432.246V431.261C57.5306 431.314 57.4279 431.364 57.2754 431.411C57.1262 431.454 56.9556 431.492 56.7633 431.525C56.5711 431.555 56.3838 431.583 56.2015 431.609C56.0192 431.633 55.8668 431.652 55.7441 431.669C55.4558 431.705 55.1923 431.767 54.9537 431.853C54.7183 431.939 54.5294 432.063 54.3869 432.226C54.2477 432.385 54.1781 432.597 54.1781 432.862C54.1781 433.23 54.314 433.509 54.5858 433.697C54.8575 433.883 55.2039 433.976 55.6248 433.976ZM61.1694 435V424.818H62.6559V428.602H62.7454C62.8316 428.442 62.9558 428.259 63.1183 428.05C63.2807 427.841 63.506 427.659 63.7944 427.503C64.0827 427.344 64.4639 427.264 64.9379 427.264C65.5543 427.264 66.1045 427.42 66.5884 427.732C67.0723 428.043 67.4518 428.492 67.7269 429.079C68.0053 429.665 68.1445 430.371 68.1445 431.197C68.1445 432.022 68.007 432.73 67.7319 433.32C67.4568 433.906 67.079 434.359 66.5984 434.677C66.1178 434.992 65.5692 435.149 64.9528 435.149C64.4888 435.149 64.1093 435.071 63.8143 434.915C63.5226 434.76 63.2939 434.577 63.1282 434.369C62.9625 434.16 62.8349 433.974 62.7454 433.812H62.6211V435H61.1694ZM62.6261 431.182C62.6261 431.719 62.704 432.189 62.8597 432.594C63.0155 432.998 63.2409 433.315 63.5359 433.543C63.8308 433.769 64.1921 433.881 64.6197 433.881C65.0638 433.881 65.435 433.764 65.7333 433.528C66.0316 433.29 66.257 432.967 66.4094 432.559C66.5652 432.151 66.6431 431.692 66.6431 431.182C66.6431 430.678 66.5669 430.226 66.4144 429.825C66.2653 429.424 66.0399 429.107 65.7383 428.875C65.44 428.643 65.0671 428.527 64.6197 428.527C64.1888 428.527 63.8242 428.638 63.5259 428.86C63.2309 429.082 63.0072 429.392 62.8548 429.79C62.7023 430.187 62.6261 430.652 62.6261 431.182ZM71.3002 424.818V435H69.8137V424.818H71.3002ZM76.5913 435.154C75.8389 435.154 75.1909 434.993 74.6474 434.672C74.1071 434.347 73.6895 433.891 73.3945 433.305C73.1029 432.715 72.957 432.024 72.957 431.232C72.957 430.449 73.1029 429.76 73.3945 429.163C73.6895 428.567 74.1005 428.101 74.6275 427.766C75.1578 427.432 75.7776 427.264 76.4869 427.264C76.9177 427.264 77.3353 427.335 77.7397 427.478C78.1441 427.621 78.507 427.844 78.8285 428.149C79.15 428.454 79.4035 428.85 79.5891 429.337C79.7747 429.821 79.8675 430.41 79.8675 431.102V431.629H73.7972V430.516H78.4109C78.4109 430.125 78.3313 429.778 78.1722 429.477C78.0131 429.172 77.7894 428.931 77.5011 428.756C77.216 428.58 76.8813 428.492 76.4968 428.492C76.0792 428.492 75.7146 428.595 75.4031 428.8C75.0948 429.003 74.8562 429.268 74.6871 429.596C74.5214 429.921 74.4386 430.274 74.4386 430.655V431.525C74.4386 432.035 74.5281 432.469 74.707 432.827C74.8893 433.185 75.1429 433.459 75.4677 433.648C75.7925 433.833 76.172 433.926 76.6062 433.926C76.8879 433.926 77.1448 433.886 77.3768 433.807C77.6088 433.724 77.8093 433.601 77.9783 433.439C78.1474 433.277 78.2766 433.076 78.3661 432.837L79.7731 433.091C79.6604 433.505 79.4582 433.868 79.1665 434.18C78.8782 434.488 78.5153 434.728 78.0778 434.901C77.6436 435.07 77.1481 435.154 76.5913 435.154ZM85.0815 427.364V428.557H80.9103V427.364H85.0815ZM82.0289 425.534H83.5154V432.758C83.5154 433.046 83.5585 433.263 83.6447 433.409C83.7309 433.552 83.8419 433.649 83.9778 433.702C84.117 433.752 84.2678 433.777 84.4302 433.777C84.5495 433.777 84.6539 433.769 84.7434 433.752C84.8329 433.736 84.9025 433.722 84.9522 433.712L85.2207 434.94C85.1345 434.973 85.0119 435.007 84.8528 435.04C84.6937 435.076 84.4949 435.096 84.2562 435.099C83.8651 435.106 83.5005 435.036 83.1625 434.891C82.8244 434.745 82.551 434.519 82.3422 434.214C82.1333 433.91 82.0289 433.527 82.0289 433.066V425.534Z" fill="#141D40"/>
<path d="M321.045 424.818V435H319.504V426.359H319.445L317.009 427.95V426.479L319.549 424.818H321.045ZM323.8 435V433.886L327.245 430.317C327.613 429.929 327.916 429.589 328.155 429.298C328.397 429.003 328.577 428.723 328.697 428.457C328.816 428.192 328.876 427.911 328.876 427.612C328.876 427.274 328.796 426.982 328.637 426.737C328.478 426.489 328.261 426.298 327.986 426.165C327.711 426.03 327.401 425.962 327.056 425.962C326.692 425.962 326.373 426.036 326.102 426.185C325.83 426.335 325.621 426.545 325.475 426.817C325.329 427.089 325.256 427.407 325.256 427.771H323.79C323.79 427.152 323.932 426.61 324.217 426.146C324.502 425.682 324.893 425.322 325.391 425.067C325.888 424.808 326.453 424.679 327.086 424.679C327.726 424.679 328.289 424.807 328.776 425.062C329.267 425.314 329.65 425.658 329.925 426.096C330.2 426.53 330.337 427.021 330.337 427.567C330.337 427.945 330.266 428.315 330.124 428.676C329.984 429.037 329.741 429.44 329.393 429.884C329.045 430.325 328.561 430.86 327.941 431.49L325.918 433.608V433.683H330.501V435H323.8ZM337.7 433.091V432.554C337.7 432.17 337.78 431.818 337.939 431.5C338.101 431.179 338.337 430.922 338.645 430.729C338.956 430.534 339.333 430.436 339.773 430.436C340.224 430.436 340.602 430.532 340.907 430.724C341.212 430.917 341.442 431.174 341.598 431.495C341.757 431.817 341.837 432.17 341.837 432.554V433.091C341.837 433.475 341.757 433.828 341.598 434.15C341.439 434.468 341.205 434.725 340.897 434.92C340.592 435.113 340.218 435.209 339.773 435.209C339.326 435.209 338.948 435.113 338.64 434.92C338.332 434.725 338.098 434.468 337.939 434.15C337.78 433.828 337.7 433.475 337.7 433.091ZM338.859 432.554V433.091C338.859 433.376 338.927 433.634 339.062 433.866C339.198 434.098 339.435 434.214 339.773 434.214C340.108 434.214 340.342 434.098 340.474 433.866C340.607 433.634 340.673 433.376 340.673 433.091V432.554C340.673 432.269 340.609 432.01 340.479 431.778C340.353 431.546 340.118 431.43 339.773 431.43C339.442 431.43 339.207 431.546 339.067 431.778C338.928 432.01 338.859 432.269 338.859 432.554ZM332.58 427.264V426.727C332.58 426.343 332.659 425.99 332.818 425.668C332.981 425.347 333.216 425.09 333.524 424.898C333.836 424.705 334.212 424.609 334.653 424.609C335.103 424.609 335.481 424.705 335.786 424.898C336.091 425.09 336.321 425.347 336.477 425.668C336.633 425.99 336.711 426.343 336.711 426.727V427.264C336.711 427.649 336.631 428.002 336.472 428.323C336.317 428.641 336.085 428.898 335.776 429.094C335.471 429.286 335.097 429.382 334.653 429.382C334.202 429.382 333.822 429.286 333.514 429.094C333.209 428.898 332.977 428.641 332.818 428.323C332.659 428.002 332.58 427.649 332.58 427.264ZM333.743 426.727V427.264C333.743 427.549 333.809 427.808 333.942 428.04C334.078 428.272 334.315 428.388 334.653 428.388C334.984 428.388 335.216 428.272 335.349 428.04C335.485 427.808 335.553 427.549 335.553 427.264V426.727C335.553 426.442 335.488 426.184 335.359 425.952C335.229 425.72 334.994 425.604 334.653 425.604C334.321 425.604 334.086 425.72 333.947 425.952C333.811 426.184 333.743 426.442 333.743 426.727ZM333.052 435L340.052 424.818H341.24L334.24 435H333.052Z" fill="#141D40"/>
<line opacity="0.3" x1="28" y1="445.5" x2="343" y2="445.5" stroke="#0B8AFF"/>
<circle opacity="0.2" cx="32" cy="462.5" r="4" fill="#0B8AFF"/>
<path d="M44.6165 459.141V457.818H52.4964V459.141H49.3196V468H47.7884V459.141H44.6165ZM55.1277 457.818L57.9615 466.111H58.0758L60.9096 457.818H62.5701L58.9061 468H57.1312L53.4672 457.818H55.1277Z" fill="#141D40"/>
<path d="M324.621 468L329.066 459.21V459.136H323.925V457.818H330.657V459.18L326.227 468H324.621ZM337.7 466.091V465.554C337.7 465.17 337.78 464.818 337.939 464.5C338.101 464.179 338.337 463.922 338.645 463.729C338.956 463.534 339.333 463.436 339.773 463.436C340.224 463.436 340.602 463.532 340.907 463.724C341.212 463.917 341.442 464.174 341.598 464.495C341.757 464.817 341.837 465.17 341.837 465.554V466.091C341.837 466.475 341.757 466.828 341.598 467.15C341.439 467.468 341.205 467.725 340.897 467.92C340.592 468.113 340.218 468.209 339.773 468.209C339.326 468.209 338.948 468.113 338.64 467.92C338.332 467.725 338.098 467.468 337.939 467.15C337.78 466.828 337.7 466.475 337.7 466.091ZM338.859 465.554V466.091C338.859 466.376 338.927 466.634 339.062 466.866C339.198 467.098 339.435 467.214 339.773 467.214C340.108 467.214 340.342 467.098 340.474 466.866C340.607 466.634 340.673 466.376 340.673 466.091V465.554C340.673 465.269 340.609 465.01 340.479 464.778C340.353 464.546 340.118 464.43 339.773 464.43C339.442 464.43 339.207 464.546 339.067 464.778C338.928 465.01 338.859 465.269 338.859 465.554ZM332.58 460.264V459.727C332.58 459.343 332.659 458.99 332.818 458.668C332.981 458.347 333.216 458.09 333.524 457.898C333.836 457.705 334.212 457.609 334.653 457.609C335.103 457.609 335.481 457.705 335.786 457.898C336.091 458.09 336.321 458.347 336.477 458.668C336.633 458.99 336.711 459.343 336.711 459.727V460.264C336.711 460.649 336.631 461.002 336.472 461.323C336.317 461.641 336.085 461.898 335.776 462.094C335.471 462.286 335.097 462.382 334.653 462.382C334.202 462.382 333.822 462.286 333.514 462.094C333.209 461.898 332.977 461.641 332.818 461.323C332.659 461.002 332.58 460.649 332.58 460.264ZM333.743 459.727V460.264C333.743 460.549 333.809 460.808 333.942 461.04C334.078 461.272 334.315 461.388 334.653 461.388C334.984 461.388 335.216 461.272 335.349 461.04C335.485 460.808 335.553 460.549 335.553 460.264V459.727C335.553 459.442 335.488 459.184 335.359 458.952C335.229 458.72 334.994 458.604 334.653 458.604C334.321 458.604 334.086 458.72 333.947 458.952C333.811 459.184 333.743 459.442 333.743 459.727ZM333.052 468L340.052 457.818H341.24L334.24 468H333.052Z" fill="#141D40"/>
<line opacity="0.3" x1="28" y1="478.5" x2="343" y2="478.5" stroke="#0B8AFF"/>
<defs>
<clipPath id="clip0_1321_39">
<rect x="82" y="119" width="208" height="208" rx="104" fill="white"/>
</clipPath>
</defs>
</svg>
