<svg width="615" height="843" viewBox="0 0 615 843" fill="none" xmlns="http://www.w3.org/2000/svg">
<rect width="615" height="843" fill="white"/>
<path d="M50.8983 103.057V119.962H48.3475V103.057H50.8983ZM56.8829 112.434V119.962H54.4148V107.283H56.7839V109.347H56.9407C57.2324 108.675 57.6891 108.136 58.311 107.729C58.9383 107.322 59.728 107.118 60.6801 107.118C61.5441 107.118 62.3008 107.3 62.9501 107.663C63.5995 108.02 64.103 108.554 64.4608 109.264C64.8185 109.974 64.9973 110.852 64.9973 111.897V119.962H62.5292V112.195C62.5292 111.276 62.2898 110.557 61.811 110.04C61.3322 109.517 60.6746 109.256 59.8381 109.256C59.2658 109.256 58.7567 109.38 58.311 109.627C57.8707 109.875 57.5213 110.238 57.2626 110.717C57.0095 111.19 56.8829 111.763 56.8829 112.434ZM80.3779 107.283V109.264H73.4522V107.283H80.3779ZM75.3095 104.245H77.7777V116.239C77.7777 116.718 77.8492 117.079 77.9923 117.321C78.1354 117.557 78.3197 117.72 78.5454 117.808C78.7765 117.89 79.0269 117.932 79.2965 117.932C79.4947 117.932 79.668 117.918 79.8166 117.89C79.9652 117.863 80.0807 117.841 80.1633 117.824L80.609 119.863C80.466 119.918 80.2623 119.973 79.9982 120.028C79.734 120.089 79.4039 120.122 79.0076 120.127C78.3583 120.138 77.7529 120.023 77.1916 119.781C76.6303 119.539 76.1763 119.164 75.8296 118.658C75.4829 118.152 75.3095 117.516 75.3095 116.751V104.245ZM85.8487 112.434V119.962H83.3806V103.057H85.8157V109.347H85.9725C86.2697 108.664 86.7237 108.122 87.3346 107.721C87.9454 107.319 88.7434 107.118 89.7284 107.118C90.5979 107.118 91.3574 107.297 92.0067 107.654C92.6616 108.012 93.1679 108.546 93.5256 109.256C93.8888 109.96 94.0704 110.841 94.0704 111.897V119.962H91.6023V112.195C91.6023 111.265 91.3629 110.544 90.8841 110.032C90.4053 109.515 89.7394 109.256 88.8865 109.256C88.3031 109.256 87.7803 109.38 87.3181 109.627C86.8613 109.875 86.5008 110.238 86.2367 110.717C85.978 111.19 85.8487 111.763 85.8487 112.434ZM102.829 120.218C101.579 120.218 100.504 119.951 99.6011 119.417C98.7041 118.878 98.0107 118.121 97.5209 117.147C97.0366 116.168 96.7945 115.02 96.7945 113.705C96.7945 112.406 97.0366 111.262 97.5209 110.271C98.0107 109.281 98.6931 108.507 99.5681 107.952C100.449 107.396 101.478 107.118 102.655 107.118C103.371 107.118 104.064 107.236 104.736 107.473C105.407 107.71 106.009 108.081 106.543 108.587C107.077 109.094 107.498 109.751 107.806 110.56C108.114 111.364 108.269 112.34 108.269 113.491V114.366H98.1895V112.517H105.85C105.85 111.867 105.718 111.292 105.454 110.791C105.19 110.285 104.818 109.886 104.339 109.594C103.866 109.303 103.31 109.157 102.672 109.157C101.978 109.157 101.373 109.327 100.856 109.669C100.344 110.004 99.9478 110.445 99.6671 110.989C99.392 111.529 99.2544 112.115 99.2544 112.748V114.192C99.2544 115.04 99.403 115.761 99.7001 116.355C100.003 116.949 100.424 117.403 100.963 117.717C101.502 118.025 102.133 118.179 102.853 118.179C103.321 118.179 103.748 118.113 104.133 117.981C104.518 117.844 104.851 117.64 105.132 117.37C105.412 117.101 105.627 116.768 105.776 116.371L108.112 116.792C107.925 117.48 107.589 118.083 107.105 118.6C106.626 119.112 106.023 119.511 105.297 119.797C104.576 120.078 103.753 120.218 102.829 120.218ZM117.159 124.717V107.283H119.569V109.338H119.776C119.919 109.074 120.125 108.769 120.395 108.422C120.664 108.075 121.039 107.773 121.517 107.514C121.996 107.25 122.629 107.118 123.416 107.118C124.44 107.118 125.353 107.377 126.157 107.894C126.96 108.411 127.59 109.157 128.047 110.131C128.509 111.105 128.74 112.277 128.74 113.647C128.74 115.018 128.512 116.193 128.055 117.172C127.598 118.146 126.971 118.897 126.173 119.426C125.375 119.949 124.464 120.21 123.441 120.21C122.67 120.21 122.04 120.081 121.55 119.822C121.066 119.563 120.686 119.261 120.411 118.914C120.136 118.567 119.924 118.259 119.776 117.989H119.627V124.717H117.159ZM119.578 113.623C119.578 114.514 119.707 115.296 119.965 115.967C120.224 116.638 120.598 117.164 121.088 117.544C121.578 117.918 122.178 118.105 122.888 118.105C123.625 118.105 124.241 117.91 124.737 117.519C125.232 117.123 125.606 116.586 125.859 115.909C126.118 115.232 126.247 114.47 126.247 113.623C126.247 112.786 126.121 112.035 125.868 111.369C125.62 110.703 125.246 110.178 124.745 109.792C124.25 109.407 123.631 109.215 122.888 109.215C122.172 109.215 121.567 109.399 121.072 109.768C120.582 110.136 120.21 110.651 119.957 111.311C119.704 111.972 119.578 112.742 119.578 113.623ZM135.195 120.243C134.392 120.243 133.666 120.094 133.016 119.797C132.367 119.495 131.852 119.057 131.473 118.485C131.098 117.912 130.911 117.211 130.911 116.38C130.911 115.664 131.049 115.075 131.324 114.613C131.599 114.151 131.971 113.785 132.438 113.515C132.906 113.246 133.429 113.042 134.007 112.904C134.585 112.767 135.173 112.662 135.773 112.591C136.533 112.503 137.149 112.431 137.622 112.376C138.096 112.316 138.44 112.219 138.654 112.087C138.869 111.955 138.976 111.741 138.976 111.443V111.386C138.976 110.665 138.772 110.106 138.365 109.71C137.964 109.314 137.364 109.116 136.566 109.116C135.735 109.116 135.08 109.3 134.601 109.669C134.128 110.032 133.8 110.436 133.619 110.882L131.299 110.354C131.574 109.583 131.976 108.961 132.504 108.488C133.038 108.009 133.652 107.663 134.345 107.448C135.039 107.228 135.768 107.118 136.533 107.118C137.039 107.118 137.576 107.178 138.142 107.3C138.715 107.415 139.248 107.63 139.744 107.943C140.245 108.257 140.655 108.706 140.974 109.289C141.293 109.867 141.452 110.618 141.452 111.542V119.962H139.042V118.229H138.943C138.783 118.548 138.544 118.862 138.225 119.17C137.906 119.478 137.496 119.734 136.995 119.938C136.494 120.141 135.894 120.243 135.195 120.243ZM135.732 118.262C136.414 118.262 136.998 118.127 137.482 117.857C137.972 117.588 138.343 117.235 138.596 116.801C138.855 116.36 138.984 115.89 138.984 115.389V113.755C138.896 113.843 138.726 113.925 138.473 114.002C138.225 114.074 137.941 114.137 137.622 114.192C137.303 114.242 136.992 114.289 136.69 114.333C136.387 114.371 136.134 114.404 135.93 114.432C135.451 114.492 135.014 114.594 134.618 114.737C134.227 114.88 133.913 115.086 133.677 115.356C133.445 115.62 133.33 115.973 133.33 116.413C133.33 117.024 133.555 117.486 134.007 117.8C134.458 118.108 135.033 118.262 135.732 118.262ZM154.241 110.379L152.004 110.775C151.911 110.489 151.762 110.216 151.558 109.958C151.36 109.699 151.091 109.487 150.749 109.322C150.408 109.157 149.982 109.074 149.47 109.074C148.771 109.074 148.188 109.231 147.72 109.545C147.252 109.853 147.018 110.252 147.018 110.742C147.018 111.166 147.175 111.507 147.489 111.765C147.802 112.024 148.309 112.236 149.008 112.401L151.022 112.863C152.188 113.133 153.058 113.548 153.63 114.11C154.203 114.671 154.489 115.4 154.489 116.297C154.489 117.057 154.269 117.734 153.828 118.328C153.394 118.917 152.786 119.379 152.004 119.715C151.228 120.05 150.328 120.218 149.305 120.218C147.885 120.218 146.727 119.916 145.83 119.31C144.933 118.699 144.382 117.833 144.179 116.71L146.564 116.347C146.713 116.969 147.018 117.439 147.481 117.758C147.943 118.072 148.545 118.229 149.288 118.229C150.097 118.229 150.744 118.061 151.228 117.725C151.712 117.384 151.955 116.969 151.955 116.479C151.955 116.083 151.806 115.75 151.509 115.48C151.217 115.21 150.769 115.007 150.163 114.869L148.017 114.399C146.834 114.129 145.959 113.7 145.392 113.111C144.831 112.522 144.55 111.776 144.55 110.874C144.55 110.125 144.759 109.471 145.177 108.909C145.596 108.348 146.174 107.91 146.911 107.597C147.648 107.278 148.493 107.118 149.445 107.118C150.815 107.118 151.894 107.415 152.681 108.009C153.468 108.598 153.988 109.388 154.241 110.379ZM163.121 107.283V109.264H156.195V107.283H163.121ZM158.053 104.245H160.521V116.239C160.521 116.718 160.592 117.079 160.736 117.321C160.879 117.557 161.063 117.72 161.289 117.808C161.52 117.89 161.77 117.932 162.04 117.932C162.238 117.932 162.411 117.918 162.56 117.89C162.708 117.863 162.824 117.841 162.907 117.824L163.352 119.863C163.209 119.918 163.006 119.973 162.741 120.028C162.477 120.089 162.147 120.122 161.751 120.127C161.101 120.138 160.496 120.023 159.935 119.781C159.373 119.539 158.919 119.164 158.573 118.658C158.226 118.152 158.053 117.516 158.053 116.751V104.245ZM172.54 119.962L179.919 105.368V105.244H171.384V103.057H182.561V105.318L175.206 119.962H172.54ZM196.363 120.21C195.339 120.21 194.426 119.949 193.622 119.426C192.824 118.897 192.197 118.146 191.74 117.172C191.289 116.193 191.063 115.018 191.063 113.647C191.063 112.277 191.292 111.105 191.748 110.131C192.211 109.157 192.844 108.411 193.647 107.894C194.451 107.377 195.361 107.118 196.379 107.118C197.166 107.118 197.799 107.25 198.278 107.514C198.762 107.773 199.136 108.075 199.401 108.422C199.67 108.769 199.879 109.074 200.028 109.338H200.177V103.057H202.645V119.962H200.234V117.989H200.028C199.879 118.259 199.665 118.567 199.384 118.914C199.109 119.261 198.729 119.563 198.245 119.822C197.761 120.081 197.133 120.21 196.363 120.21ZM196.908 118.105C197.618 118.105 198.217 117.918 198.707 117.544C199.202 117.164 199.577 116.638 199.83 115.967C200.089 115.296 200.218 114.514 200.218 113.623C200.218 112.742 200.091 111.972 199.838 111.311C199.585 110.651 199.214 110.136 198.724 109.768C198.234 109.399 197.629 109.215 196.908 109.215C196.165 109.215 195.546 109.407 195.05 109.792C194.555 110.178 194.181 110.703 193.928 111.369C193.68 112.035 193.556 112.786 193.556 113.623C193.556 114.47 193.683 115.232 193.936 115.909C194.189 116.586 194.563 117.123 195.059 117.519C195.559 117.91 196.176 118.105 196.908 118.105ZM209.857 120.243C209.054 120.243 208.327 120.094 207.678 119.797C207.029 119.495 206.514 119.057 206.134 118.485C205.76 117.912 205.573 117.211 205.573 116.38C205.573 115.664 205.711 115.075 205.986 114.613C206.261 114.151 206.632 113.785 207.1 113.515C207.568 113.246 208.091 113.042 208.669 112.904C209.246 112.767 209.835 112.662 210.435 112.591C211.195 112.503 211.811 112.431 212.284 112.376C212.757 112.316 213.101 112.219 213.316 112.087C213.531 111.955 213.638 111.741 213.638 111.443V111.386C213.638 110.665 213.434 110.106 213.027 109.71C212.625 109.314 212.026 109.116 211.228 109.116C210.397 109.116 209.742 109.3 209.263 109.669C208.79 110.032 208.462 110.436 208.281 110.882L205.961 110.354C206.236 109.583 206.638 108.961 207.166 108.488C207.7 108.009 208.314 107.663 209.007 107.448C209.7 107.228 210.43 107.118 211.195 107.118C211.701 107.118 212.237 107.178 212.804 107.3C213.377 107.415 213.91 107.63 214.406 107.943C214.906 108.257 215.316 108.706 215.636 109.289C215.955 109.867 216.114 110.618 216.114 111.542V119.962H213.704V118.229H213.605C213.445 118.548 213.206 118.862 212.887 119.17C212.568 119.478 212.158 119.734 211.657 119.938C211.156 120.141 210.556 120.243 209.857 120.243ZM210.394 118.262C211.076 118.262 211.66 118.127 212.144 117.857C212.634 117.588 213.005 117.235 213.258 116.801C213.517 116.36 213.646 115.89 213.646 115.389V113.755C213.558 113.843 213.388 113.925 213.134 114.002C212.887 114.074 212.603 114.137 212.284 114.192C211.965 114.242 211.654 114.289 211.351 114.333C211.049 114.371 210.796 114.404 210.592 114.432C210.113 114.492 209.676 114.594 209.279 114.737C208.889 114.88 208.575 115.086 208.338 115.356C208.107 115.62 207.992 115.973 207.992 116.413C207.992 117.024 208.217 117.486 208.669 117.8C209.12 118.108 209.695 118.262 210.394 118.262ZM220.508 124.717C220.139 124.717 219.804 124.687 219.501 124.626C219.198 124.571 218.973 124.511 218.824 124.445L219.418 122.422C219.87 122.543 220.271 122.596 220.623 122.579C220.976 122.563 221.287 122.43 221.556 122.183C221.831 121.935 222.074 121.531 222.283 120.969L222.588 120.127L217.949 107.283H220.59L223.802 117.123H223.934L227.145 107.283H229.794L224.569 121.654C224.327 122.315 224.019 122.873 223.645 123.33C223.271 123.792 222.825 124.139 222.307 124.37C221.79 124.601 221.19 124.717 220.508 124.717ZM241.615 110.379L239.378 110.775C239.285 110.489 239.136 110.216 238.932 109.958C238.734 109.699 238.465 109.487 238.123 109.322C237.782 109.157 237.356 109.074 236.844 109.074C236.145 109.074 235.562 109.231 235.094 109.545C234.626 109.853 234.392 110.252 234.392 110.742C234.392 111.166 234.549 111.507 234.863 111.765C235.177 112.024 235.683 112.236 236.382 112.401L238.396 112.863C239.563 113.133 240.432 113.548 241.004 114.11C241.577 114.671 241.863 115.4 241.863 116.297C241.863 117.057 241.643 117.734 241.203 118.328C240.768 118.917 240.16 119.379 239.378 119.715C238.602 120.05 237.703 120.218 236.679 120.218C235.259 120.218 234.101 119.916 233.204 119.31C232.307 118.699 231.756 117.833 231.553 116.71L233.938 116.347C234.087 116.969 234.392 117.439 234.855 117.758C235.317 118.072 235.919 118.229 236.662 118.229C237.471 118.229 238.118 118.061 238.602 117.725C239.087 117.384 239.329 116.969 239.329 116.479C239.329 116.083 239.18 115.75 238.883 115.48C238.591 115.21 238.143 115.007 237.537 114.869L235.391 114.399C234.208 114.129 233.333 113.7 232.766 113.111C232.205 112.522 231.924 111.776 231.924 110.874C231.924 110.125 232.133 109.471 232.552 108.909C232.97 108.348 233.548 107.91 234.285 107.597C235.022 107.278 235.867 107.118 236.819 107.118C238.19 107.118 239.268 107.415 240.055 108.009C240.842 108.598 241.362 109.388 241.615 110.379Z" fill="#999999"/>
<rect x="46.4902" y="46.4906" width="157.566" height="30.6415" rx="15.3208" fill="#CEE8FF" fill-opacity="0.24"/>
<path d="M66.1131 68.8114H61.2027V54.3208H66.2121C67.6508 54.3208 68.8866 54.6109 69.9197 55.1911C70.9574 55.7666 71.7546 56.5944 72.3112 57.6746C72.8678 58.7548 73.1461 60.0473 73.1461 61.552C73.1461 63.0614 72.8654 64.3586 72.3041 65.4435C71.7475 66.5284 70.9432 67.3609 69.8914 67.9411C68.8442 68.5213 67.5848 68.8114 66.1131 68.8114ZM63.8277 66.5402H65.9857C66.9951 66.5402 67.8371 66.3562 68.5116 65.9883C69.1862 65.6156 69.6932 65.0614 70.0329 64.3256C70.3725 63.585 70.5423 62.6605 70.5423 61.552C70.5423 60.4435 70.3725 59.5237 70.0329 58.7925C69.6932 58.0567 69.1909 57.5072 68.5258 57.1439C67.8654 56.776 67.0447 56.5921 66.0635 56.5921H63.8277V66.5402ZM75.6402 68.8114V54.3208H85.0647V56.5213H78.2652V60.4553H84.5765V62.6557H78.2652V66.6109H85.1213V68.8114H75.6402ZM89.6815 54.3208L93.4527 65.7265H93.6013L97.3654 54.3208H100.252L95.1437 68.8114H91.9032L86.8017 54.3208H89.6815ZM104.786 54.3208V68.8114H102.161V54.3208H104.786ZM120.032 59.21H117.385C117.31 58.776 117.171 58.3916 116.968 58.0567C116.765 57.7171 116.513 57.4293 116.211 57.1935C115.909 56.9576 115.565 56.7807 115.178 56.6628C114.796 56.5402 114.383 56.4789 113.94 56.4789C113.152 56.4789 112.454 56.677 111.845 57.0732C111.237 57.4647 110.76 58.0402 110.416 58.7996C110.072 59.5543 109.9 60.4765 109.9 61.5661C109.9 62.6746 110.072 63.6086 110.416 64.368C110.765 65.1227 111.242 65.6935 111.845 66.0803C112.454 66.4623 113.15 66.6534 113.933 66.6534C114.367 66.6534 114.772 66.5968 115.15 66.4836C115.532 66.3656 115.874 66.1935 116.176 65.9671C116.482 65.7406 116.739 65.4623 116.947 65.1322C117.159 64.802 117.305 64.4246 117.385 64.0001L120.032 64.0142C119.933 64.7029 119.718 65.3491 119.388 65.9529C119.062 66.5567 118.635 67.0897 118.107 67.552C117.579 68.0095 116.961 68.368 116.253 68.6274C115.546 68.8822 114.76 69.0095 113.897 69.0095C112.624 69.0095 111.487 68.7147 110.487 68.1251C109.487 67.5355 108.699 66.684 108.124 65.5708C107.548 64.4576 107.26 63.1227 107.26 61.5661C107.26 60.0048 107.551 58.6699 108.131 57.5614C108.711 56.4482 109.501 55.5968 110.501 55.0072C111.501 54.4175 112.633 54.1227 113.897 54.1227C114.704 54.1227 115.454 54.2359 116.147 54.4623C116.841 54.6888 117.459 55.0213 118.001 55.46C118.543 55.8939 118.989 56.427 119.338 57.059C119.692 57.6864 119.923 58.4034 120.032 59.21ZM122.436 68.8114V54.3208H131.86V56.5213H125.061V60.4553H131.372V62.6557H125.061V66.6109H131.917V68.8114H122.436ZM138.844 56.5213V54.3208H150.405V56.5213H145.926V68.8114H143.322V56.5213H138.844ZM151.643 54.3208H154.608L158.153 60.7312H158.294L161.839 54.3208H164.804L159.532 63.4057V68.8114H156.914V63.4057L151.643 54.3208ZM166.663 68.8114V54.3208H172.097C173.21 54.3208 174.144 54.5284 174.898 54.9435C175.658 55.3586 176.231 55.9293 176.618 56.6557C177.009 57.3774 177.205 58.1982 177.205 59.118C177.205 60.0473 177.009 60.8727 176.618 61.5944C176.226 62.3161 175.648 62.8845 174.884 63.2996C174.12 63.71 173.179 63.9152 172.061 63.9152H168.46V61.7572H171.707C172.358 61.7572 172.891 61.6439 173.306 61.4175C173.722 61.1911 174.028 60.8798 174.226 60.4836C174.429 60.0873 174.531 59.6322 174.531 59.118C174.531 58.6039 174.429 58.151 174.226 57.7595C174.028 57.368 173.719 57.0638 173.299 56.8468C172.884 56.6251 172.349 56.5142 171.693 56.5142H169.288V68.8114H166.663ZM179.485 68.8114V54.3208H188.91V56.5213H182.11V60.4553H188.421V62.6557H182.11V66.6109H188.966V68.8114H179.485Z" fill="#0B8AFF"/>
<g clip-path="url(#clip0_1321_39)">
<path opacity="0.25" d="M462.817 327.822C469.712 325.922 473.808 318.769 471.396 312.036C460.401 281.337 440.93 254.37 415.25 234.275C409.617 229.867 401.539 231.504 397.566 237.452V237.452C393.592 243.399 395.235 251.398 400.809 255.88C421.381 272.422 437.116 294.214 446.344 318.946C448.845 325.647 455.922 329.723 462.817 327.822V327.822Z" fill="#0B8AFF"/>
<path opacity="0.75" d="M244.444 224.088C241.56 217.542 233.889 214.53 227.578 217.896C210.824 226.83 195.631 238.481 182.631 252.401C166.679 269.481 154.36 289.622 146.421 311.603C138.481 333.584 135.087 356.947 136.442 380.279C137.547 399.293 141.787 417.964 148.965 435.542C151.669 442.164 159.495 444.749 165.895 441.557V441.557C172.296 438.364 174.839 430.604 172.223 423.947C166.559 409.535 163.201 394.29 162.3 378.777C161.148 358.945 164.034 339.086 170.782 320.402C177.531 301.718 188.002 284.599 201.561 270.081C212.167 258.724 224.491 249.143 238.058 241.677C244.324 238.228 247.327 230.634 244.444 224.088V224.088Z" fill="#0B8AFF"/>
<path d="M465.312 338.221C472.319 336.786 479.214 341.302 480.12 348.397C484.74 384.582 477.79 421.429 460.083 453.576C440.287 489.516 408.34 517.232 369.966 531.759C331.592 546.286 289.299 546.673 250.665 532.852C216.11 520.49 186.501 497.483 166.001 467.31C161.981 461.393 164.157 453.444 170.358 449.879V449.879C176.559 446.313 184.43 448.49 188.527 454.352C205.904 479.214 230.631 498.176 259.39 508.464C292.229 520.212 328.178 519.883 360.796 507.535C393.413 495.187 420.568 471.628 437.395 441.079C452.132 414.325 458.103 383.741 454.66 353.605C453.848 346.499 458.305 339.656 465.312 338.221V338.221Z" fill="#0B8AFF"/>
<path opacity="0.5" d="M254.247 220.152C251.803 213.43 255.261 205.949 262.147 204.015C282.283 198.361 303.315 196.402 324.218 198.272C345.121 200.142 365.471 205.803 384.283 214.942C390.717 218.067 392.792 226.043 389.193 232.225V232.225C385.595 238.406 377.687 240.443 371.212 237.403C355.714 230.126 339.03 225.602 321.91 224.071C304.79 222.539 287.568 224.029 271.023 228.44C264.112 230.282 256.691 226.874 254.247 220.152V220.152Z" fill="#0B8AFF"/>
<path opacity="0.9" d="M255.96 399.618C251.911 399.618 248.295 398.92 245.111 397.525C241.946 396.129 239.44 394.193 237.593 391.717C235.765 389.221 234.782 386.332 234.645 383.05H243.902C244.02 384.838 244.619 386.391 245.7 387.708C246.801 389.005 248.236 390.007 250.004 390.715C251.773 391.422 253.739 391.776 255.901 391.776C258.279 391.776 260.382 391.363 262.21 390.538C264.057 389.712 265.502 388.563 266.543 387.088C267.585 385.595 268.106 383.875 268.106 381.929C268.106 379.905 267.585 378.126 266.543 376.593C265.521 375.041 264.018 373.822 262.033 372.938C260.067 372.053 257.689 371.611 254.898 371.611H249.798V364.182H254.898C257.139 364.182 259.104 363.779 260.795 362.973C262.504 362.167 263.841 361.047 264.804 359.612C265.767 358.158 266.249 356.458 266.249 354.512C266.249 352.645 265.826 351.023 264.981 349.647C264.155 348.252 262.976 347.161 261.443 346.375C259.93 345.589 258.141 345.196 256.078 345.196C254.112 345.196 252.275 345.559 250.565 346.287C248.874 346.994 247.499 348.016 246.437 349.353C245.376 350.669 244.806 352.252 244.727 354.099H235.912C236.011 350.837 236.974 347.967 238.802 345.491C240.649 343.014 243.086 341.078 246.113 339.683C249.14 338.287 252.501 337.59 256.196 337.59C260.067 337.59 263.409 338.346 266.219 339.86C269.049 341.353 271.231 343.348 272.764 345.844C274.317 348.34 275.083 351.072 275.063 354.04C275.083 357.421 274.14 360.29 272.233 362.649C270.346 365.007 267.831 366.589 264.686 367.395V367.867C268.696 368.476 271.801 370.068 274.002 372.643C276.223 375.217 277.324 378.411 277.304 382.224C277.324 385.546 276.4 388.523 274.533 391.157C272.685 393.791 270.16 395.864 266.956 397.377C263.753 398.871 260.087 399.618 255.96 399.618ZM288.448 398.792V392.189L308.878 371.021C311.06 368.722 312.858 366.707 314.273 364.978C315.708 363.228 316.779 361.568 317.487 359.995C318.194 358.423 318.548 356.752 318.548 354.984C318.548 352.979 318.076 351.249 317.133 349.795C316.19 348.321 314.902 347.191 313.271 346.405C311.64 345.599 309.802 345.196 307.758 345.196C305.596 345.196 303.709 345.638 302.098 346.522C300.486 347.407 299.248 348.655 298.383 350.267C297.518 351.878 297.086 353.765 297.086 355.927H288.389C288.389 352.252 289.234 349.038 290.924 346.287C292.615 343.535 294.934 341.403 297.882 339.889C300.83 338.356 304.181 337.59 307.935 337.59C311.728 337.59 315.069 338.346 317.958 339.86C320.867 341.353 323.137 343.397 324.769 345.992C326.4 348.566 327.216 351.475 327.216 354.718C327.216 356.959 326.793 359.15 325.948 361.292C325.122 363.435 323.678 365.823 321.614 368.456C319.55 371.07 316.681 374.245 313.006 377.979L301.007 390.538V390.98H328.188V398.792H288.448ZM340.187 398.792V338.415H349.297V367.248H350.034L375.358 338.415H386.826L362.475 365.597L386.915 398.792H375.948L356.431 371.817L349.297 380.013V398.792H340.187Z" fill="#141D40"/>
</g>
<circle cx="53.1317" cy="603.434" r="6.64151" fill="#0B8AFF"/>
<path d="M80.3868 611.434H74.914V594.528H80.5602C82.2166 594.528 83.6392 594.867 84.8279 595.544C86.0165 596.215 86.9273 597.181 87.5602 598.441C88.1985 599.696 88.5177 601.201 88.5177 602.956C88.5177 604.717 88.1958 606.231 87.5519 607.496C86.9136 608.762 85.989 609.736 84.7783 610.419C83.5676 611.096 82.1038 611.434 80.3868 611.434ZM77.4647 609.205H80.2465C81.5342 609.205 82.6046 608.963 83.4576 608.479C84.3106 607.989 84.9489 607.282 85.3727 606.357C85.7964 605.427 86.0083 604.294 86.0083 602.956C86.0083 601.63 85.7964 600.505 85.3727 599.58C84.9544 598.656 84.3298 597.954 83.4989 597.475C82.6679 596.996 81.636 596.757 80.4033 596.757H77.4647V609.205ZM96.9561 611.69C95.7069 611.69 94.631 611.423 93.7285 610.889C92.8315 610.35 92.1381 609.593 91.6483 608.619C91.164 607.64 90.9219 606.492 90.9219 605.177C90.9219 603.878 91.164 602.733 91.6483 601.743C92.1381 600.752 92.8205 599.979 93.6955 599.423C94.576 598.868 95.6051 598.59 96.7828 598.59C97.4982 598.59 98.1916 598.708 98.8629 598.945C99.5343 599.181 100.137 599.553 100.671 600.059C101.205 600.565 101.626 601.223 101.934 602.032C102.242 602.835 102.396 603.812 102.396 604.962V605.837H92.317V603.988H99.9773C99.9773 603.339 99.8453 602.764 99.5811 602.263C99.317 601.757 98.9455 601.358 98.4667 601.066C97.9935 600.774 97.4376 600.629 96.7993 600.629C96.1059 600.629 95.5005 600.799 94.9832 601.14C94.4714 601.476 94.0752 601.916 93.7946 602.461C93.5194 603 93.3818 603.586 93.3818 604.219V605.664C93.3818 606.511 93.5304 607.232 93.8276 607.827C94.1302 608.421 94.5512 608.875 95.0905 609.189C95.6299 609.497 96.26 609.651 96.9809 609.651C97.4486 609.651 97.8751 609.585 98.2604 609.453C98.6456 609.315 98.9785 609.112 99.2592 608.842C99.5398 608.572 99.7545 608.239 99.903 607.843L102.239 608.264C102.052 608.952 101.716 609.555 101.232 610.072C100.753 610.584 100.151 610.983 99.4243 611.269C98.7034 611.55 97.8806 611.69 96.9561 611.69ZM114.636 601.85L112.399 602.246C112.305 601.96 112.156 601.688 111.953 601.429C111.755 601.171 111.485 600.959 111.144 600.794C110.803 600.629 110.376 600.546 109.864 600.546C109.166 600.546 108.582 600.703 108.114 601.017C107.647 601.325 107.413 601.724 107.413 602.213C107.413 602.637 107.57 602.978 107.883 603.237C108.197 603.496 108.703 603.708 109.402 603.873L111.416 604.335C112.583 604.605 113.452 605.02 114.025 605.581C114.597 606.143 114.883 606.872 114.883 607.769C114.883 608.528 114.663 609.205 114.223 609.8C113.788 610.388 113.18 610.851 112.399 611.186C111.623 611.522 110.723 611.69 109.699 611.69C108.28 611.69 107.121 611.387 106.224 610.782C105.327 610.171 104.777 609.304 104.573 608.182L106.959 607.818C107.107 608.44 107.413 608.911 107.875 609.23C108.337 609.544 108.94 609.7 109.683 609.7C110.492 609.7 111.138 609.533 111.623 609.197C112.107 608.856 112.349 608.44 112.349 607.95C112.349 607.554 112.201 607.221 111.903 606.952C111.612 606.682 111.163 606.478 110.558 606.341L108.412 605.87C107.228 605.601 106.353 605.171 105.787 604.583C105.225 603.994 104.945 603.248 104.945 602.346C104.945 601.597 105.154 600.942 105.572 600.381C105.99 599.82 106.568 599.382 107.305 599.068C108.043 598.749 108.888 598.59 109.84 598.59C111.21 598.59 112.289 598.887 113.076 599.481C113.862 600.07 114.383 600.86 114.636 601.85ZM119.867 607.133L119.851 604.12H120.28L125.332 598.755H128.287L122.525 604.863H122.137L119.867 607.133ZM117.597 611.434V594.528H120.065V611.434H117.597ZM125.604 611.434L121.064 605.408L122.764 603.683L128.634 611.434H125.604ZM136.455 598.755V600.736H129.529V598.755H136.455ZM131.387 595.717H133.855V607.711C133.855 608.19 133.926 608.55 134.069 608.792C134.212 609.029 134.397 609.191 134.622 609.279C134.854 609.362 135.104 609.403 135.374 609.403C135.572 609.403 135.745 609.39 135.894 609.362C136.042 609.335 136.158 609.312 136.24 609.296L136.686 611.335C136.543 611.39 136.339 611.445 136.075 611.5C135.811 611.561 135.481 611.594 135.085 611.599C134.435 611.61 133.83 611.494 133.269 611.252C132.707 611.01 132.253 610.636 131.907 610.13C131.56 609.623 131.387 608.988 131.387 608.223V595.717ZM144.39 611.69C143.201 611.69 142.164 611.417 141.278 610.873C140.392 610.328 139.704 609.566 139.214 608.586C138.724 607.607 138.479 606.462 138.479 605.152C138.479 603.837 138.724 602.687 139.214 601.702C139.704 600.717 140.392 599.952 141.278 599.407C142.164 598.862 143.201 598.59 144.39 598.59C145.578 598.59 146.616 598.862 147.502 599.407C148.388 599.952 149.076 600.717 149.565 601.702C150.055 602.687 150.3 603.837 150.3 605.152C150.3 606.462 150.055 607.607 149.565 608.586C149.076 609.566 148.388 610.328 147.502 610.873C146.616 611.417 145.578 611.69 144.39 611.69ZM144.398 609.618C145.168 609.618 145.807 609.414 146.313 609.007C146.819 608.6 147.194 608.058 147.436 607.381C147.683 606.704 147.807 605.958 147.807 605.144C147.807 604.335 147.683 603.592 147.436 602.915C147.194 602.233 146.819 601.685 146.313 601.272C145.807 600.86 145.168 600.653 144.398 600.653C143.622 600.653 142.978 600.86 142.466 601.272C141.96 601.685 141.583 602.233 141.336 602.915C141.093 603.592 140.972 604.335 140.972 605.144C140.972 605.958 141.093 606.704 141.336 607.381C141.583 608.058 141.96 608.6 142.466 609.007C142.978 609.414 143.622 609.618 144.398 609.618ZM153.055 616.189V598.755H155.466V600.81H155.672C155.815 600.546 156.021 600.241 156.291 599.894C156.561 599.547 156.935 599.244 157.414 598.986C157.892 598.722 158.525 598.59 159.312 598.59C160.336 598.59 161.249 598.848 162.053 599.366C162.856 599.883 163.486 600.629 163.943 601.603C164.405 602.577 164.637 603.749 164.637 605.119C164.637 606.489 164.408 607.664 163.951 608.644C163.495 609.618 162.867 610.369 162.069 610.897C161.271 611.42 160.361 611.682 159.337 611.682C158.567 611.682 157.936 611.552 157.447 611.294C156.962 611.035 156.583 610.732 156.308 610.386C156.032 610.039 155.82 609.731 155.672 609.461H155.523V616.189H153.055ZM155.474 605.094C155.474 605.986 155.603 606.767 155.862 607.439C156.12 608.11 156.495 608.636 156.984 609.015C157.474 609.39 158.074 609.577 158.784 609.577C159.521 609.577 160.138 609.381 160.633 608.991C161.128 608.594 161.502 608.058 161.756 607.381C162.014 606.704 162.144 605.942 162.144 605.094C162.144 604.258 162.017 603.507 161.764 602.841C161.516 602.175 161.142 601.649 160.641 601.264C160.146 600.879 159.527 600.686 158.784 600.686C158.069 600.686 157.463 600.871 156.968 601.239C156.478 601.608 156.107 602.123 155.854 602.783C155.6 603.443 155.474 604.214 155.474 605.094Z" fill="#141D40"/>
<path d="M526.03 611.665C524.996 611.665 524.066 611.467 523.24 611.071C522.42 610.669 521.766 610.119 521.276 609.42C520.786 608.721 520.525 607.923 520.492 607.026H522.968C523.029 607.752 523.35 608.349 523.934 608.817C524.517 609.285 525.216 609.519 526.03 609.519C526.68 609.519 527.255 609.37 527.756 609.073C528.262 608.77 528.658 608.355 528.944 607.827C529.236 607.298 529.382 606.696 529.382 606.019C529.382 605.331 529.233 604.717 528.936 604.178C528.639 603.639 528.229 603.215 527.706 602.907C527.189 602.599 526.595 602.442 525.923 602.436C525.411 602.436 524.897 602.524 524.38 602.7C523.862 602.877 523.444 603.108 523.125 603.394L520.789 603.047L521.738 594.528H531.033V596.716H523.86L523.323 601.446H523.422C523.752 601.127 524.19 600.86 524.735 600.645C525.285 600.43 525.874 600.323 526.501 600.323C527.53 600.323 528.446 600.568 529.25 601.058C530.059 601.548 530.694 602.216 531.157 603.064C531.624 603.906 531.856 604.874 531.85 605.969C531.856 607.064 531.608 608.041 531.107 608.9C530.612 609.758 529.924 610.435 529.043 610.93C528.168 611.42 527.164 611.665 526.03 611.665ZM534.51 608.132V606.068L541.816 594.528H543.442V597.566H542.41L537.185 605.837V605.969H547.198V608.132H534.51ZM542.525 611.434V607.505L542.542 606.564V594.528H544.961V611.434H542.525ZM558.899 608.264V607.373C558.899 606.734 559.031 606.151 559.295 605.623C559.565 605.089 559.955 604.662 560.467 604.343C560.984 604.018 561.609 603.856 562.341 603.856C563.089 603.856 563.717 604.016 564.223 604.335C564.729 604.654 565.112 605.081 565.37 605.614C565.635 606.148 565.767 606.734 565.767 607.373V608.264C565.767 608.903 565.635 609.489 565.37 610.022C565.106 610.551 564.718 610.977 564.206 611.302C563.7 611.621 563.078 611.781 562.341 611.781C561.598 611.781 560.971 611.621 560.459 611.302C559.947 610.977 559.559 610.551 559.295 610.022C559.031 609.489 558.899 608.903 558.899 608.264ZM560.822 607.373V608.264C560.822 608.737 560.935 609.167 561.161 609.552C561.386 609.937 561.78 610.13 562.341 610.13C562.897 610.13 563.285 609.937 563.505 609.552C563.725 609.167 563.835 608.737 563.835 608.264V607.373C563.835 606.899 563.728 606.47 563.513 606.085C563.304 605.7 562.913 605.507 562.341 605.507C561.791 605.507 561.4 605.7 561.169 606.085C560.938 606.47 560.822 606.899 560.822 607.373ZM550.396 598.59V597.698C550.396 597.06 550.528 596.474 550.793 595.94C551.062 595.406 551.453 594.98 551.965 594.66C552.482 594.341 553.107 594.182 553.839 594.182C554.587 594.182 555.214 594.341 555.721 594.66C556.227 594.98 556.609 595.406 556.868 595.94C557.127 596.474 557.256 597.06 557.256 597.698V598.59C557.256 599.228 557.124 599.814 556.86 600.348C556.601 600.876 556.216 601.303 555.704 601.627C555.198 601.947 554.576 602.106 553.839 602.106C553.09 602.106 552.46 601.947 551.948 601.627C551.442 601.303 551.057 600.876 550.793 600.348C550.528 599.814 550.396 599.228 550.396 598.59ZM552.328 597.698V598.59C552.328 599.063 552.438 599.492 552.658 599.877C552.884 600.263 553.277 600.455 553.839 600.455C554.389 600.455 554.774 600.263 554.994 599.877C555.22 599.492 555.333 599.063 555.333 598.59V597.698C555.333 597.225 555.225 596.796 555.011 596.41C554.796 596.025 554.405 595.833 553.839 595.833C553.288 595.833 552.898 596.025 552.666 596.41C552.441 596.796 552.328 597.225 552.328 597.698ZM551.181 611.434L562.803 594.528H564.776L553.153 611.434H551.181Z" fill="#141D40"/>
<line opacity="0.3" x1="46.4902" y1="630.113" x2="568.509" y2="630.113" stroke="#0B8AFF" stroke-width="1.66038"/>
<circle opacity="0.7" cx="53.1317" cy="658.226" r="6.64151" fill="#0B8AFF"/>
<path d="M74.914 649.321H78.0095L83.3915 662.462H83.5897L88.9717 649.321H92.0673V666.226H89.6404V653.993H89.4835L84.4977 666.202H82.4835L77.4977 653.985H77.3408V666.226H74.914V649.321ZM100.918 666.482C99.7297 666.482 98.6924 666.21 97.8063 665.665C96.9203 665.12 96.2324 664.358 95.7427 663.379C95.2529 662.399 95.008 661.254 95.008 659.945C95.008 658.629 95.2529 657.479 95.7427 656.494C96.2324 655.509 96.9203 654.744 97.8063 654.199C98.6924 653.655 99.7297 653.382 100.918 653.382C102.107 653.382 103.144 653.655 104.03 654.199C104.916 654.744 105.604 655.509 106.094 656.494C106.584 657.479 106.829 658.629 106.829 659.945C106.829 661.254 106.584 662.399 106.094 663.379C105.604 664.358 104.916 665.12 104.03 665.665C103.144 666.21 102.107 666.482 100.918 666.482ZM100.927 664.41C101.697 664.41 102.335 664.207 102.842 663.8C103.348 663.392 103.722 662.85 103.964 662.173C104.212 661.496 104.336 660.751 104.336 659.936C104.336 659.127 104.212 658.384 103.964 657.708C103.722 657.025 103.348 656.478 102.842 656.065C102.335 655.652 101.697 655.446 100.927 655.446C100.151 655.446 99.5068 655.652 98.995 656.065C98.4887 656.478 98.1118 657.025 97.8641 657.708C97.622 658.384 97.5009 659.127 97.5009 659.936C97.5009 660.751 97.622 661.496 97.8641 662.173C98.1118 662.85 98.4887 663.392 98.995 663.8C99.5068 664.207 100.151 664.41 100.927 664.41ZM109.782 666.226V649.321H112.25V655.603H112.399C112.542 655.338 112.748 655.033 113.018 654.686C113.287 654.34 113.662 654.037 114.14 653.778C114.619 653.514 115.252 653.382 116.039 653.382C117.063 653.382 117.976 653.641 118.78 654.158C119.583 654.675 120.213 655.421 120.67 656.395C121.132 657.369 121.363 658.541 121.363 659.912C121.363 661.282 121.135 662.457 120.678 663.436C120.221 664.41 119.594 665.162 118.796 665.69C117.998 666.213 117.087 666.474 116.064 666.474C115.293 666.474 114.663 666.345 114.173 666.086C113.689 665.827 113.309 665.525 113.034 665.178C112.759 664.831 112.547 664.523 112.399 664.254H112.192V666.226H109.782ZM112.201 659.887C112.201 660.778 112.33 661.56 112.588 662.231C112.847 662.903 113.221 663.428 113.711 663.808C114.201 664.182 114.801 664.369 115.511 664.369C116.248 664.369 116.864 664.174 117.36 663.783C117.855 663.387 118.229 662.85 118.482 662.173C118.741 661.496 118.87 660.734 118.87 659.887C118.87 659.05 118.744 658.299 118.491 657.633C118.243 656.967 117.869 656.442 117.368 656.057C116.873 655.671 116.254 655.479 115.511 655.479C114.795 655.479 114.19 655.663 113.695 656.032C113.205 656.401 112.833 656.915 112.58 657.575C112.327 658.236 112.201 659.006 112.201 659.887ZM124.135 666.226V653.547H126.603V666.226H124.135ZM125.381 651.591C124.952 651.591 124.583 651.448 124.275 651.162C123.972 650.87 123.821 650.523 123.821 650.121C123.821 649.714 123.972 649.368 124.275 649.081C124.583 648.79 124.952 648.644 125.381 648.644C125.81 648.644 126.176 648.79 126.479 649.081C126.787 649.368 126.941 649.714 126.941 650.121C126.941 650.523 126.787 650.87 126.479 651.162C126.176 651.448 125.81 651.591 125.381 651.591ZM132.392 649.321V666.226H129.923V649.321H132.392ZM141.177 666.482C139.927 666.482 138.852 666.215 137.949 665.682C137.052 665.142 136.359 664.386 135.869 663.412C135.385 662.432 135.142 661.285 135.142 659.969C135.142 658.671 135.385 657.526 135.869 656.535C136.359 655.545 137.041 654.772 137.916 654.216C138.797 653.66 139.826 653.382 141.003 653.382C141.719 653.382 142.412 653.5 143.083 653.737C143.755 653.974 144.357 654.345 144.891 654.851C145.425 655.358 145.846 656.015 146.154 656.824C146.462 657.628 146.616 658.605 146.616 659.755V660.63H136.537V658.781H144.198C144.198 658.131 144.066 657.556 143.802 657.055C143.537 656.549 143.166 656.15 142.687 655.859C142.214 655.567 141.658 655.421 141.02 655.421C140.326 655.421 139.721 655.592 139.204 655.933C138.692 656.268 138.296 656.709 138.015 657.254C137.74 657.793 137.602 658.379 137.602 659.012V660.456C137.602 661.304 137.751 662.025 138.048 662.619C138.351 663.213 138.772 663.667 139.311 663.981C139.85 664.289 140.48 664.443 141.201 664.443C141.669 664.443 142.096 664.377 142.481 664.245C142.866 664.108 143.199 663.904 143.48 663.634C143.76 663.365 143.975 663.032 144.124 662.636L146.46 663.057C146.273 663.745 145.937 664.347 145.453 664.864C144.974 665.376 144.371 665.775 143.645 666.061C142.924 666.342 142.101 666.482 141.177 666.482Z" fill="#141D40"/>
<path d="M522.017 666.226V664.377L527.738 658.45C528.349 657.807 528.852 657.243 529.248 656.758C529.65 656.268 529.95 655.803 530.148 655.363C530.346 654.923 530.445 654.455 530.445 653.96C530.445 653.399 530.313 652.914 530.049 652.507C529.785 652.094 529.425 651.778 528.968 651.558C528.511 651.332 527.996 651.219 527.424 651.219C526.819 651.219 526.29 651.343 525.839 651.591C525.388 651.838 525.041 652.188 524.799 652.639C524.557 653.09 524.436 653.619 524.436 654.224H522.001C522.001 653.195 522.237 652.295 522.711 651.525C523.184 650.754 523.833 650.157 524.659 649.734C525.484 649.304 526.423 649.09 527.474 649.09C528.536 649.09 529.471 649.302 530.28 649.725C531.095 650.143 531.73 650.716 532.187 651.442C532.644 652.163 532.872 652.978 532.872 653.886C532.872 654.513 532.754 655.127 532.517 655.726C532.286 656.326 531.882 656.995 531.304 657.732C530.726 658.464 529.923 659.353 528.893 660.399L525.534 663.915V664.039H533.145V666.226H522.017ZM536.843 666.226L544.222 651.632V651.508H535.687V649.321H546.864V651.583L539.509 666.226H536.843ZM558.559 663.057V662.165C558.559 661.527 558.691 660.943 558.955 660.415C559.225 659.881 559.615 659.455 560.127 659.136C560.645 658.811 561.269 658.649 562.001 658.649C562.75 658.649 563.377 658.808 563.883 659.127C564.389 659.447 564.772 659.873 565.031 660.407C565.295 660.941 565.427 661.527 565.427 662.165V663.057C565.427 663.695 565.295 664.281 565.031 664.815C564.766 665.343 564.378 665.77 563.867 666.094C563.36 666.414 562.739 666.573 562.001 666.573C561.258 666.573 560.631 666.414 560.119 666.094C559.607 665.77 559.219 665.343 558.955 664.815C558.691 664.281 558.559 663.695 558.559 663.057ZM560.482 662.165V663.057C560.482 663.53 560.595 663.959 560.821 664.344C561.046 664.73 561.44 664.922 562.001 664.922C562.557 664.922 562.945 664.73 563.165 664.344C563.385 663.959 563.495 663.53 563.495 663.057V662.165C563.495 661.692 563.388 661.263 563.173 660.877C562.964 660.492 562.573 660.3 562.001 660.3C561.451 660.3 561.06 660.492 560.829 660.877C560.598 661.263 560.482 661.692 560.482 662.165ZM550.057 653.382V652.491C550.057 651.852 550.189 651.266 550.453 650.732C550.722 650.199 551.113 649.772 551.625 649.453C552.142 649.134 552.767 648.974 553.499 648.974C554.247 648.974 554.875 649.134 555.381 649.453C555.887 649.772 556.27 650.199 556.528 650.732C556.787 651.266 556.916 651.852 556.916 652.491V653.382C556.916 654.02 556.784 654.607 556.52 655.14C556.261 655.669 555.876 656.095 555.364 656.42C554.858 656.739 554.236 656.899 553.499 656.899C552.75 656.899 552.12 656.739 551.608 656.42C551.102 656.095 550.717 655.669 550.453 655.14C550.189 654.607 550.057 654.02 550.057 653.382ZM551.988 652.491V653.382C551.988 653.855 552.098 654.285 552.318 654.67C552.544 655.055 552.937 655.248 553.499 655.248C554.049 655.248 554.434 655.055 554.654 654.67C554.88 654.285 554.993 653.855 554.993 653.382V652.491C554.993 652.017 554.886 651.588 554.671 651.203C554.456 650.818 554.066 650.625 553.499 650.625C552.948 650.625 552.558 650.818 552.327 651.203C552.101 651.588 551.988 652.017 551.988 652.491ZM550.841 666.226L562.463 649.321H564.436L552.814 666.226H550.841Z" fill="#141D40"/>
<line opacity="0.3" x1="46.4902" y1="684.906" x2="568.509" y2="684.906" stroke="#0B8AFF" stroke-width="1.66038"/>
<circle opacity="0.4" cx="53.1317" cy="713.019" r="6.64151" fill="#0B8AFF"/>
<path d="M74.0802 706.309V704.113H87.164V706.309H81.8892V721.019H79.3467V706.309H74.0802ZM91.8217 721.3C91.0182 721.3 90.2918 721.151 89.6424 720.854C88.9931 720.551 88.4785 720.114 88.0988 719.541C87.7246 718.969 87.5375 718.267 87.5375 717.436C87.5375 716.721 87.6751 716.132 87.9502 715.67C88.2254 715.208 88.5968 714.842 89.0646 714.572C89.5324 714.302 90.0552 714.099 90.633 713.961C91.2108 713.823 91.7997 713.719 92.3995 713.647C93.1589 713.559 93.7753 713.488 94.2486 713.433C94.7218 713.372 95.0658 713.276 95.2804 713.144C95.495 713.012 95.6023 712.797 95.6023 712.5V712.442C95.6023 711.721 95.3987 711.163 94.9915 710.767C94.5898 710.37 93.9899 710.172 93.192 710.172C92.361 710.172 91.7061 710.357 91.2273 710.725C90.7541 711.088 90.4266 711.493 90.245 711.939L87.9254 711.41C88.2006 710.64 88.6023 710.018 89.1306 709.545C89.6644 709.066 90.278 708.719 90.9714 708.505C91.6648 708.285 92.394 708.175 93.1589 708.175C93.6652 708.175 94.2018 708.235 94.7686 708.356C95.3409 708.472 95.8747 708.686 96.37 709C96.8708 709.314 97.2808 709.762 97.6 710.346C97.9192 710.923 98.0788 711.675 98.0788 712.599V721.019H95.6684V719.285H95.5693C95.4097 719.605 95.1703 719.918 94.8512 720.226C94.532 720.535 94.122 720.79 93.6212 720.994C93.1204 721.198 92.5206 721.3 91.8217 721.3ZM92.3582 719.318C93.0406 719.318 93.624 719.184 94.1082 718.914C94.598 718.644 94.9695 718.292 95.2226 717.857C95.4813 717.417 95.6106 716.947 95.6106 716.446V714.811C95.5225 714.899 95.3519 714.982 95.0988 715.059C94.8512 715.13 94.5677 715.194 94.2486 715.249C93.9294 715.298 93.6185 715.345 93.3158 715.389C93.0131 715.428 92.76 715.461 92.5563 715.488C92.0776 715.549 91.6401 715.651 91.2438 715.794C90.8531 715.937 90.5394 716.143 90.3028 716.413C90.0717 716.677 89.9561 717.029 89.9561 717.469C89.9561 718.08 90.1817 718.542 90.633 718.856C91.0843 719.164 91.6593 719.318 92.3582 719.318ZM101.564 721.019V704.113H104.032V710.395H104.181C104.324 710.131 104.53 709.825 104.8 709.479C105.07 709.132 105.444 708.829 105.923 708.571C106.402 708.307 107.034 708.175 107.821 708.175C108.845 708.175 109.758 708.433 110.562 708.95C111.365 709.468 111.996 710.213 112.452 711.187C112.915 712.162 113.146 713.334 113.146 714.704C113.146 716.074 112.917 717.249 112.461 718.229C112.004 719.203 111.376 719.954 110.578 720.482C109.78 721.005 108.87 721.267 107.846 721.267C107.076 721.267 106.446 721.137 105.956 720.879C105.472 720.62 105.092 720.317 104.817 719.971C104.542 719.624 104.33 719.316 104.181 719.046H103.975V721.019H101.564ZM103.983 714.679C103.983 715.571 104.112 716.352 104.371 717.024C104.63 717.695 105.004 718.221 105.494 718.6C105.983 718.974 106.583 719.162 107.293 719.162C108.03 719.162 108.647 718.966 109.142 718.575C109.637 718.179 110.012 717.643 110.265 716.966C110.523 716.289 110.653 715.527 110.653 714.679C110.653 713.843 110.526 713.092 110.273 712.426C110.025 711.76 109.651 711.234 109.15 710.849C108.655 710.464 108.036 710.271 107.293 710.271C106.578 710.271 105.972 710.456 105.477 710.824C104.987 711.193 104.616 711.708 104.363 712.368C104.11 713.028 103.983 713.799 103.983 714.679ZM118.385 704.113V721.019H115.917V704.113H118.385ZM127.17 721.275C125.921 721.275 124.845 721.008 123.943 720.474C123.046 719.935 122.352 719.178 121.863 718.204C121.378 717.224 121.136 716.077 121.136 714.762C121.136 713.463 121.378 712.318 121.863 711.328C122.352 710.337 123.035 709.564 123.91 709.008C124.79 708.452 125.819 708.175 126.997 708.175C127.712 708.175 128.406 708.293 129.077 708.529C129.749 708.766 130.351 709.138 130.885 709.644C131.419 710.15 131.84 710.808 132.148 711.617C132.456 712.42 132.61 713.397 132.61 714.547V715.422H122.531V713.573H130.192C130.192 712.924 130.06 712.349 129.795 711.848C129.531 711.342 129.16 710.943 128.681 710.651C128.208 710.359 127.652 710.213 127.014 710.213C126.32 710.213 125.715 710.384 125.198 710.725C124.686 711.061 124.29 711.501 124.009 712.046C123.734 712.585 123.596 713.171 123.596 713.804V715.249C123.596 716.096 123.745 716.817 124.042 717.412C124.345 718.006 124.766 718.46 125.305 718.774C125.844 719.082 126.474 719.236 127.195 719.236C127.663 719.236 128.089 719.17 128.475 719.038C128.86 718.9 129.193 718.697 129.474 718.427C129.754 718.157 129.969 717.824 130.117 717.428L132.453 717.849C132.266 718.537 131.931 719.14 131.446 719.657C130.968 720.169 130.365 720.568 129.639 720.854C128.918 721.134 128.095 721.275 127.17 721.275ZM141.267 708.34V710.321H134.342V708.34H141.267ZM136.199 705.302H138.667V717.296C138.667 717.775 138.739 718.135 138.882 718.377C139.025 718.614 139.209 718.776 139.435 718.864C139.666 718.947 139.916 718.988 140.186 718.988C140.384 718.988 140.558 718.974 140.706 718.947C140.855 718.919 140.97 718.897 141.053 718.881L141.499 720.92C141.355 720.975 141.152 721.03 140.888 721.085C140.624 721.145 140.293 721.178 139.897 721.184C139.248 721.195 138.642 721.079 138.081 720.837C137.52 720.595 137.066 720.221 136.719 719.715C136.372 719.208 136.199 718.573 136.199 717.808V705.302Z" fill="#141D40"/>
<path d="M532.227 704.113V721.019H529.668V706.672H529.569L525.524 709.314V706.87L529.742 704.113H532.227ZM536.8 721.019V719.17L542.52 713.243C543.131 712.599 543.635 712.035 544.031 711.551C544.433 711.061 544.733 710.596 544.931 710.156C545.129 709.715 545.228 709.248 545.228 708.752C545.228 708.191 545.096 707.707 544.832 707.3C544.568 706.887 544.207 706.57 543.75 706.35C543.294 706.125 542.779 706.012 542.207 706.012C541.601 706.012 541.073 706.136 540.622 706.383C540.171 706.631 539.824 706.98 539.582 707.432C539.34 707.883 539.219 708.411 539.219 709.017H536.783C536.783 707.987 537.02 707.088 537.493 706.317C537.967 705.547 538.616 704.95 539.441 704.526C540.267 704.097 541.205 703.882 542.256 703.882C543.318 703.882 544.254 704.094 545.063 704.518C545.877 704.936 546.513 705.508 546.97 706.235C547.427 706.956 547.655 707.77 547.655 708.678C547.655 709.305 547.537 709.919 547.3 710.519C547.069 711.119 546.664 711.787 546.087 712.525C545.509 713.257 544.705 714.145 543.676 715.191L540.316 718.708V718.831H547.927V721.019H536.8ZM559.88 717.849V716.958C559.88 716.319 560.012 715.736 560.276 715.208C560.546 714.674 560.937 714.247 561.449 713.928C561.966 713.603 562.59 713.441 563.322 713.441C564.071 713.441 564.698 713.601 565.204 713.92C565.711 714.239 566.093 714.665 566.352 715.199C566.616 715.733 566.748 716.319 566.748 716.958V717.849C566.748 718.487 566.616 719.073 566.352 719.607C566.088 720.136 565.7 720.562 565.188 720.887C564.682 721.206 564.06 721.366 563.322 721.366C562.579 721.366 561.952 721.206 561.44 720.887C560.929 720.562 560.541 720.136 560.276 719.607C560.012 719.073 559.88 718.487 559.88 717.849ZM561.804 716.958V717.849C561.804 718.322 561.916 718.752 562.142 719.137C562.368 719.522 562.761 719.715 563.322 719.715C563.878 719.715 564.266 719.522 564.486 719.137C564.706 718.752 564.816 718.322 564.816 717.849V716.958C564.816 716.484 564.709 716.055 564.495 715.67C564.285 715.285 563.895 715.092 563.322 715.092C562.772 715.092 562.381 715.285 562.15 715.67C561.919 716.055 561.804 716.484 561.804 716.958ZM551.378 708.175V707.283C551.378 706.645 551.51 706.059 551.774 705.525C552.044 704.991 552.434 704.564 552.946 704.245C553.463 703.926 554.088 703.767 554.82 703.767C555.568 703.767 556.196 703.926 556.702 704.245C557.208 704.564 557.591 704.991 557.849 705.525C558.108 706.059 558.237 706.645 558.237 707.283V708.175C558.237 708.813 558.105 709.399 557.841 709.933C557.583 710.461 557.197 710.888 556.686 711.212C556.179 711.531 555.557 711.691 554.82 711.691C554.072 711.691 553.441 711.531 552.93 711.212C552.423 710.888 552.038 710.461 551.774 709.933C551.51 709.399 551.378 708.813 551.378 708.175ZM553.309 707.283V708.175C553.309 708.648 553.419 709.077 553.64 709.462C553.865 709.847 554.259 710.04 554.82 710.04C555.37 710.04 555.756 709.847 555.976 709.462C556.201 709.077 556.314 708.648 556.314 708.175V707.283C556.314 706.81 556.207 706.38 555.992 705.995C555.778 705.61 555.387 705.417 554.82 705.417C554.27 705.417 553.879 705.61 553.648 705.995C553.422 706.38 553.309 706.81 553.309 707.283ZM552.162 721.019L563.785 704.113H565.758L554.135 721.019H552.162Z" fill="#141D40"/>
<line opacity="0.3" x1="46.4902" y1="739.698" x2="568.509" y2="739.698" stroke="#0B8AFF" stroke-width="1.66038"/>
<circle opacity="0.2" cx="53.1317" cy="767.811" r="6.64151" fill="#0B8AFF"/>
<path d="M74.0802 761.101V758.906H87.164V761.101H81.8892V775.811H79.3467V761.101H74.0802ZM91.5328 758.906L96.2379 772.675H96.4278L101.133 758.906H103.89L97.8063 775.811H94.8594L88.7757 758.906H91.5328Z" fill="#141D40"/>
<path d="M537.786 775.811L545.166 761.217V761.093H536.63V758.906H547.807V761.167L540.452 775.811H537.786ZM559.502 772.642V771.75C559.502 771.112 559.634 770.528 559.898 770C560.168 769.466 560.559 769.04 561.071 768.721C561.588 768.396 562.213 768.234 562.944 768.234C563.693 768.234 564.32 768.393 564.827 768.712C565.333 769.031 565.715 769.458 565.974 769.992C566.238 770.526 566.37 771.112 566.37 771.75V772.642C566.37 773.28 566.238 773.866 565.974 774.4C565.71 774.928 565.322 775.355 564.81 775.679C564.304 775.998 563.682 776.158 562.944 776.158C562.202 776.158 561.574 775.998 561.062 775.679C560.551 775.355 560.163 774.928 559.898 774.4C559.634 773.866 559.502 773.28 559.502 772.642ZM561.426 771.75V772.642C561.426 773.115 561.538 773.544 561.764 773.929C561.99 774.314 562.383 774.507 562.944 774.507C563.5 774.507 563.888 774.314 564.108 773.929C564.328 773.544 564.439 773.115 564.439 772.642V771.75C564.439 771.277 564.331 770.848 564.117 770.462C563.907 770.077 563.517 769.884 562.944 769.884C562.394 769.884 562.003 770.077 561.772 770.462C561.541 770.848 561.426 771.277 561.426 771.75ZM551 762.967V762.075C551 761.437 551.132 760.851 551.396 760.317C551.666 759.783 552.056 759.357 552.568 759.038C553.086 758.719 553.71 758.559 554.442 758.559C555.191 758.559 555.818 758.719 556.324 759.038C556.83 759.357 557.213 759.783 557.472 760.317C557.73 760.851 557.86 761.437 557.86 762.075V762.967C557.86 763.605 557.727 764.191 557.463 764.725C557.205 765.254 556.819 765.68 556.308 766.005C555.801 766.324 555.18 766.484 554.442 766.484C553.694 766.484 553.064 766.324 552.552 766.005C552.045 765.68 551.66 765.254 551.396 764.725C551.132 764.191 551 763.605 551 762.967ZM552.931 762.075V762.967C552.931 763.44 553.042 763.87 553.262 764.255C553.487 764.64 553.881 764.833 554.442 764.833C554.992 764.833 555.378 764.64 555.598 764.255C555.823 763.87 555.936 763.44 555.936 762.967V762.075C555.936 761.602 555.829 761.173 555.614 760.788C555.4 760.403 555.009 760.21 554.442 760.21C553.892 760.21 553.501 760.403 553.27 760.788C553.044 761.173 552.931 761.602 552.931 762.075ZM551.784 775.811L563.407 758.906H565.38L553.757 775.811H551.784Z" fill="#141D40"/>
<line opacity="0.3" x1="46.4902" y1="794.491" x2="568.509" y2="794.491" stroke="#0B8AFF" stroke-width="1.66038"/>
<defs>
<clipPath id="clip0_1321_39">
<rect x="136.151" y="197.585" width="345.358" height="345.358" rx="172.679" fill="white"/>
</clipPath>
</defs>
</svg>
