<svg width="695" height="344" viewBox="0 0 695 344" fill="none" xmlns="http://www.w3.org/2000/svg">
<rect width="695" height="343.049" fill="white"/>
<path fill-rule="evenodd" clip-rule="evenodd" d="M82.3175 110.626C81.2931 110.259 80.4516 109.747 79.7348 109.03C77.6448 106.94 77.2929 103.791 77.2337 98.1366H111.531C111.471 103.791 111.12 106.94 109.03 109.03C108.313 109.747 107.472 110.259 106.447 110.625L108.692 115.114C109.089 115.909 108.767 116.875 107.972 117.273C107.178 117.67 106.211 117.348 105.814 116.553L103.189 111.302C100.94 111.543 98.0846 111.543 94.3822 111.543C90.6802 111.543 87.8252 111.543 85.5765 111.302L82.9511 116.553C82.5538 117.348 81.5874 117.67 80.7927 117.273C79.998 116.875 79.6758 115.909 80.0732 115.114L82.3175 110.626ZM100.281 102.963C100.281 102.074 101.001 101.354 101.89 101.354H105.107C105.996 101.354 106.716 102.074 106.716 102.963C106.716 103.851 105.996 104.572 105.107 104.572H101.89C101.001 104.572 100.281 103.851 100.281 102.963ZM83.6569 101.354C82.7684 101.354 82.0481 102.074 82.0481 102.963C82.0481 103.851 82.7684 104.572 83.6569 104.572H86.8745C87.763 104.572 88.4833 103.851 88.4833 102.963C88.4833 102.074 87.763 101.354 86.8745 101.354H83.6569Z" fill="#006DED"/>
<path d="M111.543 94.919V90.0926C111.543 82.0031 111.543 77.9583 109.03 75.4452C107.144 73.5599 104.397 73.089 99.7269 72.9713C99.1475 72.9567 98.6723 73.4251 98.6723 74.0046V74.0046C98.6723 76.374 96.7515 78.2948 94.3822 78.2948C92.0128 78.2948 90.092 76.374 90.092 74.0046V74.0046C90.092 73.4251 89.6168 72.9567 89.0374 72.9713C84.3673 73.089 81.62 73.5599 79.7348 75.4452C77.2217 77.9583 77.2217 82.0031 77.2217 90.0926V94.919H111.543Z" fill="#006DED"/>
<path d="M140.025 106.383V81.422H155.504V84.664H143.792V92.2692H154.395V95.499H143.792V106.383H140.025ZM159.156 106.383V87.6622H162.801V106.383H159.156ZM160.997 84.7737C160.363 84.7737 159.819 84.5624 159.364 84.1399C158.917 83.7093 158.693 83.1974 158.693 82.6043C158.693 82.003 158.917 81.4911 159.364 81.0686C159.819 80.6379 160.363 80.4226 160.997 80.4226C161.631 80.4226 162.171 80.6379 162.618 81.0686C163.073 81.4911 163.3 82.003 163.3 82.6043C163.3 83.1974 163.073 83.7093 162.618 84.1399C162.171 84.5624 161.631 84.7737 160.997 84.7737ZM174.866 113.793C173.379 113.793 172.099 113.598 171.027 113.208C169.962 112.818 169.093 112.302 168.418 111.66C167.744 111.018 167.24 110.315 166.907 109.552L170.039 108.26C170.259 108.617 170.551 108.995 170.917 109.393C171.291 109.799 171.794 110.145 172.428 110.429C173.07 110.714 173.895 110.856 174.902 110.856C176.284 110.856 177.425 110.518 178.327 109.844C179.229 109.178 179.68 108.113 179.68 106.651V102.97H179.448C179.229 103.368 178.912 103.811 178.498 104.299C178.091 104.786 177.531 105.209 176.816 105.566C176.101 105.924 175.17 106.102 174.025 106.102C172.546 106.102 171.213 105.757 170.027 105.066C168.849 104.368 167.915 103.34 167.224 101.983C166.541 100.618 166.2 98.94 166.2 96.9494C166.2 94.9587 166.537 93.2524 167.212 91.8305C167.894 90.4085 168.829 89.3198 170.015 88.5641C171.201 87.8003 172.546 87.4185 174.049 87.4185C175.211 87.4185 176.15 87.6135 176.865 88.0035C177.58 88.3854 178.136 88.8322 178.534 89.3441C178.941 89.856 179.253 90.307 179.473 90.697H179.741V87.6622H183.312V106.797C183.312 108.406 182.938 109.726 182.191 110.758C181.443 111.79 180.432 112.554 179.156 113.05C177.888 113.545 176.458 113.793 174.866 113.793ZM174.829 103.08C175.877 103.08 176.763 102.836 177.486 102.349C178.217 101.853 178.77 101.146 179.144 100.228C179.526 99.3016 179.717 98.1925 179.717 96.9006C179.717 95.6412 179.53 94.5321 179.156 93.5733C178.782 92.6145 178.234 91.867 177.511 91.3308C176.787 90.7864 175.894 90.5142 174.829 90.5142C173.732 90.5142 172.818 90.7986 172.087 91.3673C171.356 91.928 170.803 92.6917 170.429 93.6586C170.064 94.6255 169.881 95.7062 169.881 96.9006C169.881 98.1275 170.068 99.2041 170.442 100.13C170.815 101.057 171.368 101.78 172.099 102.3C172.839 102.82 173.749 103.08 174.829 103.08ZM187.513 106.383V87.6622H191.011V90.7092H191.242C191.632 89.6773 192.27 88.8729 193.156 88.296C194.041 87.711 195.102 87.4185 196.337 87.4185C197.588 87.4185 198.636 87.711 199.481 88.296C200.334 88.881 200.964 89.6854 201.37 90.7092H201.565C202.012 89.7098 202.723 88.9135 203.698 88.3204C204.673 87.7191 205.835 87.4185 207.184 87.4185C208.882 87.4185 210.268 87.9507 211.34 89.0151C212.421 90.0795 212.961 91.6842 212.961 93.8293V106.383H209.317V94.1705C209.317 92.903 208.972 91.9848 208.281 91.4161C207.59 90.8473 206.766 90.5629 205.807 90.5629C204.621 90.5629 203.698 90.9286 203.04 91.6598C202.382 92.383 202.053 93.3133 202.053 94.4508V106.383H198.421V93.939C198.421 92.9233 198.104 92.1067 197.47 91.4892C196.837 90.8717 196.012 90.5629 194.996 90.5629C194.306 90.5629 193.668 90.7457 193.083 91.1114C192.506 91.4689 192.039 91.9686 191.681 92.6105C191.332 93.2524 191.157 93.9958 191.157 94.8409V106.383H187.513ZM222.607 106.797C221.421 106.797 220.348 106.578 219.389 106.139C218.431 105.692 217.671 105.046 217.11 104.201C216.558 103.356 216.281 102.32 216.281 101.093C216.281 100.037 216.485 99.1675 216.891 98.485C217.297 97.8025 217.846 97.2622 218.536 96.864C219.227 96.4659 219.999 96.1653 220.852 95.9621C221.705 95.759 222.574 95.6046 223.46 95.499C224.581 95.369 225.491 95.2634 226.19 95.1821C226.889 95.0927 227.397 94.9505 227.714 94.7555C228.031 94.5605 228.189 94.2437 228.189 93.8049V93.7196C228.189 92.6552 227.888 91.8305 227.287 91.2454C226.694 90.6604 225.808 90.3679 224.63 90.3679C223.403 90.3679 222.436 90.6401 221.729 91.1845C221.031 91.7208 220.547 92.318 220.279 92.9761L216.854 92.1961C217.261 91.0586 217.854 90.1404 218.634 89.4416C219.422 88.7347 220.328 88.2229 221.352 87.906C222.375 87.581 223.452 87.4185 224.581 87.4185C225.329 87.4185 226.121 87.5078 226.958 87.6866C227.803 87.8572 228.591 88.1741 229.322 88.6372C230.062 89.1004 230.667 89.7626 231.138 90.6239C231.61 91.477 231.845 92.5861 231.845 93.9511V106.383H228.286V103.823H228.14C227.905 104.295 227.551 104.758 227.08 105.213C226.609 105.668 226.003 106.046 225.264 106.346C224.524 106.647 223.639 106.797 222.607 106.797ZM223.399 103.872C224.407 103.872 225.268 103.673 225.983 103.275C226.706 102.877 227.255 102.357 227.628 101.715C228.01 101.065 228.201 100.37 228.201 99.6307V97.2175C228.071 97.3475 227.819 97.4694 227.446 97.5831C227.08 97.6888 226.661 97.7822 226.19 97.8634C225.719 97.9366 225.26 98.0056 224.813 98.0706C224.366 98.1275 223.992 98.1763 223.692 98.2169C222.985 98.3063 222.339 98.4566 221.754 98.6678C221.177 98.8791 220.714 99.1838 220.364 99.5819C220.023 99.9719 219.852 100.492 219.852 101.142C219.852 102.044 220.186 102.726 220.852 103.19C221.518 103.645 222.367 103.872 223.399 103.872ZM252.295 106.761C250.483 106.761 248.923 106.35 247.615 105.53C246.315 104.701 245.315 103.559 244.616 102.105C243.918 100.65 243.568 98.9847 243.568 97.1078C243.568 95.2065 243.926 93.5286 244.641 92.0742C245.356 90.6117 246.363 89.4701 247.663 88.6494C248.963 87.8288 250.495 87.4185 252.258 87.4185C253.68 87.4185 254.948 87.6825 256.061 88.2107C257.174 88.7307 258.072 89.462 258.754 90.4045C259.445 91.347 259.855 92.448 259.985 93.7074H256.439C256.244 92.8299 255.797 92.0742 255.098 91.4404C254.407 90.8067 253.481 90.4898 252.319 90.4898C251.304 90.4898 250.414 90.7579 249.65 91.2942C248.894 91.8223 248.305 92.578 247.883 93.5611C247.46 94.5362 247.249 95.6899 247.249 97.0225C247.249 98.3875 247.456 99.5657 247.871 100.557C248.285 101.548 248.87 102.316 249.626 102.86C250.389 103.405 251.287 103.677 252.319 103.677C253.01 103.677 253.635 103.551 254.196 103.299C254.765 103.039 255.24 102.67 255.622 102.19C256.012 101.711 256.284 101.134 256.439 100.459H259.985C259.855 101.67 259.461 102.751 258.803 103.701C258.145 104.652 257.263 105.4 256.158 105.944C255.061 106.488 253.774 106.761 252.295 106.761ZM271.082 106.761C269.327 106.761 267.795 106.358 266.487 105.554C265.179 104.75 264.163 103.624 263.44 102.178C262.717 100.732 262.355 99.0416 262.355 97.1078C262.355 95.1659 262.717 93.4677 263.44 92.0133C264.163 90.5589 265.179 89.4295 266.487 88.6251C267.795 87.8207 269.327 87.4185 271.082 87.4185C272.837 87.4185 274.368 87.8207 275.676 88.6251C276.985 89.4295 278 90.5589 278.723 92.0133C279.446 93.4677 279.808 95.1659 279.808 97.1078C279.808 99.0416 279.446 100.732 278.723 102.178C278 103.624 276.985 104.75 275.676 105.554C274.368 106.358 272.837 106.761 271.082 106.761ZM271.094 103.701C272.231 103.701 273.174 103.401 273.921 102.8C274.669 102.198 275.221 101.398 275.579 100.399C275.945 99.3991 276.127 98.2981 276.127 97.0956C276.127 95.9012 275.945 94.8043 275.579 93.8049C275.221 92.7974 274.669 91.9889 273.921 91.3795C273.174 90.7701 272.231 90.4654 271.094 90.4654C269.948 90.4654 268.997 90.7701 268.242 91.3795C267.494 91.9889 266.938 92.7974 266.572 93.8049C266.215 94.8043 266.036 95.9012 266.036 97.0956C266.036 98.2981 266.215 99.3991 266.572 100.399C266.938 101.398 267.494 102.198 268.242 102.8C268.997 103.401 269.948 103.701 271.094 103.701ZM283.189 106.383V87.6622H286.687V90.7092H286.919C287.309 89.6773 287.947 88.8729 288.832 88.296C289.718 87.711 290.778 87.4185 292.013 87.4185C293.265 87.4185 294.313 87.711 295.158 88.296C296.011 88.881 296.641 89.6854 297.047 90.7092H297.242C297.689 89.7098 298.4 88.9135 299.375 88.3204C300.35 87.7191 301.512 87.4185 302.861 87.4185C304.559 87.4185 305.944 87.9507 307.017 89.0151C308.097 90.0795 308.638 91.6842 308.638 93.8293V106.383H304.993V94.1705C304.993 92.903 304.648 91.9848 303.957 91.4161C303.267 90.8473 302.442 90.5629 301.483 90.5629C300.297 90.5629 299.375 90.9286 298.717 91.6598C298.058 92.383 297.729 93.3133 297.729 94.4508V106.383H294.097V93.939C294.097 92.9233 293.781 92.1067 293.147 91.4892C292.513 90.8717 291.688 90.5629 290.673 90.5629C289.982 90.5629 289.344 90.7457 288.759 91.1114C288.182 91.4689 287.715 91.9686 287.358 92.6105C287.008 93.2524 286.833 93.9958 286.833 94.8409V106.383H283.189ZM312.835 113.403V87.6622H316.394V90.697H316.699C316.91 90.307 317.215 89.856 317.613 89.3441C318.011 88.8322 318.564 88.3854 319.271 88.0035C319.978 87.6135 320.912 87.4185 322.074 87.4185C323.585 87.4185 324.934 87.8003 326.12 88.5641C327.306 89.3279 328.237 90.4289 328.911 91.867C329.594 93.3052 329.935 95.0359 329.935 97.059C329.935 99.0822 329.598 100.817 328.923 102.263C328.249 103.701 327.323 104.811 326.145 105.591C324.966 106.362 323.622 106.748 322.11 106.748C320.973 106.748 320.043 106.557 319.319 106.176C318.604 105.794 318.044 105.347 317.637 104.835C317.231 104.323 316.918 103.868 316.699 103.47H316.48V113.403H312.835ZM316.406 97.0225C316.406 98.3388 316.597 99.4926 316.979 100.484C317.361 101.475 317.914 102.251 318.637 102.812C319.36 103.364 320.246 103.64 321.294 103.64C322.383 103.64 323.293 103.352 324.024 102.775C324.755 102.19 325.308 101.398 325.681 100.399C326.063 99.3991 326.254 98.2738 326.254 97.0225C326.254 95.7874 326.067 94.6784 325.694 93.6952C325.328 92.712 324.775 91.9361 324.036 91.3673C323.305 90.7986 322.391 90.5142 321.294 90.5142C320.238 90.5142 319.344 90.7864 318.612 91.3308C317.889 91.8751 317.341 92.6349 316.967 93.6099C316.593 94.5849 316.406 95.7224 316.406 97.0225ZM341.217 106.761C339.462 106.761 337.93 106.358 336.622 105.554C335.314 104.75 334.298 103.624 333.575 102.178C332.852 100.732 332.491 99.0416 332.491 97.1078C332.491 95.1659 332.852 93.4677 333.575 92.0133C334.298 90.5589 335.314 89.4295 336.622 88.6251C337.93 87.8207 339.462 87.4185 341.217 87.4185C342.972 87.4185 344.504 87.8207 345.812 88.6251C347.12 89.4295 348.136 90.5589 348.859 92.0133C349.582 93.4677 349.944 95.1659 349.944 97.1078C349.944 99.0416 349.582 100.732 348.859 102.178C348.136 103.624 347.12 104.75 345.812 105.554C344.504 106.358 342.972 106.761 341.217 106.761ZM341.229 103.701C342.367 103.701 343.309 103.401 344.057 102.8C344.804 102.198 345.357 101.398 345.714 100.399C346.08 99.3991 346.263 98.2981 346.263 97.0956C346.263 95.9012 346.08 94.8043 345.714 93.8049C345.357 92.7974 344.804 91.9889 344.057 91.3795C343.309 90.7701 342.367 90.4654 341.229 90.4654C340.084 90.4654 339.133 90.7701 338.377 91.3795C337.63 91.9889 337.073 92.7974 336.708 93.8049C336.35 94.8043 336.171 95.9012 336.171 97.0956C336.171 98.2981 336.35 99.3991 336.708 100.399C337.073 101.398 337.63 102.198 338.377 102.8C339.133 103.401 340.084 103.701 341.229 103.701ZM356.969 95.2674V106.383H353.325V87.6622H356.823V90.7092H357.054C357.485 89.7179 358.159 88.9216 359.077 88.3204C360.004 87.7191 361.17 87.4185 362.575 87.4185C363.851 87.4185 364.968 87.6866 365.927 88.2229C366.886 88.751 367.629 89.5391 368.157 90.5873C368.686 91.6355 368.95 92.9314 368.95 94.4752V106.383H365.305V94.914C365.305 93.5571 364.952 92.4967 364.245 91.733C363.538 90.9611 362.567 90.5751 361.332 90.5751C360.487 90.5751 359.736 90.7579 359.077 91.1236C358.427 91.4892 357.911 92.0255 357.53 92.7324C357.156 93.4311 356.969 94.2762 356.969 95.2674ZM381.219 106.761C379.374 106.761 377.786 106.367 376.453 105.578C375.129 104.782 374.105 103.665 373.382 102.227C372.667 100.78 372.31 99.0863 372.31 97.1444C372.31 95.2268 372.667 93.5368 373.382 92.0742C374.105 90.6117 375.113 89.4701 376.405 88.6494C377.705 87.8288 379.224 87.4185 380.963 87.4185C382.019 87.4185 383.043 87.5931 384.034 87.9425C385.026 88.2919 385.915 88.8404 386.703 89.5879C387.492 90.3354 388.113 91.3064 388.568 92.5008C389.023 93.6871 389.251 95.1293 389.251 96.8275V98.1194H374.369V95.3893H385.68C385.68 94.4305 385.485 93.5814 385.095 92.842C384.705 92.0945 384.156 91.5054 383.449 91.0748C382.75 90.6442 381.93 90.4289 380.987 90.4289C379.964 90.4289 379.07 90.6807 378.306 91.1845C377.55 91.6801 376.965 92.3302 376.551 93.1346C376.145 93.9308 375.942 94.7962 375.942 95.7306V97.8634C375.942 99.1147 376.161 100.179 376.6 101.057C377.047 101.934 377.668 102.605 378.464 103.068C379.261 103.523 380.191 103.75 381.255 103.75C381.946 103.75 382.576 103.653 383.145 103.458C383.713 103.255 384.205 102.954 384.619 102.556C385.034 102.158 385.351 101.666 385.57 101.081L389.019 101.703C388.743 102.718 388.247 103.608 387.532 104.372C386.825 105.127 385.936 105.716 384.863 106.139C383.799 106.553 382.584 106.761 381.219 106.761ZM396.252 95.2674V106.383H392.608V87.6622H396.105V90.7092H396.337C396.768 89.7179 397.442 88.9216 398.36 88.3204C399.287 87.7191 400.452 87.4185 401.858 87.4185C403.134 87.4185 404.251 87.6866 405.21 88.2229C406.169 88.751 406.912 89.5391 407.44 90.5873C407.968 91.6355 408.232 92.9314 408.232 94.4752V106.383H404.588V94.914C404.588 93.5571 404.235 92.4967 403.528 91.733C402.821 90.9611 401.85 90.5751 400.615 90.5751C399.77 90.5751 399.018 90.7579 398.36 91.1236C397.71 91.4892 397.194 92.0255 396.812 92.7324C396.439 93.4311 396.252 94.2762 396.252 95.2674ZM421.172 87.6622V90.5873H410.946V87.6622H421.172ZM413.689 83.1771H417.333V100.886C417.333 101.593 417.438 102.125 417.65 102.483C417.861 102.832 418.133 103.072 418.466 103.202C418.808 103.324 419.177 103.385 419.575 103.385C419.868 103.385 420.124 103.364 420.343 103.324C420.563 103.283 420.733 103.25 420.855 103.226L421.513 106.236C421.302 106.318 421.001 106.399 420.611 106.48C420.221 106.57 419.734 106.618 419.149 106.627C418.19 106.643 417.296 106.472 416.467 106.115C415.639 105.757 414.968 105.205 414.456 104.457C413.945 103.71 413.689 102.771 413.689 101.642V83.1771Z" fill="#101010"/>
<rect x="542.456" y="73.0124" width="83.9012" height="42.7407" rx="21.3704" fill="#006DED"/>
<path d="M575.393 88.4024V100.883H573.382L567.502 92.3817H567.398V100.883H565.137V88.4024H567.16L573.035 96.9095H573.145V88.4024H575.393ZM577.857 100.883V88.4024H585.974V90.2976H580.118V93.6858H585.553V95.581H580.118V98.9875H586.023V100.883H577.857ZM590.907 100.883L587.385 88.4024H589.816L592.065 97.5738H592.181L594.582 88.4024H596.794L599.201 97.5798H599.31L601.559 88.4024H603.991L600.468 100.883H598.238L595.739 92.1258H595.642L593.137 100.883H590.907Z" fill="white"/>
<rect x="68.6416" y="184.475" width="557.716" height="25.7407" rx="12.8704" fill="url(#paint0_linear_1346_215)" fill-opacity="0.2"/>
<rect x="68.6416" y="184.475" width="276.713" height="25.7407" rx="12.8704" fill="#006DED"/>
<rect x="72.9316" y="188.766" width="17.1605" height="17.1605" rx="8.58025" fill="white"/>
<rect x="323.904" y="188.766" width="17.1605" height="17.1605" rx="8.58025" fill="white"/>
<rect x="306.743" y="171.605" width="51.4815" height="51.4815" rx="25.7407" stroke="#101010" stroke-opacity="0.2" stroke-width="2.14506"/>
<rect x="604.907" y="188.766" width="17.1605" height="17.1605" rx="8.58025" fill="white"/>
<path d="M78.5928 263.827V251.347H86.3321V252.968H80.4758V256.77H85.7776V258.385H80.4758V263.827H78.5928ZM88.1583 263.827V254.467H89.9804V263.827H88.1583ZM89.0785 253.023C88.7616 253.023 88.4894 252.917 88.2619 252.706C88.0385 252.49 87.9268 252.235 87.9268 251.938C87.9268 251.637 88.0385 251.381 88.2619 251.17C88.4894 250.955 88.7616 250.847 89.0785 250.847C89.3954 250.847 89.6656 250.955 89.889 251.17C90.1165 251.381 90.2303 251.637 90.2303 251.938C90.2303 252.235 90.1165 252.49 89.889 252.706C89.6656 252.917 89.3954 253.023 89.0785 253.023ZM96.013 267.532C95.2695 267.532 94.6296 267.435 94.0934 267.24C93.5612 267.045 93.1265 266.787 92.7893 266.466C92.4521 266.145 92.2002 265.794 92.0336 265.412L93.5998 264.766C93.7095 264.944 93.8557 265.133 94.0385 265.332C94.2254 265.536 94.4773 265.708 94.7942 265.85C95.1151 265.993 95.5275 266.064 96.0313 266.064C96.7219 266.064 97.2927 265.895 97.7436 265.558C98.1946 265.225 98.4201 264.693 98.4201 263.961V262.121H98.3043C98.1946 262.32 98.0362 262.541 97.829 262.785C97.6258 263.029 97.3455 263.24 96.988 263.419C96.6305 263.598 96.1653 263.687 95.5925 263.687C94.8531 263.687 94.1868 263.514 93.5937 263.169C93.0046 262.82 92.5374 262.306 92.1921 261.627C91.8508 260.945 91.6802 260.106 91.6802 259.111C91.6802 258.115 91.8488 257.262 92.186 256.551C92.5272 255.84 92.9944 255.296 93.5876 254.918C94.1807 254.536 94.8531 254.345 95.6047 254.345C96.1856 254.345 96.6549 254.443 97.0124 254.638C97.3699 254.829 97.6482 255.052 97.8472 255.308C98.0504 255.564 98.2068 255.789 98.3165 255.984H98.4505V254.467H100.236V264.034C100.236 264.839 100.049 265.499 99.6754 266.015C99.3017 266.531 98.7959 266.913 98.158 267.161C97.5243 267.408 96.8092 267.532 96.013 267.532ZM95.9947 262.176C96.5188 262.176 96.9616 262.054 97.3232 261.81C97.6888 261.562 97.9651 261.209 98.1519 260.75C98.3429 260.287 98.4384 259.732 98.4384 259.086C98.4384 258.456 98.3449 257.902 98.158 257.422C97.9712 256.943 97.6969 256.569 97.3354 256.301C96.9738 256.029 96.5269 255.893 95.9947 255.893C95.4462 255.893 94.9892 256.035 94.6236 256.319C94.2579 256.6 93.9817 256.982 93.7948 257.465C93.612 257.949 93.5206 258.489 93.5206 259.086C93.5206 259.7 93.614 260.238 93.8009 260.701C93.9878 261.164 94.264 261.526 94.6296 261.786C94.9993 262.046 95.4544 262.176 95.9947 262.176ZM102.337 263.827V254.467H104.085V255.99H104.201C104.396 255.474 104.715 255.072 105.158 254.784C105.601 254.491 106.131 254.345 106.749 254.345C107.374 254.345 107.898 254.491 108.321 254.784C108.747 255.076 109.062 255.479 109.265 255.99H109.363C109.586 255.491 109.942 255.093 110.429 254.796C110.917 254.495 111.498 254.345 112.172 254.345C113.021 254.345 113.714 254.611 114.25 255.143C114.79 255.676 115.061 256.478 115.061 257.55V263.827H113.239V257.721C113.239 257.087 113.066 256.628 112.721 256.344C112.375 256.059 111.963 255.917 111.483 255.917C110.89 255.917 110.429 256.1 110.1 256.466C109.771 256.827 109.607 257.292 109.607 257.861V263.827H107.791V257.605C107.791 257.097 107.632 256.689 107.315 256.38C106.998 256.072 106.586 255.917 106.078 255.917C105.733 255.917 105.414 256.009 105.121 256.192C104.833 256.37 104.599 256.62 104.421 256.941C104.246 257.262 104.159 257.634 104.159 258.056V263.827H102.337ZM119.884 264.034C119.29 264.034 118.754 263.925 118.275 263.705C117.795 263.482 117.416 263.159 117.135 262.736C116.859 262.314 116.721 261.796 116.721 261.182C116.721 260.654 116.822 260.22 117.025 259.878C117.229 259.537 117.503 259.267 117.848 259.068C118.193 258.869 118.579 258.718 119.006 258.617C119.433 258.515 119.867 258.438 120.31 258.385C120.871 258.32 121.326 258.268 121.675 258.227C122.025 258.182 122.278 258.111 122.437 258.014C122.595 257.916 122.675 257.758 122.675 257.538V257.496C122.675 256.963 122.524 256.551 122.224 256.259C121.927 255.966 121.484 255.82 120.895 255.82C120.282 255.82 119.798 255.956 119.445 256.228C119.095 256.496 118.854 256.795 118.72 257.124L117.007 256.734C117.21 256.165 117.507 255.706 117.897 255.357C118.291 255.003 118.744 254.747 119.256 254.589C119.768 254.426 120.306 254.345 120.871 254.345C121.245 254.345 121.641 254.39 122.059 254.479C122.482 254.564 122.876 254.723 123.241 254.954C123.611 255.186 123.914 255.517 124.149 255.948C124.385 256.374 124.503 256.929 124.503 257.611V263.827H122.723V262.547H122.65C122.532 262.783 122.356 263.015 122.12 263.242C121.884 263.47 121.582 263.659 121.212 263.809C120.842 263.959 120.399 264.034 119.884 264.034ZM120.28 262.572C120.783 262.572 121.214 262.472 121.572 262.273C121.933 262.074 122.207 261.814 122.394 261.493C122.585 261.168 122.681 260.821 122.681 260.451V259.245C122.616 259.31 122.49 259.371 122.303 259.427C122.12 259.48 121.911 259.527 121.675 259.568C121.44 259.604 121.21 259.639 120.987 259.671C120.763 259.7 120.576 259.724 120.426 259.744C120.072 259.789 119.749 259.864 119.457 259.97C119.169 260.075 118.937 260.228 118.762 260.427C118.592 260.622 118.506 260.882 118.506 261.207C118.506 261.658 118.673 261.999 119.006 262.231C119.339 262.458 119.764 262.572 120.28 262.572ZM134.727 264.016C133.822 264.016 133.042 263.811 132.387 263.401C131.737 262.986 131.238 262.415 130.888 261.688C130.539 260.961 130.364 260.128 130.364 259.19C130.364 258.239 130.543 257.4 130.901 256.673C131.258 255.942 131.762 255.371 132.412 254.961C133.062 254.55 133.828 254.345 134.709 254.345C135.42 254.345 136.054 254.477 136.611 254.741C137.167 255.001 137.616 255.367 137.957 255.838C138.303 256.309 138.508 256.86 138.573 257.49H136.799C136.702 257.051 136.478 256.673 136.129 256.356C135.784 256.039 135.321 255.881 134.74 255.881C134.232 255.881 133.787 256.015 133.405 256.283C133.027 256.547 132.733 256.925 132.521 257.416C132.31 257.904 132.205 258.481 132.205 259.147C132.205 259.83 132.308 260.419 132.515 260.914C132.723 261.41 133.015 261.794 133.393 262.066C133.775 262.338 134.224 262.474 134.74 262.474C135.085 262.474 135.398 262.411 135.678 262.285C135.963 262.155 136.2 261.971 136.391 261.731C136.586 261.491 136.722 261.203 136.799 260.866H138.573C138.508 261.471 138.311 262.011 137.982 262.487C137.653 262.962 137.212 263.336 136.659 263.608C136.111 263.88 135.467 264.016 134.727 264.016ZM144.121 264.016C143.243 264.016 142.478 263.815 141.823 263.413C141.169 263.011 140.662 262.448 140.3 261.725C139.938 261.002 139.758 260.157 139.758 259.19C139.758 258.219 139.938 257.37 140.3 256.642C140.662 255.915 141.169 255.351 141.823 254.948C142.478 254.546 143.243 254.345 144.121 254.345C144.998 254.345 145.764 254.546 146.418 254.948C147.072 255.351 147.58 255.915 147.942 256.642C148.303 257.37 148.484 258.219 148.484 259.19C148.484 260.157 148.303 261.002 147.942 261.725C147.58 262.448 147.072 263.011 146.418 263.413C145.764 263.815 144.998 264.016 144.121 264.016ZM144.127 262.487C144.696 262.487 145.167 262.336 145.541 262.036C145.914 261.735 146.191 261.335 146.37 260.835C146.552 260.335 146.644 259.785 146.644 259.184C146.644 258.586 146.552 258.038 146.37 257.538C146.191 257.035 145.914 256.63 145.541 256.326C145.167 256.021 144.696 255.869 144.127 255.869C143.554 255.869 143.079 256.021 142.701 256.326C142.327 256.63 142.049 257.035 141.866 257.538C141.687 258.038 141.598 258.586 141.598 259.184C141.598 259.785 141.687 260.335 141.866 260.835C142.049 261.335 142.327 261.735 142.701 262.036C143.079 262.336 143.554 262.487 144.127 262.487ZM150.175 263.827V254.467H151.924V255.99H152.039C152.234 255.474 152.553 255.072 152.996 254.784C153.439 254.491 153.969 254.345 154.587 254.345C155.212 254.345 155.736 254.491 156.159 254.784C156.586 255.076 156.9 255.479 157.104 255.99H157.201C157.424 255.491 157.78 255.093 158.267 254.796C158.755 254.495 159.336 254.345 160.01 254.345C160.859 254.345 161.552 254.611 162.088 255.143C162.629 255.676 162.899 256.478 162.899 257.55V263.827H161.077V257.721C161.077 257.087 160.904 256.628 160.559 256.344C160.213 256.059 159.801 255.917 159.322 255.917C158.729 255.917 158.267 256.1 157.938 256.466C157.609 256.827 157.445 257.292 157.445 257.861V263.827H155.629V257.605C155.629 257.097 155.47 256.689 155.153 256.38C154.837 256.072 154.424 255.917 153.916 255.917C153.571 255.917 153.252 256.009 152.96 256.192C152.671 256.37 152.438 256.62 152.259 256.941C152.084 257.262 151.997 257.634 151.997 258.056V263.827H150.175ZM164.998 267.337V254.467H166.777V255.984H166.93C167.035 255.789 167.188 255.564 167.387 255.308C167.586 255.052 167.862 254.829 168.215 254.638C168.569 254.443 169.036 254.345 169.617 254.345C170.373 254.345 171.047 254.536 171.64 254.918C172.233 255.3 172.698 255.85 173.036 256.569C173.377 257.288 173.548 258.154 173.548 259.165C173.548 260.177 173.379 261.044 173.042 261.767C172.705 262.487 172.241 263.041 171.652 263.431C171.063 263.817 170.391 264.01 169.635 264.01C169.067 264.01 168.601 263.915 168.24 263.724C167.882 263.533 167.602 263.309 167.399 263.053C167.196 262.797 167.039 262.57 166.93 262.371H166.82V267.337H164.998ZM166.783 259.147C166.783 259.805 166.879 260.382 167.07 260.878C167.261 261.373 167.537 261.761 167.898 262.042C168.26 262.318 168.703 262.456 169.227 262.456C169.771 262.456 170.226 262.312 170.592 262.023C170.958 261.731 171.234 261.335 171.421 260.835C171.612 260.335 171.707 259.773 171.707 259.147C171.707 258.53 171.614 257.975 171.427 257.483C171.244 256.992 170.968 256.604 170.598 256.319C170.232 256.035 169.775 255.893 169.227 255.893C168.699 255.893 168.252 256.029 167.886 256.301C167.525 256.573 167.251 256.953 167.064 257.441C166.877 257.928 166.783 258.497 166.783 259.147ZM179.189 264.016C178.311 264.016 177.545 263.815 176.891 263.413C176.237 263.011 175.729 262.448 175.368 261.725C175.006 261.002 174.825 260.157 174.825 259.19C174.825 258.219 175.006 257.37 175.368 256.642C175.729 255.915 176.237 255.351 176.891 254.948C177.545 254.546 178.311 254.345 179.189 254.345C180.066 254.345 180.832 254.546 181.486 254.948C182.14 255.351 182.648 255.915 183.009 256.642C183.371 257.37 183.552 258.219 183.552 259.19C183.552 260.157 183.371 261.002 183.009 261.725C182.648 262.448 182.14 263.011 181.486 263.413C180.832 263.815 180.066 264.016 179.189 264.016ZM179.195 262.487C179.763 262.487 180.235 262.336 180.608 262.036C180.982 261.735 181.258 261.335 181.437 260.835C181.62 260.335 181.711 259.785 181.711 259.184C181.711 258.586 181.62 258.038 181.437 257.538C181.258 257.035 180.982 256.63 180.608 256.326C180.235 256.021 179.763 255.869 179.195 255.869C178.622 255.869 178.147 256.021 177.769 256.326C177.395 256.63 177.117 257.035 176.934 257.538C176.755 258.038 176.666 258.586 176.666 259.184C176.666 259.785 176.755 260.335 176.934 260.835C177.117 261.335 177.395 261.735 177.769 262.036C178.147 262.336 178.622 262.487 179.195 262.487ZM187.065 258.27V263.827H185.242V254.467H186.991V255.99H187.107C187.323 255.495 187.66 255.097 188.119 254.796C188.582 254.495 189.165 254.345 189.868 254.345C190.506 254.345 191.064 254.479 191.544 254.747C192.023 255.011 192.395 255.405 192.659 255.929C192.923 256.454 193.055 257.102 193.055 257.873V263.827H191.233V258.093C191.233 257.414 191.056 256.884 190.703 256.502C190.349 256.116 189.864 255.923 189.246 255.923C188.824 255.923 188.448 256.015 188.119 256.198C187.794 256.38 187.536 256.649 187.345 257.002C187.158 257.351 187.065 257.774 187.065 258.27ZM199.19 264.016C198.267 264.016 197.473 263.819 196.807 263.425C196.145 263.027 195.633 262.468 195.271 261.749C194.914 261.026 194.735 260.179 194.735 259.208C194.735 258.249 194.914 257.404 195.271 256.673C195.633 255.942 196.136 255.371 196.782 254.961C197.432 254.55 198.192 254.345 199.062 254.345C199.59 254.345 200.102 254.432 200.597 254.607C201.093 254.782 201.538 255.056 201.932 255.43C202.326 255.804 202.637 256.289 202.864 256.886C203.092 257.479 203.205 258.2 203.205 259.05V259.696H195.765V258.33H201.42C201.42 257.851 201.322 257.427 201.127 257.057C200.932 256.683 200.658 256.389 200.305 256.173C199.955 255.958 199.545 255.85 199.074 255.85C198.562 255.85 198.115 255.976 197.733 256.228C197.355 256.476 197.063 256.801 196.856 257.203C196.652 257.601 196.551 258.034 196.551 258.501V259.568C196.551 260.193 196.661 260.725 196.88 261.164C197.103 261.603 197.414 261.938 197.812 262.17C198.21 262.397 198.676 262.511 199.208 262.511C199.553 262.511 199.868 262.462 200.152 262.365C200.437 262.263 200.683 262.113 200.89 261.914C201.097 261.715 201.255 261.469 201.365 261.176L203.09 261.487C202.952 261.995 202.704 262.44 202.346 262.822C201.993 263.2 201.548 263.494 201.012 263.705C200.479 263.913 199.872 264.016 199.19 264.016ZM206.706 258.27V263.827H204.884V254.467H206.633V255.99H206.749C206.964 255.495 207.301 255.097 207.76 254.796C208.223 254.495 208.806 254.345 209.509 254.345C210.147 254.345 210.706 254.479 211.185 254.747C211.664 255.011 212.036 255.405 212.3 255.929C212.564 256.454 212.696 257.102 212.696 257.873V263.827H210.874V258.093C210.874 257.414 210.697 256.884 210.344 256.502C209.991 256.116 209.505 255.923 208.888 255.923C208.465 255.923 208.089 256.015 207.76 256.198C207.435 256.38 207.177 256.649 206.986 257.002C206.799 257.351 206.706 257.774 206.706 258.27ZM219.166 254.467V255.929H214.053V254.467H219.166ZM215.424 252.224H217.246V261.079C217.246 261.432 217.299 261.698 217.405 261.877C217.511 262.052 217.647 262.172 217.813 262.237C217.984 262.298 218.169 262.328 218.368 262.328C218.514 262.328 218.642 262.318 218.752 262.298C218.861 262.277 218.947 262.261 219.008 262.249L219.337 263.754C219.231 263.795 219.081 263.835 218.886 263.876C218.691 263.921 218.447 263.945 218.154 263.949C217.675 263.957 217.228 263.872 216.814 263.693C216.399 263.514 216.064 263.238 215.808 262.864C215.552 262.491 215.424 262.021 215.424 261.457V252.224Z" fill="#101010"/>
<path d="M476.413 263.827V251.347H484.153V252.968H478.296V256.77H483.598V258.385H478.296V263.827H476.413ZM485.979 263.827V254.467H487.801V263.827H485.979ZM486.899 253.023C486.582 253.023 486.31 252.917 486.082 252.706C485.859 252.49 485.747 252.235 485.747 251.938C485.747 251.637 485.859 251.381 486.082 251.17C486.31 250.955 486.582 250.847 486.899 250.847C487.216 250.847 487.486 250.955 487.71 251.17C487.937 251.381 488.051 251.637 488.051 251.938C488.051 252.235 487.937 252.49 487.71 252.706C487.486 252.917 487.216 253.023 486.899 253.023ZM493.834 267.532C493.09 267.532 492.45 267.435 491.914 267.24C491.382 267.045 490.947 266.787 490.61 266.466C490.273 266.145 490.021 265.794 489.854 265.412L491.42 264.766C491.53 264.944 491.676 265.133 491.859 265.332C492.046 265.536 492.298 265.708 492.615 265.85C492.936 265.993 493.348 266.064 493.852 266.064C494.542 266.064 495.113 265.895 495.564 265.558C496.015 265.225 496.241 264.693 496.241 263.961V262.121H496.125C496.015 262.32 495.857 262.541 495.65 262.785C495.446 263.029 495.166 263.24 494.809 263.419C494.451 263.598 493.986 263.687 493.413 263.687C492.674 263.687 492.007 263.514 491.414 263.169C490.825 262.82 490.358 262.306 490.013 261.627C489.671 260.945 489.501 260.106 489.501 259.111C489.501 258.115 489.669 257.262 490.007 256.551C490.348 255.84 490.815 255.296 491.408 254.918C492.001 254.536 492.674 254.345 493.425 254.345C494.006 254.345 494.475 254.443 494.833 254.638C495.19 254.829 495.469 255.052 495.668 255.308C495.871 255.564 496.027 255.789 496.137 255.984H496.271V254.467H498.057V264.034C498.057 264.839 497.87 265.499 497.496 266.015C497.122 266.531 496.616 266.913 495.979 267.161C495.345 267.408 494.63 267.532 493.834 267.532ZM493.815 262.176C494.339 262.176 494.782 262.054 495.144 261.81C495.509 261.562 495.786 261.209 495.973 260.75C496.163 260.287 496.259 259.732 496.259 259.086C496.259 258.456 496.165 257.902 495.979 257.422C495.792 256.943 495.517 256.569 495.156 256.301C494.794 256.029 494.347 255.893 493.815 255.893C493.267 255.893 492.81 256.035 492.444 256.319C492.078 256.6 491.802 256.982 491.615 257.465C491.433 257.949 491.341 258.489 491.341 259.086C491.341 259.7 491.435 260.238 491.621 260.701C491.808 261.164 492.085 261.526 492.45 261.786C492.82 262.046 493.275 262.176 493.815 262.176ZM500.157 263.827V254.467H501.906V255.99H502.022C502.217 255.474 502.536 255.072 502.979 254.784C503.421 254.491 503.952 254.345 504.569 254.345C505.195 254.345 505.719 254.491 506.141 254.784C506.568 255.076 506.883 255.479 507.086 255.99H507.183C507.407 255.491 507.762 255.093 508.25 254.796C508.737 254.495 509.318 254.345 509.993 254.345C510.842 254.345 511.534 254.611 512.071 255.143C512.611 255.676 512.881 256.478 512.881 257.55V263.827H511.059V257.721C511.059 257.087 510.886 256.628 510.541 256.344C510.196 256.059 509.783 255.917 509.304 255.917C508.711 255.917 508.25 256.1 507.921 256.466C507.592 256.827 507.427 257.292 507.427 257.861V263.827H505.611V257.605C505.611 257.097 505.453 256.689 505.136 256.38C504.819 256.072 504.407 255.917 503.899 255.917C503.553 255.917 503.235 256.009 502.942 256.192C502.654 256.37 502.42 256.62 502.241 256.941C502.067 257.262 501.979 257.634 501.979 258.056V263.827H500.157ZM517.704 264.034C517.111 264.034 516.575 263.925 516.095 263.705C515.616 263.482 515.236 263.159 514.956 262.736C514.679 262.314 514.541 261.796 514.541 261.182C514.541 260.654 514.643 260.22 514.846 259.878C515.049 259.537 515.323 259.267 515.669 259.068C516.014 258.869 516.4 258.718 516.827 258.617C517.253 258.515 517.688 258.438 518.131 258.385C518.691 258.32 519.146 258.268 519.496 258.227C519.845 258.182 520.099 258.111 520.257 258.014C520.416 257.916 520.495 257.758 520.495 257.538V257.496C520.495 256.963 520.345 256.551 520.044 256.259C519.748 255.966 519.305 255.82 518.716 255.82C518.102 255.82 517.619 255.956 517.265 256.228C516.916 256.496 516.674 256.795 516.54 257.124L514.828 256.734C515.031 256.165 515.327 255.706 515.717 255.357C516.112 255.003 516.565 254.747 517.076 254.589C517.588 254.426 518.127 254.345 518.691 254.345C519.065 254.345 519.461 254.39 519.88 254.479C520.302 254.564 520.696 254.723 521.062 254.954C521.432 255.186 521.734 255.517 521.97 255.948C522.205 256.374 522.323 256.929 522.323 257.611V263.827H520.544V262.547H520.471C520.353 262.783 520.176 263.015 519.941 263.242C519.705 263.47 519.402 263.659 519.033 263.809C518.663 263.959 518.22 264.034 517.704 264.034ZM518.1 262.572C518.604 262.572 519.035 262.472 519.392 262.273C519.754 262.074 520.028 261.814 520.215 261.493C520.406 261.168 520.501 260.821 520.501 260.451V259.245C520.436 259.31 520.31 259.371 520.123 259.427C519.941 259.48 519.731 259.527 519.496 259.568C519.26 259.604 519.031 259.639 518.807 259.671C518.584 259.7 518.397 259.724 518.246 259.744C517.893 259.789 517.57 259.864 517.278 259.97C516.989 260.075 516.758 260.228 516.583 260.427C516.412 260.622 516.327 260.882 516.327 261.207C516.327 261.658 516.493 261.999 516.827 262.231C517.16 262.458 517.584 262.572 518.1 262.572ZM532.548 264.016C531.642 264.016 530.862 263.811 530.208 263.401C529.558 262.986 529.058 262.415 528.709 261.688C528.36 260.961 528.185 260.128 528.185 259.19C528.185 258.239 528.364 257.4 528.721 256.673C529.079 255.942 529.582 255.371 530.232 254.961C530.882 254.55 531.648 254.345 532.53 254.345C533.241 254.345 533.875 254.477 534.431 254.741C534.988 255.001 535.437 255.367 535.778 255.838C536.123 256.309 536.328 256.86 536.393 257.49H534.62C534.522 257.051 534.299 256.673 533.95 256.356C533.604 256.039 533.141 255.881 532.56 255.881C532.052 255.881 531.608 256.015 531.226 256.283C530.848 256.547 530.553 256.925 530.342 257.416C530.131 257.904 530.025 258.481 530.025 259.147C530.025 259.83 530.129 260.419 530.336 260.914C530.543 261.41 530.836 261.794 531.213 262.066C531.595 262.338 532.044 262.474 532.56 262.474C532.906 262.474 533.218 262.411 533.499 262.285C533.783 262.155 534.021 261.971 534.212 261.731C534.407 261.491 534.543 261.203 534.62 260.866H536.393C536.328 261.471 536.131 262.011 535.802 262.487C535.473 262.962 535.032 263.336 534.48 263.608C533.931 263.88 533.287 264.016 532.548 264.016ZM541.941 264.016C541.064 264.016 540.298 263.815 539.644 263.413C538.99 263.011 538.482 262.448 538.121 261.725C537.759 261.002 537.578 260.157 537.578 259.19C537.578 258.219 537.759 257.37 538.121 256.642C538.482 255.915 538.99 255.351 539.644 254.948C540.298 254.546 541.064 254.345 541.941 254.345C542.819 254.345 543.585 254.546 544.239 254.948C544.893 255.351 545.401 255.915 545.762 256.642C546.124 257.37 546.305 258.219 546.305 259.19C546.305 260.157 546.124 261.002 545.762 261.725C545.401 262.448 544.893 263.011 544.239 263.413C543.585 263.815 542.819 264.016 541.941 264.016ZM541.948 262.487C542.516 262.487 542.988 262.336 543.361 262.036C543.735 261.735 544.011 261.335 544.19 260.835C544.373 260.335 544.464 259.785 544.464 259.184C544.464 258.586 544.373 258.038 544.19 257.538C544.011 257.035 543.735 256.63 543.361 256.326C542.988 256.021 542.516 255.869 541.948 255.869C541.375 255.869 540.899 256.021 540.522 256.326C540.148 256.63 539.869 257.035 539.687 257.538C539.508 258.038 539.419 258.586 539.419 259.184C539.419 259.785 539.508 260.335 539.687 260.835C539.869 261.335 540.148 261.735 540.522 262.036C540.899 262.336 541.375 262.487 541.948 262.487ZM547.995 263.827V254.467H549.744V255.99H549.86C550.055 255.474 550.374 255.072 550.817 254.784C551.26 254.491 551.79 254.345 552.407 254.345C553.033 254.345 553.557 254.491 553.98 254.784C554.406 255.076 554.721 255.479 554.924 255.99H555.022C555.245 255.491 555.601 255.093 556.088 254.796C556.576 254.495 557.157 254.345 557.831 254.345C558.68 254.345 559.373 254.611 559.909 255.143C560.449 255.676 560.719 256.478 560.719 257.55V263.827H558.897V257.721C558.897 257.087 558.725 256.628 558.379 256.344C558.034 256.059 557.622 255.917 557.142 255.917C556.549 255.917 556.088 256.1 555.759 256.466C555.43 256.827 555.265 257.292 555.265 257.861V263.827H553.449V257.605C553.449 257.097 553.291 256.689 552.974 256.38C552.657 256.072 552.245 255.917 551.737 255.917C551.392 255.917 551.073 256.009 550.78 256.192C550.492 256.37 550.258 256.62 550.079 256.941C549.905 257.262 549.817 257.634 549.817 258.056V263.827H547.995ZM562.818 267.337V254.467H564.598V255.984H564.75C564.856 255.789 565.008 255.564 565.207 255.308C565.406 255.052 565.683 254.829 566.036 254.638C566.389 254.443 566.857 254.345 567.438 254.345C568.193 254.345 568.868 254.536 569.461 254.918C570.054 255.3 570.519 255.85 570.856 256.569C571.198 257.288 571.368 258.154 571.368 259.165C571.368 260.177 571.2 261.044 570.862 261.767C570.525 262.487 570.062 263.041 569.473 263.431C568.884 263.817 568.211 264.01 567.456 264.01C566.887 264.01 566.422 263.915 566.06 263.724C565.703 263.533 565.422 263.309 565.219 263.053C565.016 262.797 564.86 262.57 564.75 262.371H564.64V267.337H562.818ZM564.604 259.147C564.604 259.805 564.699 260.382 564.89 260.878C565.081 261.373 565.357 261.761 565.719 262.042C566.081 262.318 566.523 262.456 567.048 262.456C567.592 262.456 568.047 262.312 568.413 262.023C568.778 261.731 569.054 261.335 569.241 260.835C569.432 260.335 569.528 259.773 569.528 259.147C569.528 258.53 569.434 257.975 569.247 257.483C569.065 256.992 568.788 256.604 568.419 256.319C568.053 256.035 567.596 255.893 567.048 255.893C566.519 255.893 566.073 256.029 565.707 256.301C565.345 256.573 565.071 256.953 564.884 257.441C564.697 257.928 564.604 258.497 564.604 259.147ZM577.009 264.016C576.132 264.016 575.366 263.815 574.712 263.413C574.058 263.011 573.55 262.448 573.188 261.725C572.827 261.002 572.646 260.157 572.646 259.19C572.646 258.219 572.827 257.37 573.188 256.642C573.55 255.915 574.058 255.351 574.712 254.948C575.366 254.546 576.132 254.345 577.009 254.345C577.887 254.345 578.652 254.546 579.307 254.948C579.961 255.351 580.468 255.915 580.83 256.642C581.192 257.37 581.372 258.219 581.372 259.19C581.372 260.157 581.192 261.002 580.83 261.725C580.468 262.448 579.961 263.011 579.307 263.413C578.652 263.815 577.887 264.016 577.009 264.016ZM577.015 262.487C577.584 262.487 578.055 262.336 578.429 262.036C578.803 261.735 579.079 261.335 579.258 260.835C579.441 260.335 579.532 259.785 579.532 259.184C579.532 258.586 579.441 258.038 579.258 257.538C579.079 257.035 578.803 256.63 578.429 256.326C578.055 256.021 577.584 255.869 577.015 255.869C576.442 255.869 575.967 256.021 575.589 256.326C575.216 256.63 574.937 257.035 574.754 257.538C574.576 258.038 574.486 258.586 574.486 259.184C574.486 259.785 574.576 260.335 574.754 260.835C574.937 261.335 575.216 261.735 575.589 262.036C575.967 262.336 576.442 262.487 577.015 262.487ZM584.885 258.27V263.827H583.063V254.467H584.812V255.99H584.928C585.143 255.495 585.48 255.097 585.939 254.796C586.403 254.495 586.986 254.345 587.688 254.345C588.326 254.345 588.885 254.479 589.364 254.747C589.844 255.011 590.215 255.405 590.479 255.929C590.743 256.454 590.875 257.102 590.875 257.873V263.827H589.053V258.093C589.053 257.414 588.877 256.884 588.523 256.502C588.17 256.116 587.684 255.923 587.067 255.923C586.644 255.923 586.268 256.015 585.939 256.198C585.614 256.38 585.356 256.649 585.165 257.002C584.979 257.351 584.885 257.774 584.885 258.27ZM597.01 264.016C596.088 264.016 595.294 263.819 594.627 263.425C593.965 263.027 593.453 262.468 593.092 261.749C592.734 261.026 592.555 260.179 592.555 259.208C592.555 258.249 592.734 257.404 593.092 256.673C593.453 255.942 593.957 255.371 594.603 254.961C595.253 254.55 596.013 254.345 596.882 254.345C597.41 254.345 597.922 254.432 598.418 254.607C598.913 254.782 599.358 255.056 599.752 255.43C600.146 255.804 600.457 256.289 600.685 256.886C600.912 257.479 601.026 258.2 601.026 259.05V259.696H593.585V258.33H599.24C599.24 257.851 599.143 257.427 598.948 257.057C598.753 256.683 598.479 256.389 598.125 256.173C597.776 255.958 597.366 255.85 596.894 255.85C596.382 255.85 595.936 255.976 595.554 256.228C595.176 256.476 594.883 256.801 594.676 257.203C594.473 257.601 594.371 258.034 594.371 258.501V259.568C594.371 260.193 594.481 260.725 594.7 261.164C594.924 261.603 595.235 261.938 595.633 262.17C596.031 262.397 596.496 262.511 597.028 262.511C597.374 262.511 597.689 262.462 597.973 262.365C598.257 262.263 598.503 262.113 598.71 261.914C598.917 261.715 599.076 261.469 599.186 261.176L600.91 261.487C600.772 261.995 600.524 262.44 600.167 262.822C599.813 263.2 599.368 263.494 598.832 263.705C598.3 263.913 597.693 264.016 597.01 264.016ZM604.527 258.27V263.827H602.704V254.467H604.453V255.99H604.569C604.784 255.495 605.122 255.097 605.581 254.796C606.044 254.495 606.627 254.345 607.33 254.345C607.968 254.345 608.526 254.479 609.006 254.747C609.485 255.011 609.857 255.405 610.121 255.929C610.385 256.454 610.517 257.102 610.517 257.873V263.827H608.695V258.093C608.695 257.414 608.518 256.884 608.165 256.502C607.811 256.116 607.326 255.923 606.708 255.923C606.286 255.923 605.91 256.015 605.581 256.198C605.256 256.38 604.998 256.649 604.807 257.002C604.62 257.351 604.527 257.774 604.527 258.27ZM616.987 254.467V255.929H611.874V254.467H616.987ZM613.245 252.224H615.067V261.079C615.067 261.432 615.12 261.698 615.226 261.877C615.331 262.052 615.467 262.172 615.634 262.237C615.804 262.298 615.989 262.328 616.188 262.328C616.335 262.328 616.463 262.318 616.572 262.298C616.682 262.277 616.767 262.261 616.828 262.249L617.157 263.754C617.052 263.795 616.901 263.835 616.706 263.876C616.511 263.921 616.268 263.945 615.975 263.949C615.496 263.957 615.049 263.872 614.634 263.693C614.22 263.514 613.885 263.238 613.629 262.864C613.373 262.491 613.245 262.021 613.245 261.457V252.224Z" fill="#101010"/>
<defs>
<linearGradient id="paint0_linear_1346_215" x1="68.6416" y1="197.346" x2="626.358" y2="197.346" gradientUnits="userSpaceOnUse">
<stop stop-color="#505050" stop-opacity="0.1"/>
<stop offset="1" stop-color="#505050"/>
</linearGradient>
</defs>
</svg>
