<svg width="695" height="441" viewBox="0 0 695 441" fill="none" xmlns="http://www.w3.org/2000/svg">
<rect width="695" height="441" fill="white"/>
<path fill-rule="evenodd" clip-rule="evenodd" d="M82.3175 159.601C81.2931 159.235 80.4516 158.722 79.7348 158.005C77.6448 155.915 77.2929 152.766 77.2337 147.112H111.531C111.471 152.766 111.12 155.915 109.03 158.005C108.313 158.722 107.472 159.234 106.447 159.601L108.692 164.09C109.089 164.884 108.767 165.851 107.972 166.248C107.178 166.645 106.211 166.323 105.814 165.528L103.189 160.278C100.94 160.519 98.0846 160.519 94.3822 160.519C90.6802 160.519 87.8252 160.519 85.5765 160.278L82.9511 165.528C82.5538 166.323 81.5874 166.645 80.7927 166.248C79.998 165.851 79.6758 164.884 80.0732 164.09L82.3175 159.601ZM100.281 151.938C100.281 151.05 101.001 150.329 101.89 150.329H105.107C105.996 150.329 106.716 151.05 106.716 151.938C106.716 152.827 105.996 153.547 105.107 153.547H101.89C101.001 153.547 100.281 152.827 100.281 151.938ZM83.6569 150.329C82.7684 150.329 82.0481 151.05 82.0481 151.938C82.0481 152.827 82.7684 153.547 83.6569 153.547H86.8745C87.763 153.547 88.4833 152.827 88.4833 151.938C88.4833 151.05 87.763 150.329 86.8745 150.329H83.6569Z" fill="#0B8AFF"/>
<path d="M111.543 143.894V139.068C111.543 130.978 111.543 126.934 109.03 124.421C107.144 122.535 104.397 122.064 99.7269 121.947C99.1475 121.932 98.6723 122.4 98.6723 122.98V122.98C98.6723 125.349 96.7515 127.27 94.3822 127.27C92.0128 127.27 90.092 125.349 90.092 122.98V122.98C90.092 122.4 89.6168 121.932 89.0374 121.947C84.3673 122.064 81.62 122.535 79.7348 124.421C77.2217 126.934 77.2217 130.978 77.2217 139.068V143.894H111.543Z" fill="#0B8AFF"/>
<path d="M140.025 155.358V130.397H155.504V133.639H143.792V141.245H154.395V144.474H143.792V155.358H140.025ZM159.156 155.358V136.637H162.801V155.358H159.156ZM160.997 133.749C160.363 133.749 159.819 133.538 159.364 133.115C158.917 132.685 158.693 132.173 158.693 131.58C158.693 130.978 158.917 130.466 159.364 130.044C159.819 129.613 160.363 129.398 160.997 129.398C161.631 129.398 162.171 129.613 162.618 130.044C163.073 130.466 163.3 130.978 163.3 131.58C163.3 132.173 163.073 132.685 162.618 133.115C162.171 133.538 161.631 133.749 160.997 133.749ZM174.866 162.768C173.379 162.768 172.099 162.573 171.027 162.183C169.962 161.793 169.093 161.277 168.418 160.635C167.744 159.993 167.24 159.291 166.907 158.527L170.039 157.235C170.259 157.592 170.551 157.97 170.917 158.368C171.291 158.775 171.794 159.12 172.428 159.404C173.07 159.689 173.895 159.831 174.902 159.831C176.284 159.831 177.425 159.494 178.327 158.819C179.229 158.153 179.68 157.089 179.68 155.626V151.945H179.448C179.229 152.344 178.912 152.786 178.498 153.274C178.091 153.761 177.531 154.184 176.816 154.541C176.101 154.899 175.17 155.078 174.025 155.078C172.546 155.078 171.213 154.732 170.027 154.042C168.849 153.343 167.915 152.315 167.224 150.958C166.541 149.593 166.2 147.915 166.2 145.925C166.2 143.934 166.537 142.228 167.212 140.806C167.894 139.384 168.829 138.295 170.015 137.539C171.201 136.776 172.546 136.394 174.049 136.394C175.211 136.394 176.15 136.589 176.865 136.979C177.58 137.361 178.136 137.808 178.534 138.319C178.941 138.831 179.253 139.282 179.473 139.672H179.741V136.637H183.312V155.772C183.312 157.381 182.938 158.702 182.191 159.733C181.443 160.765 180.432 161.529 179.156 162.025C177.888 162.52 176.458 162.768 174.866 162.768ZM174.829 152.055C175.877 152.055 176.763 151.811 177.486 151.324C178.217 150.828 178.77 150.121 179.144 149.203C179.526 148.277 179.717 147.168 179.717 145.876C179.717 144.616 179.53 143.507 179.156 142.549C178.782 141.59 178.234 140.842 177.511 140.306C176.787 139.762 175.894 139.489 174.829 139.489C173.732 139.489 172.818 139.774 172.087 140.343C171.356 140.903 170.803 141.667 170.429 142.634C170.064 143.601 169.881 144.681 169.881 145.876C169.881 147.103 170.068 148.179 170.442 149.106C170.815 150.032 171.368 150.755 172.099 151.275C172.839 151.795 173.749 152.055 174.829 152.055ZM187.513 155.358V136.637H191.011V139.684H191.242C191.632 138.653 192.27 137.848 193.156 137.271C194.041 136.686 195.102 136.394 196.337 136.394C197.588 136.394 198.636 136.686 199.481 137.271C200.334 137.856 200.964 138.661 201.37 139.684H201.565C202.012 138.685 202.723 137.889 203.698 137.296C204.673 136.694 205.835 136.394 207.184 136.394C208.882 136.394 210.268 136.926 211.34 137.99C212.421 139.055 212.961 140.659 212.961 142.805V155.358H209.317V143.146C209.317 141.878 208.972 140.96 208.281 140.391C207.59 139.823 206.766 139.538 205.807 139.538C204.621 139.538 203.698 139.904 203.04 140.635C202.382 141.358 202.053 142.289 202.053 143.426V155.358H198.421V142.914C198.421 141.899 198.104 141.082 197.47 140.464C196.837 139.847 196.012 139.538 194.996 139.538C194.306 139.538 193.668 139.721 193.083 140.087C192.506 140.444 192.039 140.944 191.681 141.586C191.332 142.228 191.157 142.971 191.157 143.816V155.358H187.513ZM222.607 155.772C221.421 155.772 220.348 155.553 219.389 155.114C218.431 154.667 217.671 154.021 217.11 153.176C216.558 152.331 216.281 151.295 216.281 150.069C216.281 149.012 216.485 148.143 216.891 147.46C217.297 146.778 217.846 146.237 218.536 145.839C219.227 145.441 219.999 145.141 220.852 144.937C221.705 144.734 222.574 144.58 223.46 144.474C224.581 144.344 225.491 144.239 226.19 144.157C226.889 144.068 227.397 143.926 227.714 143.731C228.031 143.536 228.189 143.219 228.189 142.78V142.695C228.189 141.63 227.888 140.806 227.287 140.221C226.694 139.636 225.808 139.343 224.63 139.343C223.403 139.343 222.436 139.615 221.729 140.16C221.031 140.696 220.547 141.293 220.279 141.951L216.854 141.171C217.261 140.034 217.854 139.116 218.634 138.417C219.422 137.71 220.328 137.198 221.352 136.881C222.375 136.556 223.452 136.394 224.581 136.394C225.329 136.394 226.121 136.483 226.958 136.662C227.803 136.832 228.591 137.149 229.322 137.613C230.062 138.076 230.667 138.738 231.138 139.599C231.61 140.452 231.845 141.561 231.845 142.926V155.358H228.286V152.799H228.14C227.905 153.27 227.551 153.733 227.08 154.188C226.609 154.643 226.003 155.021 225.264 155.321C224.524 155.622 223.639 155.772 222.607 155.772ZM223.399 152.847C224.407 152.847 225.268 152.648 225.983 152.25C226.706 151.852 227.255 151.332 227.628 150.69C228.01 150.04 228.201 149.345 228.201 148.606V146.193C228.071 146.323 227.819 146.445 227.446 146.558C227.08 146.664 226.661 146.757 226.19 146.839C225.719 146.912 225.26 146.981 224.813 147.046C224.366 147.103 223.992 147.152 223.692 147.192C222.985 147.282 222.339 147.432 221.754 147.643C221.177 147.854 220.714 148.159 220.364 148.557C220.023 148.947 219.852 149.467 219.852 150.117C219.852 151.019 220.186 151.702 220.852 152.165C221.518 152.62 222.367 152.847 223.399 152.847ZM252.295 155.736C250.483 155.736 248.923 155.326 247.615 154.505C246.315 153.676 245.315 152.535 244.616 151.08C243.918 149.626 243.568 147.96 243.568 146.083C243.568 144.182 243.926 142.504 244.641 141.049C245.356 139.587 246.363 138.445 247.663 137.625C248.963 136.804 250.495 136.394 252.258 136.394C253.68 136.394 254.948 136.658 256.061 137.186C257.174 137.706 258.072 138.437 258.754 139.38C259.445 140.322 259.855 141.423 259.985 142.683H256.439C256.244 141.805 255.797 141.049 255.098 140.416C254.407 139.782 253.481 139.465 252.319 139.465C251.304 139.465 250.414 139.733 249.65 140.269C248.894 140.798 248.305 141.553 247.883 142.536C247.46 143.511 247.249 144.665 247.249 145.998C247.249 147.363 247.456 148.541 247.871 149.532C248.285 150.524 248.87 151.291 249.626 151.836C250.389 152.38 251.287 152.652 252.319 152.652C253.01 152.652 253.635 152.526 254.196 152.275C254.765 152.014 255.24 151.645 255.622 151.165C256.012 150.686 256.284 150.109 256.439 149.435H259.985C259.855 150.645 259.461 151.726 258.803 152.677C258.145 153.627 257.263 154.375 256.158 154.919C255.061 155.464 253.774 155.736 252.295 155.736ZM271.082 155.736C269.327 155.736 267.795 155.334 266.487 154.529C265.179 153.725 264.163 152.6 263.44 151.153C262.717 149.707 262.355 148.017 262.355 146.083C262.355 144.141 262.717 142.443 263.44 140.989C264.163 139.534 265.179 138.405 266.487 137.6C267.795 136.796 269.327 136.394 271.082 136.394C272.837 136.394 274.368 136.796 275.676 137.6C276.985 138.405 278 139.534 278.723 140.989C279.446 142.443 279.808 144.141 279.808 146.083C279.808 148.017 279.446 149.707 278.723 151.153C278 152.6 276.985 153.725 275.676 154.529C274.368 155.334 272.837 155.736 271.082 155.736ZM271.094 152.677C272.231 152.677 273.174 152.376 273.921 151.775C274.669 151.174 275.221 150.373 275.579 149.374C275.945 148.374 276.127 147.273 276.127 146.071C276.127 144.876 275.945 143.78 275.579 142.78C275.221 141.773 274.669 140.964 273.921 140.355C273.174 139.745 272.231 139.441 271.094 139.441C269.948 139.441 268.997 139.745 268.242 140.355C267.494 140.964 266.938 141.773 266.572 142.78C266.215 143.78 266.036 144.876 266.036 146.071C266.036 147.273 266.215 148.374 266.572 149.374C266.938 150.373 267.494 151.174 268.242 151.775C268.997 152.376 269.948 152.677 271.094 152.677ZM283.189 155.358V136.637H286.687V139.684H286.919C287.309 138.653 287.947 137.848 288.832 137.271C289.718 136.686 290.778 136.394 292.013 136.394C293.265 136.394 294.313 136.686 295.158 137.271C296.011 137.856 296.641 138.661 297.047 139.684H297.242C297.689 138.685 298.4 137.889 299.375 137.296C300.35 136.694 301.512 136.394 302.861 136.394C304.559 136.394 305.944 136.926 307.017 137.99C308.097 139.055 308.638 140.659 308.638 142.805V155.358H304.993V143.146C304.993 141.878 304.648 140.96 303.957 140.391C303.267 139.823 302.442 139.538 301.483 139.538C300.297 139.538 299.375 139.904 298.717 140.635C298.058 141.358 297.729 142.289 297.729 143.426V155.358H294.097V142.914C294.097 141.899 293.781 141.082 293.147 140.464C292.513 139.847 291.688 139.538 290.673 139.538C289.982 139.538 289.344 139.721 288.759 140.087C288.182 140.444 287.715 140.944 287.358 141.586C287.008 142.228 286.833 142.971 286.833 143.816V155.358H283.189ZM312.835 162.378V136.637H316.394V139.672H316.699C316.91 139.282 317.215 138.831 317.613 138.319C318.011 137.808 318.564 137.361 319.271 136.979C319.978 136.589 320.912 136.394 322.074 136.394C323.585 136.394 324.934 136.776 326.12 137.539C327.306 138.303 328.237 139.404 328.911 140.842C329.594 142.28 329.935 144.011 329.935 146.034C329.935 148.058 329.598 149.792 328.923 151.239C328.249 152.677 327.323 153.786 326.145 154.566C324.966 155.338 323.622 155.724 322.11 155.724C320.973 155.724 320.043 155.533 319.319 155.151C318.604 154.769 318.044 154.322 317.637 153.81C317.231 153.298 316.918 152.843 316.699 152.445H316.48V162.378H312.835ZM316.406 145.998C316.406 147.314 316.597 148.468 316.979 149.459C317.361 150.45 317.914 151.226 318.637 151.787C319.36 152.34 320.246 152.616 321.294 152.616C322.383 152.616 323.293 152.327 324.024 151.75C324.755 151.165 325.308 150.373 325.681 149.374C326.063 148.374 326.254 147.249 326.254 145.998C326.254 144.763 326.067 143.654 325.694 142.67C325.328 141.687 324.775 140.911 324.036 140.343C323.305 139.774 322.391 139.489 321.294 139.489C320.238 139.489 319.344 139.762 318.612 140.306C317.889 140.85 317.341 141.61 316.967 142.585C316.593 143.56 316.406 144.698 316.406 145.998ZM341.217 155.736C339.462 155.736 337.93 155.334 336.622 154.529C335.314 153.725 334.298 152.6 333.575 151.153C332.852 149.707 332.491 148.017 332.491 146.083C332.491 144.141 332.852 142.443 333.575 140.989C334.298 139.534 335.314 138.405 336.622 137.6C337.93 136.796 339.462 136.394 341.217 136.394C342.972 136.394 344.504 136.796 345.812 137.6C347.12 138.405 348.136 139.534 348.859 140.989C349.582 142.443 349.944 144.141 349.944 146.083C349.944 148.017 349.582 149.707 348.859 151.153C348.136 152.6 347.12 153.725 345.812 154.529C344.504 155.334 342.972 155.736 341.217 155.736ZM341.229 152.677C342.367 152.677 343.309 152.376 344.057 151.775C344.804 151.174 345.357 150.373 345.714 149.374C346.08 148.374 346.263 147.273 346.263 146.071C346.263 144.876 346.08 143.78 345.714 142.78C345.357 141.773 344.804 140.964 344.057 140.355C343.309 139.745 342.367 139.441 341.229 139.441C340.084 139.441 339.133 139.745 338.377 140.355C337.63 140.964 337.073 141.773 336.708 142.78C336.35 143.78 336.171 144.876 336.171 146.071C336.171 147.273 336.35 148.374 336.708 149.374C337.073 150.373 337.63 151.174 338.377 151.775C339.133 152.376 340.084 152.677 341.229 152.677ZM356.969 144.243V155.358H353.325V136.637H356.823V139.684H357.054C357.485 138.693 358.159 137.897 359.077 137.296C360.004 136.694 361.17 136.394 362.575 136.394C363.851 136.394 364.968 136.662 365.927 137.198C366.886 137.726 367.629 138.514 368.157 139.563C368.686 140.611 368.95 141.907 368.95 143.451V155.358H365.305V143.889C365.305 142.532 364.952 141.472 364.245 140.708C363.538 139.936 362.567 139.55 361.332 139.55C360.487 139.55 359.736 139.733 359.077 140.099C358.427 140.464 357.911 141.001 357.53 141.708C357.156 142.406 356.969 143.251 356.969 144.243ZM381.219 155.736C379.374 155.736 377.786 155.342 376.453 154.554C375.129 153.757 374.105 152.64 373.382 151.202C372.667 149.756 372.31 148.062 372.31 146.12C372.31 144.202 372.667 142.512 373.382 141.049C374.105 139.587 375.113 138.445 376.405 137.625C377.705 136.804 379.224 136.394 380.963 136.394C382.019 136.394 383.043 136.568 384.034 136.918C385.026 137.267 385.915 137.816 386.703 138.563C387.492 139.311 388.113 140.282 388.568 141.476C389.023 142.662 389.251 144.105 389.251 145.803V147.095H374.369V144.365H385.68C385.68 143.406 385.485 142.557 385.095 141.817C384.705 141.07 384.156 140.481 383.449 140.05C382.75 139.619 381.93 139.404 380.987 139.404C379.964 139.404 379.07 139.656 378.306 140.16C377.55 140.655 376.965 141.305 376.551 142.11C376.145 142.906 375.942 143.771 375.942 144.706V146.839C375.942 148.09 376.161 149.154 376.6 150.032C377.047 150.909 377.668 151.58 378.464 152.043C379.261 152.498 380.191 152.725 381.255 152.725C381.946 152.725 382.576 152.628 383.145 152.433C383.713 152.23 384.205 151.929 384.619 151.531C385.034 151.133 385.351 150.641 385.57 150.056L389.019 150.678C388.743 151.694 388.247 152.583 387.532 153.347C386.825 154.103 385.936 154.692 384.863 155.114C383.799 155.529 382.584 155.736 381.219 155.736ZM396.252 144.243V155.358H392.608V136.637H396.105V139.684H396.337C396.768 138.693 397.442 137.897 398.36 137.296C399.287 136.694 400.452 136.394 401.858 136.394C403.134 136.394 404.251 136.662 405.21 137.198C406.169 137.726 406.912 138.514 407.44 139.563C407.968 140.611 408.232 141.907 408.232 143.451V155.358H404.588V143.889C404.588 142.532 404.235 141.472 403.528 140.708C402.821 139.936 401.85 139.55 400.615 139.55C399.77 139.55 399.018 139.733 398.36 140.099C397.71 140.464 397.194 141.001 396.812 141.708C396.439 142.406 396.252 143.251 396.252 144.243ZM421.172 136.637V139.563H410.946V136.637H421.172ZM413.689 132.152H417.333V149.861C417.333 150.568 417.438 151.1 417.65 151.458C417.861 151.807 418.133 152.047 418.466 152.177C418.808 152.299 419.177 152.36 419.575 152.36C419.868 152.36 420.124 152.34 420.343 152.299C420.563 152.258 420.733 152.226 420.855 152.201L421.513 155.212C421.302 155.293 421.001 155.374 420.611 155.456C420.221 155.545 419.734 155.594 419.149 155.602C418.19 155.618 417.296 155.447 416.467 155.09C415.639 154.732 414.968 154.18 414.456 153.432C413.945 152.685 413.689 151.746 413.689 150.617V132.152Z" fill="#141D40"/>
<rect x="542.456" y="121.988" width="83.9012" height="42.7407" rx="21.3704" fill="#0B8AFF"/>
<path d="M575.393 137.378V149.858H573.382L567.502 141.357H567.398V149.858H565.137V137.378H567.16L573.035 145.885H573.145V137.378H575.393ZM577.857 149.858V137.378H585.974V139.273H580.118V142.661H585.553V144.556H580.118V147.963H586.023V149.858H577.857ZM590.907 149.858L587.385 137.378H589.816L592.065 146.549H592.181L594.582 137.378H596.794L599.201 146.555H599.31L601.559 137.378H603.991L600.468 149.858H598.238L595.739 141.101H595.642L593.137 149.858H590.907Z" fill="white"/>
<rect x="68.6416" y="233.451" width="557.716" height="25.7407" rx="12.8704" fill="url(#paint0_linear_1346_215)" fill-opacity="0.2"/>
<rect x="68.6416" y="233.451" width="276.713" height="25.7407" rx="12.8704" fill="#0B8AFF"/>
<rect x="72.9316" y="237.741" width="17.1605" height="17.1605" rx="8.58025" fill="white"/>
<rect x="323.904" y="237.741" width="17.1605" height="17.1605" rx="8.58025" fill="white"/>
<rect x="306.743" y="220.58" width="51.4815" height="51.4815" rx="25.7407" stroke="#DADEE4" stroke-width="2.14506"/>
<rect x="604.907" y="237.741" width="17.1605" height="17.1605" rx="8.58025" fill="white"/>
<path d="M78.5928 312.802V300.322H86.3321V301.943H80.4758V305.746H85.7776V307.361H80.4758V312.802H78.5928ZM88.1583 312.802V303.442H89.9804V312.802H88.1583ZM89.0785 301.998C88.7616 301.998 88.4894 301.892 88.2619 301.681C88.0385 301.466 87.9268 301.21 87.9268 300.913C87.9268 300.613 88.0385 300.357 88.2619 300.145C88.4894 299.93 88.7616 299.822 89.0785 299.822C89.3954 299.822 89.6656 299.93 89.889 300.145C90.1165 300.357 90.2303 300.613 90.2303 300.913C90.2303 301.21 90.1165 301.466 89.889 301.681C89.6656 301.892 89.3954 301.998 89.0785 301.998ZM96.013 316.508C95.2695 316.508 94.6296 316.41 94.0934 316.215C93.5612 316.02 93.1265 315.762 92.7893 315.441C92.4521 315.12 92.2002 314.769 92.0336 314.387L93.5998 313.741C93.7095 313.92 93.8557 314.109 94.0385 314.308C94.2254 314.511 94.4773 314.683 94.7942 314.826C95.1151 314.968 95.5275 315.039 96.0313 315.039C96.7219 315.039 97.2927 314.87 97.7436 314.533C98.1946 314.2 98.4201 313.668 98.4201 312.937V311.096H98.3043C98.1946 311.295 98.0362 311.517 97.829 311.76C97.6258 312.004 97.3455 312.215 96.988 312.394C96.6305 312.573 96.1653 312.662 95.5925 312.662C94.8531 312.662 94.1868 312.49 93.5937 312.144C93.0046 311.795 92.5374 311.281 92.1921 310.603C91.8508 309.92 91.6802 309.081 91.6802 308.086C91.6802 307.09 91.8488 306.237 92.186 305.526C92.5272 304.815 92.9944 304.271 93.5876 303.893C94.1807 303.511 94.8531 303.32 95.6047 303.32C96.1856 303.32 96.6549 303.418 97.0124 303.613C97.3699 303.804 97.6482 304.027 97.8472 304.283C98.0504 304.539 98.2068 304.765 98.3165 304.96H98.4505V303.442H100.236V313.01C100.236 313.814 100.049 314.474 99.6754 314.99C99.3017 315.506 98.7959 315.888 98.158 316.136C97.5243 316.384 96.8092 316.508 96.013 316.508ZM95.9947 311.151C96.5188 311.151 96.9616 311.029 97.3232 310.785C97.6888 310.538 97.9651 310.184 98.1519 309.725C98.3429 309.262 98.4384 308.707 98.4384 308.061C98.4384 307.432 98.3449 306.877 98.158 306.398C97.9712 305.918 97.6969 305.545 97.3354 305.276C96.9738 305.004 96.5269 304.868 95.9947 304.868C95.4462 304.868 94.9892 305.01 94.6236 305.295C94.2579 305.575 93.9817 305.957 93.7948 306.44C93.612 306.924 93.5206 307.464 93.5206 308.061C93.5206 308.675 93.614 309.213 93.8009 309.676C93.9878 310.139 94.264 310.501 94.6296 310.761C94.9993 311.021 95.4544 311.151 95.9947 311.151ZM102.337 312.802V303.442H104.085V304.966H104.201C104.396 304.45 104.715 304.048 105.158 303.759C105.601 303.467 106.131 303.32 106.749 303.32C107.374 303.32 107.898 303.467 108.321 303.759C108.747 304.052 109.062 304.454 109.265 304.966H109.363C109.586 304.466 109.942 304.068 110.429 303.771C110.917 303.471 111.498 303.32 112.172 303.32C113.021 303.32 113.714 303.586 114.25 304.119C114.79 304.651 115.061 305.453 115.061 306.526V312.802H113.239V306.696C113.239 306.063 113.066 305.604 112.721 305.319C112.375 305.035 111.963 304.893 111.483 304.893C110.89 304.893 110.429 305.075 110.1 305.441C109.771 305.803 109.607 306.268 109.607 306.837V312.802H107.791V306.581C107.791 306.073 107.632 305.664 107.315 305.356C106.998 305.047 106.586 304.893 106.078 304.893C105.733 304.893 105.414 304.984 105.121 305.167C104.833 305.346 104.599 305.595 104.421 305.916C104.246 306.237 104.159 306.609 104.159 307.032V312.802H102.337ZM119.884 313.01C119.29 313.01 118.754 312.9 118.275 312.681C117.795 312.457 117.416 312.134 117.135 311.712C116.859 311.289 116.721 310.771 116.721 310.158C116.721 309.63 116.822 309.195 117.025 308.854C117.229 308.512 117.503 308.242 117.848 308.043C118.193 307.844 118.579 307.694 119.006 307.592C119.433 307.491 119.867 307.413 120.31 307.361C120.871 307.296 121.326 307.243 121.675 307.202C122.025 307.157 122.278 307.086 122.437 306.989C122.595 306.891 122.675 306.733 122.675 306.514V306.471C122.675 305.939 122.524 305.526 122.224 305.234C121.927 304.941 121.484 304.795 120.895 304.795C120.282 304.795 119.798 304.931 119.445 305.203C119.095 305.471 118.854 305.77 118.72 306.099L117.007 305.709C117.21 305.14 117.507 304.681 117.897 304.332C118.291 303.978 118.744 303.723 119.256 303.564C119.768 303.402 120.306 303.32 120.871 303.32C121.245 303.32 121.641 303.365 122.059 303.454C122.482 303.54 122.876 303.698 123.241 303.93C123.611 304.161 123.914 304.492 124.149 304.923C124.385 305.35 124.503 305.904 124.503 306.587V312.802H122.723V311.523H122.65C122.532 311.758 122.356 311.99 122.12 312.217C121.884 312.445 121.582 312.634 121.212 312.784C120.842 312.935 120.399 313.01 119.884 313.01ZM120.28 311.547C120.783 311.547 121.214 311.448 121.572 311.249C121.933 311.049 122.207 310.789 122.394 310.469C122.585 310.144 122.681 309.796 122.681 309.426V308.22C122.616 308.285 122.49 308.346 122.303 308.403C122.12 308.455 121.911 308.502 121.675 308.543C121.44 308.579 121.21 308.614 120.987 308.646C120.763 308.675 120.576 308.699 120.426 308.72C120.072 308.764 119.749 308.839 119.457 308.945C119.169 309.051 118.937 309.203 118.762 309.402C118.592 309.597 118.506 309.857 118.506 310.182C118.506 310.633 118.673 310.974 119.006 311.206C119.339 311.433 119.764 311.547 120.28 311.547ZM134.727 312.991C133.822 312.991 133.042 312.786 132.387 312.376C131.737 311.962 131.238 311.391 130.888 310.664C130.539 309.936 130.364 309.103 130.364 308.165C130.364 307.214 130.543 306.375 130.901 305.648C131.258 304.917 131.762 304.346 132.412 303.936C133.062 303.526 133.828 303.32 134.709 303.32C135.42 303.32 136.054 303.452 136.611 303.716C137.167 303.976 137.616 304.342 137.957 304.813C138.303 305.285 138.508 305.835 138.573 306.465H136.799C136.702 306.026 136.478 305.648 136.129 305.331C135.784 305.014 135.321 304.856 134.74 304.856C134.232 304.856 133.787 304.99 133.405 305.258C133.027 305.522 132.733 305.9 132.521 306.392C132.31 306.879 132.205 307.456 132.205 308.122C132.205 308.805 132.308 309.394 132.515 309.89C132.723 310.385 133.015 310.769 133.393 311.041C133.775 311.314 134.224 311.45 134.74 311.45C135.085 311.45 135.398 311.387 135.678 311.261C135.963 311.131 136.2 310.946 136.391 310.706C136.586 310.466 136.722 310.178 136.799 309.841H138.573C138.508 310.446 138.311 310.987 137.982 311.462C137.653 311.937 137.212 312.311 136.659 312.583C136.111 312.855 135.467 312.991 134.727 312.991ZM144.121 312.991C143.243 312.991 142.478 312.79 141.823 312.388C141.169 311.986 140.662 311.423 140.3 310.7C139.938 309.977 139.758 309.132 139.758 308.165C139.758 307.194 139.938 306.345 140.3 305.618C140.662 304.891 141.169 304.326 141.823 303.924C142.478 303.521 143.243 303.32 144.121 303.32C144.998 303.32 145.764 303.521 146.418 303.924C147.072 304.326 147.58 304.891 147.942 305.618C148.303 306.345 148.484 307.194 148.484 308.165C148.484 309.132 148.303 309.977 147.942 310.7C147.58 311.423 147.072 311.986 146.418 312.388C145.764 312.79 144.998 312.991 144.121 312.991ZM144.127 311.462C144.696 311.462 145.167 311.312 145.541 311.011C145.914 310.71 146.191 310.31 146.37 309.81C146.552 309.311 146.644 308.76 146.644 308.159C146.644 307.562 146.552 307.013 146.37 306.514C146.191 306.01 145.914 305.606 145.541 305.301C145.167 304.996 144.696 304.844 144.127 304.844C143.554 304.844 143.079 304.996 142.701 305.301C142.327 305.606 142.049 306.01 141.866 306.514C141.687 307.013 141.598 307.562 141.598 308.159C141.598 308.76 141.687 309.311 141.866 309.81C142.049 310.31 142.327 310.71 142.701 311.011C143.079 311.312 143.554 311.462 144.127 311.462ZM150.175 312.802V303.442H151.924V304.966H152.039C152.234 304.45 152.553 304.048 152.996 303.759C153.439 303.467 153.969 303.32 154.587 303.32C155.212 303.32 155.736 303.467 156.159 303.759C156.586 304.052 156.9 304.454 157.104 304.966H157.201C157.424 304.466 157.78 304.068 158.267 303.771C158.755 303.471 159.336 303.32 160.01 303.32C160.859 303.32 161.552 303.586 162.088 304.119C162.629 304.651 162.899 305.453 162.899 306.526V312.802H161.077V306.696C161.077 306.063 160.904 305.604 160.559 305.319C160.213 305.035 159.801 304.893 159.322 304.893C158.729 304.893 158.267 305.075 157.938 305.441C157.609 305.803 157.445 306.268 157.445 306.837V312.802H155.629V306.581C155.629 306.073 155.47 305.664 155.153 305.356C154.837 305.047 154.424 304.893 153.916 304.893C153.571 304.893 153.252 304.984 152.96 305.167C152.671 305.346 152.438 305.595 152.259 305.916C152.084 306.237 151.997 306.609 151.997 307.032V312.802H150.175ZM164.998 316.313V303.442H166.777V304.96H166.93C167.035 304.765 167.188 304.539 167.387 304.283C167.586 304.027 167.862 303.804 168.215 303.613C168.569 303.418 169.036 303.32 169.617 303.32C170.373 303.32 171.047 303.511 171.64 303.893C172.233 304.275 172.698 304.826 173.036 305.545C173.377 306.264 173.548 307.129 173.548 308.141C173.548 309.152 173.379 310.02 173.042 310.743C172.705 311.462 172.241 312.016 171.652 312.406C171.063 312.792 170.391 312.985 169.635 312.985C169.067 312.985 168.601 312.89 168.24 312.699C167.882 312.508 167.602 312.285 167.399 312.029C167.196 311.773 167.039 311.545 166.93 311.346H166.82V316.313H164.998ZM166.783 308.122C166.783 308.78 166.879 309.357 167.07 309.853C167.261 310.349 167.537 310.737 167.898 311.017C168.26 311.293 168.703 311.431 169.227 311.431C169.771 311.431 170.226 311.287 170.592 310.999C170.958 310.706 171.234 310.31 171.421 309.81C171.612 309.311 171.707 308.748 171.707 308.122C171.707 307.505 171.614 306.95 171.427 306.459C171.244 305.967 170.968 305.579 170.598 305.295C170.232 305.01 169.775 304.868 169.227 304.868C168.699 304.868 168.252 305.004 167.886 305.276C167.525 305.549 167.251 305.929 167.064 306.416C166.877 306.904 166.783 307.472 166.783 308.122ZM179.189 312.991C178.311 312.991 177.545 312.79 176.891 312.388C176.237 311.986 175.729 311.423 175.368 310.7C175.006 309.977 174.825 309.132 174.825 308.165C174.825 307.194 175.006 306.345 175.368 305.618C175.729 304.891 176.237 304.326 176.891 303.924C177.545 303.521 178.311 303.32 179.189 303.32C180.066 303.32 180.832 303.521 181.486 303.924C182.14 304.326 182.648 304.891 183.009 305.618C183.371 306.345 183.552 307.194 183.552 308.165C183.552 309.132 183.371 309.977 183.009 310.7C182.648 311.423 182.14 311.986 181.486 312.388C180.832 312.79 180.066 312.991 179.189 312.991ZM179.195 311.462C179.763 311.462 180.235 311.312 180.608 311.011C180.982 310.71 181.258 310.31 181.437 309.81C181.62 309.311 181.711 308.76 181.711 308.159C181.711 307.562 181.62 307.013 181.437 306.514C181.258 306.01 180.982 305.606 180.608 305.301C180.235 304.996 179.763 304.844 179.195 304.844C178.622 304.844 178.147 304.996 177.769 305.301C177.395 305.606 177.117 306.01 176.934 306.514C176.755 307.013 176.666 307.562 176.666 308.159C176.666 308.76 176.755 309.311 176.934 309.81C177.117 310.31 177.395 310.71 177.769 311.011C178.147 311.312 178.622 311.462 179.195 311.462ZM187.065 307.245V312.802H185.242V303.442H186.991V304.966H187.107C187.323 304.47 187.66 304.072 188.119 303.771C188.582 303.471 189.165 303.32 189.868 303.32C190.506 303.32 191.064 303.454 191.544 303.723C192.023 303.987 192.395 304.381 192.659 304.905C192.923 305.429 193.055 306.077 193.055 306.849V312.802H191.233V307.068C191.233 306.39 191.056 305.859 190.703 305.478C190.349 305.092 189.864 304.899 189.246 304.899C188.824 304.899 188.448 304.99 188.119 305.173C187.794 305.356 187.536 305.624 187.345 305.977C187.158 306.327 187.065 306.749 187.065 307.245ZM199.19 312.991C198.267 312.991 197.473 312.794 196.807 312.4C196.145 312.002 195.633 311.444 195.271 310.724C194.914 310.001 194.735 309.154 194.735 308.183C194.735 307.225 194.914 306.379 195.271 305.648C195.633 304.917 196.136 304.346 196.782 303.936C197.432 303.526 198.192 303.32 199.062 303.32C199.59 303.32 200.102 303.408 200.597 303.582C201.093 303.757 201.538 304.031 201.932 304.405C202.326 304.779 202.637 305.264 202.864 305.862C203.092 306.455 203.205 307.176 203.205 308.025V308.671H195.765V307.306H201.42C201.42 306.826 201.322 306.402 201.127 306.032C200.932 305.658 200.658 305.364 200.305 305.149C199.955 304.933 199.545 304.826 199.074 304.826C198.562 304.826 198.115 304.951 197.733 305.203C197.355 305.451 197.063 305.776 196.856 306.178C196.652 306.577 196.551 307.009 196.551 307.476V308.543C196.551 309.168 196.661 309.701 196.88 310.139C197.103 310.578 197.414 310.913 197.812 311.145C198.21 311.372 198.676 311.486 199.208 311.486C199.553 311.486 199.868 311.437 200.152 311.34C200.437 311.238 200.683 311.088 200.89 310.889C201.097 310.69 201.255 310.444 201.365 310.152L203.09 310.462C202.952 310.97 202.704 311.415 202.346 311.797C201.993 312.175 201.548 312.469 201.012 312.681C200.479 312.888 199.872 312.991 199.19 312.991ZM206.706 307.245V312.802H204.884V303.442H206.633V304.966H206.749C206.964 304.47 207.301 304.072 207.76 303.771C208.223 303.471 208.806 303.32 209.509 303.32C210.147 303.32 210.706 303.454 211.185 303.723C211.664 303.987 212.036 304.381 212.3 304.905C212.564 305.429 212.696 306.077 212.696 306.849V312.802H210.874V307.068C210.874 306.39 210.697 305.859 210.344 305.478C209.991 305.092 209.505 304.899 208.888 304.899C208.465 304.899 208.089 304.99 207.76 305.173C207.435 305.356 207.177 305.624 206.986 305.977C206.799 306.327 206.706 306.749 206.706 307.245ZM219.166 303.442V304.905H214.053V303.442H219.166ZM215.424 301.2H217.246V310.054C217.246 310.408 217.299 310.674 217.405 310.852C217.511 311.027 217.647 311.147 217.813 311.212C217.984 311.273 218.169 311.303 218.368 311.303C218.514 311.303 218.642 311.293 218.752 311.273C218.861 311.253 218.947 311.236 219.008 311.224L219.337 312.729C219.231 312.77 219.081 312.811 218.886 312.851C218.691 312.896 218.447 312.92 218.154 312.924C217.675 312.932 217.228 312.847 216.814 312.668C216.399 312.49 216.064 312.213 215.808 311.84C215.552 311.466 215.424 310.997 215.424 310.432V301.2Z" fill="#141D40"/>
<path d="M476.413 312.802V300.322H484.153V301.943H478.296V305.746H483.598V307.361H478.296V312.802H476.413ZM485.979 312.802V303.442H487.801V312.802H485.979ZM486.899 301.998C486.582 301.998 486.31 301.892 486.082 301.681C485.859 301.466 485.747 301.21 485.747 300.913C485.747 300.613 485.859 300.357 486.082 300.145C486.31 299.93 486.582 299.822 486.899 299.822C487.216 299.822 487.486 299.93 487.71 300.145C487.937 300.357 488.051 300.613 488.051 300.913C488.051 301.21 487.937 301.466 487.71 301.681C487.486 301.892 487.216 301.998 486.899 301.998ZM493.834 316.508C493.09 316.508 492.45 316.41 491.914 316.215C491.382 316.02 490.947 315.762 490.61 315.441C490.273 315.12 490.021 314.769 489.854 314.387L491.42 313.741C491.53 313.92 491.676 314.109 491.859 314.308C492.046 314.511 492.298 314.683 492.615 314.826C492.936 314.968 493.348 315.039 493.852 315.039C494.542 315.039 495.113 314.87 495.564 314.533C496.015 314.2 496.241 313.668 496.241 312.937V311.096H496.125C496.015 311.295 495.857 311.517 495.65 311.76C495.446 312.004 495.166 312.215 494.809 312.394C494.451 312.573 493.986 312.662 493.413 312.662C492.674 312.662 492.007 312.49 491.414 312.144C490.825 311.795 490.358 311.281 490.013 310.603C489.671 309.92 489.501 309.081 489.501 308.086C489.501 307.09 489.669 306.237 490.007 305.526C490.348 304.815 490.815 304.271 491.408 303.893C492.001 303.511 492.674 303.32 493.425 303.32C494.006 303.32 494.475 303.418 494.833 303.613C495.19 303.804 495.469 304.027 495.668 304.283C495.871 304.539 496.027 304.765 496.137 304.96H496.271V303.442H498.057V313.01C498.057 313.814 497.87 314.474 497.496 314.99C497.122 315.506 496.616 315.888 495.979 316.136C495.345 316.384 494.63 316.508 493.834 316.508ZM493.815 311.151C494.339 311.151 494.782 311.029 495.144 310.785C495.509 310.538 495.786 310.184 495.973 309.725C496.163 309.262 496.259 308.707 496.259 308.061C496.259 307.432 496.165 306.877 495.979 306.398C495.792 305.918 495.517 305.545 495.156 305.276C494.794 305.004 494.347 304.868 493.815 304.868C493.267 304.868 492.81 305.01 492.444 305.295C492.078 305.575 491.802 305.957 491.615 306.44C491.433 306.924 491.341 307.464 491.341 308.061C491.341 308.675 491.435 309.213 491.621 309.676C491.808 310.139 492.085 310.501 492.45 310.761C492.82 311.021 493.275 311.151 493.815 311.151ZM500.157 312.802V303.442H501.906V304.966H502.022C502.217 304.45 502.536 304.048 502.979 303.759C503.421 303.467 503.952 303.32 504.569 303.32C505.195 303.32 505.719 303.467 506.141 303.759C506.568 304.052 506.883 304.454 507.086 304.966H507.183C507.407 304.466 507.762 304.068 508.25 303.771C508.737 303.471 509.318 303.32 509.993 303.32C510.842 303.32 511.534 303.586 512.071 304.119C512.611 304.651 512.881 305.453 512.881 306.526V312.802H511.059V306.696C511.059 306.063 510.886 305.604 510.541 305.319C510.196 305.035 509.783 304.893 509.304 304.893C508.711 304.893 508.25 305.075 507.921 305.441C507.592 305.803 507.427 306.268 507.427 306.837V312.802H505.611V306.581C505.611 306.073 505.453 305.664 505.136 305.356C504.819 305.047 504.407 304.893 503.899 304.893C503.553 304.893 503.235 304.984 502.942 305.167C502.654 305.346 502.42 305.595 502.241 305.916C502.067 306.237 501.979 306.609 501.979 307.032V312.802H500.157ZM517.704 313.01C517.111 313.01 516.575 312.9 516.095 312.681C515.616 312.457 515.236 312.134 514.956 311.712C514.679 311.289 514.541 310.771 514.541 310.158C514.541 309.63 514.643 309.195 514.846 308.854C515.049 308.512 515.323 308.242 515.669 308.043C516.014 307.844 516.4 307.694 516.827 307.592C517.253 307.491 517.688 307.413 518.131 307.361C518.691 307.296 519.146 307.243 519.496 307.202C519.845 307.157 520.099 307.086 520.257 306.989C520.416 306.891 520.495 306.733 520.495 306.514V306.471C520.495 305.939 520.345 305.526 520.044 305.234C519.748 304.941 519.305 304.795 518.716 304.795C518.102 304.795 517.619 304.931 517.265 305.203C516.916 305.471 516.674 305.77 516.54 306.099L514.828 305.709C515.031 305.14 515.327 304.681 515.717 304.332C516.112 303.978 516.565 303.723 517.076 303.564C517.588 303.402 518.127 303.32 518.691 303.32C519.065 303.32 519.461 303.365 519.88 303.454C520.302 303.54 520.696 303.698 521.062 303.93C521.432 304.161 521.734 304.492 521.97 304.923C522.205 305.35 522.323 305.904 522.323 306.587V312.802H520.544V311.523H520.471C520.353 311.758 520.176 311.99 519.941 312.217C519.705 312.445 519.402 312.634 519.033 312.784C518.663 312.935 518.22 313.01 517.704 313.01ZM518.1 311.547C518.604 311.547 519.035 311.448 519.392 311.249C519.754 311.049 520.028 310.789 520.215 310.469C520.406 310.144 520.501 309.796 520.501 309.426V308.22C520.436 308.285 520.31 308.346 520.123 308.403C519.941 308.455 519.731 308.502 519.496 308.543C519.26 308.579 519.031 308.614 518.807 308.646C518.584 308.675 518.397 308.699 518.246 308.72C517.893 308.764 517.57 308.839 517.278 308.945C516.989 309.051 516.758 309.203 516.583 309.402C516.412 309.597 516.327 309.857 516.327 310.182C516.327 310.633 516.493 310.974 516.827 311.206C517.16 311.433 517.584 311.547 518.1 311.547ZM532.548 312.991C531.642 312.991 530.862 312.786 530.208 312.376C529.558 311.962 529.058 311.391 528.709 310.664C528.36 309.936 528.185 309.103 528.185 308.165C528.185 307.214 528.364 306.375 528.721 305.648C529.079 304.917 529.582 304.346 530.232 303.936C530.882 303.526 531.648 303.32 532.53 303.32C533.241 303.32 533.875 303.452 534.431 303.716C534.988 303.976 535.437 304.342 535.778 304.813C536.123 305.285 536.328 305.835 536.393 306.465H534.62C534.522 306.026 534.299 305.648 533.95 305.331C533.604 305.014 533.141 304.856 532.56 304.856C532.052 304.856 531.608 304.99 531.226 305.258C530.848 305.522 530.553 305.9 530.342 306.392C530.131 306.879 530.025 307.456 530.025 308.122C530.025 308.805 530.129 309.394 530.336 309.89C530.543 310.385 530.836 310.769 531.213 311.041C531.595 311.314 532.044 311.45 532.56 311.45C532.906 311.45 533.218 311.387 533.499 311.261C533.783 311.131 534.021 310.946 534.212 310.706C534.407 310.466 534.543 310.178 534.62 309.841H536.393C536.328 310.446 536.131 310.987 535.802 311.462C535.473 311.937 535.032 312.311 534.48 312.583C533.931 312.855 533.287 312.991 532.548 312.991ZM541.941 312.991C541.064 312.991 540.298 312.79 539.644 312.388C538.99 311.986 538.482 311.423 538.121 310.7C537.759 309.977 537.578 309.132 537.578 308.165C537.578 307.194 537.759 306.345 538.121 305.618C538.482 304.891 538.99 304.326 539.644 303.924C540.298 303.521 541.064 303.32 541.941 303.32C542.819 303.32 543.585 303.521 544.239 303.924C544.893 304.326 545.401 304.891 545.762 305.618C546.124 306.345 546.305 307.194 546.305 308.165C546.305 309.132 546.124 309.977 545.762 310.7C545.401 311.423 544.893 311.986 544.239 312.388C543.585 312.79 542.819 312.991 541.941 312.991ZM541.948 311.462C542.516 311.462 542.988 311.312 543.361 311.011C543.735 310.71 544.011 310.31 544.19 309.81C544.373 309.311 544.464 308.76 544.464 308.159C544.464 307.562 544.373 307.013 544.19 306.514C544.011 306.01 543.735 305.606 543.361 305.301C542.988 304.996 542.516 304.844 541.948 304.844C541.375 304.844 540.899 304.996 540.522 305.301C540.148 305.606 539.869 306.01 539.687 306.514C539.508 307.013 539.419 307.562 539.419 308.159C539.419 308.76 539.508 309.311 539.687 309.81C539.869 310.31 540.148 310.71 540.522 311.011C540.899 311.312 541.375 311.462 541.948 311.462ZM547.995 312.802V303.442H549.744V304.966H549.86C550.055 304.45 550.374 304.048 550.817 303.759C551.26 303.467 551.79 303.32 552.407 303.32C553.033 303.32 553.557 303.467 553.98 303.759C554.406 304.052 554.721 304.454 554.924 304.966H555.022C555.245 304.466 555.601 304.068 556.088 303.771C556.576 303.471 557.157 303.32 557.831 303.32C558.68 303.32 559.373 303.586 559.909 304.119C560.449 304.651 560.719 305.453 560.719 306.526V312.802H558.897V306.696C558.897 306.063 558.725 305.604 558.379 305.319C558.034 305.035 557.622 304.893 557.142 304.893C556.549 304.893 556.088 305.075 555.759 305.441C555.43 305.803 555.265 306.268 555.265 306.837V312.802H553.449V306.581C553.449 306.073 553.291 305.664 552.974 305.356C552.657 305.047 552.245 304.893 551.737 304.893C551.392 304.893 551.073 304.984 550.78 305.167C550.492 305.346 550.258 305.595 550.079 305.916C549.905 306.237 549.817 306.609 549.817 307.032V312.802H547.995ZM562.818 316.313V303.442H564.598V304.96H564.75C564.856 304.765 565.008 304.539 565.207 304.283C565.406 304.027 565.683 303.804 566.036 303.613C566.389 303.418 566.857 303.32 567.438 303.32C568.193 303.32 568.868 303.511 569.461 303.893C570.054 304.275 570.519 304.826 570.856 305.545C571.198 306.264 571.368 307.129 571.368 308.141C571.368 309.152 571.2 310.02 570.862 310.743C570.525 311.462 570.062 312.016 569.473 312.406C568.884 312.792 568.211 312.985 567.456 312.985C566.887 312.985 566.422 312.89 566.06 312.699C565.703 312.508 565.422 312.285 565.219 312.029C565.016 311.773 564.86 311.545 564.75 311.346H564.64V316.313H562.818ZM564.604 308.122C564.604 308.78 564.699 309.357 564.89 309.853C565.081 310.349 565.357 310.737 565.719 311.017C566.081 311.293 566.523 311.431 567.048 311.431C567.592 311.431 568.047 311.287 568.413 310.999C568.778 310.706 569.054 310.31 569.241 309.81C569.432 309.311 569.528 308.748 569.528 308.122C569.528 307.505 569.434 306.95 569.247 306.459C569.065 305.967 568.788 305.579 568.419 305.295C568.053 305.01 567.596 304.868 567.048 304.868C566.519 304.868 566.073 305.004 565.707 305.276C565.345 305.549 565.071 305.929 564.884 306.416C564.697 306.904 564.604 307.472 564.604 308.122ZM577.009 312.991C576.132 312.991 575.366 312.79 574.712 312.388C574.058 311.986 573.55 311.423 573.188 310.7C572.827 309.977 572.646 309.132 572.646 308.165C572.646 307.194 572.827 306.345 573.188 305.618C573.55 304.891 574.058 304.326 574.712 303.924C575.366 303.521 576.132 303.32 577.009 303.32C577.887 303.32 578.652 303.521 579.307 303.924C579.961 304.326 580.468 304.891 580.83 305.618C581.192 306.345 581.372 307.194 581.372 308.165C581.372 309.132 581.192 309.977 580.83 310.7C580.468 311.423 579.961 311.986 579.307 312.388C578.652 312.79 577.887 312.991 577.009 312.991ZM577.015 311.462C577.584 311.462 578.055 311.312 578.429 311.011C578.803 310.71 579.079 310.31 579.258 309.81C579.441 309.311 579.532 308.76 579.532 308.159C579.532 307.562 579.441 307.013 579.258 306.514C579.079 306.01 578.803 305.606 578.429 305.301C578.055 304.996 577.584 304.844 577.015 304.844C576.442 304.844 575.967 304.996 575.589 305.301C575.216 305.606 574.937 306.01 574.754 306.514C574.576 307.013 574.486 307.562 574.486 308.159C574.486 308.76 574.576 309.311 574.754 309.81C574.937 310.31 575.216 310.71 575.589 311.011C575.967 311.312 576.442 311.462 577.015 311.462ZM584.885 307.245V312.802H583.063V303.442H584.812V304.966H584.928C585.143 304.47 585.48 304.072 585.939 303.771C586.403 303.471 586.986 303.32 587.688 303.32C588.326 303.32 588.885 303.454 589.364 303.723C589.844 303.987 590.215 304.381 590.479 304.905C590.743 305.429 590.875 306.077 590.875 306.849V312.802H589.053V307.068C589.053 306.39 588.877 305.859 588.523 305.478C588.17 305.092 587.684 304.899 587.067 304.899C586.644 304.899 586.268 304.99 585.939 305.173C585.614 305.356 585.356 305.624 585.165 305.977C584.979 306.327 584.885 306.749 584.885 307.245ZM597.01 312.991C596.088 312.991 595.294 312.794 594.627 312.4C593.965 312.002 593.453 311.444 593.092 310.724C592.734 310.001 592.555 309.154 592.555 308.183C592.555 307.225 592.734 306.379 593.092 305.648C593.453 304.917 593.957 304.346 594.603 303.936C595.253 303.526 596.013 303.32 596.882 303.32C597.41 303.32 597.922 303.408 598.418 303.582C598.913 303.757 599.358 304.031 599.752 304.405C600.146 304.779 600.457 305.264 600.685 305.862C600.912 306.455 601.026 307.176 601.026 308.025V308.671H593.585V307.306H599.24C599.24 306.826 599.143 306.402 598.948 306.032C598.753 305.658 598.479 305.364 598.125 305.149C597.776 304.933 597.366 304.826 596.894 304.826C596.382 304.826 595.936 304.951 595.554 305.203C595.176 305.451 594.883 305.776 594.676 306.178C594.473 306.577 594.371 307.009 594.371 307.476V308.543C594.371 309.168 594.481 309.701 594.7 310.139C594.924 310.578 595.235 310.913 595.633 311.145C596.031 311.372 596.496 311.486 597.028 311.486C597.374 311.486 597.689 311.437 597.973 311.34C598.257 311.238 598.503 311.088 598.71 310.889C598.917 310.69 599.076 310.444 599.186 310.152L600.91 310.462C600.772 310.97 600.524 311.415 600.167 311.797C599.813 312.175 599.368 312.469 598.832 312.681C598.3 312.888 597.693 312.991 597.01 312.991ZM604.527 307.245V312.802H602.704V303.442H604.453V304.966H604.569C604.784 304.47 605.122 304.072 605.581 303.771C606.044 303.471 606.627 303.32 607.33 303.32C607.968 303.32 608.526 303.454 609.006 303.723C609.485 303.987 609.857 304.381 610.121 304.905C610.385 305.429 610.517 306.077 610.517 306.849V312.802H608.695V307.068C608.695 306.39 608.518 305.859 608.165 305.478C607.811 305.092 607.326 304.899 606.708 304.899C606.286 304.899 605.91 304.99 605.581 305.173C605.256 305.356 604.998 305.624 604.807 305.977C604.62 306.327 604.527 306.749 604.527 307.245ZM616.987 303.442V304.905H611.874V303.442H616.987ZM613.245 301.2H615.067V310.054C615.067 310.408 615.12 310.674 615.226 310.852C615.331 311.027 615.467 311.147 615.634 311.212C615.804 311.273 615.989 311.303 616.188 311.303C616.335 311.303 616.463 311.293 616.572 311.273C616.682 311.253 616.767 311.236 616.828 311.224L617.157 312.729C617.052 312.77 616.901 312.811 616.706 312.851C616.511 312.896 616.268 312.92 615.975 312.924C615.496 312.932 615.049 312.847 614.634 312.668C614.22 312.49 613.885 312.213 613.629 311.84C613.373 311.466 613.245 310.997 613.245 310.432V301.2Z" fill="#141D40"/>
<defs>
<linearGradient id="paint0_linear_1346_215" x1="68.6416" y1="246.321" x2="626.358" y2="246.321" gradientUnits="userSpaceOnUse">
<stop stop-color="#505050" stop-opacity="0.1"/>
<stop offset="1" stop-color="#505050"/>
</linearGradient>
</defs>
</svg>
