<svg width="616" height="843" viewBox="0 0 616 843" fill="none" xmlns="http://www.w3.org/2000/svg">
<rect width="615" height="843" transform="translate(0.655273)" fill="white"/>
<path opacity="0.9" d="M74.5649 179.15V132.94H83.759V179.15H74.5649ZM56.074 160.625V151.465H102.284V160.625H56.074ZM116.485 177.236V168.691L146.734 120.909H153.467V133.487H149.195L127.559 167.734V168.281H169.019V177.236H116.485ZM149.673 190.907V174.638L149.742 170.742V120.909H159.756V190.907H149.673ZM183.288 190.907L213.844 130.479V129.966H178.503V120.909H224.782V130.274L194.328 190.907H183.288ZM237.624 190.907V120.909H248.186V154.336H249.04L278.4 120.909H291.695L263.464 152.422L291.798 190.907H279.083L256.457 159.634L248.186 169.135V190.907H237.624Z" fill="#141D40"/>
<path d="M51.5247 225.81V242.707H48.9754V225.81H51.5247ZM57.506 235.183V242.707H55.0392V230.035H57.407V232.097H57.5638C57.8553 231.426 58.3118 230.887 58.9333 230.48C59.5603 230.073 60.3496 229.87 61.3011 229.87C62.1646 229.87 62.9208 230.051 63.5698 230.414C64.2188 230.772 64.7221 231.305 65.0796 232.015C65.4371 232.724 65.6159 233.601 65.6159 234.646V242.707H63.1491V234.943C63.1491 234.025 62.9098 233.307 62.4313 232.79C61.9528 232.268 61.2956 232.006 60.4596 232.006C59.8875 232.006 59.3788 232.13 58.9333 232.378C58.4933 232.625 58.144 232.988 57.8855 233.467C57.6325 233.94 57.506 234.512 57.506 235.183ZM80.9879 230.035V232.015H74.066V230.035H80.9879ZM75.9223 226.998H78.3891V238.986C78.3891 239.464 78.4606 239.825 78.6036 240.067C78.7466 240.303 78.9308 240.465 79.1563 240.553C79.3873 240.636 79.6376 240.677 79.9071 240.677C80.1051 240.677 80.2784 240.663 80.4269 240.636C80.5754 240.608 80.6909 240.586 80.7734 240.57L81.2189 242.608C81.0759 242.663 80.8724 242.718 80.6084 242.773C80.3444 242.833 80.0144 242.866 79.6184 242.872C78.9693 242.883 78.3643 242.767 77.8033 242.525C77.2423 242.283 76.7886 241.909 76.4421 241.403C76.0956 240.897 75.9223 240.262 75.9223 239.497V226.998ZM86.4556 235.183V242.707H83.9888V225.81H86.4226V232.097H86.5794C86.8764 231.415 87.3301 230.873 87.9406 230.472C88.5512 230.07 89.3487 229.87 90.3332 229.87C91.2022 229.87 91.9612 230.048 92.6102 230.406C93.2647 230.763 93.7707 231.297 94.1282 232.006C94.4912 232.71 94.6727 233.59 94.6727 234.646V242.707H92.2059V234.943C92.2059 234.014 91.9667 233.293 91.4882 232.782C91.0097 232.265 90.3442 232.006 89.4917 232.006C88.9087 232.006 88.3861 232.13 87.9241 232.378C87.4676 232.625 87.1074 232.988 86.8434 233.467C86.5849 233.94 86.4556 234.512 86.4556 235.183ZM103.426 242.962C102.178 242.962 101.102 242.696 100.2 242.162C99.3038 241.623 98.6108 240.867 98.1213 239.893C97.6373 238.914 97.3953 237.768 97.3953 236.453C97.3953 235.155 97.6373 234.011 98.1213 233.021C98.6108 232.031 99.2928 231.258 100.167 230.703C101.047 230.147 102.076 229.87 103.253 229.87C103.968 229.87 104.661 229.988 105.332 230.224C106.003 230.461 106.605 230.832 107.139 231.338C107.672 231.844 108.093 232.501 108.401 233.31C108.709 234.113 108.863 235.089 108.863 236.239V237.113H98.7895V235.265H106.446C106.446 234.616 106.314 234.041 106.05 233.541C105.786 233.035 105.414 232.636 104.936 232.345C104.463 232.053 103.907 231.907 103.269 231.907C102.576 231.907 101.971 232.078 101.454 232.419C100.943 232.754 100.547 233.194 100.266 233.739C99.9913 234.278 99.8538 234.864 99.8538 235.496V236.94C99.8538 237.787 100.002 238.507 100.299 239.101C100.602 239.695 101.023 240.149 101.562 240.463C102.101 240.771 102.73 240.925 103.451 240.925C103.918 240.925 104.345 240.859 104.73 240.727C105.115 240.589 105.447 240.386 105.728 240.116C106.008 239.847 106.223 239.514 106.371 239.118L108.706 239.539C108.519 240.226 108.184 240.828 107.7 241.345C107.221 241.857 106.619 242.256 105.893 242.542C105.172 242.822 104.35 242.962 103.426 242.962ZM117.748 247.459V230.035H120.157V232.089H120.364C120.507 231.825 120.713 231.52 120.982 231.173C121.252 230.827 121.626 230.524 122.104 230.266C122.583 230.002 123.215 229.87 124.002 229.87C125.025 229.87 125.938 230.128 126.741 230.645C127.544 231.162 128.174 231.907 128.63 232.881C129.092 233.854 129.323 235.026 129.323 236.395C129.323 237.765 129.095 238.939 128.638 239.918C128.182 240.892 127.555 241.642 126.757 242.17C125.96 242.693 125.05 242.954 124.027 242.954C123.257 242.954 122.627 242.825 122.137 242.566C121.653 242.308 121.274 242.005 120.999 241.659C120.724 241.312 120.512 241.004 120.364 240.735H120.215V247.459H117.748ZM120.166 236.371C120.166 237.262 120.295 238.043 120.553 238.714C120.812 239.385 121.186 239.91 121.675 240.289C122.165 240.663 122.764 240.85 123.474 240.85C124.211 240.85 124.827 240.655 125.322 240.265C125.817 239.869 126.191 239.332 126.444 238.656C126.702 237.979 126.832 237.218 126.832 236.371C126.832 235.535 126.705 234.784 126.452 234.118C126.205 233.453 125.831 232.928 125.33 232.543C124.835 232.158 124.216 231.965 123.474 231.965C122.759 231.965 122.154 232.149 121.659 232.518C121.169 232.886 120.798 233.401 120.545 234.061C120.292 234.721 120.166 235.491 120.166 236.371ZM135.775 242.987C134.972 242.987 134.246 242.839 133.597 242.542C132.948 242.239 132.433 241.802 132.054 241.23C131.68 240.658 131.493 239.957 131.493 239.126C131.493 238.411 131.63 237.823 131.905 237.361C132.18 236.899 132.552 236.533 133.019 236.263C133.487 235.994 134.009 235.79 134.587 235.653C135.164 235.515 135.753 235.411 136.352 235.339C137.111 235.251 137.727 235.18 138.2 235.125C138.673 235.064 139.017 234.968 139.232 234.836C139.446 234.704 139.553 234.49 139.553 234.193V234.135C139.553 233.414 139.35 232.856 138.943 232.46C138.541 232.064 137.942 231.866 137.144 231.866C136.314 231.866 135.659 232.05 135.181 232.419C134.708 232.782 134.38 233.186 134.199 233.632L131.881 233.104C132.156 232.334 132.557 231.712 133.085 231.239C133.619 230.761 134.232 230.414 134.925 230.2C135.618 229.98 136.347 229.87 137.111 229.87C137.617 229.87 138.154 229.93 138.72 230.051C139.292 230.167 139.826 230.381 140.321 230.695C140.821 231.008 141.231 231.456 141.55 232.039C141.869 232.617 142.028 233.368 142.028 234.292V242.707H139.619V240.974H139.52C139.361 241.293 139.122 241.607 138.803 241.915C138.484 242.223 138.074 242.478 137.573 242.682C137.073 242.885 136.473 242.987 135.775 242.987ZM136.311 241.007C136.993 241.007 137.576 240.872 138.06 240.603C138.55 240.333 138.921 239.981 139.174 239.547C139.432 239.107 139.562 238.637 139.562 238.136V236.503C139.474 236.591 139.303 236.673 139.05 236.75C138.803 236.822 138.519 236.885 138.2 236.94C137.881 236.989 137.57 237.036 137.268 237.08C136.965 237.119 136.712 237.152 136.509 237.179C136.03 237.24 135.593 237.341 135.197 237.484C134.807 237.627 134.493 237.834 134.257 238.103C134.026 238.367 133.91 238.719 133.91 239.159C133.91 239.77 134.136 240.232 134.587 240.545C135.038 240.853 135.612 241.007 136.311 241.007ZM154.81 233.128L152.574 233.524C152.48 233.238 152.332 232.966 152.128 232.708C151.93 232.449 151.661 232.237 151.32 232.072C150.979 231.907 150.553 231.825 150.041 231.825C149.343 231.825 148.76 231.982 148.292 232.295C147.825 232.603 147.591 233.002 147.591 233.491C147.591 233.915 147.748 234.256 148.061 234.514C148.375 234.773 148.881 234.985 149.579 235.15L151.592 235.612C152.758 235.881 153.627 236.296 154.199 236.857C154.771 237.418 155.057 238.147 155.057 239.044C155.057 239.803 154.837 240.479 154.397 241.073C153.963 241.662 153.355 242.124 152.574 242.459C151.798 242.795 150.899 242.962 149.876 242.962C148.457 242.962 147.299 242.66 146.403 242.055C145.506 241.444 144.956 240.578 144.753 239.456L147.137 239.093C147.286 239.715 147.591 240.185 148.053 240.504C148.515 240.817 149.117 240.974 149.86 240.974C150.668 240.974 151.314 240.806 151.798 240.471C152.282 240.13 152.524 239.715 152.524 239.225C152.524 238.829 152.376 238.496 152.079 238.227C151.787 237.957 151.339 237.754 150.734 237.616L148.589 237.146C147.407 236.877 146.532 236.448 145.966 235.859C145.405 235.271 145.124 234.525 145.124 233.623C145.124 232.875 145.333 232.221 145.751 231.66C146.169 231.099 146.747 230.662 147.484 230.348C148.221 230.029 149.065 229.87 150.016 229.87C151.386 229.87 152.464 230.167 153.251 230.761C154.037 231.349 154.557 232.138 154.81 233.128ZM163.685 230.035V232.015H156.763V230.035H163.685ZM158.619 226.998H161.086V238.986C161.086 239.464 161.158 239.825 161.301 240.067C161.444 240.303 161.628 240.465 161.853 240.553C162.084 240.636 162.335 240.677 162.604 240.677C162.802 240.677 162.975 240.663 163.124 240.636C163.272 240.608 163.388 240.586 163.47 240.57L163.916 242.608C163.773 242.663 163.569 242.718 163.305 242.773C163.041 242.833 162.711 242.866 162.315 242.872C161.666 242.883 161.061 242.767 160.5 242.525C159.939 242.283 159.486 241.909 159.139 241.403C158.793 240.897 158.619 240.262 158.619 239.497V226.998ZM178.411 242.938C177.278 242.938 176.266 242.742 175.375 242.352C174.49 241.961 173.788 241.42 173.271 240.727C172.76 240.028 172.485 239.22 172.446 238.301H175.037C175.07 238.802 175.238 239.236 175.54 239.605C175.848 239.968 176.25 240.248 176.745 240.446C177.24 240.644 177.79 240.743 178.395 240.743C179.06 240.743 179.649 240.628 180.16 240.397C180.677 240.166 181.082 239.844 181.373 239.431C181.665 239.013 181.81 238.532 181.81 237.988C181.81 237.421 181.665 236.923 181.373 236.494C181.087 236.06 180.666 235.719 180.111 235.471C179.561 235.224 178.895 235.1 178.114 235.1H176.687V233.021H178.114C178.741 233.021 179.291 232.908 179.764 232.683C180.243 232.457 180.617 232.144 180.886 231.742C181.156 231.335 181.291 230.86 181.291 230.315C181.291 229.793 181.172 229.339 180.936 228.954C180.705 228.563 180.375 228.258 179.946 228.038C179.522 227.818 179.022 227.708 178.444 227.708C177.894 227.708 177.38 227.81 176.901 228.013C176.428 228.211 176.043 228.497 175.746 228.871C175.449 229.24 175.29 229.683 175.268 230.2H172.801C172.829 229.287 173.098 228.483 173.61 227.79C174.127 227.097 174.809 226.556 175.656 226.165C176.503 225.775 177.443 225.579 178.477 225.579C179.561 225.579 180.496 225.791 181.282 226.215C182.074 226.633 182.685 227.191 183.114 227.889C183.548 228.588 183.763 229.353 183.757 230.183C183.763 231.129 183.499 231.932 182.965 232.592C182.437 233.252 181.733 233.695 180.853 233.92V234.052C181.975 234.223 182.844 234.668 183.46 235.389C184.082 236.109 184.39 237.003 184.384 238.07C184.39 239 184.131 239.833 183.609 240.57C183.092 241.307 182.385 241.887 181.489 242.311C180.592 242.729 179.566 242.938 178.411 242.938ZM193.385 242.987C192.082 242.982 190.968 242.638 190.044 241.956C189.12 241.274 188.413 240.281 187.924 238.978C187.434 237.674 187.189 236.104 187.189 234.267C187.189 232.435 187.434 230.871 187.924 229.573C188.419 228.274 189.128 227.284 190.052 226.602C190.982 225.92 192.093 225.579 193.385 225.579C194.678 225.579 195.786 225.923 196.71 226.611C197.634 227.293 198.341 228.283 198.83 229.581C199.325 230.873 199.573 232.435 199.573 234.267C199.573 236.109 199.328 237.682 198.839 238.986C198.349 240.284 197.642 241.277 196.718 241.964C195.794 242.646 194.683 242.987 193.385 242.987ZM193.385 240.784C194.529 240.784 195.423 240.226 196.066 239.11C196.715 237.993 197.04 236.379 197.04 234.267C197.04 232.864 196.891 231.679 196.594 230.711C196.303 229.738 195.882 229 195.332 228.5C194.788 227.994 194.139 227.741 193.385 227.741C192.247 227.741 191.353 228.302 190.704 229.424C190.055 230.546 189.728 232.16 189.722 234.267C189.722 235.675 189.868 236.866 190.159 237.839C190.456 238.807 190.877 239.541 191.422 240.042C191.966 240.537 192.621 240.784 193.385 240.784ZM213.425 242.954C212.402 242.954 211.489 242.693 210.686 242.17C209.888 241.642 209.261 240.892 208.805 239.918C208.354 238.939 208.128 237.765 208.128 236.395C208.128 235.026 208.356 233.854 208.813 232.881C209.275 231.907 209.907 231.162 210.71 230.645C211.513 230.128 212.424 229.87 213.441 229.87C214.228 229.87 214.86 230.002 215.339 230.266C215.823 230.524 216.197 230.827 216.461 231.173C216.73 231.52 216.939 231.825 217.088 232.089H217.236V225.81H219.703V242.707H217.294V240.735H217.088C216.939 241.004 216.725 241.312 216.444 241.659C216.169 242.005 215.79 242.308 215.306 242.566C214.822 242.825 214.195 242.954 213.425 242.954ZM213.969 240.85C214.679 240.85 215.278 240.663 215.768 240.289C216.263 239.91 216.637 239.385 216.89 238.714C217.148 238.043 217.277 237.262 217.277 236.371C217.277 235.491 217.151 234.721 216.898 234.061C216.645 233.401 216.274 232.886 215.784 232.518C215.295 232.149 214.69 231.965 213.969 231.965C213.227 231.965 212.608 232.158 212.113 232.543C211.618 232.928 211.244 233.453 210.991 234.118C210.743 234.784 210.62 235.535 210.62 236.371C210.62 237.218 210.746 237.979 210.999 238.656C211.252 239.332 211.626 239.869 212.121 240.265C212.622 240.655 213.238 240.85 213.969 240.85ZM226.912 242.987C226.109 242.987 225.383 242.839 224.733 242.542C224.084 242.239 223.57 241.802 223.191 241.23C222.817 240.658 222.63 239.957 222.63 239.126C222.63 238.411 222.767 237.823 223.042 237.361C223.317 236.899 223.688 236.533 224.156 236.263C224.623 235.994 225.146 235.79 225.724 235.653C226.301 235.515 226.89 235.411 227.489 235.339C228.248 235.251 228.864 235.18 229.337 235.125C229.81 235.064 230.154 234.968 230.368 234.836C230.583 234.704 230.69 234.49 230.69 234.193V234.135C230.69 233.414 230.487 232.856 230.08 232.46C229.678 232.064 229.079 231.866 228.281 231.866C227.451 231.866 226.796 232.05 226.318 232.419C225.845 232.782 225.517 233.186 225.336 233.632L223.017 233.104C223.292 232.334 223.694 231.712 224.222 231.239C224.755 230.761 225.369 230.414 226.062 230.2C226.755 229.98 227.484 229.87 228.248 229.87C228.754 229.87 229.29 229.93 229.857 230.051C230.429 230.167 230.962 230.381 231.457 230.695C231.958 231.008 232.368 231.456 232.687 232.039C233.006 232.617 233.165 233.368 233.165 234.292V242.707H230.756V240.974H230.657C230.498 241.293 230.258 241.607 229.939 241.915C229.62 242.223 229.211 242.478 228.71 242.682C228.21 242.885 227.61 242.987 226.912 242.987ZM227.448 241.007C228.13 241.007 228.713 240.872 229.197 240.603C229.686 240.333 230.058 239.981 230.311 239.547C230.569 239.107 230.698 238.637 230.698 238.136V236.503C230.61 236.591 230.44 236.673 230.187 236.75C229.939 236.822 229.656 236.885 229.337 236.94C229.018 236.989 228.707 237.036 228.405 237.08C228.102 237.119 227.849 237.152 227.646 237.179C227.167 237.24 226.73 237.341 226.334 237.484C225.944 237.627 225.63 237.834 225.394 238.103C225.163 238.367 225.047 238.719 225.047 239.159C225.047 239.77 225.273 240.232 225.724 240.545C226.175 240.853 226.749 241.007 227.448 241.007ZM237.556 247.459C237.188 247.459 236.852 247.428 236.55 247.368C236.247 247.313 236.022 247.252 235.873 247.186L236.467 245.165C236.918 245.286 237.32 245.338 237.672 245.322C238.024 245.305 238.334 245.173 238.604 244.926C238.879 244.678 239.121 244.274 239.33 243.713L239.635 242.872L234.999 230.035H237.639L240.848 239.869H240.98L244.189 230.035H246.838L241.615 244.398C241.373 245.058 241.065 245.616 240.691 246.073C240.317 246.535 239.872 246.881 239.355 247.112C238.838 247.343 238.238 247.459 237.556 247.459ZM258.652 233.128L256.416 233.524C256.322 233.238 256.174 232.966 255.97 232.708C255.772 232.449 255.503 232.237 255.162 232.072C254.821 231.907 254.395 231.825 253.883 231.825C253.185 231.825 252.602 231.982 252.134 232.295C251.667 232.603 251.433 233.002 251.433 233.491C251.433 233.915 251.59 234.256 251.903 234.514C252.217 234.773 252.723 234.985 253.421 235.15L255.434 235.612C256.6 235.881 257.469 236.296 258.041 236.857C258.613 237.418 258.899 238.147 258.899 239.044C258.899 239.803 258.679 240.479 258.239 241.073C257.805 241.662 257.197 242.124 256.416 242.459C255.64 242.795 254.741 242.962 253.718 242.962C252.299 242.962 251.141 242.66 250.245 242.055C249.348 241.444 248.798 240.578 248.595 239.456L250.979 239.093C251.128 239.715 251.433 240.185 251.895 240.504C252.357 240.817 252.959 240.974 253.702 240.974C254.51 240.974 255.156 240.806 255.64 240.471C256.124 240.13 256.366 239.715 256.366 239.225C256.366 238.829 256.218 238.496 255.921 238.227C255.629 237.957 255.181 237.754 254.576 237.616L252.431 237.146C251.249 236.877 250.374 236.448 249.808 235.859C249.247 235.271 248.966 234.525 248.966 233.623C248.966 232.875 249.175 232.221 249.593 231.66C250.011 231.099 250.589 230.662 251.326 230.348C252.063 230.029 252.907 229.87 253.858 229.87C255.228 229.87 256.306 230.167 257.092 230.761C257.879 231.349 258.399 232.138 258.652 233.128Z" fill="#999999"/>
<rect x="47.1191" y="46.4646" width="73.5512" height="30.6378" rx="15.3189" fill="#F3F9FF"/>
<path d="M61.823 68.7834V54.301H64.4465V60.432H71.1574V54.301H73.788V68.7834H71.1574V62.6312H64.4465V68.7834H61.823ZM79.2649 54.301V68.7834H76.6413V54.301H79.2649ZM81.4694 56.5002V54.301H93.0243V56.5002H88.548V68.7834H85.9457V56.5002H81.4694ZM103.122 58.2822C103.056 57.6647 102.778 57.1838 102.288 56.8397C101.802 56.4955 101.171 56.3234 100.393 56.3234C99.8459 56.3234 99.3768 56.4059 98.9856 56.5709C98.5943 56.7359 98.2949 56.9599 98.0875 57.2427C97.88 57.5256 97.774 57.8485 97.7693 58.2115C97.7693 58.5132 97.8376 58.7749 97.9743 58.9965C98.1158 59.218 98.3067 59.4066 98.5471 59.5622C98.7876 59.713 99.0539 59.8403 99.3462 59.9441C99.6385 60.0478 99.9331 60.135 100.23 60.2057L101.588 60.5451C102.135 60.6724 102.66 60.8445 103.165 61.0614C103.674 61.2782 104.129 61.5516 104.53 61.8816C104.935 62.2117 105.256 62.61 105.491 63.0767C105.727 63.5435 105.845 64.0903 105.845 64.7173C105.845 65.5659 105.628 66.3131 105.194 66.959C104.761 67.6001 104.134 68.1022 103.313 68.4652C102.498 68.8235 101.51 69.0027 100.35 69.0027C99.2236 69.0027 98.2454 68.8282 97.4157 68.4794C96.5907 68.1305 95.9448 67.6214 95.4781 66.9519C95.0161 66.2825 94.7662 65.4669 94.7285 64.5052H97.3096C97.3473 65.0096 97.5029 65.4292 97.7763 65.7639C98.0498 66.0986 98.4057 66.3485 98.8441 66.5135C99.2873 66.6785 99.7823 66.761 100.329 66.761C100.9 66.761 101.399 66.6761 101.828 66.5064C102.262 66.332 102.601 66.0916 102.847 65.7851C103.092 65.474 103.217 65.111 103.221 64.6961C103.217 64.319 103.106 64.0078 102.889 63.7627C102.672 63.5128 102.368 63.3054 101.977 63.1404C101.59 62.9707 101.138 62.8198 100.619 62.6878L98.9714 62.2635C97.7787 61.9571 96.8358 61.4927 96.1428 60.8704C95.4545 60.2434 95.1104 59.4113 95.1104 58.3742C95.1104 57.5209 95.3414 56.7737 95.8034 56.1325C96.2701 55.4914 96.9042 54.994 97.7056 54.6404C98.5071 54.2821 99.4146 54.103 100.428 54.103C101.456 54.103 102.356 54.2821 103.129 54.6404C103.907 54.994 104.518 55.4866 104.961 56.1184C105.404 56.7454 105.633 57.4667 105.647 58.2822H103.122Z" fill="#0B8AFF"/>
<rect x="47.1191" y="525.216" width="19.5987" height="79.6535" rx="6.6378" fill="#141D40"/>
<rect x="75.0146" y="525.216" width="19.5987" height="79.6535" rx="6.6378" fill="#141D40"/>
<rect x="102.911" y="525.216" width="19.5987" height="79.6535" rx="6.6378" fill="#141D40"/>
<rect x="130.807" y="525.216" width="19.5987" height="79.6535" rx="6.6378" fill="#141D40"/>
<rect x="158.703" y="525.216" width="19.5987" height="79.6535" rx="6.6378" fill="#141D40"/>
<rect x="186.599" y="525.216" width="19.5987" height="79.6535" rx="6.6378" fill="#141D40"/>
<rect x="214.495" y="525.216" width="19.5987" height="79.6535" rx="6.6378" fill="#141D40"/>
<rect x="242.391" y="525.216" width="19.5987" height="79.6535" rx="6.6378" fill="#141D40"/>
<rect x="270.287" y="525.216" width="19.5987" height="79.6535" rx="6.6378" fill="#141D40"/>
<rect x="298.183" y="525.216" width="19.5987" height="79.6535" rx="6.6378" fill="#DADEE4"/>
<rect x="326.079" y="512.77" width="19.5987" height="104.545" rx="6.6378" fill="#DADEE4"/>
<rect x="353.975" y="525.216" width="19.5987" height="79.6535" rx="6.6378" fill="#DADEE4"/>
<rect x="381.871" y="525.216" width="19.5987" height="79.6535" rx="6.6378" fill="#DADEE4"/>
<rect x="409.767" y="525.216" width="19.5987" height="79.6535" rx="6.6378" fill="#DADEE4"/>
<rect x="437.663" y="525.216" width="19.5987" height="79.6535" rx="6.6378" fill="#DADEE4"/>
<rect x="465.559" y="525.216" width="19.5987" height="79.6535" rx="6.6378" fill="#DADEE4"/>
<rect x="493.455" y="525.216" width="19.5987" height="79.6535" rx="6.6378" fill="#DADEE4"/>
<rect x="521.351" y="525.216" width="19.5987" height="79.6535" rx="6.6378" fill="#DADEE4"/>
<rect x="549.247" y="525.216" width="19.5987" height="79.6535" rx="6.6378" fill="#DADEE4"/>
<g opacity="0.5" clip-path="url(#clip0_1321_74)">
<path opacity="0.9" d="M53.7593 480.603C52.5949 480.603 51.5954 480.308 50.761 479.719C49.9312 479.125 49.2925 478.269 48.8446 477.152C48.4014 476.03 48.1799 474.679 48.1799 473.1C48.1846 471.52 48.4085 470.177 48.8517 469.069C49.2995 467.956 49.9383 467.108 50.768 466.523C51.6025 465.939 52.5996 465.646 53.7593 465.646C54.919 465.646 55.9161 465.939 56.7505 466.523C57.585 467.108 58.2238 467.956 58.6669 469.069C59.1148 470.182 59.3387 471.525 59.3387 473.1C59.3387 474.684 59.1148 476.037 58.6669 477.159C58.2238 478.276 57.585 479.129 56.7505 479.719C55.9208 480.308 54.9237 480.603 53.7593 480.603ZM53.7593 478.389C54.6644 478.389 55.3787 477.944 55.902 477.053C56.43 476.157 56.694 474.839 56.694 473.1C56.694 471.949 56.5738 470.983 56.3333 470.2C56.0929 469.418 55.7535 468.828 55.315 468.432C54.8766 468.032 54.358 467.831 53.7593 467.831C52.8589 467.831 52.147 468.279 51.6237 469.175C51.1004 470.066 50.8364 471.374 50.8317 473.1C50.827 474.255 50.9425 475.226 51.1782 476.013C51.4186 476.8 51.7581 477.394 52.1965 477.795C52.6349 478.191 53.1559 478.389 53.7593 478.389Z" fill="#141D40"/>
<path opacity="0.9" d="M303.067 480.525C302.124 480.525 301.281 480.348 300.536 479.994C299.791 479.636 299.199 479.146 298.761 478.524C298.327 477.901 298.096 477.189 298.068 476.388H300.613C300.661 476.982 300.918 477.468 301.384 477.845C301.851 478.217 302.412 478.403 303.067 478.403C303.581 478.403 304.038 478.285 304.439 478.05C304.84 477.814 305.156 477.486 305.387 477.067C305.618 476.647 305.731 476.169 305.726 475.631C305.731 475.084 305.615 474.599 305.38 474.175C305.144 473.75 304.821 473.418 304.411 473.177C304.001 472.932 303.529 472.81 302.997 472.81C302.563 472.805 302.136 472.885 301.717 473.05C301.297 473.215 300.965 473.432 300.72 473.701L298.351 473.312L299.107 465.844H307.508V468.036H301.278L300.861 471.876H300.946C301.215 471.56 301.594 471.299 302.084 471.091C302.575 470.879 303.112 470.773 303.697 470.773C304.574 470.773 305.356 470.981 306.044 471.395C306.733 471.806 307.275 472.371 307.671 473.093C308.067 473.814 308.265 474.639 308.265 475.568C308.265 476.525 308.043 477.378 307.6 478.128C307.162 478.872 306.551 479.459 305.769 479.888C304.991 480.313 304.09 480.525 303.067 480.525ZM315.987 480.603C314.823 480.603 313.823 480.308 312.989 479.719C312.159 479.125 311.52 478.269 311.072 477.152C310.629 476.03 310.408 474.679 310.408 473.1C310.412 471.52 310.636 470.177 311.079 469.069C311.527 467.956 312.166 467.108 312.996 466.523C313.83 465.939 314.827 465.646 315.987 465.646C317.147 465.646 318.144 465.939 318.978 466.523C319.813 467.108 320.451 467.956 320.895 469.069C321.342 470.182 321.566 471.525 321.566 473.1C321.566 474.684 321.342 476.037 320.895 477.159C320.451 478.276 319.813 479.129 318.978 479.719C318.148 480.308 317.151 480.603 315.987 480.603ZM315.987 478.389C316.892 478.389 317.606 477.944 318.13 477.053C318.658 476.157 318.922 474.839 318.922 473.1C318.922 471.949 318.801 470.983 318.561 470.2C318.321 469.418 317.981 468.828 317.543 468.432C317.104 468.032 316.586 467.831 315.987 467.831C315.087 467.831 314.375 468.279 313.851 469.175C313.328 470.066 313.064 471.374 313.059 473.1C313.055 474.255 313.17 475.226 313.406 476.013C313.646 476.8 313.986 477.394 314.424 477.795C314.863 478.191 315.384 478.389 315.987 478.389Z" fill="#141D40"/>
<path opacity="0.9" d="M539.891 465.844V480.327H537.267V468.397H537.182L533.795 470.561V468.157L537.394 465.844H539.891ZM548.921 480.603C547.757 480.603 546.757 480.308 545.923 479.719C545.093 479.125 544.454 478.269 544.006 477.152C543.563 476.03 543.342 474.679 543.342 473.1C543.346 471.52 543.57 470.177 544.013 469.069C544.461 467.956 545.1 467.108 545.93 466.523C546.764 465.939 547.761 465.646 548.921 465.646C550.081 465.646 551.078 465.939 551.912 466.523C552.747 467.108 553.385 467.956 553.829 469.069C554.276 470.182 554.5 471.525 554.5 473.1C554.5 474.684 554.276 476.037 553.829 477.159C553.385 478.276 552.747 479.129 551.912 479.719C551.082 480.308 550.085 480.603 548.921 480.603ZM548.921 478.389C549.826 478.389 550.54 477.944 551.064 477.053C551.592 476.157 551.856 474.839 551.856 473.1C551.856 471.949 551.735 470.983 551.495 470.2C551.255 469.418 550.915 468.828 550.477 468.432C550.038 468.032 549.52 467.831 548.921 467.831C548.021 467.831 547.309 468.279 546.785 469.175C546.262 470.066 545.998 471.374 545.993 473.1C545.989 474.255 546.104 475.226 546.34 476.013C546.58 476.8 546.92 477.394 547.358 477.795C547.797 478.191 548.318 478.389 548.921 478.389ZM562.203 480.603C561.039 480.603 560.039 480.308 559.205 479.719C558.375 479.125 557.736 478.269 557.288 477.152C556.845 476.03 556.624 474.679 556.624 473.1C556.628 471.52 556.852 470.177 557.295 469.069C557.743 467.956 558.382 467.108 559.212 466.523C560.046 465.939 561.043 465.646 562.203 465.646C563.363 465.646 564.36 465.939 565.194 466.523C566.029 467.108 566.668 467.956 567.111 469.069C567.559 470.182 567.782 471.525 567.782 473.1C567.782 474.684 567.559 476.037 567.111 477.159C566.668 478.276 566.029 479.129 565.194 479.719C564.365 480.308 563.367 480.603 562.203 480.603ZM562.203 478.389C563.108 478.389 563.822 477.944 564.346 477.053C564.874 476.157 565.138 474.839 565.138 473.1C565.138 471.949 565.018 470.983 564.777 470.2C564.537 469.418 564.197 468.828 563.759 468.432C563.32 468.032 562.802 467.831 562.203 467.831C561.303 467.831 560.591 468.279 560.067 469.175C559.544 470.066 559.28 471.374 559.275 473.1C559.271 474.255 559.386 475.226 559.622 476.013C559.862 476.8 560.202 477.394 560.64 477.795C561.079 478.191 561.6 478.389 562.203 478.389Z" fill="#141D40"/>
</g>
<circle cx="53.7569" cy="784.535" r="6.6378" fill="#0B8AFF"/>
<path d="M83.1599 780.857C83.0845 780.188 82.7733 779.669 82.2265 779.302C81.6796 778.929 80.9913 778.743 80.1616 778.743C79.5676 778.743 79.0537 778.837 78.62 779.026C78.1863 779.21 77.8492 779.464 77.6088 779.79C77.373 780.11 77.2552 780.476 77.2552 780.886C77.2552 781.23 77.3353 781.527 77.4956 781.777C77.6606 782.027 77.8751 782.236 78.1391 782.406C78.4078 782.571 78.6954 782.71 79.0018 782.823C79.3083 782.932 79.6029 783.021 79.8858 783.092L81.3001 783.46C81.7621 783.573 82.2359 783.726 82.7215 783.919C83.207 784.113 83.6573 784.367 84.0721 784.683C84.487 784.999 84.8217 785.39 85.0763 785.857C85.3356 786.324 85.4652 786.882 85.4652 787.533C85.4652 788.353 85.2531 789.082 84.8288 789.718C84.4092 790.354 83.7987 790.857 82.9973 791.224C82.2005 791.592 81.2364 791.776 80.105 791.776C79.0207 791.776 78.0825 791.604 77.2905 791.26C76.4985 790.915 75.8786 790.428 75.4307 789.796C74.9829 789.159 74.7354 788.405 74.6882 787.533H76.8804C76.9228 788.056 77.0925 788.492 77.3895 788.841C77.6913 789.185 78.0755 789.442 78.5422 789.612C79.0136 789.777 79.5299 789.859 80.0909 789.859C80.7084 789.859 81.2577 789.763 81.7385 789.57C82.2241 789.372 82.606 789.098 82.8841 788.749C83.1623 788.396 83.3013 787.983 83.3013 787.512C83.3013 787.083 83.1788 786.731 82.9336 786.458C82.6932 786.185 82.3655 785.958 81.9507 785.779C81.5405 785.6 81.0762 785.442 80.5576 785.305L78.8463 784.839C77.6865 784.523 76.7672 784.058 76.0884 783.446C75.4142 782.833 75.0772 782.022 75.0772 781.013C75.0772 780.179 75.3034 779.45 75.756 778.828C76.2086 778.206 76.8215 777.722 77.5946 777.378C78.3678 777.029 79.2399 776.855 80.2111 776.855C81.1917 776.855 82.0567 777.027 82.8063 777.371C83.5606 777.715 84.1546 778.189 84.5883 778.793C85.0221 779.391 85.2484 780.08 85.2672 780.857H83.1599ZM88.0764 791.535V777.053H97.1562V778.934H90.2615V783.347H96.6824V785.221H90.2615V789.654H97.2411V791.535H88.0764ZM100.075 791.535V777.053H109.155V778.934H102.26V783.347H108.681V785.221H102.26V789.654H109.24V791.535H100.075ZM118.567 791.535H116.248L121.459 777.053H123.984L129.195 791.535H126.876L122.782 779.684H122.668L118.567 791.535ZM118.956 785.864H126.48V787.703H118.956V785.864ZM131.287 791.535V777.053H133.472V789.654H140.034V791.535H131.287ZM142.527 791.535V777.053H144.712V789.654H151.274V791.535H142.527Z" fill="#0B8AFF"/>
<defs>
<clipPath id="clip0_1321_74">
<rect width="521.726" height="24.8917" fill="white" transform="translate(47.1191 461.327)"/>
</clipPath>
</defs>
</svg>
