<svg width="751" height="617" viewBox="0 0 751 617" fill="none" xmlns="http://www.w3.org/2000/svg">
<rect width="750.316" height="616" transform="translate(0 0.111328)" fill="white"/>
<path d="M80.6515 128.401H75.2568L87.3785 94.7167H93.2502L105.372 128.401H99.9772L90.4542 100.835H90.191L80.6515 128.401ZM81.5561 115.21H99.0561V119.486H81.5561V115.21ZM119.15 128.911C116.704 128.911 114.599 128.357 112.834 127.25C111.079 126.131 109.731 124.591 108.788 122.628C107.845 120.665 107.373 118.417 107.373 115.884C107.373 113.319 107.856 111.054 108.821 109.092C109.786 107.118 111.145 105.577 112.9 104.47C114.654 103.363 116.721 102.809 119.1 102.809C121.019 102.809 122.73 103.165 124.232 103.878C125.734 104.58 126.946 105.566 127.867 106.838C128.799 108.11 129.352 109.596 129.528 111.296H124.742C124.478 110.111 123.875 109.092 122.932 108.236C122 107.381 120.75 106.954 119.182 106.954C117.812 106.954 116.611 107.315 115.58 108.039C114.561 108.752 113.766 109.771 113.196 111.098C112.625 112.414 112.34 113.971 112.34 115.769C112.34 117.611 112.62 119.201 113.179 120.539C113.738 121.877 114.528 122.913 115.548 123.648C116.578 124.382 117.79 124.75 119.182 124.75C120.114 124.75 120.959 124.58 121.715 124.24C122.483 123.889 123.124 123.39 123.64 122.743C124.166 122.096 124.533 121.318 124.742 120.407H129.528C129.352 122.041 128.821 123.5 127.932 124.782C127.044 126.065 125.855 127.074 124.363 127.809C122.883 128.543 121.145 128.911 119.15 128.911ZM145.653 103.138V107.085H131.854V103.138H145.653ZM135.555 97.0851H140.472V120.983C140.472 121.937 140.615 122.655 140.9 123.138C141.185 123.609 141.552 123.933 142.002 124.108C142.463 124.273 142.961 124.355 143.499 124.355C143.893 124.355 144.239 124.327 144.535 124.273C144.831 124.218 145.061 124.174 145.226 124.141L146.114 128.204C145.829 128.313 145.423 128.423 144.897 128.532C144.37 128.653 143.713 128.719 142.923 128.73C141.629 128.752 140.423 128.521 139.305 128.039C138.186 127.557 137.282 126.811 136.591 125.802C135.9 124.793 135.555 123.527 135.555 122.003V97.0851ZM150.167 128.401V103.138H155.085V128.401H150.167ZM152.651 99.2397C151.795 99.2397 151.061 98.9546 150.447 98.3844C149.844 97.8033 149.542 97.1125 149.542 96.3121C149.542 95.5007 149.844 94.8099 150.447 94.2397C151.061 93.6586 151.795 93.368 152.651 93.368C153.506 93.368 154.235 93.6586 154.838 94.2397C155.452 94.8099 155.759 95.5007 155.759 96.3121C155.759 97.1125 155.452 97.8033 154.838 98.3844C154.235 98.9546 153.506 99.2397 152.651 99.2397ZM182.386 103.138L173.225 128.401H167.962L158.784 103.138H164.064L170.462 122.579H170.725L177.107 103.138H182.386ZM186.082 128.401V103.138H190.999V128.401H186.082ZM188.565 99.2397C187.71 99.2397 186.975 98.9546 186.361 98.3844C185.758 97.8033 185.457 97.1125 185.457 96.3121C185.457 95.5007 185.758 94.8099 186.361 94.2397C186.975 93.6586 187.71 93.368 188.565 93.368C189.42 93.368 190.15 93.6586 190.753 94.2397C191.367 94.8099 191.674 95.5007 191.674 96.3121C191.674 97.1125 191.367 97.8033 190.753 98.3844C190.15 98.9546 189.42 99.2397 188.565 99.2397ZM208.482 103.138V107.085H194.682V103.138H208.482ZM198.383 97.0851H203.301V120.983C203.301 121.937 203.443 122.655 203.728 123.138C204.014 123.609 204.381 123.933 204.83 124.108C205.291 124.273 205.79 124.355 206.327 124.355C206.722 124.355 207.067 124.327 207.363 124.273C207.659 124.218 207.89 124.174 208.054 124.141L208.942 128.204C208.657 128.313 208.252 128.423 207.725 128.532C207.199 128.653 206.541 128.719 205.752 128.73C204.458 128.752 203.252 128.521 202.133 128.039C201.015 127.557 200.11 126.811 199.419 125.802C198.728 124.793 198.383 123.527 198.383 122.003V97.0851ZM216.104 137.875C215.369 137.875 214.7 137.814 214.097 137.694C213.494 137.584 213.045 137.463 212.749 137.332L213.933 133.302C214.832 133.543 215.632 133.648 216.334 133.615C217.036 133.582 217.656 133.319 218.193 132.825C218.741 132.332 219.224 131.526 219.64 130.407L220.249 128.73L211.005 103.138H216.268L222.666 122.743H222.93L229.328 103.138H234.607L224.196 131.773C223.714 133.088 223.1 134.201 222.354 135.111C221.608 136.032 220.72 136.723 219.69 137.184C218.659 137.644 217.464 137.875 216.104 137.875Z" fill="#141D40"/>
<rect x="430.211" y="75.506" width="244.842" height="71.7895" rx="35.8947" stroke="#DADEE4" stroke-width="2.31579"/>
<path d="M468.961 123.401V99.8219H476.928C478.778 99.8219 480.29 100.156 481.464 100.824C482.646 101.484 483.521 102.378 484.089 103.506C484.657 104.634 484.941 105.893 484.941 107.282C484.941 108.672 484.657 109.934 484.089 111.07C483.529 112.206 482.661 113.112 481.487 113.787C480.313 114.455 478.808 114.789 476.974 114.789H471.263V112.256H476.882C478.148 112.256 479.165 112.037 479.933 111.6C480.7 111.162 481.257 110.571 481.602 109.827C481.955 109.075 482.132 108.227 482.132 107.282C482.132 106.338 481.955 105.494 481.602 104.75C481.257 104.005 480.696 103.422 479.921 103C479.146 102.57 478.118 102.355 476.836 102.355H471.816V123.401H468.961ZM494.376 123.815C493.255 123.815 492.238 123.604 491.325 123.182C490.412 122.752 489.686 122.134 489.149 121.329C488.612 120.515 488.343 119.532 488.343 118.381C488.343 117.368 488.543 116.547 488.942 115.917C489.341 115.28 489.874 114.781 490.542 114.421C491.21 114.06 491.947 113.791 492.753 113.615C493.566 113.43 494.384 113.285 495.205 113.177C496.28 113.039 497.151 112.935 497.818 112.866C498.494 112.79 498.985 112.663 499.292 112.486C499.607 112.31 499.764 112.003 499.764 111.565V111.473C499.764 110.337 499.453 109.455 498.832 108.825C498.218 108.196 497.285 107.881 496.034 107.881C494.737 107.881 493.72 108.165 492.983 108.733C492.246 109.301 491.728 109.907 491.429 110.552L488.85 109.631C489.31 108.557 489.924 107.72 490.692 107.121C491.467 106.515 492.311 106.093 493.225 105.855C494.146 105.609 495.051 105.486 495.942 105.486C496.51 105.486 497.162 105.555 497.899 105.694C498.644 105.824 499.361 106.097 500.052 106.511C500.75 106.926 501.33 107.551 501.791 108.388C502.251 109.224 502.481 110.345 502.481 111.75V123.401H499.764V121.006H499.626C499.442 121.39 499.135 121.801 498.705 122.238C498.275 122.676 497.703 123.048 496.99 123.355C496.276 123.662 495.405 123.815 494.376 123.815ZM494.791 121.375C495.865 121.375 496.771 121.163 497.508 120.741C498.252 120.319 498.812 119.774 499.189 119.106C499.572 118.439 499.764 117.736 499.764 117V114.513C499.649 114.651 499.396 114.778 499.004 114.893C498.621 115 498.175 115.096 497.669 115.18C497.17 115.257 496.682 115.326 496.207 115.388C495.738 115.441 495.358 115.488 495.067 115.526C494.361 115.618 493.701 115.768 493.087 115.975C492.48 116.174 491.989 116.478 491.613 116.884C491.244 117.284 491.06 117.829 491.06 118.519C491.06 119.463 491.409 120.177 492.108 120.661C492.814 121.137 493.708 121.375 494.791 121.375ZM510.158 99.8219V123.401H507.441V99.8219H510.158ZM522.318 123.769C520.722 123.769 519.321 123.389 518.116 122.629C516.919 121.87 515.982 120.807 515.307 119.44C514.639 118.074 514.305 116.478 514.305 114.651C514.305 112.809 514.639 111.201 515.307 109.827C515.982 108.453 516.919 107.386 518.116 106.626C519.321 105.866 520.722 105.486 522.318 105.486C523.915 105.486 525.312 105.866 526.509 106.626C527.714 107.386 528.651 108.453 529.318 109.827C529.994 111.201 530.332 112.809 530.332 114.651C530.332 116.478 529.994 118.074 529.318 119.44C528.651 120.807 527.714 121.87 526.509 122.629C525.312 123.389 523.915 123.769 522.318 123.769ZM522.318 121.329C523.531 121.329 524.529 121.018 525.312 120.396C526.095 119.774 526.674 118.957 527.05 117.944C527.426 116.93 527.615 115.833 527.615 114.651C527.615 113.469 527.426 112.367 527.05 111.347C526.674 110.326 526.095 109.501 525.312 108.871C524.529 108.242 523.531 107.927 522.318 107.927C521.106 107.927 520.108 108.242 519.325 108.871C518.542 109.501 517.963 110.326 517.587 111.347C517.21 112.367 517.022 113.469 517.022 114.651C517.022 115.833 517.21 116.93 517.587 117.944C517.963 118.957 518.542 119.774 519.325 120.396C520.108 121.018 521.106 121.329 522.318 121.329ZM544.933 123.401H541.94L550.598 99.8219H553.545L562.203 123.401H559.209L552.163 103.552H551.979L544.933 123.401ZM546.038 114.19H558.104V116.723H546.038V114.19ZM568.224 99.8219V123.401H565.507V99.8219H568.224ZM580.892 105.717V108.019H571.727V105.717H580.892ZM574.398 101.48H577.115V118.335C577.115 119.103 577.227 119.678 577.449 120.062C577.679 120.438 577.971 120.691 578.324 120.822C578.685 120.945 579.065 121.006 579.464 121.006C579.763 121.006 580.009 120.991 580.201 120.96C580.393 120.922 580.546 120.891 580.661 120.868L581.214 123.309C581.03 123.378 580.773 123.447 580.443 123.516C580.113 123.593 579.694 123.631 579.188 123.631C578.42 123.631 577.668 123.466 576.931 123.136C576.202 122.806 575.596 122.303 575.112 121.628C574.636 120.952 574.398 120.1 574.398 119.072V101.48ZM591.973 123.769C590.377 123.769 588.976 123.389 587.771 122.629C586.573 121.87 585.637 120.807 584.962 119.44C584.294 118.074 583.96 116.478 583.96 114.651C583.96 112.809 584.294 111.201 584.962 109.827C585.637 108.453 586.573 107.386 587.771 106.626C588.976 105.866 590.377 105.486 591.973 105.486C593.57 105.486 594.966 105.866 596.164 106.626C597.369 107.386 598.305 108.453 598.973 109.827C599.649 111.201 599.986 112.809 599.986 114.651C599.986 116.478 599.649 118.074 598.973 119.44C598.305 120.807 597.369 121.87 596.164 122.629C594.966 123.389 593.57 123.769 591.973 123.769ZM591.973 121.329C593.186 121.329 594.184 121.018 594.966 120.396C595.749 119.774 596.329 118.957 596.705 117.944C597.081 116.93 597.269 115.833 597.269 114.651C597.269 113.469 597.081 112.367 596.705 111.347C596.329 110.326 595.749 109.501 594.966 108.871C594.184 108.242 593.186 107.927 591.973 107.927C590.76 107.927 589.763 108.242 588.98 108.871C588.197 109.501 587.617 110.326 587.241 111.347C586.865 112.367 586.677 113.469 586.677 114.651C586.677 115.833 586.865 116.93 587.241 117.944C587.617 118.957 588.197 119.774 588.98 120.396C589.763 121.018 590.76 121.329 591.973 121.329Z" fill="#141D40"/>
<path d="M630.466 117.322L640.392 107.085C641.012 106.447 640.636 105.226 639.82 105.226H619.967C619.152 105.226 618.776 106.447 619.396 107.085L629.322 117.322C629.651 117.661 630.137 117.661 630.466 117.322Z" fill="#141D40"/>
<path d="M75.6713 210.986V208.453H93.3555V210.986H85.941V232.032H83.0857V210.986H75.6713ZM101.365 232.401C99.7685 232.401 98.3677 232.021 97.1626 231.261C95.9653 230.501 95.0289 229.438 94.3534 228.072C93.6857 226.705 93.3518 225.109 93.3518 223.282C93.3518 221.44 93.6857 219.832 94.3534 218.458C95.0289 217.084 95.9653 216.017 97.1626 215.258C98.3677 214.498 99.7685 214.118 101.365 214.118C102.961 214.118 104.358 214.498 105.556 215.258C106.761 216.017 107.697 217.084 108.365 218.458C109.04 219.832 109.378 221.44 109.378 223.282C109.378 225.109 109.04 226.705 108.365 228.072C107.697 229.438 106.761 230.501 105.556 231.261C104.358 232.021 102.961 232.401 101.365 232.401ZM101.365 229.96C102.578 229.96 103.575 229.649 104.358 229.027C105.141 228.406 105.721 227.588 106.097 226.575C106.473 225.562 106.661 224.464 106.661 223.282C106.661 222.1 106.473 220.999 106.097 219.978C105.721 218.957 105.141 218.132 104.358 217.503C103.575 216.873 102.578 216.559 101.365 216.559C100.152 216.559 99.1544 216.873 98.3715 217.503C97.5886 218.132 97.0091 218.957 96.633 219.978C96.2569 220.999 96.0689 222.1 96.0689 223.282C96.0689 224.464 96.2569 225.562 96.633 226.575C97.0091 227.588 97.5886 228.406 98.3715 229.027C99.1544 229.649 100.152 229.96 101.365 229.96ZM120.568 214.348V216.651H111.404V214.348H120.568ZM114.075 210.111H116.792V226.966C116.792 227.734 116.903 228.31 117.126 228.693C117.356 229.07 117.648 229.323 118.001 229.453C118.361 229.576 118.741 229.637 119.14 229.637C119.44 229.637 119.685 229.622 119.877 229.591C120.069 229.553 120.223 229.522 120.338 229.499L120.89 231.94C120.706 232.009 120.449 232.078 120.119 232.147C119.789 232.224 119.371 232.262 118.864 232.262C118.097 232.262 117.344 232.097 116.608 231.767C115.878 231.437 115.272 230.935 114.788 230.259C114.313 229.584 114.075 228.732 114.075 227.703V210.111ZM129.211 232.447C128.09 232.447 127.073 232.236 126.16 231.813C125.246 231.384 124.521 230.766 123.984 229.96C123.447 229.146 123.178 228.164 123.178 227.012C123.178 225.999 123.377 225.178 123.777 224.549C124.176 223.912 124.709 223.413 125.377 223.052C126.045 222.691 126.782 222.423 127.587 222.246C128.401 222.062 129.218 221.916 130.04 221.809C131.114 221.67 131.985 221.567 132.653 221.498C133.329 221.421 133.82 221.294 134.127 221.118C134.442 220.941 134.599 220.634 134.599 220.197V220.105C134.599 218.969 134.288 218.086 133.666 217.457C133.052 216.827 132.12 216.512 130.869 216.512C129.572 216.512 128.555 216.796 127.818 217.364C127.081 217.932 126.563 218.539 126.263 219.184L123.684 218.262C124.145 217.188 124.759 216.351 125.527 215.753C126.302 215.146 127.146 214.724 128.059 214.486C128.981 214.241 129.886 214.118 130.777 214.118C131.345 214.118 131.997 214.187 132.734 214.325C133.478 214.455 134.196 214.728 134.887 215.142C135.585 215.557 136.165 216.182 136.625 217.019C137.086 217.856 137.316 218.976 137.316 220.381V232.032H134.599V229.637H134.461C134.277 230.021 133.97 230.432 133.54 230.869C133.11 231.307 132.538 231.679 131.824 231.986C131.11 232.293 130.239 232.447 129.211 232.447ZM129.625 230.006C130.7 230.006 131.606 229.795 132.342 229.373C133.087 228.951 133.647 228.406 134.023 227.738C134.407 227.07 134.599 226.368 134.599 225.631V223.144C134.484 223.282 134.231 223.409 133.839 223.524C133.455 223.631 133.01 223.727 132.504 223.812C132.005 223.889 131.517 223.958 131.041 224.019C130.573 224.073 130.193 224.119 129.902 224.157C129.195 224.249 128.535 224.399 127.921 224.606C127.315 224.806 126.824 225.109 126.448 225.516C126.079 225.915 125.895 226.46 125.895 227.151C125.895 228.095 126.244 228.809 126.943 229.292C127.649 229.768 128.543 230.006 129.625 230.006ZM144.344 208.453V232.032H141.627V208.453H144.344ZM159.859 208.453V232.032H157.142V208.453H159.859ZM171.372 232.401C169.775 232.401 168.374 232.021 167.169 231.261C165.972 230.501 165.036 229.438 164.36 228.072C163.692 226.705 163.358 225.109 163.358 223.282C163.358 221.44 163.692 219.832 164.36 218.458C165.036 217.084 165.972 216.017 167.169 215.258C168.374 214.498 169.775 214.118 171.372 214.118C172.968 214.118 174.365 214.498 175.562 215.258C176.767 216.017 177.704 217.084 178.372 218.458C179.047 219.832 179.385 221.44 179.385 223.282C179.385 225.109 179.047 226.705 178.372 228.072C177.704 229.438 176.767 230.501 175.562 231.261C174.365 232.021 172.968 232.401 171.372 232.401ZM171.372 229.96C172.584 229.96 173.582 229.649 174.365 229.027C175.148 228.406 175.727 227.588 176.104 226.575C176.48 225.562 176.668 224.464 176.668 223.282C176.668 222.1 176.48 220.999 176.104 219.978C175.727 218.957 175.148 218.132 174.365 217.503C173.582 216.873 172.584 216.559 171.372 216.559C170.159 216.559 169.161 216.873 168.378 217.503C167.595 218.132 167.016 218.957 166.64 219.978C166.264 220.999 166.076 222.1 166.076 223.282C166.076 224.464 166.264 225.562 166.64 226.575C167.016 227.588 167.595 228.406 168.378 229.027C169.161 229.649 170.159 229.96 171.372 229.96ZM190.068 232.401C188.41 232.401 186.983 232.009 185.785 231.226C184.588 230.443 183.667 229.365 183.022 227.991C182.377 226.617 182.055 225.048 182.055 223.282C182.055 221.486 182.385 219.901 183.045 218.527C183.713 217.146 184.642 216.067 185.831 215.292C187.029 214.509 188.426 214.118 190.022 214.118C191.266 214.118 192.386 214.348 193.384 214.809C194.382 215.269 195.199 215.914 195.836 216.743C196.473 217.572 196.869 218.539 197.022 219.644H194.305C194.098 218.838 193.637 218.124 192.923 217.503C192.217 216.873 191.266 216.559 190.068 216.559C189.009 216.559 188.08 216.835 187.282 217.387C186.491 217.932 185.874 218.704 185.428 219.702C184.991 220.692 184.772 221.855 184.772 223.19C184.772 224.556 184.987 225.746 185.417 226.759C185.854 227.772 186.468 228.559 187.259 229.119C188.057 229.68 188.994 229.96 190.068 229.96C190.774 229.96 191.415 229.837 191.991 229.591C192.567 229.346 193.054 228.993 193.453 228.532C193.852 228.072 194.136 227.519 194.305 226.874H197.022C196.869 227.918 196.489 228.858 195.882 229.695C195.284 230.524 194.489 231.184 193.499 231.675C192.517 232.159 191.373 232.401 190.068 232.401ZM202.879 225.585L202.833 222.223H203.385L211.122 214.348H214.484L206.24 222.684H206.01L202.879 225.585ZM200.346 232.032V208.453H203.063V232.032H200.346ZM211.583 232.032L204.675 223.282L206.609 221.394L215.037 232.032H211.583ZM224.019 232.401C222.315 232.401 220.845 232.025 219.609 231.272C218.381 230.512 217.433 229.453 216.766 228.095C216.105 226.728 215.775 225.14 215.775 223.328C215.775 221.517 216.105 219.92 216.766 218.539C217.433 217.15 218.362 216.067 219.552 215.292C220.749 214.509 222.146 214.118 223.743 214.118C224.664 214.118 225.573 214.271 226.471 214.578C227.369 214.885 228.187 215.384 228.923 216.075C229.66 216.758 230.247 217.664 230.685 218.792C231.122 219.92 231.341 221.31 231.341 222.96V224.111H217.71V221.762H228.578C228.578 220.765 228.379 219.874 227.979 219.091C227.588 218.309 227.028 217.691 226.298 217.238C225.577 216.785 224.725 216.559 223.743 216.559C222.66 216.559 221.724 216.827 220.933 217.364C220.15 217.894 219.548 218.585 219.126 219.437C218.704 220.289 218.493 221.202 218.493 222.177V223.743C218.493 225.078 218.723 226.21 219.183 227.139C219.652 228.06 220.3 228.762 221.129 229.246C221.958 229.722 222.921 229.96 224.019 229.96C224.733 229.96 225.377 229.86 225.953 229.661C226.536 229.453 227.039 229.146 227.461 228.739C227.883 228.325 228.21 227.811 228.44 227.197L231.065 227.934C230.789 228.824 230.324 229.607 229.672 230.282C229.019 230.95 228.213 231.472 227.254 231.848C226.295 232.216 225.216 232.401 224.019 232.401ZM241.504 232.401C240.03 232.401 238.729 232.028 237.601 231.284C236.472 230.532 235.59 229.472 234.953 228.106C234.316 226.732 233.997 225.109 233.997 223.236C233.997 221.379 234.316 219.767 234.953 218.401C235.59 217.034 236.476 215.979 237.612 215.235C238.748 214.49 240.061 214.118 241.55 214.118C242.701 214.118 243.611 214.31 244.278 214.693C244.954 215.07 245.468 215.499 245.821 215.983C246.182 216.459 246.462 216.85 246.662 217.157H246.892V208.453H249.609V232.032H246.984V229.315H246.662C246.462 229.637 246.178 230.044 245.81 230.536C245.441 231.019 244.915 231.453 244.232 231.837C243.549 232.213 242.64 232.401 241.504 232.401ZM241.872 229.96C242.962 229.96 243.883 229.676 244.635 229.108C245.387 228.532 245.959 227.738 246.351 226.725C246.742 225.704 246.938 224.526 246.938 223.19C246.938 221.87 246.746 220.715 246.362 219.725C245.978 218.727 245.41 217.952 244.658 217.399C243.906 216.839 242.977 216.559 241.872 216.559C240.721 216.559 239.761 216.854 238.994 217.445C238.234 218.028 237.662 218.823 237.278 219.828C236.902 220.826 236.714 221.947 236.714 223.19C236.714 224.449 236.906 225.593 237.29 226.621C237.681 227.642 238.257 228.455 239.017 229.062C239.784 229.661 240.736 229.96 241.872 229.96Z" fill="#505050" fill-opacity="0.5"/>
<path d="M103.257 301.716V299.23C103.257 297.449 103.625 295.822 104.362 294.348C105.114 292.859 106.204 291.669 107.632 290.779C109.075 289.873 110.817 289.42 112.859 289.42C114.946 289.42 116.696 289.866 118.109 290.756C119.521 291.646 120.588 292.836 121.309 294.325C122.046 295.814 122.415 297.449 122.415 299.23V301.716C122.415 303.497 122.046 305.132 121.309 306.621C120.573 308.095 119.49 309.284 118.063 310.19C116.65 311.081 114.916 311.526 112.859 311.526C110.786 311.526 109.036 311.081 107.609 310.19C106.181 309.284 105.099 308.095 104.362 306.621C103.625 305.132 103.257 303.497 103.257 301.716ZM108.622 299.23V301.716C108.622 303.037 108.937 304.234 109.566 305.309C110.195 306.383 111.293 306.92 112.859 306.92C114.409 306.92 115.491 306.383 116.105 305.309C116.72 304.234 117.027 303.037 117.027 301.716V299.23C117.027 297.909 116.727 296.712 116.128 295.638C115.545 294.563 114.455 294.026 112.859 294.026C111.324 294.026 110.234 294.563 109.589 295.638C108.944 296.712 108.622 297.909 108.622 299.23ZM79.5397 274.73V272.243C79.5397 270.462 79.9081 268.827 80.6449 267.338C81.3971 265.849 82.487 264.659 83.9147 263.769C85.3577 262.879 87.1 262.434 89.1417 262.434C91.2294 262.434 92.9794 262.879 94.3917 263.769C95.8039 264.659 96.8708 265.849 97.5923 267.338C98.3138 268.827 98.6745 270.462 98.6745 272.243V274.73C98.6745 276.51 98.3061 278.145 97.5693 279.634C96.8478 281.108 95.7732 282.298 94.3456 283.203C92.9333 284.094 91.1987 284.539 89.1417 284.539C87.0539 284.539 85.2963 284.094 83.8686 283.203C82.4563 282.298 81.3818 281.108 80.6449 279.634C79.9081 278.145 79.5397 276.51 79.5397 274.73ZM84.9278 272.243V274.73C84.9278 276.05 85.2349 277.247 85.8489 278.322C86.4783 279.396 87.5759 279.934 89.1417 279.934C90.6767 279.934 91.7513 279.396 92.3653 278.322C92.9947 277.247 93.3094 276.05 93.3094 274.73V272.243C93.3094 270.923 93.0101 269.725 92.4114 268.651C91.8127 267.576 90.7228 267.039 89.1417 267.039C87.6066 267.039 86.5167 267.576 85.8719 268.651C85.2425 269.725 84.9278 270.923 84.9278 272.243ZM81.7272 310.559L114.148 263.401H119.652L87.2305 310.559H81.7272Z" fill="#141D40"/>
<path d="M141.904 310.559V305.401L157.862 288.868C159.566 287.072 160.97 285.498 162.075 284.147C163.196 282.781 164.033 281.484 164.585 280.256C165.138 279.028 165.414 277.723 165.414 276.341C165.414 274.776 165.046 273.425 164.309 272.289C163.572 271.138 162.567 270.255 161.293 269.641C160.018 269.011 158.583 268.697 156.987 268.697C155.298 268.697 153.824 269.042 152.566 269.733C151.307 270.424 150.34 271.399 149.664 272.657C148.989 273.916 148.651 275.39 148.651 277.078H141.858C141.858 274.208 142.518 271.698 143.839 269.549C145.159 267.4 146.97 265.734 149.273 264.552C151.575 263.355 154.193 262.756 157.125 262.756C160.087 262.756 162.697 263.347 164.954 264.529C167.226 265.696 168.999 267.292 170.273 269.318C171.547 271.329 172.184 273.601 172.184 276.134C172.184 277.884 171.854 279.596 171.194 281.269C170.549 282.942 169.421 284.807 167.809 286.865C166.197 288.906 163.956 291.385 161.085 294.302L151.714 304.111V304.457H172.944V310.559H141.904ZM179.077 310.559V305.401L195.034 288.868C196.738 287.072 198.143 285.498 199.248 284.147C200.369 282.781 201.205 281.484 201.758 280.256C202.311 279.028 202.587 277.723 202.587 276.341C202.587 274.776 202.219 273.425 201.482 272.289C200.745 271.138 199.739 270.255 198.465 269.641C197.191 269.011 195.756 268.697 194.159 268.697C192.471 268.697 190.997 269.042 189.738 269.733C188.48 270.424 187.512 271.399 186.837 272.657C186.162 273.916 185.824 275.39 185.824 277.078H179.031C179.031 274.208 179.691 271.698 181.011 269.549C182.331 267.4 184.143 265.734 186.446 264.552C188.748 263.355 191.365 262.756 194.298 262.756C197.26 262.756 199.87 263.347 202.126 264.529C204.398 265.696 206.171 267.292 207.446 269.318C208.72 271.329 209.357 273.601 209.357 276.134C209.357 277.884 209.027 279.596 208.367 281.269C207.722 282.942 206.594 284.807 204.982 286.865C203.37 288.906 201.129 291.385 198.258 294.302L188.886 304.111V304.457H210.117V310.559H179.077ZM225.299 304.111L224.954 306.621C224.724 308.463 224.332 310.382 223.779 312.378C223.242 314.389 222.682 316.254 222.099 317.973C221.531 319.692 221.062 321.059 220.694 322.072H215.812C216.012 321.12 216.288 319.831 216.641 318.203C216.994 316.591 217.34 314.788 217.677 312.792C218.015 310.797 218.269 308.763 218.437 306.69L218.668 304.111H225.299ZM246.687 311.203C243.387 311.203 240.47 310.635 237.937 309.499C235.42 308.363 233.447 306.798 232.02 304.802C230.592 302.806 229.886 300.534 229.901 297.986C229.886 295.991 230.293 294.156 231.122 292.483C231.966 290.794 233.11 289.39 234.553 288.269C235.996 287.133 237.607 286.412 239.388 286.105V285.828C237.039 285.26 235.159 284.002 233.747 282.052C232.334 280.102 231.636 277.861 231.651 275.328C231.636 272.918 232.273 270.769 233.562 268.881C234.867 266.977 236.656 265.481 238.928 264.391C241.199 263.301 243.786 262.756 246.687 262.756C249.558 262.756 252.122 263.309 254.378 264.414C256.65 265.504 258.439 267 259.743 268.904C261.048 270.792 261.708 272.934 261.724 275.328C261.708 277.861 260.987 280.102 259.559 282.052C258.132 284.002 256.274 285.26 253.987 285.828V286.105C255.752 286.412 257.341 287.133 258.753 288.269C260.181 289.39 261.317 290.794 262.161 292.483C263.021 294.156 263.458 295.991 263.474 297.986C263.458 300.534 262.737 302.806 261.309 304.802C259.882 306.798 257.901 308.363 255.368 309.499C252.851 310.635 249.957 311.203 246.687 311.203ZM246.687 305.378C248.637 305.378 250.326 305.055 251.753 304.411C253.181 303.75 254.286 302.837 255.069 301.67C255.852 300.488 256.251 299.107 256.266 297.526C256.251 295.883 255.821 294.432 254.977 293.174C254.148 291.915 253.02 290.925 251.592 290.203C250.164 289.482 248.53 289.121 246.687 289.121C244.83 289.121 243.18 289.482 241.737 290.203C240.294 290.925 239.158 291.915 238.329 293.174C237.5 294.432 237.093 295.883 237.108 297.526C237.093 299.107 237.469 300.488 238.237 301.67C239.02 302.837 240.133 303.75 241.576 304.411C243.019 305.055 244.723 305.378 246.687 305.378ZM246.687 283.434C248.253 283.434 249.642 283.119 250.855 282.49C252.068 281.86 253.02 280.985 253.71 279.865C254.417 278.744 254.777 277.431 254.793 275.927C254.777 274.453 254.424 273.164 253.733 272.059C253.058 270.953 252.114 270.101 250.901 269.503C249.689 268.889 248.284 268.582 246.687 268.582C245.06 268.582 243.633 268.889 242.405 269.503C241.192 270.101 240.248 270.953 239.572 272.059C238.897 273.164 238.567 274.453 238.582 275.927C238.567 277.431 238.905 278.744 239.595 279.865C240.286 280.985 241.238 281.86 242.451 282.49C243.679 283.119 245.091 283.434 246.687 283.434ZM270.718 310.559L291.303 269.848V269.503H267.494V263.401H298.672V269.71L278.155 310.559H270.718ZM319.49 311.341C315.852 311.326 312.743 310.367 310.165 308.463C307.586 306.56 305.613 303.789 304.247 300.151C302.881 296.513 302.197 292.13 302.197 287.003C302.197 281.891 302.881 277.524 304.247 273.901C305.628 270.278 307.609 267.515 310.188 265.611C312.782 263.708 315.883 262.756 319.49 262.756C323.098 262.756 326.191 263.715 328.77 265.634C331.349 267.538 333.321 270.301 334.688 273.924C336.069 277.531 336.76 281.891 336.76 287.003C336.76 292.145 336.077 296.536 334.711 300.174C333.344 303.797 331.372 306.567 328.793 308.486C326.214 310.39 323.113 311.341 319.49 311.341ZM319.49 305.193C322.683 305.193 325.178 303.635 326.974 300.519C328.785 297.403 329.691 292.897 329.691 287.003C329.691 283.088 329.276 279.78 328.447 277.078C327.634 274.361 326.459 272.304 324.924 270.907C323.405 269.495 321.593 268.789 319.49 268.789C316.313 268.789 313.818 270.355 312.007 273.486C310.195 276.618 309.282 281.123 309.267 287.003C309.267 290.932 309.673 294.256 310.487 296.973C311.316 299.675 312.49 301.724 314.01 303.121C315.53 304.503 317.356 305.193 319.49 305.193Z" fill="#141D40"/>
<rect x="74.1055" y="375.137" width="506.789" height="74.1053" rx="37.0526" fill="#0B8AFF" fill-opacity="0.05"/>
<path d="M130.624 414.601L130.978 410.841C131.256 407.889 131.395 406.412 130.89 405.802C130.616 405.472 130.245 405.269 129.848 405.234C129.113 405.17 128.191 406.22 126.346 408.32C125.392 409.406 124.915 409.949 124.383 410.033C124.088 410.079 123.788 410.032 123.516 409.895C123.024 409.647 122.697 408.976 122.042 407.634L118.588 400.557C117.35 398.02 116.731 396.752 115.789 396.752C114.847 396.752 114.228 398.02 112.99 400.557L109.537 407.634C108.881 408.976 108.554 409.647 108.063 409.895C107.79 410.032 107.49 410.079 107.195 410.033C106.663 409.949 106.186 409.406 105.232 408.32C103.387 406.22 102.465 405.17 101.731 405.234C101.333 405.269 100.962 405.472 100.689 405.802C100.184 406.412 100.322 407.889 100.6 410.841L100.954 414.601C101.537 420.796 101.829 423.893 103.655 425.761C105.48 427.629 108.217 427.629 113.69 427.629H117.889C123.362 427.629 126.098 427.629 127.924 425.761C129.75 423.893 130.041 420.796 130.624 414.601Z" fill="#141D40"/>
<path d="M154.185 404.151V401.98H169.343V404.151H162.988V422.19H160.54V404.151H154.185ZM176.208 422.506C174.84 422.506 173.639 422.18 172.606 421.529C171.58 420.878 170.777 419.966 170.198 418.795C169.626 417.624 169.34 416.256 169.34 414.69C169.34 413.111 169.626 411.733 170.198 410.555C170.777 409.378 171.58 408.463 172.606 407.812C173.639 407.16 174.84 406.835 176.208 406.835C177.576 406.835 178.774 407.16 179.8 407.812C180.833 408.463 181.636 409.378 182.208 410.555C182.787 411.733 183.076 413.111 183.076 414.69C183.076 416.256 182.787 417.624 182.208 418.795C181.636 419.966 180.833 420.878 179.8 421.529C178.774 422.18 177.576 422.506 176.208 422.506ZM176.208 420.414C177.248 420.414 178.103 420.147 178.774 419.614C179.445 419.082 179.942 418.381 180.264 417.512C180.586 416.644 180.748 415.703 180.748 414.69C180.748 413.677 180.586 412.733 180.264 411.858C179.942 410.983 179.445 410.276 178.774 409.736C178.103 409.197 177.248 408.927 176.208 408.927C175.169 408.927 174.313 409.197 173.642 409.736C172.971 410.276 172.474 410.983 172.152 411.858C171.83 412.733 171.669 413.677 171.669 414.69C171.669 415.703 171.83 416.644 172.152 417.512C172.474 418.381 172.971 419.082 173.642 419.614C174.313 420.147 175.169 420.414 176.208 420.414ZM192.668 407.032V409.006H184.813V407.032H192.668ZM187.102 403.401H189.431V417.848C189.431 418.506 189.526 418.999 189.717 419.328C189.915 419.651 190.165 419.868 190.467 419.98C190.776 420.085 191.102 420.137 191.444 420.137C191.701 420.137 191.911 420.124 192.076 420.098C192.24 420.065 192.372 420.039 192.471 420.019L192.944 422.111C192.786 422.17 192.566 422.23 192.283 422.289C192 422.355 191.642 422.387 191.207 422.387C190.549 422.387 189.905 422.246 189.273 421.963C188.648 421.68 188.128 421.249 187.714 420.67C187.306 420.091 187.102 419.361 187.102 418.48V403.401ZM200.076 422.545C199.115 422.545 198.244 422.364 197.461 422.003C196.678 421.634 196.056 421.105 195.596 420.414C195.135 419.716 194.905 418.874 194.905 417.887C194.905 417.019 195.076 416.315 195.418 415.776C195.76 415.23 196.217 414.802 196.79 414.493C197.362 414.183 197.994 413.953 198.684 413.802C199.382 413.644 200.082 413.519 200.786 413.427C201.707 413.308 202.454 413.22 203.027 413.16C203.606 413.095 204.027 412.986 204.29 412.835C204.559 412.683 204.694 412.42 204.694 412.045V411.966C204.694 410.993 204.428 410.236 203.895 409.697C203.369 409.157 202.569 408.887 201.497 408.887C200.385 408.887 199.513 409.131 198.882 409.618C198.25 410.105 197.806 410.624 197.55 411.177L195.339 410.387C195.734 409.466 196.26 408.749 196.918 408.236C197.582 407.716 198.306 407.355 199.089 407.151C199.879 406.94 200.655 406.835 201.418 406.835C201.905 406.835 202.464 406.894 203.096 407.012C203.734 407.124 204.349 407.358 204.941 407.713C205.54 408.068 206.036 408.605 206.431 409.322C206.826 410.039 207.023 410.999 207.023 412.203V422.19H204.694V420.137H204.576C204.418 420.466 204.155 420.818 203.786 421.193C203.418 421.568 202.928 421.887 202.316 422.151C201.704 422.414 200.957 422.545 200.076 422.545ZM200.431 420.453C201.352 420.453 202.129 420.272 202.76 419.91C203.398 419.549 203.879 419.082 204.201 418.509C204.53 417.937 204.694 417.335 204.694 416.703V414.572C204.596 414.69 204.379 414.799 204.043 414.897C203.714 414.989 203.332 415.072 202.898 415.144C202.471 415.21 202.053 415.269 201.645 415.322C201.244 415.368 200.918 415.407 200.668 415.44C200.063 415.519 199.497 415.647 198.971 415.825C198.451 415.996 198.03 416.256 197.707 416.605C197.392 416.947 197.234 417.414 197.234 418.006C197.234 418.815 197.533 419.427 198.132 419.841C198.737 420.249 199.504 420.453 200.431 420.453ZM213.047 401.98V422.19H210.718V401.98H213.047ZM230.372 422.506C228.912 422.506 227.652 422.183 226.593 421.539C225.54 420.887 224.728 419.98 224.155 418.815C223.589 417.644 223.307 416.282 223.307 414.73C223.307 413.177 223.589 411.808 224.155 410.624C224.728 409.433 225.524 408.506 226.543 407.841C227.57 407.17 228.767 406.835 230.136 406.835C230.925 406.835 231.705 406.966 232.474 407.23C233.244 407.493 233.945 407.92 234.576 408.512C235.208 409.098 235.711 409.874 236.086 410.841C236.461 411.808 236.649 412.999 236.649 414.414V415.401H224.964V413.387H234.28C234.28 412.532 234.109 411.769 233.767 411.098C233.432 410.427 232.951 409.897 232.326 409.509C231.708 409.121 230.978 408.927 230.136 408.927C229.208 408.927 228.405 409.157 227.728 409.618C227.057 410.072 226.54 410.664 226.178 411.394C225.816 412.124 225.636 412.907 225.636 413.743V415.085C225.636 416.23 225.833 417.2 226.228 417.996C226.629 418.785 227.185 419.387 227.895 419.802C228.606 420.21 229.432 420.414 230.372 420.414C230.984 420.414 231.537 420.328 232.03 420.157C232.53 419.98 232.961 419.716 233.323 419.368C233.685 419.012 233.964 418.572 234.162 418.045L236.412 418.677C236.175 419.44 235.777 420.111 235.218 420.69C234.659 421.262 233.968 421.71 233.145 422.032C232.323 422.348 231.399 422.506 230.372 422.506ZM244.096 422.545C243.136 422.545 242.264 422.364 241.481 422.003C240.698 421.634 240.076 421.105 239.616 420.414C239.155 419.716 238.925 418.874 238.925 417.887C238.925 417.019 239.096 416.315 239.438 415.776C239.78 415.23 240.238 414.802 240.81 414.493C241.382 414.183 242.014 413.953 242.705 413.802C243.402 413.644 244.103 413.519 244.807 413.427C245.728 413.308 246.474 413.22 247.047 413.16C247.626 413.095 248.047 412.986 248.31 412.835C248.58 412.683 248.715 412.42 248.715 412.045V411.966C248.715 410.993 248.448 410.236 247.915 409.697C247.389 409.157 246.59 408.887 245.517 408.887C244.405 408.887 243.534 409.131 242.902 409.618C242.271 410.105 241.826 410.624 241.57 411.177L239.359 410.387C239.754 409.466 240.28 408.749 240.938 408.236C241.603 407.716 242.326 407.355 243.109 407.151C243.899 406.94 244.675 406.835 245.438 406.835C245.925 406.835 246.484 406.894 247.116 407.012C247.754 407.124 248.369 407.358 248.961 407.713C249.56 408.068 250.057 408.605 250.451 409.322C250.846 410.039 251.044 410.999 251.044 412.203V422.19H248.715V420.137H248.596C248.438 420.466 248.175 420.818 247.807 421.193C247.438 421.568 246.948 421.887 246.336 422.151C245.724 422.414 244.978 422.545 244.096 422.545ZM244.451 420.453C245.372 420.453 246.149 420.272 246.78 419.91C247.419 419.549 247.899 419.082 248.221 418.509C248.55 417.937 248.715 417.335 248.715 416.703V414.572C248.616 414.69 248.399 414.799 248.063 414.897C247.734 414.989 247.353 415.072 246.919 415.144C246.491 415.21 246.073 415.269 245.665 415.322C245.264 415.368 244.938 415.407 244.688 415.44C244.083 415.519 243.517 415.647 242.991 415.825C242.471 415.996 242.05 416.256 241.728 416.605C241.412 416.947 241.254 417.414 241.254 418.006C241.254 418.815 241.553 419.427 242.152 419.841C242.757 420.249 243.524 420.453 244.451 420.453ZM254.739 422.19V407.032H256.989V409.322H257.146C257.423 408.572 257.923 407.963 258.646 407.496C259.37 407.029 260.186 406.795 261.094 406.795C261.265 406.795 261.479 406.799 261.735 406.805C261.992 406.812 262.186 406.822 262.318 406.835V409.203C262.239 409.183 262.058 409.154 261.775 409.114C261.498 409.068 261.206 409.045 260.896 409.045C260.16 409.045 259.502 409.2 258.923 409.509C258.35 409.812 257.896 410.233 257.561 410.772C257.232 411.305 257.068 411.914 257.068 412.598V422.19H254.739ZM266.851 413.072V422.19H264.522V407.032H266.772V409.401H266.97C267.325 408.631 267.865 408.012 268.588 407.545C269.312 407.072 270.246 406.835 271.391 406.835C272.417 406.835 273.315 407.045 274.085 407.466C274.855 407.881 275.453 408.512 275.881 409.361C276.309 410.203 276.522 411.269 276.522 412.558V422.19H274.193V412.716C274.193 411.526 273.884 410.598 273.266 409.933C272.647 409.262 271.799 408.927 270.72 408.927C269.976 408.927 269.312 409.088 268.726 409.41C268.147 409.733 267.69 410.203 267.355 410.822C267.019 411.44 266.851 412.19 266.851 413.072ZM286.578 422.506C285.117 422.506 283.857 422.183 282.798 421.539C281.745 420.887 280.933 419.98 280.361 418.815C279.795 417.644 279.512 416.282 279.512 414.73C279.512 413.177 279.795 411.808 280.361 410.624C280.933 409.433 281.729 408.506 282.749 407.841C283.775 407.17 284.972 406.835 286.341 406.835C287.13 406.835 287.91 406.966 288.68 407.23C289.449 407.493 290.15 407.92 290.782 408.512C291.413 409.098 291.916 409.874 292.291 410.841C292.666 411.808 292.854 412.999 292.854 414.414V415.401H281.17V413.387H290.486C290.486 412.532 290.314 411.769 289.972 411.098C289.637 410.427 289.157 409.897 288.532 409.509C287.913 409.121 287.183 408.927 286.341 408.927C285.413 408.927 284.611 409.157 283.933 409.618C283.262 410.072 282.745 410.664 282.384 411.394C282.022 412.124 281.841 412.907 281.841 413.743V415.085C281.841 416.23 282.038 417.2 282.433 417.996C282.834 418.785 283.39 419.387 284.101 419.802C284.811 420.21 285.637 420.414 286.578 420.414C287.189 420.414 287.742 420.328 288.236 420.157C288.736 419.98 289.166 419.716 289.528 419.368C289.89 419.012 290.17 418.572 290.367 418.045L292.617 418.677C292.38 419.44 291.982 420.111 291.423 420.69C290.864 421.262 290.173 421.71 289.351 422.032C288.528 422.348 287.604 422.506 286.578 422.506ZM300.301 422.545C299.341 422.545 298.469 422.364 297.686 422.003C296.903 421.634 296.282 421.105 295.821 420.414C295.361 419.716 295.13 418.874 295.13 417.887C295.13 417.019 295.301 416.315 295.644 415.776C295.986 415.23 296.443 414.802 297.015 414.493C297.588 414.183 298.219 413.953 298.91 413.802C299.607 413.644 300.308 413.519 301.012 413.427C301.933 413.308 302.68 413.22 303.252 413.16C303.831 413.095 304.252 412.986 304.515 412.835C304.785 412.683 304.92 412.42 304.92 412.045V411.966C304.92 410.993 304.653 410.236 304.121 409.697C303.594 409.157 302.795 408.887 301.723 408.887C300.611 408.887 299.739 409.131 299.107 409.618C298.476 410.105 298.032 410.624 297.775 411.177L295.565 410.387C295.959 409.466 296.486 408.749 297.144 408.236C297.808 407.716 298.532 407.355 299.315 407.151C300.104 406.94 300.88 406.835 301.644 406.835C302.13 406.835 302.69 406.894 303.321 407.012C303.959 407.124 304.574 407.358 305.167 407.713C305.765 408.068 306.262 408.605 306.657 409.322C307.051 410.039 307.249 410.999 307.249 412.203V422.19H304.92V420.137H304.801C304.644 420.466 304.38 420.818 304.012 421.193C303.644 421.568 303.153 421.887 302.542 422.151C301.93 422.414 301.183 422.545 300.301 422.545ZM300.657 420.453C301.578 420.453 302.354 420.272 302.986 419.91C303.624 419.549 304.104 419.082 304.426 418.509C304.755 417.937 304.92 417.335 304.92 416.703V414.572C304.821 414.69 304.604 414.799 304.269 414.897C303.94 414.989 303.558 415.072 303.124 415.144C302.696 415.21 302.278 415.269 301.871 415.322C301.469 415.368 301.144 415.407 300.894 415.44C300.288 415.519 299.723 415.647 299.196 415.825C298.676 415.996 298.255 416.256 297.933 416.605C297.617 416.947 297.459 417.414 297.459 418.006C297.459 418.815 297.759 419.427 298.357 419.841C298.963 420.249 299.729 420.453 300.657 420.453ZM316.668 422.506C315.404 422.506 314.289 422.187 313.322 421.549C312.355 420.904 311.598 419.996 311.052 418.825C310.506 417.647 310.233 416.256 310.233 414.651C310.233 413.058 310.506 411.677 311.052 410.506C311.598 409.335 312.358 408.43 313.332 407.792C314.306 407.154 315.431 406.835 316.707 406.835C317.694 406.835 318.473 406.999 319.046 407.328C319.625 407.651 320.066 408.019 320.368 408.433C320.677 408.841 320.918 409.177 321.089 409.44H321.286V401.98H323.615V422.19H321.365V419.861H321.089C320.918 420.137 320.674 420.486 320.358 420.907C320.043 421.322 319.592 421.693 319.006 422.022C318.421 422.345 317.641 422.506 316.668 422.506ZM316.983 420.414C317.918 420.414 318.707 420.17 319.352 419.683C319.996 419.19 320.487 418.509 320.822 417.641C321.158 416.766 321.325 415.756 321.325 414.611C321.325 413.48 321.161 412.489 320.832 411.641C320.503 410.785 320.016 410.121 319.371 409.647C318.727 409.167 317.931 408.927 316.983 408.927C315.996 408.927 315.174 409.18 314.516 409.687C313.865 410.187 313.375 410.868 313.046 411.73C312.723 412.585 312.562 413.545 312.562 414.611C312.562 415.69 312.727 416.67 313.056 417.552C313.391 418.427 313.885 419.124 314.536 419.644C315.194 420.157 316.01 420.414 316.983 420.414ZM336.408 427.874C336.013 427.874 335.661 427.841 335.352 427.776C335.043 427.716 334.829 427.657 334.711 427.598L335.303 425.545C335.868 425.69 336.368 425.743 336.803 425.703C337.237 425.664 337.622 425.47 337.957 425.121C338.299 424.779 338.612 424.223 338.895 423.453L339.329 422.269L333.724 407.032H336.25L340.434 419.111H340.592L344.776 407.032H347.303L340.868 424.401C340.579 425.183 340.22 425.832 339.793 426.345C339.365 426.864 338.868 427.249 338.303 427.499C337.743 427.749 337.112 427.874 336.408 427.874ZM349.821 422.19V407.032H352.15V422.19H349.821ZM351.005 404.506C350.551 404.506 350.16 404.351 349.831 404.042C349.508 403.733 349.347 403.361 349.347 402.927C349.347 402.493 349.508 402.121 349.831 401.812C350.16 401.503 350.551 401.348 351.005 401.348C351.459 401.348 351.847 401.503 352.17 401.812C352.499 402.121 352.663 402.493 352.663 402.927C352.663 403.361 352.499 403.733 352.17 404.042C351.847 404.351 351.459 404.506 351.005 404.506ZM362.215 422.506C360.754 422.506 359.495 422.183 358.435 421.539C357.383 420.887 356.57 419.98 355.998 418.815C355.432 417.644 355.149 416.282 355.149 414.73C355.149 413.177 355.432 411.808 355.998 410.624C356.57 409.433 357.366 408.506 358.386 407.841C359.412 407.17 360.61 406.835 361.978 406.835C362.768 406.835 363.547 406.966 364.317 407.23C365.087 407.493 365.787 407.92 366.419 408.512C367.05 409.098 367.554 409.874 367.929 410.841C368.304 411.808 368.491 412.999 368.491 414.414V415.401H356.807V413.387H366.123C366.123 412.532 365.952 411.769 365.61 411.098C365.274 410.427 364.794 409.897 364.169 409.509C363.55 409.121 362.82 408.927 361.978 408.927C361.05 408.927 360.248 409.157 359.57 409.618C358.899 410.072 358.383 410.664 358.021 411.394C357.659 412.124 357.478 412.907 357.478 413.743V415.085C357.478 416.23 357.675 417.2 358.07 417.996C358.472 418.785 359.027 419.387 359.738 419.802C360.448 420.21 361.274 420.414 362.215 420.414C362.827 420.414 363.379 420.328 363.873 420.157C364.373 419.98 364.804 419.716 365.166 419.368C365.527 419.012 365.807 418.572 366.004 418.045L368.254 418.677C368.018 419.44 367.62 420.111 367.06 420.69C366.501 421.262 365.81 421.71 364.988 422.032C364.166 422.348 363.241 422.506 362.215 422.506ZM373.807 401.98V422.19H371.478V401.98H373.807ZM383.241 422.506C381.978 422.506 380.862 422.187 379.895 421.549C378.928 420.904 378.172 419.996 377.626 418.825C377.08 417.647 376.806 416.256 376.806 414.651C376.806 413.058 377.08 411.677 377.626 410.506C378.172 409.335 378.931 408.43 379.905 407.792C380.879 407.154 382.004 406.835 383.28 406.835C384.267 406.835 385.047 406.999 385.619 407.328C386.198 407.651 386.639 408.019 386.941 408.433C387.251 408.841 387.491 409.177 387.662 409.44H387.859V401.98H390.188V422.19H387.938V419.861H387.662C387.491 420.137 387.247 420.486 386.931 420.907C386.616 421.322 386.165 421.693 385.58 422.022C384.994 422.345 384.214 422.506 383.241 422.506ZM383.556 420.414C384.491 420.414 385.28 420.17 385.925 419.683C386.57 419.19 387.06 418.509 387.395 417.641C387.731 416.766 387.899 415.756 387.899 414.611C387.899 413.48 387.734 412.489 387.405 411.641C387.076 410.785 386.589 410.121 385.945 409.647C385.3 409.167 384.504 408.927 383.556 408.927C382.57 408.927 381.747 409.18 381.089 409.687C380.438 410.187 379.948 410.868 379.619 411.73C379.297 412.585 379.135 413.545 379.135 414.611C379.135 415.69 379.3 416.67 379.629 417.552C379.964 418.427 380.458 419.124 381.109 419.644C381.767 420.157 382.583 420.414 383.556 420.414Z" fill="#141D40"/>
<path d="M410.03 418.795V405.453H412.684V418.795H410.03ZM404.691 413.447V410.802H418.033V413.447H404.691ZM428.239 424.716V399.453H429.857V424.716H428.239ZM433.301 407.289C433.196 406.355 432.762 405.631 431.999 405.118C431.236 404.598 430.275 404.338 429.117 404.338C428.288 404.338 427.571 404.47 426.966 404.733C426.361 404.989 425.89 405.345 425.555 405.799C425.226 406.246 425.061 406.756 425.061 407.328C425.061 407.808 425.173 408.223 425.397 408.572C425.627 408.92 425.926 409.213 426.295 409.45C426.67 409.68 427.071 409.874 427.499 410.032C427.926 410.183 428.338 410.308 428.732 410.407L430.706 410.92C431.351 411.078 432.012 411.292 432.689 411.562C433.367 411.832 433.995 412.187 434.574 412.628C435.153 413.068 435.62 413.614 435.976 414.266C436.338 414.917 436.518 415.697 436.518 416.605C436.518 417.749 436.222 418.766 435.63 419.654C435.045 420.542 434.193 421.243 433.074 421.756C431.963 422.269 430.617 422.526 429.038 422.526C427.525 422.526 426.216 422.285 425.111 421.805C424.005 421.325 423.14 420.644 422.515 419.762C421.89 418.874 421.545 417.822 421.479 416.605H424.538C424.597 417.335 424.834 417.943 425.249 418.43C425.67 418.91 426.206 419.269 426.857 419.506C427.515 419.736 428.236 419.851 429.018 419.851C429.88 419.851 430.647 419.716 431.318 419.447C431.995 419.17 432.528 418.789 432.916 418.302C433.305 417.808 433.499 417.233 433.499 416.575C433.499 415.976 433.328 415.486 432.986 415.105C432.65 414.723 432.193 414.407 431.614 414.157C431.041 413.907 430.393 413.687 429.67 413.496L427.282 412.845C425.663 412.404 424.38 411.756 423.433 410.901C422.492 410.045 422.022 408.914 422.022 407.506C422.022 406.341 422.338 405.325 422.969 404.457C423.601 403.588 424.456 402.914 425.535 402.433C426.614 401.947 427.831 401.703 429.186 401.703C430.555 401.703 431.762 401.943 432.808 402.424C433.861 402.904 434.689 403.565 435.295 404.407C435.9 405.243 436.216 406.203 436.242 407.289H433.301ZM446.159 422.466C444.745 422.466 443.495 422.223 442.409 421.736C441.33 421.249 440.485 420.578 439.873 419.723C439.261 418.868 438.959 417.894 438.965 416.802C438.959 415.947 439.133 415.16 439.488 414.443C439.85 413.72 440.34 413.118 440.959 412.637C441.577 412.151 442.268 411.841 443.031 411.71V411.591C442.024 411.348 441.218 410.808 440.613 409.973C440.008 409.137 439.709 408.177 439.715 407.091C439.709 406.058 439.982 405.137 440.534 404.328C441.093 403.512 441.86 402.871 442.834 402.404C443.807 401.937 444.916 401.703 446.159 401.703C447.389 401.703 448.488 401.94 449.455 402.414C450.429 402.881 451.195 403.522 451.755 404.338C452.314 405.147 452.597 406.065 452.603 407.091C452.597 408.177 452.287 409.137 451.676 409.973C451.064 410.808 450.268 411.348 449.287 411.591V411.71C450.044 411.841 450.725 412.151 451.33 412.637C451.942 413.118 452.429 413.72 452.791 414.443C453.159 415.16 453.347 415.947 453.353 416.802C453.347 417.894 453.037 418.868 452.426 419.723C451.814 420.578 450.965 421.249 449.88 421.736C448.801 422.223 447.561 422.466 446.159 422.466ZM446.159 419.97C446.995 419.97 447.718 419.832 448.33 419.555C448.942 419.272 449.416 418.881 449.751 418.381C450.087 417.874 450.258 417.282 450.264 416.605C450.258 415.901 450.074 415.279 449.712 414.739C449.357 414.2 448.873 413.776 448.261 413.466C447.649 413.157 446.949 413.003 446.159 413.003C445.363 413.003 444.656 413.157 444.037 413.466C443.419 413.776 442.932 414.2 442.577 414.739C442.222 415.279 442.047 415.901 442.054 416.605C442.047 417.282 442.209 417.874 442.537 418.381C442.873 418.881 443.35 419.272 443.968 419.555C444.587 419.832 445.317 419.97 446.159 419.97ZM446.159 410.565C446.83 410.565 447.426 410.43 447.945 410.16C448.465 409.891 448.873 409.516 449.169 409.035C449.472 408.555 449.626 407.993 449.633 407.348C449.626 406.716 449.475 406.164 449.179 405.69C448.889 405.216 448.485 404.851 447.965 404.595C447.445 404.332 446.843 404.2 446.159 404.2C445.462 404.2 444.85 404.332 444.324 404.595C443.804 404.851 443.399 405.216 443.11 405.69C442.82 406.164 442.679 406.716 442.686 407.348C442.679 407.993 442.824 408.555 443.12 409.035C443.416 409.516 443.824 409.891 444.343 410.16C444.87 410.43 445.475 410.565 446.159 410.565ZM459.614 419.427L459.466 420.503C459.367 421.292 459.2 422.114 458.963 422.97C458.733 423.832 458.492 424.631 458.242 425.368C457.999 426.105 457.798 426.69 457.64 427.124H455.548C455.634 426.716 455.752 426.164 455.904 425.466C456.055 424.776 456.203 424.003 456.348 423.147C456.492 422.292 456.601 421.42 456.673 420.532L456.772 419.427H459.614ZM469.489 422.466C468.134 422.466 466.923 422.233 465.858 421.766C464.798 421.299 463.96 420.651 463.341 419.822C462.729 418.986 462.4 418.019 462.354 416.92H465.453C465.493 417.519 465.693 418.039 466.055 418.48C466.423 418.914 466.904 419.249 467.496 419.486C468.088 419.723 468.746 419.841 469.469 419.841C470.266 419.841 470.969 419.703 471.581 419.427C472.2 419.151 472.683 418.766 473.032 418.272C473.381 417.772 473.555 417.197 473.555 416.545C473.555 415.868 473.381 415.272 473.032 414.759C472.69 414.239 472.187 413.832 471.522 413.535C470.864 413.239 470.068 413.091 469.134 413.091H467.427V410.605H469.134C469.884 410.605 470.542 410.47 471.108 410.2C471.68 409.93 472.127 409.555 472.45 409.075C472.772 408.588 472.933 408.019 472.933 407.368C472.933 406.743 472.792 406.2 472.509 405.739C472.233 405.272 471.838 404.907 471.325 404.644C470.818 404.381 470.219 404.249 469.529 404.249C468.871 404.249 468.256 404.371 467.683 404.614C467.118 404.851 466.657 405.193 466.302 405.641C465.946 406.082 465.756 406.611 465.729 407.23H462.779C462.812 406.137 463.134 405.177 463.746 404.348C464.364 403.519 465.18 402.871 466.193 402.404C467.206 401.937 468.331 401.703 469.568 401.703C470.864 401.703 471.983 401.957 472.923 402.463C473.871 402.963 474.601 403.631 475.114 404.466C475.634 405.302 475.891 406.216 475.884 407.21C475.891 408.341 475.575 409.302 474.937 410.091C474.305 410.881 473.463 411.41 472.41 411.68V411.838C473.752 412.042 474.792 412.575 475.529 413.437C476.272 414.299 476.641 415.368 476.634 416.644C476.641 417.756 476.331 418.753 475.706 419.634C475.088 420.516 474.243 421.21 473.17 421.716C472.098 422.216 470.871 422.466 469.489 422.466ZM486.479 422.466C485.243 422.466 484.131 422.23 483.144 421.756C482.164 421.276 481.381 420.618 480.795 419.782C480.21 418.947 479.897 417.993 479.858 416.92H482.818C482.891 417.789 483.276 418.503 483.973 419.062C484.67 419.621 485.506 419.901 486.479 419.901C487.256 419.901 487.943 419.723 488.542 419.368C489.147 419.006 489.621 418.509 489.963 417.878C490.312 417.246 490.486 416.526 490.486 415.716C490.486 414.894 490.308 414.16 489.953 413.516C489.598 412.871 489.108 412.364 488.483 411.996C487.864 411.628 487.154 411.44 486.351 411.433C485.739 411.433 485.124 411.539 484.506 411.749C483.887 411.96 483.387 412.236 483.006 412.578L480.213 412.164L481.348 401.98H492.46V404.595H483.884L483.243 410.249H483.361C483.756 409.868 484.279 409.549 484.93 409.292C485.588 409.035 486.292 408.907 487.042 408.907C488.272 408.907 489.368 409.2 490.328 409.785C491.295 410.371 492.055 411.17 492.608 412.183C493.167 413.19 493.443 414.348 493.437 415.657C493.443 416.966 493.147 418.134 492.549 419.16C491.956 420.187 491.134 420.996 490.081 421.588C489.035 422.174 487.835 422.466 486.479 422.466ZM503.522 422.466C502.166 422.466 500.956 422.233 499.89 421.766C498.831 421.299 497.992 420.651 497.374 419.822C496.762 418.986 496.433 418.019 496.387 416.92H499.485C499.525 417.519 499.726 418.039 500.087 418.48C500.456 418.914 500.936 419.249 501.528 419.486C502.12 419.723 502.778 419.841 503.502 419.841C504.298 419.841 505.002 419.703 505.614 419.427C506.232 419.151 506.716 418.766 507.064 418.272C507.413 417.772 507.587 417.197 507.587 416.545C507.587 415.868 507.413 415.272 507.064 414.759C506.722 414.239 506.219 413.832 505.554 413.535C504.897 413.239 504.101 413.091 503.166 413.091H501.459V410.605H503.166C503.916 410.605 504.574 410.47 505.14 410.2C505.712 409.93 506.16 409.555 506.482 409.075C506.804 408.588 506.966 408.019 506.966 407.368C506.966 406.743 506.824 406.2 506.541 405.739C506.265 405.272 505.87 404.907 505.357 404.644C504.851 404.381 504.252 404.249 503.561 404.249C502.903 404.249 502.288 404.371 501.716 404.614C501.15 404.851 500.689 405.193 500.334 405.641C499.979 406.082 499.788 406.611 499.762 407.23H496.811C496.844 406.137 497.166 405.177 497.778 404.348C498.397 403.519 499.212 402.871 500.226 402.404C501.239 401.937 502.364 401.703 503.601 401.703C504.897 401.703 506.015 401.957 506.956 402.463C507.903 402.963 508.633 403.631 509.147 404.466C509.666 405.302 509.923 406.216 509.916 407.21C509.923 408.341 509.607 409.302 508.969 410.091C508.337 410.881 507.495 411.41 506.443 411.68V411.838C507.785 412.042 508.824 412.575 509.561 413.437C510.304 414.299 510.673 415.368 510.666 416.644C510.673 417.756 510.364 418.753 509.739 419.634C509.12 420.516 508.275 421.21 507.202 421.716C506.13 422.216 504.903 422.466 503.522 422.466ZM515.227 422.378C514.688 422.378 514.224 422.187 513.836 421.805C513.448 421.417 513.254 420.95 513.254 420.404C513.254 419.864 513.448 419.404 513.836 419.022C514.224 418.634 514.688 418.44 515.227 418.44C515.767 418.44 516.231 418.634 516.619 419.022C517.007 419.404 517.201 419.864 517.201 420.404C517.201 420.766 517.109 421.098 516.925 421.401C516.747 421.697 516.51 421.933 516.214 422.111C515.918 422.289 515.589 422.378 515.227 422.378ZM526.708 422.466C525.294 422.466 524.044 422.223 522.958 421.736C521.88 421.249 521.034 420.578 520.422 419.723C519.81 418.868 519.508 417.894 519.514 416.802C519.508 415.947 519.682 415.16 520.037 414.443C520.399 413.72 520.889 413.118 521.508 412.637C522.126 412.151 522.817 411.841 523.58 411.71V411.591C522.574 411.348 521.768 410.808 521.162 409.973C520.557 409.137 520.258 408.177 520.264 407.091C520.258 406.058 520.531 405.137 521.083 404.328C521.643 403.512 522.409 402.871 523.383 402.404C524.357 401.937 525.465 401.703 526.708 401.703C527.939 401.703 529.037 401.94 530.005 402.414C530.978 402.881 531.745 403.522 532.304 404.338C532.863 405.147 533.146 406.065 533.153 407.091C533.146 408.177 532.837 409.137 532.225 409.973C531.613 410.808 530.817 411.348 529.837 411.591V411.71C530.593 411.841 531.274 412.151 531.88 412.637C532.491 413.118 532.978 413.72 533.34 414.443C533.708 415.16 533.896 415.947 533.903 416.802C533.896 417.894 533.587 418.868 532.975 419.723C532.363 420.578 531.514 421.249 530.429 421.736C529.35 422.223 528.11 422.466 526.708 422.466ZM526.708 419.97C527.544 419.97 528.268 419.832 528.88 419.555C529.491 419.272 529.965 418.881 530.301 418.381C530.636 417.874 530.807 417.282 530.814 416.605C530.807 415.901 530.623 415.279 530.261 414.739C529.906 414.2 529.422 413.776 528.81 413.466C528.199 413.157 527.498 413.003 526.708 413.003C525.912 413.003 525.205 413.157 524.587 413.466C523.968 413.776 523.482 414.2 523.126 414.739C522.771 415.279 522.597 415.901 522.603 416.605C522.597 417.282 522.758 417.874 523.087 418.381C523.422 418.881 523.899 419.272 524.518 419.555C525.136 419.832 525.866 419.97 526.708 419.97ZM526.708 410.565C527.38 410.565 527.975 410.43 528.495 410.16C529.014 409.891 529.422 409.516 529.718 409.035C530.021 408.555 530.176 407.993 530.182 407.348C530.176 406.716 530.024 406.164 529.728 405.69C529.439 405.216 529.034 404.851 528.514 404.595C527.995 404.332 527.393 404.2 526.708 404.2C526.011 404.2 525.399 404.332 524.873 404.595C524.353 404.851 523.949 405.216 523.659 405.69C523.37 406.164 523.228 406.716 523.235 407.348C523.228 407.993 523.373 408.555 523.669 409.035C523.965 409.516 524.373 409.891 524.893 410.16C525.419 410.43 526.024 410.565 526.708 410.565ZM543.711 422.466C542.297 422.466 541.047 422.223 539.961 421.736C538.882 421.249 538.037 420.578 537.425 419.723C536.813 418.868 536.51 417.894 536.517 416.802C536.51 415.947 536.685 415.16 537.04 414.443C537.402 413.72 537.892 413.118 538.51 412.637C539.129 412.151 539.82 411.841 540.583 411.71V411.591C539.576 411.348 538.77 410.808 538.165 409.973C537.56 409.137 537.26 408.177 537.267 407.091C537.26 406.058 537.533 405.137 538.086 404.328C538.645 403.512 539.412 402.871 540.385 402.404C541.359 401.937 542.468 401.703 543.711 401.703C544.941 401.703 546.04 401.94 547.007 402.414C547.981 402.881 548.747 403.522 549.306 404.338C549.866 405.147 550.149 406.065 550.155 407.091C550.149 408.177 549.839 409.137 549.228 409.973C548.616 410.808 547.82 411.348 546.839 411.591V411.71C547.596 411.841 548.277 412.151 548.882 412.637C549.494 413.118 549.981 413.72 550.343 414.443C550.711 415.16 550.899 415.947 550.905 416.802C550.899 417.894 550.589 418.868 549.978 419.723C549.366 420.578 548.517 421.249 547.431 421.736C546.353 422.223 545.112 422.466 543.711 422.466ZM543.711 419.97C544.547 419.97 545.27 419.832 545.882 419.555C546.494 419.272 546.968 418.881 547.303 418.381C547.639 417.874 547.81 417.282 547.816 416.605C547.81 415.901 547.626 415.279 547.264 414.739C546.908 414.2 546.425 413.776 545.813 413.466C545.201 413.157 544.501 413.003 543.711 413.003C542.915 413.003 542.208 413.157 541.589 413.466C540.971 413.776 540.484 414.2 540.129 414.739C539.774 415.279 539.599 415.901 539.606 416.605C539.599 417.282 539.76 417.874 540.089 418.381C540.425 418.881 540.902 419.272 541.52 419.555C542.139 419.832 542.869 419.97 543.711 419.97ZM543.711 410.565C544.382 410.565 544.978 410.43 545.497 410.16C546.017 409.891 546.425 409.516 546.721 409.035C547.024 408.555 547.178 407.993 547.185 407.348C547.178 406.716 547.027 406.164 546.731 405.69C546.441 405.216 546.037 404.851 545.517 404.595C544.997 404.332 544.395 404.2 543.711 404.2C543.014 404.2 542.402 404.332 541.876 404.595C541.356 404.851 540.951 405.216 540.662 405.69C540.372 406.164 540.231 406.716 540.237 407.348C540.231 407.993 540.376 408.555 540.672 409.035C540.968 409.516 541.376 409.891 541.895 410.16C542.422 410.43 543.027 410.565 543.711 410.565Z" fill="#0B8AFF"/>
<rect x="74.1055" y="467.769" width="391.789" height="74.1053" rx="37.0526" fill="#0B8AFF" fill-opacity="0.05"/>
<path d="M106.017 501.602L110.744 495.205C113.8 491.071 115.328 489.004 116.754 489.441C118.179 489.877 118.179 492.413 118.179 497.484V497.962C118.179 499.791 118.179 500.706 118.764 501.279L118.795 501.309C119.392 501.87 120.344 501.87 122.247 501.87C125.673 501.87 127.386 501.87 127.964 502.909C127.974 502.926 127.983 502.944 127.992 502.961C128.539 504.016 127.547 505.358 125.564 508.042L120.836 514.438C117.78 518.572 116.252 520.64 114.827 520.203C113.401 519.766 113.401 517.23 113.401 512.159L113.401 511.681C113.401 509.852 113.401 508.938 112.817 508.364L112.786 508.335C112.189 507.773 111.237 507.773 109.334 507.773C105.908 507.773 104.195 507.773 103.616 506.734C103.607 506.717 103.597 506.7 103.588 506.682C103.042 505.627 104.034 504.285 106.017 501.602Z" fill="#141D40"/>
<path d="M154.185 496.782V494.611H169.343V496.782H162.988V514.822H160.54V496.782H154.185ZM176.208 515.137C174.84 515.137 173.639 514.812 172.606 514.16C171.58 513.509 170.777 512.598 170.198 511.427C169.626 510.256 169.34 508.887 169.34 507.322C169.34 505.743 169.626 504.364 170.198 503.187C170.777 502.009 171.58 501.095 172.606 500.443C173.639 499.792 174.84 499.466 176.208 499.466C177.576 499.466 178.774 499.792 179.8 500.443C180.833 501.095 181.636 502.009 182.208 503.187C182.787 504.364 183.076 505.743 183.076 507.322C183.076 508.887 182.787 510.256 182.208 511.427C181.636 512.598 180.833 513.509 179.8 514.16C178.774 514.812 177.576 515.137 176.208 515.137ZM176.208 513.045C177.248 513.045 178.103 512.779 178.774 512.246C179.445 511.713 179.942 511.012 180.264 510.144C180.586 509.276 180.748 508.335 180.748 507.322C180.748 506.308 180.586 505.364 180.264 504.489C179.942 503.614 179.445 502.907 178.774 502.368C178.103 501.828 177.248 501.558 176.208 501.558C175.169 501.558 174.313 501.828 173.642 502.368C172.971 502.907 172.474 503.614 172.152 504.489C171.83 505.364 171.669 506.308 171.669 507.322C171.669 508.335 171.83 509.276 172.152 510.144C172.474 511.012 172.971 511.713 173.642 512.246C174.313 512.779 175.169 513.045 176.208 513.045ZM192.668 499.664V501.637H184.813V499.664H192.668ZM187.102 496.032H189.431V510.48C189.431 511.137 189.526 511.631 189.717 511.96C189.915 512.282 190.165 512.499 190.467 512.611C190.776 512.716 191.102 512.769 191.444 512.769C191.701 512.769 191.911 512.756 192.076 512.73C192.24 512.697 192.372 512.67 192.471 512.651L192.944 514.743C192.786 514.802 192.566 514.861 192.283 514.92C192 514.986 191.642 515.019 191.207 515.019C190.549 515.019 189.905 514.878 189.273 514.595C188.648 514.312 188.128 513.881 187.714 513.302C187.306 512.723 187.102 511.993 187.102 511.111V496.032ZM200.076 515.177C199.115 515.177 198.244 514.996 197.461 514.634C196.678 514.266 196.056 513.736 195.596 513.045C195.135 512.348 194.905 511.506 194.905 510.519C194.905 509.651 195.076 508.947 195.418 508.407C195.76 507.861 196.217 507.433 196.79 507.124C197.362 506.815 197.994 506.585 198.684 506.433C199.382 506.276 200.082 506.151 200.786 506.058C201.707 505.94 202.454 505.851 203.027 505.792C203.606 505.726 204.027 505.618 204.29 505.466C204.559 505.315 204.694 505.052 204.694 504.677V504.598C204.694 503.624 204.428 502.868 203.895 502.328C203.369 501.789 202.569 501.519 201.497 501.519C200.385 501.519 199.513 501.762 198.882 502.249C198.25 502.736 197.806 503.256 197.55 503.808L195.339 503.019C195.734 502.098 196.26 501.381 196.918 500.868C197.582 500.348 198.306 499.986 199.089 499.782C199.879 499.572 200.655 499.466 201.418 499.466C201.905 499.466 202.464 499.526 203.096 499.644C203.734 499.756 204.349 499.989 204.941 500.345C205.54 500.7 206.036 501.236 206.431 501.953C206.826 502.67 207.023 503.631 207.023 504.835V514.822H204.694V512.769H204.576C204.418 513.098 204.155 513.45 203.786 513.825C203.418 514.2 202.928 514.519 202.316 514.782C201.704 515.045 200.957 515.177 200.076 515.177ZM200.431 513.085C201.352 513.085 202.129 512.904 202.76 512.542C203.398 512.18 203.879 511.713 204.201 511.141C204.53 510.568 204.694 509.966 204.694 509.335V507.203C204.596 507.322 204.379 507.43 204.043 507.529C203.714 507.621 203.332 507.703 202.898 507.776C202.471 507.841 202.053 507.901 201.645 507.953C201.244 507.999 200.918 508.039 200.668 508.072C200.063 508.151 199.497 508.279 198.971 508.457C198.451 508.628 198.03 508.887 197.707 509.236C197.392 509.578 197.234 510.045 197.234 510.637C197.234 511.447 197.533 512.058 198.132 512.473C198.737 512.881 199.504 513.085 200.431 513.085ZM213.047 494.611V514.822H210.718V494.611H213.047ZM224.333 514.822V494.611H226.662V502.072H226.859C227.03 501.808 227.267 501.473 227.57 501.065C227.879 500.651 228.32 500.282 228.892 499.96C229.471 499.631 230.254 499.466 231.241 499.466C232.517 499.466 233.642 499.785 234.616 500.424C235.589 501.062 236.349 501.966 236.895 503.137C237.441 504.308 237.714 505.69 237.714 507.282C237.714 508.887 237.441 510.279 236.895 511.457C236.349 512.628 235.593 513.535 234.626 514.18C233.659 514.818 232.543 515.137 231.28 515.137C230.307 515.137 229.527 514.976 228.941 514.654C228.356 514.325 227.905 513.953 227.589 513.539C227.274 513.118 227.03 512.769 226.859 512.493H226.583V514.822H224.333ZM226.622 507.243C226.622 508.387 226.79 509.397 227.126 510.272C227.461 511.141 227.951 511.822 228.596 512.315C229.241 512.802 230.03 513.045 230.964 513.045C231.938 513.045 232.751 512.789 233.402 512.276C234.06 511.756 234.553 511.058 234.882 510.183C235.218 509.302 235.386 508.322 235.386 507.243C235.386 506.177 235.221 505.216 234.892 504.361C234.57 503.499 234.08 502.818 233.422 502.318C232.77 501.812 231.951 501.558 230.964 501.558C230.017 501.558 229.221 501.799 228.576 502.279C227.932 502.753 227.445 503.417 227.116 504.272C226.787 505.121 226.622 506.111 226.622 507.243ZM246.879 515.137C245.511 515.137 244.31 514.812 243.277 514.16C242.251 513.509 241.448 512.598 240.869 511.427C240.297 510.256 240.011 508.887 240.011 507.322C240.011 505.743 240.297 504.364 240.869 503.187C241.448 502.009 242.251 501.095 243.277 500.443C244.31 499.792 245.511 499.466 246.879 499.466C248.247 499.466 249.445 499.792 250.471 500.443C251.504 501.095 252.307 502.009 252.879 503.187C253.458 504.364 253.747 505.743 253.747 507.322C253.747 508.887 253.458 510.256 252.879 511.427C252.307 512.598 251.504 513.509 250.471 514.16C249.445 514.812 248.247 515.137 246.879 515.137ZM246.879 513.045C247.919 513.045 248.774 512.779 249.445 512.246C250.116 511.713 250.613 511.012 250.935 510.144C251.257 509.276 251.419 508.335 251.419 507.322C251.419 506.308 251.257 505.364 250.935 504.489C250.613 503.614 250.116 502.907 249.445 502.368C248.774 501.828 247.919 501.558 246.879 501.558C245.84 501.558 244.984 501.828 244.313 502.368C243.642 502.907 243.146 503.614 242.823 504.489C242.501 505.364 242.34 506.308 242.34 507.322C242.34 508.335 242.501 509.276 242.823 510.144C243.146 511.012 243.642 511.713 244.313 512.246C244.984 512.779 245.84 513.045 246.879 513.045ZM259.076 505.703V514.822H256.747V499.664H258.997V502.032H259.194C259.549 501.262 260.089 500.644 260.813 500.177C261.536 499.703 262.47 499.466 263.615 499.466C264.642 499.466 265.54 499.677 266.309 500.098C267.079 500.512 267.678 501.144 268.105 501.993C268.533 502.835 268.747 503.901 268.747 505.19V514.822H266.418V505.348C266.418 504.157 266.109 503.23 265.49 502.565C264.872 501.894 264.023 501.558 262.944 501.558C262.201 501.558 261.536 501.72 260.951 502.042C260.372 502.364 259.915 502.835 259.579 503.453C259.244 504.072 259.076 504.822 259.076 505.703ZM281.999 508.624V499.664H284.328V514.822H281.999V512.256H281.841C281.486 513.026 280.934 513.68 280.184 514.22C279.434 514.753 278.486 515.019 277.341 515.019C276.394 515.019 275.552 514.812 274.815 514.397C274.078 513.976 273.499 513.345 273.078 512.503C272.657 511.654 272.447 510.585 272.447 509.295V499.664H274.776V509.137C274.776 510.243 275.085 511.124 275.703 511.782C276.328 512.44 277.124 512.769 278.091 512.769C278.67 512.769 279.259 512.621 279.858 512.325C280.463 512.029 280.97 511.575 281.378 510.963C281.792 510.351 281.999 509.572 281.999 508.624ZM298.775 503.058L296.683 503.651C296.551 503.302 296.357 502.963 296.101 502.634C295.851 502.299 295.509 502.022 295.074 501.805C294.64 501.588 294.084 501.48 293.407 501.48C292.479 501.48 291.706 501.693 291.088 502.121C290.476 502.542 290.17 503.078 290.17 503.73C290.17 504.308 290.38 504.766 290.801 505.101C291.222 505.437 291.88 505.716 292.775 505.94L295.025 506.493C296.38 506.822 297.39 507.325 298.055 508.003C298.719 508.674 299.051 509.539 299.051 510.598C299.051 511.466 298.801 512.243 298.301 512.927C297.808 513.611 297.117 514.151 296.229 514.545C295.341 514.94 294.308 515.137 293.13 515.137C291.584 515.137 290.305 514.802 289.291 514.131C288.278 513.46 287.637 512.48 287.367 511.19L289.578 510.637C289.788 511.453 290.186 512.065 290.772 512.473C291.364 512.881 292.137 513.085 293.091 513.085C294.176 513.085 295.038 512.855 295.676 512.394C296.321 511.927 296.643 511.368 296.643 510.716C296.643 510.19 296.459 509.749 296.091 509.394C295.722 509.032 295.157 508.762 294.393 508.585L291.867 507.993C290.479 507.664 289.459 507.154 288.808 506.463C288.163 505.766 287.841 504.894 287.841 503.848C287.841 502.993 288.081 502.236 288.561 501.578C289.048 500.92 289.709 500.404 290.545 500.029C291.387 499.654 292.341 499.466 293.407 499.466C294.907 499.466 296.084 499.795 296.939 500.453C297.801 501.111 298.413 501.98 298.775 503.058Z" fill="#141D40"/>
<path d="M318.03 511.427V498.085H320.684V511.427H318.03ZM312.691 506.078V503.433H326.033V506.078H312.691ZM336.239 517.348V492.085H337.857V517.348H336.239ZM341.301 499.92C341.196 498.986 340.762 498.262 339.999 497.749C339.236 497.23 338.275 496.97 337.117 496.97C336.288 496.97 335.571 497.101 334.966 497.364C334.361 497.621 333.89 497.976 333.555 498.43C333.226 498.878 333.061 499.387 333.061 499.96C333.061 500.44 333.173 500.855 333.397 501.203C333.627 501.552 333.926 501.845 334.295 502.082C334.67 502.312 335.071 502.506 335.499 502.664C335.926 502.815 336.338 502.94 336.732 503.039L338.706 503.552C339.351 503.71 340.012 503.924 340.689 504.193C341.367 504.463 341.995 504.818 342.574 505.259C343.153 505.7 343.62 506.246 343.976 506.897C344.338 507.549 344.518 508.328 344.518 509.236C344.518 510.381 344.222 511.397 343.63 512.285C343.045 513.174 342.193 513.874 341.074 514.387C339.963 514.901 338.617 515.157 337.038 515.157C335.525 515.157 334.216 514.917 333.111 514.437C332.005 513.957 331.14 513.276 330.515 512.394C329.89 511.506 329.545 510.453 329.479 509.236H332.538C332.597 509.966 332.834 510.575 333.249 511.062C333.67 511.542 334.206 511.901 334.857 512.137C335.515 512.368 336.236 512.483 337.018 512.483C337.88 512.483 338.647 512.348 339.318 512.078C339.995 511.802 340.528 511.42 340.916 510.933C341.305 510.44 341.499 509.864 341.499 509.207C341.499 508.608 341.328 508.118 340.986 507.736C340.65 507.355 340.193 507.039 339.614 506.789C339.041 506.539 338.393 506.318 337.67 506.128L335.282 505.476C333.663 505.035 332.38 504.387 331.433 503.532C330.492 502.677 330.022 501.545 330.022 500.137C330.022 498.973 330.338 497.957 330.969 497.088C331.601 496.22 332.456 495.545 333.535 495.065C334.614 494.578 335.831 494.335 337.186 494.335C338.555 494.335 339.762 494.575 340.808 495.055C341.861 495.535 342.689 496.197 343.295 497.039C343.9 497.874 344.216 498.835 344.242 499.92H341.301ZM354.386 515.098C353.485 515.085 352.597 514.92 351.722 514.605C350.853 514.289 350.064 513.762 349.353 513.026C348.643 512.289 348.074 511.299 347.646 510.055C347.225 508.812 347.014 507.259 347.014 505.397C347.014 503.634 347.189 502.068 347.537 500.7C347.893 499.332 348.403 498.177 349.067 497.236C349.732 496.289 350.534 495.568 351.475 495.075C352.416 494.582 353.472 494.335 354.643 494.335C355.847 494.335 356.916 494.572 357.85 495.045C358.784 495.519 359.541 496.174 360.12 497.009C360.705 497.845 361.077 498.795 361.235 499.861H358.225C358.021 499.019 357.616 498.332 357.011 497.799C356.406 497.266 355.616 496.999 354.643 496.999C353.162 496.999 352.008 497.644 351.179 498.933C350.357 500.223 349.942 502.016 349.936 504.312H350.084C350.432 503.739 350.86 503.253 351.366 502.851C351.88 502.443 352.452 502.131 353.084 501.914C353.722 501.69 354.393 501.578 355.097 501.578C356.268 501.578 357.327 501.864 358.274 502.437C359.228 503.003 359.988 503.785 360.554 504.785C361.12 505.785 361.403 506.93 361.403 508.22C361.403 509.509 361.11 510.677 360.524 511.723C359.945 512.769 359.13 513.598 358.077 514.21C357.024 514.815 355.794 515.111 354.386 515.098ZM354.376 512.532C355.153 512.532 355.847 512.341 356.459 511.96C357.07 511.578 357.554 511.065 357.909 510.42C358.264 509.776 358.442 509.055 358.442 508.259C358.442 507.483 358.268 506.776 357.919 506.137C357.577 505.499 357.103 504.993 356.498 504.618C355.899 504.243 355.215 504.055 354.445 504.055C353.86 504.055 353.317 504.167 352.817 504.391C352.324 504.614 351.889 504.924 351.514 505.318C351.139 505.713 350.843 506.167 350.626 506.68C350.416 507.187 350.311 507.723 350.311 508.289C350.311 509.045 350.485 509.746 350.834 510.391C351.189 511.035 351.672 511.555 352.284 511.95C352.903 512.338 353.6 512.532 354.376 512.532ZM371.112 515.098C369.876 515.098 368.764 514.861 367.777 514.387C366.797 513.907 366.014 513.249 365.428 512.414C364.843 511.578 364.53 510.624 364.491 509.552H367.451C367.524 510.42 367.908 511.134 368.606 511.693C369.303 512.253 370.139 512.532 371.112 512.532C371.889 512.532 372.576 512.355 373.175 511.999C373.78 511.637 374.254 511.141 374.596 510.509C374.945 509.878 375.119 509.157 375.119 508.348C375.119 507.526 374.941 506.792 374.586 506.147C374.231 505.503 373.741 504.996 373.116 504.628C372.497 504.259 371.787 504.072 370.984 504.065C370.372 504.065 369.757 504.17 369.139 504.381C368.52 504.591 368.02 504.868 367.639 505.21L364.846 504.795L365.981 494.611H377.093V497.226H368.517L367.876 502.881H367.994C368.389 502.499 368.912 502.18 369.563 501.924C370.221 501.667 370.925 501.539 371.675 501.539C372.905 501.539 374.001 501.832 374.961 502.417C375.928 503.003 376.688 503.802 377.241 504.815C377.8 505.822 378.076 506.98 378.07 508.289C378.076 509.598 377.78 510.766 377.182 511.792C376.589 512.818 375.767 513.628 374.714 514.22C373.668 514.805 372.468 515.098 371.112 515.098ZM388.155 515.098C386.799 515.098 385.589 514.864 384.523 514.397C383.464 513.93 382.625 513.282 382.006 512.453C381.395 511.618 381.066 510.651 381.02 509.552H384.118C384.158 510.151 384.358 510.67 384.72 511.111C385.089 511.545 385.569 511.881 386.161 512.118C386.753 512.355 387.411 512.473 388.135 512.473C388.931 512.473 389.635 512.335 390.247 512.058C390.865 511.782 391.349 511.397 391.697 510.904C392.046 510.404 392.22 509.828 392.22 509.177C392.22 508.499 392.046 507.904 391.697 507.391C391.355 506.871 390.852 506.463 390.187 506.167C389.53 505.871 388.733 505.723 387.799 505.723H386.092V503.236H387.799C388.549 503.236 389.207 503.101 389.773 502.832C390.345 502.562 390.793 502.187 391.115 501.707C391.437 501.22 391.599 500.651 391.599 499.999C391.599 499.374 391.457 498.832 391.174 498.371C390.898 497.904 390.503 497.539 389.99 497.276C389.483 497.012 388.885 496.881 388.194 496.881C387.536 496.881 386.921 497.003 386.349 497.246C385.783 497.483 385.322 497.825 384.967 498.272C384.612 498.713 384.421 499.243 384.395 499.861H381.444C381.477 498.769 381.799 497.808 382.411 496.98C383.03 496.151 383.845 495.503 384.858 495.035C385.872 494.568 386.997 494.335 388.233 494.335C389.53 494.335 390.648 494.588 391.589 495.095C392.536 495.595 393.266 496.262 393.78 497.098C394.299 497.933 394.556 498.848 394.549 499.841C394.556 500.973 394.24 501.933 393.602 502.723C392.97 503.512 392.128 504.042 391.076 504.312V504.47C392.418 504.674 393.457 505.207 394.194 506.068C394.937 506.93 395.306 507.999 395.299 509.276C395.306 510.387 394.997 511.384 394.372 512.266C393.753 513.147 392.908 513.841 391.835 514.348C390.763 514.848 389.536 515.098 388.155 515.098ZM399.86 515.009C399.321 515.009 398.857 514.818 398.469 514.437C398.081 514.049 397.887 513.582 397.887 513.035C397.887 512.496 398.081 512.035 398.469 511.654C398.857 511.266 399.321 511.072 399.86 511.072C400.4 511.072 400.864 511.266 401.252 511.654C401.64 512.035 401.834 512.496 401.834 513.035C401.834 513.397 401.742 513.73 401.558 514.032C401.38 514.328 401.143 514.565 400.847 514.743C400.551 514.92 400.222 515.009 399.86 515.009ZM411.667 494.335C412.568 494.341 413.457 494.506 414.332 494.828C415.207 495.151 415.996 495.677 416.7 496.407C417.411 497.137 417.976 498.124 418.397 499.368C418.825 500.605 419.042 502.144 419.049 503.986C419.049 505.756 418.871 507.332 418.516 508.713C418.161 510.088 417.651 511.249 416.986 512.197C416.328 513.144 415.529 513.864 414.588 514.358C413.647 514.851 412.588 515.098 411.411 515.098C410.207 515.098 409.138 514.861 408.203 514.387C407.269 513.914 406.509 513.259 405.924 512.424C405.338 511.582 404.973 510.614 404.828 509.522H407.838C408.036 510.391 408.437 511.095 409.042 511.634C409.654 512.167 410.443 512.433 411.411 512.433C412.891 512.433 414.045 511.789 414.874 510.499C415.703 509.203 416.121 507.394 416.128 505.072H415.97C415.628 505.637 415.2 506.124 414.687 506.532C414.18 506.94 413.611 507.256 412.98 507.48C412.348 507.703 411.674 507.815 410.957 507.815C409.792 507.815 408.733 507.529 407.779 506.957C406.825 506.384 406.065 505.598 405.499 504.598C404.934 503.598 404.651 502.457 404.651 501.174C404.651 499.897 404.94 498.739 405.519 497.7C406.105 496.66 406.92 495.838 407.966 495.233C409.019 494.621 410.253 494.322 411.667 494.335ZM411.677 496.901C410.907 496.901 410.213 497.091 409.595 497.473C408.983 497.848 408.499 498.358 408.144 499.003C407.789 499.641 407.611 500.351 407.611 501.134C407.611 501.917 407.782 502.628 408.124 503.266C408.473 503.897 408.947 504.401 409.545 504.776C410.151 505.144 410.841 505.328 411.618 505.328C412.197 505.328 412.736 505.216 413.236 504.993C413.736 504.769 414.174 504.46 414.549 504.065C414.924 503.664 415.216 503.21 415.427 502.703C415.638 502.197 415.743 501.664 415.743 501.105C415.743 500.361 415.565 499.67 415.21 499.032C414.861 498.394 414.381 497.881 413.769 497.493C413.157 497.098 412.46 496.901 411.677 496.901ZM429.094 515.157C427.535 515.151 426.203 514.739 425.097 513.924C423.992 513.108 423.147 511.92 422.561 510.361C421.976 508.802 421.683 506.924 421.683 504.726C421.683 502.535 421.976 500.664 422.561 499.111C423.153 497.558 424.002 496.374 425.107 495.558C426.219 494.743 427.548 494.335 429.094 494.335C430.64 494.335 431.966 494.746 433.071 495.568C434.176 496.384 435.022 497.568 435.607 499.121C436.199 500.667 436.495 502.535 436.495 504.726C436.495 506.93 436.203 508.812 435.617 510.371C435.032 511.924 434.186 513.111 433.081 513.933C431.976 514.749 430.647 515.157 429.094 515.157ZM429.094 512.522C430.462 512.522 431.532 511.855 432.301 510.519C433.078 509.183 433.466 507.253 433.466 504.726C433.466 503.049 433.288 501.631 432.933 500.473C432.584 499.308 432.081 498.427 431.423 497.828C430.772 497.223 429.995 496.92 429.094 496.92C427.732 496.92 426.663 497.591 425.887 498.933C425.111 500.276 424.719 502.207 424.712 504.726C424.712 506.41 424.887 507.835 425.236 508.999C425.591 510.157 426.094 511.035 426.745 511.634C427.397 512.226 428.18 512.522 429.094 512.522Z" fill="#0B8AFF"/>
</svg>
