<svg width="616" height="616" viewBox="0 0 616 616" fill="none" xmlns="http://www.w3.org/2000/svg">
<rect width="616" height="616" fill="white"/>
<path d="M70.3181 112.957V78.8696H83.1008C85.7194 78.8696 87.9164 79.3578 89.6918 80.3343C91.4782 81.3107 92.8264 82.6533 93.7363 84.3621C94.6573 86.0598 95.1177 87.9905 95.1177 90.1542C95.1177 92.3401 94.6573 94.282 93.7363 95.9796C92.8153 97.6773 91.4561 99.0144 89.6585 99.9908C87.8609 100.956 85.6473 101.439 83.0175 101.439H74.5457V96.3625H82.1853C83.7166 96.3625 84.9704 96.0961 85.9469 95.5635C86.9233 95.0309 87.6446 94.2986 88.1106 93.3665C88.5877 92.4345 88.8263 91.3637 88.8263 90.1542C88.8263 88.9448 88.5877 87.8796 88.1106 86.9586C87.6446 86.0376 86.9178 85.3219 85.9302 84.8115C84.9538 84.29 83.6944 84.0292 82.152 84.0292H76.4931V112.957H70.3181ZM100.215 112.957V87.3913H106.057V91.6522H106.323C106.789 90.1764 107.588 89.0391 108.72 88.2402C109.863 87.4302 111.167 87.0252 112.631 87.0252C112.964 87.0252 113.336 87.0418 113.747 87.0751C114.168 87.0973 114.518 87.1361 114.795 87.1916V92.7341C114.54 92.6453 114.135 92.5676 113.58 92.501C113.036 92.4234 112.509 92.3845 111.999 92.3845C110.9 92.3845 109.913 92.6231 109.036 93.1002C108.171 93.5663 107.488 94.2154 106.989 95.0476C106.49 95.8798 106.24 96.8396 106.24 97.927V112.957H100.215ZM128.897 113.456C126.4 113.456 124.236 112.907 122.406 111.808C120.575 110.71 119.154 109.173 118.145 107.198C117.146 105.223 116.647 102.915 116.647 100.274C116.647 97.6329 117.146 95.3194 118.145 93.3332C119.154 91.3471 120.575 89.8047 122.406 88.7062C124.236 87.6077 126.4 87.0584 128.897 87.0584C131.393 87.0584 133.557 87.6077 135.388 88.7062C137.219 89.8047 138.634 91.3471 139.632 93.3332C140.642 95.3194 141.147 97.6329 141.147 100.274C141.147 102.915 140.642 105.223 139.632 107.198C138.634 109.173 137.219 110.71 135.388 111.808C133.557 112.907 131.393 113.456 128.897 113.456ZM128.93 108.629C130.284 108.629 131.416 108.257 132.325 107.514C133.235 106.759 133.912 105.75 134.356 104.485C134.811 103.22 135.038 101.811 135.038 100.257C135.038 98.6926 134.811 97.2779 134.356 96.0129C133.912 94.7369 133.235 93.7216 132.325 92.9671C131.416 92.2125 130.284 91.8353 128.93 91.8353C127.543 91.8353 126.389 92.2125 125.468 92.9671C124.558 93.7216 123.876 94.7369 123.421 96.0129C122.977 97.2779 122.755 98.6926 122.755 100.257C122.755 101.811 122.977 103.22 123.421 104.485C123.876 105.75 124.558 106.759 125.468 107.514C126.389 108.257 127.543 108.629 128.93 108.629ZM157.379 123.076C155.215 123.076 153.357 122.782 151.803 122.194C150.25 121.617 149.001 120.84 148.058 119.864C147.115 118.887 146.46 117.806 146.094 116.618L151.52 115.303C151.764 115.803 152.119 116.296 152.585 116.785C153.051 117.284 153.678 117.695 154.466 118.016C155.265 118.349 156.269 118.516 157.479 118.516C159.188 118.516 160.602 118.1 161.723 117.267C162.844 116.446 163.404 115.093 163.404 113.206V108.363H163.104C162.794 108.984 162.339 109.622 161.74 110.277C161.152 110.932 160.369 111.481 159.393 111.925C158.427 112.368 157.212 112.59 155.748 112.59C153.784 112.59 152.003 112.13 150.405 111.209C148.818 110.277 147.553 108.89 146.61 107.048C145.678 105.195 145.212 102.876 145.212 100.091C145.212 97.2834 145.678 94.9144 146.61 92.9837C147.553 91.0419 148.824 89.5717 150.422 88.5731C152.019 87.5633 153.8 87.0584 155.764 87.0584C157.262 87.0584 158.494 87.3137 159.459 87.8241C160.436 88.3234 161.213 88.9281 161.79 89.6383C162.367 90.3373 162.805 90.9975 163.104 91.6189H163.437V87.3913H169.379V113.373C169.379 115.559 168.858 117.367 167.815 118.799C166.772 120.23 165.346 121.301 163.537 122.011C161.729 122.721 159.676 123.076 157.379 123.076ZM157.429 107.863C158.705 107.863 159.792 107.553 160.691 106.931C161.59 106.31 162.272 105.417 162.738 104.252C163.204 103.087 163.437 101.689 163.437 100.057C163.437 98.4485 163.204 97.0393 162.738 95.8298C162.283 94.6204 161.606 93.6828 160.708 93.017C159.82 92.3401 158.727 92.0017 157.429 92.0017C156.086 92.0017 154.965 92.3512 154.067 93.0503C153.168 93.7493 152.491 94.7091 152.036 95.9297C151.581 97.1392 151.354 98.5151 151.354 100.057C151.354 101.622 151.581 102.992 152.036 104.168C152.502 105.334 153.185 106.243 154.083 106.898C154.993 107.542 156.108 107.863 157.429 107.863ZM175.554 112.957V87.3913H181.396V91.6522H181.662C182.129 90.1764 182.927 89.0391 184.059 88.2402C185.202 87.4302 186.506 87.0252 187.971 87.0252C188.303 87.0252 188.675 87.0418 189.086 87.0751C189.507 87.0973 189.857 87.1361 190.134 87.1916V92.7341C189.879 92.6453 189.474 92.5676 188.919 92.501C188.376 92.4234 187.849 92.3845 187.338 92.3845C186.24 92.3845 185.252 92.6231 184.375 93.1002C183.51 93.5663 182.828 94.2154 182.328 95.0476C181.829 95.8798 181.579 96.8396 181.579 97.927V112.957H175.554ZM204.402 113.456C201.839 113.456 199.626 112.923 197.761 111.858C195.908 110.782 194.483 109.262 193.484 107.298C192.485 105.322 191.986 102.998 191.986 100.324C191.986 97.694 192.485 95.386 193.484 93.3998C194.494 91.4025 195.903 89.8491 197.711 88.7395C199.52 87.6188 201.645 87.0584 204.086 87.0584C205.662 87.0584 207.149 87.3137 208.547 87.8241C209.956 88.3234 211.199 89.1001 212.275 90.1542C213.362 91.2084 214.217 92.551 214.838 94.1821C215.46 95.8021 215.77 97.7328 215.77 99.9742V101.822H194.815V97.7606H209.995C209.984 96.6066 209.734 95.5802 209.246 94.6814C208.758 93.7715 208.075 93.0558 207.199 92.5343C206.333 92.0128 205.323 91.7521 204.169 91.7521C202.938 91.7521 201.856 92.0517 200.924 92.6508C199.992 93.2389 199.265 94.0156 198.743 94.981C198.233 95.9353 197.972 96.9838 197.961 98.1267V101.672C197.961 103.159 198.233 104.435 198.777 105.5C199.32 106.554 200.08 107.364 201.057 107.93C202.033 108.485 203.176 108.762 204.486 108.762C205.362 108.762 206.156 108.64 206.866 108.396C207.576 108.141 208.192 107.769 208.713 107.281C209.235 106.793 209.629 106.188 209.895 105.467L215.521 106.099C215.166 107.586 214.489 108.884 213.49 109.994C212.502 111.092 211.238 111.947 209.695 112.557C208.153 113.156 206.389 113.456 204.402 113.456ZM241.073 94.1488L235.581 94.748C235.425 94.1932 235.154 93.6717 234.765 93.1834C234.388 92.6952 233.878 92.3013 233.234 92.0017C232.59 91.7021 231.803 91.5523 230.871 91.5523C229.617 91.5523 228.563 91.8242 227.708 92.3679C226.865 92.9116 226.449 93.6162 226.46 94.4817C226.449 95.2251 226.721 95.8298 227.275 96.2959C227.841 96.7619 228.773 97.1447 230.072 97.4443L234.432 98.3764C236.851 98.8979 238.649 99.7245 239.825 100.856C241.012 101.988 241.611 103.469 241.623 105.3C241.611 106.909 241.14 108.33 240.208 109.561C239.287 110.782 238.005 111.736 236.363 112.424C234.721 113.112 232.835 113.456 230.704 113.456C227.575 113.456 225.056 112.801 223.148 111.492C221.239 110.171 220.102 108.335 219.736 105.983L225.611 105.417C225.877 106.571 226.443 107.442 227.309 108.03C228.174 108.618 229.3 108.912 230.687 108.912C232.119 108.912 233.267 108.618 234.133 108.03C235.009 107.442 235.448 106.715 235.448 105.85C235.448 105.117 235.165 104.512 234.599 104.035C234.044 103.558 233.179 103.192 232.002 102.937L227.642 102.021C225.189 101.511 223.375 100.651 222.199 99.4416C221.023 98.221 220.44 96.6787 220.451 94.8146C220.44 93.2389 220.867 91.8741 221.733 90.7201C222.61 89.555 223.825 88.6563 225.378 88.0238C226.943 87.3802 228.746 87.0584 230.787 87.0584C233.783 87.0584 236.141 87.6965 237.861 88.9725C239.592 90.2485 240.663 91.974 241.073 94.1488ZM266.797 94.1488L261.304 94.748C261.149 94.1932 260.877 93.6717 260.489 93.1834C260.111 92.6952 259.601 92.3013 258.957 92.0017C258.314 91.7021 257.526 91.5523 256.594 91.5523C255.34 91.5523 254.286 91.8242 253.432 92.3679C252.588 92.9116 252.172 93.6162 252.183 94.4817C252.172 95.2251 252.444 95.8298 252.999 96.2959C253.565 96.7619 254.497 97.1447 255.795 97.4443L260.156 98.3764C262.575 98.8979 264.372 99.7245 265.548 100.856C266.736 101.988 267.335 103.469 267.346 105.3C267.335 106.909 266.863 108.33 265.931 109.561C265.01 110.782 263.729 111.736 262.086 112.424C260.444 113.112 258.558 113.456 256.427 113.456C253.298 113.456 250.78 112.801 248.871 111.492C246.963 110.171 245.825 108.335 245.459 105.983L251.334 105.417C251.601 106.571 252.167 107.442 253.032 108.03C253.898 108.618 255.024 108.912 256.411 108.912C257.842 108.912 258.991 108.618 259.856 108.03C260.733 107.442 261.171 106.715 261.171 105.85C261.171 105.117 260.888 104.512 260.322 104.035C259.767 103.558 258.902 103.192 257.726 102.937L253.365 102.021C250.913 101.511 249.099 100.651 247.922 99.4416C246.746 98.221 246.164 96.6787 246.175 94.8146C246.164 93.2389 246.591 91.8741 247.456 90.7201C248.333 89.555 249.548 88.6563 251.101 88.0238C252.666 87.3802 254.469 87.0584 256.511 87.0584C259.507 87.0584 261.864 87.6965 263.584 88.9725C265.315 90.2485 266.386 91.974 266.797 94.1488Z" fill="#141D40"/>
<path d="M102.142 173.478V241.652H87.7278V187.16H87.3283L71.7162 196.946V184.164L88.5933 173.478H102.142ZM148.171 170.283L126.2 251.905H113.984L135.954 170.283H148.171ZM184.529 173.478V241.652H170.116V187.16H169.716L154.104 196.946V184.164L170.981 173.478H184.529ZM200.732 241.652V231.266L224.999 208.797C227.063 206.8 228.794 205.002 230.192 203.404C231.613 201.806 232.689 200.242 233.421 198.711C234.154 197.157 234.52 195.482 234.52 193.684C234.52 191.687 234.065 189.967 233.155 188.525C232.245 187.06 231.002 185.939 229.427 185.162C227.851 184.363 226.065 183.964 224.067 183.964C221.981 183.964 220.162 184.386 218.608 185.229C217.055 186.072 215.856 187.282 215.013 188.857C214.17 190.433 213.748 192.308 213.748 194.483H200.067C200.067 190.022 201.076 186.15 203.096 182.866C205.115 179.581 207.945 177.04 211.584 175.243C215.224 173.445 219.418 172.546 224.167 172.546C229.049 172.546 233.299 173.412 236.916 175.143C240.556 176.851 243.385 179.226 245.405 182.266C247.424 185.307 248.434 188.791 248.434 192.719C248.434 195.293 247.924 197.834 246.903 200.342C245.904 202.849 244.118 205.635 241.544 208.697C238.969 211.737 235.341 215.388 230.658 219.649L220.705 229.402V229.868H249.333V241.652H200.732Z" fill="#141D40"/>
<path d="M59.2434 540.174H54.5641L65.0783 510.957H70.1714L80.6857 540.174H76.0063L67.7461 516.264H67.5179L59.2434 540.174ZM60.0281 528.732H75.2074V532.442H60.0281V528.732ZM93.4397 540.616C91.3188 540.616 89.4927 540.136 87.9615 539.175C86.4397 538.205 85.2699 536.869 84.452 535.166C83.634 533.464 83.2251 531.514 83.2251 529.317C83.2251 527.092 83.6436 525.128 84.4805 523.425C85.3175 521.713 86.4968 520.377 88.0186 519.416C89.5403 518.456 91.3331 517.976 93.3969 517.976C95.0614 517.976 96.545 518.285 97.848 518.903C99.151 519.512 100.202 520.368 101.001 521.471C101.809 522.574 102.29 523.863 102.442 525.337H98.2903C98.062 524.31 97.5389 523.425 96.721 522.683C95.9126 521.942 94.8283 521.571 93.4683 521.571C92.2794 521.571 91.238 521.885 90.344 522.512C89.4595 523.13 88.7699 524.015 88.2753 525.166C87.7808 526.307 87.5335 527.658 87.5335 529.217C87.5335 530.815 87.776 532.194 88.2611 533.355C88.7461 534.515 89.4309 535.414 90.3154 536.051C91.2094 536.688 92.2604 537.007 93.4683 537.007C94.2767 537.007 95.009 536.859 95.6653 536.565C96.3311 536.26 96.8874 535.827 97.3345 535.266C97.791 534.705 98.1096 534.03 98.2903 533.241H102.442C102.29 534.658 101.828 535.923 101.058 537.035C100.288 538.148 99.2556 539.023 97.9622 539.66C96.6782 540.298 95.1707 540.616 93.4397 540.616ZM111.269 527.163V540.174H107.003V510.957H111.212V521.827H111.483C111.997 520.648 112.781 519.711 113.837 519.017C114.893 518.323 116.272 517.976 117.974 517.976C119.477 517.976 120.789 518.285 121.912 518.903C123.044 519.521 123.919 520.444 124.537 521.671C125.164 522.888 125.478 524.41 125.478 526.236V540.174H121.213V526.749C121.213 525.142 120.799 523.896 119.972 523.012C119.144 522.118 117.993 521.671 116.519 521.671C115.511 521.671 114.607 521.885 113.808 522.313C113.019 522.741 112.396 523.368 111.94 524.196C111.493 525.014 111.269 526.003 111.269 527.163ZM131.171 540.174V518.261H135.436V540.174H131.171ZM133.325 514.88C132.583 514.88 131.946 514.633 131.413 514.138C130.89 513.634 130.628 513.035 130.628 512.34C130.628 511.637 130.89 511.037 131.413 510.543C131.946 510.039 132.583 509.787 133.325 509.787C134.067 509.787 134.699 510.039 135.222 510.543C135.755 511.037 136.021 511.637 136.021 512.34C136.021 513.035 135.755 513.634 135.222 514.138C134.699 514.633 134.067 514.88 133.325 514.88ZM150.619 540.616C148.46 540.616 146.601 540.155 145.041 539.232C143.491 538.3 142.292 536.993 141.446 535.309C140.609 533.616 140.19 531.633 140.19 529.36C140.19 527.116 140.609 525.137 141.446 523.425C142.292 521.713 143.472 520.377 144.984 519.416C146.506 518.456 148.284 517.976 150.32 517.976C151.556 517.976 152.754 518.18 153.915 518.589C155.075 518.998 156.116 519.64 157.039 520.515C157.961 521.39 158.689 522.527 159.222 523.925C159.754 525.313 160.021 527.001 160.021 528.989V530.501H142.601V527.306H155.841C155.841 526.183 155.612 525.19 155.156 524.324C154.699 523.449 154.057 522.76 153.23 522.255C152.412 521.751 151.451 521.499 150.348 521.499C149.15 521.499 148.103 521.794 147.209 522.384C146.325 522.964 145.64 523.725 145.155 524.666C144.68 525.599 144.442 526.611 144.442 527.705V530.202C144.442 531.666 144.699 532.912 145.212 533.94C145.735 534.967 146.463 535.751 147.395 536.294C148.327 536.826 149.416 537.092 150.662 537.092C151.47 537.092 152.207 536.978 152.873 536.75C153.539 536.512 154.114 536.16 154.599 535.694C155.084 535.228 155.455 534.653 155.712 533.968L159.75 534.696C159.426 535.885 158.846 536.926 158.009 537.82C157.182 538.705 156.14 539.394 154.885 539.889C153.639 540.374 152.217 540.616 150.619 540.616ZM182.872 518.261L174.925 540.174H170.36L162.399 518.261H166.979L172.529 535.124H172.757L178.292 518.261H182.872ZM195.579 540.616C193.42 540.616 191.561 540.155 190.001 539.232C188.451 538.3 187.253 536.993 186.406 535.309C185.569 533.616 185.151 531.633 185.151 529.36C185.151 527.116 185.569 525.137 186.406 523.425C187.253 521.713 188.432 520.377 189.944 519.416C191.466 518.456 193.244 517.976 195.28 517.976C196.516 517.976 197.715 518.18 198.875 518.589C200.035 518.998 201.077 519.64 201.999 520.515C202.922 521.39 203.649 522.527 204.182 523.925C204.715 525.313 204.981 527.001 204.981 528.989V530.501H187.562V527.306H200.801C200.801 526.183 200.573 525.19 200.116 524.324C199.66 523.449 199.018 522.76 198.19 522.255C197.372 521.751 196.412 521.499 195.308 521.499C194.11 521.499 193.064 521.794 192.17 522.384C191.285 522.964 190.6 523.725 190.115 524.666C189.64 525.599 189.402 526.611 189.402 527.705V530.202C189.402 531.666 189.659 532.912 190.172 533.94C190.696 534.967 191.423 535.751 192.355 536.294C193.287 536.826 194.376 537.092 195.622 537.092C196.431 537.092 197.168 536.978 197.833 536.75C198.499 536.512 199.075 536.16 199.56 535.694C200.045 535.228 200.416 534.653 200.672 533.968L204.71 534.696C204.386 535.885 203.806 536.926 202.969 537.82C202.142 538.705 201.1 539.394 199.845 539.889C198.599 540.374 197.177 540.616 195.579 540.616ZM209.714 540.174V518.261H213.808V521.827H214.079C214.536 520.62 215.282 519.678 216.319 519.003C217.356 518.318 218.597 517.976 220.042 517.976C221.507 517.976 222.734 518.318 223.723 519.003C224.722 519.688 225.459 520.629 225.934 521.827H226.163C226.686 520.658 227.518 519.726 228.659 519.031C229.801 518.327 231.161 517.976 232.74 517.976C234.727 517.976 236.349 518.599 237.604 519.844C238.869 521.09 239.502 522.969 239.502 525.48V540.174H235.236V525.879C235.236 524.395 234.832 523.321 234.023 522.655C233.215 521.989 232.25 521.656 231.127 521.656C229.739 521.656 228.659 522.084 227.889 522.94C227.119 523.787 226.733 524.876 226.733 526.207V540.174H222.482V525.608C222.482 524.419 222.111 523.463 221.369 522.741C220.627 522.018 219.662 521.656 218.473 521.656C217.665 521.656 216.918 521.87 216.233 522.298C215.558 522.717 215.011 523.302 214.593 524.053C214.184 524.804 213.979 525.675 213.979 526.664V540.174H209.714ZM254.663 540.616C252.504 540.616 250.645 540.155 249.085 539.232C247.535 538.3 246.336 536.993 245.49 535.309C244.653 533.616 244.235 531.633 244.235 529.36C244.235 527.116 244.653 525.137 245.49 523.425C246.336 521.713 247.516 520.377 249.028 519.416C250.55 518.456 252.328 517.976 254.364 517.976C255.6 517.976 256.798 518.18 257.959 518.589C259.119 518.998 260.161 519.64 261.083 520.515C262.006 521.39 262.733 522.527 263.266 523.925C263.798 525.313 264.065 527.001 264.065 528.989V530.501H246.646V527.306H259.885C259.885 526.183 259.656 525.19 259.2 524.324C258.743 523.449 258.101 522.76 257.274 522.255C256.456 521.751 255.495 521.499 254.392 521.499C253.194 521.499 252.148 521.794 251.254 522.384C250.369 522.964 249.684 523.725 249.199 524.666C248.724 525.599 248.486 526.611 248.486 527.705V530.202C248.486 531.666 248.743 532.912 249.256 533.94C249.779 534.967 250.507 535.751 251.439 536.294C252.371 536.826 253.46 537.092 254.706 537.092C255.514 537.092 256.252 536.978 256.917 536.75C257.583 536.512 258.158 536.16 258.644 535.694C259.129 535.228 259.5 534.653 259.756 533.968L263.794 534.696C263.47 535.885 262.89 536.926 262.053 537.82C261.226 538.705 260.184 539.394 258.929 539.889C257.683 540.374 256.261 540.616 254.663 540.616ZM273.063 527.163V540.174H268.798V518.261H272.892V521.827H273.163C273.667 520.667 274.457 519.735 275.531 519.031C276.616 518.327 277.98 517.976 279.626 517.976C281.119 517.976 282.427 518.289 283.549 518.917C284.671 519.535 285.541 520.458 286.16 521.685C286.778 522.912 287.087 524.429 287.087 526.236V540.174H282.821V526.749C282.821 525.161 282.408 523.92 281.58 523.026C280.753 522.122 279.616 521.671 278.171 521.671C277.181 521.671 276.302 521.885 275.531 522.313C274.77 522.741 274.166 523.368 273.719 524.196C273.282 525.014 273.063 526.003 273.063 527.163ZM303.037 518.261V521.685H291.067V518.261H303.037ZM294.277 513.011H298.543V533.74C298.543 534.567 298.666 535.19 298.914 535.609C299.161 536.018 299.48 536.298 299.87 536.45C300.269 536.593 300.702 536.664 301.168 536.664C301.51 536.664 301.81 536.641 302.067 536.593C302.323 536.546 302.523 536.508 302.666 536.479L303.436 540.003C303.189 540.098 302.837 540.193 302.38 540.288C301.924 540.393 301.353 540.45 300.669 540.459C299.546 540.478 298.5 540.279 297.53 539.86C296.56 539.442 295.775 538.795 295.176 537.92C294.577 537.045 294.277 535.946 294.277 534.624V513.011ZM323.823 523.611L319.957 524.296C319.795 523.801 319.538 523.33 319.186 522.883C318.844 522.436 318.378 522.07 317.788 521.785C317.198 521.499 316.461 521.357 315.577 521.357C314.369 521.357 313.361 521.628 312.552 522.17C311.744 522.702 311.34 523.392 311.34 524.238C311.34 524.971 311.611 525.56 312.153 526.008C312.695 526.455 313.57 526.821 314.778 527.106L318.259 527.905C320.275 528.371 321.778 529.089 322.767 530.059C323.756 531.029 324.251 532.289 324.251 533.84C324.251 535.152 323.87 536.322 323.109 537.349C322.358 538.367 321.307 539.166 319.957 539.746C318.616 540.326 317.06 540.616 315.291 540.616C312.838 540.616 310.836 540.093 309.285 539.047C307.735 537.991 306.784 536.493 306.432 534.553L310.555 533.925C310.812 535 311.34 535.813 312.139 536.365C312.938 536.907 313.979 537.178 315.263 537.178C316.661 537.178 317.779 536.888 318.616 536.308C319.452 535.718 319.871 535 319.871 534.154C319.871 533.469 319.614 532.893 319.101 532.427C318.597 531.961 317.821 531.609 316.775 531.372L313.066 530.558C311.021 530.092 309.509 529.351 308.529 528.333C307.559 527.315 307.074 526.027 307.074 524.467C307.074 523.173 307.435 522.041 308.158 521.071C308.881 520.101 309.88 519.345 311.154 518.803C312.429 518.251 313.889 517.976 315.534 517.976C317.902 517.976 319.766 518.489 321.126 519.516C322.486 520.534 323.385 521.899 323.823 523.611Z" fill="#0B8AFF"/>
<g clip-path="url(#clip0_1321_255)">
<rect x="66.9561" y="308" width="482.087" height="33.4783" rx="16.7391" fill="#0B8AFF" fill-opacity="0.1"/>
<path d="M63.6084 324.739C63.6084 315.494 71.1028 308 80.3475 308H314.695V341.478H80.3475C71.1028 341.478 63.6084 333.984 63.6084 324.739V324.739Z" fill="#0B8AFF"/>
</g>
<defs>
<clipPath id="clip0_1321_255">
<rect x="66.9561" y="308" width="482.087" height="33.4783" rx="16.7391" fill="white"/>
</clipPath>
</defs>
</svg>
