<svg width="185" height="184" viewBox="0 0 185 184" fill="none" xmlns="http://www.w3.org/2000/svg">
<rect width="184" height="184" transform="translate(0.5)" fill="white"/>
<path d="M21.5043 34V23.8182H25.3224C26.1046 23.8182 26.7609 23.964 27.2912 24.2557C27.8248 24.5473 28.2275 24.9484 28.4993 25.4588C28.7744 25.9659 28.9119 26.5426 28.9119 27.1889C28.9119 27.8419 28.7744 28.4219 28.4993 28.929C28.2242 29.4361 27.8182 29.8355 27.2812 30.1271C26.7443 30.4155 26.0831 30.5597 25.2976 30.5597H22.767V29.0433H25.049C25.5064 29.0433 25.8809 28.9638 26.1726 28.8047C26.4643 28.6456 26.6797 28.4268 26.8189 28.1484C26.9614 27.87 27.0327 27.5502 27.0327 27.1889C27.0327 26.8277 26.9614 26.5095 26.8189 26.2344C26.6797 25.9593 26.4626 25.7455 26.1676 25.593C25.8759 25.4373 25.4998 25.3594 25.0391 25.3594H23.3487V34H21.5043ZM30.4345 34V26.3636H32.1795V27.6364H32.2591C32.3983 27.1955 32.6369 26.8558 32.975 26.6172C33.3163 26.3752 33.7058 26.2543 34.1433 26.2543C34.2427 26.2543 34.3538 26.2592 34.4764 26.2692C34.6023 26.2758 34.7067 26.2874 34.7896 26.304V27.9595C34.7134 27.933 34.5924 27.9098 34.4267 27.8899C34.2643 27.8667 34.1068 27.8551 33.9544 27.8551C33.6262 27.8551 33.3313 27.9264 33.0694 28.0689C32.8109 28.2081 32.6071 28.402 32.4579 28.6506C32.3088 28.8991 32.2342 29.1858 32.2342 29.5107V34H30.4345ZM39.0018 34.1491C38.256 34.1491 37.6097 33.9851 37.0629 33.657C36.516 33.3288 36.0917 32.8698 35.7901 32.2798C35.4918 31.6899 35.3427 31.0005 35.3427 30.2116C35.3427 29.4228 35.4918 28.7318 35.7901 28.1385C36.0917 27.5452 36.516 27.0845 37.0629 26.7564C37.6097 26.4283 38.256 26.2642 39.0018 26.2642C39.7475 26.2642 40.3938 26.4283 40.9407 26.7564C41.4876 27.0845 41.9102 27.5452 42.2085 28.1385C42.5101 28.7318 42.6609 29.4228 42.6609 30.2116C42.6609 31.0005 42.5101 31.6899 42.2085 32.2798C41.9102 32.8698 41.4876 33.3288 40.9407 33.657C40.3938 33.9851 39.7475 34.1491 39.0018 34.1491ZM39.0117 32.7074C39.4161 32.7074 39.7541 32.5964 40.0259 32.3743C40.2977 32.1489 40.4999 31.8473 40.6325 31.4695C40.7683 31.0916 40.8363 30.6707 40.8363 30.2067C40.8363 29.7393 40.7683 29.3168 40.6325 28.9389C40.4999 28.5578 40.2977 28.2545 40.0259 28.0291C39.7541 27.8037 39.4161 27.6911 39.0117 27.6911C38.5974 27.6911 38.2527 27.8037 37.9776 28.0291C37.7058 28.2545 37.502 28.5578 37.3661 28.9389C37.2335 29.3168 37.1673 29.7393 37.1673 30.2067C37.1673 30.6707 37.2335 31.0916 37.3661 31.4695C37.502 31.8473 37.7058 32.1489 37.9776 32.3743C38.2527 32.5964 38.5974 32.7074 39.0117 32.7074ZM47.5094 37.0227C46.8631 37.0227 46.3079 36.9349 45.8439 36.7592C45.3799 36.5869 45.007 36.3549 44.7253 36.0632C44.4436 35.7715 44.248 35.4484 44.1387 35.0938L45.7594 34.701C45.8323 34.8501 45.9384 34.9976 46.0776 35.1435C46.2168 35.2926 46.4041 35.4152 46.6394 35.5114C46.878 35.6108 47.178 35.6605 47.5392 35.6605C48.0497 35.6605 48.4722 35.5362 48.807 35.2876C49.1417 35.0424 49.3091 34.638 49.3091 34.0746V32.6278H49.2196C49.1268 32.8134 48.9909 33.004 48.812 33.1996C48.6363 33.3951 48.4026 33.5592 48.111 33.6918C47.8226 33.8243 47.4597 33.8906 47.0222 33.8906C46.4355 33.8906 45.9036 33.7531 45.4263 33.478C44.9524 33.1996 44.5745 32.7853 44.2928 32.2351C44.0144 31.6816 43.8752 30.9889 43.8752 30.157C43.8752 29.3184 44.0144 28.6108 44.2928 28.0341C44.5745 27.4541 44.954 27.0149 45.4313 26.7166C45.9086 26.415 46.4405 26.2642 47.0272 26.2642C47.4746 26.2642 47.8425 26.3404 48.1309 26.4929C48.4225 26.642 48.6545 26.8227 48.8269 27.0348C48.9992 27.2436 49.1301 27.4408 49.2196 27.6264H49.3191V26.3636H51.0939V34.1243C51.0939 34.7772 50.9382 35.3175 50.6266 35.745C50.315 36.1726 49.8891 36.4924 49.3489 36.7045C48.8087 36.9167 48.1955 37.0227 47.5094 37.0227ZM47.5243 32.4787C47.9055 32.4787 48.2303 32.3859 48.4988 32.2003C48.7672 32.0147 48.9711 31.7479 49.1103 31.3999C49.2495 31.0518 49.3191 30.6342 49.3191 30.147C49.3191 29.6664 49.2495 29.2455 49.1103 28.8842C48.9744 28.523 48.7722 28.2429 48.5037 28.044C48.2386 27.8419 47.9121 27.7408 47.5243 27.7408C47.1233 27.7408 46.7885 27.8452 46.5201 28.054C46.2516 28.2628 46.0494 28.5495 45.9135 28.9141C45.7776 29.2753 45.7097 29.6863 45.7097 30.147C45.7097 30.6143 45.7776 31.0237 45.9135 31.375C46.0527 31.723 46.2566 31.9948 46.525 32.1903C46.7968 32.3826 47.1299 32.4787 47.5243 32.4787ZM52.9384 34V26.3636H54.6834V27.6364H54.763C54.9022 27.1955 55.1408 26.8558 55.4789 26.6172C55.8203 26.3752 56.2097 26.2543 56.6472 26.2543C56.7466 26.2543 56.8577 26.2592 56.9803 26.2692C57.1062 26.2758 57.2106 26.2874 57.2935 26.304V27.9595C57.2173 27.933 57.0963 27.9098 56.9306 27.8899C56.7682 27.8667 56.6107 27.8551 56.4583 27.8551C56.1301 27.8551 55.8352 27.9264 55.5733 28.0689C55.3148 28.2081 55.111 28.402 54.9618 28.6506C54.8127 28.8991 54.7381 29.1858 54.7381 29.5107V34H52.9384ZM61.5554 34.1491C60.7898 34.1491 60.1286 33.9901 59.5717 33.6719C59.0182 33.3504 58.5923 32.8963 58.294 32.3097C57.9957 31.7197 57.8466 31.0253 57.8466 30.2266C57.8466 29.4411 57.9957 28.7517 58.294 28.1584C58.5956 27.5618 59.0166 27.0978 59.5568 26.7663C60.0971 26.4316 60.7318 26.2642 61.4609 26.2642C61.9316 26.2642 62.3757 26.3404 62.7933 26.4929C63.2143 26.642 63.5855 26.8741 63.907 27.1889C64.2318 27.5038 64.487 27.9048 64.6726 28.392C64.8582 28.8759 64.951 29.4527 64.951 30.1222V30.674H58.6918V29.4609H63.2259C63.2225 29.1162 63.148 28.8097 63.0021 28.5412C62.8563 28.2694 62.6525 28.0556 62.3906 27.8999C62.1321 27.7441 61.8305 27.6662 61.4858 27.6662C61.1179 27.6662 60.7947 27.7557 60.5163 27.9347C60.2379 28.1103 60.0208 28.3423 59.8651 28.6307C59.7126 28.9157 59.6347 29.2289 59.6314 29.5703V30.6293C59.6314 31.0734 59.7126 31.4545 59.875 31.7727C60.0374 32.0876 60.2644 32.3295 60.5561 32.4986C60.8478 32.6643 61.1892 32.7472 61.5803 32.7472C61.8421 32.7472 62.0791 32.7107 62.2912 32.6378C62.5033 32.5616 62.6873 32.4505 62.843 32.3047C62.9988 32.1589 63.1165 31.9782 63.196 31.7628L64.8764 31.9517C64.7704 32.3958 64.5682 32.7836 64.2699 33.1151C63.9749 33.4432 63.5971 33.6984 63.1364 33.8807C62.6757 34.0597 62.1487 34.1491 61.5554 34.1491ZM72.5091 28.3821L70.8684 28.5611C70.822 28.3954 70.7408 28.2396 70.6248 28.0938C70.5121 27.9479 70.3597 27.8303 70.1674 27.7408C69.9752 27.6513 69.7399 27.6065 69.4615 27.6065C69.0869 27.6065 68.7721 27.6877 68.5169 27.8501C68.265 28.0125 68.1407 28.223 68.144 28.4815C68.1407 28.7036 68.2219 28.8842 68.3876 29.0234C68.5566 29.1626 68.835 29.277 69.2228 29.3665L70.5254 29.6449C71.2479 29.8007 71.7849 30.0476 72.1362 30.3857C72.4908 30.7237 72.6698 31.1662 72.6731 31.7131C72.6698 32.1937 72.5289 32.6179 72.2505 32.9858C71.9754 33.3504 71.5926 33.6354 71.1021 33.8409C70.6116 34.0464 70.0481 34.1491 69.4118 34.1491C68.4771 34.1491 67.7247 33.9536 67.1547 33.5625C66.5846 33.1681 66.2449 32.6196 66.1355 31.9169L67.8904 31.7479C67.97 32.0926 68.139 32.3527 68.3975 32.5284C68.6561 32.7041 68.9925 32.7919 69.4068 32.7919C69.8343 32.7919 70.1774 32.7041 70.4359 32.5284C70.6977 32.3527 70.8287 32.1357 70.8287 31.8771C70.8287 31.6584 70.7441 31.4777 70.5751 31.3352C70.4094 31.1927 70.1509 31.0833 69.7995 31.0071L68.497 30.7337C67.7645 30.5812 67.2226 30.3243 66.8713 29.9631C66.5199 29.5985 66.3459 29.1378 66.3493 28.581C66.3459 28.1103 66.4735 27.7027 66.7321 27.358C66.9939 27.0099 67.3568 26.7415 67.8208 26.5526C68.2882 26.3603 68.8268 26.2642 69.4366 26.2642C70.3315 26.2642 71.0358 26.4548 71.5495 26.8359C72.0666 27.2171 72.3864 27.7325 72.5091 28.3821ZM80.1926 28.3821L78.552 28.5611C78.5056 28.3954 78.4244 28.2396 78.3084 28.0938C78.1957 27.9479 78.0433 27.8303 77.851 27.7408C77.6588 27.6513 77.4235 27.6065 77.1451 27.6065C76.7705 27.6065 76.4557 27.6877 76.2005 27.8501C75.9486 28.0125 75.8243 28.223 75.8276 28.4815C75.8243 28.7036 75.9055 28.8842 76.0712 29.0234C76.2402 29.1626 76.5186 29.277 76.9064 29.3665L78.209 29.6449C78.9315 29.8007 79.4685 30.0476 79.8198 30.3857C80.1744 30.7237 80.3534 31.1662 80.3567 31.7131C80.3534 32.1937 80.2125 32.6179 79.9341 32.9858C79.659 33.3504 79.2762 33.6354 78.7857 33.8409C78.2952 34.0464 77.7317 34.1491 77.0953 34.1491C76.1607 34.1491 75.4083 33.9536 74.8382 33.5625C74.2682 33.1681 73.9284 32.6196 73.8191 31.9169L75.574 31.7479C75.6536 32.0926 75.8226 32.3527 76.0811 32.5284C76.3397 32.7041 76.6761 32.7919 77.0904 32.7919C77.5179 32.7919 77.861 32.7041 78.1195 32.5284C78.3813 32.3527 78.5123 32.1357 78.5123 31.8771C78.5123 31.6584 78.4277 31.4777 78.2587 31.3352C78.093 31.1927 77.8345 31.0833 77.4831 31.0071L76.1806 30.7337C75.4481 30.5812 74.9062 30.3243 74.5549 29.9631C74.2035 29.5985 74.0295 29.1378 74.0328 28.581C74.0295 28.1103 74.1571 27.7027 74.4157 27.358C74.6775 27.0099 75.0404 26.7415 75.5044 26.5526C75.9718 26.3603 76.5104 26.2642 77.1202 26.2642C78.0151 26.2642 78.7194 26.4548 79.2331 26.8359C79.7502 27.2171 80.07 27.7325 80.1926 28.3821Z" fill="#141D40"/>
<path d="M31.0099 51.6364V72H26.7045V55.723H26.5852L21.9219 58.6463V54.8281L26.9631 51.6364H31.0099ZM44.7589 50.6818L38.1964 75.0625H34.5472L41.1097 50.6818H44.7589ZM55.6193 51.6364V72H51.3139V55.723H51.1946L46.5312 58.6463V54.8281L51.5724 51.6364H55.6193ZM60.4592 72V68.8977L67.7077 62.1861C68.3242 61.5895 68.8413 61.0526 69.2589 60.5753C69.6831 60.098 70.0046 59.6307 70.2234 59.1733C70.4421 58.7093 70.5515 58.2088 70.5515 57.6719C70.5515 57.0753 70.4156 56.5616 70.1438 56.1307C69.872 55.6932 69.5008 55.3584 69.0302 55.1264C68.5595 54.8878 68.0259 54.7685 67.4293 54.7685C66.8062 54.7685 66.2627 54.8944 65.7987 55.1463C65.3346 55.3982 64.9767 55.7595 64.7248 56.2301C64.4729 56.7008 64.3469 57.2609 64.3469 57.9105H60.2603C60.2603 56.5781 60.5619 55.4214 61.1651 54.4403C61.7683 53.4593 62.6135 52.7003 63.7006 52.1634C64.7878 51.6264 66.0406 51.358 67.4592 51.358C68.9175 51.358 70.1869 51.6165 71.2674 52.1335C72.3545 52.6439 73.1997 53.3532 73.8029 54.2614C74.4061 55.1695 74.7077 56.2102 74.7077 57.3835C74.7077 58.1525 74.5553 58.9115 74.2504 59.6605C73.9521 60.4096 73.4184 61.2415 72.6495 62.1562C71.8806 63.0644 70.7968 64.1548 69.3981 65.4276L66.4251 68.3409V68.4801H74.9762V72H60.4592Z" fill="#141D40"/>
<path d="M18.196 161H16.7983L19.9389 152.273H21.4602L24.6009 161H23.2031L20.7358 153.858H20.6676L18.196 161ZM18.4304 157.582H22.9645V158.69H18.4304V157.582ZM28.4105 161.132C27.777 161.132 27.2315 160.989 26.7741 160.702C26.3196 160.412 25.9702 160.013 25.7259 159.504C25.4815 158.996 25.3594 158.413 25.3594 157.757C25.3594 157.092 25.4844 156.506 25.7344 155.997C25.9844 155.486 26.3366 155.087 26.7912 154.8C27.2457 154.513 27.7813 154.369 28.3977 154.369C28.8949 154.369 29.3381 154.462 29.7273 154.646C30.1165 154.828 30.4304 155.084 30.669 155.413C30.9105 155.743 31.054 156.128 31.0994 156.568H29.8594C29.7912 156.261 29.6349 155.997 29.3906 155.776C29.1491 155.554 28.8253 155.443 28.419 155.443C28.0639 155.443 27.7528 155.537 27.4858 155.724C27.2216 155.909 27.0156 156.173 26.8679 156.517C26.7202 156.858 26.6463 157.261 26.6463 157.727C26.6463 158.205 26.7188 158.616 26.8636 158.963C27.0085 159.31 27.2131 159.578 27.4773 159.768C27.7443 159.959 28.0582 160.054 28.419 160.054C28.6605 160.054 28.8793 160.01 29.0753 159.922C29.2741 159.831 29.4403 159.702 29.5739 159.534C29.7102 159.366 29.8054 159.165 29.8594 158.929H31.0994C31.054 159.352 30.9162 159.73 30.6861 160.062C30.456 160.395 30.1477 160.656 29.7614 160.847C29.3778 161.037 28.9276 161.132 28.4105 161.132ZM33.7362 157.114V161H32.462V152.273H33.7191V155.52H33.8001C33.9535 155.168 34.1879 154.888 34.5032 154.68C34.8185 154.473 35.2305 154.369 35.739 154.369C36.1879 154.369 36.5799 154.462 36.9151 154.646C37.2532 154.831 37.5146 155.107 37.6992 155.473C37.8867 155.837 37.9805 156.291 37.9805 156.837V161H36.7063V156.99C36.7063 156.51 36.5827 156.138 36.3356 155.874C36.0884 155.607 35.7447 155.473 35.3043 155.473C35.0032 155.473 34.7333 155.537 34.4947 155.665C34.2589 155.793 34.0728 155.98 33.9364 156.227C33.8029 156.472 33.7362 156.767 33.7362 157.114ZM39.6808 161V154.455H40.9549V161H39.6808ZM40.3242 153.445C40.1026 153.445 39.9123 153.371 39.7532 153.223C39.5969 153.072 39.5188 152.893 39.5188 152.686C39.5188 152.476 39.5969 152.297 39.7532 152.149C39.9123 151.999 40.1026 151.923 40.3242 151.923C40.5458 151.923 40.7347 151.999 40.891 152.149C41.0501 152.297 41.1296 152.476 41.1296 152.686C41.1296 152.893 41.0501 153.072 40.891 153.223C40.7347 153.371 40.5458 153.445 40.3242 153.445ZM45.4901 161.132C44.8452 161.132 44.2898 160.994 43.8239 160.719C43.3608 160.44 43.0028 160.05 42.75 159.547C42.5 159.041 42.375 158.449 42.375 157.77C42.375 157.099 42.5 156.509 42.75 155.997C43.0028 155.486 43.3551 155.087 43.8068 154.8C44.2614 154.513 44.7926 154.369 45.4006 154.369C45.7699 154.369 46.1278 154.43 46.4744 154.553C46.821 154.675 47.1321 154.866 47.4077 155.128C47.6832 155.389 47.9006 155.729 48.0597 156.146C48.2188 156.561 48.2983 157.065 48.2983 157.659V158.111H43.0952V157.156H47.0497C47.0497 156.821 46.9815 156.524 46.8452 156.266C46.7088 156.004 46.517 155.798 46.2699 155.648C46.0256 155.497 45.7386 155.422 45.4091 155.422C45.0511 155.422 44.7386 155.51 44.4716 155.686C44.2074 155.859 44.0028 156.087 43.858 156.368C43.7159 156.646 43.6449 156.949 43.6449 157.276V158.021C43.6449 158.459 43.7216 158.831 43.875 159.138C44.0312 159.445 44.2486 159.679 44.527 159.841C44.8054 160 45.1307 160.08 45.5028 160.08C45.7443 160.08 45.9645 160.045 46.1634 159.977C46.3622 159.906 46.5341 159.801 46.679 159.662C46.8239 159.523 46.9347 159.351 47.0114 159.146L48.2173 159.364C48.1207 159.719 47.9474 160.03 47.6974 160.297C47.4503 160.561 47.1392 160.767 46.7642 160.915C46.392 161.06 45.9673 161.132 45.4901 161.132ZM55.1239 154.455L52.7504 161H51.3867L49.0089 154.455H50.3768L52.0344 159.491H52.1026L53.756 154.455H55.1239ZM58.9197 161.132C58.2749 161.132 57.7195 160.994 57.2536 160.719C56.7905 160.44 56.4325 160.05 56.1797 159.547C55.9297 159.041 55.8047 158.449 55.8047 157.77C55.8047 157.099 55.9297 156.509 56.1797 155.997C56.4325 155.486 56.7848 155.087 57.2365 154.8C57.6911 154.513 58.2223 154.369 58.8303 154.369C59.1996 154.369 59.5575 154.43 59.9041 154.553C60.2507 154.675 60.5618 154.866 60.8374 155.128C61.1129 155.389 61.3303 155.729 61.4893 156.146C61.6484 156.561 61.728 157.065 61.728 157.659V158.111H56.5249V157.156H60.4794C60.4794 156.821 60.4112 156.524 60.2749 156.266C60.1385 156.004 59.9467 155.798 59.6996 155.648C59.4553 155.497 59.1683 155.422 58.8388 155.422C58.4808 155.422 58.1683 155.51 57.9013 155.686C57.6371 155.859 57.4325 156.087 57.2876 156.368C57.1456 156.646 57.0746 156.949 57.0746 157.276V158.021C57.0746 158.459 57.1513 158.831 57.3047 159.138C57.4609 159.445 57.6783 159.679 57.9567 159.841C58.2351 160 58.5604 160.08 58.9325 160.08C59.174 160.08 59.3942 160.045 59.593 159.977C59.7919 159.906 59.9638 159.801 60.1087 159.662C60.2536 159.523 60.3643 159.351 60.4411 159.146L61.647 159.364C61.5504 159.719 61.3771 160.03 61.1271 160.297C60.88 160.561 60.5689 160.767 60.1939 160.915C59.8217 161.06 59.397 161.132 58.9197 161.132ZM63.1417 161V154.455H64.3647V155.52H64.4457C64.582 155.159 64.805 154.878 65.1147 154.676C65.4244 154.472 65.7951 154.369 66.2269 154.369C66.6644 154.369 67.0309 154.472 67.3263 154.676C67.6246 154.881 67.8448 155.162 67.9869 155.52H68.055C68.2113 155.17 68.4599 154.892 68.8008 154.685C69.1417 154.474 69.5479 154.369 70.0195 154.369C70.6133 154.369 71.0977 154.555 71.4727 154.928C71.8505 155.3 72.0394 155.861 72.0394 156.611V161H70.7653V156.73C70.7653 156.287 70.6445 155.966 70.4031 155.767C70.1616 155.568 69.8732 155.469 69.538 155.469C69.1232 155.469 68.8008 155.597 68.5707 155.852C68.3406 156.105 68.2255 156.43 68.2255 156.828V161H66.9556V156.649C66.9556 156.294 66.8448 156.009 66.6232 155.793C66.4016 155.577 66.1133 155.469 65.7582 155.469C65.5167 155.469 65.2937 155.533 65.0891 155.661C64.8874 155.786 64.7241 155.96 64.5991 156.185C64.4769 156.409 64.4158 156.669 64.4158 156.964V161H63.1417ZM76.5682 161.132C75.9233 161.132 75.3679 160.994 74.902 160.719C74.4389 160.44 74.081 160.05 73.8281 159.547C73.5781 159.041 73.4531 158.449 73.4531 157.77C73.4531 157.099 73.5781 156.509 73.8281 155.997C74.081 155.486 74.4332 155.087 74.8849 154.8C75.3395 154.513 75.8707 154.369 76.4787 154.369C76.848 154.369 77.206 154.43 77.5526 154.553C77.8991 154.675 78.2102 154.866 78.4858 155.128C78.7614 155.389 78.9787 155.729 79.1378 156.146C79.2969 156.561 79.3764 157.065 79.3764 157.659V158.111H74.1733V157.156H78.1278C78.1278 156.821 78.0597 156.524 77.9233 156.266C77.7869 156.004 77.5952 155.798 77.348 155.648C77.1037 155.497 76.8168 155.422 76.4872 155.422C76.1293 155.422 75.8168 155.51 75.5497 155.686C75.2855 155.859 75.081 156.087 74.9361 156.368C74.794 156.646 74.723 156.949 74.723 157.276V158.021C74.723 158.459 74.7997 158.831 74.9531 159.138C75.1094 159.445 75.3267 159.679 75.6051 159.841C75.8835 160 76.2088 160.08 76.581 160.08C76.8224 160.08 77.0426 160.045 77.2415 159.977C77.4403 159.906 77.6122 159.801 77.7571 159.662C77.902 159.523 78.0128 159.351 78.0895 159.146L79.2955 159.364C79.1989 159.719 79.0256 160.03 78.7756 160.297C78.5284 160.561 78.2173 160.767 77.8423 160.915C77.4702 161.06 77.0455 161.132 76.5682 161.132ZM82.0643 157.114V161H80.7901V154.455H82.0131V155.52H82.0941C82.2447 155.173 82.4805 154.895 82.8015 154.685C83.1254 154.474 83.533 154.369 84.0245 154.369C84.4705 154.369 84.8612 154.463 85.1964 154.651C85.5316 154.835 85.7915 155.111 85.9762 155.477C86.1609 155.844 86.2532 156.297 86.2532 156.837V161H84.979V156.99C84.979 156.516 84.8555 156.145 84.6083 155.878C84.3612 155.608 84.0217 155.473 83.5898 155.473C83.2944 155.473 83.0316 155.537 82.8015 155.665C82.5742 155.793 82.3938 155.98 82.2603 156.227C82.1296 156.472 82.0643 156.767 82.0643 157.114ZM91.0174 154.455V155.477H87.4421V154.455H91.0174ZM88.4009 152.886H89.6751V159.078C89.6751 159.325 89.712 159.511 89.7859 159.636C89.8597 159.759 89.9549 159.842 90.0714 159.888C90.1907 159.93 90.32 159.952 90.4592 159.952C90.5614 159.952 90.6509 159.945 90.7276 159.93C90.8043 159.916 90.864 159.905 90.9066 159.896L91.1367 160.949C91.0629 160.977 90.9577 161.006 90.8214 161.034C90.685 161.065 90.5146 161.082 90.31 161.085C89.9748 161.091 89.6623 161.031 89.3725 160.906C89.0827 160.781 88.8484 160.588 88.6694 160.327C88.4904 160.065 88.4009 159.737 88.4009 159.342V152.886ZM97.2262 156.053L96.0714 156.257C96.0231 156.109 95.9464 155.969 95.8413 155.835C95.739 155.702 95.5998 155.592 95.4237 155.507C95.2475 155.422 95.0273 155.379 94.7631 155.379C94.4023 155.379 94.1012 155.46 93.8597 155.622C93.6183 155.781 93.4975 155.987 93.4975 156.24C93.4975 156.459 93.5785 156.635 93.7404 156.768C93.9023 156.902 94.1637 157.011 94.5245 157.097L95.5643 157.335C96.1665 157.474 96.6154 157.689 96.9109 157.979C97.2063 158.268 97.354 158.645 97.354 159.108C97.354 159.5 97.2404 159.849 97.0131 160.156C96.7887 160.46 96.4748 160.699 96.0714 160.872C95.6708 161.045 95.2063 161.132 94.6779 161.132C93.945 161.132 93.3469 160.976 92.8839 160.663C92.4208 160.348 92.1367 159.901 92.0316 159.321L93.2631 159.134C93.3398 159.455 93.4975 159.697 93.7362 159.862C93.9748 160.024 94.2859 160.105 94.6694 160.105C95.087 160.105 95.4208 160.018 95.6708 159.845C95.9208 159.669 96.0458 159.455 96.0458 159.202C96.0458 158.997 95.9691 158.825 95.8157 158.686C95.6651 158.547 95.4336 158.442 95.1211 158.371L94.0131 158.128C93.4023 157.989 92.9506 157.767 92.658 157.463C92.3683 157.159 92.2234 156.774 92.2234 156.308C92.2234 155.922 92.3313 155.584 92.5472 155.294C92.7631 155.004 93.0614 154.778 93.4421 154.616C93.8228 154.452 94.2589 154.369 94.7504 154.369C95.4577 154.369 96.0146 154.523 96.4208 154.83C96.8271 155.134 97.0955 155.541 97.2262 156.053Z" fill="#0B8AFF"/>
<g clip-path="url(#clip0_1321_255)">
<rect x="20.5" y="92" width="144" height="10" rx="5" fill="#0B8AFF" fill-opacity="0.1"/>
<path d="M19.5 97C19.5 94.2386 21.7386 92 24.5 92H94.5V102H24.5C21.7386 102 19.5 99.7614 19.5 97V97Z" fill="#0B8AFF"/>
</g>
<defs>
<clipPath id="clip0_1321_255">
<rect x="20.5" y="92" width="144" height="10" rx="5" fill="white"/>
</clipPath>
</defs>
</svg>
