<svg width="615" height="843" viewBox="0 0 615 843" fill="none" xmlns="http://www.w3.org/2000/svg">
<rect width="615" height="843" fill="white"/>
<path d="M73.9106 179.15V132.94H83.1047V179.15H73.9106ZM55.4197 160.625V151.465H101.63V160.625H55.4197ZM114.481 190.907V183.251L138.167 158.711C140.696 156.045 142.781 153.709 144.422 151.704C146.085 149.676 147.327 147.751 148.147 145.928C148.968 144.105 149.378 142.168 149.378 140.117C149.378 137.793 148.831 135.788 147.737 134.102C146.643 132.393 145.151 131.083 143.26 130.171C141.369 129.237 139.238 128.77 136.868 128.77C134.362 128.77 132.174 129.283 130.306 130.308C128.437 131.333 127.002 132.78 125.999 134.649C124.997 136.517 124.495 138.705 124.495 141.211H114.413C114.413 136.95 115.392 133.225 117.352 130.035C119.312 126.845 122 124.372 125.418 122.618C128.836 120.841 132.721 119.952 137.073 119.952C141.471 119.952 145.345 120.829 148.694 122.584C152.067 124.315 154.698 126.685 156.59 129.693C158.481 132.678 159.426 136.05 159.426 139.81C159.426 142.407 158.937 144.948 157.957 147.432C157 149.915 155.325 152.684 152.932 155.737C150.54 158.768 147.213 162.448 142.952 166.777L129.041 181.337V181.85H160.554V190.907H114.481ZM197.16 191.864C192.261 191.864 187.932 191.021 184.172 189.335C180.435 187.649 177.507 185.325 175.388 182.363C173.269 179.401 172.221 176.028 172.244 172.246C172.221 169.284 172.825 166.561 174.055 164.077C175.308 161.571 177.006 159.486 179.148 157.822C181.29 156.136 183.682 155.065 186.325 154.609V154.199C182.839 153.356 180.048 151.488 177.951 148.594C175.855 145.7 174.818 142.373 174.841 138.614C174.818 135.036 175.764 131.846 177.678 129.044C179.615 126.218 182.269 123.996 185.642 122.379C189.014 120.761 192.853 119.952 197.16 119.952C201.421 119.952 205.226 120.772 208.576 122.413C211.948 124.031 214.603 126.252 216.539 129.078C218.476 131.88 219.456 135.059 219.479 138.614C219.456 142.373 218.385 145.7 216.266 148.594C214.147 151.488 211.39 153.356 207.995 154.199V154.609C210.615 155.065 212.973 156.136 215.07 157.822C217.189 159.486 218.875 161.571 220.128 164.077C221.404 166.561 222.054 169.284 222.076 172.246C222.054 176.028 220.983 179.401 218.864 182.363C216.745 185.325 213.805 187.649 210.045 189.335C206.309 191.021 202.013 191.864 197.16 191.864ZM197.16 183.217C200.054 183.217 202.56 182.739 204.679 181.782C206.798 180.802 208.439 179.446 209.601 177.714C210.763 175.96 211.356 173.909 211.378 171.562C211.356 169.124 210.718 166.971 209.464 165.102C208.234 163.234 206.559 161.764 204.44 160.693C202.321 159.622 199.894 159.087 197.16 159.087C194.403 159.087 191.953 159.622 189.812 160.693C187.67 161.764 185.983 163.234 184.753 165.102C183.523 166.971 182.919 169.124 182.942 171.562C182.919 173.909 183.477 175.96 184.616 177.714C185.778 179.446 187.43 180.802 189.572 181.782C191.714 182.739 194.243 183.217 197.16 183.217ZM197.16 150.645C199.484 150.645 201.546 150.178 203.346 149.243C205.146 148.309 206.559 147.01 207.585 145.347C208.633 143.684 209.168 141.735 209.191 139.502C209.168 137.315 208.644 135.401 207.619 133.76C206.616 132.12 205.215 130.855 203.415 129.966C201.615 129.055 199.53 128.599 197.16 128.599C194.745 128.599 192.626 129.055 190.803 129.966C189.003 130.855 187.601 132.12 186.599 133.76C185.596 135.401 185.106 137.315 185.129 139.502C185.106 141.735 185.608 143.684 186.633 145.347C187.658 147.01 189.071 148.309 190.871 149.243C192.694 150.178 194.79 150.645 197.16 150.645ZM258.691 192.07C253.29 192.047 248.676 190.623 244.848 187.797C241.02 184.972 238.092 180.859 236.064 175.459C234.036 170.058 233.022 163.553 233.022 155.942C233.022 148.355 234.036 141.872 236.064 136.495C238.115 131.117 241.054 127.016 244.882 124.19C248.733 121.365 253.336 119.952 258.691 119.952C264.045 119.952 268.637 121.376 272.465 124.224C276.293 127.05 279.221 131.151 281.249 136.529C283.3 141.883 284.325 148.355 284.325 155.942C284.325 163.576 283.311 170.092 281.283 175.493C279.255 180.87 276.327 184.983 272.499 187.831C268.671 190.657 264.068 192.07 258.691 192.07ZM258.691 182.944C263.43 182.944 267.133 180.631 269.799 176.005C272.488 171.38 273.832 164.692 273.832 155.942C273.832 150.132 273.217 145.222 271.986 141.211C270.779 137.178 269.036 134.125 266.757 132.051C264.501 129.955 261.812 128.907 258.691 128.907C253.974 128.907 250.271 131.231 247.583 135.879C244.894 140.528 243.538 147.215 243.515 155.942C243.515 161.776 244.119 166.709 245.327 170.742C246.557 174.752 248.3 177.794 250.556 179.868C252.812 181.918 255.523 182.944 258.691 182.944ZM332.987 177.783V174.091C332.987 171.448 333.534 169.033 334.628 166.845C335.744 164.635 337.362 162.869 339.481 161.548C341.623 160.203 344.209 159.531 347.24 159.531C350.339 159.531 352.936 160.192 355.033 161.514C357.129 162.835 358.713 164.601 359.784 166.811C360.877 169.022 361.424 171.448 361.424 174.091V177.783C361.424 180.426 360.877 182.853 359.784 185.063C358.69 187.25 357.083 189.016 354.964 190.361C352.868 191.682 350.293 192.343 347.24 192.343C344.164 192.343 341.566 191.682 339.447 190.361C337.328 189.016 335.722 187.25 334.628 185.063C333.534 182.853 332.987 180.426 332.987 177.783ZM340.951 174.091V177.783C340.951 179.742 341.418 181.52 342.352 183.115C343.287 184.71 344.916 185.507 347.24 185.507C349.541 185.507 351.148 184.71 352.059 183.115C352.971 181.52 353.426 179.742 353.426 177.783V174.091C353.426 172.132 352.982 170.355 352.093 168.759C351.227 167.164 349.61 166.367 347.24 166.367C344.961 166.367 343.344 167.164 342.387 168.759C341.43 170.355 340.951 172.132 340.951 174.091ZM297.783 137.725V134.034C297.783 131.39 298.33 128.964 299.424 126.754C300.54 124.543 302.158 122.777 304.277 121.456C306.419 120.134 309.005 119.473 312.036 119.473C315.134 119.473 317.732 120.134 319.828 121.456C321.925 122.777 323.508 124.543 324.579 126.754C325.65 128.964 326.186 131.39 326.186 134.034V137.725C326.186 140.368 325.639 142.795 324.545 145.005C323.474 147.193 321.879 148.958 319.76 150.303C317.664 151.624 315.089 152.285 312.036 152.285C308.937 152.285 306.328 151.624 304.209 150.303C302.112 148.958 300.517 147.193 299.424 145.005C298.33 142.795 297.783 140.368 297.783 137.725ZM305.781 134.034V137.725C305.781 139.685 306.237 141.462 307.148 143.057C308.082 144.652 309.711 145.449 312.036 145.449C314.314 145.449 315.909 144.652 316.821 143.057C317.755 141.462 318.222 139.685 318.222 137.725V134.034C318.222 132.074 317.778 130.297 316.889 128.702C316 127.107 314.383 126.309 312.036 126.309C309.757 126.309 308.139 127.107 307.182 128.702C306.248 130.297 305.781 132.074 305.781 134.034ZM301.03 190.907L349.154 120.909H357.323L309.199 190.907H301.03Z" fill="#141D40"/>
<path d="M50.8704 225.81V242.707H48.3211V225.81H50.8704ZM56.8517 235.183V242.707H54.3849V230.035H56.7527V232.097H56.9095C57.201 231.426 57.6575 230.887 58.279 230.48C58.906 230.073 59.6953 229.87 60.6468 229.87C61.5103 229.87 62.2665 230.051 62.9155 230.414C63.5646 230.772 64.0678 231.305 64.4253 232.015C64.7828 232.724 64.9616 233.601 64.9616 234.646V242.707H62.4948V234.943C62.4948 234.025 62.2555 233.307 61.777 232.79C61.2985 232.268 60.6413 232.006 59.8053 232.006C59.2333 232.006 58.7245 232.13 58.279 232.378C57.839 232.625 57.4897 232.988 57.2312 233.467C56.9782 233.94 56.8517 234.512 56.8517 235.183ZM80.3336 230.035V232.015H73.4117V230.035H80.3336ZM75.268 226.998H77.7348V238.986C77.7348 239.464 77.8063 239.825 77.9493 240.067C78.0923 240.303 78.2765 240.465 78.502 240.553C78.7331 240.636 78.9833 240.677 79.2528 240.677C79.4508 240.677 79.6241 240.663 79.7726 240.636C79.9211 240.608 80.0366 240.586 80.1191 240.57L80.5646 242.608C80.4216 242.663 80.2181 242.718 79.9541 242.773C79.6901 242.833 79.3601 242.866 78.9641 242.872C78.315 242.883 77.71 242.767 77.149 242.525C76.588 242.283 76.1343 241.909 75.7878 241.403C75.4413 240.897 75.268 240.262 75.268 239.497V226.998ZM85.8013 235.183V242.707H83.3345V225.81H85.7683V232.097H85.9251C86.2221 231.415 86.6758 230.873 87.2863 230.472C87.8969 230.07 88.6944 229.87 89.6789 229.87C90.5479 229.87 91.3069 230.048 91.9559 230.406C92.6104 230.763 93.1164 231.297 93.4739 232.006C93.8369 232.71 94.0184 233.59 94.0184 234.646V242.707H91.5516V234.943C91.5516 234.014 91.3124 233.293 90.8339 232.782C90.3554 232.265 89.6899 232.006 88.8374 232.006C88.2544 232.006 87.7319 232.13 87.2698 232.378C86.8133 232.625 86.4531 232.988 86.1891 233.467C85.9306 233.94 85.8013 234.512 85.8013 235.183ZM102.772 242.962C101.523 242.962 100.448 242.696 99.546 242.162C98.6495 241.623 97.9565 240.867 97.467 239.893C96.983 238.914 96.741 237.768 96.741 236.453C96.741 235.155 96.983 234.011 97.467 233.021C97.9565 232.031 98.6385 231.258 99.513 230.703C100.393 230.147 101.422 229.87 102.599 229.87C103.314 229.87 104.007 229.988 104.678 230.224C105.349 230.461 105.951 230.832 106.484 231.338C107.018 231.844 107.439 232.501 107.747 233.31C108.055 234.113 108.209 235.089 108.209 236.239V237.113H98.1352V235.265H105.791C105.791 234.616 105.659 234.041 105.395 233.541C105.131 233.035 104.76 232.636 104.282 232.345C103.809 232.053 103.253 231.907 102.615 231.907C101.922 231.907 101.317 232.078 100.8 232.419C100.289 232.754 99.8925 233.194 99.612 233.739C99.337 234.278 99.1995 234.864 99.1995 235.496V236.94C99.1995 237.787 99.348 238.507 99.645 239.101C99.9475 239.695 100.368 240.149 100.907 240.463C101.446 240.771 102.076 240.925 102.797 240.925C103.264 240.925 103.69 240.859 104.075 240.727C104.46 240.589 104.793 240.386 105.074 240.116C105.354 239.847 105.569 239.514 105.717 239.118L108.052 239.539C107.865 240.226 107.529 240.828 107.045 241.345C106.567 241.857 105.965 242.256 105.239 242.542C104.518 242.822 103.696 242.962 102.772 242.962ZM117.094 247.459V230.035H119.503V232.089H119.709C119.852 231.825 120.058 231.52 120.328 231.173C120.597 230.827 120.972 230.524 121.45 230.266C121.929 230.002 122.561 229.87 123.348 229.87C124.371 229.87 125.284 230.128 126.087 230.645C126.89 231.162 127.519 231.907 127.976 232.881C128.438 233.854 128.669 235.026 128.669 236.395C128.669 237.765 128.441 238.939 127.984 239.918C127.528 240.892 126.901 241.642 126.103 242.17C125.306 242.693 124.395 242.954 123.372 242.954C122.602 242.954 121.973 242.825 121.483 242.566C120.999 242.308 120.619 242.005 120.344 241.659C120.069 241.312 119.858 241.004 119.709 240.735H119.561V247.459H117.094ZM119.511 236.371C119.511 237.262 119.64 238.043 119.899 238.714C120.157 239.385 120.531 239.91 121.021 240.289C121.511 240.663 122.11 240.85 122.82 240.85C123.557 240.85 124.173 240.655 124.668 240.265C125.163 239.869 125.537 239.332 125.79 238.656C126.048 237.979 126.177 237.218 126.177 236.371C126.177 235.535 126.051 234.784 125.798 234.118C125.55 233.453 125.176 232.928 124.676 232.543C124.181 232.158 123.562 231.965 122.82 231.965C122.105 231.965 121.5 232.149 121.005 232.518C120.515 232.886 120.144 233.401 119.891 234.061C119.638 234.721 119.511 235.491 119.511 236.371ZM135.12 242.987C134.317 242.987 133.591 242.839 132.942 242.542C132.293 242.239 131.779 241.802 131.4 241.23C131.026 240.658 130.839 239.957 130.839 239.126C130.839 238.411 130.976 237.823 131.251 237.361C131.526 236.899 131.897 236.533 132.365 236.263C132.832 235.994 133.355 235.79 133.932 235.653C134.51 235.515 135.098 235.411 135.698 235.339C136.457 235.251 137.073 235.18 137.546 235.125C138.019 235.064 138.363 234.968 138.577 234.836C138.792 234.704 138.899 234.49 138.899 234.193V234.135C138.899 233.414 138.695 232.856 138.288 232.46C137.887 232.064 137.287 231.866 136.49 231.866C135.659 231.866 135.005 232.05 134.526 232.419C134.053 232.782 133.726 233.186 133.545 233.632L131.226 233.104C131.501 232.334 131.903 231.712 132.431 231.239C132.964 230.761 133.578 230.414 134.271 230.2C134.964 229.98 135.692 229.87 136.457 229.87C136.963 229.87 137.499 229.93 138.066 230.051C138.638 230.167 139.171 230.381 139.666 230.695C140.167 231.008 140.576 231.456 140.895 232.039C141.215 232.617 141.374 233.368 141.374 234.292V242.707H138.965V240.974H138.866C138.706 241.293 138.467 241.607 138.148 241.915C137.829 242.223 137.419 242.478 136.919 242.682C136.418 242.885 135.819 242.987 135.12 242.987ZM135.657 241.007C136.339 241.007 136.922 240.872 137.406 240.603C137.895 240.333 138.266 239.981 138.519 239.547C138.778 239.107 138.907 238.637 138.907 238.136V236.503C138.819 236.591 138.649 236.673 138.396 236.75C138.148 236.822 137.865 236.885 137.546 236.94C137.227 236.989 136.916 237.036 136.614 237.08C136.311 237.119 136.058 237.152 135.855 237.179C135.376 237.24 134.939 237.341 134.543 237.484C134.152 237.627 133.839 237.834 133.602 238.103C133.371 238.367 133.256 238.719 133.256 239.159C133.256 239.77 133.481 240.232 133.932 240.545C134.383 240.853 134.958 241.007 135.657 241.007ZM154.155 233.128L151.92 233.524C151.826 233.238 151.678 232.966 151.474 232.708C151.276 232.449 151.007 232.237 150.666 232.072C150.325 231.907 149.898 231.825 149.387 231.825C148.688 231.825 148.105 231.982 147.638 232.295C147.17 232.603 146.937 233.002 146.937 233.491C146.937 233.915 147.093 234.256 147.407 234.514C147.72 234.773 148.226 234.985 148.925 235.15L150.938 235.612C152.104 235.881 152.973 236.296 153.545 236.857C154.117 237.418 154.403 238.147 154.403 239.044C154.403 239.803 154.183 240.479 153.743 241.073C153.308 241.662 152.701 242.124 151.92 242.459C151.144 242.795 150.245 242.962 149.222 242.962C147.803 242.962 146.645 242.66 145.749 242.055C144.852 241.444 144.302 240.578 144.099 239.456L146.483 239.093C146.631 239.715 146.937 240.185 147.399 240.504C147.861 240.817 148.463 240.974 149.205 240.974C150.014 240.974 150.66 240.806 151.144 240.471C151.628 240.13 151.87 239.715 151.87 239.225C151.87 238.829 151.722 238.496 151.425 238.227C151.133 237.957 150.685 237.754 150.08 237.616L147.935 237.146C146.752 236.877 145.878 236.448 145.311 235.859C144.75 235.271 144.47 234.525 144.47 233.623C144.47 232.875 144.679 232.221 145.097 231.66C145.515 231.099 146.092 230.662 146.829 230.348C147.566 230.029 148.411 229.87 149.362 229.87C150.732 229.87 151.81 230.167 152.596 230.761C153.383 231.349 153.902 232.138 154.155 233.128ZM163.031 230.035V232.015H156.109V230.035H163.031ZM157.965 226.998H160.432V238.986C160.432 239.464 160.503 239.825 160.646 240.067C160.789 240.303 160.973 240.465 161.199 240.553C161.43 240.636 161.68 240.677 161.95 240.677C162.148 240.677 162.321 240.663 162.47 240.636C162.618 240.608 162.734 240.586 162.816 240.57L163.262 242.608C163.119 242.663 162.915 242.718 162.651 242.773C162.387 242.833 162.057 242.866 161.661 242.872C161.012 242.883 160.407 242.767 159.846 242.525C159.285 242.283 158.831 241.909 158.485 241.403C158.138 240.897 157.965 240.262 157.965 239.497V226.998ZM177.757 242.938C176.624 242.938 175.612 242.742 174.721 242.352C173.835 241.961 173.134 241.42 172.617 240.727C172.106 240.028 171.831 239.22 171.792 238.301H174.383C174.416 238.802 174.583 239.236 174.886 239.605C175.194 239.968 175.595 240.248 176.09 240.446C176.585 240.644 177.135 240.743 177.74 240.743C178.406 240.743 178.994 240.628 179.506 240.397C180.023 240.166 180.427 239.844 180.719 239.431C181.01 239.013 181.156 238.532 181.156 237.988C181.156 237.421 181.01 236.923 180.719 236.494C180.433 236.06 180.012 235.719 179.456 235.471C178.906 235.224 178.241 235.1 177.46 235.1H176.033V233.021H177.46C178.087 233.021 178.637 232.908 179.11 232.683C179.588 232.457 179.962 232.144 180.232 231.742C180.501 231.335 180.636 230.86 180.636 230.315C180.636 229.793 180.518 229.339 180.281 228.954C180.05 228.563 179.72 228.258 179.291 228.038C178.868 227.818 178.367 227.708 177.79 227.708C177.24 227.708 176.726 227.81 176.247 228.013C175.774 228.211 175.389 228.497 175.092 228.871C174.795 229.24 174.636 229.683 174.614 230.2H172.147C172.174 229.287 172.444 228.483 172.955 227.79C173.472 227.097 174.154 226.556 175.001 226.165C175.848 225.775 176.789 225.579 177.823 225.579C178.906 225.579 179.841 225.791 180.628 226.215C181.42 226.633 182.031 227.191 182.46 227.889C182.894 228.588 183.109 229.353 183.103 230.183C183.109 231.129 182.845 231.932 182.311 232.592C181.783 233.252 181.079 233.695 180.199 233.92V234.052C181.321 234.223 182.19 234.668 182.806 235.389C183.428 236.109 183.736 237.003 183.73 238.07C183.736 239 183.477 239.833 182.955 240.57C182.438 241.307 181.731 241.887 180.834 242.311C179.938 242.729 178.912 242.938 177.757 242.938ZM192.731 242.987C191.427 242.982 190.314 242.638 189.39 241.956C188.466 241.274 187.759 240.281 187.269 238.978C186.78 237.674 186.535 236.104 186.535 234.267C186.535 232.435 186.78 230.871 187.269 229.573C187.764 228.274 188.474 227.284 189.398 226.602C190.327 225.92 191.438 225.579 192.731 225.579C194.023 225.579 195.132 225.923 196.056 226.611C196.98 227.293 197.686 228.283 198.176 229.581C198.671 230.873 198.918 232.435 198.918 234.267C198.918 236.109 198.674 237.682 198.184 238.986C197.695 240.284 196.988 241.277 196.064 241.964C195.14 242.646 194.029 242.987 192.731 242.987ZM192.731 240.784C193.875 240.784 194.769 240.226 195.412 239.11C196.061 237.993 196.386 236.379 196.386 234.267C196.386 232.864 196.237 231.679 195.94 230.711C195.649 229.738 195.228 229 194.678 228.5C194.133 227.994 193.484 227.741 192.731 227.741C191.592 227.741 190.699 228.302 190.05 229.424C189.401 230.546 189.073 232.16 189.068 234.267C189.068 235.675 189.214 236.866 189.505 237.839C189.802 238.807 190.223 239.541 190.767 240.042C191.312 240.537 191.966 240.784 192.731 240.784ZM212.77 242.954C211.747 242.954 210.834 242.693 210.031 242.17C209.234 241.642 208.607 240.892 208.15 239.918C207.699 238.939 207.474 237.765 207.474 236.395C207.474 235.026 207.702 233.854 208.159 232.881C208.621 231.907 209.253 231.162 210.056 230.645C210.859 230.128 211.769 229.87 212.787 229.87C213.573 229.87 214.206 230.002 214.684 230.266C215.168 230.524 215.542 230.827 215.806 231.173C216.076 231.52 216.285 231.825 216.433 232.089H216.582V225.81H219.049V242.707H216.64V240.735H216.433C216.285 241.004 216.07 241.312 215.79 241.659C215.515 242.005 215.135 242.308 214.651 242.566C214.167 242.825 213.54 242.954 212.77 242.954ZM213.315 240.85C214.024 240.85 214.624 240.663 215.113 240.289C215.608 239.91 215.982 239.385 216.235 238.714C216.494 238.043 216.623 237.262 216.623 236.371C216.623 235.491 216.497 234.721 216.244 234.061C215.991 233.401 215.619 232.886 215.13 232.518C214.64 232.149 214.035 231.965 213.315 231.965C212.572 231.965 211.954 232.158 211.459 232.543C210.964 232.928 210.59 233.453 210.337 234.118C210.089 234.784 209.965 235.535 209.965 236.371C209.965 237.218 210.092 237.979 210.345 238.656C210.598 239.332 210.972 239.869 211.467 240.265C211.967 240.655 212.583 240.85 213.315 240.85ZM226.257 242.987C225.454 242.987 224.728 242.839 224.079 242.542C223.43 242.239 222.916 241.802 222.536 241.23C222.162 240.658 221.975 239.957 221.975 239.126C221.975 238.411 222.113 237.823 222.388 237.361C222.663 236.899 223.034 236.533 223.502 236.263C223.969 235.994 224.492 235.79 225.069 235.653C225.647 235.515 226.235 235.411 226.835 235.339C227.594 235.251 228.21 235.18 228.683 235.125C229.156 235.064 229.5 234.968 229.714 234.836C229.929 234.704 230.036 234.49 230.036 234.193V234.135C230.036 233.414 229.832 232.856 229.425 232.46C229.024 232.064 228.424 231.866 227.627 231.866C226.796 231.866 226.142 232.05 225.663 232.419C225.19 232.782 224.863 233.186 224.681 233.632L222.363 233.104C222.638 232.334 223.04 231.712 223.568 231.239C224.101 230.761 224.714 230.414 225.407 230.2C226.1 229.98 226.829 229.87 227.594 229.87C228.1 229.87 228.636 229.93 229.203 230.051C229.775 230.167 230.308 230.381 230.803 230.695C231.304 231.008 231.713 231.456 232.032 232.039C232.351 232.617 232.511 233.368 232.511 234.292V242.707H230.102V240.974H230.003C229.843 241.293 229.604 241.607 229.285 241.915C228.966 242.223 228.556 242.478 228.056 242.682C227.555 242.885 226.956 242.987 226.257 242.987ZM226.793 241.007C227.475 241.007 228.059 240.872 228.543 240.603C229.032 240.333 229.403 239.981 229.656 239.547C229.915 239.107 230.044 238.637 230.044 238.136V236.503C229.956 236.591 229.786 236.673 229.533 236.75C229.285 236.822 229.002 236.885 228.683 236.94C228.364 236.989 228.053 237.036 227.75 237.08C227.448 237.119 227.195 237.152 226.991 237.179C226.513 237.24 226.076 237.341 225.68 237.484C225.289 237.627 224.976 237.834 224.739 238.103C224.508 238.367 224.393 238.719 224.393 239.159C224.393 239.77 224.618 240.232 225.069 240.545C225.52 240.853 226.095 241.007 226.793 241.007ZM236.902 247.459C236.533 247.459 236.198 247.428 235.895 247.368C235.593 247.313 235.367 247.252 235.219 247.186L235.813 245.165C236.264 245.286 236.665 245.338 237.017 245.322C237.369 245.305 237.68 245.173 237.95 244.926C238.225 244.678 238.467 244.274 238.676 243.713L238.981 242.872L234.344 230.035H236.984L240.194 239.869H240.326L243.535 230.035H246.183L240.961 244.398C240.719 245.058 240.411 245.616 240.037 246.073C239.663 246.535 239.217 246.881 238.7 247.112C238.183 247.343 237.584 247.459 236.902 247.459ZM257.997 233.128L255.762 233.524C255.668 233.238 255.52 232.966 255.316 232.708C255.118 232.449 254.849 232.237 254.508 232.072C254.167 231.907 253.74 231.825 253.229 231.825C252.53 231.825 251.947 231.982 251.48 232.295C251.012 232.603 250.779 233.002 250.779 233.491C250.779 233.915 250.935 234.256 251.249 234.514C251.562 234.773 252.068 234.985 252.767 235.15L254.78 235.612C255.946 235.881 256.815 236.296 257.387 236.857C257.959 237.418 258.245 238.147 258.245 239.044C258.245 239.803 258.025 240.479 257.585 241.073C257.15 241.662 256.543 242.124 255.762 242.459C254.986 242.795 254.087 242.962 253.064 242.962C251.645 242.962 250.487 242.66 249.591 242.055C248.694 241.444 248.144 240.578 247.941 239.456L250.325 239.093C250.473 239.715 250.779 240.185 251.241 240.504C251.703 240.817 252.305 240.974 253.047 240.974C253.856 240.974 254.502 240.806 254.986 240.471C255.47 240.13 255.712 239.715 255.712 239.225C255.712 238.829 255.564 238.496 255.267 238.227C254.975 237.957 254.527 237.754 253.922 237.616L251.777 237.146C250.594 236.877 249.72 236.448 249.153 235.859C248.592 235.271 248.312 234.525 248.312 233.623C248.312 232.875 248.521 232.221 248.939 231.66C249.357 231.099 249.934 230.662 250.671 230.348C251.408 230.029 252.253 229.87 253.204 229.87C254.574 229.87 255.652 230.167 256.438 230.761C257.225 231.349 257.744 232.138 257.997 233.128Z" fill="#999999"/>
<rect x="46.4648" y="46.4646" width="179.551" height="30.6378" rx="15.3189" fill="#F3F9FF"/>
<path d="M61.1687 68.7834V54.301H66.5996C67.7122 54.301 68.6456 54.5084 69.3999 54.9233C70.1589 55.3381 70.7317 55.9086 71.1183 56.6346C71.5096 57.3559 71.7052 58.1762 71.7052 59.0955C71.7052 60.0242 71.5096 60.8492 71.1183 61.5705C70.727 62.2918 70.1495 62.8599 69.3858 63.2747C68.6221 63.6849 67.6815 63.89 66.5642 63.89H62.9648V61.7331H66.2107C66.8613 61.7331 67.394 61.62 67.8088 61.3937C68.2237 61.1674 68.5301 60.8563 68.7281 60.4603C68.9308 60.0643 69.0322 59.6093 69.0322 59.0955C69.0322 58.5816 68.9308 58.129 68.7281 57.7377C68.5301 57.3464 68.2213 57.0424 67.8018 56.8255C67.3869 56.6039 66.8518 56.4932 66.1965 56.4932H63.7922V68.7834H61.1687ZM73.984 68.7834V54.301H83.4033V56.5002H76.6076V60.432H82.9154V62.6312H76.6076V66.5842H83.4599V68.7834H73.984ZM86.0799 68.7834V54.301H91.5108C92.6234 54.301 93.5568 54.4943 94.3111 54.8808C95.0701 55.2674 95.6429 55.8096 96.0295 56.5073C96.4208 57.2003 96.6164 58.0088 96.6164 58.9328C96.6164 59.8616 96.4184 60.6677 96.0224 61.3513C95.6311 62.0301 95.0536 62.5558 94.2899 62.9282C93.5262 63.296 92.588 63.4798 91.4754 63.4798H87.6073V61.3018H91.1219C91.7724 61.3018 92.3052 61.2122 92.72 61.0331C93.1349 60.8492 93.4413 60.5828 93.6393 60.234C93.842 59.8804 93.9434 59.4467 93.9434 58.9328C93.9434 58.419 93.842 57.9805 93.6393 57.6175C93.4366 57.2498 93.1278 56.9717 92.7129 56.7831C92.2981 56.5898 91.763 56.4932 91.1077 56.4932H88.7034V68.7834H86.0799ZM93.5615 62.2211L97.1468 68.7834H94.2192L90.6976 62.2211H93.5615ZM99.0313 68.7834V54.301H108.309V56.5002H101.655V60.432H107.673V62.6312H101.655V68.7834H99.0313ZM123.64 61.5422C123.64 63.1027 123.348 64.4392 122.763 65.5518C122.183 66.6596 121.391 67.5082 120.387 68.0975C119.388 68.6868 118.254 68.9814 116.986 68.9814C115.718 68.9814 114.582 68.6868 113.577 68.0975C112.578 67.5035 111.786 66.6526 111.201 65.5447C110.622 64.4321 110.332 63.0979 110.332 61.5422C110.332 59.9818 110.622 58.6476 111.201 57.5397C111.786 56.4272 112.578 55.5762 113.577 54.9869C114.582 54.3976 115.718 54.103 116.986 54.103C118.254 54.103 119.388 54.3976 120.387 54.9869C121.391 55.5762 122.183 56.4272 122.763 57.5397C123.348 58.6476 123.64 59.9818 123.64 61.5422ZM121.003 61.5422C121.003 60.4438 120.83 59.5174 120.486 58.7631C120.147 58.0041 119.675 57.4313 119.072 57.0447C118.469 56.6534 117.773 56.4578 116.986 56.4578C116.199 56.4578 115.503 56.6534 114.9 57.0447C114.296 57.4313 113.823 58.0041 113.478 58.7631C113.139 59.5174 112.969 60.4438 112.969 61.5422C112.969 62.6407 113.139 63.5694 113.478 64.3284C113.823 65.0827 114.296 65.6555 114.9 66.0468C115.503 66.4333 116.199 66.6266 116.986 66.6266C117.773 66.6266 118.469 66.4333 119.072 66.0468C119.675 65.6555 120.147 65.0827 120.486 64.3284C120.83 63.5694 121.003 62.6407 121.003 61.5422ZM126.121 68.7834V54.301H131.551C132.664 54.301 133.597 54.4943 134.352 54.8808C135.111 55.2674 135.684 55.8096 136.07 56.5073C136.461 57.2003 136.657 58.0088 136.657 58.9328C136.657 59.8616 136.459 60.6677 136.063 61.3513C135.672 62.0301 135.094 62.5558 134.331 62.9282C133.567 63.296 132.629 63.4798 131.516 63.4798H127.648V61.3018H131.163C131.813 61.3018 132.346 61.2122 132.761 61.0331C133.176 60.8492 133.482 60.5828 133.68 60.234C133.883 59.8804 133.984 59.4467 133.984 58.9328C133.984 58.419 133.883 57.9805 133.68 57.6175C133.477 57.2498 133.168 56.9717 132.754 56.7831C132.339 56.5898 131.804 56.4932 131.148 56.4932H128.744V68.7834H126.121ZM133.602 62.2211L137.187 68.7834H134.26L130.738 62.2211H133.602ZM139.072 54.301H142.282L146.582 64.7951H146.752L151.051 54.301H154.262V68.7834H151.744V58.8338H151.61L147.607 68.741H145.726L141.724 58.8126H141.589V68.7834H139.072V54.301ZM158.978 68.7834H156.178L161.277 54.301H164.515L169.621 68.7834H166.821L162.953 57.271H162.839L158.978 68.7834ZM159.07 63.105H166.708V65.2123H159.07V63.105ZM183.43 54.301V68.7834H181.096L174.272 58.9187H174.152V68.7834H171.529V54.301H173.876L180.693 64.1728H180.82V54.301H183.43ZM198.685 59.1874H196.04C195.965 58.7537 195.826 58.3695 195.623 58.0347C195.42 57.6953 195.168 57.4077 194.866 57.172C194.565 56.9363 194.22 56.7595 193.834 56.6417C193.452 56.5191 193.039 56.4578 192.596 56.4578C191.809 56.4578 191.111 56.6558 190.503 57.0518C189.895 57.4431 189.419 58.0182 189.075 58.7773C188.731 59.5315 188.558 60.4532 188.558 61.5422C188.558 62.6501 188.731 63.5835 189.075 64.3425C189.424 65.0968 189.9 65.6673 190.503 66.0538C191.111 66.4357 191.807 66.6266 192.589 66.6266C193.023 66.6266 193.428 66.5701 193.806 66.4569C194.187 66.3391 194.529 66.167 194.831 65.9407C195.137 65.7144 195.394 65.4363 195.602 65.1063C195.814 64.7763 195.96 64.3991 196.04 63.9748L198.685 63.989C198.586 64.6773 198.371 65.3231 198.041 65.9266C197.716 66.53 197.289 67.0627 196.761 67.5247C196.233 67.982 195.616 68.3403 194.909 68.5996C194.202 68.8542 193.417 68.9814 192.554 68.9814C191.281 68.9814 190.145 68.6868 189.145 68.0975C188.146 67.5082 187.359 66.6573 186.784 65.5447C186.208 64.4321 185.921 63.0979 185.921 61.5422C185.921 59.9818 186.211 58.6476 186.791 57.5397C187.37 56.4272 188.16 55.5762 189.16 54.9869C190.159 54.3976 191.29 54.103 192.554 54.103C193.36 54.103 194.11 54.2161 194.803 54.4424C195.496 54.6687 196.113 55.0011 196.655 55.4395C197.198 55.8732 197.643 56.4059 197.992 57.0377C198.345 57.6647 198.576 58.3812 198.685 59.1874ZM201.087 68.7834V54.301H210.507V56.5002H203.711V60.432H210.019V62.6312H203.711V66.5842H210.563V68.7834H201.087Z" fill="#0B8AFF"/>
<line opacity="0.3" x1="46.4648" y1="359.271" x2="568.191" y2="359.271" stroke="#3C3C43" stroke-opacity="0.29" stroke-width="1.65945"/>
<line opacity="0.3" x1="46.4648" y1="420.67" x2="568.191" y2="420.67" stroke="#3C3C43" stroke-opacity="0.29" stroke-width="1.65945"/>
<line opacity="0.3" x1="46.4648" y1="482.07" x2="568.191" y2="482.07" stroke="#3C3C43" stroke-opacity="0.29" stroke-width="1.65945"/>
<line opacity="0.3" x1="46.4648" y1="543.469" x2="568.191" y2="543.469" stroke="#3C3C43" stroke-opacity="0.29" stroke-width="1.65945"/>
<line opacity="0.3" x1="46.4648" y1="604.869" x2="568.191" y2="604.869" stroke="#3C3C43" stroke-opacity="0.29" stroke-width="1.65945"/>
<line opacity="0.3" x1="46.4648" y1="666.269" x2="568.191" y2="666.269" stroke="#3C3C43" stroke-opacity="0.29" stroke-width="1.65945"/>
<line opacity="0.3" x1="46.4648" y1="727.668" x2="568.191" y2="727.668" stroke="#3C3C43" stroke-opacity="0.29" stroke-width="1.65945"/>
<g opacity="0.9">
<g clip-path="url(#clip0_1321_3)">
<path d="M46.4648 605.699C46.4648 598.367 52.4085 592.423 59.7404 592.423H114.612C121.944 592.423 127.888 598.367 127.888 605.699V731.817H46.4648V605.699Z" fill="#DADEE4"/>
<rect x="46.4648" y="592.423" width="80.313" height="13.2756" fill="#DADEE4"/>
<path d="M60.2801 616.854V631.337H57.6566V619.407H57.5717L54.1845 621.571V619.166L57.7839 616.854H60.2801ZM63.9573 631.337V629.441L68.9852 624.513C69.466 624.027 69.8667 623.596 70.1873 623.218C70.5079 622.841 70.7483 622.476 70.9086 622.122C71.0689 621.769 71.149 621.392 71.149 620.991C71.149 620.534 71.0453 620.142 70.8379 619.817C70.6305 619.487 70.3453 619.232 69.9822 619.053C69.6192 618.874 69.2067 618.785 68.7447 618.785C68.2686 618.785 67.8514 618.884 67.4931 619.082C67.1348 619.275 66.8566 619.551 66.6586 619.909C66.4653 620.267 66.3687 620.694 66.3687 621.189H63.8725C63.8725 620.27 64.0822 619.471 64.5018 618.792C64.9214 618.113 65.4989 617.587 66.2343 617.215C66.9745 616.842 67.8231 616.656 68.7801 616.656C69.7512 616.656 70.6045 616.838 71.34 617.201C72.0754 617.564 72.6459 618.061 73.0513 618.693C73.4614 619.324 73.6665 620.046 73.6665 620.857C73.6665 621.399 73.5628 621.931 73.3554 622.455C73.1479 622.978 72.7826 623.558 72.2593 624.194C71.7407 624.831 71.0123 625.602 70.0742 626.507L67.5779 629.045V629.144H73.8857V631.337H63.9573ZM84.0687 628.621V627.857C84.0687 627.296 84.1866 626.78 84.4223 626.309C84.6627 625.837 85.0116 625.458 85.4689 625.17C85.9262 624.883 86.4801 624.739 87.1307 624.739C87.8001 624.739 88.3611 624.883 88.8137 625.17C89.2663 625.453 89.6081 625.83 89.8391 626.302C90.0748 626.773 90.1926 627.292 90.1926 627.857V628.621C90.1926 629.182 90.0748 629.698 89.8391 630.17C89.6033 630.641 89.2568 631.021 88.7995 631.308C88.347 631.596 87.7907 631.74 87.1307 631.74C86.4707 631.74 85.912 631.596 85.4547 631.308C84.9974 631.021 84.6509 630.641 84.4152 630.17C84.1842 629.698 84.0687 629.182 84.0687 628.621ZM85.9144 627.857V628.621C85.9144 628.994 86.0039 629.335 86.1831 629.646C86.3622 629.958 86.6781 630.113 87.1307 630.113C87.588 630.113 87.9015 629.96 88.0712 629.654C88.2456 629.342 88.3328 628.998 88.3328 628.621V627.857C88.3328 627.48 88.2503 627.136 88.0853 626.825C87.9203 626.509 87.6021 626.351 87.1307 626.351C86.6875 626.351 86.374 626.509 86.1902 626.825C86.0063 627.136 85.9144 627.48 85.9144 627.857ZM76.7073 620.333V619.57C76.7073 619.004 76.8275 618.485 77.0679 618.014C77.3083 617.542 77.6572 617.165 78.1145 616.882C78.5718 616.595 79.1257 616.451 79.7763 616.451C80.441 616.451 80.9997 616.595 81.4522 616.882C81.9095 617.165 82.2537 617.542 82.4847 618.014C82.7157 618.485 82.8312 619.004 82.8312 619.57V620.333C82.8312 620.899 82.7133 621.418 82.4776 621.889C82.2466 622.356 81.9025 622.731 81.4452 623.013C80.9879 623.296 80.4316 623.438 79.7763 623.438C79.1116 623.438 78.5506 623.296 78.0933 623.013C77.6407 622.731 77.2966 622.353 77.0608 621.882C76.8251 621.41 76.7073 620.894 76.7073 620.333ZM78.5671 619.57V620.333C78.5671 620.71 78.6543 621.055 78.8287 621.366C79.0079 621.672 79.3237 621.825 79.7763 621.825C80.2289 621.825 80.54 621.672 80.7097 621.366C80.8842 621.055 80.9714 620.71 80.9714 620.333V619.57C80.9714 619.192 80.8889 618.848 80.7239 618.537C80.5589 618.221 80.243 618.063 79.7763 618.063C79.3284 618.063 79.0149 618.221 78.8358 618.537C78.6566 618.853 78.5671 619.197 78.5671 619.57ZM77.5134 631.337L87.4701 616.854H89.238L79.2813 631.337H77.5134Z" fill="#DADEE4"/>
</g>
<g clip-path="url(#clip1_1321_3)">
<path d="M134.525 476.262C134.525 468.93 140.469 462.986 147.801 462.986H202.673C210.005 462.986 215.948 468.93 215.948 476.262V731.817H134.525V476.262Z" fill="#DADEE4"/>
<rect x="134.248" y="462.986" width="80.313" height="13.2756" fill="#DADEE4"/>
<path d="M142.703 501.899L148.862 489.708V489.609H141.713V487.417H151.578V489.659L145.426 501.899H142.703ZM158.717 502.097C157.665 502.097 156.732 501.921 155.916 501.567C155.105 501.214 154.469 500.73 154.007 500.117C153.55 499.5 153.323 498.8 153.328 498.017C153.323 497.409 153.455 496.85 153.724 496.341C153.993 495.832 154.356 495.408 154.813 495.068C155.275 494.724 155.789 494.505 156.355 494.411V494.312C155.61 494.147 155.006 493.767 154.544 493.173C154.087 492.575 153.861 491.884 153.866 491.101C153.861 490.356 154.068 489.692 154.488 489.107C154.907 488.523 155.483 488.063 156.213 487.728C156.944 487.389 157.778 487.219 158.717 487.219C159.645 487.219 160.473 487.389 161.199 487.728C161.929 488.063 162.505 488.523 162.924 489.107C163.348 489.692 163.561 490.356 163.561 491.101C163.561 491.884 163.327 492.575 162.86 493.173C162.398 493.767 161.802 494.147 161.071 494.312V494.411C161.637 494.505 162.146 494.724 162.599 495.068C163.056 495.408 163.419 495.832 163.688 496.341C163.961 496.85 164.098 497.409 164.098 498.017C164.098 498.8 163.867 499.5 163.405 500.117C162.943 500.73 162.307 501.214 161.496 501.567C160.69 501.921 159.763 502.097 158.717 502.097ZM158.717 500.075C159.259 500.075 159.73 499.983 160.131 499.799C160.532 499.611 160.843 499.347 161.064 499.007C161.286 498.668 161.399 498.277 161.404 497.833C161.399 497.371 161.279 496.964 161.043 496.61C160.812 496.252 160.494 495.971 160.088 495.768C159.688 495.566 159.23 495.464 158.717 495.464C158.198 495.464 157.736 495.566 157.331 495.768C156.925 495.971 156.605 496.252 156.369 496.61C156.138 496.964 156.025 497.371 156.029 497.833C156.025 498.277 156.133 498.668 156.355 499.007C156.576 499.342 156.887 499.604 157.288 499.792C157.694 499.981 158.17 500.075 158.717 500.075ZM158.717 493.477C159.16 493.477 159.551 493.388 159.89 493.209C160.235 493.029 160.506 492.78 160.704 492.459C160.902 492.138 161.003 491.768 161.008 491.349C161.003 490.934 160.904 490.571 160.711 490.26C160.517 489.944 160.249 489.701 159.905 489.531C159.56 489.357 159.164 489.27 158.717 489.27C158.259 489.27 157.856 489.357 157.507 489.531C157.163 489.701 156.894 489.944 156.701 490.26C156.513 490.571 156.421 490.934 156.425 491.349C156.421 491.768 156.515 492.138 156.708 492.459C156.906 492.775 157.177 493.025 157.521 493.209C157.87 493.388 158.269 493.477 158.717 493.477ZM174.166 499.184V498.42C174.166 497.859 174.284 497.343 174.52 496.872C174.76 496.4 175.109 496.021 175.566 495.733C176.024 495.446 176.577 495.302 177.228 495.302C177.897 495.302 178.458 495.446 178.911 495.733C179.364 496.016 179.705 496.393 179.936 496.865C180.172 497.336 180.29 497.855 180.29 498.42V499.184C180.29 499.745 180.172 500.261 179.936 500.733C179.701 501.204 179.354 501.584 178.897 501.871C178.444 502.159 177.888 502.303 177.228 502.303C176.568 502.303 176.009 502.159 175.552 501.871C175.095 501.584 174.748 501.204 174.513 500.733C174.282 500.261 174.166 499.745 174.166 499.184ZM176.012 498.42V499.184C176.012 499.556 176.101 499.898 176.28 500.209C176.46 500.521 176.775 500.676 177.228 500.676C177.685 500.676 177.999 500.523 178.169 500.216C178.343 499.905 178.43 499.561 178.43 499.184V498.42C178.43 498.043 178.348 497.699 178.183 497.388C178.018 497.072 177.699 496.914 177.228 496.914C176.785 496.914 176.471 497.072 176.288 497.388C176.104 497.699 176.012 498.043 176.012 498.42ZM166.805 490.896V490.132C166.805 489.567 166.925 489.048 167.165 488.577C167.406 488.105 167.755 487.728 168.212 487.445C168.669 487.158 169.223 487.014 169.874 487.014C170.538 487.014 171.097 487.158 171.55 487.445C172.007 487.728 172.351 488.105 172.582 488.577C172.813 489.048 172.929 489.567 172.929 490.132V490.896C172.929 491.462 172.811 491.98 172.575 492.452C172.344 492.919 172 493.293 171.543 493.576C171.085 493.859 170.529 494.001 169.874 494.001C169.209 494.001 168.648 493.859 168.191 493.576C167.738 493.293 167.394 492.916 167.158 492.445C166.922 491.973 166.805 491.457 166.805 490.896ZM168.664 490.132V490.896C168.664 491.273 168.752 491.617 168.926 491.929C169.105 492.235 169.421 492.388 169.874 492.388C170.326 492.388 170.637 492.235 170.807 491.929C170.982 491.617 171.069 491.273 171.069 490.896V490.132C171.069 489.755 170.986 489.411 170.821 489.1C170.656 488.784 170.34 488.626 169.874 488.626C169.426 488.626 169.112 488.784 168.933 489.1C168.754 489.416 168.664 489.76 168.664 490.132ZM167.611 501.899L177.567 487.417H179.335L169.379 501.899H167.611Z" fill="#DADEE4"/>
</g>
<g clip-path="url(#clip2_1321_3)">
<path d="M222.586 550.937C222.586 543.605 228.53 537.661 235.862 537.661H290.733C298.065 537.661 304.009 543.605 304.009 550.937V731.817H222.586V550.937Z" fill="#DADEE4"/>
<rect x="222.033" y="537.661" width="80.313" height="13.2756" fill="#DADEE4"/>
<path d="M235.262 576.773C234.569 576.768 233.892 576.648 233.232 576.412C232.572 576.172 231.978 575.783 231.45 575.245C230.922 574.703 230.502 573.984 230.191 573.089C229.88 572.188 229.727 571.073 229.732 569.744C229.732 568.504 229.864 567.398 230.128 566.427C230.392 565.456 230.771 564.636 231.266 563.966C231.761 563.292 232.358 562.778 233.055 562.425C233.758 562.071 234.543 561.894 235.41 561.894C236.32 561.894 237.126 562.073 237.829 562.432C238.536 562.79 239.106 563.28 239.54 563.903C239.974 564.52 240.242 565.218 240.346 565.996H237.765C237.633 565.439 237.362 564.996 236.952 564.666C236.546 564.332 236.032 564.164 235.41 564.164C234.406 564.164 233.633 564.6 233.091 565.472C232.553 566.345 232.282 567.542 232.277 569.065H232.376C232.607 568.65 232.907 568.294 233.274 567.997C233.642 567.7 234.057 567.471 234.519 567.311C234.986 567.146 235.478 567.064 235.997 567.064C236.846 567.064 237.607 567.266 238.281 567.672C238.96 568.077 239.497 568.636 239.893 569.348C240.289 570.055 240.485 570.866 240.48 571.78C240.485 572.733 240.268 573.588 239.83 574.347C239.391 575.102 238.781 575.696 237.998 576.129C237.216 576.563 236.303 576.777 235.262 576.773ZM235.247 574.651C235.761 574.651 236.221 574.526 236.626 574.277C237.032 574.027 237.352 573.69 237.588 573.265C237.824 572.841 237.939 572.365 237.935 571.837C237.939 571.318 237.826 570.849 237.595 570.43C237.369 570.01 237.055 569.678 236.655 569.433C236.254 569.187 235.797 569.065 235.283 569.065C234.901 569.065 234.545 569.138 234.215 569.284C233.885 569.43 233.597 569.633 233.352 569.892C233.107 570.147 232.914 570.444 232.772 570.783C232.636 571.118 232.565 571.476 232.56 571.858C232.565 572.363 232.683 572.827 232.914 573.251C233.145 573.675 233.463 574.015 233.868 574.269C234.274 574.524 234.734 574.651 235.247 574.651ZM242.871 576.575V574.68L247.898 569.751C248.379 569.265 248.78 568.834 249.101 568.457C249.421 568.08 249.662 567.714 249.822 567.361C249.982 567.007 250.062 566.63 250.062 566.229C250.062 565.772 249.959 565.381 249.751 565.055C249.544 564.725 249.258 564.471 248.895 564.292C248.532 564.112 248.12 564.023 247.658 564.023C247.182 564.023 246.765 564.122 246.406 564.32C246.048 564.513 245.77 564.789 245.572 565.147C245.379 565.505 245.282 565.932 245.282 566.427H242.786C242.786 565.508 242.995 564.709 243.415 564.03C243.835 563.351 244.412 562.825 245.148 562.453C245.888 562.081 246.736 561.894 247.693 561.894C248.664 561.894 249.518 562.076 250.253 562.439C250.989 562.802 251.559 563.299 251.964 563.931C252.375 564.563 252.58 565.284 252.58 566.095C252.58 566.637 252.476 567.17 252.269 567.693C252.061 568.216 251.696 568.796 251.172 569.433C250.654 570.069 249.926 570.84 248.987 571.745L246.491 574.284V574.383H252.799V576.575H242.871ZM262.982 573.859V573.096C262.982 572.535 263.1 572.018 263.335 571.547C263.576 571.075 263.925 570.696 264.382 570.408C264.839 570.121 265.393 569.977 266.044 569.977C266.713 569.977 267.274 570.121 267.727 570.408C268.179 570.691 268.521 571.068 268.752 571.54C268.988 572.011 269.106 572.53 269.106 573.096V573.859C269.106 574.42 268.988 574.937 268.752 575.408C268.517 575.879 268.17 576.259 267.713 576.546C267.26 576.834 266.704 576.978 266.044 576.978C265.384 576.978 264.825 576.834 264.368 576.546C263.911 576.259 263.564 575.879 263.328 575.408C263.097 574.937 262.982 574.42 262.982 573.859ZM264.828 573.096V573.859C264.828 574.232 264.917 574.574 265.096 574.885C265.275 575.196 265.591 575.351 266.044 575.351C266.501 575.351 266.815 575.198 266.984 574.892C267.159 574.581 267.246 574.236 267.246 573.859V573.096C267.246 572.718 267.164 572.374 266.999 572.063C266.834 571.747 266.515 571.589 266.044 571.589C265.601 571.589 265.287 571.747 265.103 572.063C264.919 572.374 264.828 572.718 264.828 573.096ZM255.62 565.571V564.808C255.62 564.242 255.741 563.723 255.981 563.252C256.222 562.781 256.57 562.403 257.028 562.121C257.485 561.833 258.039 561.689 258.689 561.689C259.354 561.689 259.913 561.833 260.365 562.121C260.823 562.403 261.167 562.781 261.398 563.252C261.629 563.723 261.744 564.242 261.744 564.808V565.571C261.744 566.137 261.627 566.656 261.391 567.127C261.16 567.594 260.816 567.969 260.358 568.252C259.901 568.534 259.345 568.676 258.689 568.676C258.025 568.676 257.464 568.534 257.006 568.252C256.554 567.969 256.21 567.592 255.974 567.12C255.738 566.649 255.62 566.132 255.62 565.571ZM257.48 564.808V565.571C257.48 565.949 257.567 566.293 257.742 566.604C257.921 566.91 258.237 567.064 258.689 567.064C259.142 567.064 259.453 566.91 259.623 566.604C259.797 566.293 259.885 565.949 259.885 565.571V564.808C259.885 564.431 259.802 564.086 259.637 563.775C259.472 563.459 259.156 563.302 258.689 563.302C258.242 563.302 257.928 563.459 257.749 563.775C257.57 564.091 257.48 564.435 257.48 564.808ZM256.427 576.575L266.383 562.092H268.151L258.194 576.575H256.427Z" fill="#DADEE4"/>
</g>
<g clip-path="url(#clip3_1321_3)">
<path d="M310.646 512.77C310.646 505.438 316.59 499.494 323.922 499.494H378.794C386.126 499.494 392.069 505.438 392.069 512.77V731.817H310.646V512.77Z" fill="#DADEE4"/>
<rect x="311.476" y="499.494" width="80.313" height="13.2756" fill="#DADEE4"/>
<path d="M319.931 538.407L326.09 526.216V526.117H318.941V523.925H328.805V526.167L322.653 538.407H319.931ZM336.13 538.683C334.965 538.683 333.966 538.389 333.131 537.799C332.302 537.205 331.663 536.35 331.215 535.232C330.772 534.11 330.55 532.76 330.55 531.18C330.555 529.601 330.779 528.257 331.222 527.15C331.67 526.037 332.309 525.188 333.138 524.604C333.973 524.019 334.97 523.727 336.13 523.727C337.289 523.727 338.287 524.019 339.121 524.604C339.955 525.188 340.594 526.037 341.037 527.15C341.485 528.262 341.709 529.606 341.709 531.18C341.709 532.764 341.485 534.117 341.037 535.239C340.594 536.357 339.955 537.21 339.121 537.799C338.291 538.389 337.294 538.683 336.13 538.683ZM336.13 536.47C337.035 536.47 337.749 536.024 338.272 535.133C338.8 534.238 339.064 532.92 339.064 531.18C339.064 530.03 338.944 529.064 338.704 528.281C338.463 527.498 338.124 526.909 337.685 526.513C337.247 526.112 336.728 525.912 336.13 525.912C335.229 525.912 334.517 526.36 333.994 527.256C333.471 528.147 333.207 529.455 333.202 531.18C333.197 532.335 333.313 533.306 333.549 534.094C333.789 534.881 334.128 535.475 334.567 535.876C335.005 536.272 335.526 536.47 336.13 536.47ZM351.802 535.692V534.928C351.802 534.367 351.92 533.851 352.156 533.38C352.396 532.908 352.745 532.529 353.202 532.241C353.659 531.953 354.213 531.81 354.864 531.81C355.533 531.81 356.094 531.953 356.547 532.241C357 532.524 357.341 532.901 357.572 533.372C357.808 533.844 357.926 534.363 357.926 534.928V535.692C357.926 536.253 357.808 536.769 357.572 537.241C357.337 537.712 356.99 538.092 356.533 538.379C356.08 538.667 355.524 538.81 354.864 538.81C354.204 538.81 353.645 538.667 353.188 538.379C352.731 538.092 352.384 537.712 352.148 537.241C351.917 536.769 351.802 536.253 351.802 535.692ZM353.648 534.928V535.692C353.648 536.064 353.737 536.406 353.916 536.717C354.096 537.028 354.411 537.184 354.864 537.184C355.321 537.184 355.635 537.031 355.804 536.724C355.979 536.413 356.066 536.069 356.066 535.692V534.928C356.066 534.551 355.984 534.207 355.819 533.896C355.654 533.58 355.335 533.422 354.864 533.422C354.421 533.422 354.107 533.58 353.923 533.896C353.74 534.207 353.648 534.551 353.648 534.928ZM344.441 527.404V526.64C344.441 526.075 344.561 525.556 344.801 525.085C345.042 524.613 345.39 524.236 345.848 523.953C346.305 523.666 346.859 523.522 347.51 523.522C348.174 523.522 348.733 523.666 349.186 523.953C349.643 524.236 349.987 524.613 350.218 525.085C350.449 525.556 350.564 526.075 350.564 526.64V527.404C350.564 527.97 350.447 528.488 350.211 528.96C349.98 529.427 349.636 529.801 349.178 530.084C348.721 530.367 348.165 530.509 347.51 530.509C346.845 530.509 346.284 530.367 345.827 530.084C345.374 529.801 345.03 529.424 344.794 528.953C344.558 528.481 344.441 527.965 344.441 527.404ZM346.3 526.64V527.404C346.3 527.781 346.388 528.125 346.562 528.437C346.741 528.743 347.057 528.896 347.51 528.896C347.962 528.896 348.273 528.743 348.443 528.437C348.617 528.125 348.705 527.781 348.705 527.404V526.64C348.705 526.263 348.622 525.919 348.457 525.608C348.292 525.292 347.976 525.134 347.51 525.134C347.062 525.134 346.748 525.292 346.569 525.608C346.39 525.924 346.3 526.268 346.3 526.64ZM345.247 538.407L355.203 523.925H356.971L347.015 538.407H345.247Z" fill="#DADEE4"/>
</g>
<g clip-path="url(#clip4_1321_3)">
<path d="M398.708 476.262C398.708 468.93 404.652 462.986 411.984 462.986H466.855C474.187 462.986 480.131 468.93 480.131 476.262V731.817H398.708V476.262Z" fill="#DADEE4"/>
<rect x="399.261" y="462.986" width="80.313" height="13.2756" fill="#DADEE4"/>
<path d="M407.716 501.899L413.875 489.708V489.609H406.726V487.417H416.591V489.659L410.438 501.899H407.716ZM423.713 502.097C422.77 502.097 421.927 501.921 421.182 501.567C420.437 501.209 419.845 500.719 419.407 500.096C418.973 499.474 418.742 498.762 418.714 497.961H421.26C421.307 498.555 421.564 499.04 422.03 499.417C422.497 499.79 423.058 499.976 423.713 499.976C424.227 499.976 424.685 499.858 425.085 499.622C425.486 499.387 425.802 499.059 426.033 498.64C426.264 498.22 426.377 497.741 426.372 497.204C426.377 496.657 426.261 496.172 426.026 495.747C425.79 495.323 425.467 494.991 425.057 494.75C424.647 494.505 424.175 494.382 423.643 494.382C423.209 494.378 422.782 494.458 422.363 494.623C421.943 494.788 421.611 495.005 421.366 495.273L418.997 494.885L419.753 487.417H428.154V489.609H421.924L421.507 493.449H421.592C421.861 493.133 422.24 492.872 422.73 492.664C423.221 492.452 423.758 492.346 424.343 492.346C425.22 492.346 426.002 492.553 426.69 492.968C427.379 493.378 427.921 493.944 428.317 494.665C428.713 495.387 428.911 496.212 428.911 497.14C428.911 498.097 428.689 498.951 428.246 499.7C427.808 500.445 427.197 501.032 426.415 501.461C425.637 501.885 424.736 502.097 423.713 502.097ZM439.023 499.184V498.42C439.023 497.859 439.141 497.343 439.377 496.872C439.617 496.4 439.966 496.021 440.423 495.733C440.881 495.446 441.435 495.302 442.085 495.302C442.755 495.302 443.316 495.446 443.768 495.733C444.221 496.016 444.563 496.393 444.794 496.865C445.029 497.336 445.147 497.855 445.147 498.42V499.184C445.147 499.745 445.029 500.261 444.794 500.733C444.558 501.204 444.211 501.584 443.754 501.871C443.301 502.159 442.745 502.303 442.085 502.303C441.425 502.303 440.866 502.159 440.409 501.871C439.952 501.584 439.605 501.204 439.37 500.733C439.139 500.261 439.023 499.745 439.023 499.184ZM440.869 498.42V499.184C440.869 499.556 440.958 499.898 441.138 500.209C441.317 500.521 441.633 500.676 442.085 500.676C442.542 500.676 442.856 500.523 443.026 500.216C443.2 499.905 443.287 499.561 443.287 499.184V498.42C443.287 498.043 443.205 497.699 443.04 497.388C442.875 497.072 442.557 496.914 442.085 496.914C441.642 496.914 441.328 497.072 441.145 497.388C440.961 497.699 440.869 498.043 440.869 498.42ZM431.662 490.896V490.132C431.662 489.567 431.782 489.048 432.022 488.577C432.263 488.105 432.612 487.728 433.069 487.445C433.526 487.158 434.08 487.014 434.731 487.014C435.395 487.014 435.954 487.158 436.407 487.445C436.864 487.728 437.208 488.105 437.439 488.577C437.67 489.048 437.786 489.567 437.786 490.132V490.896C437.786 491.462 437.668 491.98 437.432 492.452C437.201 492.919 436.857 493.293 436.4 493.576C435.942 493.859 435.386 494.001 434.731 494.001C434.066 494.001 433.505 493.859 433.048 493.576C432.595 493.293 432.251 492.916 432.015 492.445C431.78 491.973 431.662 491.457 431.662 490.896ZM433.522 490.132V490.896C433.522 491.273 433.609 491.617 433.783 491.929C433.962 492.235 434.278 492.388 434.731 492.388C435.183 492.388 435.494 492.235 435.664 491.929C435.839 491.617 435.926 491.273 435.926 490.896V490.132C435.926 489.755 435.843 489.411 435.678 489.1C435.513 488.784 435.197 488.626 434.731 488.626C434.283 488.626 433.969 488.784 433.79 489.1C433.611 489.416 433.522 489.76 433.522 490.132ZM432.468 501.899L442.425 487.417H444.192L434.236 501.899H432.468Z" fill="#DADEE4"/>
</g>
<g clip-path="url(#clip5_1321_3)">
<path d="M486.769 373.376C486.769 366.044 492.712 360.1 500.044 360.1H554.916C562.248 360.1 568.191 366.044 568.191 373.376V731.817H486.769V373.376Z" fill="#DADEE4"/>
<rect x="487.045" y="360.1" width="80.313" height="13.2756" fill="#DADEE4"/>
<path d="M500.861 384.531V399.014H498.238V387.084H498.153L494.766 389.248V386.844L498.365 384.531H500.861ZM509.892 399.29C508.727 399.29 507.728 398.995 506.893 398.406C506.063 397.812 505.425 396.956 504.977 395.839C504.534 394.717 504.312 393.366 504.312 391.787C504.317 390.207 504.541 388.864 504.984 387.756C505.432 386.643 506.071 385.795 506.9 385.21C507.735 384.626 508.732 384.333 509.892 384.333C511.051 384.333 512.048 384.626 512.883 385.21C513.717 385.795 514.356 386.643 514.799 387.756C515.247 388.869 515.471 390.212 515.471 391.787C515.471 393.371 515.247 394.724 514.799 395.846C514.356 396.963 513.717 397.816 512.883 398.406C512.053 398.995 511.056 399.29 509.892 399.29ZM509.892 397.076C510.797 397.076 511.511 396.631 512.034 395.74C512.562 394.844 512.826 393.526 512.826 391.787C512.826 390.636 512.706 389.67 512.466 388.887C512.225 388.105 511.886 387.516 511.447 387.12C511.009 386.719 510.49 386.518 509.892 386.518C508.991 386.518 508.279 386.966 507.756 387.862C507.233 388.753 506.969 390.061 506.964 391.787C506.959 392.942 507.075 393.913 507.31 394.7C507.551 395.487 507.89 396.081 508.329 396.482C508.767 396.878 509.288 397.076 509.892 397.076ZM522.855 399.212C521.912 399.212 521.069 399.035 520.324 398.681C519.579 398.323 518.987 397.833 518.549 397.211C518.115 396.588 517.884 395.876 517.856 395.075H520.402C520.449 395.669 520.706 396.155 521.172 396.532C521.639 396.904 522.2 397.09 522.855 397.09C523.369 397.09 523.827 396.972 524.227 396.737C524.628 396.501 524.944 396.173 525.175 395.754C525.406 395.334 525.519 394.856 525.514 394.318C525.519 393.771 525.403 393.286 525.168 392.862C524.932 392.437 524.609 392.105 524.199 391.864C523.789 391.619 523.317 391.497 522.785 391.497C522.351 391.492 521.924 391.572 521.505 391.737C521.085 391.902 520.753 392.119 520.508 392.388L518.139 391.999L518.895 384.531H527.296V386.724H521.066L520.649 390.563H520.734C521.003 390.247 521.382 389.986 521.872 389.778C522.363 389.566 522.9 389.46 523.485 389.46C524.362 389.46 525.144 389.668 525.832 390.082C526.521 390.493 527.063 391.058 527.459 391.78C527.855 392.501 528.053 393.326 528.053 394.255C528.053 395.212 527.831 396.065 527.388 396.815C526.95 397.559 526.339 398.146 525.557 398.575C524.779 399 523.878 399.212 522.855 399.212ZM538.165 396.298V395.535C538.165 394.974 538.283 394.457 538.519 393.986C538.759 393.515 539.108 393.135 539.565 392.847C540.023 392.56 540.577 392.416 541.227 392.416C541.897 392.416 542.458 392.56 542.91 392.847C543.363 393.13 543.705 393.507 543.936 393.979C544.171 394.45 544.289 394.969 544.289 395.535V396.298C544.289 396.859 544.171 397.376 543.936 397.847C543.7 398.318 543.353 398.698 542.896 398.986C542.443 399.273 541.887 399.417 541.227 399.417C540.567 399.417 540.009 399.273 539.551 398.986C539.094 398.698 538.747 398.318 538.512 397.847C538.281 397.376 538.165 396.859 538.165 396.298ZM540.011 395.535V396.298C540.011 396.671 540.1 397.013 540.28 397.324C540.459 397.635 540.775 397.79 541.227 397.79C541.684 397.79 541.998 397.637 542.168 397.331C542.342 397.02 542.429 396.675 542.429 396.298V395.535C542.429 395.157 542.347 394.813 542.182 394.502C542.017 394.186 541.699 394.028 541.227 394.028C540.784 394.028 540.471 394.186 540.287 394.502C540.103 394.813 540.011 395.157 540.011 395.535ZM530.804 388.011V387.247C530.804 386.681 530.924 386.162 531.164 385.691C531.405 385.22 531.754 384.842 532.211 384.56C532.668 384.272 533.222 384.128 533.873 384.128C534.538 384.128 535.096 384.272 535.549 384.56C536.006 384.842 536.35 385.22 536.581 385.691C536.812 386.162 536.928 386.681 536.928 387.247V388.011C536.928 388.576 536.81 389.095 536.574 389.566C536.343 390.033 535.999 390.408 535.542 390.691C535.084 390.973 534.528 391.115 533.873 391.115C533.208 391.115 532.647 390.973 532.19 390.691C531.737 390.408 531.393 390.031 531.157 389.559C530.922 389.088 530.804 388.572 530.804 388.011ZM532.664 387.247V388.011C532.664 388.388 532.751 388.732 532.925 389.043C533.104 389.349 533.42 389.503 533.873 389.503C534.325 389.503 534.637 389.349 534.806 389.043C534.981 388.732 535.068 388.388 535.068 388.011V387.247C535.068 386.87 534.985 386.525 534.82 386.214C534.655 385.898 534.34 385.741 533.873 385.741C533.425 385.741 533.111 385.898 532.932 386.214C532.753 386.53 532.664 386.874 532.664 387.247ZM531.61 399.014L541.567 384.531H543.334L533.378 399.014H531.61Z" fill="#DADEE4"/>
</g>
</g>
<circle cx="53.1026" cy="784.535" r="6.6378" fill="#0B8AFF"/>
<path d="M82.5066 780.857C82.4311 780.188 82.12 779.669 81.5731 779.302C81.0263 778.929 80.338 778.743 79.5083 778.743C78.9142 778.743 78.4004 778.837 77.9667 779.026C77.5329 779.21 77.1959 779.464 76.9554 779.79C76.7197 780.11 76.6019 780.476 76.6019 780.886C76.6019 781.23 76.682 781.527 76.8423 781.777C77.0073 782.027 77.2218 782.236 77.4858 782.406C77.7545 782.571 78.0421 782.71 78.3485 782.823C78.655 782.932 78.9496 783.021 79.2325 783.092L80.6468 783.46C81.1088 783.573 81.5826 783.726 82.0681 783.919C82.5537 784.113 83.0039 784.367 83.4188 784.683C83.8337 784.999 84.1684 785.39 84.423 785.857C84.6822 786.324 84.8119 786.882 84.8119 787.533C84.8119 788.353 84.5997 789.082 84.1755 789.718C83.7559 790.354 83.1454 790.857 82.3439 791.224C81.5472 791.592 80.5831 791.776 79.4517 791.776C78.3674 791.776 77.4292 791.604 76.6372 791.26C75.8452 790.915 75.2253 790.428 74.7774 789.796C74.3295 789.159 74.082 788.405 74.0349 787.533H76.2271C76.2695 788.056 76.4392 788.492 76.7362 788.841C77.0379 789.185 77.4222 789.442 77.8889 789.612C78.3603 789.777 78.8765 789.859 79.4375 789.859C80.0551 789.859 80.6043 789.763 81.0852 789.57C81.5708 789.372 81.9526 789.098 82.2308 788.749C82.5089 788.396 82.648 787.983 82.648 787.512C82.648 787.083 82.5254 786.731 82.2803 786.458C82.0399 786.185 81.7122 785.958 81.2973 785.779C80.8872 785.6 80.4228 785.442 79.9043 785.305L78.193 784.839C77.0332 784.523 76.1139 784.058 75.4351 783.446C74.7609 782.833 74.4238 782.022 74.4238 781.013C74.4238 780.179 74.6501 779.45 75.1027 778.828C75.5553 778.206 76.1681 777.722 76.9413 777.378C77.7144 777.029 78.5866 776.855 79.5578 776.855C80.5383 776.855 81.4034 777.027 82.153 777.371C82.9073 777.715 83.5013 778.189 83.935 778.793C84.3687 779.391 84.595 780.08 84.6139 780.857H82.5066ZM87.423 791.535V777.053H96.5029V778.934H89.6081V783.347H96.0291V785.221H89.6081V789.654H96.5877V791.535H87.423ZM99.4216 791.535V777.053H108.501V778.934H101.607V783.347H108.028V785.221H101.607V789.654H108.586V791.535H99.4216ZM117.914 791.535H115.594L120.806 777.053H123.33L128.542 791.535H126.223L122.128 779.684H122.015L117.914 791.535ZM118.303 785.864H125.827V787.703H118.303V785.864ZM130.634 791.535V777.053H132.819V789.654H139.381V791.535H130.634ZM141.874 791.535V777.053H144.059V789.654H150.621V791.535H141.874Z" fill="#0B8AFF"/>
<defs>
<clipPath id="clip0_1321_3">
<path d="M46.4648 605.699C46.4648 598.367 52.4085 592.423 59.7404 592.423H114.612C121.944 592.423 127.888 598.367 127.888 605.699V731.817H46.4648V605.699Z" fill="white"/>
</clipPath>
<clipPath id="clip1_1321_3">
<path d="M134.525 476.262C134.525 468.93 140.469 462.986 147.801 462.986H202.673C210.005 462.986 215.948 468.93 215.948 476.262V731.817H134.525V476.262Z" fill="white"/>
</clipPath>
<clipPath id="clip2_1321_3">
<path d="M222.586 550.937C222.586 543.605 228.53 537.661 235.862 537.661H290.733C298.065 537.661 304.009 543.605 304.009 550.937V731.817H222.586V550.937Z" fill="white"/>
</clipPath>
<clipPath id="clip3_1321_3">
<path d="M310.646 512.77C310.646 505.438 316.59 499.494 323.922 499.494H378.794C386.126 499.494 392.069 505.438 392.069 512.77V731.817H310.646V512.77Z" fill="white"/>
</clipPath>
<clipPath id="clip4_1321_3">
<path d="M398.708 476.262C398.708 468.93 404.652 462.986 411.984 462.986H466.855C474.187 462.986 480.131 468.93 480.131 476.262V731.817H398.708V476.262Z" fill="white"/>
</clipPath>
<clipPath id="clip5_1321_3">
<path d="M486.769 373.376C486.769 366.044 492.712 360.1 500.044 360.1H554.916C562.248 360.1 568.191 366.044 568.191 373.376V731.817H486.769V373.376Z" fill="white"/>
</clipPath>
</defs>
</svg>
