<svg width="699" height="441" viewBox="0 0 699 441" fill="none" xmlns="http://www.w3.org/2000/svg">
<rect width="699" height="440.879" transform="translate(0 0.024292)" fill="white"/>
<rect x="37.6816" y="99.8814" width="54.6388" height="54.6388" rx="27.3194" fill="#0B8AFF"/>
<rect x="92.3203" y="99.8814" width="54.6388" height="54.6388" rx="27.3194" fill="#0B8AFF"/>
<rect x="146.959" y="99.8814" width="54.6388" height="54.6388" rx="27.3194" fill="#EEF1F6"/>
<rect x="201.598" y="99.8814" width="54.6388" height="54.6388" rx="27.3194" fill="#EEF1F6"/>
<rect x="256.237" y="99.8814" width="54.6388" height="54.6388" rx="27.3194" fill="#EEF1F6"/>
<rect x="310.876" y="99.8814" width="54.6388" height="54.6388" rx="27.3194" fill="#EEF1F6"/>
<rect x="365.515" y="99.8814" width="54.6388" height="54.6388" rx="27.3194" fill="#EEF1F6"/>
<rect x="420.153" y="99.8814" width="54.6388" height="54.6388" rx="27.3194" fill="#EEF1F6"/>
<rect x="474.792" y="99.8814" width="54.6388" height="54.6388" rx="27.3194" fill="#EEF1F6"/>
<rect x="529.431" y="99.8814" width="54.6388" height="54.6388" rx="27.3194" fill="#EEF1F6"/>
<rect x="37.6816" y="154.52" width="54.6388" height="54.6388" rx="27.3194" fill="#0B8AFF"/>
<rect x="92.3203" y="154.52" width="54.6388" height="54.6388" rx="27.3194" fill="#0B8AFF"/>
<rect x="146.959" y="154.52" width="54.6388" height="54.6388" rx="27.3194" fill="#0B8AFF"/>
<rect x="201.598" y="154.52" width="54.6388" height="54.6388" rx="27.3194" fill="#0B8AFF"/>
<rect x="256.237" y="154.52" width="54.6388" height="54.6388" rx="27.3194" fill="#0B8AFF"/>
<rect x="310.876" y="154.52" width="54.6388" height="54.6388" rx="27.3194" fill="#EEF1F6"/>
<rect x="365.515" y="154.52" width="54.6388" height="54.6388" rx="27.3194" fill="#EEF1F6"/>
<rect x="420.153" y="154.52" width="54.6388" height="54.6388" rx="27.3194" fill="#EEF1F6"/>
<rect x="474.792" y="154.52" width="54.6388" height="54.6388" rx="27.3194" fill="#EEF1F6"/>
<rect x="529.431" y="154.52" width="54.6388" height="54.6388" rx="27.3194" fill="#EEF1F6"/>
<rect x="37.6816" y="263.798" width="54.6388" height="54.6388" rx="27.3194" fill="#0B8AFF"/>
<rect x="92.3203" y="263.798" width="54.6388" height="54.6388" rx="27.3194" fill="#0B8AFF"/>
<rect x="146.959" y="263.798" width="54.6388" height="54.6388" rx="27.3194" fill="#0B8AFF"/>
<rect x="201.598" y="263.798" width="54.6388" height="54.6388" rx="27.3194" fill="#EEF1F6"/>
<rect x="256.237" y="263.798" width="54.6388" height="54.6388" rx="27.3194" fill="#EEF1F6"/>
<rect x="310.876" y="263.798" width="54.6388" height="54.6388" rx="27.3194" fill="#EEF1F6"/>
<rect x="365.515" y="263.798" width="54.6388" height="54.6388" rx="27.3194" fill="#EEF1F6"/>
<rect x="420.153" y="263.798" width="54.6388" height="54.6388" rx="27.3194" fill="#EEF1F6"/>
<rect x="474.792" y="263.798" width="54.6388" height="54.6388" rx="27.3194" fill="#EEF1F6"/>
<rect x="529.431" y="263.798" width="54.6388" height="54.6388" rx="27.3194" fill="#EEF1F6"/>
<rect x="37.6816" y="209.159" width="54.6388" height="54.6388" rx="27.3194" fill="#0B8AFF"/>
<rect x="92.3203" y="209.159" width="54.6388" height="54.6388" rx="27.3194" fill="#0B8AFF"/>
<rect x="146.959" y="209.159" width="54.6388" height="54.6388" rx="27.3194" fill="#0B8AFF"/>
<rect x="201.598" y="209.159" width="54.6388" height="54.6388" rx="27.3194" fill="#0B8AFF"/>
<rect x="256.237" y="209.159" width="54.6388" height="54.6388" rx="27.3194" fill="#0B8AFF"/>
<rect x="310.876" y="209.159" width="54.6388" height="54.6388" rx="27.3194" fill="#0B8AFF"/>
<rect x="365.515" y="209.159" width="54.6388" height="54.6388" rx="27.3194" fill="#0B8AFF"/>
<rect x="420.153" y="209.159" width="54.6388" height="54.6388" rx="27.3194" fill="#0B8AFF"/>
<rect x="474.792" y="209.159" width="54.6388" height="54.6388" rx="27.3194" fill="#0B8AFF"/>
<rect x="529.431" y="209.159" width="54.6388" height="54.6388" rx="27.3194" fill="#0B8AFF"/>
<rect x="37.6816" y="318.437" width="54.6388" height="54.6388" rx="27.3194" fill="#0B8AFF"/>
<rect x="92.3203" y="318.437" width="54.6388" height="54.6388" rx="27.3194" fill="#0B8AFF"/>
<rect x="146.959" y="318.437" width="54.6388" height="54.6388" rx="27.3194" fill="#0B8AFF"/>
<rect x="201.598" y="318.437" width="54.6388" height="54.6388" rx="27.3194" fill="#0B8AFF"/>
<rect x="256.237" y="318.437" width="54.6388" height="54.6388" rx="27.3194" fill="#EEF1F6"/>
<rect x="310.876" y="318.437" width="54.6388" height="54.6388" rx="27.3194" fill="#EEF1F6"/>
<rect x="365.515" y="318.437" width="54.6388" height="54.6388" rx="27.3194" fill="#EEF1F6"/>
<rect x="420.153" y="318.437" width="54.6388" height="54.6388" rx="27.3194" fill="#EEF1F6"/>
<rect x="474.792" y="318.437" width="54.6388" height="54.6388" rx="27.3194" fill="#EEF1F6"/>
<rect x="529.431" y="318.437" width="54.6388" height="54.6388" rx="27.3194" fill="#EEF1F6"/>
<path d="M39.5738 71.2426V52.059H46.7676C48.2413 52.059 49.4778 52.3338 50.4769 52.8833C51.4823 53.4328 52.241 54.1884 52.7531 55.1501C53.2714 56.1055 53.5305 57.1921 53.5305 58.4098C53.5305 59.64 53.2714 60.7328 52.7531 61.6883C52.2348 62.6437 51.4698 63.3962 50.4582 63.9457C49.4465 64.489 48.2007 64.7606 46.7208 64.7606H41.953V61.9037H46.2524C47.1142 61.9037 47.8198 61.7538 48.3693 61.4541C48.9189 61.1543 49.3248 60.7422 49.587 60.2176C49.8556 59.6931 49.9898 59.0905 49.9898 58.4098C49.9898 57.7292 49.8556 57.1297 49.587 56.6114C49.3248 56.0931 48.9157 55.6903 48.36 55.403C47.8104 55.1095 47.1017 54.9628 46.2337 54.9628H43.0489V71.2426H39.5738ZM56.3992 71.2426V56.8549H59.687V59.2528H59.8368C60.0991 58.4223 60.5487 57.7822 61.1857 57.3326C61.8289 56.8768 62.5626 56.6488 63.3869 56.6488C63.5743 56.6488 63.7835 56.6582 64.0145 56.6769C64.2518 56.6894 64.4485 56.7113 64.6046 56.7425V59.8617C64.461 59.8117 64.2331 59.768 63.9208 59.7306C63.6148 59.6868 63.3182 59.665 63.031 59.665C62.4128 59.665 61.857 59.7993 61.3637 60.0678C60.8766 60.33 60.4925 60.6954 60.2115 61.1637C59.9305 61.6321 59.79 62.1722 59.79 62.7842V71.2426H56.3992ZM72.5408 71.5236C71.1357 71.5236 69.918 71.2145 68.8877 70.5962C67.8573 69.978 67.058 69.1131 66.4897 68.0016C65.9277 66.89 65.6467 65.5912 65.6467 64.1049C65.6467 62.6187 65.9277 61.3167 66.4897 60.1989C67.058 59.0811 67.8573 58.2131 68.8877 57.5949C69.918 56.9767 71.1357 56.6676 72.5408 56.6676C73.9458 56.6676 75.1635 56.9767 76.1939 57.5949C77.2243 58.2131 78.0205 59.0811 78.5825 60.1989C79.1507 61.3167 79.4349 62.6187 79.4349 64.1049C79.4349 65.5912 79.1507 66.89 78.5825 68.0016C78.0205 69.1131 77.2243 69.978 76.1939 70.5962C75.1635 71.2145 73.9458 71.5236 72.5408 71.5236ZM72.5595 68.8071C73.3214 68.8071 73.9583 68.5979 74.4704 68.1796C74.9824 67.7549 75.3634 67.1867 75.6131 66.4748C75.8692 65.7629 75.9972 64.9698 75.9972 64.0956C75.9972 63.2151 75.8692 62.4189 75.6131 61.707C75.3634 60.9889 74.9824 60.4175 74.4704 59.9928C73.9583 59.5682 73.3214 59.3559 72.5595 59.3559C71.7789 59.3559 71.1295 59.5682 70.6112 59.9928C70.0991 60.4175 69.7151 60.9889 69.4591 61.707C69.2093 62.4189 69.0844 63.2151 69.0844 64.0956C69.0844 64.9698 69.2093 65.7629 69.4591 66.4748C69.7151 67.1867 70.0991 67.7549 70.6112 68.1796C71.1295 68.5979 71.7789 68.8071 72.5595 68.8071ZM88.57 76.9377C87.3523 76.9377 86.3063 76.7722 85.4321 76.4412C84.5578 76.1165 83.8553 75.6794 83.3245 75.1298C82.7937 74.5803 82.4253 73.9715 82.2192 73.3033L85.2728 72.5633C85.4102 72.8443 85.61 73.1222 85.8723 73.397C86.1346 73.678 86.4874 73.909 86.9308 74.0901C87.3804 74.2774 87.9455 74.3711 88.6262 74.3711C89.5879 74.3711 90.3841 74.1369 91.0148 73.6686C91.6455 73.2065 91.9608 72.4446 91.9608 71.3831V68.6573H91.7922C91.6174 69.007 91.3613 69.366 91.0241 69.7345C90.6932 70.1029 90.2529 70.412 89.7034 70.6618C89.1601 70.9116 88.4763 71.0365 87.652 71.0365C86.5467 71.0365 85.5445 70.7773 84.6452 70.259C83.7523 69.7345 83.0404 68.9539 82.5096 67.9173C81.985 66.8744 81.7227 65.5693 81.7227 64.0019C81.7227 62.422 81.985 61.0888 82.5096 60.0022C83.0404 58.9094 83.7554 58.082 84.6546 57.52C85.5538 56.9517 86.5561 56.6676 87.6614 56.6676C88.5044 56.6676 89.1976 56.8112 89.7409 57.0984C90.2904 57.3795 90.7275 57.7198 91.0522 58.1194C91.377 58.5129 91.6236 58.8844 91.7922 59.2341H91.9796V56.8549H95.3236V71.4767C95.3236 72.7069 95.0301 73.7248 94.4431 74.5304C93.8561 75.3359 93.0536 75.9385 92.0358 76.3382C91.0179 76.7378 89.8626 76.9377 88.57 76.9377ZM88.5981 68.3763C89.3162 68.3763 89.9282 68.2014 90.434 67.8517C90.9398 67.502 91.3239 66.9993 91.5862 66.3436C91.8484 65.6879 91.9796 64.9011 91.9796 63.9832C91.9796 63.0777 91.8484 62.2846 91.5862 61.604C91.3301 60.9233 90.9492 60.3956 90.4434 60.0209C89.9438 59.64 89.3287 59.4496 88.5981 59.4496C87.8425 59.4496 87.2118 59.6463 86.706 60.0397C86.2001 60.4331 85.8192 60.9732 85.5632 61.6602C85.3072 62.3408 85.1792 63.1152 85.1792 63.9832C85.1792 64.8637 85.3072 65.6349 85.5632 66.2968C85.8255 66.9525 86.2095 67.4645 86.7153 67.833C87.2274 68.1952 87.855 68.3763 88.5981 68.3763ZM98.7987 71.2426V56.8549H102.087V59.2528H102.236C102.499 58.4223 102.948 57.7822 103.585 57.3326C104.228 56.8768 104.962 56.6488 105.786 56.6488C105.974 56.6488 106.183 56.6582 106.414 56.6769C106.651 56.6894 106.848 56.7113 107.004 56.7425V59.8617C106.861 59.8117 106.633 59.768 106.32 59.7306C106.014 59.6868 105.718 59.665 105.431 59.665C104.812 59.665 104.257 59.7993 103.763 60.0678C103.276 60.33 102.892 60.6954 102.611 61.1637C102.33 61.6321 102.19 62.1722 102.19 62.7842V71.2426H98.7987ZM115.034 71.5236C113.591 71.5236 112.346 71.2238 111.297 70.6243C110.254 70.0186 109.451 69.1631 108.889 68.0578C108.327 66.9462 108.046 65.638 108.046 64.133C108.046 62.6531 108.327 61.3542 108.889 60.2364C109.458 59.1123 110.251 58.2381 111.268 57.6136C112.286 56.9829 113.482 56.6676 114.856 56.6676C115.743 56.6676 116.58 56.8112 117.366 57.0984C118.159 57.3795 118.859 57.8166 119.465 58.4098C120.077 59.0031 120.557 59.7587 120.907 60.6766C121.257 61.5883 121.432 62.6749 121.432 63.9363V64.9761H109.639V62.6905H118.181C118.175 62.0411 118.035 61.4634 117.76 60.9576C117.485 60.4456 117.101 60.0428 116.608 59.7493C116.121 59.4558 115.552 59.309 114.903 59.309C114.21 59.309 113.601 59.4777 113.076 59.8149C112.552 60.1458 112.143 60.583 111.849 61.1262C111.562 61.6633 111.415 62.2534 111.409 62.8966V64.8918C111.409 65.7285 111.562 66.4467 111.868 67.0462C112.174 67.6394 112.602 68.0953 113.151 68.4137C113.701 68.726 114.344 68.8821 115.081 68.8821C115.574 68.8821 116.021 68.8134 116.42 68.676C116.82 68.5324 117.167 68.3232 117.46 68.0484C117.754 67.7737 117.975 67.4333 118.125 67.0274L121.291 67.3834C121.091 68.2201 120.71 68.9508 120.148 69.5752C119.593 70.1935 118.881 70.6743 118.013 71.0177C117.145 71.355 116.152 71.5236 115.034 71.5236ZM135.672 60.6579L132.581 60.9951C132.493 60.6829 132.34 60.3894 132.122 60.1146C131.909 59.8398 131.622 59.6182 131.26 59.4496C130.898 59.2809 130.454 59.1966 129.93 59.1966C129.224 59.1966 128.631 59.3496 128.15 59.6556C127.675 59.9616 127.441 60.3581 127.448 60.8452C127.441 61.2636 127.594 61.604 127.907 61.8662C128.225 62.1285 128.75 62.3439 129.48 62.5125L131.934 63.0371C133.296 63.3306 134.307 63.7958 134.969 64.4328C135.637 65.0697 135.975 65.9034 135.981 66.9338C135.975 67.8392 135.709 68.6385 135.185 69.3317C134.666 70.0186 133.945 70.5556 133.021 70.9428C132.097 71.33 131.035 71.5236 129.836 71.5236C128.075 71.5236 126.658 71.1551 125.584 70.4183C124.509 69.6751 123.869 68.6417 123.663 67.3178L126.97 66.9993C127.12 67.6488 127.438 68.139 127.925 68.4699C128.412 68.8009 129.046 68.9664 129.827 68.9664C130.632 68.9664 131.279 68.8009 131.766 68.4699C132.259 68.139 132.506 67.7299 132.506 67.2429C132.506 66.8307 132.346 66.4904 132.028 66.2219C131.716 65.9533 131.229 65.7473 130.567 65.6036L128.113 65.0885C126.733 64.8012 125.712 64.3172 125.05 63.6366C124.388 62.9497 124.06 62.0817 124.066 61.0326C124.06 60.1458 124.3 59.3777 124.787 58.7283C125.281 58.0726 125.964 57.5668 126.839 57.2108C127.719 56.8487 128.734 56.6676 129.883 56.6676C131.569 56.6676 132.896 57.0266 133.864 57.7448C134.838 58.4629 135.441 59.4339 135.672 60.6579ZM150.148 60.6579L147.057 60.9951C146.97 60.6829 146.817 60.3894 146.598 60.1146C146.386 59.8398 146.099 59.6182 145.737 59.4496C145.374 59.2809 144.931 59.1966 144.406 59.1966C143.701 59.1966 143.108 59.3496 142.627 59.6556C142.152 59.9616 141.918 60.3581 141.924 60.8452C141.918 61.2636 142.071 61.604 142.383 61.8662C142.702 62.1285 143.226 62.3439 143.957 62.5125L146.411 63.0371C147.772 63.3306 148.784 63.7958 149.446 64.4328C150.114 65.0697 150.451 65.9034 150.457 66.9338C150.451 67.8392 150.186 68.6385 149.661 69.3317C149.143 70.0186 148.422 70.5556 147.498 70.9428C146.573 71.33 145.512 71.5236 144.313 71.5236C142.552 71.5236 141.134 71.1551 140.06 70.4183C138.986 69.6751 138.346 68.6417 138.14 67.3178L141.446 66.9993C141.596 67.6488 141.915 68.139 142.402 68.4699C142.889 68.8009 143.523 68.9664 144.303 68.9664C145.109 68.9664 145.755 68.8009 146.242 68.4699C146.736 68.139 146.982 67.7299 146.982 67.2429C146.982 66.8307 146.823 66.4904 146.505 66.2219C146.192 65.9533 145.705 65.7473 145.043 65.6036L142.589 65.0885C141.209 64.8012 140.188 64.3172 139.526 63.6366C138.864 62.9497 138.536 62.0817 138.543 61.0326C138.536 60.1458 138.777 59.3777 139.264 58.7283C139.757 58.0726 140.441 57.5668 141.315 57.2108C142.196 56.8487 143.211 56.6676 144.36 56.6676C146.046 56.6676 147.373 57.0266 148.341 57.7448C149.315 58.4629 149.917 59.4339 150.148 60.6579Z" fill="#161616"/>
<g clip-path="url(#clip0_1321_451)">
<path opacity="0.9" d="M38.2169 401.474V399.564H47.2199V401.474H43.8638V410.526H41.5729V401.474H38.2169ZM47.806 410.526V402.304H50.0166V403.739H50.1022C50.2521 403.228 50.5037 402.843 50.8569 402.582C51.2102 402.318 51.617 402.186 52.0773 402.186C52.1915 402.186 52.3146 402.194 52.4466 402.208C52.5787 402.222 52.6946 402.242 52.7946 402.267V404.29C52.6875 404.258 52.5394 404.229 52.3503 404.204C52.1612 404.179 51.9881 404.167 51.8311 404.167C51.4957 404.167 51.1959 404.24 50.9319 404.386C50.6714 404.529 50.4644 404.729 50.311 404.986C50.1611 405.243 50.0862 405.539 50.0862 405.874V410.526H47.806ZM56.0824 410.681C55.5578 410.681 55.0904 410.59 54.68 410.408C54.2696 410.222 53.9449 409.949 53.7058 409.589C53.4703 409.225 53.3526 408.772 53.3526 408.229C53.3526 407.773 53.4364 407.389 53.6041 407.079C53.7718 406.768 54.0002 406.518 54.2893 406.329C54.5783 406.14 54.9066 405.997 55.2741 405.901C55.6452 405.805 56.0342 405.737 56.441 405.698C56.9191 405.648 57.3045 405.601 57.5971 405.558C57.8897 405.512 58.1021 405.444 58.2341 405.355C58.3661 405.266 58.4321 405.134 58.4321 404.959V404.927C58.4321 404.588 58.3251 404.326 58.111 404.14C57.9004 403.954 57.6007 403.862 57.2118 403.862C56.8014 403.862 56.4749 403.953 56.2322 404.135C55.9896 404.313 55.829 404.538 55.7505 404.809L53.6416 404.638C53.7487 404.138 53.9592 403.706 54.2732 403.343C54.5872 402.975 54.9922 402.693 55.4882 402.497C55.9878 402.297 56.5659 402.197 57.2225 402.197C57.6792 402.197 58.1163 402.251 58.5338 402.358C58.9549 402.465 59.3278 402.631 59.6525 402.855C59.9808 403.08 60.2395 403.369 60.4286 403.723C60.6178 404.072 60.7123 404.492 60.7123 404.98V410.526H58.5499V409.386H58.4857C58.3536 409.642 58.177 409.869 57.9558 410.065C57.7345 410.258 57.4687 410.41 57.1582 410.52C56.8478 410.627 56.4892 410.681 56.0824 410.681ZM56.7354 409.107C57.0708 409.107 57.367 409.041 57.6239 408.909C57.8808 408.774 58.0824 408.592 58.2287 408.363C58.375 408.135 58.4482 407.876 58.4482 407.587V406.715C58.3768 406.761 58.2787 406.804 58.1538 406.843C58.0325 406.879 57.8951 406.913 57.7417 406.945C57.5882 406.973 57.4348 407 57.2813 407.025C57.1279 407.046 56.9887 407.066 56.8638 407.084C56.5962 407.123 56.3625 407.186 56.1627 407.271C55.9628 407.357 55.8076 407.473 55.697 407.619C55.5864 407.762 55.5311 407.94 55.5311 408.154C55.5311 408.465 55.6435 408.702 55.8683 408.866C56.0966 409.027 56.3857 409.107 56.7354 409.107ZM62.4813 410.526V402.304H64.7615V410.526H62.4813ZM63.6268 401.244C63.2878 401.244 62.997 401.132 62.7543 400.907C62.5152 400.679 62.3957 400.406 62.3957 400.088C62.3957 399.774 62.5152 399.505 62.7543 399.28C62.997 399.052 63.2878 398.937 63.6268 398.937C63.9658 398.937 64.2548 399.052 64.4939 399.28C64.7365 399.505 64.8579 399.774 64.8579 400.088C64.8579 400.406 64.7365 400.679 64.4939 400.907C64.2548 401.132 63.9658 401.244 63.6268 401.244ZM68.8683 405.773V410.526H66.5881V402.304H68.7612V403.755H68.8576C69.0395 403.277 69.3446 402.898 69.7728 402.62C70.201 402.338 70.7202 402.197 71.3304 402.197C71.9014 402.197 72.3992 402.322 72.8238 402.572C73.2484 402.822 73.5785 403.178 73.814 403.642C74.0495 404.103 74.1673 404.652 74.1673 405.291V410.526H71.8871V405.698C71.8907 405.194 71.7622 404.802 71.5017 404.52C71.2412 404.235 70.8826 404.092 70.4259 404.092C70.119 404.092 69.8478 404.158 69.6123 404.29C69.3803 404.422 69.1983 404.615 69.0663 404.868C68.9378 405.118 68.8718 405.419 68.8683 405.773ZM79.7112 410.686C78.8655 410.686 78.1375 410.515 77.5273 410.172C76.9207 409.826 76.4533 409.337 76.125 408.706C75.7967 408.071 75.6325 407.319 75.6325 406.452C75.6325 405.607 75.7967 404.864 76.125 404.226C76.4533 403.587 76.9154 403.089 77.5113 402.732C78.1108 402.375 78.8137 402.197 79.6202 402.197C80.1626 402.197 80.6675 402.284 81.135 402.459C81.606 402.631 82.0164 402.889 82.3661 403.235C82.7193 403.582 82.9941 404.017 83.1903 404.541C83.3866 405.062 83.4847 405.673 83.4847 406.372V406.998H76.5425V405.585H81.3384C81.3384 405.257 81.267 404.966 81.1243 404.713C80.9815 404.459 80.7835 404.261 80.5301 404.119C80.2803 403.972 79.9895 403.899 79.6577 403.899C79.3115 403.899 79.0047 403.979 78.737 404.14C78.473 404.297 78.266 404.509 78.1161 404.777C77.9663 405.041 77.8895 405.335 77.886 405.66V407.004C77.886 407.41 77.9609 407.762 78.1108 408.058C78.2642 408.354 78.4801 408.583 78.7584 408.743C79.0368 408.904 79.3668 408.984 79.7487 408.984C80.002 408.984 80.234 408.948 80.4445 408.877C80.655 408.806 80.8352 408.699 80.9851 408.556C81.135 408.413 81.2492 408.238 81.3277 408.031L83.4366 408.171C83.3295 408.677 83.1101 409.12 82.7782 409.498C82.4499 409.873 82.0253 410.165 81.5043 410.376C80.9869 410.583 80.3892 410.686 79.7112 410.686ZM88.7195 410.686C87.8738 410.686 87.1459 410.515 86.5357 410.172C85.9291 409.826 85.4616 409.337 85.1333 408.706C84.805 408.071 84.6409 407.319 84.6409 406.452C84.6409 405.607 84.805 404.864 85.1333 404.226C85.4616 403.587 85.9237 403.089 86.5196 402.732C87.1191 402.375 87.8221 402.197 88.6285 402.197C89.1709 402.197 89.6758 402.284 90.1433 402.459C90.6143 402.631 91.0247 402.889 91.3744 403.235C91.7277 403.582 92.0024 404.017 92.1987 404.541C92.3949 405.062 92.4931 405.673 92.4931 406.372V406.998H85.5508V405.585H90.3467C90.3467 405.257 90.2753 404.966 90.1326 404.713C89.9899 404.459 89.7918 404.261 89.5385 404.119C89.2887 403.972 88.9979 403.899 88.666 403.899C88.3199 403.899 88.013 403.979 87.7454 404.14C87.4813 404.297 87.2743 404.509 87.1245 404.777C86.9746 405.041 86.8979 405.335 86.8943 405.66V407.004C86.8943 407.41 86.9692 407.762 87.1191 408.058C87.2726 408.354 87.4884 408.583 87.7668 408.743C88.0451 408.904 88.3752 408.984 88.757 408.984C89.0103 408.984 89.2423 408.948 89.4528 408.877C89.6634 408.806 89.8436 408.699 89.9934 408.556C90.1433 408.413 90.2575 408.238 90.336 408.031L92.4449 408.171C92.3378 408.677 92.1184 409.12 91.7865 409.498C91.4582 409.873 91.0336 410.165 90.5126 410.376C89.9952 410.583 89.3975 410.686 88.7195 410.686Z" fill="black"/>
<path opacity="0.9" d="M280.239 410.676C279.44 410.676 278.728 410.538 278.103 410.263C277.482 409.985 276.992 409.603 276.631 409.118C276.275 408.629 276.091 408.065 276.08 407.427H278.414C278.428 407.694 278.515 407.93 278.676 408.133C278.84 408.333 279.058 408.488 279.329 408.599C279.6 408.709 279.905 408.765 280.244 408.765C280.598 408.765 280.91 408.702 281.181 408.577C281.452 408.452 281.665 408.279 281.818 408.058C281.971 407.837 282.048 407.582 282.048 407.293C282.048 407 281.966 406.741 281.802 406.517C281.641 406.288 281.409 406.11 281.106 405.981C280.806 405.853 280.45 405.789 280.036 405.789H279.013V404.087H280.036C280.385 404.087 280.694 404.026 280.962 403.905C281.233 403.783 281.443 403.615 281.593 403.401C281.743 403.184 281.818 402.93 281.818 402.641C281.818 402.367 281.752 402.126 281.62 401.919C281.491 401.708 281.31 401.544 281.074 401.426C280.842 401.309 280.571 401.25 280.26 401.25C279.946 401.25 279.659 401.307 279.399 401.421C279.138 401.532 278.929 401.69 278.772 401.897C278.615 402.104 278.532 402.347 278.521 402.625H276.3C276.31 401.994 276.49 401.437 276.84 400.955C277.19 400.474 277.661 400.097 278.253 399.826C278.849 399.551 279.522 399.414 280.271 399.414C281.028 399.414 281.69 399.551 282.257 399.826C282.824 400.101 283.265 400.472 283.579 400.939C283.897 401.403 284.054 401.924 284.05 402.502C284.054 403.116 283.863 403.628 283.477 404.038C283.095 404.449 282.598 404.709 281.984 404.82V404.905C282.79 405.009 283.404 405.289 283.825 405.746C284.25 406.199 284.46 406.766 284.457 407.448C284.46 408.072 284.28 408.627 283.916 409.113C283.556 409.598 283.058 409.98 282.423 410.258C281.788 410.536 281.06 410.676 280.239 410.676ZM291.267 404.14V405.949H286.267V404.14H291.267ZM297.192 410.676C296.435 410.676 295.761 410.536 295.169 410.258C294.58 409.98 294.112 409.596 293.766 409.107C293.42 408.618 293.24 408.058 293.226 407.427H295.474C295.499 407.851 295.677 408.195 296.009 408.46C296.341 408.724 296.735 408.856 297.192 408.856C297.556 408.856 297.877 408.775 298.155 408.615C298.437 408.451 298.657 408.224 298.814 407.935C298.974 407.642 299.055 407.307 299.055 406.929C299.055 406.543 298.972 406.204 298.808 405.912C298.648 405.619 298.425 405.391 298.139 405.227C297.854 405.062 297.527 404.979 297.16 404.975C296.839 404.975 296.526 405.041 296.223 405.173C295.923 405.305 295.69 405.485 295.522 405.714L293.461 405.344L293.98 399.564H300.682V401.458H295.891L295.607 404.204H295.672C295.864 403.933 296.155 403.708 296.544 403.53C296.933 403.351 297.368 403.262 297.85 403.262C298.51 403.262 299.099 403.417 299.617 403.728C300.134 404.038 300.543 404.465 300.842 405.007C301.142 405.546 301.29 406.167 301.287 406.87C301.29 407.608 301.119 408.265 300.773 408.84C300.43 409.411 299.95 409.86 299.333 410.188C298.719 410.513 298.005 410.676 297.192 410.676ZM307.821 413.609C307.532 413.609 307.26 413.586 307.007 413.539C306.757 413.496 306.55 413.441 306.386 413.373L306.9 411.671C307.168 411.753 307.409 411.798 307.623 411.805C307.84 411.812 308.028 411.762 308.185 411.655C308.345 411.548 308.475 411.366 308.575 411.109L308.709 410.761L305.76 402.304H308.158L309.86 408.342H309.946L311.664 402.304H314.078L310.882 411.414C310.729 411.857 310.52 412.242 310.256 412.57C309.996 412.902 309.666 413.157 309.266 413.336C308.866 413.518 308.384 413.609 307.821 413.609ZM318.726 410.686C317.881 410.686 317.153 410.515 316.543 410.172C315.936 409.826 315.469 409.337 315.14 408.706C314.812 408.071 314.648 407.319 314.648 406.452C314.648 405.607 314.812 404.864 315.14 404.226C315.469 403.587 315.931 403.089 316.527 402.732C317.126 402.375 317.829 402.197 318.636 402.197C319.178 402.197 319.683 402.284 320.15 402.459C320.621 402.631 321.032 402.889 321.381 403.235C321.735 403.582 322.009 404.017 322.206 404.541C322.402 405.062 322.5 405.673 322.5 406.372V406.998H315.558V405.585H320.354C320.354 405.257 320.282 404.966 320.14 404.713C319.997 404.459 319.799 404.261 319.545 404.119C319.296 403.972 319.005 403.899 318.673 403.899C318.327 403.899 318.02 403.979 317.752 404.14C317.488 404.297 317.281 404.509 317.131 404.777C316.982 405.041 316.905 405.335 316.901 405.66V407.004C316.901 407.41 316.976 407.762 317.126 408.058C317.28 408.354 317.495 408.583 317.774 408.743C318.052 408.904 318.382 408.984 318.764 408.984C319.017 408.984 319.249 408.948 319.46 408.877C319.67 408.806 319.851 408.699 320 408.556C320.15 408.413 320.264 408.238 320.343 408.031L322.452 408.171C322.345 408.677 322.125 409.12 321.794 409.498C321.465 409.873 321.041 410.165 320.52 410.376C320.002 410.583 319.404 410.686 318.726 410.686ZM326.332 410.681C325.808 410.681 325.34 410.59 324.93 410.408C324.52 410.222 324.195 409.949 323.956 409.589C323.72 409.225 323.603 408.772 323.603 408.229C323.603 407.773 323.687 407.389 323.854 407.079C324.022 406.768 324.25 406.518 324.539 406.329C324.828 406.14 325.157 405.997 325.524 405.901C325.895 405.805 326.284 405.737 326.691 405.698C327.169 405.648 327.555 405.601 327.847 405.558C328.14 405.512 328.352 405.444 328.484 405.355C328.616 405.266 328.682 405.134 328.682 404.959V404.927C328.682 404.588 328.575 404.326 328.361 404.14C328.151 403.954 327.851 403.862 327.462 403.862C327.051 403.862 326.725 403.953 326.482 404.135C326.24 404.313 326.079 404.538 326.001 404.809L323.892 404.638C323.999 404.138 324.209 403.706 324.523 403.343C324.837 402.975 325.242 402.693 325.738 402.497C326.238 402.297 326.816 402.197 327.473 402.197C327.929 402.197 328.366 402.251 328.784 402.358C329.205 402.465 329.578 402.631 329.903 402.855C330.231 403.08 330.49 403.369 330.679 403.723C330.868 404.072 330.962 404.492 330.962 404.98V410.526H328.8V409.386H328.736C328.604 409.642 328.427 409.869 328.206 410.065C327.985 410.258 327.719 410.41 327.408 410.52C327.098 410.627 326.739 410.681 326.332 410.681ZM326.985 409.107C327.321 409.107 327.617 409.041 327.874 408.909C328.131 408.774 328.333 408.592 328.479 408.363C328.625 408.135 328.698 407.876 328.698 407.587V406.715C328.627 406.761 328.529 406.804 328.404 406.843C328.283 406.879 328.145 406.913 327.992 406.945C327.838 406.973 327.685 407 327.531 407.025C327.378 407.046 327.239 407.066 327.114 407.084C326.846 407.123 326.613 407.186 326.413 407.271C326.213 407.357 326.058 407.473 325.947 407.619C325.836 407.762 325.781 407.94 325.781 408.154C325.781 408.465 325.894 408.702 326.118 408.866C326.347 409.027 326.636 409.107 326.985 409.107ZM332.731 410.526V402.304H334.942V403.739H335.028C335.178 403.228 335.429 402.843 335.782 402.582C336.136 402.318 336.542 402.186 337.003 402.186C337.117 402.186 337.24 402.194 337.372 402.208C337.504 402.222 337.62 402.242 337.72 402.267V404.29C337.613 404.258 337.465 404.229 337.276 404.204C337.087 404.179 336.914 404.167 336.757 404.167C336.421 404.167 336.121 404.24 335.857 404.386C335.597 404.529 335.39 404.729 335.236 404.986C335.087 405.243 335.012 405.539 335.012 405.874V410.526H332.731ZM345.739 404.649L343.652 404.777C343.616 404.599 343.54 404.438 343.422 404.295C343.304 404.149 343.149 404.033 342.956 403.947C342.767 403.858 342.54 403.814 342.276 403.814C341.923 403.814 341.625 403.888 341.382 404.038C341.14 404.185 341.019 404.381 341.019 404.627C341.019 404.823 341.097 404.989 341.254 405.125C341.411 405.261 341.68 405.369 342.062 405.451L343.55 405.751C344.35 405.915 344.946 406.179 345.338 406.543C345.731 406.907 345.927 407.385 345.927 407.978C345.927 408.517 345.768 408.989 345.45 409.396C345.136 409.803 344.705 410.121 344.155 410.349C343.609 410.574 342.979 410.686 342.266 410.686C341.177 410.686 340.31 410.46 339.664 410.006C339.022 409.55 338.646 408.929 338.535 408.144L340.778 408.026C340.845 408.358 341.01 408.611 341.27 408.786C341.531 408.957 341.864 409.043 342.271 409.043C342.671 409.043 342.992 408.966 343.234 408.813C343.481 408.656 343.606 408.454 343.609 408.208C343.606 408.001 343.518 407.832 343.347 407.699C343.176 407.564 342.912 407.46 342.555 407.389L341.131 407.105C340.328 406.945 339.73 406.666 339.338 406.27C338.949 405.874 338.754 405.369 338.754 404.756C338.754 404.227 338.897 403.773 339.183 403.391C339.472 403.009 339.877 402.714 340.398 402.508C340.922 402.301 341.536 402.197 342.239 402.197C343.277 402.197 344.094 402.417 344.69 402.855C345.29 403.294 345.64 403.892 345.739 404.649Z" fill="black"/>
<path opacity="0.9" d="M524.564 410.676C523.808 410.676 523.133 410.536 522.541 410.258C521.952 409.98 521.485 409.596 521.138 409.107C520.792 408.618 520.612 408.058 520.598 407.427H522.846C522.871 407.851 523.049 408.195 523.381 408.46C523.713 408.724 524.107 408.856 524.564 408.856C524.928 408.856 525.249 408.775 525.527 408.615C525.809 408.451 526.029 408.224 526.186 407.935C526.346 407.642 526.427 407.307 526.427 406.929C526.427 406.543 526.345 406.204 526.18 405.912C526.02 405.619 525.797 405.391 525.511 405.227C525.226 405.062 524.899 404.979 524.532 404.975C524.211 404.975 523.899 405.041 523.595 405.173C523.295 405.305 523.062 405.485 522.894 405.714L520.833 405.344L521.352 399.564H528.054V401.458H523.263L522.98 404.204H523.044C523.237 403.933 523.527 403.708 523.916 403.53C524.305 403.351 524.741 403.262 525.222 403.262C525.883 403.262 526.471 403.417 526.989 403.728C527.506 404.038 527.915 404.465 528.214 405.007C528.514 405.546 528.662 406.167 528.659 406.87C528.662 407.608 528.491 408.265 528.145 408.84C527.802 409.411 527.322 409.86 526.705 410.188C526.091 410.513 525.378 410.676 524.564 410.676ZM533.551 408.856V401.276H535.467V408.856H533.551ZM530.719 406.024V404.108H538.299V406.024H530.719ZM545.438 413.609C545.149 413.609 544.877 413.586 544.624 413.539C544.374 413.496 544.167 413.441 544.003 413.373L544.517 411.671C544.785 411.753 545.025 411.798 545.24 411.805C545.457 411.812 545.645 411.762 545.802 411.655C545.962 411.548 546.092 411.366 546.192 411.109L546.326 410.761L543.377 402.304H545.775L547.477 408.342H547.563L549.281 402.304H551.695L548.499 411.414C548.346 411.857 548.137 412.242 547.873 412.57C547.613 412.902 547.282 413.157 546.883 413.336C546.483 413.518 546.001 413.609 545.438 413.609ZM556.343 410.686C555.498 410.686 554.77 410.515 554.16 410.172C553.553 409.826 553.086 409.337 552.757 408.706C552.429 408.071 552.265 407.319 552.265 406.452C552.265 405.607 552.429 404.864 552.757 404.226C553.086 403.587 553.548 403.089 554.144 402.732C554.743 402.375 555.446 402.197 556.252 402.197C556.795 402.197 557.3 402.284 557.767 402.459C558.238 402.631 558.649 402.889 558.998 403.235C559.352 403.582 559.626 404.017 559.823 404.541C560.019 405.062 560.117 405.673 560.117 406.372V406.998H553.175V405.585H557.971C557.971 405.257 557.899 404.966 557.757 404.713C557.614 404.459 557.416 404.261 557.162 404.119C556.913 403.972 556.622 403.899 556.29 403.899C555.944 403.899 555.637 403.979 555.369 404.14C555.105 404.297 554.898 404.509 554.748 404.777C554.599 405.041 554.522 405.335 554.518 405.66V407.004C554.518 407.41 554.593 407.762 554.743 408.058C554.896 408.354 555.112 408.583 555.391 408.743C555.669 408.904 555.999 408.984 556.381 408.984C556.634 408.984 556.866 408.948 557.077 408.877C557.287 408.806 557.467 408.699 557.617 408.556C557.767 408.413 557.881 408.238 557.96 408.031L560.069 408.171C559.962 408.677 559.742 409.12 559.41 409.498C559.082 409.873 558.658 410.165 558.137 410.376C557.619 410.583 557.021 410.686 556.343 410.686ZM563.949 410.681C563.425 410.681 562.957 410.59 562.547 410.408C562.137 410.222 561.812 409.949 561.573 409.589C561.337 409.225 561.22 408.772 561.22 408.229C561.22 407.773 561.303 407.389 561.471 407.079C561.639 406.768 561.867 406.518 562.156 406.329C562.445 406.14 562.774 405.997 563.141 405.901C563.512 405.805 563.901 405.737 564.308 405.698C564.786 405.648 565.172 405.601 565.464 405.558C565.757 405.512 565.969 405.444 566.101 405.355C566.233 405.266 566.299 405.134 566.299 404.959V404.927C566.299 404.588 566.192 404.326 565.978 404.14C565.768 403.954 565.468 403.862 565.079 403.862C564.668 403.862 564.342 403.953 564.099 404.135C563.857 404.313 563.696 404.538 563.618 404.809L561.509 404.638C561.616 404.138 561.826 403.706 562.14 403.343C562.454 402.975 562.859 402.693 563.355 402.497C563.855 402.297 564.433 402.197 565.09 402.197C565.546 402.197 565.983 402.251 566.401 402.358C566.822 402.465 567.195 402.631 567.52 402.855C567.848 403.08 568.107 403.369 568.296 403.723C568.485 404.072 568.579 404.492 568.579 404.98V410.526H566.417V409.386H566.353C566.221 409.642 566.044 409.869 565.823 410.065C565.602 410.258 565.336 410.41 565.025 410.52C564.715 410.627 564.356 410.681 563.949 410.681ZM564.602 409.107C564.938 409.107 565.234 409.041 565.491 408.909C565.748 408.774 565.949 408.592 566.096 408.363C566.242 408.135 566.315 407.876 566.315 407.587V406.715C566.244 406.761 566.146 406.804 566.021 406.843C565.9 406.879 565.762 406.913 565.609 406.945C565.455 406.973 565.302 407 565.148 407.025C564.995 407.046 564.856 407.066 564.731 407.084C564.463 407.123 564.23 407.186 564.03 407.271C563.83 407.357 563.675 407.473 563.564 407.619C563.453 407.762 563.398 407.94 563.398 408.154C563.398 408.465 563.511 408.702 563.735 408.866C563.964 409.027 564.253 409.107 564.602 409.107ZM570.348 410.526V402.304H572.559V403.739H572.645C572.794 403.228 573.046 402.843 573.399 402.582C573.753 402.318 574.159 402.186 574.62 402.186C574.734 402.186 574.857 402.194 574.989 402.208C575.121 402.222 575.237 402.242 575.337 402.267V404.29C575.23 404.258 575.082 404.229 574.893 404.204C574.704 404.179 574.531 404.167 574.373 404.167C574.038 404.167 573.738 404.24 573.474 404.386C573.214 404.529 573.007 404.729 572.853 404.986C572.704 405.243 572.629 405.539 572.629 405.874V410.526H570.348ZM583.356 404.649L581.269 404.777C581.233 404.599 581.157 404.438 581.039 404.295C580.921 404.149 580.766 404.033 580.573 403.947C580.384 403.858 580.157 403.814 579.893 403.814C579.54 403.814 579.242 403.888 578.999 404.038C578.757 404.185 578.635 404.381 578.635 404.627C578.635 404.823 578.714 404.989 578.871 405.125C579.028 405.261 579.297 405.369 579.679 405.451L581.167 405.751C581.967 405.915 582.562 406.179 582.955 406.543C583.347 406.907 583.544 407.385 583.544 407.978C583.544 408.517 583.385 408.989 583.067 409.396C582.753 409.803 582.322 410.121 581.772 410.349C581.226 410.574 580.596 410.686 579.883 410.686C578.794 410.686 577.927 410.46 577.281 410.006C576.639 409.55 576.263 408.929 576.152 408.144L578.395 408.026C578.462 408.358 578.627 408.611 578.887 408.786C579.148 408.957 579.481 409.043 579.888 409.043C580.288 409.043 580.609 408.966 580.851 408.813C581.098 408.656 581.223 408.454 581.226 408.208C581.223 408.001 581.135 407.832 580.964 407.699C580.793 407.564 580.528 407.46 580.172 407.389L578.748 407.105C577.945 406.945 577.347 406.666 576.955 406.27C576.566 405.874 576.371 405.369 576.371 404.756C576.371 404.227 576.514 403.773 576.8 403.391C577.089 403.009 577.494 402.714 578.015 402.508C578.539 402.301 579.153 402.197 579.856 402.197C580.894 402.197 581.711 402.417 582.307 402.855C582.907 403.294 583.257 403.892 583.356 404.649Z" fill="black"/>
</g>
<path opacity="0.9" d="M640.389 119.881H643.12V129.729C643.12 130.808 642.865 131.758 642.354 132.577C641.849 133.396 641.137 134.037 640.22 134.498C639.302 134.954 638.23 135.182 637.004 135.182C635.772 135.182 634.698 134.954 633.78 134.498C632.863 134.037 632.151 133.396 631.646 132.577C631.14 131.758 630.888 130.808 630.888 129.729V119.881H633.618V129.501C633.618 130.129 633.756 130.688 634.03 131.179C634.31 131.669 634.703 132.054 635.208 132.334C635.713 132.609 636.312 132.746 637.004 132.746C637.696 132.746 638.294 132.609 638.8 132.334C639.31 132.054 639.702 131.669 639.977 131.179C640.252 130.688 640.389 130.129 640.389 129.501V119.881ZM648.818 119.881V134.954H646.088V119.881H648.818Z" fill="black"/>
<path opacity="0.9" d="M640.767 174.52H643.498V184.368C643.498 185.447 643.243 186.396 642.732 187.216C642.227 188.035 641.516 188.676 640.598 189.137C639.68 189.593 638.608 189.821 637.382 189.821C636.15 189.821 635.076 189.593 634.158 189.137C633.241 188.676 632.529 188.035 632.024 187.216C631.519 186.396 631.266 185.447 631.266 184.368V174.52H633.996V184.139C633.996 184.767 634.134 185.327 634.408 185.817C634.688 186.308 635.081 186.693 635.586 186.973C636.091 187.248 636.69 187.385 637.382 187.385C638.074 187.385 638.672 187.248 639.178 186.973C639.688 186.693 640.08 186.308 640.355 185.817C640.63 185.327 640.767 184.767 640.767 184.139V174.52ZM648.747 174.52L652.066 180.04H652.184L655.518 174.52H658.631L653.987 182.057L658.705 189.593H655.54L652.184 184.11H652.066L648.71 189.593H645.56L650.322 182.057L645.619 174.52H648.747Z" fill="black"/>
<path opacity="0.9" d="M636.406 244.232H631.298V229.159H636.509C638.005 229.159 639.291 229.461 640.365 230.064C641.445 230.663 642.274 231.524 642.853 232.648C643.432 233.771 643.721 235.116 643.721 236.681C643.721 238.251 643.429 239.6 642.845 240.729C642.267 241.857 641.43 242.723 640.336 243.327C639.247 243.93 637.937 244.232 636.406 244.232ZM634.028 241.869H636.273C637.323 241.869 638.199 241.678 638.901 241.295C639.602 240.908 640.13 240.331 640.483 239.566C640.836 238.795 641.013 237.834 641.013 236.681C641.013 235.528 640.836 234.571 640.483 233.81C640.13 233.045 639.607 232.473 638.915 232.096C638.228 231.713 637.375 231.522 636.354 231.522H634.028V241.869ZM654.507 233.303C654.438 232.66 654.149 232.159 653.639 231.801C653.133 231.443 652.476 231.264 651.666 231.264C651.097 231.264 650.609 231.35 650.202 231.522C649.794 231.693 649.483 231.926 649.267 232.221C649.051 232.515 648.941 232.851 648.936 233.229C648.936 233.543 649.007 233.815 649.149 234.046C649.296 234.277 649.495 234.473 649.745 234.635C649.995 234.792 650.273 234.924 650.577 235.032C650.881 235.14 651.188 235.231 651.497 235.304L652.91 235.658C653.479 235.79 654.026 235.969 654.551 236.195C655.081 236.421 655.555 236.705 655.972 237.049C656.394 237.392 656.727 237.807 656.973 238.292C657.218 238.778 657.341 239.347 657.341 240C657.341 240.883 657.115 241.661 656.663 242.333C656.212 243 655.559 243.523 654.706 243.901C653.857 244.274 652.829 244.46 651.622 244.46C650.449 244.46 649.431 244.278 648.568 243.915C647.709 243.552 647.037 243.022 646.551 242.326C646.07 241.629 645.81 240.78 645.771 239.779H648.457C648.497 240.304 648.658 240.741 648.943 241.089C649.228 241.438 649.598 241.698 650.054 241.869C650.516 242.041 651.031 242.127 651.6 242.127C652.194 242.127 652.714 242.039 653.16 241.862C653.612 241.68 653.965 241.43 654.22 241.111C654.475 240.787 654.605 240.41 654.61 239.978C654.605 239.585 654.49 239.262 654.264 239.006C654.038 238.746 653.722 238.53 653.315 238.359C652.912 238.182 652.441 238.025 651.902 237.888L650.187 237.446C648.945 237.127 647.964 236.644 647.243 235.996C646.527 235.344 646.168 234.478 646.168 233.398C646.168 232.51 646.409 231.732 646.89 231.065C647.375 230.398 648.035 229.88 648.869 229.512C649.704 229.139 650.648 228.953 651.703 228.953C652.773 228.953 653.71 229.139 654.514 229.512C655.324 229.88 655.959 230.393 656.421 231.05C656.882 231.703 657.12 232.454 657.134 233.303H654.507Z" fill="black"/>
<path opacity="0.9" d="M630.873 298.871V283.798H633.603V290.179H640.588V283.798H643.326V298.871H640.588V292.468H633.603V298.871H630.873ZM646.295 298.871V283.798H651.948C653.106 283.798 654.077 283.999 654.862 284.401C655.652 284.804 656.248 285.368 656.651 286.094C657.058 286.815 657.261 287.657 657.261 288.618C657.261 289.585 657.055 290.424 656.643 291.136C656.236 291.842 655.635 292.389 654.84 292.777C654.045 293.159 653.069 293.351 651.911 293.351H647.885V291.084H651.543C652.22 291.084 652.774 290.991 653.206 290.804C653.638 290.613 653.957 290.336 654.163 289.973C654.374 289.605 654.479 289.153 654.479 288.618C654.479 288.084 654.374 287.627 654.163 287.25C653.952 286.867 653.631 286.577 653.199 286.381C652.767 286.18 652.21 286.079 651.528 286.079H649.026V298.871H646.295ZM654.082 292.041L657.813 298.871H654.766L651.101 292.041H654.082Z" fill="black"/>
<path opacity="0.9" d="M637.132 348.446H639.605L641.07 350.345L642.115 351.581L644.625 354.805H641.975L640.268 352.641L639.539 351.611L637.132 348.446ZM644.985 345.973C644.985 347.597 644.681 348.988 644.073 350.146C643.469 351.299 642.645 352.182 641.6 352.796C640.56 353.409 639.38 353.715 638.06 353.715C636.74 353.715 635.557 353.409 634.512 352.796C633.472 352.177 632.648 351.292 632.04 350.139C631.436 348.981 631.134 347.592 631.134 345.973C631.134 344.349 631.436 342.96 632.04 341.807C632.648 340.649 633.472 339.764 634.512 339.151C635.557 338.537 636.74 338.231 638.06 338.231C639.38 338.231 640.56 338.537 641.6 339.151C642.645 339.764 643.469 340.649 644.073 341.807C644.681 342.96 644.985 344.349 644.985 345.973ZM642.24 345.973C642.24 344.83 642.061 343.866 641.703 343.081C641.35 342.291 640.859 341.695 640.231 341.292C639.603 340.885 638.879 340.681 638.06 340.681C637.24 340.681 636.517 340.885 635.889 341.292C635.261 341.695 634.768 342.291 634.409 343.081C634.056 343.866 633.879 344.83 633.879 345.973C633.879 347.116 634.056 348.083 634.409 348.873C634.768 349.658 635.261 350.254 635.889 350.661C636.517 351.064 637.24 351.265 638.06 351.265C638.879 351.265 639.603 351.064 640.231 350.661C640.859 350.254 641.35 349.658 641.703 348.873C642.061 348.083 642.24 347.116 642.24 345.973ZM648.713 353.509H645.799L651.105 338.437H654.476L659.789 353.509H656.875L652.849 341.528H652.731L648.713 353.509ZM648.809 347.6H656.757V349.793H648.809V347.6Z" fill="black"/>
<defs>
<clipPath id="clip0_1321_451">
<rect width="546.388" height="18" fill="white" transform="translate(37.6816 396.526)"/>
</clipPath>
</defs>
</svg>
