<svg width="699" height="441" viewBox="0 0 699 441" fill="none" xmlns="http://www.w3.org/2000/svg">
<rect width="699" height="440.879" fill="#1F2937"/>
<rect x="37.6816" y="99.8572" width="54.6388" height="54.6388" rx="27.3194" fill="#0B8AFF"/>
<rect x="92.3203" y="99.8572" width="54.6388" height="54.6388" rx="27.3194" fill="#0B8AFF"/>
<rect x="146.959" y="99.8572" width="54.6388" height="54.6388" rx="27.3194" fill="white" fill-opacity="0.15"/>
<rect x="201.598" y="99.8572" width="54.6388" height="54.6388" rx="27.3194" fill="white" fill-opacity="0.15"/>
<rect x="256.236" y="99.8572" width="54.6388" height="54.6388" rx="27.3194" fill="white" fill-opacity="0.15"/>
<rect x="310.875" y="99.8572" width="54.6388" height="54.6388" rx="27.3194" fill="white" fill-opacity="0.15"/>
<rect x="365.514" y="99.8572" width="54.6388" height="54.6388" rx="27.3194" fill="white" fill-opacity="0.15"/>
<rect x="420.154" y="99.8572" width="54.6388" height="54.6388" rx="27.3194" fill="white" fill-opacity="0.15"/>
<rect x="474.793" y="99.8572" width="54.6388" height="54.6388" rx="27.3194" fill="white" fill-opacity="0.15"/>
<rect x="529.432" y="99.8572" width="54.6388" height="54.6388" rx="27.3194" fill="white" fill-opacity="0.15"/>
<rect x="37.6816" y="154.496" width="54.6388" height="54.6388" rx="27.3194" fill="#0B8AFF"/>
<rect x="92.3203" y="154.496" width="54.6388" height="54.6388" rx="27.3194" fill="#0B8AFF"/>
<rect x="146.959" y="154.496" width="54.6388" height="54.6388" rx="27.3194" fill="#0B8AFF"/>
<rect x="201.598" y="154.496" width="54.6388" height="54.6388" rx="27.3194" fill="#0B8AFF"/>
<rect x="256.236" y="154.496" width="54.6388" height="54.6388" rx="27.3194" fill="#0B8AFF"/>
<rect x="310.875" y="154.496" width="54.6388" height="54.6388" rx="27.3194" fill="white" fill-opacity="0.15"/>
<rect x="365.514" y="154.496" width="54.6388" height="54.6388" rx="27.3194" fill="white" fill-opacity="0.15"/>
<rect x="420.154" y="154.496" width="54.6388" height="54.6388" rx="27.3194" fill="white" fill-opacity="0.15"/>
<rect x="474.793" y="154.496" width="54.6388" height="54.6388" rx="27.3194" fill="white" fill-opacity="0.15"/>
<rect x="529.432" y="154.496" width="54.6388" height="54.6388" rx="27.3194" fill="white" fill-opacity="0.15"/>
<rect x="37.6816" y="263.773" width="54.6388" height="54.6388" rx="27.3194" fill="#0B8AFF"/>
<rect x="92.3203" y="263.773" width="54.6388" height="54.6388" rx="27.3194" fill="#0B8AFF"/>
<rect x="146.959" y="263.773" width="54.6388" height="54.6388" rx="27.3194" fill="#0B8AFF"/>
<rect x="201.598" y="263.773" width="54.6388" height="54.6388" rx="27.3194" fill="white" fill-opacity="0.15"/>
<rect x="256.236" y="263.773" width="54.6388" height="54.6388" rx="27.3194" fill="white" fill-opacity="0.15"/>
<rect x="310.875" y="263.773" width="54.6388" height="54.6388" rx="27.3194" fill="white" fill-opacity="0.15"/>
<rect x="365.514" y="263.773" width="54.6388" height="54.6388" rx="27.3194" fill="white" fill-opacity="0.15"/>
<rect x="420.154" y="263.773" width="54.6388" height="54.6388" rx="27.3194" fill="white" fill-opacity="0.15"/>
<rect x="474.793" y="263.773" width="54.6388" height="54.6388" rx="27.3194" fill="white" fill-opacity="0.15"/>
<rect x="529.432" y="263.773" width="54.6388" height="54.6388" rx="27.3194" fill="white" fill-opacity="0.15"/>
<rect x="37.6816" y="209.135" width="54.6388" height="54.6388" rx="27.3194" fill="#0B8AFF"/>
<rect x="92.3203" y="209.135" width="54.6388" height="54.6388" rx="27.3194" fill="#0B8AFF"/>
<rect x="146.959" y="209.135" width="54.6388" height="54.6388" rx="27.3194" fill="#0B8AFF"/>
<rect x="201.598" y="209.135" width="54.6388" height="54.6388" rx="27.3194" fill="#0B8AFF"/>
<rect x="256.236" y="209.135" width="54.6388" height="54.6388" rx="27.3194" fill="#0B8AFF"/>
<rect x="310.875" y="209.135" width="54.6388" height="54.6388" rx="27.3194" fill="#0B8AFF"/>
<rect x="365.514" y="209.135" width="54.6388" height="54.6388" rx="27.3194" fill="#0B8AFF"/>
<rect x="420.154" y="209.135" width="54.6388" height="54.6388" rx="27.3194" fill="#0B8AFF"/>
<rect x="474.793" y="209.135" width="54.6388" height="54.6388" rx="27.3194" fill="#0B8AFF"/>
<rect x="529.432" y="209.135" width="54.6388" height="54.6388" rx="27.3194" fill="#0B8AFF"/>
<rect x="37.6816" y="318.412" width="54.6388" height="54.6388" rx="27.3194" fill="#0B8AFF"/>
<rect x="92.3203" y="318.412" width="54.6388" height="54.6388" rx="27.3194" fill="#0B8AFF"/>
<rect x="146.959" y="318.412" width="54.6388" height="54.6388" rx="27.3194" fill="#0B8AFF"/>
<rect x="201.598" y="318.412" width="54.6388" height="54.6388" rx="27.3194" fill="#0B8AFF"/>
<rect x="256.236" y="318.412" width="54.6388" height="54.6388" rx="27.3194" fill="white" fill-opacity="0.15"/>
<rect x="310.875" y="318.412" width="54.6388" height="54.6388" rx="27.3194" fill="white" fill-opacity="0.15"/>
<rect x="365.514" y="318.412" width="54.6388" height="54.6388" rx="27.3194" fill="white" fill-opacity="0.15"/>
<rect x="420.154" y="318.412" width="54.6388" height="54.6388" rx="27.3194" fill="white" fill-opacity="0.15"/>
<rect x="474.793" y="318.412" width="54.6388" height="54.6388" rx="27.3194" fill="white" fill-opacity="0.15"/>
<rect x="529.432" y="318.412" width="54.6388" height="54.6388" rx="27.3194" fill="white" fill-opacity="0.15"/>
<path d="M39.5738 71.2183V52.0347H46.7676C48.2413 52.0347 49.4778 52.3095 50.4769 52.859C51.4823 53.4085 52.241 54.1642 52.7531 55.1258C53.2714 56.0813 53.5305 57.1678 53.5305 58.3855C53.5305 59.6157 53.2714 60.7085 52.7531 61.664C52.2348 62.6194 51.4698 63.3719 50.4582 63.9214C49.4465 64.4647 48.2007 64.7363 46.7208 64.7363H41.953V61.8794H46.2524C47.1142 61.8794 47.8198 61.7295 48.3693 61.4298C48.9189 61.13 49.3248 60.7179 49.587 60.1934C49.8556 59.6688 49.9898 59.0662 49.9898 58.3855C49.9898 57.7049 49.8556 57.1054 49.587 56.5871C49.3248 56.0688 48.9157 55.666 48.36 55.3787C47.8104 55.0852 47.1017 54.9385 46.2337 54.9385H43.0489V71.2183H39.5738ZM56.3992 71.2183V56.8306H59.687V59.2286H59.8368C60.0991 58.398 60.5487 57.7579 61.1857 57.3083C61.8289 56.8525 62.5626 56.6245 63.3869 56.6245C63.5743 56.6245 63.7835 56.6339 64.0145 56.6526C64.2518 56.6651 64.4485 56.687 64.6046 56.7182V59.8374C64.461 59.7874 64.2331 59.7437 63.9208 59.7063C63.6148 59.6626 63.3182 59.6407 63.031 59.6407C62.4128 59.6407 61.857 59.775 61.3637 60.0435C60.8766 60.3058 60.4925 60.6711 60.2115 61.1394C59.9305 61.6078 59.79 62.1479 59.79 62.7599V71.2183H56.3992ZM72.5408 71.4993C71.1357 71.4993 69.918 71.1902 68.8877 70.5719C67.8573 69.9537 67.058 69.0888 66.4897 67.9773C65.9277 66.8657 65.6467 65.5669 65.6467 64.0806C65.6467 62.5944 65.9277 61.2924 66.4897 60.1746C67.058 59.0568 67.8573 58.1888 68.8877 57.5706C69.918 56.9524 71.1357 56.6433 72.5408 56.6433C73.9458 56.6433 75.1635 56.9524 76.1939 57.5706C77.2243 58.1888 78.0205 59.0568 78.5825 60.1746C79.1507 61.2924 79.4349 62.5944 79.4349 64.0806C79.4349 65.5669 79.1507 66.8657 78.5825 67.9773C78.0205 69.0888 77.2243 69.9537 76.1939 70.5719C75.1635 71.1902 73.9458 71.4993 72.5408 71.4993ZM72.5595 68.7829C73.3214 68.7829 73.9583 68.5737 74.4704 68.1553C74.9824 67.7306 75.3634 67.1624 75.6131 66.4505C75.8692 65.7386 75.9972 64.9455 75.9972 64.0713C75.9972 63.1908 75.8692 62.3946 75.6131 61.6827C75.3634 60.9646 74.9824 60.3932 74.4704 59.9685C73.9583 59.5439 73.3214 59.3316 72.5595 59.3316C71.7789 59.3316 71.1295 59.5439 70.6112 59.9685C70.0991 60.3932 69.7151 60.9646 69.4591 61.6827C69.2093 62.3946 69.0844 63.1908 69.0844 64.0713C69.0844 64.9455 69.2093 65.7386 69.4591 66.4505C69.7151 67.1624 70.0991 67.7306 70.6112 68.1553C71.1295 68.5737 71.7789 68.7829 72.5595 68.7829ZM88.57 76.9134C87.3523 76.9134 86.3063 76.7479 85.4321 76.4169C84.5578 76.0922 83.8553 75.6551 83.3245 75.1055C82.7937 74.556 82.4253 73.9472 82.2192 73.279L85.2728 72.539C85.4102 72.82 85.61 73.0979 85.8723 73.3727C86.1346 73.6537 86.4874 73.8847 86.9308 74.0658C87.3804 74.2532 87.9455 74.3468 88.6262 74.3468C89.5879 74.3468 90.3841 74.1127 91.0148 73.6443C91.6455 73.1822 91.9608 72.4204 91.9608 71.3588V68.633H91.7922C91.6174 68.9827 91.3613 69.3417 91.0241 69.7102C90.6932 70.0786 90.2529 70.3877 89.7034 70.6375C89.1601 70.8873 88.4763 71.0122 87.652 71.0122C86.5467 71.0122 85.5445 70.753 84.6452 70.2347C83.7523 69.7102 83.0404 68.9296 82.5096 67.893C81.985 66.8501 81.7227 65.545 81.7227 63.9776C81.7227 62.3977 81.985 61.0645 82.5096 59.9779C83.0404 58.8851 83.7554 58.0577 84.6546 57.4957C85.5538 56.9274 86.5561 56.6433 87.6614 56.6433C88.5044 56.6433 89.1976 56.7869 89.7409 57.0742C90.2904 57.3552 90.7275 57.6955 91.0522 58.0952C91.377 58.4886 91.6236 58.8601 91.7922 59.2098H91.9796V56.8306H95.3236V71.4524C95.3236 72.6826 95.0301 73.7005 94.4431 74.5061C93.8561 75.3116 93.0536 75.9142 92.0358 76.3139C91.0179 76.7135 89.8626 76.9134 88.57 76.9134ZM88.5981 68.352C89.3162 68.352 89.9282 68.1771 90.434 67.8274C90.9398 67.4777 91.3239 66.975 91.5862 66.3193C91.8484 65.6637 91.9796 64.8768 91.9796 63.9589C91.9796 63.0534 91.8484 62.2603 91.5862 61.5797C91.3301 60.899 90.9492 60.3713 90.4434 59.9966C89.9438 59.6157 89.3287 59.4253 88.5981 59.4253C87.8425 59.4253 87.2118 59.622 86.706 60.0154C86.2001 60.4088 85.8192 60.949 85.5632 61.6359C85.3072 62.3165 85.1792 63.0909 85.1792 63.9589C85.1792 64.8394 85.3072 65.6106 85.5632 66.2725C85.8255 66.9282 86.2095 67.4403 86.7153 67.8087C87.2274 68.1709 87.855 68.352 88.5981 68.352ZM98.7987 71.2183V56.8306H102.087V59.2286H102.236C102.499 58.398 102.948 57.7579 103.585 57.3083C104.228 56.8525 104.962 56.6245 105.786 56.6245C105.974 56.6245 106.183 56.6339 106.414 56.6526C106.651 56.6651 106.848 56.687 107.004 56.7182V59.8374C106.861 59.7874 106.633 59.7437 106.32 59.7063C106.014 59.6626 105.718 59.6407 105.431 59.6407C104.812 59.6407 104.257 59.775 103.763 60.0435C103.276 60.3058 102.892 60.6711 102.611 61.1394C102.33 61.6078 102.19 62.1479 102.19 62.7599V71.2183H98.7987ZM115.034 71.4993C113.591 71.4993 112.346 71.1995 111.297 70.6C110.254 69.9943 109.451 69.1388 108.889 68.0335C108.327 66.9219 108.046 65.6137 108.046 64.1087C108.046 62.6288 108.327 61.3299 108.889 60.2121C109.458 59.088 110.251 58.2138 111.268 57.5893C112.286 56.9586 113.482 56.6433 114.856 56.6433C115.743 56.6433 116.58 56.7869 117.366 57.0742C118.159 57.3552 118.859 57.7923 119.465 58.3855C120.077 58.9788 120.557 59.7344 120.907 60.6523C121.257 61.564 121.432 62.6506 121.432 63.912V64.9518H109.639V62.6662H118.181C118.175 62.0168 118.035 61.4392 117.76 60.9333C117.485 60.4213 117.101 60.0185 116.608 59.725C116.121 59.4315 115.552 59.2848 114.903 59.2848C114.21 59.2848 113.601 59.4534 113.076 59.7906C112.552 60.1215 112.143 60.5587 111.849 61.1019C111.562 61.639 111.415 62.2291 111.409 62.8723V64.8675C111.409 65.7042 111.562 66.4224 111.868 67.0219C112.174 67.6151 112.602 68.071 113.151 68.3894C113.701 68.7017 114.344 68.8578 115.081 68.8578C115.574 68.8578 116.021 68.7891 116.42 68.6517C116.82 68.5081 117.167 68.2989 117.46 68.0241C117.754 67.7494 117.975 67.409 118.125 67.0031L121.291 67.3591C121.091 68.1959 120.71 68.9265 120.148 69.5509C119.593 70.1692 118.881 70.65 118.013 70.9935C117.145 71.3307 116.152 71.4993 115.034 71.4993ZM135.672 60.6336L132.581 60.9708C132.493 60.6586 132.34 60.3651 132.122 60.0903C131.909 59.8155 131.622 59.5939 131.26 59.4253C130.898 59.2567 130.454 59.1724 129.93 59.1724C129.224 59.1724 128.631 59.3253 128.15 59.6313C127.675 59.9373 127.441 60.3339 127.448 60.8209C127.441 61.2393 127.594 61.5797 127.907 61.8419C128.225 62.1042 128.75 62.3196 129.48 62.4883L131.934 63.0128C133.296 63.3063 134.307 63.7715 134.969 64.4085C135.637 65.0454 135.975 65.8791 135.981 66.9095C135.975 67.8149 135.709 68.6142 135.185 69.3074C134.666 69.9943 133.945 70.5314 133.021 70.9185C132.097 71.3057 131.035 71.4993 129.836 71.4993C128.075 71.4993 126.658 71.1308 125.584 70.394C124.509 69.6509 123.869 68.6174 123.663 67.2935L126.97 66.975C127.12 67.6245 127.438 68.1147 127.925 68.4456C128.412 68.7766 129.046 68.9421 129.827 68.9421C130.632 68.9421 131.279 68.7766 131.766 68.4456C132.259 68.1147 132.506 67.7057 132.506 67.2186C132.506 66.8064 132.346 66.4661 132.028 66.1976C131.716 65.9291 131.229 65.723 130.567 65.5794L128.113 65.0642C126.733 64.7769 125.712 64.293 125.05 63.6123C124.388 62.9254 124.06 62.0574 124.066 61.0083C124.06 60.1215 124.3 59.3534 124.787 58.704C125.281 58.0483 125.964 57.5425 126.839 57.1866C127.719 56.8244 128.734 56.6433 129.883 56.6433C131.569 56.6433 132.896 57.0023 133.864 57.7205C134.838 58.4386 135.441 59.4096 135.672 60.6336ZM150.148 60.6336L147.057 60.9708C146.97 60.6586 146.817 60.3651 146.598 60.0903C146.386 59.8155 146.099 59.5939 145.737 59.4253C145.374 59.2567 144.931 59.1724 144.406 59.1724C143.701 59.1724 143.108 59.3253 142.627 59.6313C142.152 59.9373 141.918 60.3339 141.924 60.8209C141.918 61.2393 142.071 61.5797 142.383 61.8419C142.702 62.1042 143.226 62.3196 143.957 62.4883L146.411 63.0128C147.772 63.3063 148.784 63.7715 149.446 64.4085C150.114 65.0454 150.451 65.8791 150.457 66.9095C150.451 67.8149 150.186 68.6142 149.661 69.3074C149.143 69.9943 148.422 70.5314 147.498 70.9185C146.573 71.3057 145.512 71.4993 144.313 71.4993C142.552 71.4993 141.134 71.1308 140.06 70.394C138.986 69.6509 138.346 68.6174 138.14 67.2935L141.446 66.975C141.596 67.6245 141.915 68.1147 142.402 68.4456C142.889 68.7766 143.523 68.9421 144.303 68.9421C145.109 68.9421 145.755 68.7766 146.242 68.4456C146.736 68.1147 146.982 67.7057 146.982 67.2186C146.982 66.8064 146.823 66.4661 146.505 66.1976C146.192 65.9291 145.705 65.723 145.043 65.5794L142.589 65.0642C141.209 64.7769 140.188 64.293 139.526 63.6123C138.864 62.9254 138.536 62.0574 138.543 61.0083C138.536 60.1215 138.777 59.3534 139.264 58.704C139.757 58.0483 140.441 57.5425 141.315 57.1866C142.196 56.8244 143.211 56.6433 144.36 56.6433C146.046 56.6433 147.373 57.0023 148.341 57.7205C149.315 58.4386 149.917 59.4096 150.148 60.6336Z" fill="white"/>
<g clip-path="url(#clip0_1351_163)">
<path opacity="0.9" d="M38.2169 401.45V399.539H47.2199V401.45H43.8638V410.501H41.5729V401.45H38.2169ZM47.806 410.501V402.28H50.0166V403.714H50.1022C50.2521 403.204 50.5037 402.819 50.8569 402.558C51.2102 402.294 51.617 402.162 52.0773 402.162C52.1915 402.162 52.3146 402.169 52.4466 402.183C52.5787 402.198 52.6946 402.217 52.7946 402.242V404.266C52.6875 404.233 52.5394 404.205 52.3503 404.18C52.1612 404.155 51.9881 404.142 51.8311 404.142C51.4957 404.142 51.1959 404.216 50.9319 404.362C50.6714 404.505 50.4644 404.704 50.311 404.961C50.1611 405.218 50.0862 405.514 50.0862 405.85V410.501H47.806ZM56.0824 410.656C55.5578 410.656 55.0904 410.565 54.68 410.383C54.2696 410.198 53.9449 409.925 53.7058 409.565C53.4703 409.201 53.3526 408.747 53.3526 408.205C53.3526 407.748 53.4364 407.365 53.6041 407.054C53.7718 406.744 54.0002 406.494 54.2893 406.305C54.5783 406.116 54.9066 405.973 55.2741 405.877C55.6452 405.78 56.0342 405.712 56.441 405.673C56.9191 405.623 57.3045 405.577 57.5971 405.534C57.8897 405.488 58.1021 405.42 58.2341 405.331C58.3661 405.241 58.4321 405.109 58.4321 404.935V404.902C58.4321 404.563 58.3251 404.301 58.111 404.116C57.9004 403.93 57.6007 403.837 57.2118 403.837C56.8014 403.837 56.4749 403.928 56.2322 404.11C55.9896 404.289 55.829 404.514 55.7505 404.785L53.6416 404.613C53.7487 404.114 53.9592 403.682 54.2732 403.318C54.5872 402.951 54.9922 402.669 55.4882 402.472C55.9878 402.273 56.5659 402.173 57.2225 402.173C57.6792 402.173 58.1163 402.226 58.5338 402.333C58.9549 402.44 59.3278 402.606 59.6525 402.831C59.9808 403.056 60.2395 403.345 60.4286 403.698C60.6178 404.048 60.7123 404.467 60.7123 404.956V410.501H58.5499V409.361H58.4857C58.3536 409.618 58.177 409.845 57.9558 410.041C57.7345 410.234 57.4687 410.385 57.1582 410.496C56.8478 410.603 56.4892 410.656 56.0824 410.656ZM56.7354 409.083C57.0708 409.083 57.367 409.017 57.6239 408.885C57.8808 408.749 58.0824 408.567 58.2287 408.339C58.375 408.11 58.4482 407.852 58.4482 407.563V406.69C58.3768 406.737 58.2787 406.779 58.1538 406.819C58.0325 406.854 57.8951 406.888 57.7417 406.92C57.5882 406.949 57.4348 406.976 57.2813 407.001C57.1279 407.022 56.9887 407.042 56.8638 407.06C56.5962 407.099 56.3625 407.161 56.1627 407.247C55.9628 407.333 55.8076 407.448 55.697 407.595C55.5864 407.738 55.5311 407.916 55.5311 408.13C55.5311 408.44 55.6435 408.678 55.8683 408.842C56.0966 409.003 56.3857 409.083 56.7354 409.083ZM62.4813 410.501V402.28H64.7615V410.501H62.4813ZM63.6268 401.22C63.2878 401.22 62.997 401.107 62.7543 400.883C62.5152 400.654 62.3957 400.381 62.3957 400.064C62.3957 399.75 62.5152 399.48 62.7543 399.256C62.997 399.027 63.2878 398.913 63.6268 398.913C63.9658 398.913 64.2548 399.027 64.4939 399.256C64.7365 399.48 64.8579 399.75 64.8579 400.064C64.8579 400.381 64.7365 400.654 64.4939 400.883C64.2548 401.107 63.9658 401.22 63.6268 401.22ZM68.8683 405.748V410.501H66.5881V402.28H68.7612V403.73H68.8576C69.0395 403.252 69.3446 402.874 69.7728 402.596C70.201 402.314 70.7202 402.173 71.3304 402.173C71.9014 402.173 72.3992 402.298 72.8238 402.547C73.2484 402.797 73.5785 403.154 73.814 403.618C74.0495 404.078 74.1673 404.628 74.1673 405.266V410.501H71.8871V405.673C71.8907 405.17 71.7622 404.778 71.5017 404.496C71.2412 404.21 70.8826 404.067 70.4259 404.067C70.119 404.067 69.8478 404.133 69.6123 404.266C69.3803 404.398 69.1983 404.59 69.0663 404.844C68.9378 405.093 68.8718 405.395 68.8683 405.748ZM79.7112 410.662C78.8655 410.662 78.1375 410.491 77.5273 410.148C76.9207 409.802 76.4533 409.313 76.125 408.681C75.7967 408.046 75.6325 407.295 75.6325 406.428C75.6325 405.582 75.7967 404.84 76.125 404.201C76.4533 403.563 76.9154 403.065 77.5113 402.708C78.1108 402.351 78.8137 402.173 79.6202 402.173C80.1626 402.173 80.6675 402.26 81.135 402.435C81.606 402.606 82.0164 402.865 82.3661 403.211C82.7193 403.557 82.9941 403.993 83.1903 404.517C83.3866 405.038 83.4847 405.648 83.4847 406.348V406.974H76.5425V405.561H81.3384C81.3384 405.233 81.267 404.942 81.1243 404.688C80.9815 404.435 80.7835 404.237 80.5301 404.094C80.2803 403.948 79.9895 403.875 79.6577 403.875C79.3115 403.875 79.0047 403.955 78.737 404.116C78.473 404.273 78.266 404.485 78.1161 404.753C77.9663 405.017 77.8895 405.311 77.886 405.636V406.979C77.886 407.386 77.9609 407.738 78.1108 408.034C78.2642 408.33 78.4801 408.558 78.7584 408.719C79.0368 408.879 79.3668 408.96 79.7487 408.96C80.002 408.96 80.234 408.924 80.4445 408.853C80.655 408.781 80.8352 408.674 80.9851 408.531C81.135 408.389 81.2492 408.214 81.3277 408.007L83.4366 408.146C83.3295 408.653 83.1101 409.095 82.7782 409.474C82.4499 409.848 82.0253 410.141 81.5043 410.351C80.9869 410.558 80.3892 410.662 79.7112 410.662ZM88.7195 410.662C87.8738 410.662 87.1459 410.491 86.5357 410.148C85.9291 409.802 85.4616 409.313 85.1333 408.681C84.805 408.046 84.6409 407.295 84.6409 406.428C84.6409 405.582 84.805 404.84 85.1333 404.201C85.4616 403.563 85.9237 403.065 86.5196 402.708C87.1191 402.351 87.8221 402.173 88.6285 402.173C89.1709 402.173 89.6758 402.26 90.1433 402.435C90.6143 402.606 91.0247 402.865 91.3744 403.211C91.7277 403.557 92.0024 403.993 92.1987 404.517C92.3949 405.038 92.4931 405.648 92.4931 406.348V406.974H85.5508V405.561H90.3467C90.3467 405.233 90.2753 404.942 90.1326 404.688C89.9899 404.435 89.7918 404.237 89.5385 404.094C89.2887 403.948 88.9979 403.875 88.666 403.875C88.3199 403.875 88.013 403.955 87.7454 404.116C87.4813 404.273 87.2743 404.485 87.1245 404.753C86.9746 405.017 86.8979 405.311 86.8943 405.636V406.979C86.8943 407.386 86.9692 407.738 87.1191 408.034C87.2726 408.33 87.4884 408.558 87.7668 408.719C88.0451 408.879 88.3752 408.96 88.757 408.96C89.0103 408.96 89.2423 408.924 89.4528 408.853C89.6634 408.781 89.8436 408.674 89.9934 408.531C90.1433 408.389 90.2575 408.214 90.336 408.007L92.4449 408.146C92.3378 408.653 92.1184 409.095 91.7865 409.474C91.4582 409.848 91.0336 410.141 90.5126 410.351C89.9952 410.558 89.3975 410.662 88.7195 410.662Z" fill="white"/>
<path opacity="0.9" d="M280.239 410.651C279.44 410.651 278.728 410.514 278.103 410.239C277.482 409.961 276.992 409.579 276.631 409.094C276.275 408.605 276.091 408.041 276.08 407.402H278.414C278.428 407.67 278.515 407.905 278.676 408.109C278.84 408.308 279.058 408.464 279.329 408.574C279.6 408.685 279.905 408.74 280.244 408.74C280.598 408.74 280.91 408.678 281.181 408.553C281.452 408.428 281.665 408.255 281.818 408.034C281.971 407.812 282.048 407.557 282.048 407.268C282.048 406.976 281.966 406.717 281.802 406.492C281.641 406.264 281.409 406.085 281.106 405.957C280.806 405.828 280.45 405.764 280.036 405.764H279.013V404.062H280.036C280.385 404.062 280.694 404.001 280.962 403.88C281.233 403.759 281.443 403.591 281.593 403.377C281.743 403.159 281.818 402.906 281.818 402.617C281.818 402.342 281.752 402.101 281.62 401.894C281.491 401.684 281.31 401.52 281.074 401.402C280.842 401.284 280.571 401.225 280.26 401.225C279.946 401.225 279.659 401.282 279.399 401.397C279.138 401.507 278.929 401.666 278.772 401.873C278.615 402.08 278.532 402.323 278.521 402.601H276.3C276.31 401.969 276.49 401.413 276.84 400.931C277.19 400.449 277.661 400.073 278.253 399.801C278.849 399.527 279.522 399.389 280.271 399.389C281.028 399.389 281.69 399.527 282.257 399.801C282.824 400.076 283.265 400.447 283.579 400.915C283.897 401.379 284.054 401.9 284.05 402.478C284.054 403.092 283.863 403.604 283.477 404.014C283.095 404.424 282.598 404.685 281.984 404.795V404.881C282.79 404.985 283.404 405.265 283.825 405.721C284.25 406.175 284.46 406.742 284.457 407.424C284.46 408.048 284.28 408.603 283.916 409.088C283.556 409.573 283.058 409.955 282.423 410.234C281.788 410.512 281.06 410.651 280.239 410.651ZM291.267 404.116V405.925H286.267V404.116H291.267ZM297.192 410.651C296.435 410.651 295.761 410.512 295.169 410.234C294.58 409.955 294.112 409.572 293.766 409.083C293.42 408.594 293.24 408.034 293.226 407.402H295.474C295.499 407.827 295.677 408.171 296.009 408.435C296.341 408.699 296.735 408.831 297.192 408.831C297.556 408.831 297.877 408.751 298.155 408.59C298.437 408.426 298.657 408.2 298.814 407.911C298.974 407.618 299.055 407.283 299.055 406.904C299.055 406.519 298.972 406.18 298.808 405.887C298.648 405.595 298.425 405.366 298.139 405.202C297.854 405.038 297.527 404.954 297.16 404.951C296.839 404.951 296.526 405.017 296.223 405.149C295.923 405.281 295.69 405.461 295.522 405.689L293.461 405.32L293.98 399.539H300.682V401.434H295.891L295.607 404.18H295.672C295.864 403.909 296.155 403.684 296.544 403.505C296.933 403.327 297.368 403.238 297.85 403.238C298.51 403.238 299.099 403.393 299.617 403.703C300.134 404.014 300.543 404.44 300.842 404.983C301.142 405.522 301.29 406.142 301.287 406.845C301.29 407.584 301.119 408.241 300.773 408.815C300.43 409.386 299.95 409.836 299.333 410.164C298.719 410.489 298.005 410.651 297.192 410.651ZM307.821 413.584C307.532 413.584 307.26 413.561 307.007 413.515C306.757 413.472 306.55 413.417 306.386 413.349L306.9 411.647C307.168 411.729 307.409 411.773 307.623 411.78C307.84 411.788 308.028 411.738 308.185 411.631C308.345 411.524 308.475 411.342 308.575 411.085L308.709 410.737L305.76 402.28H308.158L309.86 408.317H309.946L311.664 402.28H314.078L310.882 411.39C310.729 411.832 310.52 412.218 310.256 412.546C309.996 412.878 309.666 413.133 309.266 413.311C308.866 413.493 308.384 413.584 307.821 413.584ZM318.726 410.662C317.881 410.662 317.153 410.491 316.543 410.148C315.936 409.802 315.469 409.313 315.14 408.681C314.812 408.046 314.648 407.295 314.648 406.428C314.648 405.582 314.812 404.84 315.14 404.201C315.469 403.563 315.931 403.065 316.527 402.708C317.126 402.351 317.829 402.173 318.636 402.173C319.178 402.173 319.683 402.26 320.15 402.435C320.621 402.606 321.032 402.865 321.381 403.211C321.735 403.557 322.009 403.993 322.206 404.517C322.402 405.038 322.5 405.648 322.5 406.348V406.974H315.558V405.561H320.354C320.354 405.233 320.282 404.942 320.14 404.688C319.997 404.435 319.799 404.237 319.545 404.094C319.296 403.948 319.005 403.875 318.673 403.875C318.327 403.875 318.02 403.955 317.752 404.116C317.488 404.273 317.281 404.485 317.131 404.753C316.982 405.017 316.905 405.311 316.901 405.636V406.979C316.901 407.386 316.976 407.738 317.126 408.034C317.28 408.33 317.495 408.558 317.774 408.719C318.052 408.879 318.382 408.96 318.764 408.96C319.017 408.96 319.249 408.924 319.46 408.853C319.67 408.781 319.851 408.674 320 408.531C320.15 408.389 320.264 408.214 320.343 408.007L322.452 408.146C322.345 408.653 322.125 409.095 321.794 409.474C321.465 409.848 321.041 410.141 320.52 410.351C320.002 410.558 319.404 410.662 318.726 410.662ZM326.332 410.656C325.808 410.656 325.34 410.565 324.93 410.383C324.52 410.198 324.195 409.925 323.956 409.565C323.72 409.201 323.603 408.747 323.603 408.205C323.603 407.748 323.687 407.365 323.854 407.054C324.022 406.744 324.25 406.494 324.539 406.305C324.828 406.116 325.157 405.973 325.524 405.877C325.895 405.78 326.284 405.712 326.691 405.673C327.169 405.623 327.555 405.577 327.847 405.534C328.14 405.488 328.352 405.42 328.484 405.331C328.616 405.241 328.682 405.109 328.682 404.935V404.902C328.682 404.563 328.575 404.301 328.361 404.116C328.151 403.93 327.851 403.837 327.462 403.837C327.051 403.837 326.725 403.928 326.482 404.11C326.24 404.289 326.079 404.514 326.001 404.785L323.892 404.613C323.999 404.114 324.209 403.682 324.523 403.318C324.837 402.951 325.242 402.669 325.738 402.472C326.238 402.273 326.816 402.173 327.473 402.173C327.929 402.173 328.366 402.226 328.784 402.333C329.205 402.44 329.578 402.606 329.903 402.831C330.231 403.056 330.49 403.345 330.679 403.698C330.868 404.048 330.962 404.467 330.962 404.956V410.501H328.8V409.361H328.736C328.604 409.618 328.427 409.845 328.206 410.041C327.985 410.234 327.719 410.385 327.408 410.496C327.098 410.603 326.739 410.656 326.332 410.656ZM326.985 409.083C327.321 409.083 327.617 409.017 327.874 408.885C328.131 408.749 328.333 408.567 328.479 408.339C328.625 408.11 328.698 407.852 328.698 407.563V406.69C328.627 406.737 328.529 406.779 328.404 406.819C328.283 406.854 328.145 406.888 327.992 406.92C327.838 406.949 327.685 406.976 327.531 407.001C327.378 407.022 327.239 407.042 327.114 407.06C326.846 407.099 326.613 407.161 326.413 407.247C326.213 407.333 326.058 407.448 325.947 407.595C325.836 407.738 325.781 407.916 325.781 408.13C325.781 408.44 325.894 408.678 326.118 408.842C326.347 409.003 326.636 409.083 326.985 409.083ZM332.731 410.501V402.28H334.942V403.714H335.028C335.178 403.204 335.429 402.819 335.782 402.558C336.136 402.294 336.542 402.162 337.003 402.162C337.117 402.162 337.24 402.169 337.372 402.183C337.504 402.198 337.62 402.217 337.72 402.242V404.266C337.613 404.233 337.465 404.205 337.276 404.18C337.087 404.155 336.914 404.142 336.757 404.142C336.421 404.142 336.121 404.216 335.857 404.362C335.597 404.505 335.39 404.704 335.236 404.961C335.087 405.218 335.012 405.514 335.012 405.85V410.501H332.731ZM345.739 404.624L343.652 404.753C343.616 404.574 343.54 404.414 343.422 404.271C343.304 404.125 343.149 404.009 342.956 403.923C342.767 403.834 342.54 403.789 342.276 403.789C341.923 403.789 341.625 403.864 341.382 404.014C341.14 404.16 341.019 404.356 341.019 404.603C341.019 404.799 341.097 404.965 341.254 405.1C341.411 405.236 341.68 405.345 342.062 405.427L343.55 405.727C344.35 405.891 344.946 406.155 345.338 406.519C345.731 406.883 345.927 407.361 345.927 407.953C345.927 408.492 345.768 408.965 345.45 409.372C345.136 409.779 344.705 410.096 344.155 410.325C343.609 410.549 342.979 410.662 342.266 410.662C341.177 410.662 340.31 410.435 339.664 409.982C339.022 409.525 338.646 408.904 338.535 408.119L340.778 408.002C340.845 408.333 341.01 408.587 341.27 408.762C341.531 408.933 341.864 409.019 342.271 409.019C342.671 409.019 342.992 408.942 343.234 408.788C343.481 408.631 343.606 408.43 343.609 408.184C343.606 407.977 343.518 407.807 343.347 407.675C343.176 407.539 342.912 407.436 342.555 407.365L341.131 407.081C340.328 406.92 339.73 406.642 339.338 406.246C338.949 405.85 338.754 405.345 338.754 404.731C338.754 404.203 338.897 403.748 339.183 403.366C339.472 402.984 339.877 402.69 340.398 402.483C340.922 402.276 341.536 402.173 342.239 402.173C343.277 402.173 344.094 402.392 344.69 402.831C345.29 403.27 345.64 403.868 345.739 404.624Z" fill="white"/>
<path opacity="0.9" d="M524.564 410.651C523.808 410.651 523.133 410.512 522.541 410.234C521.952 409.955 521.485 409.572 521.138 409.083C520.792 408.594 520.612 408.034 520.598 407.402H522.846C522.871 407.827 523.049 408.171 523.381 408.435C523.713 408.699 524.107 408.831 524.564 408.831C524.928 408.831 525.249 408.751 525.527 408.59C525.809 408.426 526.029 408.2 526.186 407.911C526.346 407.618 526.427 407.283 526.427 406.904C526.427 406.519 526.345 406.18 526.18 405.887C526.02 405.595 525.797 405.366 525.511 405.202C525.226 405.038 524.899 404.954 524.532 404.951C524.211 404.951 523.899 405.017 523.595 405.149C523.295 405.281 523.062 405.461 522.894 405.689L520.833 405.32L521.352 399.539H528.054V401.434H523.263L522.98 404.18H523.044C523.237 403.909 523.527 403.684 523.916 403.505C524.305 403.327 524.741 403.238 525.222 403.238C525.883 403.238 526.471 403.393 526.989 403.703C527.506 404.014 527.915 404.44 528.214 404.983C528.514 405.522 528.662 406.142 528.659 406.845C528.662 407.584 528.491 408.241 528.145 408.815C527.802 409.386 527.322 409.836 526.705 410.164C526.091 410.489 525.378 410.651 524.564 410.651ZM533.551 408.831V401.252H535.467V408.831H533.551ZM530.719 406V404.084H538.299V406H530.719ZM545.438 413.584C545.149 413.584 544.877 413.561 544.624 413.515C544.374 413.472 544.167 413.417 544.003 413.349L544.517 411.647C544.785 411.729 545.025 411.773 545.24 411.78C545.457 411.788 545.645 411.738 545.802 411.631C545.962 411.524 546.092 411.342 546.192 411.085L546.326 410.737L543.377 402.28H545.775L547.477 408.317H547.563L549.281 402.28H551.695L548.499 411.39C548.346 411.832 548.137 412.218 547.873 412.546C547.613 412.878 547.282 413.133 546.883 413.311C546.483 413.493 546.001 413.584 545.438 413.584ZM556.343 410.662C555.498 410.662 554.77 410.491 554.16 410.148C553.553 409.802 553.086 409.313 552.757 408.681C552.429 408.046 552.265 407.295 552.265 406.428C552.265 405.582 552.429 404.84 552.757 404.201C553.086 403.563 553.548 403.065 554.144 402.708C554.743 402.351 555.446 402.173 556.252 402.173C556.795 402.173 557.3 402.26 557.767 402.435C558.238 402.606 558.649 402.865 558.998 403.211C559.352 403.557 559.626 403.993 559.823 404.517C560.019 405.038 560.117 405.648 560.117 406.348V406.974H553.175V405.561H557.971C557.971 405.233 557.899 404.942 557.757 404.688C557.614 404.435 557.416 404.237 557.162 404.094C556.913 403.948 556.622 403.875 556.29 403.875C555.944 403.875 555.637 403.955 555.369 404.116C555.105 404.273 554.898 404.485 554.748 404.753C554.599 405.017 554.522 405.311 554.518 405.636V406.979C554.518 407.386 554.593 407.738 554.743 408.034C554.896 408.33 555.112 408.558 555.391 408.719C555.669 408.879 555.999 408.96 556.381 408.96C556.634 408.96 556.866 408.924 557.077 408.853C557.287 408.781 557.467 408.674 557.617 408.531C557.767 408.389 557.881 408.214 557.96 408.007L560.069 408.146C559.962 408.653 559.742 409.095 559.41 409.474C559.082 409.848 558.658 410.141 558.137 410.351C557.619 410.558 557.021 410.662 556.343 410.662ZM563.949 410.656C563.425 410.656 562.957 410.565 562.547 410.383C562.137 410.198 561.812 409.925 561.573 409.565C561.337 409.201 561.22 408.747 561.22 408.205C561.22 407.748 561.303 407.365 561.471 407.054C561.639 406.744 561.867 406.494 562.156 406.305C562.445 406.116 562.774 405.973 563.141 405.877C563.512 405.78 563.901 405.712 564.308 405.673C564.786 405.623 565.172 405.577 565.464 405.534C565.757 405.488 565.969 405.42 566.101 405.331C566.233 405.241 566.299 405.109 566.299 404.935V404.902C566.299 404.563 566.192 404.301 565.978 404.116C565.768 403.93 565.468 403.837 565.079 403.837C564.668 403.837 564.342 403.928 564.099 404.11C563.857 404.289 563.696 404.514 563.618 404.785L561.509 404.613C561.616 404.114 561.826 403.682 562.14 403.318C562.454 402.951 562.859 402.669 563.355 402.472C563.855 402.273 564.433 402.173 565.09 402.173C565.546 402.173 565.983 402.226 566.401 402.333C566.822 402.44 567.195 402.606 567.52 402.831C567.848 403.056 568.107 403.345 568.296 403.698C568.485 404.048 568.579 404.467 568.579 404.956V410.501H566.417V409.361H566.353C566.221 409.618 566.044 409.845 565.823 410.041C565.602 410.234 565.336 410.385 565.025 410.496C564.715 410.603 564.356 410.656 563.949 410.656ZM564.602 409.083C564.938 409.083 565.234 409.017 565.491 408.885C565.748 408.749 565.949 408.567 566.096 408.339C566.242 408.11 566.315 407.852 566.315 407.563V406.69C566.244 406.737 566.146 406.779 566.021 406.819C565.9 406.854 565.762 406.888 565.609 406.92C565.455 406.949 565.302 406.976 565.148 407.001C564.995 407.022 564.856 407.042 564.731 407.06C564.463 407.099 564.23 407.161 564.03 407.247C563.83 407.333 563.675 407.448 563.564 407.595C563.453 407.738 563.398 407.916 563.398 408.13C563.398 408.44 563.511 408.678 563.735 408.842C563.964 409.003 564.253 409.083 564.602 409.083ZM570.348 410.501V402.28H572.559V403.714H572.645C572.794 403.204 573.046 402.819 573.399 402.558C573.753 402.294 574.159 402.162 574.62 402.162C574.734 402.162 574.857 402.169 574.989 402.183C575.121 402.198 575.237 402.217 575.337 402.242V404.266C575.23 404.233 575.082 404.205 574.893 404.18C574.704 404.155 574.531 404.142 574.373 404.142C574.038 404.142 573.738 404.216 573.474 404.362C573.214 404.505 573.007 404.704 572.853 404.961C572.704 405.218 572.629 405.514 572.629 405.85V410.501H570.348ZM583.356 404.624L581.269 404.753C581.233 404.574 581.157 404.414 581.039 404.271C580.921 404.125 580.766 404.009 580.573 403.923C580.384 403.834 580.157 403.789 579.893 403.789C579.54 403.789 579.242 403.864 578.999 404.014C578.757 404.16 578.635 404.356 578.635 404.603C578.635 404.799 578.714 404.965 578.871 405.1C579.028 405.236 579.297 405.345 579.679 405.427L581.167 405.727C581.967 405.891 582.562 406.155 582.955 406.519C583.347 406.883 583.544 407.361 583.544 407.953C583.544 408.492 583.385 408.965 583.067 409.372C582.753 409.779 582.322 410.096 581.772 410.325C581.226 410.549 580.596 410.662 579.883 410.662C578.794 410.662 577.927 410.435 577.281 409.982C576.639 409.525 576.263 408.904 576.152 408.119L578.395 408.002C578.462 408.333 578.627 408.587 578.887 408.762C579.148 408.933 579.481 409.019 579.888 409.019C580.288 409.019 580.609 408.942 580.851 408.788C581.098 408.631 581.223 408.43 581.226 408.184C581.223 407.977 581.135 407.807 580.964 407.675C580.793 407.539 580.528 407.436 580.172 407.365L578.748 407.081C577.945 406.92 577.347 406.642 576.955 406.246C576.566 405.85 576.371 405.345 576.371 404.731C576.371 404.203 576.514 403.748 576.8 403.366C577.089 402.984 577.494 402.69 578.015 402.483C578.539 402.276 579.153 402.173 579.856 402.173C580.894 402.173 581.711 402.392 582.307 402.831C582.907 403.27 583.257 403.868 583.356 404.624Z" fill="white"/>
</g>
<path opacity="0.9" d="M640.39 119.857H643.121V129.705C643.121 130.784 642.866 131.733 642.355 132.553C641.85 133.372 641.138 134.012 640.221 134.474C639.303 134.93 638.231 135.158 637.005 135.158C635.773 135.158 634.699 134.93 633.781 134.474C632.864 134.012 632.152 133.372 631.647 132.553C631.141 131.733 630.889 130.784 630.889 129.705V119.857H633.619V129.476C633.619 130.104 633.757 130.664 634.031 131.154C634.311 131.645 634.704 132.03 635.209 132.31C635.714 132.585 636.313 132.722 637.005 132.722C637.697 132.722 638.295 132.585 638.8 132.31C639.311 132.03 639.703 131.645 639.978 131.154C640.253 130.664 640.39 130.104 640.39 129.476V119.857ZM648.819 119.857V134.93H646.088V119.857H648.819Z" fill="white"/>
<path opacity="0.9" d="M640.768 174.496H643.499V184.343C643.499 185.423 643.244 186.372 642.733 187.191C642.228 188.011 641.516 188.651 640.599 189.112C639.681 189.569 638.609 189.797 637.383 189.797C636.151 189.797 635.077 189.569 634.159 189.112C633.242 188.651 632.53 188.011 632.025 187.191C631.519 186.372 631.267 185.423 631.267 184.343V174.496H633.997V184.115C633.997 184.743 634.135 185.302 634.409 185.793C634.689 186.284 635.082 186.669 635.587 186.949C636.092 187.223 636.691 187.361 637.383 187.361C638.075 187.361 638.673 187.223 639.179 186.949C639.689 186.669 640.081 186.284 640.356 185.793C640.631 185.302 640.768 184.743 640.768 184.115V174.496ZM648.748 174.496L652.067 180.016H652.185L655.519 174.496H658.632L653.988 182.032L658.706 189.569H655.541L652.185 184.086H652.067L648.711 189.569H645.561L650.323 182.032L645.62 174.496H648.748Z" fill="white"/>
<path opacity="0.9" d="M636.407 244.208H631.299V229.135H636.51C638.006 229.135 639.292 229.436 640.366 230.04C641.446 230.639 642.275 231.5 642.854 232.623C643.433 233.747 643.722 235.091 643.722 236.656C643.722 238.226 643.43 239.576 642.846 240.704C642.267 241.833 641.431 242.699 640.337 243.302C639.248 243.906 637.938 244.208 636.407 244.208ZM634.029 241.845H636.274C637.324 241.845 638.2 241.654 638.902 241.271C639.603 240.883 640.131 240.307 640.484 239.541C640.837 238.771 641.014 237.809 641.014 236.656C641.014 235.503 640.837 234.547 640.484 233.786C640.131 233.021 639.608 232.449 638.916 232.071C638.229 231.689 637.376 231.497 636.355 231.497H634.029V241.845ZM654.508 233.278C654.439 232.636 654.15 232.135 653.64 231.777C653.134 231.419 652.477 231.24 651.667 231.24C651.098 231.24 650.61 231.325 650.203 231.497C649.795 231.669 649.484 231.902 649.268 232.196C649.052 232.491 648.942 232.827 648.937 233.205C648.937 233.519 649.008 233.791 649.15 234.022C649.297 234.252 649.496 234.448 649.746 234.61C649.996 234.767 650.274 234.9 650.578 235.008C650.882 235.116 651.189 235.207 651.498 235.28L652.911 235.633C653.48 235.766 654.027 235.945 654.552 236.171C655.082 236.396 655.556 236.681 655.973 237.024C656.395 237.368 656.728 237.782 656.974 238.268C657.219 238.754 657.341 239.323 657.341 239.976C657.341 240.859 657.116 241.637 656.664 242.309C656.213 242.976 655.56 243.499 654.707 243.876C653.858 244.249 652.83 244.436 651.623 244.436C650.45 244.436 649.432 244.254 648.569 243.891C647.71 243.528 647.038 242.998 646.552 242.301C646.071 241.605 645.811 240.756 645.772 239.755H648.458C648.498 240.28 648.659 240.717 648.944 241.065C649.229 241.413 649.599 241.673 650.055 241.845C650.517 242.017 651.032 242.103 651.601 242.103C652.195 242.103 652.715 242.014 653.161 241.838C653.613 241.656 653.966 241.406 654.221 241.087C654.476 240.763 654.606 240.385 654.611 239.954C654.606 239.561 654.491 239.237 654.265 238.982C654.039 238.722 653.723 238.506 653.316 238.334C652.913 238.158 652.442 238.001 651.903 237.863L650.188 237.422C648.946 237.103 647.965 236.62 647.244 235.972C646.528 235.319 646.169 234.453 646.169 233.374C646.169 232.486 646.41 231.708 646.891 231.041C647.376 230.374 648.036 229.856 648.87 229.488C649.705 229.115 650.649 228.929 651.704 228.929C652.774 228.929 653.711 229.115 654.515 229.488C655.325 229.856 655.96 230.369 656.422 231.026C656.883 231.679 657.121 232.429 657.135 233.278H654.508Z" fill="white"/>
<path opacity="0.9" d="M630.874 298.846V283.773H633.604V290.154H640.589V283.773H643.327V298.846H640.589V292.443H633.604V298.846H630.874ZM646.296 298.846V283.773H651.949C653.107 283.773 654.078 283.975 654.863 284.377C655.653 284.779 656.249 285.343 656.652 286.07C657.059 286.791 657.262 287.632 657.262 288.594C657.262 289.561 657.056 290.4 656.644 291.111C656.237 291.818 655.636 292.365 654.841 292.752C654.046 293.135 653.07 293.326 651.912 293.326H647.886V291.06H651.544C652.221 291.06 652.775 290.966 653.207 290.78C653.639 290.589 653.958 290.311 654.164 289.948C654.375 289.58 654.48 289.129 654.48 288.594C654.48 288.059 654.375 287.603 654.164 287.225C653.953 286.842 653.632 286.553 653.2 286.357C652.768 286.156 652.211 286.055 651.529 286.055H649.027V298.846H646.296ZM654.083 292.016L657.814 298.846H654.767L651.102 292.016H654.083Z" fill="white"/>
<path opacity="0.9" d="M637.133 348.422H639.606L641.071 350.32L642.116 351.557L644.626 354.78H641.976L640.269 352.617L639.54 351.586L637.133 348.422ZM644.986 345.949C644.986 347.573 644.682 348.964 644.074 350.122C643.47 351.275 642.646 352.158 641.601 352.771C640.561 353.385 639.381 353.691 638.061 353.691C636.741 353.691 635.558 353.385 634.513 352.771C633.473 352.153 632.649 351.267 632.04 350.114C631.437 348.956 631.135 347.568 631.135 345.949C631.135 344.325 631.437 342.936 632.04 341.783C632.649 340.625 633.473 339.74 634.513 339.126C635.558 338.513 636.741 338.206 638.061 338.206C639.381 338.206 640.561 338.513 641.601 339.126C642.646 339.74 643.47 340.625 644.074 341.783C644.682 342.936 644.986 344.325 644.986 345.949ZM642.241 345.949C642.241 344.806 642.062 343.841 641.704 343.056C641.351 342.266 640.86 341.67 640.232 341.268C639.604 340.861 638.88 340.657 638.061 340.657C637.241 340.657 636.518 340.861 635.89 341.268C635.262 341.67 634.769 342.266 634.41 343.056C634.057 343.841 633.88 344.806 633.88 345.949C633.88 347.092 634.057 348.059 634.41 348.848C634.769 349.634 635.262 350.23 635.89 350.637C636.518 351.039 637.241 351.24 638.061 351.24C638.88 351.24 639.604 351.039 640.232 350.637C640.86 350.23 641.351 349.634 641.704 348.848C642.062 348.059 642.241 347.092 642.241 345.949ZM648.714 353.485H645.8L651.106 338.412H654.477L659.79 353.485H656.876L652.85 341.503H652.732L648.714 353.485ZM648.81 347.575H656.758V349.768H648.81V347.575Z" fill="white"/>
<defs>
<clipPath id="clip0_1351_163">
<rect width="546.388" height="18" fill="white" transform="translate(37.6816 396.501)"/>
</clipPath>
</defs>
</svg>
