<svg width="372" height="234" viewBox="0 0 372 234" fill="none" xmlns="http://www.w3.org/2000/svg">
<rect x="0.5" width="371" height="234" rx="24" fill="white"/>
<rect x="20.5" y="53" width="29" height="29" rx="14.5" fill="#0B8AFF"/>
<rect x="49.5" y="53" width="29" height="29" rx="14.5" fill="#0B8AFF"/>
<rect x="78.5" y="53" width="29" height="29" rx="14.5" fill="#EEF1F6"/>
<rect x="107.5" y="53" width="29" height="29" rx="14.5" fill="#EEF1F6"/>
<rect x="136.5" y="53" width="29" height="29" rx="14.5" fill="#EEF1F6"/>
<rect x="165.5" y="53" width="29" height="29" rx="14.5" fill="#EEF1F6"/>
<rect x="194.5" y="53" width="29" height="29" rx="14.5" fill="#EEF1F6"/>
<rect x="223.5" y="53" width="29" height="29" rx="14.5" fill="#EEF1F6"/>
<rect x="252.5" y="53" width="29" height="29" rx="14.5" fill="#EEF1F6"/>
<rect x="281.5" y="53" width="29" height="29" rx="14.5" fill="#EEF1F6"/>
<rect x="20.5" y="82" width="29" height="29" rx="14.5" fill="#0B8AFF"/>
<rect x="49.5" y="82" width="29" height="29" rx="14.5" fill="#0B8AFF"/>
<rect x="78.5" y="82" width="29" height="29" rx="14.5" fill="#0B8AFF"/>
<rect x="107.5" y="82" width="29" height="29" rx="14.5" fill="#0B8AFF"/>
<rect x="136.5" y="82" width="29" height="29" rx="14.5" fill="#0B8AFF"/>
<rect x="165.5" y="82" width="29" height="29" rx="14.5" fill="#EEF1F6"/>
<rect x="194.5" y="82" width="29" height="29" rx="14.5" fill="#EEF1F6"/>
<rect x="223.5" y="82" width="29" height="29" rx="14.5" fill="#EEF1F6"/>
<rect x="252.5" y="82" width="29" height="29" rx="14.5" fill="#EEF1F6"/>
<rect x="281.5" y="82" width="29" height="29" rx="14.5" fill="#EEF1F6"/>
<rect x="20.5" y="140" width="29" height="29" rx="14.5" fill="#0B8AFF"/>
<rect x="49.5" y="140" width="29" height="29" rx="14.5" fill="#0B8AFF"/>
<rect x="78.5" y="140" width="29" height="29" rx="14.5" fill="#0B8AFF"/>
<rect x="107.5" y="140" width="29" height="29" rx="14.5" fill="#EEF1F6"/>
<rect x="136.5" y="140" width="29" height="29" rx="14.5" fill="#EEF1F6"/>
<rect x="165.5" y="140" width="29" height="29" rx="14.5" fill="#EEF1F6"/>
<rect x="194.5" y="140" width="29" height="29" rx="14.5" fill="#EEF1F6"/>
<rect x="223.5" y="140" width="29" height="29" rx="14.5" fill="#EEF1F6"/>
<rect x="252.5" y="140" width="29" height="29" rx="14.5" fill="#EEF1F6"/>
<rect x="281.5" y="140" width="29" height="29" rx="14.5" fill="#EEF1F6"/>
<rect x="20.5" y="111" width="29" height="29" rx="14.5" fill="#0B8AFF"/>
<rect x="49.5" y="111" width="29" height="29" rx="14.5" fill="#0B8AFF"/>
<rect x="78.5" y="111" width="29" height="29" rx="14.5" fill="#0B8AFF"/>
<rect x="107.5" y="111" width="29" height="29" rx="14.5" fill="#0B8AFF"/>
<rect x="136.5" y="111" width="29" height="29" rx="14.5" fill="#0B8AFF"/>
<rect x="165.5" y="111" width="29" height="29" rx="14.5" fill="#0B8AFF"/>
<rect x="194.5" y="111" width="29" height="29" rx="14.5" fill="#0B8AFF"/>
<rect x="223.5" y="111" width="29" height="29" rx="14.5" fill="#0B8AFF"/>
<rect x="252.5" y="111" width="29" height="29" rx="14.5" fill="#0B8AFF"/>
<rect x="281.5" y="111" width="29" height="29" rx="14.5" fill="#0B8AFF"/>
<rect x="20.5" y="169" width="29" height="29" rx="14.5" fill="#0B8AFF"/>
<rect x="49.5" y="169" width="29" height="29" rx="14.5" fill="#0B8AFF"/>
<rect x="78.5" y="169" width="29" height="29" rx="14.5" fill="#0B8AFF"/>
<rect x="107.5" y="169" width="29" height="29" rx="14.5" fill="#0B8AFF"/>
<rect x="136.5" y="169" width="29" height="29" rx="14.5" fill="#EEF1F6"/>
<rect x="165.5" y="169" width="29" height="29" rx="14.5" fill="#EEF1F6"/>
<rect x="194.5" y="169" width="29" height="29" rx="14.5" fill="#EEF1F6"/>
<rect x="223.5" y="169" width="29" height="29" rx="14.5" fill="#EEF1F6"/>
<rect x="252.5" y="169" width="29" height="29" rx="14.5" fill="#EEF1F6"/>
<rect x="281.5" y="169" width="29" height="29" rx="14.5" fill="#EEF1F6"/>
<path d="M21.5043 38V27.8182H25.3224C26.1046 27.8182 26.7609 27.964 27.2912 28.2557C27.8248 28.5473 28.2275 28.9484 28.4993 29.4588C28.7744 29.9659 28.9119 30.5426 28.9119 31.1889C28.9119 31.8419 28.7744 32.4219 28.4993 32.929C28.2242 33.4361 27.8182 33.8355 27.2812 34.1271C26.7443 34.4155 26.0831 34.5597 25.2976 34.5597H22.767V33.0433H25.049C25.5064 33.0433 25.8809 32.9638 26.1726 32.8047C26.4643 32.6456 26.6797 32.4268 26.8189 32.1484C26.9614 31.87 27.0327 31.5502 27.0327 31.1889C27.0327 30.8277 26.9614 30.5095 26.8189 30.2344C26.6797 29.9593 26.4626 29.7455 26.1676 29.593C25.8759 29.4373 25.4998 29.3594 25.0391 29.3594H23.3487V38H21.5043ZM30.4345 38V30.3636H32.1795V31.6364H32.2591C32.3983 31.1955 32.6369 30.8558 32.975 30.6172C33.3163 30.3752 33.7058 30.2543 34.1433 30.2543C34.2427 30.2543 34.3538 30.2592 34.4764 30.2692C34.6023 30.2758 34.7067 30.2874 34.7896 30.304V31.9595C34.7134 31.933 34.5924 31.9098 34.4267 31.8899C34.2643 31.8667 34.1068 31.8551 33.9544 31.8551C33.6262 31.8551 33.3313 31.9264 33.0694 32.0689C32.8109 32.2081 32.6071 32.402 32.4579 32.6506C32.3088 32.8991 32.2342 33.1858 32.2342 33.5107V38H30.4345ZM39.0018 38.1491C38.256 38.1491 37.6097 37.9851 37.0629 37.657C36.516 37.3288 36.0917 36.8698 35.7901 36.2798C35.4918 35.6899 35.3427 35.0005 35.3427 34.2116C35.3427 33.4228 35.4918 32.7318 35.7901 32.1385C36.0917 31.5452 36.516 31.0845 37.0629 30.7564C37.6097 30.4283 38.256 30.2642 39.0018 30.2642C39.7475 30.2642 40.3938 30.4283 40.9407 30.7564C41.4876 31.0845 41.9102 31.5452 42.2085 32.1385C42.5101 32.7318 42.6609 33.4228 42.6609 34.2116C42.6609 35.0005 42.5101 35.6899 42.2085 36.2798C41.9102 36.8698 41.4876 37.3288 40.9407 37.657C40.3938 37.9851 39.7475 38.1491 39.0018 38.1491ZM39.0117 36.7074C39.4161 36.7074 39.7541 36.5964 40.0259 36.3743C40.2977 36.1489 40.4999 35.8473 40.6325 35.4695C40.7683 35.0916 40.8363 34.6707 40.8363 34.2067C40.8363 33.7393 40.7683 33.3168 40.6325 32.9389C40.4999 32.5578 40.2977 32.2545 40.0259 32.0291C39.7541 31.8037 39.4161 31.6911 39.0117 31.6911C38.5974 31.6911 38.2527 31.8037 37.9776 32.0291C37.7058 32.2545 37.502 32.5578 37.3661 32.9389C37.2335 33.3168 37.1673 33.7393 37.1673 34.2067C37.1673 34.6707 37.2335 35.0916 37.3661 35.4695C37.502 35.8473 37.7058 36.1489 37.9776 36.3743C38.2527 36.5964 38.5974 36.7074 39.0117 36.7074ZM47.5094 41.0227C46.8631 41.0227 46.3079 40.9349 45.8439 40.7592C45.3799 40.5869 45.007 40.3549 44.7253 40.0632C44.4436 39.7715 44.248 39.4484 44.1387 39.0938L45.7594 38.701C45.8323 38.8501 45.9384 38.9976 46.0776 39.1435C46.2168 39.2926 46.4041 39.4152 46.6394 39.5114C46.878 39.6108 47.178 39.6605 47.5392 39.6605C48.0497 39.6605 48.4722 39.5362 48.807 39.2876C49.1417 39.0424 49.3091 38.638 49.3091 38.0746V36.6278H49.2196C49.1268 36.8134 48.9909 37.004 48.812 37.1996C48.6363 37.3951 48.4026 37.5592 48.111 37.6918C47.8226 37.8243 47.4597 37.8906 47.0222 37.8906C46.4355 37.8906 45.9036 37.7531 45.4263 37.478C44.9524 37.1996 44.5745 36.7853 44.2928 36.2351C44.0144 35.6816 43.8752 34.9889 43.8752 34.157C43.8752 33.3184 44.0144 32.6108 44.2928 32.0341C44.5745 31.4541 44.954 31.0149 45.4313 30.7166C45.9086 30.415 46.4405 30.2642 47.0272 30.2642C47.4746 30.2642 47.8425 30.3404 48.1309 30.4929C48.4225 30.642 48.6545 30.8227 48.8269 31.0348C48.9992 31.2436 49.1301 31.4408 49.2196 31.6264H49.3191V30.3636H51.0939V38.1243C51.0939 38.7772 50.9382 39.3175 50.6266 39.745C50.315 40.1726 49.8891 40.4924 49.3489 40.7045C48.8087 40.9167 48.1955 41.0227 47.5094 41.0227ZM47.5243 36.4787C47.9055 36.4787 48.2303 36.3859 48.4988 36.2003C48.7672 36.0147 48.9711 35.7479 49.1103 35.3999C49.2495 35.0518 49.3191 34.6342 49.3191 34.147C49.3191 33.6664 49.2495 33.2455 49.1103 32.8842C48.9744 32.523 48.7722 32.2429 48.5037 32.044C48.2386 31.8419 47.9121 31.7408 47.5243 31.7408C47.1233 31.7408 46.7885 31.8452 46.5201 32.054C46.2516 32.2628 46.0494 32.5495 45.9135 32.9141C45.7776 33.2753 45.7097 33.6863 45.7097 34.147C45.7097 34.6143 45.7776 35.0237 45.9135 35.375C46.0527 35.723 46.2566 35.9948 46.525 36.1903C46.7968 36.3826 47.1299 36.4787 47.5243 36.4787ZM52.9384 38V30.3636H54.6834V31.6364H54.763C54.9022 31.1955 55.1408 30.8558 55.4789 30.6172C55.8203 30.3752 56.2097 30.2543 56.6472 30.2543C56.7466 30.2543 56.8577 30.2592 56.9803 30.2692C57.1062 30.2758 57.2106 30.2874 57.2935 30.304V31.9595C57.2173 31.933 57.0963 31.9098 56.9306 31.8899C56.7682 31.8667 56.6107 31.8551 56.4583 31.8551C56.1301 31.8551 55.8352 31.9264 55.5733 32.0689C55.3148 32.2081 55.111 32.402 54.9618 32.6506C54.8127 32.8991 54.7381 33.1858 54.7381 33.5107V38H52.9384ZM61.5554 38.1491C60.7898 38.1491 60.1286 37.9901 59.5717 37.6719C59.0182 37.3504 58.5923 36.8963 58.294 36.3097C57.9957 35.7197 57.8466 35.0253 57.8466 34.2266C57.8466 33.4411 57.9957 32.7517 58.294 32.1584C58.5956 31.5618 59.0166 31.0978 59.5568 30.7663C60.0971 30.4316 60.7318 30.2642 61.4609 30.2642C61.9316 30.2642 62.3757 30.3404 62.7933 30.4929C63.2143 30.642 63.5855 30.8741 63.907 31.1889C64.2318 31.5038 64.487 31.9048 64.6726 32.392C64.8582 32.8759 64.951 33.4527 64.951 34.1222V34.674H58.6918V33.4609H63.2259C63.2225 33.1162 63.148 32.8097 63.0021 32.5412C62.8563 32.2694 62.6525 32.0556 62.3906 31.8999C62.1321 31.7441 61.8305 31.6662 61.4858 31.6662C61.1179 31.6662 60.7947 31.7557 60.5163 31.9347C60.2379 32.1103 60.0208 32.3423 59.8651 32.6307C59.7126 32.9157 59.6347 33.2289 59.6314 33.5703V34.6293C59.6314 35.0734 59.7126 35.4545 59.875 35.7727C60.0374 36.0876 60.2644 36.3295 60.5561 36.4986C60.8478 36.6643 61.1892 36.7472 61.5803 36.7472C61.8421 36.7472 62.0791 36.7107 62.2912 36.6378C62.5033 36.5616 62.6873 36.4505 62.843 36.3047C62.9988 36.1589 63.1165 35.9782 63.196 35.7628L64.8764 35.9517C64.7704 36.3958 64.5682 36.7836 64.2699 37.1151C63.9749 37.4432 63.5971 37.6984 63.1364 37.8807C62.6757 38.0597 62.1487 38.1491 61.5554 38.1491ZM72.5091 32.3821L70.8684 32.5611C70.822 32.3954 70.7408 32.2396 70.6248 32.0938C70.5121 31.9479 70.3597 31.8303 70.1674 31.7408C69.9752 31.6513 69.7399 31.6065 69.4615 31.6065C69.0869 31.6065 68.7721 31.6877 68.5169 31.8501C68.265 32.0125 68.1407 32.223 68.144 32.4815C68.1407 32.7036 68.2219 32.8842 68.3876 33.0234C68.5566 33.1626 68.835 33.277 69.2228 33.3665L70.5254 33.6449C71.2479 33.8007 71.7849 34.0476 72.1362 34.3857C72.4908 34.7237 72.6698 35.1662 72.6731 35.7131C72.6698 36.1937 72.5289 36.6179 72.2505 36.9858C71.9754 37.3504 71.5926 37.6354 71.1021 37.8409C70.6116 38.0464 70.0481 38.1491 69.4118 38.1491C68.4771 38.1491 67.7247 37.9536 67.1547 37.5625C66.5846 37.1681 66.2449 36.6196 66.1355 35.9169L67.8904 35.7479C67.97 36.0926 68.139 36.3527 68.3975 36.5284C68.6561 36.7041 68.9925 36.7919 69.4068 36.7919C69.8343 36.7919 70.1774 36.7041 70.4359 36.5284C70.6977 36.3527 70.8287 36.1357 70.8287 35.8771C70.8287 35.6584 70.7441 35.4777 70.5751 35.3352C70.4094 35.1927 70.1509 35.0833 69.7995 35.0071L68.497 34.7337C67.7645 34.5812 67.2226 34.3243 66.8713 33.9631C66.5199 33.5985 66.3459 33.1378 66.3493 32.581C66.3459 32.1103 66.4735 31.7027 66.7321 31.358C66.9939 31.0099 67.3568 30.7415 67.8208 30.5526C68.2882 30.3603 68.8268 30.2642 69.4366 30.2642C70.3315 30.2642 71.0358 30.4548 71.5495 30.8359C72.0666 31.2171 72.3864 31.7325 72.5091 32.3821ZM80.1926 32.3821L78.552 32.5611C78.5056 32.3954 78.4244 32.2396 78.3084 32.0938C78.1957 31.9479 78.0433 31.8303 77.851 31.7408C77.6588 31.6513 77.4235 31.6065 77.1451 31.6065C76.7705 31.6065 76.4557 31.6877 76.2005 31.8501C75.9486 32.0125 75.8243 32.223 75.8276 32.4815C75.8243 32.7036 75.9055 32.8842 76.0712 33.0234C76.2402 33.1626 76.5186 33.277 76.9064 33.3665L78.209 33.6449C78.9315 33.8007 79.4685 34.0476 79.8198 34.3857C80.1744 34.7237 80.3534 35.1662 80.3567 35.7131C80.3534 36.1937 80.2125 36.6179 79.9341 36.9858C79.659 37.3504 79.2762 37.6354 78.7857 37.8409C78.2952 38.0464 77.7317 38.1491 77.0953 38.1491C76.1607 38.1491 75.4083 37.9536 74.8382 37.5625C74.2682 37.1681 73.9284 36.6196 73.8191 35.9169L75.574 35.7479C75.6536 36.0926 75.8226 36.3527 76.0811 36.5284C76.3397 36.7041 76.6761 36.7919 77.0904 36.7919C77.5179 36.7919 77.861 36.7041 78.1195 36.5284C78.3813 36.3527 78.5123 36.1357 78.5123 35.8771C78.5123 35.6584 78.4277 35.4777 78.2587 35.3352C78.093 35.1927 77.8345 35.0833 77.4831 35.0071L76.1806 34.7337C75.4481 34.5812 74.9062 34.3243 74.5549 33.9631C74.2035 33.5985 74.0295 33.1378 74.0328 32.581C74.0295 32.1103 74.1571 31.7027 74.4157 31.358C74.6775 31.0099 75.0404 30.7415 75.5044 30.5526C75.9718 30.3603 76.5104 30.2642 77.1202 30.2642C78.0151 30.2642 78.7194 30.4548 79.2331 30.8359C79.7502 31.2171 80.07 31.7325 80.1926 32.3821Z" fill="#161616"/>
<g clip-path="url(#clip0_1321_451)">
<path opacity="0.9" d="M20.7841 213.196V212.182H25.5625V213.196H23.7812V218H22.5653V213.196H20.7841ZM25.8736 218V213.636H27.0469V214.398H27.0923C27.1719 214.127 27.3054 213.922 27.4929 213.784C27.6804 213.644 27.8963 213.574 28.1406 213.574C28.2012 213.574 28.2666 213.578 28.3366 213.585C28.4067 213.593 28.4683 213.603 28.5213 213.616V214.69C28.4645 214.673 28.3859 214.658 28.2855 214.645C28.1851 214.632 28.0933 214.625 28.0099 214.625C27.8319 214.625 27.6728 214.664 27.5327 214.741C27.3944 214.817 27.2846 214.923 27.2031 215.06C27.1236 215.196 27.0838 215.353 27.0838 215.531V218H25.8736ZM30.2663 218.082C29.9879 218.082 29.7398 218.034 29.522 217.938C29.3042 217.839 29.1319 217.694 29.005 217.503C28.88 217.31 28.8175 217.069 28.8175 216.781C28.8175 216.539 28.862 216.335 28.951 216.17C29.04 216.006 29.1612 215.873 29.3146 215.773C29.468 215.672 29.6423 215.597 29.8374 215.545C30.0343 215.494 30.2408 215.458 30.4567 215.438C30.7105 215.411 30.915 215.386 31.0703 215.364C31.2256 215.339 31.3383 215.303 31.4084 215.256C31.4785 215.208 31.5135 215.138 31.5135 215.045V215.028C31.5135 214.848 31.4567 214.709 31.343 214.611C31.2313 214.512 31.0722 214.463 30.8658 214.463C30.648 214.463 30.4747 214.511 30.3459 214.608C30.2171 214.703 30.1319 214.822 30.0902 214.966L28.9709 214.875C29.0277 214.61 29.1394 214.381 29.3061 214.188C29.4728 213.992 29.6877 213.843 29.951 213.739C30.2161 213.633 30.523 213.58 30.8714 213.58C31.1139 213.58 31.3459 213.608 31.5675 213.665C31.791 213.722 31.9889 213.81 32.1612 213.929C32.3355 214.048 32.4728 214.202 32.5732 214.389C32.6735 214.575 32.7237 214.797 32.7237 215.057V218H31.576V217.395H31.5419C31.4718 217.531 31.3781 217.652 31.2607 217.756C31.1432 217.858 31.0021 217.938 30.8374 217.997C30.6726 218.054 30.4822 218.082 30.2663 218.082ZM30.6129 217.247C30.791 217.247 30.9482 217.212 31.0845 217.142C31.2209 217.07 31.3279 216.973 31.4055 216.852C31.4832 216.731 31.522 216.594 31.522 216.44V215.977C31.4841 216.002 31.4321 216.025 31.3658 216.045C31.3014 216.064 31.2285 216.082 31.147 216.099C31.0656 216.115 30.9841 216.129 30.9027 216.142C30.8213 216.153 30.7474 216.164 30.6811 216.173C30.5391 216.194 30.415 216.227 30.3089 216.273C30.2029 216.318 30.1205 216.38 30.0618 216.457C30.0031 216.533 29.9737 216.628 29.9737 216.741C29.9737 216.906 30.0334 217.032 30.1527 217.119C30.2739 217.205 30.4273 217.247 30.6129 217.247ZM33.6626 218V213.636H34.8729V218H33.6626ZM34.2706 213.074C34.0907 213.074 33.9363 213.014 33.8075 212.895C33.6806 212.774 33.6172 212.629 33.6172 212.46C33.6172 212.294 33.6806 212.151 33.8075 212.031C33.9363 211.91 34.0907 211.849 34.2706 211.849C34.4505 211.849 34.6039 211.91 34.7308 212.031C34.8596 212.151 34.924 212.294 34.924 212.46C34.924 212.629 34.8596 212.774 34.7308 212.895C34.6039 213.014 34.4505 213.074 34.2706 213.074ZM37.0526 215.477V218H35.8423V213.636H36.9957V214.406H37.0469C37.1435 214.152 37.3054 213.952 37.5327 213.804C37.7599 213.654 38.0355 213.58 38.3594 213.58C38.6624 213.58 38.9266 213.646 39.152 213.778C39.3774 213.911 39.5526 214.1 39.6776 214.347C39.8026 214.591 39.8651 214.883 39.8651 215.222V218H38.6548V215.438C38.6567 215.17 38.5885 214.962 38.4503 214.812C38.312 214.661 38.1217 214.585 37.8793 214.585C37.7164 214.585 37.5724 214.62 37.4474 214.69C37.3243 214.76 37.2277 214.863 37.1577 214.997C37.0895 215.13 37.0545 215.29 37.0526 215.477ZM42.8075 218.085C42.3587 218.085 41.9723 217.994 41.6484 217.812C41.3265 217.629 41.0784 217.369 40.9041 217.034C40.7299 216.697 40.6428 216.298 40.6428 215.838C40.6428 215.389 40.7299 214.995 40.9041 214.656C41.0784 214.317 41.3236 214.053 41.6399 213.864C41.9581 213.674 42.3312 213.58 42.7592 213.58C43.0471 213.58 43.3151 213.626 43.5632 213.719C43.8132 213.81 44.031 213.947 44.2166 214.131C44.4041 214.314 44.55 214.545 44.6541 214.824C44.7583 215.1 44.8104 215.424 44.8104 215.795V216.128H41.1257V215.378H43.6712C43.6712 215.204 43.6333 215.049 43.5575 214.915C43.4818 214.78 43.3767 214.675 43.2422 214.599C43.1096 214.522 42.9553 214.483 42.7791 214.483C42.5954 214.483 42.4325 214.526 42.2905 214.611C42.1503 214.694 42.0405 214.807 41.9609 214.949C41.8814 215.089 41.8407 215.245 41.8388 215.418V216.131C41.8388 216.347 41.8786 216.533 41.9581 216.69C42.0395 216.848 42.1541 216.969 42.3018 217.054C42.4496 217.139 42.6248 217.182 42.8274 217.182C42.9619 217.182 43.085 217.163 43.1967 217.125C43.3085 217.087 43.4041 217.03 43.4837 216.955C43.5632 216.879 43.6238 216.786 43.6655 216.676L44.7848 216.75C44.728 217.019 44.6115 217.254 44.4354 217.455C44.2611 217.653 44.0357 217.809 43.7592 217.92C43.4846 218.03 43.1674 218.085 42.8075 218.085ZM47.5888 218.085C47.1399 218.085 46.7536 217.994 46.4297 217.812C46.1077 217.629 45.8596 217.369 45.6854 217.034C45.5111 216.697 45.424 216.298 45.424 215.838C45.424 215.389 45.5111 214.995 45.6854 214.656C45.8596 214.317 46.1049 214.053 46.4212 213.864C46.7393 213.674 47.1125 213.58 47.5405 213.58C47.8284 213.58 48.0964 213.626 48.3445 213.719C48.5945 213.81 48.8123 213.947 48.9979 214.131C49.1854 214.314 49.3312 214.545 49.4354 214.824C49.5395 215.1 49.5916 215.424 49.5916 215.795V216.128H45.907V215.378H48.4524C48.4524 215.204 48.4145 215.049 48.3388 214.915C48.263 214.78 48.1579 214.675 48.0234 214.599C47.8909 214.522 47.7365 214.483 47.5604 214.483C47.3767 214.483 47.2138 214.526 47.0717 214.611C46.9316 214.694 46.8217 214.807 46.7422 214.949C46.6626 215.089 46.6219 215.245 46.62 215.418V216.131C46.62 216.347 46.6598 216.533 46.7393 216.69C46.8208 216.848 46.9354 216.969 47.0831 217.054C47.2308 217.139 47.406 217.182 47.6087 217.182C47.7431 217.182 47.8662 217.163 47.978 217.125C48.0897 217.087 48.1854 217.03 48.2649 216.955C48.3445 216.879 48.4051 216.786 48.4467 216.676L49.5661 216.75C49.5092 217.019 49.3928 217.254 49.2166 217.455C49.0424 217.653 48.817 217.809 48.5405 217.92C48.2659 218.03 47.9486 218.085 47.5888 218.085Z" fill="black"/>
<path opacity="0.9" d="M149.239 218.08C148.815 218.08 148.437 218.007 148.105 217.861C147.776 217.713 147.516 217.51 147.324 217.253C147.135 216.993 147.037 216.694 147.032 216.355H148.27C148.278 216.497 148.324 216.622 148.409 216.73C148.497 216.836 148.612 216.919 148.756 216.977C148.9 217.036 149.062 217.065 149.242 217.065C149.429 217.065 149.595 217.032 149.739 216.966C149.883 216.9 149.996 216.808 150.077 216.69C150.159 216.573 150.199 216.437 150.199 216.284C150.199 216.129 150.156 215.991 150.069 215.872C149.983 215.751 149.86 215.656 149.699 215.588C149.54 215.52 149.351 215.486 149.131 215.486H148.588V214.582H149.131C149.317 214.582 149.48 214.55 149.623 214.486C149.766 214.421 149.878 214.332 149.958 214.219C150.037 214.103 150.077 213.969 150.077 213.815C150.077 213.67 150.042 213.542 149.972 213.432C149.904 213.32 149.807 213.233 149.682 213.17C149.559 213.108 149.415 213.077 149.25 213.077C149.084 213.077 148.931 213.107 148.793 213.168C148.655 213.226 148.544 213.311 148.461 213.42C148.377 213.53 148.333 213.659 148.327 213.807H147.148C147.154 213.472 147.249 213.176 147.435 212.92C147.621 212.665 147.871 212.465 148.185 212.321C148.501 212.175 148.858 212.102 149.256 212.102C149.658 212.102 150.009 212.175 150.31 212.321C150.611 212.467 150.845 212.664 151.012 212.912C151.18 213.158 151.264 213.435 151.262 213.741C151.264 214.067 151.162 214.339 150.958 214.557C150.755 214.775 150.491 214.913 150.165 214.972V215.017C150.593 215.072 150.919 215.221 151.142 215.463C151.368 215.704 151.48 216.005 151.478 216.366C151.48 216.698 151.384 216.992 151.191 217.25C150.999 217.508 150.735 217.71 150.398 217.858C150.061 218.006 149.675 218.08 149.239 218.08ZM155.092 214.611V215.571H152.439V214.611H155.092ZM158.237 218.08C157.835 218.08 157.477 218.006 157.163 217.858C156.851 217.71 156.602 217.507 156.419 217.247C156.235 216.988 156.139 216.69 156.132 216.355H157.325C157.338 216.58 157.433 216.763 157.609 216.903C157.785 217.044 157.994 217.114 158.237 217.114C158.43 217.114 158.601 217.071 158.748 216.986C158.898 216.899 159.014 216.778 159.098 216.625C159.183 216.47 159.226 216.292 159.226 216.091C159.226 215.886 159.182 215.706 159.095 215.551C159.01 215.396 158.891 215.275 158.74 215.188C158.588 215.1 158.415 215.056 158.22 215.054C158.049 215.054 157.884 215.089 157.723 215.159C157.564 215.229 157.44 215.325 157.351 215.446L156.257 215.25L156.532 212.182H160.089V213.188H157.547L157.396 214.645H157.43C157.532 214.501 157.687 214.382 157.893 214.287C158.1 214.192 158.331 214.145 158.586 214.145C158.937 214.145 159.249 214.227 159.524 214.392C159.798 214.557 160.015 214.783 160.174 215.071C160.333 215.357 160.412 215.687 160.41 216.06C160.412 216.452 160.321 216.8 160.137 217.105C159.956 217.408 159.701 217.647 159.373 217.821C159.047 217.993 158.669 218.08 158.237 218.08ZM163.878 219.636C163.725 219.636 163.581 219.624 163.446 219.599C163.314 219.577 163.204 219.547 163.117 219.511L163.39 218.608C163.532 218.652 163.659 218.675 163.773 218.679C163.889 218.683 163.988 218.656 164.071 218.599C164.157 218.543 164.226 218.446 164.279 218.31L164.35 218.125L162.784 213.636H164.057L164.961 216.841H165.006L165.918 213.636H167.199L165.503 218.472C165.422 218.706 165.311 218.911 165.171 219.085C165.033 219.261 164.857 219.397 164.645 219.491C164.433 219.588 164.177 219.636 163.878 219.636ZM169.667 218.085C169.218 218.085 168.831 217.994 168.507 217.812C168.186 217.629 167.937 217.369 167.763 217.034C167.589 216.697 167.502 216.298 167.502 215.838C167.502 215.389 167.589 214.995 167.763 214.656C167.937 214.317 168.183 214.053 168.499 213.864C168.817 213.674 169.19 213.58 169.618 213.58C169.906 213.58 170.174 213.626 170.422 213.719C170.672 213.81 170.89 213.947 171.076 214.131C171.263 214.314 171.409 214.545 171.513 214.824C171.617 215.1 171.669 215.424 171.669 215.795V216.128H167.985V215.378H170.53C170.53 215.204 170.492 215.049 170.417 214.915C170.341 214.78 170.236 214.675 170.101 214.599C169.969 214.522 169.814 214.483 169.638 214.483C169.454 214.483 169.292 214.526 169.15 214.611C169.009 214.694 168.9 214.807 168.82 214.949C168.74 215.089 168.7 215.245 168.698 215.418V216.131C168.698 216.347 168.738 216.533 168.817 216.69C168.899 216.848 169.013 216.969 169.161 217.054C169.309 217.139 169.484 217.182 169.686 217.182C169.821 217.182 169.944 217.163 170.056 217.125C170.168 217.087 170.263 217.03 170.343 216.955C170.422 216.879 170.483 216.786 170.525 216.676L171.644 216.75C171.587 217.019 171.471 217.254 171.294 217.455C171.12 217.653 170.895 217.809 170.618 217.92C170.344 218.03 170.026 218.085 169.667 218.085ZM173.704 218.082C173.425 218.082 173.177 218.034 172.959 217.938C172.741 217.839 172.569 217.694 172.442 217.503C172.317 217.31 172.255 217.069 172.255 216.781C172.255 216.539 172.299 216.335 172.388 216.17C172.477 216.006 172.598 215.873 172.752 215.773C172.905 215.672 173.079 215.597 173.275 215.545C173.471 215.494 173.678 215.458 173.894 215.438C174.148 215.411 174.352 215.386 174.507 215.364C174.663 215.339 174.775 215.303 174.846 215.256C174.916 215.208 174.951 215.138 174.951 215.045V215.028C174.951 214.848 174.894 214.709 174.78 214.611C174.668 214.512 174.509 214.463 174.303 214.463C174.085 214.463 173.912 214.511 173.783 214.608C173.654 214.703 173.569 214.822 173.527 214.966L172.408 214.875C172.465 214.61 172.577 214.381 172.743 214.188C172.91 213.992 173.125 213.843 173.388 213.739C173.653 213.633 173.96 213.58 174.309 213.58C174.551 213.58 174.783 213.608 175.005 213.665C175.228 213.722 175.426 213.81 175.598 213.929C175.773 214.048 175.91 214.202 176.01 214.389C176.111 214.575 176.161 214.797 176.161 215.057V218H175.013V217.395H174.979C174.909 217.531 174.815 217.652 174.698 217.756C174.58 217.858 174.439 217.938 174.275 217.997C174.11 218.054 173.919 218.082 173.704 218.082ZM174.05 217.247C174.228 217.247 174.385 217.212 174.522 217.142C174.658 217.07 174.765 216.973 174.843 216.852C174.92 216.731 174.959 216.594 174.959 216.44V215.977C174.921 216.002 174.869 216.025 174.803 216.045C174.739 216.064 174.666 216.082 174.584 216.099C174.503 216.115 174.421 216.129 174.34 216.142C174.258 216.153 174.185 216.164 174.118 216.173C173.976 216.194 173.852 216.227 173.746 216.273C173.64 216.318 173.558 216.38 173.499 216.457C173.44 216.533 173.411 216.628 173.411 216.741C173.411 216.906 173.471 217.032 173.59 217.119C173.711 217.205 173.864 217.247 174.05 217.247ZM177.1 218V213.636H178.273V214.398H178.319C178.398 214.127 178.532 213.922 178.719 213.784C178.907 213.644 179.123 213.574 179.367 213.574C179.427 213.574 179.493 213.578 179.563 213.585C179.633 213.593 179.695 213.603 179.748 213.616V214.69C179.691 214.673 179.612 214.658 179.512 214.645C179.411 214.632 179.32 214.625 179.236 214.625C179.058 214.625 178.899 214.664 178.759 214.741C178.621 214.817 178.511 214.923 178.429 215.06C178.35 215.196 178.31 215.353 178.31 215.531V218H177.1ZM184.004 214.881L182.896 214.949C182.877 214.854 182.836 214.769 182.774 214.693C182.711 214.616 182.629 214.554 182.527 214.509C182.426 214.461 182.306 214.438 182.166 214.438C181.978 214.438 181.82 214.477 181.691 214.557C181.563 214.634 181.498 214.739 181.498 214.869C181.498 214.973 181.54 215.062 181.623 215.134C181.707 215.205 181.85 215.263 182.052 215.307L182.842 215.466C183.266 215.553 183.583 215.693 183.791 215.886C183.999 216.08 184.103 216.333 184.103 216.648C184.103 216.934 184.019 217.185 183.851 217.401C183.684 217.616 183.455 217.785 183.163 217.906C182.873 218.026 182.539 218.085 182.16 218.085C181.583 218.085 181.122 217.965 180.78 217.724C180.439 217.482 180.239 217.152 180.18 216.736L181.37 216.673C181.406 216.849 181.494 216.984 181.632 217.077C181.77 217.168 181.947 217.213 182.163 217.213C182.375 217.213 182.546 217.172 182.674 217.091C182.805 217.008 182.871 216.901 182.873 216.77C182.871 216.66 182.825 216.57 182.734 216.5C182.643 216.428 182.503 216.373 182.314 216.335L181.558 216.185C181.132 216.099 180.815 215.952 180.606 215.741C180.4 215.531 180.297 215.263 180.297 214.938C180.297 214.657 180.372 214.416 180.524 214.213C180.677 214.01 180.892 213.854 181.169 213.744C181.447 213.634 181.773 213.58 182.146 213.58C182.697 213.58 183.131 213.696 183.447 213.929C183.765 214.162 183.951 214.479 184.004 214.881Z" fill="black"/>
<path opacity="0.9" d="M278.917 218.08C278.516 218.08 278.158 218.006 277.843 217.858C277.531 217.71 277.283 217.507 277.099 217.247C276.915 216.988 276.82 216.69 276.812 216.355H278.005C278.019 216.58 278.113 216.763 278.289 216.903C278.466 217.044 278.675 217.114 278.917 217.114C279.11 217.114 279.281 217.071 279.429 216.986C279.578 216.899 279.695 216.778 279.778 216.625C279.863 216.47 279.906 216.292 279.906 216.091C279.906 215.886 279.862 215.706 279.775 215.551C279.69 215.396 279.572 215.275 279.42 215.188C279.269 215.1 279.095 215.056 278.9 215.054C278.73 215.054 278.564 215.089 278.403 215.159C278.244 215.229 278.12 215.325 278.031 215.446L276.937 215.25L277.213 212.182H280.769V213.188H278.227L278.076 214.645H278.11C278.213 214.501 278.367 214.382 278.573 214.287C278.78 214.192 279.011 214.145 279.267 214.145C279.617 214.145 279.93 214.227 280.204 214.392C280.479 214.557 280.696 214.783 280.855 215.071C281.014 215.357 281.092 215.687 281.091 216.06C281.092 216.452 281.002 216.8 280.818 217.105C280.636 217.408 280.381 217.647 280.054 217.821C279.728 217.993 279.349 218.08 278.917 218.08ZM283.687 217.114V213.091H284.704V217.114H283.687ZM282.184 215.611V214.594H286.207V215.611H282.184ZM289.996 219.636C289.843 219.636 289.699 219.624 289.564 219.599C289.432 219.577 289.322 219.547 289.235 219.511L289.507 218.608C289.649 218.652 289.777 218.675 289.891 218.679C290.006 218.683 290.106 218.656 290.189 218.599C290.274 218.543 290.344 218.446 290.397 218.31L290.468 218.125L288.902 213.636H290.175L291.078 216.841H291.124L292.036 213.636H293.317L291.621 218.472C291.54 218.706 291.429 218.911 291.289 219.085C291.15 219.261 290.975 219.397 290.763 219.491C290.551 219.588 290.295 219.636 289.996 219.636ZM295.784 218.085C295.336 218.085 294.949 217.994 294.625 217.812C294.303 217.629 294.055 217.369 293.881 217.034C293.707 216.697 293.62 216.298 293.62 215.838C293.62 215.389 293.707 214.995 293.881 214.656C294.055 214.317 294.301 214.053 294.617 213.864C294.935 213.674 295.308 213.58 295.736 213.58C296.024 213.58 296.292 213.626 296.54 213.719C296.79 213.81 297.008 213.947 297.194 214.131C297.381 214.314 297.527 214.545 297.631 214.824C297.735 215.1 297.787 215.424 297.787 215.795V216.128H294.103V215.378H296.648C296.648 215.204 296.61 215.049 296.534 214.915C296.459 214.78 296.354 214.675 296.219 214.599C296.086 214.522 295.932 214.483 295.756 214.483C295.572 214.483 295.409 214.526 295.267 214.611C295.127 214.694 295.017 214.807 294.938 214.949C294.858 215.089 294.818 215.245 294.816 215.418V216.131C294.816 216.347 294.855 216.533 294.935 216.69C295.016 216.848 295.131 216.969 295.279 217.054C295.426 217.139 295.602 217.182 295.804 217.182C295.939 217.182 296.062 217.163 296.174 217.125C296.285 217.087 296.381 217.03 296.461 216.955C296.54 216.879 296.601 216.786 296.642 216.676L297.762 216.75C297.705 217.019 297.588 217.254 297.412 217.455C297.238 217.653 297.013 217.809 296.736 217.92C296.461 218.03 296.144 218.085 295.784 218.085ZM299.821 218.082C299.543 218.082 299.295 218.034 299.077 217.938C298.859 217.839 298.687 217.694 298.56 217.503C298.435 217.31 298.372 217.069 298.372 216.781C298.372 216.539 298.417 216.335 298.506 216.17C298.595 216.006 298.716 215.873 298.87 215.773C299.023 215.672 299.197 215.597 299.392 215.545C299.589 215.494 299.796 215.458 300.012 215.438C300.265 215.411 300.47 215.386 300.625 215.364C300.781 215.339 300.893 215.303 300.963 215.256C301.033 215.208 301.069 215.138 301.069 215.045V215.028C301.069 214.848 301.012 214.709 300.898 214.611C300.786 214.512 300.627 214.463 300.421 214.463C300.203 214.463 300.03 214.511 299.901 214.608C299.772 214.703 299.687 214.822 299.645 214.966L298.526 214.875C298.583 214.61 298.694 214.381 298.861 214.188C299.028 213.992 299.243 213.843 299.506 213.739C299.771 213.633 300.078 213.58 300.426 213.58C300.669 213.58 300.901 213.608 301.122 213.665C301.346 213.722 301.544 213.81 301.716 213.929C301.89 214.048 302.028 214.202 302.128 214.389C302.229 214.575 302.279 214.797 302.279 215.057V218H301.131V217.395H301.097C301.027 217.531 300.933 217.652 300.816 217.756C300.698 217.858 300.557 217.938 300.392 217.997C300.228 218.054 300.037 218.082 299.821 218.082ZM300.168 217.247C300.346 217.247 300.503 217.212 300.64 217.142C300.776 217.07 300.883 216.973 300.961 216.852C301.038 216.731 301.077 216.594 301.077 216.44V215.977C301.039 216.002 300.987 216.025 300.921 216.045C300.856 216.064 300.783 216.082 300.702 216.099C300.621 216.115 300.539 216.129 300.458 216.142C300.376 216.153 300.302 216.164 300.236 216.173C300.094 216.194 299.97 216.227 299.864 216.273C299.758 216.318 299.676 216.38 299.617 216.457C299.558 216.533 299.529 216.628 299.529 216.741C299.529 216.906 299.588 217.032 299.708 217.119C299.829 217.205 299.982 217.247 300.168 217.247ZM303.218 218V213.636H304.391V214.398H304.436C304.516 214.127 304.649 213.922 304.837 213.784C305.024 213.644 305.24 213.574 305.485 213.574C305.545 213.574 305.611 213.578 305.681 213.585C305.751 213.593 305.812 213.603 305.865 213.616V214.69C305.809 214.673 305.73 214.658 305.63 214.645C305.529 214.632 305.437 214.625 305.354 214.625C305.176 214.625 305.017 214.664 304.877 214.741C304.738 214.817 304.629 214.923 304.547 215.06C304.468 215.196 304.428 215.353 304.428 215.531V218H303.218ZM310.122 214.881L309.014 214.949C308.995 214.854 308.954 214.769 308.892 214.693C308.829 214.616 308.747 214.554 308.644 214.509C308.544 214.461 308.424 214.438 308.284 214.438C308.096 214.438 307.938 214.477 307.809 214.557C307.68 214.634 307.616 214.739 307.616 214.869C307.616 214.973 307.658 215.062 307.741 215.134C307.824 215.205 307.967 215.263 308.17 215.307L308.96 215.466C309.384 215.553 309.7 215.693 309.909 215.886C310.117 216.08 310.221 216.333 310.221 216.648C310.221 216.934 310.137 217.185 309.968 217.401C309.802 217.616 309.573 217.785 309.281 217.906C308.991 218.026 308.657 218.085 308.278 218.085C307.7 218.085 307.24 217.965 306.897 217.724C306.556 217.482 306.357 217.152 306.298 216.736L307.488 216.673C307.524 216.849 307.611 216.984 307.75 217.077C307.888 217.168 308.065 217.213 308.281 217.213C308.493 217.213 308.663 217.172 308.792 217.091C308.923 217.008 308.989 216.901 308.991 216.77C308.989 216.66 308.943 216.57 308.852 216.5C308.761 216.428 308.621 216.373 308.431 216.335L307.676 216.185C307.25 216.099 306.932 215.952 306.724 215.741C306.518 215.531 306.414 215.263 306.414 214.938C306.414 214.657 306.49 214.416 306.642 214.213C306.795 214.01 307.01 213.854 307.287 213.744C307.565 213.634 307.891 213.58 308.264 213.58C308.815 213.58 309.249 213.696 309.565 213.929C309.883 214.162 310.069 214.479 310.122 214.881Z" fill="black"/>
</g>
<path opacity="0.9" d="M341.246 64H342.695V69.2266C342.695 69.7995 342.56 70.3034 342.289 70.7383C342.021 71.1732 341.643 71.513 341.156 71.7578C340.669 72 340.1 72.1211 339.449 72.1211C338.796 72.1211 338.225 72 337.738 71.7578C337.251 71.513 336.874 71.1732 336.605 70.7383C336.337 70.3034 336.203 69.7995 336.203 69.2266V64H337.652V69.1055C337.652 69.4388 337.725 69.7357 337.871 69.9961C338.02 70.2565 338.228 70.4609 338.496 70.6094C338.764 70.7552 339.082 70.8281 339.449 70.8281C339.816 70.8281 340.134 70.7552 340.402 70.6094C340.673 70.4609 340.882 70.2565 341.027 69.9961C341.173 69.7357 341.246 69.4388 341.246 69.1055V64ZM345.72 64V72H344.271V64H345.72Z" fill="black"/>
<path opacity="0.9" d="M340.67 93H342.119V98.2266C342.119 98.7995 341.984 99.3034 341.713 99.7383C341.445 100.173 341.067 100.513 340.58 100.758C340.093 101 339.524 101.121 338.873 101.121C338.219 101.121 337.649 101 337.162 100.758C336.675 100.513 336.298 100.173 336.029 99.7383C335.761 99.3034 335.627 98.7995 335.627 98.2266V93H337.076V98.1055C337.076 98.4388 337.149 98.7357 337.295 98.9961C337.443 99.2565 337.652 99.4609 337.92 99.6094C338.188 99.7552 338.506 99.8281 338.873 99.8281C339.24 99.8281 339.558 99.7552 339.826 99.6094C340.097 99.4609 340.305 99.2565 340.451 98.9961C340.597 98.7357 340.67 98.4388 340.67 98.1055V93ZM344.905 93L346.667 95.9297H346.729L348.499 93H350.151L347.687 97L350.19 101H348.511L346.729 98.0898H346.667L344.886 101H343.214L345.741 97L343.245 93H344.905Z" fill="black"/>
<path opacity="0.9" d="M338.886 130H336.175V122H338.94C339.735 122 340.417 122.16 340.987 122.48C341.56 122.798 342 123.255 342.308 123.852C342.615 124.448 342.769 125.161 342.769 125.992C342.769 126.826 342.614 127.542 342.304 128.141C341.996 128.74 341.552 129.199 340.972 129.52C340.394 129.84 339.698 130 338.886 130ZM337.624 128.746H338.815C339.373 128.746 339.838 128.645 340.21 128.441C340.582 128.236 340.862 127.93 341.05 127.523C341.237 127.115 341.331 126.604 341.331 125.992C341.331 125.38 341.237 124.872 341.05 124.469C340.862 124.062 340.585 123.759 340.218 123.559C339.853 123.355 339.4 123.254 338.858 123.254H337.624V128.746ZM348.493 124.199C348.457 123.858 348.303 123.592 348.032 123.402C347.764 123.212 347.415 123.117 346.985 123.117C346.683 123.117 346.424 123.163 346.208 123.254C345.992 123.345 345.826 123.469 345.712 123.625C345.597 123.781 345.539 123.96 345.536 124.16C345.536 124.327 345.574 124.471 345.649 124.594C345.728 124.716 345.833 124.82 345.966 124.906C346.099 124.99 346.246 125.06 346.407 125.117C346.569 125.174 346.731 125.223 346.896 125.262L347.646 125.449C347.948 125.52 348.238 125.615 348.517 125.734C348.798 125.854 349.049 126.005 349.271 126.188C349.494 126.37 349.672 126.59 349.802 126.848C349.932 127.105 349.997 127.408 349.997 127.754C349.997 128.223 349.877 128.635 349.638 128.992C349.398 129.346 349.052 129.624 348.599 129.824C348.148 130.022 347.603 130.121 346.962 130.121C346.34 130.121 345.799 130.025 345.341 129.832C344.885 129.639 344.528 129.358 344.271 128.988C344.015 128.618 343.877 128.168 343.856 127.637H345.282C345.303 127.915 345.389 128.147 345.54 128.332C345.691 128.517 345.888 128.655 346.13 128.746C346.375 128.837 346.648 128.883 346.95 128.883C347.265 128.883 347.541 128.836 347.778 128.742C348.018 128.646 348.205 128.513 348.341 128.344C348.476 128.172 348.545 127.971 348.548 127.742C348.545 127.534 348.484 127.362 348.364 127.227C348.244 127.089 348.076 126.974 347.86 126.883C347.647 126.789 347.397 126.706 347.11 126.633L346.2 126.398C345.541 126.229 345.021 125.973 344.638 125.629C344.257 125.283 344.067 124.823 344.067 124.25C344.067 123.779 344.195 123.366 344.45 123.012C344.708 122.658 345.058 122.383 345.501 122.187C345.944 121.99 346.445 121.891 347.005 121.891C347.573 121.891 348.07 121.99 348.497 122.187C348.927 122.383 349.264 122.655 349.509 123.004C349.754 123.35 349.88 123.749 349.888 124.199H348.493Z" fill="black"/>
<path opacity="0.9" d="M335.949 159V151H337.398V154.387H341.105V151H342.559V159H341.105V155.602H337.398V159H335.949ZM344.135 159V151H347.135C347.749 151 348.265 151.107 348.682 151.32C349.101 151.534 349.417 151.833 349.631 152.219C349.847 152.602 349.955 153.048 349.955 153.559C349.955 154.072 349.846 154.517 349.627 154.895C349.411 155.27 349.092 155.56 348.67 155.766C348.248 155.969 347.73 156.07 347.115 156.07H344.979V154.867H346.92C347.279 154.867 347.574 154.818 347.803 154.719C348.032 154.617 348.201 154.47 348.311 154.277C348.423 154.082 348.479 153.842 348.479 153.559C348.479 153.275 348.423 153.033 348.311 152.832C348.199 152.629 348.028 152.475 347.799 152.371C347.57 152.264 347.274 152.211 346.912 152.211H345.584V159H344.135ZM348.268 155.375L350.248 159H348.631L346.686 155.375H348.268Z" fill="black"/>
<path opacity="0.9" d="M339.21 185.312H340.522L341.3 186.32L341.854 186.977L343.187 188.688H341.78L340.874 187.539L340.487 186.992L339.21 185.312ZM343.378 184C343.378 184.862 343.216 185.6 342.894 186.215C342.573 186.827 342.136 187.296 341.581 187.621C341.029 187.947 340.403 188.109 339.702 188.109C339.002 188.109 338.374 187.947 337.819 187.621C337.267 187.293 336.83 186.823 336.507 186.211C336.187 185.596 336.026 184.859 336.026 184C336.026 183.138 336.187 182.401 336.507 181.789C336.83 181.174 337.267 180.704 337.819 180.379C338.374 180.053 339.002 179.891 339.702 179.891C340.403 179.891 341.029 180.053 341.581 180.379C342.136 180.704 342.573 181.174 342.894 181.789C343.216 182.401 343.378 183.138 343.378 184ZM341.921 184C341.921 183.393 341.826 182.882 341.636 182.465C341.448 182.046 341.188 181.729 340.854 181.516C340.521 181.299 340.137 181.191 339.702 181.191C339.267 181.191 338.883 181.299 338.55 181.516C338.216 181.729 337.955 182.046 337.765 182.465C337.577 182.882 337.483 183.393 337.483 184C337.483 184.607 337.577 185.12 337.765 185.539C337.955 185.956 338.216 186.272 338.55 186.488C338.883 186.702 339.267 186.809 339.702 186.809C340.137 186.809 340.521 186.702 340.854 186.488C341.188 186.272 341.448 185.956 341.636 185.539C341.826 185.12 341.921 184.607 341.921 184ZM345.356 188H343.81L346.626 180H348.415L351.235 188H349.688L347.552 181.641H347.489L345.356 188ZM345.407 184.863H349.626V186.027H345.407V184.863Z" fill="black"/>
<defs>
<clipPath id="clip0_1321_451">
<rect width="290" height="10" fill="white" transform="translate(20.5 210)"/>
</clipPath>
</defs>
</svg>
