<svg width="372" height="234" viewBox="0 0 372 234" fill="none" xmlns="http://www.w3.org/2000/svg">
<rect width="371" height="234" transform="translate(0.5)" fill="white"/>
<path d="M21.5043 38V27.8182H25.3224C26.1046 27.8182 26.7609 27.964 27.2912 28.2557C27.8248 28.5473 28.2275 28.9484 28.4993 29.4588C28.7744 29.9659 28.9119 30.5426 28.9119 31.1889C28.9119 31.8419 28.7744 32.4219 28.4993 32.929C28.2242 33.4361 27.8182 33.8355 27.2812 34.1271C26.7443 34.4155 26.0831 34.5597 25.2976 34.5597H22.767V33.0433H25.049C25.5064 33.0433 25.8809 32.9638 26.1726 32.8047C26.4643 32.6456 26.6797 32.4268 26.8189 32.1484C26.9614 31.87 27.0327 31.5502 27.0327 31.1889C27.0327 30.8277 26.9614 30.5095 26.8189 30.2344C26.6797 29.9593 26.4626 29.7455 26.1676 29.593C25.8759 29.4373 25.4998 29.3594 25.0391 29.3594H23.3487V38H21.5043ZM30.4345 38V30.3636H32.1795V31.6364H32.2591C32.3983 31.1955 32.6369 30.8558 32.975 30.6172C33.3163 30.3752 33.7058 30.2543 34.1433 30.2543C34.2427 30.2543 34.3538 30.2592 34.4764 30.2692C34.6023 30.2758 34.7067 30.2874 34.7896 30.304V31.9595C34.7134 31.933 34.5924 31.9098 34.4267 31.8899C34.2643 31.8667 34.1068 31.8551 33.9544 31.8551C33.6262 31.8551 33.3313 31.9264 33.0694 32.0689C32.8109 32.2081 32.6071 32.402 32.4579 32.6506C32.3088 32.8991 32.2342 33.1858 32.2342 33.5107V38H30.4345ZM39.0018 38.1491C38.256 38.1491 37.6097 37.9851 37.0629 37.657C36.516 37.3288 36.0917 36.8698 35.7901 36.2798C35.4918 35.6899 35.3427 35.0005 35.3427 34.2116C35.3427 33.4228 35.4918 32.7318 35.7901 32.1385C36.0917 31.5452 36.516 31.0845 37.0629 30.7564C37.6097 30.4283 38.256 30.2642 39.0018 30.2642C39.7475 30.2642 40.3938 30.4283 40.9407 30.7564C41.4876 31.0845 41.9102 31.5452 42.2085 32.1385C42.5101 32.7318 42.6609 33.4228 42.6609 34.2116C42.6609 35.0005 42.5101 35.6899 42.2085 36.2798C41.9102 36.8698 41.4876 37.3288 40.9407 37.657C40.3938 37.9851 39.7475 38.1491 39.0018 38.1491ZM39.0117 36.7074C39.4161 36.7074 39.7541 36.5964 40.0259 36.3743C40.2977 36.1489 40.4999 35.8473 40.6325 35.4695C40.7683 35.0916 40.8363 34.6707 40.8363 34.2067C40.8363 33.7393 40.7683 33.3168 40.6325 32.9389C40.4999 32.5578 40.2977 32.2545 40.0259 32.0291C39.7541 31.8037 39.4161 31.6911 39.0117 31.6911C38.5974 31.6911 38.2527 31.8037 37.9776 32.0291C37.7058 32.2545 37.502 32.5578 37.3661 32.9389C37.2335 33.3168 37.1673 33.7393 37.1673 34.2067C37.1673 34.6707 37.2335 35.0916 37.3661 35.4695C37.502 35.8473 37.7058 36.1489 37.9776 36.3743C38.2527 36.5964 38.5974 36.7074 39.0117 36.7074ZM47.5094 41.0227C46.8631 41.0227 46.3079 40.9349 45.8439 40.7592C45.3799 40.5869 45.007 40.3549 44.7253 40.0632C44.4436 39.7715 44.248 39.4484 44.1387 39.0938L45.7594 38.701C45.8323 38.8501 45.9384 38.9976 46.0776 39.1435C46.2168 39.2926 46.4041 39.4152 46.6394 39.5114C46.878 39.6108 47.178 39.6605 47.5392 39.6605C48.0497 39.6605 48.4722 39.5362 48.807 39.2876C49.1417 39.0424 49.3091 38.638 49.3091 38.0746V36.6278H49.2196C49.1268 36.8134 48.9909 37.004 48.812 37.1996C48.6363 37.3951 48.4026 37.5592 48.111 37.6918C47.8226 37.8243 47.4597 37.8906 47.0222 37.8906C46.4355 37.8906 45.9036 37.7531 45.4263 37.478C44.9524 37.1996 44.5745 36.7853 44.2928 36.2351C44.0144 35.6816 43.8752 34.9889 43.8752 34.157C43.8752 33.3184 44.0144 32.6108 44.2928 32.0341C44.5745 31.4541 44.954 31.0149 45.4313 30.7166C45.9086 30.415 46.4405 30.2642 47.0272 30.2642C47.4746 30.2642 47.8425 30.3404 48.1309 30.4929C48.4225 30.642 48.6545 30.8227 48.8269 31.0348C48.9992 31.2436 49.1301 31.4408 49.2196 31.6264H49.3191V30.3636H51.0939V38.1243C51.0939 38.7772 50.9382 39.3175 50.6266 39.745C50.315 40.1726 49.8891 40.4924 49.3489 40.7045C48.8087 40.9167 48.1955 41.0227 47.5094 41.0227ZM47.5243 36.4787C47.9055 36.4787 48.2303 36.3859 48.4988 36.2003C48.7672 36.0147 48.9711 35.7479 49.1103 35.3999C49.2495 35.0518 49.3191 34.6342 49.3191 34.147C49.3191 33.6664 49.2495 33.2455 49.1103 32.8842C48.9744 32.523 48.7722 32.2429 48.5037 32.044C48.2386 31.8419 47.9121 31.7408 47.5243 31.7408C47.1233 31.7408 46.7885 31.8452 46.5201 32.054C46.2516 32.2628 46.0494 32.5495 45.9135 32.9141C45.7776 33.2753 45.7097 33.6863 45.7097 34.147C45.7097 34.6143 45.7776 35.0237 45.9135 35.375C46.0527 35.723 46.2566 35.9948 46.525 36.1903C46.7968 36.3826 47.1299 36.4787 47.5243 36.4787ZM52.9384 38V30.3636H54.6834V31.6364H54.763C54.9022 31.1955 55.1408 30.8558 55.4789 30.6172C55.8203 30.3752 56.2097 30.2543 56.6472 30.2543C56.7466 30.2543 56.8577 30.2592 56.9803 30.2692C57.1062 30.2758 57.2106 30.2874 57.2935 30.304V31.9595C57.2173 31.933 57.0963 31.9098 56.9306 31.8899C56.7682 31.8667 56.6107 31.8551 56.4583 31.8551C56.1301 31.8551 55.8352 31.9264 55.5733 32.0689C55.3148 32.2081 55.111 32.402 54.9618 32.6506C54.8127 32.8991 54.7381 33.1858 54.7381 33.5107V38H52.9384ZM61.5554 38.1491C60.7898 38.1491 60.1286 37.9901 59.5717 37.6719C59.0182 37.3504 58.5923 36.8963 58.294 36.3097C57.9957 35.7197 57.8466 35.0253 57.8466 34.2266C57.8466 33.4411 57.9957 32.7517 58.294 32.1584C58.5956 31.5618 59.0166 31.0978 59.5568 30.7663C60.0971 30.4316 60.7318 30.2642 61.4609 30.2642C61.9316 30.2642 62.3757 30.3404 62.7933 30.4929C63.2143 30.642 63.5855 30.8741 63.907 31.1889C64.2318 31.5038 64.487 31.9048 64.6726 32.392C64.8582 32.8759 64.951 33.4527 64.951 34.1222V34.674H58.6918V33.4609H63.2259C63.2225 33.1162 63.148 32.8097 63.0021 32.5412C62.8563 32.2694 62.6525 32.0556 62.3906 31.8999C62.1321 31.7441 61.8305 31.6662 61.4858 31.6662C61.1179 31.6662 60.7947 31.7557 60.5163 31.9347C60.2379 32.1103 60.0208 32.3423 59.8651 32.6307C59.7126 32.9157 59.6347 33.2289 59.6314 33.5703V34.6293C59.6314 35.0734 59.7126 35.4545 59.875 35.7727C60.0374 36.0876 60.2644 36.3295 60.5561 36.4986C60.8478 36.6643 61.1892 36.7472 61.5803 36.7472C61.8421 36.7472 62.0791 36.7107 62.2912 36.6378C62.5033 36.5616 62.6873 36.4505 62.843 36.3047C62.9988 36.1589 63.1165 35.9782 63.196 35.7628L64.8764 35.9517C64.7704 36.3958 64.5682 36.7836 64.2699 37.1151C63.9749 37.4432 63.5971 37.6984 63.1364 37.8807C62.6757 38.0597 62.1487 38.1491 61.5554 38.1491ZM72.5091 32.3821L70.8684 32.5611C70.822 32.3954 70.7408 32.2396 70.6248 32.0938C70.5121 31.9479 70.3597 31.8303 70.1674 31.7408C69.9752 31.6513 69.7399 31.6065 69.4615 31.6065C69.0869 31.6065 68.7721 31.6877 68.5169 31.8501C68.265 32.0125 68.1407 32.223 68.144 32.4815C68.1407 32.7036 68.2219 32.8842 68.3876 33.0234C68.5566 33.1626 68.835 33.277 69.2228 33.3665L70.5254 33.6449C71.2479 33.8007 71.7849 34.0476 72.1362 34.3857C72.4908 34.7237 72.6698 35.1662 72.6731 35.7131C72.6698 36.1937 72.5289 36.6179 72.2505 36.9858C71.9754 37.3504 71.5926 37.6354 71.1021 37.8409C70.6116 38.0464 70.0481 38.1491 69.4118 38.1491C68.4771 38.1491 67.7247 37.9536 67.1547 37.5625C66.5846 37.1681 66.2449 36.6196 66.1355 35.9169L67.8904 35.7479C67.97 36.0926 68.139 36.3527 68.3975 36.5284C68.6561 36.7041 68.9925 36.7919 69.4068 36.7919C69.8343 36.7919 70.1774 36.7041 70.4359 36.5284C70.6977 36.3527 70.8287 36.1357 70.8287 35.8771C70.8287 35.6584 70.7441 35.4777 70.5751 35.3352C70.4094 35.1927 70.1509 35.0833 69.7995 35.0071L68.497 34.7337C67.7645 34.5812 67.2226 34.3243 66.8713 33.9631C66.5199 33.5985 66.3459 33.1378 66.3493 32.581C66.3459 32.1103 66.4735 31.7027 66.7321 31.358C66.9939 31.0099 67.3568 30.7415 67.8208 30.5526C68.2882 30.3603 68.8268 30.2642 69.4366 30.2642C70.3315 30.2642 71.0358 30.4548 71.5495 30.8359C72.0666 31.2171 72.3864 31.7325 72.5091 32.3821ZM80.1926 32.3821L78.552 32.5611C78.5056 32.3954 78.4244 32.2396 78.3084 32.0938C78.1957 31.9479 78.0433 31.8303 77.851 31.7408C77.6588 31.6513 77.4235 31.6065 77.1451 31.6065C76.7705 31.6065 76.4557 31.6877 76.2005 31.8501C75.9486 32.0125 75.8243 32.223 75.8276 32.4815C75.8243 32.7036 75.9055 32.8842 76.0712 33.0234C76.2402 33.1626 76.5186 33.277 76.9064 33.3665L78.209 33.6449C78.9315 33.8007 79.4685 34.0476 79.8198 34.3857C80.1744 34.7237 80.3534 35.1662 80.3567 35.7131C80.3534 36.1937 80.2125 36.6179 79.9341 36.9858C79.659 37.3504 79.2762 37.6354 78.7857 37.8409C78.2952 38.0464 77.7317 38.1491 77.0953 38.1491C76.1607 38.1491 75.4083 37.9536 74.8382 37.5625C74.2682 37.1681 73.9284 36.6196 73.8191 35.9169L75.574 35.7479C75.6536 36.0926 75.8226 36.3527 76.0811 36.5284C76.3397 36.7041 76.6761 36.7919 77.0904 36.7919C77.5179 36.7919 77.861 36.7041 78.1195 36.5284C78.3813 36.3527 78.5123 36.1357 78.5123 35.8771C78.5123 35.6584 78.4277 35.4777 78.2587 35.3352C78.093 35.1927 77.8345 35.0833 77.4831 35.0071L76.1806 34.7337C75.4481 34.5812 74.9062 34.3243 74.5549 33.9631C74.2035 33.5985 74.0295 33.1378 74.0328 32.581C74.0295 32.1103 74.1571 31.7027 74.4157 31.358C74.6775 31.0099 75.0404 30.7415 75.5044 30.5526C75.9718 30.3603 76.5104 30.2642 77.1202 30.2642C78.0151 30.2642 78.7194 30.4548 79.2331 30.8359C79.7502 31.2171 80.07 31.7325 80.1926 32.3821Z" fill="#161616"/>
<path opacity="0.9" d="M28.5888 196.182V202H27.3587V197.349H27.3246L25.9922 198.185V197.094L27.4325 196.182H28.5888ZM32.5028 196.182V202H31.2727V197.349H31.2386L29.9062 198.185V197.094L31.3466 196.182H32.5028Z" fill="black"/>
<path opacity="0.9" d="M62.0263 196.182V202H60.7962V197.349H60.7621L59.4297 198.185V197.094L60.87 196.182H62.0263ZM63.4091 202V201.114L65.4801 199.196C65.6563 199.026 65.804 198.872 65.9233 198.736C66.0445 198.599 66.1364 198.466 66.1989 198.335C66.2614 198.203 66.2926 198.06 66.2926 197.906C66.2926 197.736 66.2538 197.589 66.1761 197.466C66.0985 197.341 65.9924 197.245 65.858 197.179C65.7235 197.111 65.571 197.077 65.4006 197.077C65.2225 197.077 65.0672 197.113 64.9347 197.185C64.8021 197.257 64.6998 197.36 64.6278 197.494C64.5559 197.629 64.5199 197.789 64.5199 197.974H63.3523C63.3523 197.594 63.4384 197.263 63.6108 196.983C63.7831 196.703 64.0246 196.486 64.3352 196.332C64.6458 196.179 65.0038 196.102 65.4091 196.102C65.8258 196.102 66.1884 196.176 66.4972 196.324C66.8078 196.47 67.0492 196.672 67.2216 196.932C67.3939 197.191 67.4801 197.489 67.4801 197.824C67.4801 198.044 67.4366 198.26 67.3494 198.474C67.2642 198.688 67.1117 198.926 66.892 199.188C66.6723 199.447 66.3627 199.759 65.9631 200.122L65.1136 200.955V200.994H67.5568V202H63.4091Z" fill="black"/>
<path opacity="0.9" d="M95.9091 196.182V202H94.679V197.349H94.6449L93.3125 198.185V197.094L94.7528 196.182H95.9091ZM99.4425 202.08C99.0182 202.08 98.6404 202.007 98.3089 201.861C97.9794 201.713 97.719 201.51 97.5277 201.253C97.3383 200.993 97.2408 200.694 97.2351 200.355H98.4737C98.4813 200.497 98.5277 200.622 98.6129 200.73C98.7 200.836 98.8156 200.919 98.9595 200.977C99.1035 201.036 99.2654 201.065 99.4453 201.065C99.6328 201.065 99.7985 201.032 99.9425 200.966C100.086 200.9 100.199 200.808 100.281 200.69C100.362 200.573 100.403 200.437 100.403 200.284C100.403 200.129 100.359 199.991 100.272 199.872C100.187 199.751 100.064 199.656 99.9027 199.588C99.7436 199.52 99.5542 199.486 99.3345 199.486H98.7919V198.582H99.3345C99.5201 198.582 99.6839 198.55 99.826 198.486C99.9699 198.421 100.082 198.332 100.161 198.219C100.241 198.103 100.281 197.969 100.281 197.815C100.281 197.67 100.246 197.542 100.175 197.432C100.107 197.32 100.011 197.233 99.8857 197.17C99.7625 197.108 99.6186 197.077 99.4538 197.077C99.2872 197.077 99.1347 197.107 98.9964 197.168C98.8582 197.226 98.7474 197.311 98.6641 197.42C98.5807 197.53 98.5362 197.659 98.5305 197.807H97.3516C97.3572 197.472 97.4529 197.176 97.6385 196.92C97.8241 196.665 98.0741 196.465 98.3885 196.321C98.7048 196.175 99.0618 196.102 99.4595 196.102C99.861 196.102 100.212 196.175 100.513 196.321C100.815 196.467 101.049 196.664 101.215 196.912C101.384 197.158 101.467 197.435 101.465 197.741C101.467 198.067 101.366 198.339 101.161 198.557C100.959 198.775 100.694 198.913 100.369 198.972V199.017C100.797 199.072 101.122 199.221 101.346 199.463C101.571 199.704 101.683 200.005 101.681 200.366C101.683 200.698 101.587 200.992 101.394 201.25C101.203 201.508 100.939 201.71 100.602 201.858C100.264 202.006 99.8781 202.08 99.4425 202.08Z" fill="black"/>
<path opacity="0.9" d="M129.835 196.182V202H128.605V197.349H128.571L127.238 198.185V197.094L128.679 196.182H129.835ZM131.13 200.977V200.009L133.559 196.182H134.394V197.523H133.9L132.368 199.946V199.991H135.82V200.977H131.13ZM133.922 202V200.682L133.945 200.253V196.182H135.098V202H133.922Z" fill="black"/>
<path opacity="0.9" d="M163.968 196.182V202H162.738V197.349H162.703L161.371 198.185V197.094L162.811 196.182H163.968ZM167.475 202.08C167.074 202.08 166.716 202.006 166.402 201.858C166.089 201.71 165.841 201.507 165.657 201.247C165.474 200.988 165.378 200.69 165.37 200.355H166.564C166.577 200.58 166.672 200.763 166.848 200.903C167.024 201.044 167.233 201.114 167.475 201.114C167.669 201.114 167.839 201.071 167.987 200.986C168.136 200.899 168.253 200.778 168.336 200.625C168.422 200.47 168.464 200.292 168.464 200.091C168.464 199.886 168.421 199.706 168.333 199.551C168.248 199.396 168.13 199.275 167.978 199.188C167.827 199.1 167.654 199.056 167.458 199.054C167.288 199.054 167.122 199.089 166.961 199.159C166.802 199.229 166.678 199.325 166.589 199.446L165.495 199.25L165.771 196.182H169.328V197.188H166.785L166.635 198.645H166.669C166.771 198.501 166.925 198.382 167.132 198.287C167.338 198.192 167.569 198.145 167.825 198.145C168.175 198.145 168.488 198.227 168.762 198.392C169.037 198.557 169.254 198.783 169.413 199.071C169.572 199.357 169.651 199.687 169.649 200.06C169.651 200.452 169.56 200.8 169.376 201.105C169.194 201.408 168.94 201.647 168.612 201.821C168.286 201.993 167.907 202.08 167.475 202.08Z" fill="black"/>
<path opacity="0.9" d="M197.905 196.182V202H196.675V197.349H196.641L195.309 198.185V197.094L196.749 196.182H197.905ZM201.521 202.08C201.222 202.078 200.933 202.027 200.654 201.929C200.378 201.83 200.13 201.67 199.91 201.449C199.69 201.227 199.516 200.934 199.387 200.568C199.261 200.203 199.197 199.754 199.197 199.222C199.199 198.733 199.255 198.296 199.365 197.912C199.476 197.526 199.636 197.198 199.842 196.929C200.05 196.66 200.299 196.455 200.589 196.315C200.879 196.173 201.204 196.102 201.564 196.102C201.952 196.102 202.295 196.178 202.592 196.33C202.889 196.479 203.128 196.683 203.308 196.94C203.49 197.198 203.6 197.487 203.637 197.807H202.424C202.377 197.604 202.278 197.445 202.126 197.33C201.975 197.214 201.787 197.156 201.564 197.156C201.185 197.156 200.897 197.321 200.7 197.651C200.505 197.98 200.405 198.428 200.402 198.994H200.441C200.529 198.822 200.646 198.675 200.794 198.554C200.943 198.431 201.113 198.337 201.302 198.273C201.493 198.206 201.695 198.173 201.907 198.173C202.252 198.173 202.559 198.255 202.828 198.418C203.097 198.579 203.309 198.8 203.464 199.082C203.619 199.365 203.697 199.687 203.697 200.051C203.697 200.445 203.605 200.795 203.422 201.102C203.24 201.409 202.985 201.65 202.657 201.824C202.332 201.996 201.953 202.081 201.521 202.08ZM201.515 201.114C201.705 201.114 201.874 201.068 202.024 200.977C202.173 200.886 202.291 200.763 202.376 200.608C202.461 200.453 202.504 200.278 202.504 200.085C202.504 199.892 202.461 199.719 202.376 199.565C202.293 199.412 202.177 199.29 202.029 199.199C201.882 199.108 201.713 199.062 201.524 199.062C201.382 199.062 201.25 199.089 201.129 199.142C201.01 199.195 200.904 199.269 200.814 199.364C200.725 199.458 200.654 199.568 200.603 199.693C200.552 199.816 200.527 199.948 200.527 200.088C200.527 200.276 200.569 200.447 200.654 200.602C200.742 200.758 200.859 200.882 201.007 200.974C201.156 201.067 201.326 201.114 201.515 201.114Z" fill="black"/>
<path opacity="0.9" d="M232.167 196.182V202H230.937V197.349H230.903L229.57 198.185V197.094L231.011 196.182H232.167ZM233.78 202L236.192 197.227V197.188H233.382V196.182H237.464V197.202L235.05 202H233.78Z" fill="black"/>
<path opacity="0.9" d="M265.901 196.182V202H264.671V197.349H264.637L263.305 198.185V197.094L264.745 196.182H265.901ZM269.455 202.08C269.017 202.08 268.628 202.009 268.287 201.866C267.948 201.723 267.682 201.527 267.489 201.278C267.295 201.03 267.199 200.749 267.199 200.435C267.199 200.192 267.254 199.97 267.364 199.767C267.475 199.562 267.627 199.393 267.818 199.259C268.009 199.122 268.223 199.035 268.46 198.997V198.957C268.15 198.895 267.898 198.744 267.705 198.506C267.511 198.265 267.415 197.986 267.415 197.668C267.415 197.366 267.503 197.098 267.679 196.864C267.855 196.627 268.097 196.441 268.403 196.307C268.712 196.17 269.062 196.102 269.455 196.102C269.847 196.102 270.196 196.17 270.503 196.307C270.812 196.443 271.054 196.63 271.23 196.866C271.406 197.101 271.495 197.368 271.497 197.668C271.495 197.988 271.397 198.267 271.202 198.506C271.007 198.744 270.757 198.895 270.452 198.957V198.997C270.685 199.035 270.896 199.122 271.085 199.259C271.277 199.393 271.428 199.562 271.54 199.767C271.653 199.97 271.711 200.192 271.713 200.435C271.711 200.749 271.614 201.03 271.42 201.278C271.227 201.527 270.96 201.723 270.619 201.866C270.28 202.009 269.892 202.08 269.455 202.08ZM269.455 201.176C269.65 201.176 269.82 201.141 269.966 201.071C270.112 200.999 270.225 200.901 270.307 200.776C270.39 200.649 270.432 200.503 270.432 200.338C270.432 200.17 270.389 200.021 270.304 199.892C270.219 199.761 270.103 199.659 269.957 199.585C269.812 199.509 269.644 199.472 269.455 199.472C269.267 199.472 269.099 199.509 268.952 199.585C268.804 199.659 268.688 199.761 268.602 199.892C268.519 200.021 268.477 200.17 268.477 200.338C268.477 200.503 268.518 200.649 268.599 200.776C268.681 200.901 268.795 200.999 268.943 201.071C269.091 201.141 269.261 201.176 269.455 201.176ZM269.455 198.577C269.617 198.577 269.762 198.544 269.889 198.477C270.016 198.411 270.116 198.319 270.188 198.202C270.259 198.084 270.295 197.949 270.295 197.795C270.295 197.644 270.259 197.511 270.188 197.398C270.116 197.282 270.017 197.192 269.892 197.128C269.767 197.062 269.621 197.028 269.455 197.028C269.29 197.028 269.144 197.062 269.017 197.128C268.89 197.192 268.791 197.282 268.719 197.398C268.649 197.511 268.614 197.644 268.614 197.795C268.614 197.949 268.65 198.084 268.722 198.202C268.794 198.319 268.893 198.411 269.02 198.477C269.147 198.544 269.292 198.577 269.455 198.577Z" fill="black"/>
<path opacity="0.9" d="M299.905 196.182V202H298.675V197.349H298.641L297.309 198.185V197.094L298.749 196.182H299.905ZM303.393 196.102C303.692 196.102 303.98 196.152 304.257 196.253C304.535 196.353 304.783 196.513 305.001 196.733C305.221 196.953 305.394 197.244 305.521 197.608C305.65 197.97 305.715 198.414 305.717 198.94C305.717 199.435 305.661 199.876 305.549 200.264C305.44 200.651 305.281 200.979 305.075 201.25C304.868 201.521 304.619 201.727 304.328 201.869C304.036 202.009 303.71 202.08 303.35 202.08C302.962 202.08 302.619 202.005 302.322 201.855C302.025 201.704 301.785 201.498 301.603 201.239C301.423 200.977 301.315 200.684 301.277 200.358H302.49C302.537 200.57 302.636 200.735 302.788 200.852C302.94 200.968 303.127 201.026 303.35 201.026C303.729 201.026 304.017 200.861 304.214 200.531C304.411 200.2 304.511 199.746 304.512 199.17H304.473C304.386 199.341 304.268 199.488 304.12 199.611C303.973 199.732 303.803 199.826 303.612 199.892C303.422 199.958 303.221 199.991 303.007 199.991C302.664 199.991 302.358 199.911 302.089 199.75C301.82 199.589 301.608 199.367 301.453 199.085C301.297 198.803 301.22 198.481 301.22 198.119C301.218 197.729 301.308 197.382 301.49 197.077C301.672 196.772 301.925 196.533 302.251 196.361C302.579 196.187 302.959 196.1 303.393 196.102ZM303.402 197.068C303.21 197.068 303.04 197.114 302.89 197.205C302.743 197.295 302.625 197.418 302.538 197.571C302.453 197.724 302.411 197.896 302.413 198.085C302.413 198.277 302.455 198.449 302.538 198.602C302.623 198.754 302.739 198.875 302.885 198.966C303.032 199.055 303.201 199.099 303.39 199.099C303.532 199.099 303.664 199.073 303.785 199.02C303.906 198.967 304.011 198.894 304.1 198.801C304.191 198.706 304.262 198.598 304.314 198.474C304.365 198.351 304.39 198.221 304.39 198.082C304.388 197.899 304.345 197.73 304.26 197.577C304.174 197.423 304.057 197.3 303.907 197.207C303.758 197.115 303.589 197.068 303.402 197.068Z" fill="black"/>
<path opacity="0.9" d="M330.698 202V201.114L332.769 199.196C332.945 199.026 333.093 198.872 333.212 198.736C333.334 198.599 333.425 198.466 333.488 198.335C333.55 198.203 333.582 198.06 333.582 197.906C333.582 197.736 333.543 197.589 333.465 197.466C333.388 197.341 333.281 197.245 333.147 197.179C333.013 197.111 332.86 197.077 332.69 197.077C332.512 197.077 332.356 197.113 332.224 197.185C332.091 197.257 331.989 197.36 331.917 197.494C331.845 197.629 331.809 197.789 331.809 197.974H330.641C330.641 197.594 330.728 197.263 330.9 196.983C331.072 196.703 331.314 196.486 331.624 196.332C331.935 196.179 332.293 196.102 332.698 196.102C333.115 196.102 333.478 196.176 333.786 196.324C334.097 196.47 334.338 196.672 334.511 196.932C334.683 197.191 334.769 197.489 334.769 197.824C334.769 198.044 334.726 198.26 334.638 198.474C334.553 198.688 334.401 198.926 334.181 199.188C333.961 199.447 333.652 199.759 333.252 200.122L332.403 200.955V200.994H334.846V202H330.698ZM338.018 202.128C337.53 202.126 337.109 202.006 336.757 201.767C336.407 201.528 336.137 201.183 335.947 200.73C335.76 200.277 335.667 199.733 335.669 199.097C335.669 198.462 335.763 197.921 335.95 197.474C336.14 197.027 336.41 196.687 336.76 196.455C337.112 196.22 337.532 196.102 338.018 196.102C338.505 196.102 338.924 196.22 339.274 196.455C339.626 196.689 339.897 197.03 340.087 197.477C340.276 197.922 340.37 198.462 340.368 199.097C340.368 199.735 340.273 200.28 340.084 200.733C339.896 201.186 339.627 201.531 339.277 201.77C338.927 202.009 338.507 202.128 338.018 202.128ZM338.018 201.108C338.352 201.108 338.618 200.94 338.817 200.605C339.016 200.27 339.114 199.767 339.112 199.097C339.112 198.655 339.067 198.288 338.976 197.994C338.887 197.701 338.76 197.48 338.595 197.332C338.432 197.185 338.24 197.111 338.018 197.111C337.687 197.111 337.422 197.277 337.223 197.608C337.024 197.939 336.924 198.436 336.922 199.097C336.922 199.544 336.966 199.917 337.055 200.216C337.146 200.513 337.274 200.737 337.439 200.886C337.604 201.034 337.797 201.108 338.018 201.108Z" fill="black"/>
<g clip-path="url(#clip0_1321_814)">
<rect x="20.5" y="82" width="18" height="103" rx="9" fill="#DADEE4"/>
<rect x="20.5" y="115" width="18" height="70" rx="9" fill="#2B2E35"/>
</g>
<g clip-path="url(#clip1_1321_814)">
<rect x="54.5" y="74" width="18" height="111" rx="9" fill="#DADEE4"/>
<rect x="54.5" y="133" width="18" height="52" rx="9" fill="#2B2E35"/>
</g>
<g clip-path="url(#clip2_1321_814)">
<rect x="88.5" y="98" width="18" height="87" rx="9" fill="#DADEE4"/>
<rect x="88.5" y="123" width="18" height="62" rx="9" fill="#2B2E35"/>
</g>
<g clip-path="url(#clip3_1321_814)">
<rect x="156.5" y="82" width="18" height="103" rx="9" fill="#DADEE4"/>
<rect x="156.5" y="148" width="18" height="37" rx="9" fill="#2B2E35"/>
</g>
<g clip-path="url(#clip4_1321_814)">
<rect x="190.5" y="74" width="18" height="111" rx="9" fill="#DADEE4"/>
<rect x="190.5" y="126" width="18" height="59" rx="9" fill="#2B2E35"/>
</g>
<g clip-path="url(#clip5_1321_814)">
<rect x="224.5" y="82" width="18" height="103" rx="9" fill="#DADEE4"/>
<rect x="224.5" y="134" width="18" height="51" rx="9" fill="#2B2E35"/>
</g>
<g clip-path="url(#clip6_1321_814)">
<rect x="258.5" y="70" width="18" height="115" rx="9" fill="#DADEE4"/>
<rect x="258.5" y="118" width="18" height="67" rx="9" fill="#2B2E35"/>
</g>
<g clip-path="url(#clip7_1321_814)">
<rect x="292.5" y="98" width="18" height="87" rx="9" fill="#DADEE4"/>
<rect x="292.5" y="146" width="18" height="39" rx="9" fill="#2B2E35"/>
</g>
<g clip-path="url(#clip8_1321_814)">
<rect x="326.5" y="70" width="18" height="115" rx="9" fill="#DADEE4"/>
<rect x="326.5" y="126" width="18" height="59" rx="9" fill="#2B2E35"/>
</g>
<g clip-path="url(#clip9_1321_814)">
<rect x="122.5" y="67" width="18" height="118" rx="9" fill="#DADEE4"/>
<rect x="122.5" y="102" width="18" height="83" rx="9" fill="#0B8AFF"/>
</g>
<circle cx="22.5" cy="105" r="2" fill="#181818"/>
<circle cx="34.5" cy="105" r="2" fill="#181818"/>
<circle cx="46.5" cy="105" r="2" fill="#181818"/>
<circle cx="58.5" cy="105" r="2" fill="#181818"/>
<circle cx="70.5" cy="105" r="2" fill="#181818"/>
<circle cx="82.5" cy="105" r="2" fill="#181818"/>
<circle cx="94.5" cy="105" r="2" fill="#181818"/>
<circle cx="106.5" cy="105" r="2" fill="#181818"/>
<circle cx="118.5" cy="105" r="2" fill="#181818"/>
<circle cx="130.5" cy="105" r="2" fill="#181818"/>
<circle cx="142.5" cy="105" r="2" fill="#181818"/>
<circle cx="154.5" cy="105" r="2" fill="#181818"/>
<circle cx="166.5" cy="105" r="2" fill="#181818"/>
<circle cx="178.5" cy="105" r="2" fill="#181818"/>
<circle cx="190.5" cy="105" r="2" fill="#181818"/>
<circle cx="202.5" cy="105" r="2" fill="#181818"/>
<circle cx="214.5" cy="105" r="2" fill="#181818"/>
<circle cx="226.5" cy="105" r="2" fill="#181818"/>
<circle cx="238.5" cy="105" r="2" fill="#181818"/>
<circle cx="250.5" cy="105" r="2" fill="#181818"/>
<circle cx="262.5" cy="105" r="2" fill="#181818"/>
<circle cx="274.5" cy="105" r="2" fill="#181818"/>
<circle cx="286.5" cy="105" r="2" fill="#181818"/>
<circle cx="298.5" cy="105" r="2" fill="#181818"/>
<circle cx="310.5" cy="105" r="2" fill="#181818"/>
<circle cx="322.5" cy="105" r="2" fill="#181818"/>
<circle cx="334.5" cy="105" r="2" fill="#181818"/>
<circle cx="346.5" cy="105" r="2" fill="#181818"/>
<rect x="110.5" y="93" width="42" height="19" rx="9.5" fill="#161616"/>
<path d="M122.472 107.119C122.054 107.116 121.646 107.044 121.249 106.902C120.851 106.757 120.493 106.523 120.175 106.199C119.857 105.872 119.604 105.439 119.416 104.899C119.229 104.357 119.136 103.685 119.139 102.884C119.139 102.136 119.219 101.47 119.378 100.885C119.537 100.3 119.766 99.8054 120.064 99.402C120.362 98.9957 120.722 98.6861 121.142 98.473C121.565 98.2599 122.038 98.1534 122.561 98.1534C123.109 98.1534 123.595 98.2614 124.018 98.4773C124.445 98.6932 124.788 98.9886 125.05 99.3636C125.311 99.7358 125.473 100.156 125.536 100.625H123.98C123.901 100.29 123.737 100.023 123.49 99.8239C123.246 99.6222 122.936 99.5213 122.561 99.5213C121.956 99.5213 121.49 99.7841 121.163 100.31C120.839 100.835 120.676 101.557 120.673 102.474H120.733C120.872 102.224 121.053 102.01 121.274 101.831C121.496 101.652 121.746 101.514 122.024 101.418C122.305 101.318 122.602 101.268 122.915 101.268C123.426 101.268 123.885 101.391 124.291 101.635C124.7 101.879 125.024 102.216 125.263 102.645C125.501 103.071 125.619 103.56 125.616 104.111C125.619 104.685 125.489 105.2 125.224 105.658C124.96 106.112 124.592 106.47 124.121 106.732C123.649 106.993 123.099 107.122 122.472 107.119ZM122.463 105.841C122.773 105.841 123.05 105.766 123.294 105.615C123.538 105.464 123.732 105.261 123.874 105.006C124.016 104.75 124.085 104.463 124.082 104.145C124.085 103.832 124.017 103.55 123.878 103.297C123.741 103.044 123.553 102.844 123.311 102.696C123.07 102.548 122.794 102.474 122.484 102.474C122.254 102.474 122.04 102.518 121.841 102.607C121.642 102.695 121.469 102.817 121.321 102.973C121.173 103.126 121.057 103.305 120.972 103.51C120.889 103.712 120.847 103.928 120.844 104.158C120.847 104.462 120.918 104.741 121.057 104.997C121.196 105.253 121.388 105.457 121.632 105.611C121.876 105.764 122.153 105.841 122.463 105.841ZM126.899 105.381V104.124L130.602 98.2727H131.651V100.062H131.011L128.518 104.013V104.081H133.688V105.381H126.899ZM131.062 107V104.997L131.08 104.435V98.2727H132.571V107H131.062ZM139.715 105.364V104.903C139.715 104.565 139.786 104.254 139.928 103.97C140.073 103.686 140.283 103.457 140.559 103.284C140.835 103.111 141.168 103.024 141.56 103.024C141.964 103.024 142.302 103.111 142.575 103.284C142.847 103.455 143.053 103.682 143.192 103.966C143.335 104.25 143.406 104.562 143.406 104.903V105.364C143.406 105.702 143.335 106.013 143.192 106.297C143.05 106.581 142.842 106.81 142.566 106.983C142.293 107.156 141.958 107.243 141.56 107.243C141.163 107.243 140.826 107.156 140.55 106.983C140.275 106.81 140.066 106.581 139.924 106.297C139.785 106.013 139.715 105.702 139.715 105.364ZM140.827 104.903V105.364C140.827 105.588 140.881 105.794 140.989 105.982C141.097 106.169 141.288 106.263 141.56 106.263C141.836 106.263 142.025 106.17 142.127 105.986C142.232 105.798 142.285 105.591 142.285 105.364V104.903C142.285 104.676 142.235 104.469 142.136 104.281C142.036 104.091 141.844 103.996 141.56 103.996C141.293 103.996 141.104 104.091 140.994 104.281C140.883 104.469 140.827 104.676 140.827 104.903ZM135.279 100.369V99.9091C135.279 99.5682 135.352 99.2557 135.496 98.9716C135.641 98.6875 135.852 98.4602 136.127 98.2898C136.403 98.1165 136.737 98.0298 137.129 98.0298C137.529 98.0298 137.866 98.1165 138.138 98.2898C138.414 98.4602 138.621 98.6875 138.761 98.9716C138.9 99.2557 138.969 99.5682 138.969 99.9091V100.369C138.969 100.71 138.898 101.023 138.756 101.307C138.617 101.588 138.41 101.814 138.134 101.984C137.859 102.155 137.523 102.24 137.129 102.24C136.728 102.24 136.39 102.155 136.114 101.984C135.842 101.814 135.634 101.587 135.492 101.303C135.35 101.018 135.279 100.707 135.279 100.369ZM136.4 99.9091V100.369C136.4 100.597 136.452 100.804 136.558 100.991C136.665 101.176 136.856 101.268 137.129 101.268C137.401 101.268 137.589 101.176 137.691 100.991C137.796 100.804 137.849 100.597 137.849 100.369V99.9091C137.849 99.6818 137.799 99.4744 137.7 99.2869C137.6 99.0966 137.41 99.0014 137.129 99.0014C136.859 99.0014 136.67 99.0966 136.562 99.2869C136.454 99.4773 136.4 99.6847 136.4 99.9091ZM135.765 107L141.765 98.2727H142.83L136.83 107H135.765Z" fill="white"/>
<defs>
<clipPath id="clip0_1321_814">
<rect x="20.5" y="82" width="18" height="103" rx="9" fill="white"/>
</clipPath>
<clipPath id="clip1_1321_814">
<rect x="54.5" y="74" width="18" height="111" rx="9" fill="white"/>
</clipPath>
<clipPath id="clip2_1321_814">
<rect x="88.5" y="98" width="18" height="87" rx="9" fill="white"/>
</clipPath>
<clipPath id="clip3_1321_814">
<rect x="156.5" y="82" width="18" height="103" rx="9" fill="white"/>
</clipPath>
<clipPath id="clip4_1321_814">
<rect x="190.5" y="74" width="18" height="111" rx="9" fill="white"/>
</clipPath>
<clipPath id="clip5_1321_814">
<rect x="224.5" y="82" width="18" height="103" rx="9" fill="white"/>
</clipPath>
<clipPath id="clip6_1321_814">
<rect x="258.5" y="70" width="18" height="115" rx="9" fill="white"/>
</clipPath>
<clipPath id="clip7_1321_814">
<rect x="292.5" y="98" width="18" height="87" rx="9" fill="white"/>
</clipPath>
<clipPath id="clip8_1321_814">
<rect x="326.5" y="70" width="18" height="115" rx="9" fill="white"/>
</clipPath>
<clipPath id="clip9_1321_814">
<rect x="122.5" y="67" width="18" height="118" rx="9" fill="white"/>
</clipPath>
</defs>
</svg>
