<svg width="699" height="441" viewBox="0 0 699 441" fill="none" xmlns="http://www.w3.org/2000/svg">
<rect width="699" height="440.879" fill="#1F2937"/>
<path d="M39.5738 71.2183V52.0347H46.7676C48.2413 52.0347 49.4778 52.3095 50.4769 52.859C51.4823 53.4086 52.241 54.1642 52.7531 55.1258C53.2714 56.0813 53.5305 57.1678 53.5305 58.3855C53.5305 59.6157 53.2714 60.7085 52.7531 61.664C52.2348 62.6194 51.4698 63.3719 50.4582 63.9214C49.4465 64.4647 48.2007 64.7363 46.7208 64.7363H41.953V61.8794H46.2524C47.1142 61.8794 47.8198 61.7295 48.3693 61.4298C48.9189 61.13 49.3248 60.7179 49.587 60.1934C49.8556 59.6688 49.9898 59.0662 49.9898 58.3855C49.9898 57.7049 49.8556 57.1054 49.587 56.5871C49.3248 56.0688 48.9157 55.666 48.36 55.3787C47.8104 55.0852 47.1017 54.9385 46.2337 54.9385H43.0489V71.2183H39.5738ZM56.3992 71.2183V56.8306H59.687V59.2286H59.8368C60.0991 58.398 60.5487 57.7579 61.1857 57.3083C61.8289 56.8525 62.5626 56.6245 63.3869 56.6245C63.5743 56.6245 63.7834 56.6339 64.0145 56.6526C64.2518 56.6651 64.4485 56.687 64.6046 56.7182V59.8374C64.461 59.7875 64.2331 59.7437 63.9208 59.7063C63.6148 59.6626 63.3182 59.6407 63.031 59.6407C62.4128 59.6407 61.857 59.775 61.3637 60.0435C60.8766 60.3058 60.4925 60.6711 60.2115 61.1394C59.9305 61.6078 59.79 62.1479 59.79 62.7599V71.2183H56.3992ZM72.5408 71.4993C71.1357 71.4993 69.918 71.1902 68.8877 70.5719C67.8573 69.9537 67.058 69.0888 66.4897 67.9773C65.9277 66.8657 65.6467 65.5669 65.6467 64.0806C65.6467 62.5944 65.9277 61.2924 66.4897 60.1746C67.058 59.0568 67.8573 58.1888 68.8877 57.5706C69.918 56.9524 71.1357 56.6433 72.5408 56.6433C73.9458 56.6433 75.1635 56.9524 76.1939 57.5706C77.2243 58.1888 78.0204 59.0568 78.5825 60.1746C79.1507 61.2924 79.4349 62.5944 79.4349 64.0806C79.4349 65.5669 79.1507 66.8657 78.5825 67.9773C78.0204 69.0888 77.2243 69.9537 76.1939 70.5719C75.1635 71.1902 73.9458 71.4993 72.5408 71.4993ZM72.5595 68.7829C73.3214 68.7829 73.9583 68.5737 74.4704 68.1553C74.9824 67.7306 75.3634 67.1624 75.6131 66.4505C75.8692 65.7386 75.9972 64.9455 75.9972 64.0713C75.9972 63.1908 75.8692 62.3946 75.6131 61.6827C75.3634 60.9646 74.9824 60.3932 74.4704 59.9685C73.9583 59.5439 73.3214 59.3316 72.5595 59.3316C71.7789 59.3316 71.1295 59.5439 70.6112 59.9685C70.0991 60.3932 69.7151 60.9646 69.459 61.6827C69.2093 62.3946 69.0844 63.1908 69.0844 64.0713C69.0844 64.9455 69.2093 65.7386 69.459 66.4505C69.7151 67.1624 70.0991 67.7306 70.6112 68.1553C71.1295 68.5737 71.7789 68.7829 72.5595 68.7829ZM88.57 76.9134C87.3523 76.9134 86.3063 76.7479 85.432 76.4169C84.5578 76.0922 83.8553 75.6551 83.3245 75.1055C82.7937 74.556 82.4253 73.9472 82.2192 73.279L85.2728 72.539C85.4102 72.82 85.61 73.0979 85.8723 73.3727C86.1346 73.6537 86.4874 73.8847 86.9308 74.0658C87.3804 74.2532 87.9455 74.3468 88.6262 74.3468C89.5879 74.3468 90.384 74.1127 91.0148 73.6443C91.6455 73.1822 91.9608 72.4204 91.9608 71.3588V68.633H91.7922C91.6174 68.9827 91.3613 69.3417 91.0241 69.7102C90.6932 70.0786 90.2529 70.3877 89.7034 70.6375C89.1601 70.8873 88.4763 71.0122 87.652 71.0122C86.5467 71.0122 85.5445 70.753 84.6452 70.2347C83.7522 69.7102 83.0404 68.9296 82.5096 67.893C81.985 66.8501 81.7227 65.545 81.7227 63.9776C81.7227 62.3977 81.985 61.0645 82.5096 59.9779C83.0404 58.8851 83.7554 58.0577 84.6546 57.4957C85.5538 56.9274 86.5561 56.6433 87.6614 56.6433C88.5044 56.6433 89.1976 56.7869 89.7409 57.0742C90.2904 57.3552 90.7275 57.6955 91.0522 58.0952C91.3769 58.4886 91.6236 58.8601 91.7922 59.2098H91.9796V56.8306H95.3236V71.4524C95.3236 72.6826 95.0301 73.7005 94.4431 74.5061C93.8561 75.3116 93.0536 75.9142 92.0358 76.3139C91.0179 76.7135 89.8626 76.9134 88.57 76.9134ZM88.5981 68.352C89.3162 68.352 89.9282 68.1771 90.434 67.8274C90.9398 67.4777 91.3239 66.975 91.5861 66.3193C91.8484 65.6637 91.9796 64.8768 91.9796 63.9589C91.9796 63.0534 91.8484 62.2603 91.5861 61.5797C91.3301 60.899 90.9492 60.3713 90.4434 59.9966C89.9438 59.6157 89.3287 59.4253 88.5981 59.4253C87.8425 59.4253 87.2118 59.622 86.706 60.0154C86.2001 60.4088 85.8192 60.949 85.5632 61.6359C85.3072 62.3165 85.1791 63.0909 85.1791 63.9589C85.1791 64.8394 85.3072 65.6106 85.5632 66.2725C85.8255 66.9282 86.2095 67.4403 86.7153 67.8087C87.2274 68.1709 87.855 68.352 88.5981 68.352ZM98.7987 71.2183V56.8306H102.087V59.2286H102.236C102.499 58.398 102.948 57.7579 103.585 57.3083C104.228 56.8525 104.962 56.6245 105.786 56.6245C105.974 56.6245 106.183 56.6339 106.414 56.6526C106.651 56.6651 106.848 56.687 107.004 56.7182V59.8374C106.861 59.7875 106.633 59.7437 106.32 59.7063C106.014 59.6626 105.718 59.6407 105.431 59.6407C104.812 59.6407 104.257 59.775 103.763 60.0435C103.276 60.3058 102.892 60.6711 102.611 61.1394C102.33 61.6078 102.19 62.1479 102.19 62.7599V71.2183H98.7987ZM115.034 71.4993C113.591 71.4993 112.346 71.1995 111.297 70.6C110.254 69.9943 109.451 69.1388 108.889 68.0335C108.327 66.922 108.046 65.6137 108.046 64.1087C108.046 62.6288 108.327 61.3299 108.889 60.2121C109.458 59.0881 110.251 58.2138 111.268 57.5893C112.286 56.9586 113.482 56.6433 114.856 56.6433C115.743 56.6433 116.58 56.7869 117.366 57.0742C118.159 57.3552 118.859 57.7923 119.465 58.3855C120.077 58.9788 120.557 59.7344 120.907 60.6523C121.257 61.5641 121.432 62.6506 121.432 63.912V64.9518H109.639V62.6662H118.181C118.175 62.0168 118.035 61.4392 117.76 60.9333C117.485 60.4213 117.101 60.0185 116.608 59.725C116.121 59.4315 115.552 59.2848 114.903 59.2848C114.21 59.2848 113.601 59.4534 113.076 59.7906C112.552 60.1215 112.143 60.5587 111.849 61.1019C111.562 61.639 111.415 62.2291 111.409 62.8723V64.8675C111.409 65.7042 111.562 66.4224 111.868 67.0219C112.174 67.6151 112.602 68.071 113.151 68.3894C113.701 68.7017 114.344 68.8578 115.081 68.8578C115.574 68.8578 116.021 68.7891 116.42 68.6517C116.82 68.5081 117.167 68.2989 117.46 68.0241C117.754 67.7494 117.975 67.409 118.125 67.0031L121.291 67.3591C121.091 68.1959 120.71 68.9265 120.148 69.5509C119.593 70.1692 118.881 70.65 118.013 70.9935C117.145 71.3307 116.152 71.4993 115.034 71.4993ZM135.672 60.6336L132.581 60.9708C132.493 60.6586 132.34 60.3651 132.122 60.0903C131.909 59.8156 131.622 59.5939 131.26 59.4253C130.898 59.2567 130.454 59.1724 129.93 59.1724C129.224 59.1724 128.631 59.3253 128.15 59.6313C127.675 59.9373 127.441 60.3339 127.448 60.8209C127.441 61.2393 127.594 61.5797 127.907 61.8419C128.225 62.1042 128.75 62.3197 129.48 62.4883L131.934 63.0128C133.296 63.3063 134.307 63.7715 134.969 64.4085C135.637 65.0454 135.975 65.8791 135.981 66.9095C135.975 67.8149 135.709 68.6142 135.185 69.3074C134.666 69.9943 133.945 70.5314 133.021 70.9185C132.097 71.3057 131.035 71.4993 129.836 71.4993C128.075 71.4993 126.658 71.1308 125.584 70.394C124.509 69.6509 123.869 68.6174 123.663 67.2935L126.97 66.975C127.12 67.6245 127.438 68.1147 127.925 68.4456C128.412 68.7766 129.046 68.9421 129.827 68.9421C130.632 68.9421 131.279 68.7766 131.766 68.4456C132.259 68.1147 132.506 67.7057 132.506 67.2186C132.506 66.8064 132.346 66.4661 132.028 66.1976C131.716 65.9291 131.229 65.723 130.567 65.5794L128.113 65.0642C126.733 64.7769 125.712 64.293 125.05 63.6123C124.388 62.9254 124.06 62.0574 124.066 61.0083C124.06 60.1215 124.3 59.3534 124.787 58.704C125.281 58.0483 125.964 57.5425 126.839 57.1866C127.719 56.8244 128.734 56.6433 129.883 56.6433C131.569 56.6433 132.896 57.0023 133.864 57.7205C134.838 58.4386 135.441 59.4096 135.672 60.6336ZM150.148 60.6336L147.057 60.9708C146.97 60.6586 146.817 60.3651 146.598 60.0903C146.386 59.8156 146.099 59.5939 145.737 59.4253C145.374 59.2567 144.931 59.1724 144.406 59.1724C143.701 59.1724 143.108 59.3253 142.627 59.6313C142.152 59.9373 141.918 60.3339 141.924 60.8209C141.918 61.2393 142.071 61.5797 142.383 61.8419C142.702 62.1042 143.226 62.3197 143.957 62.4883L146.411 63.0128C147.772 63.3063 148.784 63.7715 149.446 64.4085C150.114 65.0454 150.451 65.8791 150.457 66.9095C150.451 67.8149 150.186 68.6142 149.661 69.3074C149.143 69.9943 148.422 70.5314 147.498 70.9185C146.573 71.3057 145.512 71.4993 144.313 71.4993C142.552 71.4993 141.134 71.1308 140.06 70.394C138.986 69.6509 138.346 68.6174 138.14 67.2935L141.446 66.975C141.596 67.6245 141.915 68.1147 142.402 68.4456C142.889 68.7766 143.523 68.9421 144.303 68.9421C145.109 68.9421 145.755 68.7766 146.242 68.4456C146.736 68.1147 146.982 67.7057 146.982 67.2186C146.982 66.8064 146.823 66.4661 146.505 66.1976C146.192 65.9291 145.705 65.723 145.043 65.5794L142.589 65.0642C141.209 64.7769 140.188 64.293 139.526 63.6123C138.864 62.9254 138.536 62.0574 138.543 61.0083C138.536 60.1215 138.777 59.3534 139.264 58.704C139.757 58.0483 140.441 57.5425 141.315 57.1866C142.196 56.8244 143.211 56.6433 144.36 56.6433C146.046 56.6433 147.373 57.0023 148.341 57.7205C149.315 58.4386 149.917 59.4096 150.148 60.6336Z" fill="#E9E9E9"/>
<path opacity="0.9" d="M52.9217 368.553V379.515H50.604V370.753H50.5398L48.0295 372.326V370.271L50.7432 368.553H52.9217ZM60.2962 368.553V379.515H57.9785V370.753H57.9143L55.4039 372.326V370.271L58.1177 368.553H60.2962Z" fill="white"/>
<path opacity="0.9" d="M115.922 368.553V379.515H113.605V370.753H113.541L111.03 372.326V370.271L113.744 368.553H115.922ZM118.528 379.515V377.845L122.43 374.232C122.762 373.911 123.04 373.622 123.265 373.365C123.493 373.108 123.666 372.856 123.784 372.61C123.902 372.36 123.961 372.091 123.961 371.802C123.961 371.481 123.887 371.204 123.741 370.972C123.595 370.737 123.395 370.557 123.142 370.432C122.888 370.303 122.601 370.239 122.28 370.239C121.944 370.239 121.652 370.307 121.402 370.442C121.152 370.578 120.96 370.772 120.824 371.026C120.688 371.279 120.621 371.581 120.621 371.93H118.421C118.421 371.213 118.583 370.59 118.908 370.062C119.233 369.534 119.687 369.126 120.273 368.837C120.858 368.548 121.532 368.403 122.296 368.403C123.081 368.403 123.764 368.542 124.346 368.821C124.931 369.095 125.386 369.477 125.711 369.966C126.036 370.455 126.198 371.015 126.198 371.647C126.198 372.061 126.116 372.469 125.952 372.872C125.791 373.276 125.504 373.723 125.09 374.216C124.676 374.705 124.093 375.292 123.34 375.977L121.739 377.545V377.62H126.342V379.515H118.528Z" fill="white"/>
<path opacity="0.9" d="M179.76 368.553V379.515H177.443V370.753H177.378L174.868 372.326V370.271L177.582 368.553H179.76ZM186.417 379.665C185.618 379.665 184.906 379.527 184.282 379.253C183.661 378.974 183.17 378.592 182.81 378.107C182.453 377.618 182.269 377.055 182.259 376.416H184.592C184.607 376.683 184.694 376.919 184.855 377.122C185.019 377.322 185.236 377.477 185.508 377.588C185.779 377.699 186.084 377.754 186.423 377.754C186.776 377.754 187.088 377.691 187.36 377.567C187.631 377.442 187.843 377.269 187.996 377.047C188.15 376.826 188.227 376.571 188.227 376.282C188.227 375.989 188.145 375.731 187.98 375.506C187.82 375.277 187.588 375.099 187.285 374.971C186.985 374.842 186.628 374.778 186.214 374.778H185.192V373.076H186.214C186.564 373.076 186.872 373.015 187.14 372.894C187.411 372.772 187.622 372.605 187.772 372.391C187.922 372.173 187.996 371.92 187.996 371.631C187.996 371.356 187.93 371.115 187.798 370.908C187.67 370.697 187.488 370.533 187.252 370.416C187.021 370.298 186.749 370.239 186.439 370.239C186.125 370.239 185.838 370.296 185.577 370.41C185.317 370.521 185.108 370.68 184.951 370.887C184.794 371.094 184.71 371.336 184.699 371.615H182.478C182.489 370.983 182.669 370.426 183.019 369.945C183.368 369.463 183.839 369.086 184.432 368.815C185.028 368.54 185.7 368.403 186.45 368.403C187.206 368.403 187.868 368.54 188.435 368.815C189.003 369.09 189.443 369.461 189.757 369.928C190.075 370.392 190.232 370.913 190.228 371.491C190.232 372.105 190.041 372.617 189.656 373.028C189.274 373.438 188.776 373.698 188.162 373.809V373.895C188.969 373.998 189.583 374.278 190.004 374.735C190.428 375.188 190.639 375.756 190.635 376.437C190.639 377.062 190.459 377.617 190.095 378.102C189.734 378.587 189.236 378.969 188.601 379.247C187.966 379.526 187.238 379.665 186.417 379.665Z" fill="white"/>
<path opacity="0.9" d="M243.679 368.553V379.515H241.361V370.753H241.297L238.787 372.326V370.271L241.5 368.553H243.679ZM246.118 377.588V375.763L250.695 368.553H252.268V371.079H251.337L248.452 375.645V375.731H254.955V377.588H246.118ZM251.38 379.515V377.031L251.423 376.223V368.553H253.596V379.515H251.38Z" fill="white"/>
<path opacity="0.9" d="M307.99 368.553V379.515H305.672V370.753H305.608L303.098 372.326V370.271L305.811 368.553H307.99ZM314.599 379.665C313.842 379.665 313.168 379.526 312.576 379.247C311.987 378.969 311.519 378.585 311.173 378.096C310.827 377.608 310.647 377.047 310.633 376.416H312.881C312.906 376.84 313.084 377.185 313.416 377.449C313.748 377.713 314.142 377.845 314.599 377.845C314.963 377.845 315.284 377.765 315.562 377.604C315.844 377.44 316.064 377.213 316.221 376.924C316.381 376.632 316.462 376.296 316.462 375.918C316.462 375.533 316.379 375.194 316.215 374.901C316.055 374.608 315.832 374.38 315.546 374.216C315.261 374.052 314.934 373.968 314.567 373.964C314.246 373.964 313.933 374.03 313.63 374.162C313.33 374.294 313.097 374.475 312.929 374.703L310.868 374.334L311.387 368.553H318.089V370.448H313.298L313.014 373.194H313.079C313.271 372.922 313.562 372.698 313.951 372.519C314.34 372.341 314.775 372.251 315.257 372.251C315.917 372.251 316.506 372.407 317.024 372.717C317.541 373.028 317.95 373.454 318.249 373.996C318.549 374.535 318.697 375.156 318.694 375.859C318.697 376.598 318.526 377.254 318.18 377.829C317.837 378.4 317.357 378.849 316.74 379.178C316.126 379.502 315.412 379.665 314.599 379.665Z" fill="white"/>
<path opacity="0.9" d="M371.931 368.553V379.515H369.613V370.753H369.549L367.038 372.326V370.271L369.752 368.553H371.931ZM378.743 379.665C378.179 379.661 377.635 379.567 377.111 379.381C376.59 379.196 376.122 378.894 375.708 378.476C375.294 378.059 374.966 377.506 374.723 376.817C374.484 376.129 374.365 375.283 374.365 374.28C374.368 373.359 374.474 372.537 374.68 371.813C374.891 371.085 375.191 370.467 375.58 369.961C375.972 369.454 376.441 369.069 376.987 368.804C377.533 368.537 378.145 368.403 378.823 368.403C379.555 368.403 380.201 368.546 380.761 368.831C381.321 369.113 381.771 369.497 382.11 369.982C382.452 370.467 382.659 371.011 382.731 371.615H380.445C380.356 371.233 380.169 370.933 379.883 370.715C379.598 370.498 379.244 370.389 378.823 370.389C378.11 370.389 377.567 370.699 377.196 371.32C376.829 371.941 376.641 372.785 376.634 373.852H376.709C376.873 373.527 377.094 373.251 377.373 373.022C377.655 372.79 377.974 372.614 378.331 372.492C378.691 372.367 379.071 372.305 379.471 372.305C380.12 372.305 380.699 372.458 381.205 372.765C381.712 373.069 382.112 373.486 382.404 374.018C382.697 374.55 382.843 375.158 382.843 375.843C382.843 376.585 382.67 377.245 382.324 377.823C381.981 378.402 381.501 378.855 380.884 379.183C380.27 379.508 379.557 379.668 378.743 379.665ZM378.732 377.845C379.089 377.845 379.409 377.759 379.69 377.588C379.972 377.417 380.194 377.185 380.354 376.892C380.515 376.6 380.595 376.271 380.595 375.907C380.595 375.543 380.515 375.217 380.354 374.928C380.197 374.639 379.979 374.409 379.701 374.237C379.423 374.066 379.105 373.98 378.748 373.98C378.481 373.98 378.233 374.03 378.004 374.13C377.78 374.23 377.582 374.369 377.41 374.548C377.243 374.726 377.111 374.933 377.014 375.169C376.918 375.401 376.87 375.649 376.87 375.913C376.87 376.266 376.95 376.589 377.111 376.881C377.275 377.174 377.496 377.408 377.774 377.583C378.056 377.757 378.376 377.845 378.732 377.845Z" fill="white"/>
<path opacity="0.9" d="M436.482 368.553V379.515H434.165V370.753H434.1L431.59 372.326V370.271L434.304 368.553H436.482ZM439.521 379.515L444.066 370.523V370.448H438.772V368.553H446.463V370.474L441.914 379.515H439.521Z" fill="white"/>
<path opacity="0.9" d="M500.042 368.553V379.515H497.725V370.753H497.66L495.15 372.326V370.271L497.864 368.553H500.042ZM506.737 379.665C505.913 379.665 505.179 379.531 504.537 379.263C503.898 378.992 503.397 378.623 503.033 378.155C502.669 377.688 502.487 377.158 502.487 376.566C502.487 376.109 502.591 375.69 502.798 375.308C503.008 374.922 503.294 374.603 503.654 374.35C504.014 374.093 504.418 373.929 504.864 373.857V373.782C504.278 373.665 503.804 373.381 503.44 372.931C503.076 372.478 502.894 371.952 502.894 371.352C502.894 370.785 503.06 370.28 503.392 369.837C503.724 369.391 504.179 369.042 504.757 368.788C505.338 368.531 505.998 368.403 506.737 368.403C507.476 368.403 508.134 368.531 508.712 368.788C509.294 369.045 509.751 369.397 510.082 369.843C510.414 370.285 510.582 370.788 510.586 371.352C510.582 371.955 510.396 372.482 510.029 372.931C509.661 373.381 509.19 373.665 508.616 373.782V373.857C509.055 373.929 509.453 374.093 509.809 374.35C510.17 374.603 510.455 374.922 510.666 375.308C510.88 375.69 510.989 376.109 510.992 376.566C510.989 377.158 510.805 377.688 510.441 378.155C510.077 378.623 509.574 378.992 508.932 379.263C508.293 379.531 507.561 379.665 506.737 379.665ZM506.737 377.963C507.105 377.963 507.426 377.897 507.701 377.765C507.975 377.629 508.189 377.443 508.343 377.208C508.5 376.969 508.578 376.694 508.578 376.384C508.578 376.066 508.498 375.786 508.337 375.543C508.177 375.297 507.959 375.104 507.684 374.965C507.41 374.822 507.094 374.751 506.737 374.751C506.384 374.751 506.068 374.822 505.79 374.965C505.511 375.104 505.292 375.297 505.131 375.543C504.974 375.786 504.896 376.066 504.896 376.384C504.896 376.694 504.973 376.969 505.126 377.208C505.279 377.443 505.495 377.629 505.774 377.765C506.052 377.897 506.373 377.963 506.737 377.963ZM506.737 373.065C507.044 373.065 507.317 373.003 507.556 372.878C507.795 372.753 507.982 372.58 508.118 372.359C508.254 372.137 508.321 371.882 508.321 371.593C508.321 371.308 508.254 371.058 508.118 370.844C507.982 370.626 507.797 370.457 507.561 370.335C507.326 370.21 507.051 370.148 506.737 370.148C506.427 370.148 506.152 370.21 505.913 370.335C505.674 370.457 505.486 370.626 505.351 370.844C505.219 371.058 505.153 371.308 505.153 371.593C505.153 371.882 505.221 372.137 505.356 372.359C505.492 372.58 505.679 372.753 505.918 372.878C506.157 373.003 506.43 373.065 506.737 373.065Z" fill="white"/>
<path opacity="0.9" d="M564.108 368.553V379.515H561.791V370.753H561.726L559.216 372.326V370.271L561.93 368.553H564.108ZM570.68 368.403C571.244 368.403 571.786 368.498 572.307 368.687C572.832 368.876 573.299 369.177 573.709 369.591C574.123 370.005 574.45 370.555 574.689 371.24C574.932 371.921 575.055 372.758 575.058 373.75C575.058 374.682 574.953 375.513 574.743 376.244C574.536 376.972 574.238 377.592 573.849 378.102C573.46 378.612 572.99 379.001 572.441 379.269C571.891 379.533 571.278 379.665 570.6 379.665C569.868 379.665 569.222 379.524 568.662 379.242C568.102 378.956 567.65 378.569 567.308 378.08C566.969 377.588 566.764 377.035 566.692 376.421H568.978C569.067 376.821 569.254 377.131 569.54 377.352C569.825 377.57 570.179 377.679 570.6 377.679C571.313 377.679 571.856 377.369 572.227 376.748C572.598 376.123 572.785 375.269 572.789 374.184H572.714C572.55 374.505 572.329 374.781 572.05 375.013C571.772 375.242 571.452 375.418 571.092 375.543C570.735 375.668 570.355 375.731 569.952 375.731C569.306 375.731 568.73 375.579 568.223 375.276C567.716 374.972 567.317 374.555 567.024 374.023C566.732 373.491 566.585 372.885 566.585 372.203C566.582 371.468 566.751 370.813 567.094 370.239C567.436 369.664 567.914 369.215 568.528 368.89C569.146 368.562 569.863 368.399 570.68 368.403ZM570.696 370.223C570.336 370.223 570.014 370.309 569.733 370.48C569.454 370.651 569.233 370.881 569.069 371.17C568.908 371.459 568.83 371.782 568.833 372.139C568.833 372.499 568.912 372.824 569.069 373.113C569.229 373.399 569.447 373.627 569.722 373.798C570 373.966 570.318 374.05 570.675 374.05C570.942 374.05 571.19 374 571.419 373.9C571.647 373.8 571.845 373.663 572.013 373.488C572.184 373.31 572.318 373.104 572.414 372.872C572.51 372.64 572.559 372.394 572.559 372.134C572.555 371.788 572.473 371.47 572.312 371.181C572.152 370.892 571.931 370.66 571.649 370.485C571.367 370.31 571.049 370.223 570.696 370.223Z" fill="white"/>
<path opacity="0.9" d="M622.125 379.515V377.845L626.027 374.232C626.358 373.911 626.637 373.622 626.862 373.365C627.09 373.108 627.263 372.856 627.381 372.61C627.499 372.36 627.557 372.091 627.557 371.802C627.557 371.481 627.484 371.204 627.338 370.972C627.192 370.737 626.992 370.557 626.738 370.432C626.485 370.303 626.198 370.239 625.877 370.239C625.541 370.239 625.249 370.307 624.999 370.442C624.749 370.578 624.556 370.772 624.421 371.026C624.285 371.279 624.217 371.581 624.217 371.93H622.018C622.018 371.213 622.18 370.59 622.505 370.062C622.829 369.534 623.284 369.126 623.87 368.837C624.455 368.548 625.129 368.403 625.893 368.403C626.678 368.403 627.361 368.542 627.943 368.821C628.528 369.095 628.983 369.477 629.308 369.966C629.632 370.455 629.795 371.015 629.795 371.647C629.795 372.061 629.713 372.469 629.549 372.872C629.388 373.276 629.101 373.723 628.687 374.216C628.273 374.705 627.689 375.292 626.937 375.977L625.336 377.545V377.62H629.939V379.515H622.125ZM635.917 379.756C634.996 379.752 634.204 379.526 633.54 379.076C632.88 378.626 632.372 377.975 632.015 377.122C631.661 376.269 631.487 375.244 631.49 374.045C631.49 372.849 631.667 371.83 632.02 370.988C632.377 370.146 632.885 369.506 633.546 369.067C634.209 368.624 635 368.403 635.917 368.403C636.834 368.403 637.622 368.624 638.283 369.067C638.946 369.509 639.457 370.152 639.813 370.994C640.17 371.832 640.347 372.849 640.343 374.045C640.343 375.247 640.165 376.275 639.808 377.128C639.455 377.98 638.948 378.632 638.288 379.081C637.628 379.531 636.837 379.756 635.917 379.756ZM635.917 377.834C636.545 377.834 637.046 377.518 637.421 376.887C637.795 376.255 637.981 375.308 637.977 374.045C637.977 373.213 637.892 372.521 637.721 371.968C637.553 371.415 637.314 370.999 637.003 370.721C636.696 370.442 636.334 370.303 635.917 370.303C635.292 370.303 634.793 370.615 634.418 371.24C634.043 371.864 633.854 372.799 633.851 374.045C633.851 374.887 633.935 375.59 634.102 376.153C634.274 376.714 634.514 377.135 634.825 377.417C635.135 377.695 635.499 377.834 635.917 377.834Z" fill="white"/>
<g clip-path="url(#clip0_1351_45)">
<rect x="37.6816" y="154.496" width="33.9137" height="194.062" rx="16.9569" fill="white" fill-opacity="0.1"/>
<rect x="37.6816" y="216.671" width="33.9137" height="131.887" rx="16.9569" fill="white" fill-opacity="0.2"/>
</g>
<g clip-path="url(#clip1_1351_45)">
<rect x="101.742" y="139.423" width="33.9137" height="209.135" rx="16.9569" fill="white" fill-opacity="0.1"/>
<rect x="101.742" y="250.585" width="33.9137" height="97.973" rx="16.9569" fill="white" fill-opacity="0.2"/>
</g>
<g clip-path="url(#clip2_1351_45)">
<rect x="165.801" y="184.641" width="33.9137" height="163.916" rx="16.9569" fill="white" fill-opacity="0.1"/>
<rect x="165.801" y="231.744" width="33.9137" height="116.814" rx="16.9569" fill="white" fill-opacity="0.2"/>
</g>
<g clip-path="url(#clip3_1351_45)">
<rect x="293.92" y="154.496" width="33.9137" height="194.062" rx="16.9569" fill="white" fill-opacity="0.1"/>
<rect x="293.92" y="278.846" width="33.9137" height="69.7116" rx="16.9569" fill="white" fill-opacity="0.2"/>
</g>
<g clip-path="url(#clip4_1351_45)">
<rect x="357.979" y="139.423" width="33.9137" height="209.135" rx="16.9569" fill="white" fill-opacity="0.1"/>
<rect x="357.979" y="237.396" width="33.9137" height="111.162" rx="16.9569" fill="white" fill-opacity="0.2"/>
</g>
<g clip-path="url(#clip5_1351_45)">
<rect x="422.037" y="154.496" width="33.9137" height="194.062" rx="16.9569" fill="white" fill-opacity="0.1"/>
<rect x="422.037" y="252.469" width="33.9137" height="96.089" rx="16.9569" fill="white" fill-opacity="0.2"/>
</g>
<g clip-path="url(#clip6_1351_45)">
<rect x="486.098" y="131.887" width="33.9137" height="216.671" rx="16.9569" fill="white" fill-opacity="0.1"/>
<rect x="486.098" y="222.323" width="33.9137" height="126.235" rx="16.9569" fill="white" fill-opacity="0.2"/>
</g>
<g clip-path="url(#clip7_1351_45)">
<rect x="550.156" y="184.641" width="33.9137" height="163.916" rx="16.9569" fill="white" fill-opacity="0.1"/>
<rect x="550.156" y="275.078" width="33.9137" height="73.4798" rx="16.9569" fill="white" fill-opacity="0.2"/>
</g>
<g clip-path="url(#clip8_1351_45)">
<rect x="614.215" y="131.887" width="33.9137" height="216.671" rx="16.9569" fill="white" fill-opacity="0.1"/>
<rect x="614.215" y="237.396" width="33.9137" height="111.162" rx="16.9569" fill="white" fill-opacity="0.2"/>
</g>
<g clip-path="url(#clip9_1351_45)">
<g clip-path="url(#clip10_1351_45)">
<rect x="229.859" y="126.234" width="33.9137" height="222.323" rx="16.9569" fill="white" fill-opacity="0.1"/>
<rect x="229.859" y="192.178" width="33.9137" height="156.38" rx="16.9569" fill="#0B8AFF"/>
</g>
</g>
<circle cx="41.4498" cy="197.83" r="3.76819" fill="#E7E7E7"/>
<circle cx="64.0592" cy="197.83" r="3.76819" fill="#E7E7E7"/>
<circle cx="86.6686" cy="197.83" r="3.76819" fill="#E7E7E7"/>
<circle cx="109.278" cy="197.83" r="3.76819" fill="#E7E7E7"/>
<circle cx="131.887" cy="197.83" r="3.76819" fill="#E7E7E7"/>
<circle cx="154.497" cy="197.83" r="3.76819" fill="#E7E7E7"/>
<circle cx="177.106" cy="197.83" r="3.76819" fill="#E7E7E7"/>
<circle cx="199.714" cy="197.83" r="3.76819" fill="#E7E7E7"/>
<circle cx="222.323" cy="197.83" r="3.76819" fill="#E7E7E7"/>
<circle cx="244.932" cy="197.83" r="3.76819" fill="#E7E7E7"/>
<circle cx="267.542" cy="197.83" r="3.76819" fill="#E7E7E7"/>
<circle cx="290.151" cy="197.83" r="3.76819" fill="#E7E7E7"/>
<circle cx="312.76" cy="197.83" r="3.76819" fill="#E7E7E7"/>
<circle cx="335.37" cy="197.83" r="3.76819" fill="#E7E7E7"/>
<circle cx="357.979" cy="197.83" r="3.76819" fill="#E7E7E7"/>
<circle cx="380.589" cy="197.83" r="3.76819" fill="#E7E7E7"/>
<circle cx="403.196" cy="197.83" r="3.76819" fill="#E7E7E7"/>
<circle cx="425.805" cy="197.83" r="3.76819" fill="#E7E7E7"/>
<circle cx="448.415" cy="197.83" r="3.76819" fill="#E7E7E7"/>
<circle cx="471.024" cy="197.83" r="3.76819" fill="#E7E7E7"/>
<circle cx="493.633" cy="197.83" r="3.76819" fill="#E7E7E7"/>
<circle cx="516.243" cy="197.83" r="3.76819" fill="#E7E7E7"/>
<circle cx="538.852" cy="197.83" r="3.76819" fill="#E7E7E7"/>
<circle cx="561.462" cy="197.83" r="3.76819" fill="#E7E7E7"/>
<circle cx="584.071" cy="197.83" r="3.76819" fill="#E7E7E7"/>
<circle cx="606.678" cy="197.83" r="3.76819" fill="#E7E7E7"/>
<circle cx="629.288" cy="197.83" r="3.76819" fill="#E7E7E7"/>
<circle cx="651.897" cy="197.83" r="3.76819" fill="#E7E7E7"/>
<rect x="207.244" y="175.852" width="79.1456" height="34.5364" rx="17.2682" fill="white"/>
<path d="M229.799 201.845C229.012 201.84 228.244 201.703 227.495 201.435C226.746 201.162 226.071 200.721 225.472 200.111C224.872 199.495 224.396 198.679 224.043 197.662C223.689 196.64 223.515 195.374 223.521 193.864C223.521 192.457 223.671 191.201 223.97 190.099C224.27 188.996 224.701 188.065 225.263 187.305C225.825 186.539 226.502 185.956 227.294 185.554C228.092 185.153 228.983 184.952 229.968 184.952C231.001 184.952 231.916 185.156 232.714 185.562C233.517 185.969 234.164 186.526 234.657 187.232C235.149 187.934 235.454 188.726 235.572 189.609H232.641C232.492 188.977 232.184 188.474 231.718 188.1C231.258 187.72 230.674 187.53 229.968 187.53C228.828 187.53 227.95 188.025 227.334 189.015C226.724 190.005 226.416 191.365 226.411 193.094H226.524C226.786 192.622 227.126 192.218 227.543 191.881C227.961 191.544 228.432 191.284 228.956 191.102C229.486 190.915 230.045 190.821 230.634 190.821C231.598 190.821 232.462 191.052 233.228 191.512C233.998 191.972 234.609 192.606 235.058 193.415C235.508 194.218 235.73 195.138 235.725 196.177C235.73 197.258 235.484 198.229 234.986 199.091C234.488 199.947 233.795 200.622 232.906 201.114C232.018 201.607 230.982 201.85 229.799 201.845ZM229.783 199.436C230.367 199.436 230.889 199.294 231.349 199.011C231.809 198.727 232.173 198.344 232.441 197.863C232.708 197.381 232.84 196.84 232.834 196.241C232.84 195.652 232.711 195.119 232.449 194.643C232.192 194.167 231.836 193.789 231.381 193.511C230.926 193.233 230.407 193.094 229.823 193.094C229.39 193.094 228.986 193.176 228.611 193.342C228.236 193.508 227.91 193.738 227.631 194.033C227.353 194.322 227.134 194.659 226.973 195.045C226.818 195.425 226.738 195.831 226.732 196.265C226.738 196.838 226.871 197.365 227.134 197.847C227.396 198.328 227.757 198.714 228.218 199.003C228.678 199.292 229.2 199.436 229.783 199.436ZM238.141 198.569V196.201L245.118 185.177H247.093V188.549H245.889L241.192 195.992V196.12H250.931V198.569H238.141ZM245.985 201.62V197.847L246.017 196.787V185.177H248.828V201.62H245.985ZM262.288 198.537V197.67C262.288 197.033 262.422 196.447 262.689 195.912C262.962 195.376 263.358 194.945 263.878 194.619C264.397 194.292 265.026 194.129 265.764 194.129C266.524 194.129 267.161 194.292 267.675 194.619C268.189 194.94 268.577 195.368 268.839 195.904C269.107 196.439 269.241 197.028 269.241 197.67V198.537C269.241 199.174 269.107 199.76 268.839 200.295C268.572 200.831 268.178 201.261 267.659 201.588C267.145 201.915 266.514 202.078 265.764 202.078C265.015 202.078 264.381 201.915 263.862 201.588C263.342 201.261 262.949 200.831 262.681 200.295C262.419 199.76 262.288 199.174 262.288 198.537ZM264.383 197.67V198.537C264.383 198.96 264.485 199.348 264.689 199.701C264.892 200.054 265.251 200.231 265.764 200.231C266.284 200.231 266.64 200.057 266.832 199.709C267.03 199.356 267.129 198.965 267.129 198.537V197.67C267.129 197.242 267.036 196.851 266.848 196.498C266.661 196.139 266.3 195.96 265.764 195.96C265.261 195.96 264.905 196.139 264.697 196.498C264.488 196.851 264.383 197.242 264.383 197.67ZM253.93 189.127V188.26C253.93 187.618 254.066 187.029 254.339 186.494C254.612 185.959 255.008 185.53 255.528 185.209C256.047 184.883 256.676 184.719 257.414 184.719C258.169 184.719 258.803 184.883 259.317 185.209C259.836 185.53 260.227 185.959 260.489 186.494C260.752 187.029 260.883 187.618 260.883 188.26V189.127C260.883 189.77 260.749 190.358 260.481 190.894C260.219 191.424 259.828 191.849 259.309 192.17C258.79 192.491 258.158 192.652 257.414 192.652C256.66 192.652 256.023 192.491 255.504 192.17C254.99 191.849 254.599 191.421 254.331 190.886C254.064 190.35 253.93 189.764 253.93 189.127ZM256.041 188.26V189.127C256.041 189.555 256.14 189.946 256.339 190.299C256.542 190.647 256.901 190.821 257.414 190.821C257.928 190.821 258.282 190.647 258.474 190.299C258.672 189.946 258.771 189.555 258.771 189.127V188.26C258.771 187.832 258.678 187.441 258.49 187.088C258.303 186.729 257.944 186.55 257.414 186.55C256.906 186.55 256.55 186.729 256.347 187.088C256.143 187.447 256.041 187.837 256.041 188.26ZM254.845 201.62L266.15 185.177H268.157L256.852 201.62H254.845Z" fill="black"/>
<defs>
<clipPath id="clip0_1351_45">
<rect x="37.6816" y="154.496" width="33.9137" height="194.062" rx="16.9569" fill="white"/>
</clipPath>
<clipPath id="clip1_1351_45">
<rect x="101.742" y="139.423" width="33.9137" height="209.135" rx="16.9569" fill="white"/>
</clipPath>
<clipPath id="clip2_1351_45">
<rect x="165.801" y="184.641" width="33.9137" height="163.916" rx="16.9569" fill="white"/>
</clipPath>
<clipPath id="clip3_1351_45">
<rect x="293.92" y="154.496" width="33.9137" height="194.062" rx="16.9569" fill="white"/>
</clipPath>
<clipPath id="clip4_1351_45">
<rect x="357.979" y="139.423" width="33.9137" height="209.135" rx="16.9569" fill="white"/>
</clipPath>
<clipPath id="clip5_1351_45">
<rect x="422.037" y="154.496" width="33.9137" height="194.062" rx="16.9569" fill="white"/>
</clipPath>
<clipPath id="clip6_1351_45">
<rect x="486.098" y="131.887" width="33.9137" height="216.671" rx="16.9569" fill="white"/>
</clipPath>
<clipPath id="clip7_1351_45">
<rect x="550.156" y="184.641" width="33.9137" height="163.916" rx="16.9569" fill="white"/>
</clipPath>
<clipPath id="clip8_1351_45">
<rect x="614.215" y="131.887" width="33.9137" height="216.671" rx="16.9569" fill="white"/>
</clipPath>
<clipPath id="clip9_1351_45">
<rect width="79.1321" height="222.323" fill="white" transform="translate(207.25 126.234)"/>
</clipPath>
<clipPath id="clip10_1351_45">
<rect x="229.859" y="126.234" width="33.9137" height="222.323" rx="16.9569" fill="white"/>
</clipPath>
</defs>
</svg>
