<svg width="699" height="441" viewBox="0 0 699 441" fill="none" xmlns="http://www.w3.org/2000/svg">
<rect width="699" height="440.879" fill="white"/>
<path d="M39.5738 71.2183V52.0347H46.7676C48.2413 52.0347 49.4778 52.3095 50.4769 52.859C51.4823 53.4086 52.241 54.1642 52.7531 55.1258C53.2714 56.0813 53.5305 57.1678 53.5305 58.3855C53.5305 59.6157 53.2714 60.7085 52.7531 61.664C52.2348 62.6194 51.4698 63.3719 50.4582 63.9214C49.4465 64.4647 48.2007 64.7363 46.7208 64.7363H41.953V61.8794H46.2524C47.1142 61.8794 47.8198 61.7295 48.3693 61.4298C48.9189 61.13 49.3248 60.7179 49.587 60.1934C49.8556 59.6688 49.9898 59.0662 49.9898 58.3855C49.9898 57.7049 49.8556 57.1054 49.587 56.5871C49.3248 56.0688 48.9157 55.666 48.36 55.3787C47.8104 55.0852 47.1017 54.9385 46.2337 54.9385H43.0489V71.2183H39.5738ZM56.3992 71.2183V56.8306H59.687V59.2286H59.8368C60.0991 58.398 60.5487 57.7579 61.1857 57.3083C61.8289 56.8525 62.5626 56.6245 63.3869 56.6245C63.5743 56.6245 63.7834 56.6339 64.0145 56.6526C64.2518 56.6651 64.4485 56.687 64.6046 56.7182V59.8374C64.461 59.7875 64.2331 59.7437 63.9208 59.7063C63.6148 59.6626 63.3182 59.6407 63.031 59.6407C62.4128 59.6407 61.857 59.775 61.3637 60.0435C60.8766 60.3058 60.4925 60.6711 60.2115 61.1394C59.9305 61.6078 59.79 62.1479 59.79 62.7599V71.2183H56.3992ZM72.5408 71.4993C71.1357 71.4993 69.918 71.1902 68.8877 70.5719C67.8573 69.9537 67.058 69.0888 66.4897 67.9773C65.9277 66.8657 65.6467 65.5669 65.6467 64.0806C65.6467 62.5944 65.9277 61.2924 66.4897 60.1746C67.058 59.0568 67.8573 58.1888 68.8877 57.5706C69.918 56.9524 71.1357 56.6433 72.5408 56.6433C73.9458 56.6433 75.1635 56.9524 76.1939 57.5706C77.2243 58.1888 78.0204 59.0568 78.5825 60.1746C79.1507 61.2924 79.4349 62.5944 79.4349 64.0806C79.4349 65.5669 79.1507 66.8657 78.5825 67.9773C78.0204 69.0888 77.2243 69.9537 76.1939 70.5719C75.1635 71.1902 73.9458 71.4993 72.5408 71.4993ZM72.5595 68.7829C73.3214 68.7829 73.9583 68.5737 74.4704 68.1553C74.9824 67.7306 75.3634 67.1624 75.6131 66.4505C75.8692 65.7386 75.9972 64.9455 75.9972 64.0713C75.9972 63.1908 75.8692 62.3946 75.6131 61.6827C75.3634 60.9646 74.9824 60.3932 74.4704 59.9685C73.9583 59.5439 73.3214 59.3316 72.5595 59.3316C71.7789 59.3316 71.1295 59.5439 70.6112 59.9685C70.0991 60.3932 69.7151 60.9646 69.459 61.6827C69.2093 62.3946 69.0844 63.1908 69.0844 64.0713C69.0844 64.9455 69.2093 65.7386 69.459 66.4505C69.7151 67.1624 70.0991 67.7306 70.6112 68.1553C71.1295 68.5737 71.7789 68.7829 72.5595 68.7829ZM88.57 76.9134C87.3523 76.9134 86.3063 76.7479 85.432 76.4169C84.5578 76.0922 83.8553 75.6551 83.3245 75.1055C82.7937 74.556 82.4253 73.9472 82.2192 73.279L85.2728 72.539C85.4102 72.82 85.61 73.0979 85.8723 73.3727C86.1346 73.6537 86.4874 73.8847 86.9308 74.0658C87.3804 74.2532 87.9455 74.3468 88.6262 74.3468C89.5879 74.3468 90.384 74.1127 91.0148 73.6443C91.6455 73.1822 91.9608 72.4204 91.9608 71.3588V68.633H91.7922C91.6174 68.9827 91.3613 69.3417 91.0241 69.7102C90.6932 70.0786 90.2529 70.3877 89.7034 70.6375C89.1601 70.8873 88.4763 71.0122 87.652 71.0122C86.5467 71.0122 85.5445 70.753 84.6452 70.2347C83.7522 69.7102 83.0404 68.9296 82.5096 67.893C81.985 66.8501 81.7227 65.545 81.7227 63.9776C81.7227 62.3977 81.985 61.0645 82.5096 59.9779C83.0404 58.8851 83.7554 58.0577 84.6546 57.4957C85.5538 56.9274 86.5561 56.6433 87.6614 56.6433C88.5044 56.6433 89.1976 56.7869 89.7409 57.0742C90.2904 57.3552 90.7275 57.6955 91.0522 58.0952C91.3769 58.4886 91.6236 58.8601 91.7922 59.2098H91.9796V56.8306H95.3236V71.4524C95.3236 72.6826 95.0301 73.7005 94.4431 74.5061C93.8561 75.3116 93.0536 75.9142 92.0358 76.3139C91.0179 76.7135 89.8626 76.9134 88.57 76.9134ZM88.5981 68.352C89.3162 68.352 89.9282 68.1771 90.434 67.8274C90.9398 67.4777 91.3239 66.975 91.5861 66.3193C91.8484 65.6637 91.9796 64.8768 91.9796 63.9589C91.9796 63.0534 91.8484 62.2603 91.5861 61.5797C91.3301 60.899 90.9492 60.3713 90.4434 59.9966C89.9438 59.6157 89.3287 59.4253 88.5981 59.4253C87.8425 59.4253 87.2118 59.622 86.706 60.0154C86.2001 60.4088 85.8192 60.949 85.5632 61.6359C85.3072 62.3165 85.1791 63.0909 85.1791 63.9589C85.1791 64.8394 85.3072 65.6106 85.5632 66.2725C85.8255 66.9282 86.2095 67.4403 86.7153 67.8087C87.2274 68.1709 87.855 68.352 88.5981 68.352ZM98.7987 71.2183V56.8306H102.087V59.2286H102.236C102.499 58.398 102.948 57.7579 103.585 57.3083C104.228 56.8525 104.962 56.6245 105.786 56.6245C105.974 56.6245 106.183 56.6339 106.414 56.6526C106.651 56.6651 106.848 56.687 107.004 56.7182V59.8374C106.861 59.7875 106.633 59.7437 106.32 59.7063C106.014 59.6626 105.718 59.6407 105.431 59.6407C104.812 59.6407 104.257 59.775 103.763 60.0435C103.276 60.3058 102.892 60.6711 102.611 61.1394C102.33 61.6078 102.19 62.1479 102.19 62.7599V71.2183H98.7987ZM115.034 71.4993C113.591 71.4993 112.346 71.1995 111.297 70.6C110.254 69.9943 109.451 69.1388 108.889 68.0335C108.327 66.922 108.046 65.6137 108.046 64.1087C108.046 62.6288 108.327 61.3299 108.889 60.2121C109.458 59.0881 110.251 58.2138 111.268 57.5893C112.286 56.9586 113.482 56.6433 114.856 56.6433C115.743 56.6433 116.58 56.7869 117.366 57.0742C118.159 57.3552 118.859 57.7923 119.465 58.3855C120.077 58.9788 120.557 59.7344 120.907 60.6523C121.257 61.5641 121.432 62.6506 121.432 63.912V64.9518H109.639V62.6662H118.181C118.175 62.0168 118.035 61.4392 117.76 60.9333C117.485 60.4213 117.101 60.0185 116.608 59.725C116.121 59.4315 115.552 59.2848 114.903 59.2848C114.21 59.2848 113.601 59.4534 113.076 59.7906C112.552 60.1215 112.143 60.5587 111.849 61.1019C111.562 61.639 111.415 62.2291 111.409 62.8723V64.8675C111.409 65.7042 111.562 66.4224 111.868 67.0219C112.174 67.6151 112.602 68.071 113.151 68.3894C113.701 68.7017 114.344 68.8578 115.081 68.8578C115.574 68.8578 116.021 68.7891 116.42 68.6517C116.82 68.5081 117.167 68.2989 117.46 68.0241C117.754 67.7494 117.975 67.409 118.125 67.0031L121.291 67.3591C121.091 68.1959 120.71 68.9265 120.148 69.5509C119.593 70.1692 118.881 70.65 118.013 70.9935C117.145 71.3307 116.152 71.4993 115.034 71.4993ZM135.672 60.6336L132.581 60.9708C132.493 60.6586 132.34 60.3651 132.122 60.0903C131.909 59.8156 131.622 59.5939 131.26 59.4253C130.898 59.2567 130.454 59.1724 129.93 59.1724C129.224 59.1724 128.631 59.3253 128.15 59.6313C127.675 59.9373 127.441 60.3339 127.448 60.8209C127.441 61.2393 127.594 61.5797 127.907 61.8419C128.225 62.1042 128.75 62.3197 129.48 62.4883L131.934 63.0128C133.296 63.3063 134.307 63.7715 134.969 64.4085C135.637 65.0454 135.975 65.8791 135.981 66.9095C135.975 67.8149 135.709 68.6142 135.185 69.3074C134.666 69.9943 133.945 70.5314 133.021 70.9185C132.097 71.3057 131.035 71.4993 129.836 71.4993C128.075 71.4993 126.658 71.1308 125.584 70.394C124.509 69.6509 123.869 68.6174 123.663 67.2935L126.97 66.975C127.12 67.6245 127.438 68.1147 127.925 68.4456C128.412 68.7766 129.046 68.9421 129.827 68.9421C130.632 68.9421 131.279 68.7766 131.766 68.4456C132.259 68.1147 132.506 67.7057 132.506 67.2186C132.506 66.8064 132.346 66.4661 132.028 66.1976C131.716 65.9291 131.229 65.723 130.567 65.5794L128.113 65.0642C126.733 64.7769 125.712 64.293 125.05 63.6123C124.388 62.9254 124.06 62.0574 124.066 61.0083C124.06 60.1215 124.3 59.3534 124.787 58.704C125.281 58.0483 125.964 57.5425 126.839 57.1866C127.719 56.8244 128.734 56.6433 129.883 56.6433C131.569 56.6433 132.896 57.0023 133.864 57.7205C134.838 58.4386 135.441 59.4096 135.672 60.6336ZM150.148 60.6336L147.057 60.9708C146.97 60.6586 146.817 60.3651 146.598 60.0903C146.386 59.8156 146.099 59.5939 145.737 59.4253C145.374 59.2567 144.931 59.1724 144.406 59.1724C143.701 59.1724 143.108 59.3253 142.627 59.6313C142.152 59.9373 141.918 60.3339 141.924 60.8209C141.918 61.2393 142.071 61.5797 142.383 61.8419C142.702 62.1042 143.226 62.3197 143.957 62.4883L146.411 63.0128C147.772 63.3063 148.784 63.7715 149.446 64.4085C150.114 65.0454 150.451 65.8791 150.457 66.9095C150.451 67.8149 150.186 68.6142 149.661 69.3074C149.143 69.9943 148.422 70.5314 147.498 70.9185C146.573 71.3057 145.512 71.4993 144.313 71.4993C142.552 71.4993 141.134 71.1308 140.06 70.394C138.986 69.6509 138.346 68.6174 138.14 67.2935L141.446 66.975C141.596 67.6245 141.915 68.1147 142.402 68.4456C142.889 68.7766 143.523 68.9421 144.303 68.9421C145.109 68.9421 145.755 68.7766 146.242 68.4456C146.736 68.1147 146.982 67.7057 146.982 67.2186C146.982 66.8064 146.823 66.4661 146.505 66.1976C146.192 65.9291 145.705 65.723 145.043 65.5794L142.589 65.0642C141.209 64.7769 140.188 64.293 139.526 63.6123C138.864 62.9254 138.536 62.0574 138.543 61.0083C138.536 60.1215 138.777 59.3534 139.264 58.704C139.757 58.0483 140.441 57.5425 141.315 57.1866C142.196 56.8244 143.211 56.6433 144.36 56.6433C146.046 56.6433 147.373 57.0023 148.341 57.7205C149.315 58.4386 149.917 59.4096 150.148 60.6336Z" fill="#161616"/>
<path opacity="0.9" d="M52.9217 368.553V379.515H50.604V370.753H50.5398L48.0295 372.326V370.271L50.7432 368.553H52.9217ZM60.2962 368.553V379.515H57.9785V370.753H57.9143L55.4039 372.326V370.271L58.1177 368.553H60.2962Z" fill="black"/>
<path opacity="0.9" d="M115.921 368.553V379.515H113.604V370.753H113.54L111.029 372.326V370.271L113.743 368.553H115.921ZM118.527 379.515V377.845L122.429 374.232C122.761 373.911 123.039 373.622 123.264 373.365C123.492 373.108 123.665 372.856 123.783 372.61C123.901 372.36 123.96 372.091 123.96 371.802C123.96 371.481 123.886 371.204 123.74 370.972C123.594 370.737 123.394 370.557 123.141 370.432C122.887 370.303 122.6 370.239 122.279 370.239C121.944 370.239 121.651 370.307 121.401 370.442C121.151 370.578 120.959 370.772 120.823 371.026C120.687 371.279 120.62 371.581 120.62 371.93H118.42C118.42 371.213 118.582 370.59 118.907 370.062C119.232 369.534 119.687 369.126 120.272 368.837C120.857 368.548 121.531 368.403 122.295 368.403C123.08 368.403 123.763 368.542 124.345 368.821C124.93 369.095 125.385 369.477 125.71 369.966C126.035 370.455 126.197 371.015 126.197 371.647C126.197 372.061 126.115 372.469 125.951 372.872C125.79 373.276 125.503 373.723 125.089 374.216C124.675 374.705 124.092 375.292 123.339 375.977L121.738 377.545V377.62H126.342V379.515H118.527Z" fill="black"/>
<path opacity="0.9" d="M179.76 368.553V379.515H177.443V370.753H177.378L174.868 372.326V370.271L177.582 368.553H179.76ZM186.417 379.665C185.618 379.665 184.906 379.527 184.282 379.253C183.661 378.974 183.17 378.592 182.81 378.107C182.453 377.618 182.269 377.055 182.259 376.416H184.592C184.607 376.683 184.694 376.919 184.855 377.122C185.019 377.322 185.236 377.477 185.508 377.588C185.779 377.699 186.084 377.754 186.423 377.754C186.776 377.754 187.088 377.691 187.36 377.567C187.631 377.442 187.843 377.269 187.996 377.047C188.15 376.826 188.227 376.571 188.227 376.282C188.227 375.989 188.145 375.731 187.98 375.506C187.82 375.277 187.588 375.099 187.285 374.971C186.985 374.842 186.628 374.778 186.214 374.778H185.192V373.076H186.214C186.564 373.076 186.872 373.015 187.14 372.894C187.411 372.772 187.622 372.605 187.772 372.391C187.922 372.173 187.996 371.92 187.996 371.631C187.996 371.356 187.93 371.115 187.798 370.908C187.67 370.697 187.488 370.533 187.252 370.416C187.021 370.298 186.749 370.239 186.439 370.239C186.125 370.239 185.838 370.296 185.577 370.41C185.317 370.521 185.108 370.68 184.951 370.887C184.794 371.094 184.71 371.336 184.699 371.615H182.478C182.489 370.983 182.669 370.426 183.019 369.945C183.368 369.463 183.839 369.086 184.432 368.815C185.028 368.54 185.7 368.403 186.45 368.403C187.206 368.403 187.868 368.54 188.435 368.815C189.003 369.09 189.443 369.461 189.757 369.928C190.075 370.392 190.232 370.913 190.228 371.491C190.232 372.105 190.041 372.617 189.656 373.028C189.274 373.438 188.776 373.698 188.162 373.809V373.895C188.969 373.998 189.583 374.278 190.004 374.735C190.428 375.188 190.639 375.756 190.635 376.437C190.639 377.062 190.459 377.617 190.095 378.102C189.734 378.587 189.236 378.969 188.601 379.247C187.966 379.526 187.238 379.665 186.417 379.665Z" fill="black"/>
<path opacity="0.9" d="M243.679 368.553V379.515H241.361V370.753H241.297L238.787 372.326V370.271L241.5 368.553H243.679ZM246.118 377.588V375.763L250.695 368.553H252.268V371.079H251.337L248.452 375.645V375.731H254.955V377.588H246.118ZM251.38 379.515V377.031L251.423 376.223V368.553H253.596V379.515H251.38Z" fill="black"/>
<path opacity="0.9" d="M307.989 368.553V379.515H305.671V370.753H305.607L303.097 372.326V370.271L305.81 368.553H307.989ZM314.598 379.665C313.841 379.665 313.167 379.526 312.575 379.247C311.986 378.969 311.518 378.585 311.172 378.096C310.826 377.608 310.646 377.047 310.632 376.416H312.88C312.905 376.84 313.083 377.185 313.415 377.449C313.747 377.713 314.141 377.845 314.598 377.845C314.962 377.845 315.283 377.765 315.561 377.604C315.843 377.44 316.063 377.213 316.22 376.924C316.38 376.632 316.461 376.296 316.461 375.918C316.461 375.533 316.378 375.194 316.214 374.901C316.054 374.608 315.831 374.38 315.545 374.216C315.26 374.052 314.933 373.968 314.566 373.964C314.245 373.964 313.932 374.03 313.629 374.162C313.329 374.294 313.096 374.475 312.928 374.703L310.867 374.334L311.386 368.553H318.088V370.448H313.297L313.013 373.194H313.078C313.27 372.922 313.561 372.698 313.95 372.519C314.339 372.341 314.774 372.251 315.256 372.251C315.916 372.251 316.505 372.407 317.023 372.717C317.54 373.028 317.949 373.454 318.248 373.996C318.548 374.535 318.696 375.156 318.693 375.859C318.696 376.598 318.525 377.254 318.179 377.829C317.836 378.4 317.356 378.849 316.739 379.178C316.125 379.502 315.411 379.665 314.598 379.665Z" fill="black"/>
<path opacity="0.9" d="M371.931 368.553V379.515H369.613V370.753H369.549L367.038 372.326V370.271L369.752 368.553H371.931ZM378.743 379.665C378.179 379.661 377.635 379.567 377.111 379.381C376.59 379.196 376.122 378.894 375.708 378.476C375.294 378.059 374.966 377.506 374.723 376.817C374.484 376.129 374.365 375.283 374.365 374.28C374.368 373.359 374.474 372.537 374.68 371.813C374.891 371.085 375.191 370.467 375.58 369.961C375.972 369.454 376.441 369.069 376.987 368.804C377.533 368.537 378.145 368.403 378.823 368.403C379.555 368.403 380.201 368.546 380.761 368.831C381.321 369.113 381.771 369.497 382.11 369.982C382.452 370.467 382.659 371.011 382.731 371.615H380.445C380.356 371.233 380.169 370.933 379.883 370.715C379.598 370.498 379.244 370.389 378.823 370.389C378.11 370.389 377.567 370.699 377.196 371.32C376.829 371.941 376.641 372.785 376.634 373.852H376.709C376.873 373.527 377.094 373.251 377.373 373.022C377.655 372.79 377.974 372.614 378.331 372.492C378.691 372.367 379.071 372.305 379.471 372.305C380.12 372.305 380.699 372.458 381.205 372.765C381.712 373.069 382.112 373.486 382.404 374.018C382.697 374.55 382.843 375.158 382.843 375.843C382.843 376.585 382.67 377.245 382.324 377.823C381.981 378.402 381.501 378.855 380.884 379.183C380.27 379.508 379.557 379.668 378.743 379.665ZM378.732 377.845C379.089 377.845 379.409 377.759 379.69 377.588C379.972 377.417 380.194 377.185 380.354 376.892C380.515 376.6 380.595 376.271 380.595 375.907C380.595 375.543 380.515 375.217 380.354 374.928C380.197 374.639 379.979 374.409 379.701 374.237C379.423 374.066 379.105 373.98 378.748 373.98C378.481 373.98 378.233 374.03 378.004 374.13C377.78 374.23 377.582 374.369 377.41 374.548C377.243 374.726 377.111 374.933 377.014 375.169C376.918 375.401 376.87 375.649 376.87 375.913C376.87 376.266 376.95 376.589 377.111 376.881C377.275 377.174 377.496 377.408 377.774 377.583C378.056 377.757 378.376 377.845 378.732 377.845Z" fill="black"/>
<path opacity="0.9" d="M436.483 368.553V379.515H434.166V370.753H434.101L431.591 372.326V370.271L434.305 368.553H436.483ZM439.522 379.515L444.066 370.523V370.448H438.773V368.553H446.464V370.474L441.915 379.515H439.522Z" fill="black"/>
<path opacity="0.9" d="M500.041 368.553V379.515H497.724V370.753H497.66L495.149 372.326V370.271L497.863 368.553H500.041ZM506.736 379.665C505.912 379.665 505.179 379.531 504.536 379.263C503.897 378.992 503.396 378.623 503.032 378.155C502.668 377.688 502.486 377.158 502.486 376.566C502.486 376.109 502.59 375.69 502.797 375.308C503.007 374.922 503.293 374.603 503.653 374.35C504.013 374.093 504.417 373.929 504.863 373.857V373.782C504.278 373.665 503.803 373.381 503.439 372.931C503.075 372.478 502.893 371.952 502.893 371.352C502.893 370.785 503.059 370.28 503.391 369.837C503.723 369.391 504.178 369.042 504.756 368.788C505.337 368.531 505.997 368.403 506.736 368.403C507.475 368.403 508.133 368.531 508.711 368.788C509.293 369.045 509.75 369.397 510.081 369.843C510.413 370.285 510.581 370.788 510.585 371.352C510.581 371.955 510.395 372.482 510.028 372.931C509.66 373.381 509.189 373.665 508.615 373.782V373.857C509.054 373.929 509.452 374.093 509.808 374.35C510.169 374.603 510.454 374.922 510.665 375.308C510.879 375.69 510.988 376.109 510.991 376.566C510.988 377.158 510.804 377.688 510.44 378.155C510.076 378.623 509.573 378.992 508.931 379.263C508.292 379.531 507.56 379.665 506.736 379.665ZM506.736 377.963C507.104 377.963 507.425 377.897 507.7 377.765C507.974 377.629 508.188 377.443 508.342 377.208C508.499 376.969 508.577 376.694 508.577 376.384C508.577 376.066 508.497 375.786 508.337 375.543C508.176 375.297 507.958 375.104 507.684 374.965C507.409 374.822 507.093 374.751 506.736 374.751C506.383 374.751 506.067 374.822 505.789 374.965C505.51 375.104 505.291 375.297 505.13 375.543C504.973 375.786 504.895 376.066 504.895 376.384C504.895 376.694 504.972 376.969 505.125 377.208C505.278 377.443 505.494 377.629 505.773 377.765C506.051 377.897 506.372 377.963 506.736 377.963ZM506.736 373.065C507.043 373.065 507.316 373.003 507.555 372.878C507.794 372.753 507.981 372.58 508.117 372.359C508.253 372.137 508.32 371.882 508.32 371.593C508.32 371.308 508.253 371.058 508.117 370.844C507.981 370.626 507.796 370.457 507.56 370.335C507.325 370.21 507.05 370.148 506.736 370.148C506.426 370.148 506.151 370.21 505.912 370.335C505.673 370.457 505.485 370.626 505.35 370.844C505.218 371.058 505.152 371.308 505.152 371.593C505.152 371.882 505.22 372.137 505.355 372.359C505.491 372.58 505.678 372.753 505.917 372.878C506.156 373.003 506.429 373.065 506.736 373.065Z" fill="black"/>
<path opacity="0.9" d="M564.108 368.553V379.515H561.791V370.753H561.726L559.216 372.326V370.271L561.93 368.553H564.108ZM570.68 368.403C571.244 368.403 571.786 368.498 572.307 368.687C572.832 368.876 573.299 369.177 573.709 369.591C574.123 370.005 574.45 370.555 574.689 371.24C574.932 371.921 575.055 372.758 575.058 373.75C575.058 374.682 574.953 375.513 574.743 376.244C574.536 376.972 574.238 377.592 573.849 378.102C573.46 378.612 572.99 379.001 572.441 379.269C571.891 379.533 571.278 379.665 570.6 379.665C569.868 379.665 569.222 379.524 568.662 379.242C568.102 378.956 567.65 378.569 567.308 378.08C566.969 377.588 566.764 377.035 566.692 376.421H568.978C569.067 376.821 569.254 377.131 569.54 377.352C569.825 377.57 570.179 377.679 570.6 377.679C571.313 377.679 571.856 377.369 572.227 376.748C572.598 376.123 572.785 375.269 572.789 374.184H572.714C572.55 374.505 572.329 374.781 572.05 375.013C571.772 375.242 571.452 375.418 571.092 375.543C570.735 375.668 570.355 375.731 569.952 375.731C569.306 375.731 568.73 375.579 568.223 375.276C567.716 374.972 567.317 374.555 567.024 374.023C566.732 373.491 566.585 372.885 566.585 372.203C566.582 371.468 566.751 370.813 567.094 370.239C567.436 369.664 567.914 369.215 568.528 368.89C569.146 368.562 569.863 368.399 570.68 368.403ZM570.696 370.223C570.336 370.223 570.014 370.309 569.733 370.48C569.454 370.651 569.233 370.881 569.069 371.17C568.908 371.459 568.83 371.782 568.833 372.139C568.833 372.499 568.912 372.824 569.069 373.113C569.229 373.399 569.447 373.627 569.722 373.798C570 373.966 570.318 374.05 570.675 374.05C570.942 374.05 571.19 374 571.419 373.9C571.647 373.8 571.845 373.663 572.013 373.488C572.184 373.31 572.318 373.104 572.414 372.872C572.51 372.64 572.559 372.394 572.559 372.134C572.555 371.788 572.473 371.47 572.312 371.181C572.152 370.892 571.931 370.66 571.649 370.485C571.367 370.31 571.049 370.223 570.696 370.223Z" fill="black"/>
<path opacity="0.9" d="M622.126 379.515V377.845L626.028 374.232C626.359 373.911 626.638 373.622 626.863 373.365C627.091 373.108 627.264 372.856 627.382 372.61C627.5 372.36 627.558 372.091 627.558 371.802C627.558 371.481 627.485 371.204 627.339 370.972C627.193 370.737 626.993 370.557 626.739 370.432C626.486 370.303 626.199 370.239 625.878 370.239C625.542 370.239 625.25 370.307 625 370.442C624.75 370.578 624.557 370.772 624.422 371.026C624.286 371.279 624.218 371.581 624.218 371.93H622.018C622.018 371.213 622.181 370.59 622.506 370.062C622.83 369.534 623.285 369.126 623.87 368.837C624.456 368.548 625.13 368.403 625.894 368.403C626.679 368.403 627.362 368.542 627.944 368.821C628.529 369.095 628.984 369.477 629.309 369.966C629.633 370.455 629.796 371.015 629.796 371.647C629.796 372.061 629.714 372.469 629.55 372.872C629.389 373.276 629.102 373.723 628.688 374.216C628.274 374.705 627.69 375.292 626.937 375.977L625.337 377.545V377.62H629.94V379.515H622.126ZM635.918 379.756C634.997 379.752 634.205 379.526 633.541 379.076C632.881 378.626 632.373 377.975 632.016 377.122C631.662 376.269 631.488 375.244 631.491 374.045C631.491 372.849 631.668 371.83 632.021 370.988C632.378 370.146 632.886 369.506 633.547 369.067C634.21 368.624 635.001 368.403 635.918 368.403C636.835 368.403 637.623 368.624 638.284 369.067C638.947 369.509 639.458 370.152 639.814 370.994C640.171 371.832 640.348 372.849 640.344 374.045C640.344 375.247 640.166 376.275 639.809 377.128C639.456 377.98 638.949 378.632 638.289 379.081C637.629 379.531 636.838 379.756 635.918 379.756ZM635.918 377.834C636.546 377.834 637.047 377.518 637.422 376.887C637.796 376.255 637.982 375.308 637.978 374.045C637.978 373.213 637.893 372.521 637.722 371.968C637.554 371.415 637.315 370.999 637.004 370.721C636.697 370.442 636.335 370.303 635.918 370.303C635.293 370.303 634.794 370.615 634.419 371.24C634.044 371.864 633.855 372.799 633.852 374.045C633.852 374.887 633.935 375.59 634.103 376.153C634.274 376.714 634.515 377.135 634.826 377.417C635.136 377.695 635.5 377.834 635.918 377.834Z" fill="black"/>
<g clip-path="url(#clip0_1321_814)">
<rect x="37.6816" y="154.496" width="33.9137" height="194.062" rx="16.9569" fill="#DADEE4"/>
<rect x="37.6816" y="216.671" width="33.9137" height="131.887" rx="16.9569" fill="#2B2E35"/>
</g>
<g clip-path="url(#clip1_1321_814)">
<rect x="101.741" y="139.423" width="33.9137" height="209.135" rx="16.9569" fill="#DADEE4"/>
<rect x="101.741" y="250.585" width="33.9137" height="97.973" rx="16.9569" fill="#2B2E35"/>
</g>
<g clip-path="url(#clip2_1321_814)">
<rect x="165.801" y="184.641" width="33.9137" height="163.916" rx="16.9569" fill="#DADEE4"/>
<rect x="165.801" y="231.744" width="33.9137" height="116.814" rx="16.9569" fill="#2B2E35"/>
</g>
<g clip-path="url(#clip3_1321_814)">
<rect x="293.919" y="154.496" width="33.9137" height="194.062" rx="16.9569" fill="#DADEE4"/>
<rect x="293.919" y="278.846" width="33.9137" height="69.7116" rx="16.9569" fill="#2B2E35"/>
</g>
<g clip-path="url(#clip4_1321_814)">
<rect x="357.979" y="139.423" width="33.9137" height="209.135" rx="16.9569" fill="#DADEE4"/>
<rect x="357.979" y="237.396" width="33.9137" height="111.162" rx="16.9569" fill="#2B2E35"/>
</g>
<g clip-path="url(#clip5_1321_814)">
<rect x="422.038" y="154.496" width="33.9137" height="194.062" rx="16.9569" fill="#DADEE4"/>
<rect x="422.038" y="252.469" width="33.9137" height="96.089" rx="16.9569" fill="#2B2E35"/>
</g>
<g clip-path="url(#clip6_1321_814)">
<rect x="486.097" y="131.887" width="33.9137" height="216.671" rx="16.9569" fill="#DADEE4"/>
<rect x="486.097" y="222.323" width="33.9137" height="126.235" rx="16.9569" fill="#2B2E35"/>
</g>
<g clip-path="url(#clip7_1321_814)">
<rect x="550.156" y="184.641" width="33.9137" height="163.916" rx="16.9569" fill="#DADEE4"/>
<rect x="550.156" y="275.078" width="33.9137" height="73.4798" rx="16.9569" fill="#2B2E35"/>
</g>
<g clip-path="url(#clip8_1321_814)">
<rect x="614.216" y="131.887" width="33.9137" height="216.671" rx="16.9569" fill="#DADEE4"/>
<rect x="614.216" y="237.396" width="33.9137" height="111.162" rx="16.9569" fill="#2B2E35"/>
</g>
<g clip-path="url(#clip9_1321_814)">
<g clip-path="url(#clip10_1321_814)">
<rect x="229.859" y="126.234" width="33.9137" height="222.323" rx="16.9569" fill="#DADEE4"/>
<rect x="229.859" y="192.178" width="33.9137" height="156.38" rx="16.9569" fill="#0B8AFF"/>
</g>
</g>
<circle cx="41.4498" cy="197.83" r="3.76819" fill="#181818"/>
<circle cx="64.0592" cy="197.83" r="3.76819" fill="#181818"/>
<circle cx="86.6686" cy="197.83" r="3.76819" fill="#181818"/>
<circle cx="109.278" cy="197.83" r="3.76819" fill="#181818"/>
<circle cx="131.886" cy="197.83" r="3.76819" fill="#181818"/>
<circle cx="154.496" cy="197.83" r="3.76819" fill="#181818"/>
<circle cx="177.105" cy="197.83" r="3.76819" fill="#181818"/>
<circle cx="199.714" cy="197.83" r="3.76819" fill="#181818"/>
<circle cx="222.324" cy="197.83" r="3.76819" fill="#181818"/>
<circle cx="244.932" cy="197.83" r="3.76819" fill="#181818"/>
<circle cx="267.542" cy="197.83" r="3.76819" fill="#181818"/>
<circle cx="290.151" cy="197.83" r="3.76819" fill="#181818"/>
<circle cx="312.76" cy="197.83" r="3.76819" fill="#181818"/>
<circle cx="335.37" cy="197.83" r="3.76819" fill="#181818"/>
<circle cx="357.978" cy="197.83" r="3.76819" fill="#181818"/>
<circle cx="380.588" cy="197.83" r="3.76819" fill="#181818"/>
<circle cx="403.197" cy="197.83" r="3.76819" fill="#181818"/>
<circle cx="425.806" cy="197.83" r="3.76819" fill="#181818"/>
<circle cx="448.415" cy="197.83" r="3.76819" fill="#181818"/>
<circle cx="471.024" cy="197.83" r="3.76819" fill="#181818"/>
<circle cx="493.633" cy="197.83" r="3.76819" fill="#181818"/>
<circle cx="516.243" cy="197.83" r="3.76819" fill="#181818"/>
<circle cx="538.852" cy="197.83" r="3.76819" fill="#181818"/>
<circle cx="561.461" cy="197.83" r="3.76819" fill="#181818"/>
<circle cx="584.07" cy="197.83" r="3.76819" fill="#181818"/>
<circle cx="606.679" cy="197.83" r="3.76819" fill="#181818"/>
<circle cx="629.289" cy="197.83" r="3.76819" fill="#181818"/>
<circle cx="651.897" cy="197.83" r="3.76819" fill="#181818"/>
<rect x="207.244" y="175.852" width="79.1456" height="34.5364" rx="17.2682" fill="#161616"/>
<path d="M229.8 201.845C229.013 201.839 228.245 201.703 227.496 201.435C226.747 201.162 226.072 200.721 225.473 200.111C224.873 199.495 224.397 198.679 224.044 197.662C223.69 196.639 223.516 195.374 223.522 193.864C223.522 192.456 223.672 191.201 223.971 190.099C224.271 188.996 224.702 188.065 225.264 187.305C225.826 186.539 226.503 185.956 227.295 185.554C228.093 185.153 228.984 184.952 229.969 184.952C231.002 184.952 231.917 185.156 232.715 185.562C233.518 185.969 234.165 186.526 234.658 187.232C235.15 187.934 235.455 188.726 235.573 189.609H232.642C232.493 188.977 232.185 188.474 231.719 188.099C231.259 187.719 230.675 187.529 229.969 187.529C228.829 187.529 227.951 188.025 227.335 189.015C226.725 190.005 226.417 191.365 226.412 193.093H226.524C226.787 192.622 227.127 192.218 227.544 191.881C227.962 191.544 228.433 191.284 228.957 191.102C229.487 190.915 230.046 190.821 230.635 190.821C231.599 190.821 232.463 191.051 233.229 191.512C233.999 191.972 234.61 192.606 235.059 193.415C235.509 194.217 235.731 195.138 235.726 196.176C235.731 197.258 235.485 198.229 234.987 199.091C234.489 199.947 233.796 200.622 232.907 201.114C232.019 201.607 230.983 201.85 229.8 201.845ZM229.784 199.436C230.368 199.436 230.889 199.294 231.35 199.011C231.81 198.727 232.174 198.344 232.442 197.863C232.709 197.381 232.84 196.84 232.835 196.241C232.84 195.652 232.712 195.119 232.45 194.643C232.193 194.167 231.837 193.789 231.382 193.511C230.927 193.233 230.408 193.093 229.824 193.093C229.391 193.093 228.987 193.176 228.612 193.342C228.237 193.508 227.911 193.738 227.632 194.033C227.354 194.322 227.135 194.659 226.974 195.044C226.819 195.424 226.739 195.831 226.733 196.265C226.739 196.837 226.872 197.365 227.135 197.846C227.397 198.328 227.758 198.714 228.219 199.003C228.679 199.292 229.201 199.436 229.784 199.436ZM238.142 198.569V196.201L245.119 185.177H247.094V188.549H245.89L241.193 195.992V196.12H250.932V198.569H238.142ZM245.986 201.62V197.846L246.018 196.787V185.177H248.829V201.62H245.986ZM262.289 198.537V197.67C262.289 197.033 262.423 196.447 262.69 195.912C262.963 195.376 263.359 194.945 263.879 194.619C264.398 194.292 265.027 194.129 265.765 194.129C266.525 194.129 267.162 194.292 267.676 194.619C268.19 194.94 268.578 195.368 268.84 195.903C269.108 196.439 269.242 197.028 269.242 197.67V198.537C269.242 199.174 269.108 199.76 268.84 200.295C268.573 200.83 268.179 201.261 267.66 201.588C267.146 201.914 266.515 202.078 265.765 202.078C265.016 202.078 264.382 201.914 263.863 201.588C263.343 201.261 262.95 200.83 262.682 200.295C262.42 199.76 262.289 199.174 262.289 198.537ZM264.384 197.67V198.537C264.384 198.96 264.486 199.348 264.689 199.701C264.893 200.054 265.252 200.231 265.765 200.231C266.285 200.231 266.64 200.057 266.833 199.709C267.031 199.356 267.13 198.965 267.13 198.537V197.67C267.13 197.242 267.037 196.851 266.849 196.498C266.662 196.139 266.301 195.96 265.765 195.96C265.262 195.96 264.906 196.139 264.698 196.498C264.489 196.851 264.384 197.242 264.384 197.67ZM253.931 189.127V188.26C253.931 187.618 254.067 187.029 254.34 186.494C254.613 185.958 255.009 185.53 255.529 185.209C256.048 184.883 256.677 184.719 257.415 184.719C258.17 184.719 258.804 184.883 259.318 185.209C259.837 185.53 260.228 185.958 260.49 186.494C260.753 187.029 260.884 187.618 260.884 188.26V189.127C260.884 189.769 260.75 190.358 260.482 190.893C260.22 191.423 259.829 191.849 259.31 192.17C258.791 192.491 258.159 192.652 257.415 192.652C256.661 192.652 256.024 192.491 255.505 192.17C254.991 191.849 254.6 191.421 254.332 190.885C254.065 190.35 253.931 189.764 253.931 189.127ZM256.042 188.26V189.127C256.042 189.555 256.141 189.946 256.34 190.299C256.543 190.647 256.902 190.821 257.415 190.821C257.929 190.821 258.282 190.647 258.475 190.299C258.673 189.946 258.772 189.555 258.772 189.127V188.26C258.772 187.832 258.679 187.441 258.491 187.088C258.304 186.729 257.945 186.55 257.415 186.55C256.907 186.55 256.551 186.729 256.348 187.088C256.144 187.446 256.042 187.837 256.042 188.26ZM254.846 201.62L266.151 185.177H268.158L256.853 201.62H254.846Z" fill="white"/>
<defs>
<clipPath id="clip0_1321_814">
<rect x="37.6816" y="154.496" width="33.9137" height="194.062" rx="16.9569" fill="white"/>
</clipPath>
<clipPath id="clip1_1321_814">
<rect x="101.741" y="139.423" width="33.9137" height="209.135" rx="16.9569" fill="white"/>
</clipPath>
<clipPath id="clip2_1321_814">
<rect x="165.801" y="184.641" width="33.9137" height="163.916" rx="16.9569" fill="white"/>
</clipPath>
<clipPath id="clip3_1321_814">
<rect x="293.919" y="154.496" width="33.9137" height="194.062" rx="16.9569" fill="white"/>
</clipPath>
<clipPath id="clip4_1321_814">
<rect x="357.979" y="139.423" width="33.9137" height="209.135" rx="16.9569" fill="white"/>
</clipPath>
<clipPath id="clip5_1321_814">
<rect x="422.038" y="154.496" width="33.9137" height="194.062" rx="16.9569" fill="white"/>
</clipPath>
<clipPath id="clip6_1321_814">
<rect x="486.097" y="131.887" width="33.9137" height="216.671" rx="16.9569" fill="white"/>
</clipPath>
<clipPath id="clip7_1321_814">
<rect x="550.156" y="184.641" width="33.9137" height="163.916" rx="16.9569" fill="white"/>
</clipPath>
<clipPath id="clip8_1321_814">
<rect x="614.216" y="131.887" width="33.9137" height="216.671" rx="16.9569" fill="white"/>
</clipPath>
<clipPath id="clip9_1321_814">
<rect width="79.1321" height="222.323" fill="white" transform="translate(207.251 126.234)"/>
</clipPath>
<clipPath id="clip10_1321_814">
<rect x="229.859" y="126.234" width="33.9137" height="222.323" rx="16.9569" fill="white"/>
</clipPath>
</defs>
</svg>
