<svg width="616" height="616" viewBox="0 0 616 616" fill="none" xmlns="http://www.w3.org/2000/svg">
<rect width="616" height="616" fill="white"/>
<g clip-path="url(#clip0_1321_196)">
<path opacity="0.1" d="M306.42 465.512C218.981 465.512 148.098 394.629 148.098 307.19C148.098 219.75 218.981 148.867 306.42 148.867C393.86 148.867 464.743 219.75 464.743 307.19C464.743 394.629 393.86 465.512 306.42 465.512ZM306.42 164.699C227.725 164.699 163.93 228.494 163.93 307.19C163.93 385.885 227.725 449.68 306.42 449.68C385.116 449.68 448.911 385.885 448.911 307.19C448.911 228.494 385.116 164.699 306.42 164.699Z" fill="#DADEE4"/>
<path d="M306.421 156.783C306.421 152.411 309.968 148.846 314.335 149.065C336.737 150.186 358.678 156.056 378.689 166.323C401.051 177.795 420.361 194.426 435.021 214.841C449.681 235.256 459.27 258.868 462.996 283.723C466.329 305.966 464.881 328.633 458.785 350.219C457.597 354.426 453.085 356.648 448.943 355.251V355.251C444.8 353.854 442.597 349.367 443.761 345.154C449.068 325.955 450.299 305.827 447.338 286.07C443.986 263.7 435.355 242.449 422.161 224.076C408.967 205.703 391.588 190.734 371.462 180.409C353.688 171.291 334.222 166.025 314.334 164.919C309.968 164.676 306.421 161.155 306.421 156.783V156.783Z" fill="#91A7FF"/>
<path opacity="0.1" d="M307.323 492.499C205.476 492.499 122.913 409.533 122.913 307.189C122.913 204.846 205.476 121.88 307.323 121.88C409.17 121.88 491.733 204.846 491.733 307.189C491.733 409.533 409.17 492.499 307.323 492.499ZM307.323 138.558C214.643 138.558 139.51 214.057 139.51 307.189C139.51 400.322 214.643 475.821 307.323 475.821C400.004 475.821 475.136 400.322 475.136 307.189C475.136 214.057 400.004 138.558 307.323 138.558Z" fill="#DADEE4"/>
<path d="M307.322 130.219C307.322 125.613 311.058 121.86 315.659 122.069C349.208 123.594 381.764 134.302 409.775 153.11C440.101 173.472 463.737 202.414 477.695 236.274C491.652 270.135 495.304 307.395 488.189 343.342C481.617 376.544 466.13 407.249 443.481 432.166C440.38 435.578 435.075 435.566 431.823 432.298V432.298C428.594 429.053 428.611 423.821 431.677 420.421C452.043 397.836 465.974 370.082 471.911 340.088C478.386 307.376 475.063 273.47 462.361 242.657C449.66 211.843 428.151 185.507 400.554 166.977C375.273 150.002 345.923 140.278 315.658 138.766C311.058 138.536 307.322 134.824 307.322 130.219V130.219Z" fill="#99E9F2"/>
<path opacity="0.1" d="M307.323 517.687C190.572 517.687 95.9259 423.444 95.9259 307.19C95.9259 190.935 190.572 96.6924 307.323 96.6924C424.074 96.6924 518.72 190.935 518.72 307.19C518.72 423.444 424.074 517.687 307.323 517.687ZM307.323 113.532C199.912 113.532 112.838 200.236 112.838 307.19C112.838 414.144 199.912 500.847 307.323 500.847C414.734 500.847 501.808 414.144 501.808 307.19C501.808 200.236 414.734 113.532 307.323 113.532Z" fill="#DADEE4"/>
<path d="M309.122 105.112C309.122 100.462 312.894 96.6749 317.541 96.8593C362.032 98.6241 404.911 114.342 439.992 141.879C477.281 171.148 503.588 212.065 514.675 258.037C525.763 304.01 520.984 352.36 501.11 395.299C482.41 435.699 451.371 469.094 412.53 490.784C408.477 493.048 403.407 491.389 401.292 487.256V487.256C399.166 483.103 400.829 478.029 404.894 475.739C440.33 455.776 468.649 425.197 485.751 388.25C504.035 348.747 508.431 304.264 498.231 261.969C488.031 219.675 463.828 182.031 429.522 155.103C397.425 129.909 358.232 115.468 317.54 113.714C312.894 113.513 309.122 109.762 309.122 105.112V105.112Z" fill="#007AFF"/>
<path opacity="0.1" d="M307.323 544.674C175.668 544.674 68.9395 438.348 68.9395 307.19C68.9395 176.031 175.668 69.7053 307.323 69.7053C438.979 69.7053 545.707 176.031 545.707 307.19C545.707 438.348 438.979 544.674 307.323 544.674ZM307.323 86.3292C184.883 86.3292 85.6264 185.212 85.6264 307.19C85.6264 429.167 184.883 528.05 307.323 528.05C429.763 528.05 529.02 429.167 529.02 307.19C529.02 185.212 429.763 86.3292 307.323 86.3292Z" fill="#DADEE4"/>
<path d="M307.323 78.0173C307.323 73.4267 311.046 69.6902 315.634 69.8497C350.761 71.0703 385.22 80.0167 416.524 96.0884C450.294 113.426 479.416 138.553 501.462 169.376C523.509 200.198 537.841 235.824 543.265 273.284C548.689 310.743 545.047 348.952 532.644 384.725C520.241 420.498 499.434 452.8 471.959 478.939C444.485 505.078 411.137 524.296 374.695 534.992C338.253 545.688 299.773 547.553 262.461 540.43C227.891 533.831 195.251 519.694 166.867 499.073C163.138 496.364 162.512 491.103 165.363 487.481V487.481C168.2 483.879 173.407 483.263 177.123 485.949C203.421 504.959 233.623 517.999 265.601 524.104C300.301 530.728 336.088 528.994 369.979 519.046C403.87 509.098 434.883 491.225 460.435 466.916C485.987 442.607 505.336 412.567 516.872 379.297C528.407 346.028 531.793 310.494 526.749 275.657C521.705 240.82 508.376 207.688 487.873 179.023C467.37 150.358 440.286 126.989 408.88 110.865C379.94 96.0075 348.101 87.6976 315.634 86.4844C311.046 86.313 307.323 82.6078 307.323 78.0173V78.0173Z" fill="#141D40"/>
<path d="M289.51 335.013C287.002 334.977 284.531 334.519 282.096 333.64C279.679 332.761 277.482 331.297 275.505 329.246C273.528 327.196 271.944 324.441 270.754 320.981C269.583 317.52 268.997 313.2 268.997 308.019C268.997 303.113 269.482 298.755 270.452 294.947C271.441 291.139 272.86 287.926 274.709 285.308C276.558 282.672 278.791 280.668 281.409 279.294C284.027 277.921 286.966 277.235 290.224 277.235C293.575 277.235 296.55 277.894 299.149 279.212C301.749 280.53 303.854 282.352 305.465 284.677C307.095 287.002 308.129 289.647 308.569 292.613H300.193C299.625 290.27 298.499 288.357 296.815 286.874C295.131 285.391 292.934 284.649 290.224 284.649C286.105 284.649 282.892 286.444 280.586 290.032C278.297 293.62 277.144 298.609 277.125 304.998H277.537C278.508 303.405 279.698 302.051 281.107 300.934C282.535 299.799 284.128 298.929 285.886 298.325C287.661 297.703 289.529 297.391 291.488 297.391C294.746 297.391 297.694 298.188 300.33 299.781C302.985 301.355 305.099 303.534 306.674 306.316C308.248 309.099 309.035 312.285 309.035 315.873C309.035 319.461 308.221 322.711 306.591 325.622C304.98 328.532 302.71 330.839 299.781 332.542C296.852 334.226 293.428 335.05 289.51 335.013ZM289.483 327.873C291.643 327.873 293.575 327.342 295.277 326.281C296.98 325.219 298.326 323.791 299.314 321.997C300.303 320.203 300.797 318.198 300.797 315.983C300.797 313.822 300.312 311.854 299.342 310.079C298.39 308.303 297.071 306.893 295.387 305.849C293.721 304.806 291.817 304.284 289.675 304.284C288.046 304.284 286.535 304.595 285.144 305.218C283.771 305.84 282.563 306.701 281.519 307.799C280.476 308.898 279.652 310.161 279.048 311.589C278.462 312.999 278.169 314.491 278.169 316.065C278.169 318.17 278.654 320.12 279.624 321.914C280.613 323.708 281.959 325.155 283.661 326.253C285.382 327.333 287.323 327.873 289.483 327.873ZM317.857 323.26V316.395L342.161 278.004H347.57V288.11H344.138L326.755 315.626V316.065H360.065V323.26H317.857ZM344.522 334.244V321.173L344.577 318.042V278.004H352.623V334.244H344.522ZM398.992 323.699V320.733C398.992 318.61 399.431 316.669 400.31 314.912C401.207 313.136 402.507 311.717 404.209 310.655C405.93 309.575 408.008 309.035 410.443 309.035C412.933 309.035 415.02 309.566 416.704 310.628C418.388 311.69 419.661 313.108 420.521 314.884C421.4 316.66 421.839 318.61 421.839 320.733V323.699C421.839 325.823 421.4 327.773 420.521 329.549C419.642 331.306 418.352 332.725 416.649 333.805C414.965 334.867 412.896 335.398 410.443 335.398C407.971 335.398 405.884 334.867 404.182 333.805C402.479 332.725 401.188 331.306 400.31 329.549C399.431 327.773 398.992 325.823 398.992 323.699ZM405.39 320.733V323.699C405.39 325.274 405.765 326.702 406.516 327.983C407.267 329.265 408.575 329.906 410.443 329.906C412.292 329.906 413.583 329.265 414.315 327.983C415.047 326.702 415.413 325.274 415.413 323.699V320.733C415.413 319.159 415.056 317.731 414.342 316.45C413.647 315.168 412.347 314.527 410.443 314.527C408.612 314.527 407.312 315.168 406.543 316.45C405.774 317.731 405.39 319.159 405.39 320.733ZM370.706 291.515V288.549C370.706 286.425 371.146 284.475 372.025 282.7C372.922 280.924 374.221 279.505 375.924 278.443C377.645 277.381 379.723 276.85 382.158 276.85C384.648 276.85 386.735 277.381 388.419 278.443C390.103 279.505 391.376 280.924 392.236 282.7C393.097 284.475 393.527 286.425 393.527 288.549V291.515C393.527 293.638 393.087 295.588 392.209 297.364C391.348 299.121 390.067 300.54 388.364 301.62C386.68 302.682 384.611 303.213 382.158 303.213C379.668 303.213 377.572 302.682 375.869 301.62C374.185 300.54 372.903 299.121 372.025 297.364C371.146 295.588 370.706 293.638 370.706 291.515ZM377.132 288.549V291.515C377.132 293.089 377.499 294.517 378.231 295.799C378.981 297.08 380.29 297.721 382.158 297.721C383.989 297.721 385.27 297.08 386.002 295.799C386.753 294.517 387.128 293.089 387.128 291.515V288.549C387.128 286.974 386.771 285.546 386.057 284.265C385.343 282.983 384.043 282.343 382.158 282.343C380.327 282.343 379.027 282.983 378.258 284.265C377.508 285.546 377.132 286.974 377.132 288.549ZM373.315 334.244L411.981 278.004H418.544L379.879 334.244H373.315Z" fill="url(#paint0_linear_1321_196)"/>
</g>
<defs>
<linearGradient id="paint0_linear_1321_196" x1="427.589" y1="259.642" x2="274.088" y2="367.002" gradientUnits="userSpaceOnUse">
<stop stop-color="#2B43E3"/>
<stop offset="0.995876" stop-color="#202ED0"/>
</linearGradient>
<clipPath id="clip0_1321_196">
<rect x="69.7051" y="69.7053" width="476.506" height="474.968" rx="237.484" fill="white"/>
</clipPath>
</defs>
</svg>
