<svg width="380" height="380" viewBox="0 0 380 380" fill="none" xmlns="http://www.w3.org/2000/svg">
<rect width="380" height="380" fill="white"/>
<g clip-path="url(#clip0_1321_196)">
<path opacity="0.1" d="M189.026 287.167C135.086 287.167 91.359 243.44 91.359 189.5C91.359 135.56 135.086 91.8334 189.026 91.8334C242.966 91.8334 286.692 135.56 286.692 189.5C286.692 243.44 242.966 287.167 189.026 287.167ZM189.026 101.6C140.48 101.6 101.126 140.954 101.126 189.5C101.126 238.046 140.48 277.4 189.026 277.4C237.572 277.4 276.926 238.046 276.926 189.5C276.926 140.954 237.572 101.6 189.026 101.6Z" fill="#DADEE4"/>
<path d="M189.026 96.7167C189.026 94.0197 191.214 91.8206 193.907 91.9554C207.727 92.647 221.262 96.2686 233.607 102.602C247.402 109.679 259.314 119.938 268.357 132.532C277.401 145.126 283.316 159.691 285.614 175.024C287.67 188.745 286.777 202.728 283.016 216.044C282.283 218.64 279.501 220.01 276.945 219.148V219.148C274.389 218.286 273.03 215.519 273.749 212.919C277.023 201.076 277.782 188.659 275.955 176.472C273.887 162.672 268.563 149.563 260.424 138.229C252.285 126.894 241.564 117.661 229.149 111.291C218.184 105.666 206.175 102.418 193.907 101.736C191.214 101.586 189.026 99.4137 189.026 96.7167V96.7167Z" fill="#91A7FF"/>
<path opacity="0.1" d="M189.582 303.814C126.755 303.814 75.8229 252.634 75.8229 189.5C75.8229 126.366 126.755 75.1855 189.582 75.1855C252.41 75.1855 303.342 126.366 303.342 189.5C303.342 252.634 252.41 303.814 189.582 303.814ZM189.582 85.4738C132.409 85.4738 86.0612 132.048 86.0612 189.5C86.0612 246.952 132.409 293.526 189.582 293.526C246.755 293.526 293.103 246.952 293.103 189.5C293.103 132.048 246.755 85.4738 189.582 85.4738Z" fill="#DADEE4"/>
<path d="M189.582 80.3297C189.582 77.4887 191.886 75.1734 194.724 75.3024C215.42 76.2433 235.504 82.8489 252.783 94.451C271.491 107.012 286.072 124.865 294.682 145.754C303.292 166.642 305.545 189.627 301.155 211.802C297.101 232.284 287.548 251.225 273.576 266.596C271.663 268.7 268.39 268.693 266.384 266.677V266.677C264.392 264.675 264.403 261.448 266.294 259.35C278.858 245.418 287.451 228.297 291.114 209.794C295.108 189.615 293.058 168.699 285.223 149.691C277.387 130.683 264.119 114.436 247.095 103.005C231.499 92.5339 213.394 86.5351 194.724 85.6022C191.887 85.4604 189.582 83.1707 189.582 80.3297V80.3297Z" fill="#99E9F2"/>
<path opacity="0.1" d="M189.582 319.352C117.56 319.352 59.1749 261.216 59.1749 189.5C59.1749 117.785 117.56 59.6478 189.582 59.6478C261.604 59.6478 319.989 117.785 319.989 189.5C319.989 261.216 261.604 319.352 189.582 319.352ZM189.582 70.036C123.322 70.036 69.6074 123.522 69.6074 189.5C69.6074 255.478 123.322 308.964 189.582 308.964C255.842 308.964 309.557 255.478 309.557 189.5C309.557 123.522 255.842 70.036 189.582 70.036Z" fill="#DADEE4"/>
<path d="M190.692 64.8419C190.692 61.9733 193.019 59.6371 195.885 59.7508C223.331 60.8395 249.783 70.5358 271.423 87.5224C294.426 105.578 310.655 130.819 317.494 159.179C324.334 187.538 321.386 217.365 309.126 243.853C297.59 268.775 278.443 289.376 254.483 302.756C251.982 304.153 248.855 303.13 247.55 300.58V300.58C246.239 298.018 247.265 294.888 249.772 293.475C271.632 281.16 289.102 262.297 299.651 239.505C310.931 215.136 313.643 187.695 307.35 161.604C301.058 135.514 286.128 112.292 264.965 95.6806C245.164 80.1386 220.987 71.2303 195.885 70.1479C193.019 70.0243 190.692 67.7105 190.692 64.8419V64.8419Z" fill="#007AFF"/>
<path opacity="0.1" d="M189.583 336C108.367 336 42.5279 270.41 42.5279 189.5C42.5279 108.59 108.367 43 189.583 43C270.799 43 336.638 108.59 336.638 189.5C336.638 270.41 270.799 336 189.583 336ZM189.583 53.255C114.052 53.255 52.8217 114.254 52.8217 189.5C52.8217 264.746 114.052 325.745 189.583 325.745C265.114 325.745 326.344 264.746 326.344 189.5C326.344 114.254 265.114 53.255 189.583 53.255Z" fill="#DADEE4"/>
<path d="M189.582 48.1275C189.582 45.2957 191.879 42.9907 194.709 43.089C216.378 43.842 237.635 49.3609 256.947 59.2753C277.779 69.9705 295.743 85.4709 309.343 104.485C322.943 123.499 331.785 145.476 335.131 168.584C338.477 191.692 336.23 215.262 328.579 237.33C320.927 259.398 308.092 279.325 291.144 295.449C274.195 311.574 253.623 323.429 231.143 330.028C208.662 336.626 184.924 337.776 161.907 333.382C140.582 329.311 120.447 320.59 102.937 307.87C100.637 306.199 100.251 302.953 102.01 300.719V300.719C103.759 298.497 106.972 298.116 109.264 299.774C125.487 311.501 144.118 319.545 163.845 323.311C185.25 327.397 207.327 326.327 228.233 320.191C249.14 314.054 268.272 303.029 284.034 288.033C299.797 273.037 311.733 254.505 318.849 233.982C325.965 213.459 328.054 191.539 324.942 170.048C321.831 148.557 313.608 128.119 300.96 110.436C288.312 92.753 271.605 78.3375 252.231 68.391C234.378 59.2254 214.737 54.0991 194.709 53.3508C191.879 53.245 189.582 50.9593 189.582 48.1275V48.1275Z" fill="#141D40"/>
<path d="M178.594 206.398C177.047 206.375 175.522 206.093 174.02 205.551C172.529 205.009 171.174 204.105 169.955 202.84C168.735 201.575 167.758 199.876 167.024 197.741C166.301 195.607 165.94 192.941 165.94 189.745C165.94 186.719 166.239 184.031 166.838 181.682C167.447 179.333 168.323 177.351 169.463 175.736C170.604 174.109 171.982 172.873 173.597 172.026C175.212 171.179 177.024 170.755 179.035 170.755C181.101 170.755 182.937 171.162 184.54 171.975C186.144 172.788 187.443 173.912 188.437 175.346C189.442 176.78 190.08 178.412 190.351 180.242H185.184C184.834 178.796 184.139 177.616 183.1 176.701C182.061 175.787 180.706 175.329 179.035 175.329C176.494 175.329 174.512 176.436 173.089 178.649C171.677 180.863 170.965 183.941 170.954 187.882H171.208C171.807 186.899 172.541 186.064 173.41 185.375C174.291 184.675 175.274 184.138 176.358 183.765C177.453 183.381 178.605 183.189 179.814 183.189C181.824 183.189 183.642 183.681 185.269 184.663C186.906 185.635 188.211 186.978 189.182 188.695C190.153 190.412 190.639 192.377 190.639 194.59C190.639 196.804 190.136 198.809 189.131 200.604C188.137 202.4 186.737 203.823 184.93 204.873C183.123 205.912 181.011 206.42 178.594 206.398ZM178.577 201.993C179.91 201.993 181.101 201.666 182.152 201.011C183.202 200.356 184.032 199.475 184.642 198.368C185.252 197.261 185.557 196.025 185.557 194.658C185.557 193.325 185.257 192.111 184.659 191.016C184.072 189.92 183.258 189.051 182.219 188.407C181.192 187.763 180.017 187.442 178.696 187.442C177.691 187.442 176.759 187.634 175.901 188.017C175.054 188.401 174.308 188.932 173.665 189.61C173.021 190.288 172.513 191.067 172.14 191.948C171.778 192.817 171.598 193.738 171.598 194.709C171.598 196.008 171.897 197.21 172.496 198.317C173.105 199.424 173.936 200.316 174.986 200.994C176.047 201.66 177.245 201.993 178.577 201.993ZM196.081 199.147V194.912L211.073 171.23H214.41V177.464H212.293L201.57 194.438V194.709H222.118V199.147H196.081ZM212.53 205.923V197.86L212.564 195.929V171.23H217.527V205.923H212.53ZM246.131 199.418V197.589C246.131 196.279 246.402 195.082 246.944 193.997C247.498 192.902 248.3 192.027 249.35 191.372C250.411 190.705 251.693 190.372 253.195 190.372C254.731 190.372 256.019 190.7 257.058 191.355C258.097 192.01 258.882 192.885 259.412 193.981C259.955 195.076 260.226 196.279 260.226 197.589V199.418C260.226 200.728 259.955 201.931 259.412 203.027C258.87 204.111 258.074 204.986 257.024 205.652C255.985 206.307 254.709 206.635 253.195 206.635C251.671 206.635 250.383 206.307 249.333 205.652C248.283 204.986 247.486 204.111 246.944 203.027C246.402 201.931 246.131 200.728 246.131 199.418ZM250.078 197.589V199.418C250.078 200.39 250.31 201.271 250.773 202.061C251.236 202.852 252.043 203.247 253.195 203.247C254.336 203.247 255.132 202.852 255.584 202.061C256.036 201.271 256.262 200.39 256.262 199.418V197.589C256.262 196.618 256.041 195.737 255.601 194.946C255.172 194.156 254.37 193.76 253.195 193.76C252.066 193.76 251.264 194.156 250.79 194.946C250.315 195.737 250.078 196.618 250.078 197.589ZM228.683 179.564V177.735C228.683 176.425 228.954 175.222 229.496 174.126C230.049 173.031 230.851 172.156 231.901 171.501C232.963 170.846 234.245 170.518 235.747 170.518C237.283 170.518 238.57 170.846 239.609 171.501C240.648 172.156 241.433 173.031 241.964 174.126C242.495 175.222 242.76 176.425 242.76 177.735V179.564C242.76 180.874 242.489 182.077 241.947 183.173C241.416 184.257 240.626 185.132 239.575 185.798C238.536 186.453 237.26 186.781 235.747 186.781C234.211 186.781 232.918 186.453 231.867 185.798C230.828 185.132 230.038 184.257 229.496 183.173C228.954 182.077 228.683 180.874 228.683 179.564ZM232.647 177.735V179.564C232.647 180.535 232.872 181.416 233.324 182.207C233.787 182.997 234.595 183.393 235.747 183.393C236.876 183.393 237.667 182.997 238.118 182.207C238.581 181.416 238.813 180.535 238.813 179.564V177.735C238.813 176.763 238.593 175.883 238.152 175.092C237.712 174.301 236.91 173.906 235.747 173.906C234.617 173.906 233.816 174.301 233.341 175.092C232.878 175.883 232.647 176.763 232.647 177.735ZM230.292 205.923L254.144 171.23H258.193L234.341 205.923H230.292Z" fill="url(#paint0_linear_1321_196)"/>
</g>
<defs>
<linearGradient id="paint0_linear_1321_196" x1="264.599" y1="160.169" x2="169.63" y2="227.122" gradientUnits="userSpaceOnUse">
<stop stop-color="#2B43E3"/>
<stop offset="0.995876" stop-color="#202ED0"/>
</linearGradient>
<clipPath id="clip0_1321_196">
<rect x="43" y="43" width="293.948" height="293" rx="146.5" fill="white"/>
</clipPath>
</defs>
</svg>
