<svg width="616" height="843" viewBox="0 0 616 843" fill="none" xmlns="http://www.w3.org/2000/svg">
<rect width="615" height="843" transform="translate(0.310547)" fill="white"/>
<path opacity="0.9" d="M114.906 783.286H116.924V790.018C116.924 790.64 116.784 791.181 116.504 791.64C116.228 792.099 115.843 792.452 115.349 792.7C114.856 792.949 114.282 793.073 113.628 793.073C113.047 793.073 112.519 792.971 112.044 792.766C111.573 792.559 111.199 792.245 110.922 791.824C110.646 791.399 110.509 790.867 110.512 790.225H112.544C112.55 790.48 112.602 790.698 112.7 790.881C112.8 791.06 112.937 791.198 113.11 791.296C113.286 791.39 113.493 791.437 113.732 791.437C113.984 791.437 114.196 791.384 114.369 791.277C114.545 791.167 114.678 791.006 114.769 790.796C114.86 790.585 114.906 790.326 114.906 790.018V783.286ZM120.276 792.941H118.088L121.421 783.286H124.052L127.38 792.941H125.193L122.774 785.492H122.699L120.276 792.941ZM120.139 789.146H125.306V790.739H120.139V789.146ZM136.618 783.286V792.941H134.855L130.654 786.864H130.584V792.941H128.542V783.286H130.334L134.501 789.358H134.586V783.286H136.618Z" fill="#696969"/>
<path opacity="0.9" d="M212.535 792.941V783.286H218.928V784.969H214.576V787.27H218.503V788.953H214.576V792.941H212.535ZM220.301 792.941V783.286H226.807V784.969H222.342V787.27H226.472V788.953H222.342V791.258H226.825V792.941H220.301ZM228.429 792.941V783.286H232.295C233.005 783.286 233.598 783.391 234.072 783.602C234.547 783.812 234.904 784.105 235.143 784.479C235.382 784.85 235.501 785.277 235.501 785.761C235.501 786.138 235.426 786.47 235.275 786.756C235.124 787.039 234.916 787.271 234.652 787.453C234.391 787.633 234.093 787.76 233.757 787.835V787.93C234.124 787.945 234.468 788.049 234.789 788.241C235.113 788.432 235.375 788.701 235.576 789.047C235.778 789.389 235.878 789.798 235.878 790.273C235.878 790.785 235.751 791.242 235.496 791.644C235.245 792.044 234.872 792.359 234.379 792.592C233.885 792.825 233.277 792.941 232.554 792.941H228.429ZM230.471 791.272H232.135C232.704 791.272 233.119 791.164 233.379 790.947C233.64 790.727 233.771 790.434 233.771 790.07C233.771 789.803 233.706 789.567 233.577 789.363C233.449 789.158 233.265 788.998 233.026 788.882C232.79 788.766 232.509 788.707 232.182 788.707H230.471V791.272ZM230.471 787.326H231.984C232.264 787.326 232.512 787.277 232.729 787.18C232.949 787.079 233.122 786.938 233.247 786.756C233.376 786.573 233.441 786.355 233.441 786.1C233.441 785.752 233.317 785.47 233.068 785.257C232.823 785.043 232.474 784.936 232.022 784.936H230.471V787.326Z" fill="#696969"/>
<path opacity="0.9" d="M312.158 783.286H314.675L317.334 789.773H317.447L320.106 783.286H322.624V792.941H320.644V786.657H320.563L318.065 792.894H316.716L314.218 786.633H314.138V792.941H312.158V783.286ZM325.97 792.941H323.782L327.115 783.286H329.746L333.074 792.941H330.887L328.468 785.492H328.393L325.97 792.941ZM325.833 789.146H331V790.739H325.833V789.146ZM334.236 792.941V783.286H338.045C338.774 783.286 339.397 783.416 339.912 783.677C340.431 783.935 340.825 784.301 341.096 784.776C341.369 785.247 341.506 785.802 341.506 786.44C341.506 787.081 341.367 787.633 341.091 788.095C340.814 788.553 340.414 788.905 339.889 789.151C339.367 789.396 338.735 789.518 337.993 789.518H335.443V787.878H337.663C338.053 787.878 338.377 787.824 338.635 787.717C338.892 787.611 339.084 787.45 339.21 787.237C339.339 787.023 339.403 786.757 339.403 786.44C339.403 786.119 339.339 785.849 339.21 785.629C339.084 785.409 338.891 785.242 338.63 785.129C338.372 785.013 338.047 784.955 337.654 784.955H336.277V792.941H334.236ZM339.45 788.547L341.85 792.941H339.596L337.249 788.547H339.45Z" fill="#696969"/>
<path opacity="0.9" d="M419.109 792.941H416.922L420.255 783.286H422.885L426.214 792.941H424.026L421.608 785.492H421.532L419.109 792.941ZM418.972 789.146H424.139V790.739H418.972V789.146ZM427.376 792.941V783.286H431.185C431.917 783.286 432.541 783.426 433.056 783.706C433.572 783.982 433.965 784.367 434.235 784.861C434.508 785.351 434.645 785.917 434.645 786.558C434.645 787.199 434.507 787.765 434.23 788.255C433.954 788.745 433.553 789.127 433.028 789.4C432.506 789.674 431.875 789.811 431.133 789.811H428.705V788.175H430.803C431.196 788.175 431.52 788.107 431.774 787.972C432.032 787.834 432.224 787.644 432.349 787.402C432.478 787.156 432.543 786.875 432.543 786.558C432.543 786.237 432.478 785.957 432.349 785.719C432.224 785.477 432.032 785.29 431.774 785.158C431.516 785.022 431.19 784.955 430.794 784.955H429.417V792.941H427.376ZM435.971 792.941V783.286H439.78C440.509 783.286 441.132 783.416 441.647 783.677C442.166 783.935 442.56 784.301 442.83 784.776C443.104 785.247 443.241 785.802 443.241 786.44C443.241 787.081 443.102 787.633 442.826 788.095C442.549 788.553 442.148 788.905 441.624 789.151C441.102 789.396 440.47 789.518 439.728 789.518H437.178V787.878H439.398C439.788 787.878 440.112 787.824 440.37 787.717C440.627 787.611 440.819 787.45 440.945 787.237C441.074 787.023 441.138 786.757 441.138 786.44C441.138 786.119 441.074 785.849 440.945 785.629C440.819 785.409 440.626 785.242 440.365 785.129C440.107 785.013 439.782 784.955 439.389 784.955H438.012V792.941H435.971ZM441.185 788.547L443.585 792.941H441.331L438.984 788.547H441.185Z" fill="#696969"/>
<path opacity="0.9" d="M517.562 783.286H520.079L522.738 789.773H522.851L525.51 783.286H528.028V792.941H526.048V786.657H525.968L523.469 792.894H522.121L519.622 786.633H519.542V792.941H517.562V783.286ZM531.374 792.941H529.186L532.519 783.286H535.15L538.478 792.941H536.291L533.872 785.492H533.797L531.374 792.941ZM531.237 789.146H536.404V790.739H531.237V789.146ZM538.089 783.286H540.376L542.577 787.444H542.672L544.873 783.286H547.16L543.638 789.528V792.941H541.611V789.528L538.089 783.286Z" fill="#696969"/>
<g clip-path="url(#clip0_1321_517)">
<path opacity="0.9" d="M44.3523 381.53C43.7237 381.53 43.1612 381.412 42.6646 381.176C42.168 380.937 41.7736 380.61 41.4813 380.195C41.1921 379.781 41.0381 379.306 41.0193 378.772H42.7164C42.7479 379.168 42.9192 379.491 43.2303 379.743C43.5415 379.991 43.9155 380.115 44.3523 380.115C44.6949 380.115 44.9998 380.037 45.2669 379.88C45.534 379.722 45.7446 379.504 45.8986 379.224C46.0526 378.945 46.1281 378.626 46.1249 378.267C46.1281 377.903 46.0511 377.579 45.8939 377.296C45.7368 377.013 45.5215 376.792 45.248 376.631C44.9746 376.468 44.6603 376.386 44.3052 376.386C44.016 376.383 43.7316 376.437 43.4519 376.547C43.1722 376.657 42.9506 376.801 42.7872 376.98L41.2079 376.721L41.7123 371.743H47.3129V373.204H43.1596L42.8814 375.764H42.938C43.1172 375.553 43.3702 375.379 43.697 375.241C44.0239 375.099 44.3822 375.029 44.7719 375.029C45.3565 375.029 45.8782 375.167 46.3371 375.443C46.7959 375.717 47.1574 376.094 47.4214 376.575C47.6854 377.056 47.8174 377.606 47.8174 378.225C47.8174 378.863 47.6696 379.432 47.3742 379.931C47.0819 380.428 46.6749 380.819 46.1532 381.105C45.6346 381.388 45.0343 381.53 44.3523 381.53ZM42.5703 395.125L42.5656 393.065H42.839L45.4413 390.156H47.4355L44.2345 393.72H43.8809L42.5703 395.125ZM41.0146 397.398V387.743H42.7212V397.398H41.0146ZM45.5592 397.398L43.202 394.102L44.3523 392.9L47.6005 397.398H45.5592Z" fill="#141D40"/>
<path opacity="0.9" d="M40.8213 469.361V467.97L44.918 461.497H46.0778V463.478H45.3706L42.6127 467.848V467.923H48.3312V469.361H40.8213ZM45.4272 471.152V468.937L45.446 468.314V461.497H47.0961V471.152H45.4272ZM42.5703 484.88L42.5656 482.82H42.839L45.4413 479.911H47.4355L44.2345 483.475H43.8809L42.5703 484.88ZM41.0146 487.152V477.497H42.7212V487.152H41.0146ZM45.5592 487.152L43.202 483.857L44.3523 482.655L47.6005 487.152H45.5592Z" fill="#141D40"/>
<path opacity="0.9" d="M44.4607 561.039C43.7819 561.039 43.1784 560.923 42.6504 560.69C42.1256 560.458 41.7107 560.134 41.4059 559.719C41.101 559.304 40.9391 558.825 40.9203 558.281H42.6929C42.7086 558.542 42.795 558.77 42.9522 558.965C43.1093 559.157 43.3183 559.306 43.5792 559.413C43.84 559.52 44.1323 559.573 44.456 559.573C44.8018 559.573 45.1082 559.513 45.3753 559.394C45.6425 559.271 45.8515 559.102 46.0023 558.885C46.1532 558.668 46.2271 558.418 46.2239 558.135C46.2271 557.843 46.1516 557.585 45.9976 557.362C45.8436 557.139 45.6205 556.965 45.3282 556.839C45.039 556.713 44.6902 556.65 44.2816 556.65H43.4283V555.302H44.2816C44.6179 555.302 44.9118 555.244 45.1632 555.128C45.4178 555.011 45.6173 554.848 45.7619 554.637C45.9065 554.424 45.9772 554.177 45.9741 553.897C45.9772 553.624 45.9159 553.386 45.7902 553.185C45.6676 552.981 45.4932 552.822 45.2669 552.709C45.0438 552.596 44.7813 552.539 44.4796 552.539C44.1842 552.539 43.9107 552.593 43.6593 552.7C43.4079 552.807 43.2052 552.959 43.0512 553.157C42.8972 553.352 42.8154 553.584 42.806 553.855H41.123C41.1356 553.314 41.2911 552.84 41.5897 552.431C41.8914 552.019 42.2937 551.699 42.7966 551.469C43.2994 551.237 43.8636 551.12 44.489 551.12C45.1333 551.12 45.6928 551.241 46.1673 551.483C46.6451 551.722 47.0144 552.044 47.2752 552.45C47.5361 552.855 47.6665 553.303 47.6665 553.793C47.6696 554.337 47.5094 554.793 47.1856 555.161C46.8651 555.528 46.4439 555.769 45.9222 555.882V555.957C46.6011 556.052 47.1212 556.303 47.4826 556.712C47.8472 557.117 48.0279 557.621 48.0248 558.225C48.0248 558.765 47.8708 559.249 47.5628 559.677C47.2579 560.101 46.8368 560.434 46.2993 560.676C45.765 560.918 45.1522 561.039 44.4607 561.039ZM42.5703 574.635L42.5656 572.575H42.839L45.4413 569.666H47.4355L44.2345 573.23H43.8809L42.5703 574.635ZM41.0146 576.907V567.252H42.7212V576.907H41.0146ZM45.5592 576.907L43.202 573.612L44.3523 572.41L47.6005 576.907H45.5592Z" fill="#141D40"/>
<path opacity="0.9" d="M40.9957 650.663V649.399L44.3476 646.113C44.6682 645.79 44.9353 645.502 45.149 645.251C45.3628 644.999 45.523 644.756 45.6299 644.52C45.7368 644.284 45.7902 644.033 45.7902 643.766C45.7902 643.461 45.721 643.2 45.5828 642.983C45.4445 642.763 45.2543 642.593 45.0123 642.474C44.7703 642.354 44.4953 642.295 44.1873 642.295C43.8699 642.295 43.5917 642.361 43.3529 642.493C43.114 642.622 42.9286 642.805 42.7966 643.044C42.6677 643.283 42.6033 643.568 42.6033 643.898H40.9391C40.9391 643.285 41.079 642.752 41.3587 642.299C41.6384 641.847 42.0234 641.496 42.5137 641.248C43.0072 641 43.5729 640.876 44.2109 640.876C44.8583 640.876 45.4272 640.997 45.9175 641.239C46.4078 641.481 46.7881 641.812 47.0584 642.233C47.3318 642.655 47.4685 643.135 47.4685 643.676C47.4685 644.037 47.3994 644.393 47.2611 644.741C47.1228 645.09 46.8792 645.477 46.5303 645.901C46.1846 646.325 45.699 646.839 45.0736 647.443L43.4094 649.135V649.201H47.6146V650.663H40.9957ZM42.5703 664.39L42.5656 662.33H42.839L45.4413 659.421H47.4355L44.2345 662.985H43.8809L42.5703 664.39ZM41.0146 666.663V657.008H42.7212V666.663H41.0146ZM45.5592 666.663L43.202 663.367L44.3523 662.165L47.6005 666.663H45.5592Z" fill="#141D40"/>
<path opacity="0.9" d="M44.9228 730.763V740.417H43.1737V732.464H43.1172L40.859 733.907V732.304L43.2586 730.763H44.9228ZM48.9488 738.145L48.9441 736.085H49.2175L51.8198 733.176H53.814L50.613 736.74H50.2594L48.9488 738.145ZM47.3931 740.417V730.763H49.0997V740.417H47.3931ZM51.9377 740.417L49.5805 737.122L50.7308 735.92L53.979 740.417H51.9377Z" fill="#141D40"/>
</g>
<g clip-path="url(#clip1_1321_517)">
<line opacity="0.3" x1="70.0078" y1="376.303" x2="575.14" y2="376.303" stroke="#1B1F26" stroke-opacity="0.72" stroke-width="0.783172"/>
<line opacity="0.3" x1="70.0078" y1="472.966" x2="575.14" y2="472.966" stroke="#1B1F26" stroke-opacity="0.72" stroke-width="0.783172"/>
<line opacity="0.3" x1="70.0078" y1="571.288" x2="575.14" y2="571.288" stroke="#1B1F26" stroke-opacity="0.72" stroke-width="0.783172"/>
<line opacity="0.3" x1="70.0078" y1="669.611" x2="575.14" y2="669.611" stroke="#1B1F26" stroke-opacity="0.72" stroke-width="0.783172"/>
<line opacity="0.3" x1="70.0078" y1="767.933" x2="575.14" y2="767.933" stroke="#1B1F26" stroke-opacity="0.72" stroke-width="0.783172"/>
<path d="M388.622 389.97C388.622 382.639 394.566 376.695 401.898 376.695H455C462.332 376.695 468.276 382.639 468.276 389.97V766.665H388.622V389.97Z" fill="#0B8AFF"/>
<path d="M489.849 463.986C489.849 456.654 495.792 450.711 503.124 450.711H556.227C563.558 450.711 569.502 456.654 569.502 463.986V767.665H489.849V463.986Z" fill="#DADEE4"/>
<path d="M287.396 454.03C287.396 446.698 293.339 440.754 300.671 440.754H353.773C361.105 440.754 367.049 446.698 367.049 454.029V767.665H287.396V454.03Z" fill="#DADEE4"/>
<path d="M186.169 585.126C186.169 577.794 192.113 571.85 199.445 571.85H252.547C259.879 571.85 265.822 577.794 265.822 585.126V767.665H186.169V585.126Z" fill="#DADEE4"/>
<path d="M84.9424 454.03C84.9424 446.698 90.8861 440.754 98.218 440.754H151.32C158.652 440.754 164.596 446.698 164.596 454.029V767.665H84.9424V454.03Z" fill="#DADEE4"/>
</g>
<path opacity="0.9" d="M74.2211 189.107V142.897H83.4153V189.107H74.2211ZM55.7303 170.582V161.422H101.94V170.582H55.7303ZM114.792 200.864V193.208L138.478 168.668C141.007 166.002 143.092 163.666 144.732 161.661C146.396 159.633 147.638 157.707 148.458 155.885C149.278 154.062 149.688 152.125 149.688 150.074C149.688 147.75 149.141 145.745 148.048 144.059C146.954 142.35 145.462 141.04 143.57 140.128C141.679 139.194 139.549 138.727 137.179 138.727C134.672 138.727 132.485 139.239 130.616 140.265C128.748 141.29 127.312 142.737 126.31 144.606C125.307 146.474 124.806 148.661 124.806 151.168H114.723C114.723 146.907 115.703 143.181 117.663 139.991C119.622 136.801 122.311 134.329 125.729 132.575C129.147 130.797 133.032 129.909 137.384 129.909C141.782 129.909 145.655 130.786 149.005 132.54C152.377 134.272 155.009 136.642 156.9 139.65C158.791 142.635 159.737 146.007 159.737 149.767C159.737 152.364 159.247 154.905 158.267 157.388C157.31 159.872 155.635 162.641 153.243 165.694C150.85 168.724 147.524 172.404 143.263 176.734L129.352 191.294V191.807H160.865V200.864H114.792ZM200.376 130.866V200.864H189.78V141.461H189.37L172.622 152.398V142.281L190.088 130.866H200.376ZM255.848 187.739V184.048C255.848 181.405 256.395 178.99 257.489 176.802C258.605 174.592 260.223 172.826 262.342 171.504C264.484 170.16 267.07 169.488 270.101 169.488C273.2 169.488 275.797 170.149 277.894 171.47C279.99 172.792 281.574 174.558 282.645 176.768C283.738 178.978 284.285 181.405 284.285 184.048V187.739C284.285 190.383 283.738 192.809 282.645 195.02C281.551 197.207 279.944 198.973 277.825 200.317C275.729 201.639 273.154 202.3 270.101 202.3C267.025 202.3 264.427 201.639 262.308 200.317C260.189 198.973 258.583 197.207 257.489 195.02C256.395 192.809 255.848 190.383 255.848 187.739ZM263.812 184.048V187.739C263.812 189.699 264.279 191.476 265.213 193.071C266.148 194.666 267.777 195.464 270.101 195.464C272.402 195.464 274.009 194.666 274.92 193.071C275.832 191.476 276.287 189.699 276.287 187.739V184.048C276.287 182.088 275.843 180.311 274.954 178.716C274.088 177.121 272.471 176.324 270.101 176.324C267.822 176.324 266.204 177.121 265.247 178.716C264.29 180.311 263.812 182.088 263.812 184.048ZM220.644 147.682V143.99C220.644 141.347 221.191 138.92 222.285 136.71C223.401 134.5 225.019 132.734 227.138 131.412C229.28 130.091 231.866 129.43 234.897 129.43C237.995 129.43 240.593 130.091 242.689 131.412C244.786 132.734 246.369 134.5 247.44 136.71C248.511 138.92 249.047 141.347 249.047 143.99V147.682C249.047 150.325 248.5 152.752 247.406 154.962C246.335 157.149 244.74 158.915 242.621 160.259C240.525 161.581 237.95 162.242 234.897 162.242C231.798 162.242 229.189 161.581 227.07 160.259C224.973 158.915 223.378 157.149 222.285 154.962C221.191 152.752 220.644 150.325 220.644 147.682ZM228.642 143.99V147.682C228.642 149.641 229.098 151.419 230.009 153.014C230.943 154.609 232.572 155.406 234.897 155.406C237.175 155.406 238.77 154.609 239.682 153.014C240.616 151.419 241.083 149.641 241.083 147.682V143.99C241.083 142.031 240.639 140.253 239.75 138.658C238.861 137.063 237.244 136.266 234.897 136.266C232.618 136.266 231 137.063 230.043 138.658C229.109 140.253 228.642 142.031 228.642 143.99ZM223.891 200.864L272.015 130.866H280.184L232.06 200.864H223.891Z" fill="#141D40"/>
<path d="M51.5027 250.702V267.598H48.4419V250.702H51.5027ZM57.6717 260.173V267.598H54.6852V254.926H57.5397V257.08H57.6882C57.9797 256.37 58.4445 255.806 59.0825 255.388C59.726 254.97 60.5207 254.761 61.4668 254.761C62.3413 254.761 63.103 254.948 63.752 255.322C64.4065 255.696 64.9126 256.238 65.2701 256.948C65.6331 257.657 65.8118 258.518 65.8063 259.53V267.598H62.8198V259.992C62.8198 259.145 62.5998 258.482 62.1598 258.004C61.7253 257.525 61.123 257.286 60.353 257.286C59.8305 257.286 59.3657 257.401 58.9587 257.632C58.5572 257.858 58.241 258.185 58.01 258.614C57.7845 259.043 57.6717 259.563 57.6717 260.173ZM80.9329 254.926V257.236H73.648V254.926H80.9329ZM75.4466 251.89H78.4331V263.787C78.4331 264.188 78.4936 264.496 78.6146 264.711C78.7411 264.92 78.9061 265.063 79.1096 265.14C79.3131 265.217 79.5386 265.255 79.7861 265.255C79.9731 265.255 80.1436 265.242 80.2976 265.214C80.4571 265.187 80.5781 265.162 80.6606 265.14L81.1639 267.475C81.0044 267.53 80.7761 267.59 80.4791 267.656C80.1876 267.722 79.8301 267.761 79.4066 267.772C78.6586 267.794 77.9848 267.681 77.3853 267.433C76.7858 267.18 76.3101 266.79 75.9581 266.262C75.6116 265.734 75.4411 265.074 75.4466 264.282V251.89ZM86.6894 260.173V267.598H83.7028V250.702H86.6234V257.08H86.7719C87.0689 256.365 87.5281 255.801 88.1496 255.388C88.7767 254.97 89.5742 254.761 90.5422 254.761C91.4222 254.761 92.1894 254.945 92.844 255.314C93.4985 255.682 94.0045 256.221 94.362 256.931C94.725 257.641 94.9065 258.507 94.9065 259.53V267.598H91.9199V259.992C91.9199 259.139 91.6999 258.477 91.2599 258.004C90.8254 257.525 90.2149 257.286 89.4284 257.286C88.9004 257.286 88.4274 257.401 88.0094 257.632C87.5969 257.858 87.2724 258.185 87.0359 258.614C86.8049 259.043 86.6894 259.563 86.6894 260.173ZM103.561 267.846C102.29 267.846 101.193 267.582 100.269 267.054C99.3505 266.52 98.6438 265.767 98.1488 264.793C97.6538 263.814 97.4063 262.662 97.4063 261.337C97.4063 260.033 97.6538 258.889 98.1488 257.905C98.6493 256.915 99.3478 256.144 100.244 255.594C101.141 255.039 102.194 254.761 103.404 254.761C104.185 254.761 104.922 254.888 105.615 255.141C106.314 255.388 106.93 255.773 107.463 256.296C108.002 256.818 108.426 257.484 108.734 258.292C109.042 259.095 109.196 260.052 109.196 261.163V262.079H98.8088V260.066H106.333C106.327 259.494 106.204 258.985 105.962 258.54C105.72 258.089 105.381 257.734 104.947 257.476C104.518 257.217 104.017 257.088 103.445 257.088C102.835 257.088 102.299 257.236 101.837 257.533C101.375 257.825 101.014 258.21 100.756 258.688C100.503 259.161 100.374 259.681 100.368 260.248V262.005C100.368 262.742 100.503 263.374 100.772 263.902C101.042 264.425 101.419 264.826 101.903 265.107C102.387 265.382 102.953 265.519 103.602 265.519C104.037 265.519 104.43 265.459 104.782 265.338C105.134 265.211 105.439 265.027 105.698 264.785C105.956 264.543 106.151 264.243 106.283 263.886L109.072 264.199C108.896 264.936 108.56 265.58 108.065 266.13C107.576 266.674 106.949 267.098 106.184 267.4C105.42 267.697 104.545 267.846 103.561 267.846ZM117.485 272.35V254.926H120.422V257.022H120.595C120.749 256.714 120.966 256.387 121.247 256.04C121.527 255.688 121.907 255.388 122.386 255.141C122.864 254.888 123.475 254.761 124.217 254.761C125.196 254.761 126.079 255.011 126.865 255.512C127.657 256.007 128.284 256.741 128.746 257.715C129.214 258.683 129.448 259.871 129.448 261.279C129.448 262.67 129.219 263.853 128.763 264.826C128.306 265.8 127.685 266.542 126.898 267.054C126.112 267.565 125.221 267.821 124.225 267.821C123.499 267.821 122.897 267.7 122.419 267.458C121.94 267.216 121.555 266.925 121.263 266.584C120.977 266.237 120.755 265.91 120.595 265.602H120.471V272.35H117.485ZM120.414 261.262C120.414 262.082 120.529 262.8 120.76 263.416C120.997 264.032 121.335 264.513 121.775 264.859C122.221 265.2 122.76 265.371 123.392 265.371C124.052 265.371 124.605 265.195 125.05 264.843C125.496 264.485 125.831 263.999 126.057 263.383C126.288 262.761 126.403 262.054 126.403 261.262C126.403 260.476 126.291 259.777 126.065 259.167C125.84 258.556 125.504 258.078 125.059 257.731C124.613 257.385 124.058 257.212 123.392 257.212C122.754 257.212 122.212 257.379 121.767 257.715C121.321 258.05 120.983 258.521 120.752 259.126C120.526 259.731 120.414 260.443 120.414 261.262ZM135.652 267.854C134.849 267.854 134.125 267.711 133.482 267.425C132.844 267.134 132.338 266.705 131.964 266.138C131.595 265.572 131.411 264.873 131.411 264.043C131.411 263.328 131.543 262.736 131.807 262.269C132.071 261.801 132.431 261.427 132.888 261.147C133.344 260.866 133.859 260.655 134.431 260.512C135.008 260.363 135.605 260.256 136.221 260.19C136.963 260.113 137.566 260.044 138.028 259.984C138.49 259.918 138.825 259.819 139.034 259.687C139.249 259.549 139.356 259.337 139.356 259.051V259.002C139.356 258.38 139.172 257.899 138.803 257.558C138.435 257.217 137.904 257.047 137.211 257.047C136.479 257.047 135.899 257.206 135.47 257.525C135.047 257.844 134.761 258.221 134.612 258.655L131.824 258.259C132.044 257.489 132.407 256.846 132.913 256.329C133.419 255.806 134.037 255.416 134.769 255.157C135.5 254.893 136.309 254.761 137.194 254.761C137.805 254.761 138.413 254.833 139.018 254.976C139.623 255.119 140.175 255.355 140.676 255.685C141.176 256.01 141.578 256.453 141.88 257.014C142.188 257.575 142.343 258.276 142.343 259.117V267.598H139.471V265.858H139.372C139.191 266.21 138.935 266.54 138.605 266.848C138.281 267.15 137.871 267.395 137.376 267.582C136.886 267.763 136.312 267.854 135.652 267.854ZM136.427 265.66C137.027 265.66 137.546 265.541 137.986 265.305C138.426 265.063 138.765 264.744 139.001 264.348C139.243 263.952 139.364 263.52 139.364 263.053V261.559C139.271 261.636 139.111 261.708 138.886 261.774C138.666 261.84 138.418 261.898 138.143 261.947C137.868 261.997 137.596 262.041 137.326 262.079C137.057 262.118 136.823 262.151 136.625 262.178C136.18 262.239 135.781 262.338 135.429 262.475C135.077 262.613 134.799 262.805 134.596 263.053C134.392 263.295 134.29 263.608 134.29 263.993C134.29 264.543 134.491 264.958 134.893 265.239C135.294 265.519 135.806 265.66 136.427 265.66ZM155.361 258.276L152.639 258.573C152.562 258.298 152.427 258.039 152.234 257.797C152.047 257.555 151.794 257.36 151.475 257.212C151.156 257.063 150.766 256.989 150.304 256.989C149.682 256.989 149.16 257.124 148.736 257.393C148.318 257.663 148.112 258.012 148.118 258.441C148.112 258.809 148.247 259.109 148.522 259.34C148.802 259.571 149.264 259.761 149.908 259.909L152.069 260.371C153.268 260.63 154.159 261.04 154.742 261.601C155.331 262.162 155.628 262.896 155.633 263.803C155.628 264.601 155.394 265.305 154.932 265.915C154.476 266.52 153.84 266.993 153.026 267.334C152.212 267.675 151.277 267.846 150.221 267.846C148.67 267.846 147.422 267.521 146.476 266.872C145.53 266.218 144.966 265.308 144.785 264.142L147.697 263.861C147.829 264.433 148.109 264.865 148.538 265.156C148.967 265.448 149.526 265.594 150.213 265.594C150.923 265.594 151.492 265.448 151.921 265.156C152.355 264.865 152.573 264.505 152.573 264.076C152.573 263.713 152.432 263.413 152.152 263.176C151.877 262.94 151.448 262.758 150.865 262.632L148.703 262.178C147.488 261.925 146.589 261.499 146.006 260.899C145.423 260.294 145.134 259.53 145.139 258.606C145.134 257.825 145.346 257.148 145.775 256.576C146.209 255.999 146.811 255.553 147.581 255.24C148.357 254.921 149.251 254.761 150.263 254.761C151.748 254.761 152.916 255.077 153.769 255.71C154.627 256.343 155.158 257.198 155.361 258.276ZM164.424 254.926V257.236H157.139V254.926H164.424ZM158.938 251.89H161.924V263.787C161.924 264.188 161.985 264.496 162.106 264.711C162.232 264.92 162.397 265.063 162.601 265.14C162.804 265.217 163.03 265.255 163.277 265.255C163.464 265.255 163.635 265.242 163.789 265.214C163.948 265.187 164.069 265.162 164.152 265.14L164.655 267.475C164.495 267.53 164.267 267.59 163.97 267.656C163.679 267.722 163.321 267.761 162.898 267.772C162.15 267.794 161.476 267.681 160.876 267.433C160.277 267.18 159.801 266.79 159.449 266.262C159.103 265.734 158.932 265.074 158.938 264.282V251.89ZM178.525 267.829C177.425 267.829 176.441 267.623 175.572 267.211C174.703 266.793 174.013 266.221 173.501 265.495C172.995 264.769 172.726 263.938 172.693 263.003H175.663C175.718 263.696 176.017 264.263 176.562 264.703C177.106 265.137 177.761 265.354 178.525 265.354C179.125 265.354 179.658 265.217 180.126 264.942C180.593 264.667 180.962 264.285 181.231 263.795C181.501 263.306 181.633 262.747 181.627 262.12C181.633 261.482 181.498 260.916 181.223 260.421C180.948 259.926 180.571 259.538 180.093 259.258C179.614 258.972 179.064 258.829 178.443 258.829C177.937 258.823 177.439 258.917 176.95 259.109C176.46 259.302 176.072 259.555 175.786 259.868L173.023 259.414L173.905 250.702H183.706V253.26H176.438L175.951 257.74H176.05C176.364 257.371 176.807 257.066 177.379 256.824C177.951 256.576 178.578 256.453 179.26 256.453C180.283 256.453 181.196 256.695 181.999 257.179C182.802 257.657 183.434 258.317 183.896 259.159C184.358 260 184.589 260.963 184.589 262.046C184.589 263.163 184.331 264.158 183.814 265.033C183.302 265.902 182.59 266.586 181.677 267.087C180.769 267.582 179.719 267.829 178.525 267.829ZM193.149 267.598V254.926H196.003V257.08H196.152C196.416 256.354 196.853 255.787 197.463 255.38C198.074 254.967 198.803 254.761 199.65 254.761C200.508 254.761 201.231 254.97 201.82 255.388C202.414 255.801 202.832 256.365 203.074 257.08H203.206C203.486 256.376 203.959 255.814 204.625 255.396C205.296 254.973 206.09 254.761 207.009 254.761C208.175 254.761 209.126 255.13 209.863 255.867C210.6 256.604 210.969 257.679 210.969 259.093V267.598H207.974V259.555C207.974 258.768 207.765 258.193 207.347 257.83C206.929 257.462 206.418 257.278 205.813 257.278C205.092 257.278 204.528 257.503 204.121 257.954C203.72 258.4 203.519 258.98 203.519 259.695V267.598H200.59V259.431C200.59 258.776 200.392 258.254 199.996 257.863C199.606 257.473 199.094 257.278 198.462 257.278C198.033 257.278 197.642 257.388 197.29 257.608C196.938 257.822 196.658 258.127 196.449 258.523C196.24 258.914 196.135 259.37 196.135 259.893V267.598H193.149ZM219.526 267.846C218.289 267.846 217.216 267.574 216.309 267.029C215.401 266.485 214.697 265.723 214.197 264.744C213.702 263.765 213.454 262.621 213.454 261.312C213.454 260.003 213.702 258.856 214.197 257.872C214.697 256.887 215.401 256.122 216.309 255.578C217.216 255.033 218.289 254.761 219.526 254.761C220.764 254.761 221.836 255.033 222.744 255.578C223.651 256.122 224.353 256.887 224.848 257.872C225.348 258.856 225.598 260.003 225.598 261.312C225.598 262.621 225.348 263.765 224.848 264.744C224.353 265.723 223.651 266.485 222.744 267.029C221.836 267.574 220.764 267.846 219.526 267.846ZM219.543 265.453C220.214 265.453 220.775 265.269 221.226 264.901C221.677 264.527 222.012 264.026 222.232 263.399C222.458 262.772 222.571 262.074 222.571 261.304C222.571 260.528 222.458 259.827 222.232 259.2C222.012 258.567 221.677 258.064 221.226 257.69C220.775 257.316 220.214 257.129 219.543 257.129C218.855 257.129 218.283 257.316 217.827 257.69C217.376 258.064 217.038 258.567 216.812 259.2C216.592 259.827 216.482 260.528 216.482 261.304C216.482 262.074 216.592 262.772 216.812 263.399C217.038 264.026 217.376 264.527 217.827 264.901C218.283 265.269 218.855 265.453 219.543 265.453ZM231.12 260.173V267.598H228.133V254.926H230.988V257.08H231.136C231.428 256.37 231.893 255.806 232.531 255.388C233.174 254.97 233.969 254.761 234.915 254.761C235.789 254.761 236.551 254.948 237.2 255.322C237.855 255.696 238.361 256.238 238.718 256.948C239.081 257.657 239.26 258.518 239.254 259.53V267.598H236.268V259.992C236.268 259.145 236.048 258.482 235.608 258.004C235.173 257.525 234.571 257.286 233.801 257.286C233.279 257.286 232.814 257.401 232.407 257.632C232.005 257.858 231.689 258.185 231.458 258.614C231.233 259.043 231.12 259.563 231.12 260.173ZM248.618 254.926V257.236H241.333V254.926H248.618ZM243.132 251.89H246.118V263.787C246.118 264.188 246.179 264.496 246.3 264.711C246.426 264.92 246.591 265.063 246.795 265.14C246.998 265.217 247.224 265.255 247.471 265.255C247.658 265.255 247.829 265.242 247.983 265.214C248.142 265.187 248.263 265.162 248.346 265.14L248.849 267.475C248.69 267.53 248.461 267.59 248.164 267.656C247.873 267.722 247.515 267.761 247.092 267.772C246.344 267.794 245.67 267.681 245.071 267.433C244.471 267.18 243.995 266.79 243.643 266.262C243.297 265.734 243.126 265.074 243.132 264.282V251.89ZM254.375 260.173V267.598H251.388V250.702H254.309V257.08H254.457C254.754 256.365 255.213 255.801 255.835 255.388C256.462 254.97 257.26 254.761 258.228 254.761C259.108 254.761 259.875 254.945 260.529 255.314C261.184 255.682 261.69 256.221 262.047 256.931C262.41 257.641 262.592 258.507 262.592 259.53V267.598H259.605V259.992C259.605 259.139 259.385 258.477 258.945 258.004C258.511 257.525 257.9 257.286 257.114 257.286C256.586 257.286 256.113 257.401 255.695 257.632C255.282 257.858 254.958 258.185 254.721 258.614C254.49 259.043 254.375 259.563 254.375 260.173Z" fill="#999999"/>
<rect x="47.1191" y="46.4646" width="111.551" height="30.6378" rx="15.3189" fill="#F3F9FF"/>
<path d="M61.1865 56.5002V54.301H72.7414V56.5002H68.2651V68.7834H65.6628V56.5002H61.1865ZM74.9689 68.7834V54.301H80.3998C81.5124 54.301 82.4459 54.4943 83.2002 54.8808C83.9592 55.2674 84.532 55.8096 84.9185 56.5073C85.3098 57.2003 85.5055 58.0088 85.5055 58.9328C85.5055 59.8616 85.3075 60.6677 84.9115 61.3513C84.5202 62.0301 83.9427 62.5558 83.179 62.9282C82.4152 63.296 81.4771 63.4798 80.3645 63.4798H76.4964V61.3018H80.0109C80.6615 61.3018 81.1942 61.2122 81.6091 61.0331C82.0239 60.8492 82.3304 60.5828 82.5284 60.234C82.7311 59.8804 82.8325 59.4467 82.8325 58.9328C82.8325 58.419 82.7311 57.9805 82.5284 57.6175C82.3257 57.2498 82.0169 56.9717 81.602 56.7831C81.1871 56.5898 80.6521 56.4932 79.9968 56.4932H77.5925V68.7834H74.9689ZM82.4506 62.2211L86.0358 68.7834H83.1082L79.5866 62.2211H82.4506ZM89.7802 68.7834H86.9799L92.0785 54.301H95.3172L100.423 68.7834H97.6225L93.7544 57.271H93.6413L89.7802 68.7834ZM89.8721 63.105H97.5094V65.2123H89.8721V63.105ZM102.33 68.7834V54.301H111.608V56.5002H104.954V60.432H110.972V62.6312H104.954V68.7834H102.33ZM113.998 68.7834V54.301H123.276V56.5002H116.622V60.432H122.64V62.6312H116.622V68.7834H113.998ZM128.29 54.301V68.7834H125.666V54.301H128.29ZM143.527 59.1874H140.883C140.807 58.7537 140.668 58.3695 140.465 58.0347C140.263 57.6953 140.01 57.4077 139.709 57.172C139.407 56.9363 139.063 56.7595 138.676 56.6417C138.294 56.5191 137.882 56.4578 137.439 56.4578C136.651 56.4578 135.954 56.6558 135.346 57.0518C134.737 57.4431 134.261 58.0182 133.917 58.7773C133.573 59.5315 133.401 60.4532 133.401 61.5422C133.401 62.6501 133.573 63.5835 133.917 64.3425C134.266 65.0968 134.742 65.6673 135.346 66.0538C135.954 66.4357 136.649 66.6266 137.432 66.6266C137.865 66.6266 138.271 66.5701 138.648 66.4569C139.03 66.3391 139.372 66.167 139.673 65.9407C139.98 65.7144 140.237 65.4363 140.444 65.1063C140.656 64.7763 140.802 64.3991 140.883 63.9748L143.527 63.989C143.428 64.6773 143.214 65.3231 142.884 65.9266C142.558 66.53 142.132 67.0627 141.604 67.5247C141.076 67.982 140.458 68.3403 139.751 68.5996C139.044 68.8542 138.259 68.9814 137.396 68.9814C136.123 68.9814 134.987 68.6868 133.988 68.0975C132.988 67.5082 132.201 66.6573 131.626 65.5447C131.051 64.4321 130.763 63.0979 130.763 61.5422C130.763 59.9818 131.053 58.6476 131.633 57.5397C132.213 56.4272 133.002 55.5762 134.002 54.9869C135.001 54.3976 136.133 54.103 137.396 54.103C138.202 54.103 138.952 54.2161 139.645 54.4424C140.338 54.6687 140.956 55.0011 141.498 55.4395C142.04 55.8732 142.485 56.4059 142.834 57.0377C143.188 57.6647 143.419 58.3812 143.527 59.1874Z" fill="#0B8AFF"/>
<defs>
<clipPath id="clip0_1321_517">
<rect width="15.5945" height="406.565" fill="white" transform="translate(40.1377 368.398)"/>
</clipPath>
<clipPath id="clip1_1321_517">
<rect width="505.132" height="393.289" fill="white" transform="translate(70.0078 375.035)"/>
</clipPath>
</defs>
</svg>
