<svg width="644" height="617" viewBox="0 0 644 617" fill="none" xmlns="http://www.w3.org/2000/svg">
<rect width="643.819" height="616.413" transform="translate(0 0.111328)" fill="white"/>
<path d="M91.0789 74.134V131.94H82.3289V82.884H81.9901L68.1595 91.9162V83.5614L82.5829 74.134H91.0789ZM105.126 131.94V125.618L124.687 105.352C126.775 103.15 128.497 101.221 129.852 99.5654C131.226 97.8907 132.251 96.3006 132.929 94.7953C133.606 93.2899 133.945 91.6904 133.945 89.9969C133.945 88.0775 133.493 86.4216 132.59 85.0291C131.687 83.6178 130.454 82.5359 128.892 81.7832C127.331 81.0117 125.571 80.6259 123.614 80.6259C121.544 80.6259 119.738 81.0493 118.195 81.8961C116.652 82.7428 115.466 83.9377 114.638 85.4808C113.81 87.0238 113.396 88.8302 113.396 90.9001H105.07C105.07 87.3813 105.879 84.3047 107.497 81.6703C109.116 79.0359 111.336 76.9942 114.159 75.5453C116.981 74.0775 120.189 73.3437 123.784 73.3437C127.415 73.3437 130.614 74.0681 133.38 75.517C136.165 76.9471 138.339 78.9041 139.9 81.388C141.462 83.8531 142.243 86.638 142.243 89.7428C142.243 91.888 141.839 93.9861 141.029 96.0372C140.239 98.0883 138.856 100.375 136.88 102.896C134.904 105.399 132.157 108.438 128.638 112.013L117.15 124.037V124.461H143.175V131.94H105.126ZM164.843 100.271C162.397 100.271 160.167 99.6783 158.154 98.4928C156.159 97.2885 154.559 95.6797 153.355 93.6662C152.17 91.6528 151.577 89.423 151.577 86.9767C151.577 84.5305 152.17 82.3101 153.355 80.3154C154.559 78.302 156.159 76.7025 158.154 75.517C160.167 74.3127 162.397 73.7106 164.843 73.7106C167.289 73.7106 169.519 74.3127 171.533 75.517C173.546 76.7025 175.145 78.302 176.331 80.3154C177.535 82.3101 178.137 84.5305 178.137 86.9767C178.137 89.423 177.535 91.6528 176.331 93.6662C175.145 95.6797 173.546 97.2885 171.533 98.4928C169.519 99.6783 167.289 100.271 164.843 100.271ZM164.843 93.8356C166.123 93.8356 167.28 93.5251 168.315 92.9041C169.35 92.2832 170.168 91.4552 170.77 90.4203C171.391 89.3853 171.702 88.2375 171.702 86.9767C171.702 85.716 171.391 84.5681 170.77 83.5332C170.168 82.4982 169.35 81.6797 168.315 81.0775C167.28 80.4566 166.123 80.1461 164.843 80.1461C163.582 80.1461 162.434 80.4566 161.399 81.0775C160.365 81.6797 159.537 82.4982 158.916 83.5332C158.313 84.5681 158.012 85.716 158.012 86.9767C158.012 88.2375 158.313 89.3853 158.916 90.4203C159.537 91.4552 160.365 92.2832 161.399 92.9041C162.434 93.5251 163.582 93.8356 164.843 93.8356Z" fill="#141D40"/>
<rect x="331.109" y="63.6985" width="249.123" height="79.4839" rx="39.7419" fill="#0B8AFF"/>
<path fill-rule="evenodd" clip-rule="evenodd" d="M373.761 120.401C376.671 123.311 381.354 123.311 390.722 123.311C400.089 123.311 404.772 123.311 407.682 120.401C410.593 117.491 410.593 112.808 410.593 103.44C410.593 94.073 410.593 89.3894 407.682 86.4794C404.772 83.5693 400.089 83.5693 390.722 83.5693C381.354 83.5693 376.671 83.5693 373.761 86.4794C370.851 89.3894 370.851 94.073 370.851 103.44C370.851 112.808 370.851 117.491 373.761 120.401ZM400.527 95.8813L393.549 114.095C392.916 115.745 390.602 115.798 390.109 114.174L388.01 107.265C387.846 106.728 387.434 106.316 386.897 106.152L379.987 104.053C378.363 103.559 378.417 101.246 380.067 100.613L398.281 93.6344C399.741 93.0748 401.087 94.421 400.527 95.8813Z" fill="white"/>
<path d="M432.687 113.44V93.2082H439.898C441.472 93.2082 442.776 93.4947 443.81 94.0676C444.844 94.6406 445.618 95.4244 446.132 96.4189C446.646 97.4068 446.903 98.5198 446.903 99.758C446.903 101.003 446.642 102.122 446.122 103.117C445.608 104.105 444.831 104.888 443.791 105.468C442.757 106.041 441.456 106.328 439.888 106.328H434.929V103.739H439.612C440.606 103.739 441.413 103.568 442.032 103.226C442.651 102.876 443.106 102.402 443.396 101.803C443.685 101.204 443.83 100.522 443.83 99.758C443.83 98.994 443.685 98.3156 443.396 97.7229C443.106 97.1301 442.648 96.6658 442.022 96.3299C441.403 95.9941 440.587 95.8261 439.572 95.8261H435.739V113.44H432.687ZM453.968 113.776C453.006 113.776 452.137 113.598 451.36 113.243C450.583 112.881 449.967 112.357 449.512 111.672C449.065 110.987 448.841 110.147 448.841 109.153C448.841 108.297 449.005 107.592 449.335 107.039C449.664 106.486 450.108 106.048 450.668 105.725C451.228 105.402 451.854 105.159 452.545 104.994C453.237 104.829 453.942 104.704 454.659 104.618C455.568 104.513 456.306 104.427 456.872 104.362C457.439 104.289 457.85 104.174 458.107 104.016C458.364 103.858 458.492 103.601 458.492 103.245V103.176C458.492 102.313 458.249 101.645 457.761 101.171C457.281 100.696 456.563 100.459 455.608 100.459C454.613 100.459 453.83 100.68 453.257 101.121C452.69 101.556 452.298 102.04 452.081 102.573L449.305 101.941C449.634 101.019 450.115 100.275 450.747 99.7086C451.386 99.1356 452.12 98.7207 452.95 98.4638C453.78 98.2004 454.653 98.0687 455.568 98.0687C456.174 98.0687 456.816 98.1411 457.495 98.286C458.18 98.4243 458.818 98.6812 459.411 99.0566C460.011 99.432 460.501 99.9687 460.883 100.667C461.265 101.358 461.456 102.257 461.456 103.364V113.44H458.571V111.366H458.453C458.262 111.748 457.975 112.123 457.593 112.492C457.211 112.861 456.721 113.167 456.121 113.411C455.522 113.654 454.804 113.776 453.968 113.776ZM454.61 111.405C455.427 111.405 456.125 111.244 456.704 110.921C457.291 110.599 457.735 110.177 458.038 109.657C458.348 109.13 458.502 108.567 458.502 107.967V106.011C458.397 106.117 458.193 106.216 457.89 106.308C457.593 106.393 457.254 106.469 456.872 106.535C456.49 106.594 456.118 106.65 455.756 106.703C455.394 106.749 455.091 106.789 454.847 106.821C454.274 106.894 453.751 107.016 453.276 107.187C452.809 107.358 452.433 107.605 452.15 107.928C451.874 108.244 451.735 108.666 451.735 109.192C451.735 109.923 452.005 110.477 452.545 110.852C453.085 111.221 453.774 111.405 454.61 111.405ZM467.788 93.2082V113.44H464.834V93.2082H467.788ZM477.597 113.747C476.175 113.747 474.933 113.421 473.873 112.769C472.812 112.117 471.989 111.204 471.403 110.032C470.817 108.86 470.524 107.49 470.524 105.922C470.524 104.348 470.817 102.972 471.403 101.793C471.989 100.614 472.812 99.6987 473.873 99.0467C474.933 98.3947 476.175 98.0687 477.597 98.0687C479.02 98.0687 480.261 98.3947 481.322 99.0467C482.382 99.6987 483.205 100.614 483.791 101.793C484.377 102.972 484.671 104.348 484.671 105.922C484.671 107.49 484.377 108.86 483.791 110.032C483.205 111.204 482.382 112.117 481.322 112.769C480.261 113.421 479.02 113.747 477.597 113.747ZM477.607 111.267C478.529 111.267 479.293 111.023 479.899 110.536C480.505 110.049 480.953 109.4 481.242 108.59C481.539 107.78 481.687 106.887 481.687 105.913C481.687 104.944 481.539 104.055 481.242 103.245C480.953 102.429 480.505 101.773 479.899 101.279C479.293 100.785 478.529 100.538 477.607 100.538C476.678 100.538 475.908 100.785 475.295 101.279C474.689 101.773 474.238 102.429 473.942 103.245C473.652 104.055 473.507 104.944 473.507 105.913C473.507 106.887 473.652 107.78 473.942 108.59C474.238 109.4 474.689 110.049 475.295 110.536C475.908 111.023 476.678 111.267 477.607 111.267ZM496.163 113.44H492.923L500.204 93.2082H503.731L511.012 113.44H507.771L502.051 96.8832H501.893L496.163 113.44ZM496.707 105.517H507.218V108.086H496.707V105.517ZM516.094 93.2082V113.44H513.14V93.2082H516.094ZM526.594 98.2662V100.637H518.306V98.2662H526.594ZM520.529 94.6308H523.482V108.985C523.482 109.558 523.568 109.989 523.739 110.279C523.911 110.562 524.131 110.757 524.401 110.862C524.678 110.961 524.977 111.01 525.3 111.01C525.537 111.01 525.745 110.994 525.923 110.961C526.1 110.928 526.239 110.902 526.338 110.882L526.871 113.322C526.7 113.388 526.456 113.454 526.14 113.519C525.824 113.592 525.429 113.631 524.954 113.638C524.177 113.651 523.453 113.513 522.781 113.223C522.109 112.933 521.566 112.485 521.151 111.88C520.736 111.274 520.529 110.513 520.529 109.597V94.6308ZM535.534 113.747C534.112 113.747 532.87 113.421 531.81 112.769C530.749 112.117 529.926 111.204 529.34 110.032C528.754 108.86 528.461 107.49 528.461 105.922C528.461 104.348 528.754 102.972 529.34 101.793C529.926 100.614 530.749 99.6987 531.81 99.0467C532.87 98.3947 534.112 98.0687 535.534 98.0687C536.957 98.0687 538.198 98.3947 539.259 99.0467C540.319 99.6987 541.142 100.614 541.728 101.793C542.315 102.972 542.608 104.348 542.608 105.922C542.608 107.49 542.315 108.86 541.728 110.032C541.142 111.204 540.319 112.117 539.259 112.769C538.198 113.421 536.957 113.747 535.534 113.747ZM535.544 111.267C536.466 111.267 537.23 111.023 537.836 110.536C538.442 110.049 538.89 109.4 539.18 108.59C539.476 107.78 539.624 106.887 539.624 105.913C539.624 104.944 539.476 104.055 539.18 103.245C538.89 102.429 538.442 101.773 537.836 101.279C537.23 100.785 536.466 100.538 535.544 100.538C534.615 100.538 533.845 100.785 533.232 101.279C532.626 101.773 532.175 102.429 531.879 103.245C531.589 104.055 531.444 104.944 531.444 105.913C531.444 106.887 531.589 107.78 531.879 108.59C532.175 109.4 532.626 110.049 533.232 110.536C533.845 111.023 534.615 111.267 535.544 111.267Z" fill="white"/>
<mask id="path-5-inside-1_1346_148" fill="white">
<path fill-rule="evenodd" clip-rule="evenodd" d="M345.688 417.731C332.743 422.654 318.699 425.35 304.026 425.35C283.562 425.35 264.324 420.107 247.579 410.892C233.873 420.026 217.41 425.35 199.703 425.35C151.965 425.35 113.265 386.65 113.265 338.911C113.265 291.172 151.965 252.473 199.703 252.473C200.07 252.473 200.436 252.475 200.801 252.479C220.613 215.796 259.409 190.873 304.026 190.873C339.256 190.873 370.857 206.412 392.348 231.01C424.562 233.909 452.254 252.497 467.723 279.076C503.261 284.253 530.555 314.853 530.555 351.827C530.555 392.433 497.638 425.35 457.032 425.35C444.749 425.35 433.17 422.338 422.992 417.012C410.925 422.372 397.565 425.35 383.51 425.35C370.096 425.35 357.316 422.638 345.688 417.731Z"/>
</mask>
<path fill-rule="evenodd" clip-rule="evenodd" d="M345.688 417.731C332.743 422.654 318.699 425.35 304.026 425.35C283.562 425.35 264.324 420.107 247.579 410.892C233.873 420.026 217.41 425.35 199.703 425.35C151.965 425.35 113.265 386.65 113.265 338.911C113.265 291.172 151.965 252.473 199.703 252.473C200.07 252.473 200.436 252.475 200.801 252.479C220.613 215.796 259.409 190.873 304.026 190.873C339.256 190.873 370.857 206.412 392.348 231.01C424.562 233.909 452.254 252.497 467.723 279.076C503.261 284.253 530.555 314.853 530.555 351.827C530.555 392.433 497.638 425.35 457.032 425.35C444.749 425.35 433.17 422.338 422.992 417.012C410.925 422.372 397.565 425.35 383.51 425.35C370.096 425.35 357.316 422.638 345.688 417.731Z" fill="url(#paint0_linear_1346_148)"/>
<path d="M345.688 417.731L346.461 415.901L345.727 415.591L344.982 415.874L345.688 417.731ZM247.579 410.892L248.537 409.151L247.481 408.569L246.477 409.238L247.579 410.892ZM200.801 252.479L200.777 254.466L201.979 254.481L202.55 253.424L200.801 252.479ZM392.348 231.01L390.851 232.318L391.376 232.918L392.17 232.989L392.348 231.01ZM467.723 279.076L466.005 280.076L466.488 280.905L467.436 281.043L467.723 279.076ZM422.992 417.012L423.914 415.252L423.063 414.807L422.186 415.196L422.992 417.012ZM304.026 427.337C318.944 427.337 333.227 424.596 346.395 419.589L344.982 415.874C332.258 420.713 318.454 423.363 304.026 423.363V427.337ZM246.621 412.632C263.652 422.005 283.219 427.337 304.026 427.337V423.363C283.906 423.363 264.996 418.209 248.537 409.151L246.621 412.632ZM199.703 427.337C217.814 427.337 234.659 421.89 248.681 412.545L246.477 409.238C233.087 418.162 217.006 423.363 199.703 423.363V427.337ZM111.278 338.911C111.278 387.747 150.867 427.337 199.703 427.337V423.363C153.062 423.363 115.252 385.553 115.252 338.911H111.278ZM199.703 250.485C150.867 250.485 111.278 290.075 111.278 338.911H115.252C115.252 292.27 153.062 254.46 199.703 254.46V250.485ZM200.826 250.492C200.452 250.488 200.078 250.485 199.703 250.485V254.46C200.062 254.46 200.419 254.462 200.777 254.466L200.826 250.492ZM304.026 188.885C258.65 188.885 219.198 214.235 199.053 251.535L202.55 253.424C222.029 217.357 260.168 192.86 304.026 192.86V188.885ZM393.844 229.703C371.992 204.691 339.853 188.885 304.026 188.885V192.86C338.658 192.86 369.721 208.133 390.851 232.318L393.844 229.703ZM469.44 278.077C453.658 250.96 425.403 231.989 392.526 229.031L392.17 232.989C423.721 235.828 450.849 254.034 466.005 280.076L469.44 278.077ZM467.436 281.043C502.013 286.079 528.568 315.854 528.568 351.827H532.542C532.542 313.852 504.51 282.427 468.009 277.11L467.436 281.043ZM528.568 351.827C528.568 391.335 496.54 423.363 457.032 423.363V427.337C498.735 427.337 532.542 393.53 532.542 351.827H528.568ZM457.032 423.363C445.078 423.363 433.814 420.432 423.914 415.252L422.071 418.773C432.526 424.244 444.421 427.337 457.032 427.337V423.363ZM383.51 427.337C397.848 427.337 411.482 424.299 423.799 418.828L422.186 415.196C410.367 420.445 397.282 423.363 383.51 423.363V427.337ZM344.916 419.562C356.784 424.57 369.826 427.337 383.51 427.337V423.363C370.366 423.363 357.849 420.706 346.461 415.901L344.916 419.562Z" fill="url(#paint1_linear_1346_148)" mask="url(#path-5-inside-1_1346_148)"/>
<path opacity="0.5" d="M84.7901 477.918V501.04H81.5837L69.8305 484.082H69.6159V501.04H66.1272V477.918H69.3563L81.1208 494.898H81.3353V477.918H84.7901ZM96.9131 501.39C95.2873 501.39 93.8685 501.018 92.6567 500.273C91.4448 499.528 90.504 498.485 89.8341 497.145C89.1642 495.805 88.8293 494.24 88.8293 492.448C88.8293 490.65 89.1642 489.076 89.8341 487.729C90.504 486.382 91.4448 485.336 92.6567 484.59C93.8685 483.845 95.2873 483.473 96.9131 483.473C98.5389 483.473 99.9577 483.845 101.17 484.59C102.381 485.336 103.322 486.382 103.992 487.729C104.662 489.076 104.997 490.65 104.997 492.448C104.997 494.24 104.662 495.805 103.992 497.145C103.322 498.485 102.381 499.528 101.17 500.273C99.9577 501.018 98.5389 501.39 96.9131 501.39ZM96.9244 498.557C97.9782 498.557 98.8513 498.278 99.5438 497.721C100.236 497.164 100.748 496.423 101.079 495.497C101.418 494.571 101.587 493.551 101.587 492.437C101.587 491.331 101.418 490.315 101.079 489.389C100.748 488.455 100.236 487.707 99.5438 487.142C98.8513 486.578 97.9782 486.295 96.9244 486.295C95.8631 486.295 94.9825 486.578 94.2825 487.142C93.59 487.707 93.0744 488.455 92.7357 489.389C92.4045 490.315 92.2389 491.331 92.2389 492.437C92.2389 493.551 92.4045 494.571 92.7357 495.497C93.0744 496.423 93.59 497.164 94.2825 497.721C94.9825 498.278 95.8631 498.557 96.9244 498.557ZM111.997 501.04L106.894 483.698H110.382L113.781 496.434H113.95L117.36 483.698H120.849L124.236 496.378H124.405L127.781 483.698H131.27L126.178 501.04H122.734L119.212 488.519H118.952L115.429 501.04H111.997Z" fill="#141D40"/>
<path d="M74.1095 525.815V548.937H71.3095V528.75H71.174L65.5288 532.498V529.653L71.3095 525.815H74.1095ZM80.7595 548.937V546.905L88.3918 538.55C89.2875 537.572 90.0251 536.721 90.6047 535.998C91.1842 535.268 91.6133 534.583 91.8918 533.944C92.1778 533.296 92.3208 532.619 92.3208 531.911C92.3208 531.098 92.1251 530.395 91.7337 529.8C91.3498 529.205 90.8229 528.746 90.153 528.423C89.4832 528.099 88.7305 527.937 87.895 527.937C87.0068 527.937 86.2315 528.122 85.5692 528.49C84.9143 528.852 84.4063 529.36 84.045 530.015C83.6912 530.669 83.5143 531.437 83.5143 532.318H80.8498C80.8498 530.963 81.1622 529.774 81.7869 528.75C82.4116 527.726 83.2622 526.929 84.3385 526.356C85.4224 525.784 86.638 525.498 87.9853 525.498C89.3401 525.498 90.5407 525.784 91.5869 526.356C92.6332 526.929 93.4536 527.7 94.0482 528.671C94.6428 529.642 94.9401 530.722 94.9401 531.911C94.9401 532.762 94.7858 533.594 94.4772 534.406C94.1762 535.212 93.6493 536.111 92.8966 537.105C92.1514 538.091 91.1165 539.295 89.7918 540.718L84.5982 546.273V546.453H95.3466V548.937H80.7595ZM104.842 536.021C103.886 536.021 103.013 535.788 102.222 535.321C101.44 534.854 100.815 534.23 100.348 533.447C99.8815 532.656 99.6482 531.783 99.6482 530.827C99.6482 529.872 99.8815 529.002 100.348 528.219C100.815 527.429 101.44 526.801 102.222 526.334C103.013 525.867 103.886 525.634 104.842 525.634C105.798 525.634 106.667 525.867 107.45 526.334C108.24 526.801 108.869 527.429 109.335 528.219C109.802 529.002 110.035 529.872 110.035 530.827C110.035 531.783 109.802 532.656 109.335 533.447C108.869 534.23 108.24 534.854 107.45 535.321C106.667 535.788 105.798 536.021 104.842 536.021ZM104.842 533.763C105.384 533.763 105.877 533.631 106.321 533.368C106.765 533.104 107.119 532.751 107.382 532.306C107.646 531.862 107.777 531.369 107.777 530.827C107.777 530.286 107.646 529.793 107.382 529.348C107.119 528.904 106.765 528.551 106.321 528.287C105.877 528.024 105.384 527.892 104.842 527.892C104.3 527.892 103.807 528.024 103.363 528.287C102.919 528.551 102.565 528.904 102.301 529.348C102.038 529.793 101.906 530.286 101.906 530.827C101.906 531.369 102.038 531.862 102.301 532.306C102.565 532.751 102.919 533.104 103.363 533.368C103.807 533.631 104.3 533.763 104.842 533.763Z" fill="#141D40"/>
<g opacity="0.1">
<path d="M164.361 480.989V544.989" stroke="#141D40" stroke-width="1.9871"/>
</g>
<path opacity="0.5" d="M207.133 477.918V501.04H203.633V481.418H203.497L197.965 485.031V481.689L203.734 477.918H207.133ZM212.902 496.524V493.702L222.894 477.918H225.118V482.073H223.707L216.56 493.386V493.566H230.255V496.524H212.902ZM223.865 501.04V495.666L223.887 494.379V477.918H227.195V501.04H223.865ZM236.459 498.173C235.842 498.173 235.311 497.954 234.867 497.518C234.423 497.074 234.201 496.539 234.201 495.915C234.201 495.297 234.423 494.771 234.867 494.334C235.311 493.89 235.842 493.668 236.459 493.668C237.076 493.668 237.607 493.89 238.051 494.334C238.495 494.771 238.717 495.297 238.717 495.915C238.717 496.329 238.612 496.709 238.401 497.055C238.198 497.394 237.927 497.665 237.588 497.868C237.249 498.071 236.873 498.173 236.459 498.173ZM236.459 486.589C235.842 486.589 235.311 486.371 234.867 485.934C234.423 485.49 234.201 484.955 234.201 484.331C234.201 483.714 234.423 483.187 234.867 482.75C235.311 482.306 235.842 482.084 236.459 482.084C237.076 482.084 237.607 482.306 238.051 482.75C238.495 483.187 238.717 483.714 238.717 484.331C238.717 484.745 238.612 485.125 238.401 485.471C238.198 485.81 237.927 486.081 237.588 486.284C237.249 486.487 236.873 486.589 236.459 486.589ZM251.244 501.424C249.46 501.417 247.936 500.946 246.671 500.013C245.407 499.08 244.44 497.721 243.77 495.937C243.1 494.153 242.765 492.004 242.765 489.49C242.765 486.984 243.1 484.843 243.77 483.066C244.447 481.29 245.418 479.935 246.683 479.002C247.955 478.068 249.475 477.602 251.244 477.602C253.013 477.602 254.529 478.072 255.794 479.013C257.058 479.946 258.026 481.301 258.695 483.078C259.373 484.846 259.712 486.984 259.712 489.49C259.712 492.012 259.377 494.165 258.707 495.948C258.037 497.725 257.07 499.083 255.805 500.024C254.541 500.958 253.02 501.424 251.244 501.424ZM251.244 498.41C252.809 498.41 254.033 497.646 254.913 496.118C255.801 494.59 256.245 492.381 256.245 489.49C256.245 487.571 256.042 485.949 255.636 484.624C255.237 483.292 254.661 482.283 253.908 481.598C253.163 480.906 252.275 480.56 251.244 480.56C249.686 480.56 248.463 481.328 247.574 482.863C246.686 484.398 246.238 486.608 246.231 489.49C246.231 491.417 246.43 493.047 246.829 494.379C247.236 495.704 247.812 496.709 248.557 497.394C249.302 498.071 250.198 498.41 251.244 498.41ZM271.767 501.424C269.983 501.417 268.459 500.946 267.194 500.013C265.93 499.08 264.962 497.721 264.293 495.937C263.623 494.153 263.288 492.004 263.288 489.49C263.288 486.984 263.623 484.843 264.293 483.066C264.97 481.29 265.941 479.935 267.206 479.002C268.478 478.068 269.998 477.602 271.767 477.602C273.536 477.602 275.052 478.072 276.317 479.013C277.581 479.946 278.549 481.301 279.218 483.078C279.896 484.846 280.235 486.984 280.235 489.49C280.235 492.012 279.9 494.165 279.23 495.948C278.56 497.725 277.593 499.083 276.328 500.024C275.064 500.958 273.543 501.424 271.767 501.424ZM271.767 498.41C273.332 498.41 274.556 497.646 275.436 496.118C276.324 494.59 276.768 492.381 276.768 489.49C276.768 487.571 276.565 485.949 276.159 484.624C275.76 483.292 275.184 482.283 274.431 481.598C273.686 480.906 272.798 480.56 271.767 480.56C270.209 480.56 268.986 481.328 268.097 482.863C267.209 484.398 266.761 486.608 266.754 489.49C266.754 491.417 266.953 493.047 267.352 494.379C267.759 495.704 268.335 496.709 269.08 497.394C269.825 498.071 270.721 498.41 271.767 498.41Z" fill="#141D40"/>
<path d="M206.658 525.815V548.937H203.858V528.75H203.723L198.078 532.498V529.653L203.858 525.815H206.658ZM220.534 549.253C219.209 549.253 218.016 548.99 216.955 548.463C215.894 547.936 215.043 547.213 214.403 546.295C213.764 545.377 213.414 544.331 213.353 543.156H216.063C216.169 544.203 216.643 545.068 217.486 545.753C218.336 546.431 219.352 546.769 220.534 546.769C221.483 546.769 222.326 546.547 223.063 546.103C223.808 545.659 224.392 545.049 224.813 544.274C225.242 543.491 225.457 542.607 225.457 541.621C225.457 540.612 225.235 539.713 224.791 538.923C224.354 538.125 223.752 537.496 222.984 537.037C222.216 536.578 221.34 536.345 220.353 536.337C219.646 536.33 218.92 536.439 218.174 536.665C217.429 536.883 216.816 537.165 216.334 537.511L213.715 537.195L215.115 525.815H227.128V528.298H217.463L216.65 535.118H216.786C217.26 534.741 217.855 534.429 218.57 534.181C219.285 533.932 220.03 533.808 220.805 533.808C222.22 533.808 223.481 534.147 224.587 534.824C225.701 535.494 226.574 536.412 227.207 537.579C227.846 538.746 228.166 540.078 228.166 541.576C228.166 543.051 227.835 544.368 227.173 545.527C226.518 546.679 225.615 547.59 224.463 548.26C223.312 548.922 222.002 549.253 220.534 549.253ZM237.484 536.021C236.528 536.021 235.655 535.788 234.864 535.321C234.082 534.854 233.457 534.23 232.99 533.447C232.524 532.656 232.29 531.783 232.29 530.827C232.29 529.872 232.524 529.002 232.99 528.219C233.457 527.429 234.082 526.801 234.864 526.334C235.655 525.867 236.528 525.634 237.484 525.634C238.44 525.634 239.309 525.867 240.092 526.334C240.882 526.801 241.511 527.429 241.977 528.219C242.444 529.002 242.677 529.872 242.677 530.827C242.677 531.783 242.444 532.656 241.977 533.447C241.511 534.23 240.882 534.854 240.092 535.321C239.309 535.788 238.44 536.021 237.484 536.021ZM237.484 533.763C238.026 533.763 238.519 533.631 238.963 533.368C239.407 533.104 239.761 532.751 240.024 532.306C240.287 531.862 240.419 531.369 240.419 530.827C240.419 530.286 240.287 529.793 240.024 529.348C239.761 528.904 239.407 528.551 238.963 528.287C238.519 528.024 238.026 527.892 237.484 527.892C236.942 527.892 236.449 528.024 236.005 528.287C235.561 528.551 235.207 528.904 234.943 529.348C234.68 529.793 234.548 530.286 234.548 530.827C234.548 531.369 234.68 531.862 234.943 532.306C235.207 532.751 235.561 533.104 236.005 533.368C236.449 533.631 236.942 533.763 237.484 533.763Z" fill="#141D40"/>
<g opacity="0.1">
<path d="M313.909 480.989V544.989" stroke="#141D40" stroke-width="1.9871"/>
</g>
<path opacity="0.5" d="M356.68 477.918V501.04H353.18V481.418H353.045L347.513 485.031V481.689L353.282 477.918H356.68ZM370.567 501.357C369.152 501.357 367.88 501.086 366.751 500.544C365.63 499.994 364.734 499.241 364.064 498.286C363.394 497.33 363.037 496.238 362.992 495.011H366.379C366.462 496.005 366.902 496.822 367.7 497.461C368.498 498.101 369.453 498.421 370.567 498.421C371.456 498.421 372.242 498.218 372.927 497.811C373.62 497.397 374.162 496.829 374.553 496.107C374.952 495.384 375.151 494.56 375.151 493.634C375.151 492.693 374.948 491.854 374.542 491.116C374.135 490.379 373.574 489.799 372.859 489.378C372.152 488.956 371.339 488.741 370.421 488.734C369.721 488.734 369.017 488.854 368.309 489.095C367.602 489.336 367.03 489.652 366.593 490.044L363.398 489.569L364.696 477.918H377.409V480.91H367.598L366.864 487.379H367C367.451 486.943 368.05 486.578 368.795 486.284C369.548 485.99 370.353 485.844 371.211 485.844C372.619 485.844 373.872 486.179 374.971 486.848C376.077 487.518 376.946 488.433 377.579 489.592C378.219 490.744 378.535 492.068 378.527 493.566C378.535 495.064 378.196 496.4 377.511 497.574C376.834 498.748 375.893 499.674 374.688 500.352C373.492 501.022 372.118 501.357 370.567 501.357ZM384.92 498.173C384.303 498.173 383.772 497.954 383.328 497.518C382.884 497.074 382.662 496.539 382.662 495.915C382.662 495.297 382.884 494.771 383.328 494.334C383.772 493.89 384.303 493.668 384.92 493.668C385.537 493.668 386.068 493.89 386.512 494.334C386.956 494.771 387.178 495.297 387.178 495.915C387.178 496.329 387.073 496.709 386.862 497.055C386.659 497.394 386.388 497.665 386.049 497.868C385.711 498.071 385.334 498.173 384.92 498.173ZM384.92 486.589C384.303 486.589 383.772 486.371 383.328 485.934C382.884 485.49 382.662 484.955 382.662 484.331C382.662 483.714 382.884 483.187 383.328 482.75C383.772 482.306 384.303 482.084 384.92 482.084C385.537 482.084 386.068 482.306 386.512 482.75C386.956 483.187 387.178 483.714 387.178 484.331C387.178 484.745 387.073 485.125 386.862 485.471C386.659 485.81 386.388 486.081 386.049 486.284C385.711 486.487 385.334 486.589 384.92 486.589ZM399.705 501.424C397.921 501.417 396.397 500.946 395.132 500.013C393.868 499.08 392.901 497.721 392.231 495.937C391.561 494.153 391.226 492.004 391.226 489.49C391.226 486.984 391.561 484.843 392.231 483.066C392.908 481.29 393.879 479.935 395.144 479.002C396.416 478.068 397.936 477.602 399.705 477.602C401.474 477.602 402.99 478.072 404.255 479.013C405.519 479.946 406.487 481.301 407.157 483.078C407.834 484.846 408.173 486.984 408.173 489.49C408.173 492.012 407.838 494.165 407.168 495.948C406.498 497.725 405.531 499.083 404.266 500.024C403.002 500.958 401.481 501.424 399.705 501.424ZM399.705 498.41C401.271 498.41 402.494 497.646 403.374 496.118C404.262 494.59 404.707 492.381 404.707 489.49C404.707 487.571 404.503 485.949 404.097 484.624C403.698 483.292 403.122 482.283 402.369 481.598C401.624 480.906 400.736 480.56 399.705 480.56C398.147 480.56 396.924 481.328 396.036 482.863C395.147 484.398 394.7 486.608 394.692 489.49C394.692 491.417 394.892 493.047 395.29 494.379C395.697 495.704 396.273 496.709 397.018 497.394C397.763 498.071 398.659 498.41 399.705 498.41ZM420.228 501.424C418.444 501.417 416.92 500.946 415.655 500.013C414.391 499.08 413.424 497.721 412.754 495.937C412.084 494.153 411.749 492.004 411.749 489.49C411.749 486.984 412.084 484.843 412.754 483.066C413.431 481.29 414.402 479.935 415.667 479.002C416.939 478.068 418.459 477.602 420.228 477.602C421.997 477.602 423.513 478.072 424.778 479.013C426.042 479.946 427.01 481.301 427.68 483.078C428.357 484.846 428.696 486.984 428.696 489.49C428.696 492.012 428.361 494.165 427.691 495.948C427.021 497.725 426.054 499.083 424.789 500.024C423.525 500.958 422.004 501.424 420.228 501.424ZM420.228 498.41C421.794 498.41 423.017 497.646 423.897 496.118C424.785 494.59 425.23 492.381 425.23 489.49C425.23 487.571 425.026 485.949 424.62 484.624C424.221 483.292 423.645 482.283 422.892 481.598C422.147 480.906 421.259 480.56 420.228 480.56C418.67 480.56 417.447 481.328 416.559 482.863C415.67 484.398 415.223 486.608 415.215 489.49C415.215 491.417 415.415 493.047 415.813 494.379C416.22 495.704 416.796 496.709 417.541 497.394C418.286 498.071 419.182 498.41 420.228 498.41Z" fill="#141D40"/>
<path d="M356.206 525.815V548.937H353.406V528.75H353.271L347.626 532.498V529.653L353.406 525.815H356.206ZM370.534 549.253C369.585 549.238 368.637 549.058 367.688 548.711C366.74 548.365 365.874 547.782 365.092 546.961C364.309 546.133 363.68 545.016 363.206 543.608C362.732 542.193 362.495 540.417 362.495 538.279C362.495 536.232 362.687 534.418 363.071 532.837C363.455 531.249 364.012 529.913 364.742 528.829C365.472 527.738 366.352 526.91 367.384 526.345C368.422 525.781 369.593 525.498 370.895 525.498C372.19 525.498 373.341 525.758 374.35 526.277C375.366 526.789 376.194 527.504 376.834 528.423C377.473 529.341 377.887 530.398 378.076 531.595H375.321C375.065 530.556 374.568 529.695 373.83 529.01C373.093 528.325 372.114 527.982 370.895 527.982C369.103 527.982 367.692 528.761 366.661 530.319C365.637 531.877 365.122 534.064 365.114 536.879H365.295C365.716 536.239 366.217 535.694 366.796 535.242C367.384 534.783 368.031 534.429 368.738 534.181C369.446 533.932 370.195 533.808 370.985 533.808C372.31 533.808 373.522 534.139 374.621 534.802C375.72 535.456 376.6 536.363 377.263 537.523C377.925 538.674 378.256 539.995 378.256 541.486C378.256 542.916 377.936 544.225 377.296 545.415C376.657 546.596 375.757 547.537 374.598 548.237C373.446 548.93 372.092 549.268 370.534 549.253ZM370.534 546.769C371.482 546.769 372.333 546.532 373.085 546.058C373.845 545.584 374.444 544.948 374.88 544.15C375.324 543.352 375.546 542.464 375.546 541.486C375.546 540.53 375.332 539.66 374.903 538.877C374.481 538.087 373.898 537.459 373.153 536.992C372.415 536.525 371.572 536.292 370.624 536.292C369.909 536.292 369.243 536.435 368.626 536.721C368.008 536.999 367.466 537.383 367 537.873C366.541 538.362 366.179 538.923 365.916 539.555C365.652 540.18 365.521 540.838 365.521 541.531C365.521 542.449 365.735 543.307 366.164 544.105C366.601 544.903 367.195 545.546 367.948 546.036C368.708 546.525 369.57 546.769 370.534 546.769ZM387.528 536.021C386.572 536.021 385.699 535.788 384.909 535.321C384.126 534.854 383.501 534.23 383.035 533.447C382.568 532.656 382.335 531.783 382.335 530.827C382.335 529.872 382.568 529.002 383.035 528.219C383.501 527.429 384.126 526.801 384.909 526.334C385.699 525.867 386.572 525.634 387.528 525.634C388.484 525.634 389.354 525.867 390.136 526.334C390.927 526.801 391.555 527.429 392.022 528.219C392.489 529.002 392.722 529.872 392.722 530.827C392.722 531.783 392.489 532.656 392.022 533.447C391.555 534.23 390.927 534.854 390.136 535.321C389.354 535.788 388.484 536.021 387.528 536.021ZM387.528 533.763C388.07 533.763 388.563 533.631 389.007 533.368C389.451 533.104 389.805 532.751 390.069 532.306C390.332 531.862 390.464 531.369 390.464 530.827C390.464 530.286 390.332 529.793 390.069 529.348C389.805 528.904 389.451 528.551 389.007 528.287C388.563 528.024 388.07 527.892 387.528 527.892C386.986 527.892 386.493 528.024 386.049 528.287C385.605 528.551 385.251 528.904 384.988 529.348C384.725 529.793 384.593 530.286 384.593 530.827C384.593 531.369 384.725 531.862 384.988 532.306C385.251 532.751 385.605 533.104 386.049 533.368C386.493 533.631 386.986 533.763 387.528 533.763Z" fill="#141D40"/>
<g opacity="0.1">
<path d="M462.458 480.989V544.989" stroke="#141D40" stroke-width="1.9871"/>
</g>
<path opacity="0.5" d="M505.229 477.918V501.04H501.729V481.418H501.594L496.061 485.031V481.689L501.831 477.918H505.229ZM519.557 501.357C518.525 501.341 517.509 501.153 516.508 500.792C515.515 500.431 514.611 499.829 513.799 498.986C512.986 498.143 512.335 497.01 511.845 495.587C511.364 494.165 511.123 492.388 511.123 490.258C511.123 488.241 511.322 486.45 511.721 484.884C512.128 483.318 512.711 481.997 513.471 480.921C514.231 479.837 515.15 479.013 516.226 478.448C517.302 477.884 518.51 477.602 519.85 477.602C521.228 477.602 522.451 477.873 523.52 478.415C524.588 478.957 525.454 479.705 526.116 480.661C526.786 481.617 527.211 482.705 527.392 483.924H523.949C523.715 482.961 523.252 482.174 522.56 481.565C521.867 480.955 520.964 480.65 519.85 480.65C518.157 480.65 516.836 481.388 515.887 482.863C514.946 484.338 514.472 486.389 514.465 489.016H514.634C515.033 488.361 515.522 487.804 516.102 487.345C516.689 486.879 517.344 486.521 518.066 486.273C518.796 486.017 519.564 485.889 520.37 485.889C521.709 485.889 522.921 486.216 524.005 486.871C525.096 487.518 525.966 488.414 526.613 489.558C527.26 490.702 527.584 492.012 527.584 493.487C527.584 494.962 527.249 496.298 526.579 497.495C525.917 498.692 524.983 499.64 523.779 500.34C522.575 501.033 521.167 501.372 519.557 501.357ZM519.545 498.421C520.433 498.421 521.228 498.203 521.928 497.766C522.628 497.33 523.181 496.743 523.587 496.005C523.994 495.267 524.197 494.443 524.197 493.532C524.197 492.644 523.997 491.835 523.599 491.105C523.207 490.375 522.665 489.795 521.973 489.366C521.288 488.937 520.505 488.723 519.624 488.723C518.954 488.723 518.333 488.851 517.761 489.107C517.197 489.362 516.7 489.716 516.271 490.168C515.842 490.619 515.503 491.139 515.255 491.726C515.014 492.305 514.894 492.919 514.894 493.566C514.894 494.432 515.093 495.233 515.492 495.971C515.899 496.709 516.452 497.303 517.152 497.755C517.859 498.199 518.657 498.421 519.545 498.421ZM533.966 498.173C533.349 498.173 532.818 497.954 532.374 497.518C531.93 497.074 531.708 496.539 531.708 495.915C531.708 495.297 531.93 494.771 532.374 494.334C532.818 493.89 533.349 493.668 533.966 493.668C534.583 493.668 535.114 493.89 535.558 494.334C536.002 494.771 536.224 495.297 536.224 495.915C536.224 496.329 536.119 496.709 535.908 497.055C535.705 497.394 535.434 497.665 535.095 497.868C534.756 498.071 534.38 498.173 533.966 498.173ZM533.966 486.589C533.349 486.589 532.818 486.371 532.374 485.934C531.93 485.49 531.708 484.955 531.708 484.331C531.708 483.714 531.93 483.187 532.374 482.75C532.818 482.306 533.349 482.084 533.966 482.084C534.583 482.084 535.114 482.306 535.558 482.75C536.002 483.187 536.224 483.714 536.224 484.331C536.224 484.745 536.119 485.125 535.908 485.471C535.705 485.81 535.434 486.081 535.095 486.284C534.756 486.487 534.38 486.589 533.966 486.589ZM548.751 501.424C546.967 501.417 545.443 500.946 544.178 500.013C542.913 499.08 541.946 497.721 541.276 495.937C540.606 494.153 540.272 492.004 540.272 489.49C540.272 486.984 540.606 484.843 541.276 483.066C541.954 481.29 542.925 479.935 544.189 479.002C545.461 478.068 546.982 477.602 548.751 477.602C550.519 477.602 552.036 478.072 553.301 479.013C554.565 479.946 555.532 481.301 556.202 483.078C556.88 484.846 557.218 486.984 557.218 489.49C557.218 492.012 556.883 494.165 556.213 495.948C555.544 497.725 554.576 499.083 553.312 500.024C552.047 500.958 550.527 501.424 548.751 501.424ZM548.751 498.41C550.316 498.41 551.539 497.646 552.42 496.118C553.308 494.59 553.752 492.381 553.752 489.49C553.752 487.571 553.549 485.949 553.143 484.624C552.744 483.292 552.168 482.283 551.415 481.598C550.67 480.906 549.782 480.56 548.751 480.56C547.193 480.56 545.969 481.328 545.081 482.863C544.193 484.398 543.745 486.608 543.738 489.49C543.738 491.417 543.937 493.047 544.336 494.379C544.743 495.704 545.318 496.709 546.063 497.394C546.809 498.071 547.704 498.41 548.751 498.41ZM569.274 501.424C567.49 501.417 565.965 500.946 564.701 500.013C563.436 499.08 562.469 497.721 561.799 495.937C561.129 494.153 560.795 492.004 560.795 489.49C560.795 486.984 561.129 484.843 561.799 483.066C562.477 481.29 563.448 479.935 564.712 479.002C565.984 478.068 567.505 477.602 569.274 477.602C571.042 477.602 572.559 478.072 573.824 479.013C575.088 479.946 576.055 481.301 576.725 483.078C577.403 484.846 577.741 486.984 577.741 489.49C577.741 492.012 577.406 494.165 576.736 495.948C576.067 497.725 575.099 499.083 573.835 500.024C572.57 500.958 571.05 501.424 569.274 501.424ZM569.274 498.41C570.839 498.41 572.062 497.646 572.943 496.118C573.831 494.59 574.275 492.381 574.275 489.49C574.275 487.571 574.072 485.949 573.665 484.624C573.267 483.292 572.691 482.283 571.938 481.598C571.193 480.906 570.305 480.56 569.274 480.56C567.715 480.56 566.492 481.328 565.604 482.863C564.716 484.398 564.268 486.608 564.261 489.49C564.261 491.417 564.46 493.047 564.859 494.379C565.265 495.704 565.841 496.709 566.586 497.394C567.332 498.071 568.227 498.41 569.274 498.41Z" fill="#141D40"/>
<path d="M504.755 525.815V548.937H501.955V528.75H501.82L496.174 532.498V529.653L501.955 525.815H504.755ZM512.128 548.937L522.47 528.479V528.298H510.547V525.815H525.36V528.434L515.063 548.937H512.128ZM534.401 536.021C533.445 536.021 532.572 535.788 531.781 535.321C530.998 534.854 530.374 534.23 529.907 533.447C529.44 532.656 529.207 531.783 529.207 530.827C529.207 529.872 529.44 529.002 529.907 528.219C530.374 527.429 530.998 526.801 531.781 526.334C532.572 525.867 533.445 525.634 534.401 525.634C535.356 525.634 536.226 525.867 537.009 526.334C537.799 526.801 538.427 527.429 538.894 528.219C539.361 529.002 539.594 529.872 539.594 530.827C539.594 531.783 539.361 532.656 538.894 533.447C538.427 534.23 537.799 534.854 537.009 535.321C536.226 535.788 535.356 536.021 534.401 536.021ZM534.401 533.763C534.943 533.763 535.436 533.631 535.88 533.368C536.324 533.104 536.677 532.751 536.941 532.306C537.204 531.862 537.336 531.369 537.336 530.827C537.336 530.286 537.204 529.793 536.941 529.348C536.677 528.904 536.324 528.551 535.88 528.287C535.436 528.024 534.943 527.892 534.401 527.892C533.859 527.892 533.366 528.024 532.922 528.287C532.477 528.551 532.124 528.904 531.86 529.348C531.597 529.793 531.465 530.286 531.465 530.827C531.465 531.369 531.597 531.862 531.86 532.306C532.124 532.751 532.477 533.104 532.922 533.368C533.366 533.631 533.859 533.763 534.401 533.763Z" fill="#141D40"/>
<defs>
<linearGradient id="paint0_linear_1346_148" x1="321.91" y1="190.873" x2="321.91" y2="425.35" gradientUnits="userSpaceOnUse">
<stop stop-color="#101010" stop-opacity="0"/>
<stop offset="0.475" stop-color="#101010" stop-opacity="0.1"/>
<stop offset="1" stop-color="#DADEE4" stop-opacity="0.5"/>
</linearGradient>
<linearGradient id="paint1_linear_1346_148" x1="321.91" y1="190.873" x2="321.91" y2="425.35" gradientUnits="userSpaceOnUse">
<stop stop-color="#101010" stop-opacity="0.1"/>
<stop offset="1" stop-color="#101010" stop-opacity="0"/>
</linearGradient>
</defs>
</svg>
