<svg width="371" height="234" viewBox="0 0 371 234" fill="none" xmlns="http://www.w3.org/2000/svg">
<rect width="371" height="234" fill="white"/>
<rect x="20" y="53" width="29" height="29" rx="14.5" fill="#0B8AFF"/>
<rect x="49" y="53" width="29" height="29" rx="14.5" fill="#0B8AFF"/>
<rect x="78" y="53" width="29" height="29" rx="14.5" fill="#EEF1F6"/>
<rect x="107" y="53" width="29" height="29" rx="14.5" fill="#EEF1F6"/>
<rect x="136" y="53" width="29" height="29" rx="14.5" fill="#EEF1F6"/>
<rect x="165" y="53" width="29" height="29" rx="14.5" fill="#EEF1F6"/>
<rect x="194" y="53" width="29" height="29" rx="14.5" fill="#EEF1F6"/>
<rect x="223" y="53" width="29" height="29" rx="14.5" fill="#EEF1F6"/>
<rect x="252" y="53" width="29" height="29" rx="14.5" fill="#EEF1F6"/>
<rect x="281" y="53" width="29" height="29" rx="14.5" fill="#EEF1F6"/>
<rect x="20" y="82" width="29" height="29" rx="14.5" fill="#0B8AFF"/>
<rect x="49" y="82" width="29" height="29" rx="14.5" fill="#0B8AFF"/>
<rect x="78" y="82" width="29" height="29" rx="14.5" fill="#0B8AFF"/>
<rect x="107" y="82" width="29" height="29" rx="14.5" fill="#0B8AFF"/>
<rect x="136" y="82" width="29" height="29" rx="14.5" fill="#0B8AFF"/>
<rect x="165" y="82" width="29" height="29" rx="14.5" fill="#EEF1F6"/>
<rect x="194" y="82" width="29" height="29" rx="14.5" fill="#EEF1F6"/>
<rect x="223" y="82" width="29" height="29" rx="14.5" fill="#EEF1F6"/>
<rect x="252" y="82" width="29" height="29" rx="14.5" fill="#EEF1F6"/>
<rect x="281" y="82" width="29" height="29" rx="14.5" fill="#EEF1F6"/>
<rect x="20" y="140" width="29" height="29" rx="14.5" fill="#0B8AFF"/>
<rect x="49" y="140" width="29" height="29" rx="14.5" fill="#0B8AFF"/>
<rect x="78" y="140" width="29" height="29" rx="14.5" fill="#0B8AFF"/>
<rect x="107" y="140" width="29" height="29" rx="14.5" fill="#EEF1F6"/>
<rect x="136" y="140" width="29" height="29" rx="14.5" fill="#EEF1F6"/>
<rect x="165" y="140" width="29" height="29" rx="14.5" fill="#EEF1F6"/>
<rect x="194" y="140" width="29" height="29" rx="14.5" fill="#EEF1F6"/>
<rect x="223" y="140" width="29" height="29" rx="14.5" fill="#EEF1F6"/>
<rect x="252" y="140" width="29" height="29" rx="14.5" fill="#EEF1F6"/>
<rect x="281" y="140" width="29" height="29" rx="14.5" fill="#EEF1F6"/>
<rect x="20" y="111" width="29" height="29" rx="14.5" fill="#0B8AFF"/>
<rect x="49" y="111" width="29" height="29" rx="14.5" fill="#0B8AFF"/>
<rect x="78" y="111" width="29" height="29" rx="14.5" fill="#0B8AFF"/>
<rect x="107" y="111" width="29" height="29" rx="14.5" fill="#0B8AFF"/>
<rect x="136" y="111" width="29" height="29" rx="14.5" fill="#0B8AFF"/>
<rect x="165" y="111" width="29" height="29" rx="14.5" fill="#0B8AFF"/>
<rect x="194" y="111" width="29" height="29" rx="14.5" fill="#0B8AFF"/>
<rect x="223" y="111" width="29" height="29" rx="14.5" fill="#0B8AFF"/>
<rect x="252" y="111" width="29" height="29" rx="14.5" fill="#0B8AFF"/>
<rect x="281" y="111" width="29" height="29" rx="14.5" fill="#0B8AFF"/>
<rect x="20" y="169" width="29" height="29" rx="14.5" fill="#0B8AFF"/>
<rect x="49" y="169" width="29" height="29" rx="14.5" fill="#0B8AFF"/>
<rect x="78" y="169" width="29" height="29" rx="14.5" fill="#0B8AFF"/>
<rect x="107" y="169" width="29" height="29" rx="14.5" fill="#0B8AFF"/>
<rect x="136" y="169" width="29" height="29" rx="14.5" fill="#EEF1F6"/>
<rect x="165" y="169" width="29" height="29" rx="14.5" fill="#EEF1F6"/>
<rect x="194" y="169" width="29" height="29" rx="14.5" fill="#EEF1F6"/>
<rect x="223" y="169" width="29" height="29" rx="14.5" fill="#EEF1F6"/>
<rect x="252" y="169" width="29" height="29" rx="14.5" fill="#EEF1F6"/>
<rect x="281" y="169" width="29" height="29" rx="14.5" fill="#EEF1F6"/>
<path d="M21.0043 38V27.8182H24.8224C25.6046 27.8182 26.2609 27.964 26.7912 28.2557C27.3248 28.5473 27.7275 28.9484 27.9993 29.4588C28.2744 29.9659 28.4119 30.5426 28.4119 31.1889C28.4119 31.8419 28.2744 32.4219 27.9993 32.929C27.7242 33.4361 27.3182 33.8355 26.7812 34.1271C26.2443 34.4155 25.5831 34.5597 24.7976 34.5597H22.267V33.0433H24.549C25.0064 33.0433 25.3809 32.9638 25.6726 32.8047C25.9643 32.6456 26.1797 32.4268 26.3189 32.1484C26.4614 31.87 26.5327 31.5502 26.5327 31.1889C26.5327 30.8277 26.4614 30.5095 26.3189 30.2344C26.1797 29.9593 25.9626 29.7455 25.6676 29.593C25.3759 29.4373 24.9998 29.3594 24.5391 29.3594H22.8487V38H21.0043ZM29.9345 38V30.3636H31.6795V31.6364H31.7591C31.8983 31.1955 32.1369 30.8558 32.475 30.6172C32.8163 30.3752 33.2058 30.2543 33.6433 30.2543C33.7427 30.2543 33.8538 30.2592 33.9764 30.2692C34.1023 30.2758 34.2067 30.2874 34.2896 30.304V31.9595C34.2134 31.933 34.0924 31.9098 33.9267 31.8899C33.7643 31.8667 33.6068 31.8551 33.4544 31.8551C33.1262 31.8551 32.8313 31.9264 32.5694 32.0689C32.3109 32.2081 32.1071 32.402 31.9579 32.6506C31.8088 32.8991 31.7342 33.1858 31.7342 33.5107V38H29.9345ZM38.5018 38.1491C37.756 38.1491 37.1097 37.9851 36.5629 37.657C36.016 37.3288 35.5917 36.8698 35.2901 36.2798C34.9918 35.6899 34.8427 35.0005 34.8427 34.2116C34.8427 33.4228 34.9918 32.7318 35.2901 32.1385C35.5917 31.5452 36.016 31.0845 36.5629 30.7564C37.1097 30.4283 37.756 30.2642 38.5018 30.2642C39.2475 30.2642 39.8938 30.4283 40.4407 30.7564C40.9876 31.0845 41.4102 31.5452 41.7085 32.1385C42.0101 32.7318 42.1609 33.4228 42.1609 34.2116C42.1609 35.0005 42.0101 35.6899 41.7085 36.2798C41.4102 36.8698 40.9876 37.3288 40.4407 37.657C39.8938 37.9851 39.2475 38.1491 38.5018 38.1491ZM38.5117 36.7074C38.9161 36.7074 39.2541 36.5964 39.5259 36.3743C39.7977 36.1489 39.9999 35.8473 40.1325 35.4695C40.2683 35.0916 40.3363 34.6707 40.3363 34.2067C40.3363 33.7393 40.2683 33.3168 40.1325 32.9389C39.9999 32.5578 39.7977 32.2545 39.5259 32.0291C39.2541 31.8037 38.9161 31.6911 38.5117 31.6911C38.0974 31.6911 37.7527 31.8037 37.4776 32.0291C37.2058 32.2545 37.002 32.5578 36.8661 32.9389C36.7335 33.3168 36.6673 33.7393 36.6673 34.2067C36.6673 34.6707 36.7335 35.0916 36.8661 35.4695C37.002 35.8473 37.2058 36.1489 37.4776 36.3743C37.7527 36.5964 38.0974 36.7074 38.5117 36.7074ZM47.0094 41.0227C46.3631 41.0227 45.8079 40.9349 45.3439 40.7592C44.8799 40.5869 44.507 40.3549 44.2253 40.0632C43.9436 39.7715 43.748 39.4484 43.6387 39.0938L45.2594 38.701C45.3323 38.8501 45.4384 38.9976 45.5776 39.1435C45.7168 39.2926 45.9041 39.4152 46.1394 39.5114C46.378 39.6108 46.678 39.6605 47.0392 39.6605C47.5497 39.6605 47.9722 39.5362 48.307 39.2876C48.6417 39.0424 48.8091 38.638 48.8091 38.0746V36.6278H48.7196C48.6268 36.8134 48.4909 37.004 48.312 37.1996C48.1363 37.3951 47.9026 37.5592 47.611 37.6918C47.3226 37.8243 46.9597 37.8906 46.5222 37.8906C45.9355 37.8906 45.4036 37.7531 44.9263 37.478C44.4524 37.1996 44.0745 36.7853 43.7928 36.2351C43.5144 35.6816 43.3752 34.9889 43.3752 34.157C43.3752 33.3184 43.5144 32.6108 43.7928 32.0341C44.0745 31.4541 44.454 31.0149 44.9313 30.7166C45.4086 30.415 45.9405 30.2642 46.5272 30.2642C46.9746 30.2642 47.3425 30.3404 47.6309 30.4929C47.9225 30.642 48.1545 30.8227 48.3269 31.0348C48.4992 31.2436 48.6301 31.4408 48.7196 31.6264H48.8191V30.3636H50.5939V38.1243C50.5939 38.7772 50.4382 39.3175 50.1266 39.745C49.815 40.1726 49.3891 40.4924 48.8489 40.7045C48.3087 40.9167 47.6955 41.0227 47.0094 41.0227ZM47.0243 36.4787C47.4055 36.4787 47.7303 36.3859 47.9988 36.2003C48.2672 36.0147 48.4711 35.7479 48.6103 35.3999C48.7495 35.0518 48.8191 34.6342 48.8191 34.147C48.8191 33.6664 48.7495 33.2455 48.6103 32.8842C48.4744 32.523 48.2722 32.2429 48.0037 32.044C47.7386 31.8419 47.4121 31.7408 47.0243 31.7408C46.6233 31.7408 46.2885 31.8452 46.0201 32.054C45.7516 32.2628 45.5494 32.5495 45.4135 32.9141C45.2776 33.2753 45.2097 33.6863 45.2097 34.147C45.2097 34.6143 45.2776 35.0237 45.4135 35.375C45.5527 35.723 45.7566 35.9948 46.025 36.1903C46.2968 36.3826 46.6299 36.4787 47.0243 36.4787ZM52.4384 38V30.3636H54.1834V31.6364H54.263C54.4022 31.1955 54.6408 30.8558 54.9789 30.6172C55.3203 30.3752 55.7097 30.2543 56.1472 30.2543C56.2466 30.2543 56.3577 30.2592 56.4803 30.2692C56.6062 30.2758 56.7106 30.2874 56.7935 30.304V31.9595C56.7173 31.933 56.5963 31.9098 56.4306 31.8899C56.2682 31.8667 56.1107 31.8551 55.9583 31.8551C55.6301 31.8551 55.3352 31.9264 55.0733 32.0689C54.8148 32.2081 54.611 32.402 54.4618 32.6506C54.3127 32.8991 54.2381 33.1858 54.2381 33.5107V38H52.4384ZM61.0554 38.1491C60.2898 38.1491 59.6286 37.9901 59.0717 37.6719C58.5182 37.3504 58.0923 36.8963 57.794 36.3097C57.4957 35.7197 57.3466 35.0253 57.3466 34.2266C57.3466 33.4411 57.4957 32.7517 57.794 32.1584C58.0956 31.5618 58.5166 31.0978 59.0568 30.7663C59.5971 30.4316 60.2318 30.2642 60.9609 30.2642C61.4316 30.2642 61.8757 30.3404 62.2933 30.4929C62.7143 30.642 63.0855 30.8741 63.407 31.1889C63.7318 31.5038 63.987 31.9048 64.1726 32.392C64.3582 32.8759 64.451 33.4527 64.451 34.1222V34.674H58.1918V33.4609H62.7259C62.7225 33.1162 62.648 32.8097 62.5021 32.5412C62.3563 32.2694 62.1525 32.0556 61.8906 31.8999C61.6321 31.7441 61.3305 31.6662 60.9858 31.6662C60.6179 31.6662 60.2947 31.7557 60.0163 31.9347C59.7379 32.1103 59.5208 32.3423 59.3651 32.6307C59.2126 32.9157 59.1347 33.2289 59.1314 33.5703V34.6293C59.1314 35.0734 59.2126 35.4545 59.375 35.7727C59.5374 36.0876 59.7644 36.3295 60.0561 36.4986C60.3478 36.6643 60.6892 36.7472 61.0803 36.7472C61.3421 36.7472 61.5791 36.7107 61.7912 36.6378C62.0033 36.5616 62.1873 36.4505 62.343 36.3047C62.4988 36.1589 62.6165 35.9782 62.696 35.7628L64.3764 35.9517C64.2704 36.3958 64.0682 36.7836 63.7699 37.1151C63.4749 37.4432 63.0971 37.6984 62.6364 37.8807C62.1757 38.0597 61.6487 38.1491 61.0554 38.1491ZM72.0091 32.3821L70.3684 32.5611C70.322 32.3954 70.2408 32.2396 70.1248 32.0938C70.0121 31.9479 69.8597 31.8303 69.6674 31.7408C69.4752 31.6513 69.2399 31.6065 68.9615 31.6065C68.5869 31.6065 68.2721 31.6877 68.0169 31.8501C67.765 32.0125 67.6407 32.223 67.644 32.4815C67.6407 32.7036 67.7219 32.8842 67.8876 33.0234C68.0566 33.1626 68.335 33.277 68.7228 33.3665L70.0254 33.6449C70.7479 33.8007 71.2849 34.0476 71.6362 34.3857C71.9908 34.7237 72.1698 35.1662 72.1731 35.7131C72.1698 36.1937 72.0289 36.6179 71.7505 36.9858C71.4754 37.3504 71.0926 37.6354 70.6021 37.8409C70.1116 38.0464 69.5481 38.1491 68.9118 38.1491C67.9771 38.1491 67.2247 37.9536 66.6547 37.5625C66.0846 37.1681 65.7449 36.6196 65.6355 35.9169L67.3904 35.7479C67.47 36.0926 67.639 36.3527 67.8975 36.5284C68.1561 36.7041 68.4925 36.7919 68.9068 36.7919C69.3343 36.7919 69.6774 36.7041 69.9359 36.5284C70.1977 36.3527 70.3287 36.1357 70.3287 35.8771C70.3287 35.6584 70.2441 35.4777 70.0751 35.3352C69.9094 35.1927 69.6509 35.0833 69.2995 35.0071L67.997 34.7337C67.2645 34.5812 66.7226 34.3243 66.3713 33.9631C66.0199 33.5985 65.8459 33.1378 65.8493 32.581C65.8459 32.1103 65.9735 31.7027 66.2321 31.358C66.4939 31.0099 66.8568 30.7415 67.3208 30.5526C67.7882 30.3603 68.3268 30.2642 68.9366 30.2642C69.8315 30.2642 70.5358 30.4548 71.0495 30.8359C71.5666 31.2171 71.8864 31.7325 72.0091 32.3821ZM79.6926 32.3821L78.052 32.5611C78.0056 32.3954 77.9244 32.2396 77.8084 32.0938C77.6957 31.9479 77.5433 31.8303 77.351 31.7408C77.1588 31.6513 76.9235 31.6065 76.6451 31.6065C76.2705 31.6065 75.9557 31.6877 75.7005 31.8501C75.4486 32.0125 75.3243 32.223 75.3276 32.4815C75.3243 32.7036 75.4055 32.8842 75.5712 33.0234C75.7402 33.1626 76.0186 33.277 76.4064 33.3665L77.709 33.6449C78.4315 33.8007 78.9685 34.0476 79.3198 34.3857C79.6744 34.7237 79.8534 35.1662 79.8567 35.7131C79.8534 36.1937 79.7125 36.6179 79.4341 36.9858C79.159 37.3504 78.7762 37.6354 78.2857 37.8409C77.7952 38.0464 77.2317 38.1491 76.5953 38.1491C75.6607 38.1491 74.9083 37.9536 74.3382 37.5625C73.7682 37.1681 73.4284 36.6196 73.3191 35.9169L75.074 35.7479C75.1536 36.0926 75.3226 36.3527 75.5811 36.5284C75.8397 36.7041 76.1761 36.7919 76.5904 36.7919C77.0179 36.7919 77.361 36.7041 77.6195 36.5284C77.8813 36.3527 78.0123 36.1357 78.0123 35.8771C78.0123 35.6584 77.9277 35.4777 77.7587 35.3352C77.593 35.1927 77.3345 35.0833 76.9831 35.0071L75.6806 34.7337C74.9481 34.5812 74.4062 34.3243 74.0549 33.9631C73.7035 33.5985 73.5295 33.1378 73.5328 32.581C73.5295 32.1103 73.6571 31.7027 73.9157 31.358C74.1775 31.0099 74.5404 30.7415 75.0044 30.5526C75.4718 30.3603 76.0104 30.2642 76.6202 30.2642C77.5151 30.2642 78.2194 30.4548 78.7331 30.8359C79.2502 31.2171 79.57 31.7325 79.6926 32.3821Z" fill="#161616"/>
<g clip-path="url(#clip0_1321_451)">
<path opacity="0.9" d="M20.2841 213.196V212.182H25.0625V213.196H23.2812V218H22.0653V213.196H20.2841ZM25.3736 218V213.636H26.5469V214.398H26.5923C26.6719 214.127 26.8054 213.922 26.9929 213.784C27.1804 213.644 27.3963 213.574 27.6406 213.574C27.7012 213.574 27.7666 213.578 27.8366 213.585C27.9067 213.593 27.9683 213.603 28.0213 213.616V214.69C27.9645 214.673 27.8859 214.658 27.7855 214.645C27.6851 214.632 27.5933 214.625 27.5099 214.625C27.3319 214.625 27.1728 214.664 27.0327 214.741C26.8944 214.817 26.7846 214.923 26.7031 215.06C26.6236 215.196 26.5838 215.353 26.5838 215.531V218H25.3736ZM29.7663 218.082C29.4879 218.082 29.2398 218.034 29.022 217.938C28.8042 217.839 28.6319 217.694 28.505 217.503C28.38 217.31 28.3175 217.069 28.3175 216.781C28.3175 216.539 28.362 216.335 28.451 216.17C28.54 216.006 28.6612 215.873 28.8146 215.773C28.968 215.672 29.1423 215.597 29.3374 215.545C29.5343 215.494 29.7408 215.458 29.9567 215.438C30.2105 215.411 30.415 215.386 30.5703 215.364C30.7256 215.339 30.8383 215.303 30.9084 215.256C30.9785 215.208 31.0135 215.138 31.0135 215.045V215.028C31.0135 214.848 30.9567 214.709 30.843 214.611C30.7313 214.512 30.5722 214.463 30.3658 214.463C30.148 214.463 29.9747 214.511 29.8459 214.608C29.7171 214.703 29.6319 214.822 29.5902 214.966L28.4709 214.875C28.5277 214.61 28.6394 214.381 28.8061 214.188C28.9728 213.992 29.1877 213.843 29.451 213.739C29.7161 213.633 30.023 213.58 30.3714 213.58C30.6139 213.58 30.8459 213.608 31.0675 213.665C31.291 213.722 31.4889 213.81 31.6612 213.929C31.8355 214.048 31.9728 214.202 32.0732 214.389C32.1735 214.575 32.2237 214.797 32.2237 215.057V218H31.076V217.395H31.0419C30.9718 217.531 30.8781 217.652 30.7607 217.756C30.6432 217.858 30.5021 217.938 30.3374 217.997C30.1726 218.054 29.9822 218.082 29.7663 218.082ZM30.1129 217.247C30.291 217.247 30.4482 217.212 30.5845 217.142C30.7209 217.07 30.8279 216.973 30.9055 216.852C30.9832 216.731 31.022 216.594 31.022 216.44V215.977C30.9841 216.002 30.9321 216.025 30.8658 216.045C30.8014 216.064 30.7285 216.082 30.647 216.099C30.5656 216.115 30.4841 216.129 30.4027 216.142C30.3213 216.153 30.2474 216.164 30.1811 216.173C30.0391 216.194 29.915 216.227 29.8089 216.273C29.7029 216.318 29.6205 216.38 29.5618 216.457C29.5031 216.533 29.4737 216.628 29.4737 216.741C29.4737 216.906 29.5334 217.032 29.6527 217.119C29.7739 217.205 29.9273 217.247 30.1129 217.247ZM33.1626 218V213.636H34.3729V218H33.1626ZM33.7706 213.074C33.5907 213.074 33.4363 213.014 33.3075 212.895C33.1806 212.774 33.1172 212.629 33.1172 212.46C33.1172 212.294 33.1806 212.151 33.3075 212.031C33.4363 211.91 33.5907 211.849 33.7706 211.849C33.9505 211.849 34.1039 211.91 34.2308 212.031C34.3596 212.151 34.424 212.294 34.424 212.46C34.424 212.629 34.3596 212.774 34.2308 212.895C34.1039 213.014 33.9505 213.074 33.7706 213.074ZM36.5526 215.477V218H35.3423V213.636H36.4957V214.406H36.5469C36.6435 214.152 36.8054 213.952 37.0327 213.804C37.2599 213.654 37.5355 213.58 37.8594 213.58C38.1624 213.58 38.4266 213.646 38.652 213.778C38.8774 213.911 39.0526 214.1 39.1776 214.347C39.3026 214.591 39.3651 214.883 39.3651 215.222V218H38.1548V215.438C38.1567 215.17 38.0885 214.962 37.9503 214.812C37.812 214.661 37.6217 214.585 37.3793 214.585C37.2164 214.585 37.0724 214.62 36.9474 214.69C36.8243 214.76 36.7277 214.863 36.6577 214.997C36.5895 215.13 36.5545 215.29 36.5526 215.477ZM42.3075 218.085C41.8587 218.085 41.4723 217.994 41.1484 217.812C40.8265 217.629 40.5784 217.369 40.4041 217.034C40.2299 216.697 40.1428 216.298 40.1428 215.838C40.1428 215.389 40.2299 214.995 40.4041 214.656C40.5784 214.317 40.8236 214.053 41.1399 213.864C41.4581 213.674 41.8312 213.58 42.2592 213.58C42.5471 213.58 42.8151 213.626 43.0632 213.719C43.3132 213.81 43.531 213.947 43.7166 214.131C43.9041 214.314 44.05 214.545 44.1541 214.824C44.2583 215.1 44.3104 215.424 44.3104 215.795V216.128H40.6257V215.378H43.1712C43.1712 215.204 43.1333 215.049 43.0575 214.915C42.9818 214.78 42.8767 214.675 42.7422 214.599C42.6096 214.522 42.4553 214.483 42.2791 214.483C42.0954 214.483 41.9325 214.526 41.7905 214.611C41.6503 214.694 41.5405 214.807 41.4609 214.949C41.3814 215.089 41.3407 215.245 41.3388 215.418V216.131C41.3388 216.347 41.3786 216.533 41.4581 216.69C41.5395 216.848 41.6541 216.969 41.8018 217.054C41.9496 217.139 42.1248 217.182 42.3274 217.182C42.4619 217.182 42.585 217.163 42.6967 217.125C42.8085 217.087 42.9041 217.03 42.9837 216.955C43.0632 216.879 43.1238 216.786 43.1655 216.676L44.2848 216.75C44.228 217.019 44.1115 217.254 43.9354 217.455C43.7611 217.653 43.5357 217.809 43.2592 217.92C42.9846 218.03 42.6674 218.085 42.3075 218.085ZM47.0888 218.085C46.6399 218.085 46.2536 217.994 45.9297 217.812C45.6077 217.629 45.3596 217.369 45.1854 217.034C45.0111 216.697 44.924 216.298 44.924 215.838C44.924 215.389 45.0111 214.995 45.1854 214.656C45.3596 214.317 45.6049 214.053 45.9212 213.864C46.2393 213.674 46.6125 213.58 47.0405 213.58C47.3284 213.58 47.5964 213.626 47.8445 213.719C48.0945 213.81 48.3123 213.947 48.4979 214.131C48.6854 214.314 48.8312 214.545 48.9354 214.824C49.0395 215.1 49.0916 215.424 49.0916 215.795V216.128H45.407V215.378H47.9524C47.9524 215.204 47.9145 215.049 47.8388 214.915C47.763 214.78 47.6579 214.675 47.5234 214.599C47.3909 214.522 47.2365 214.483 47.0604 214.483C46.8767 214.483 46.7138 214.526 46.5717 214.611C46.4316 214.694 46.3217 214.807 46.2422 214.949C46.1626 215.089 46.1219 215.245 46.12 215.418V216.131C46.12 216.347 46.1598 216.533 46.2393 216.69C46.3208 216.848 46.4354 216.969 46.5831 217.054C46.7308 217.139 46.906 217.182 47.1087 217.182C47.2431 217.182 47.3662 217.163 47.478 217.125C47.5897 217.087 47.6854 217.03 47.7649 216.955C47.8445 216.879 47.9051 216.786 47.9467 216.676L49.0661 216.75C49.0092 217.019 48.8928 217.254 48.7166 217.455C48.5424 217.653 48.317 217.809 48.0405 217.92C47.7659 218.03 47.4486 218.085 47.0888 218.085Z" fill="black"/>
<path opacity="0.9" d="M148.739 218.08C148.315 218.08 147.937 218.007 147.605 217.861C147.276 217.713 147.016 217.51 146.824 217.253C146.635 216.993 146.537 216.694 146.532 216.355H147.77C147.778 216.497 147.824 216.622 147.909 216.73C147.997 216.836 148.112 216.919 148.256 216.977C148.4 217.036 148.562 217.065 148.742 217.065C148.929 217.065 149.095 217.032 149.239 216.966C149.383 216.9 149.496 216.808 149.577 216.69C149.659 216.573 149.699 216.437 149.699 216.284C149.699 216.129 149.656 215.991 149.569 215.872C149.483 215.751 149.36 215.656 149.199 215.588C149.04 215.52 148.851 215.486 148.631 215.486H148.088V214.582H148.631C148.817 214.582 148.98 214.55 149.123 214.486C149.266 214.421 149.378 214.332 149.458 214.219C149.537 214.103 149.577 213.969 149.577 213.815C149.577 213.67 149.542 213.542 149.472 213.432C149.404 213.32 149.307 213.233 149.182 213.17C149.059 213.108 148.915 213.077 148.75 213.077C148.584 213.077 148.431 213.107 148.293 213.168C148.155 213.226 148.044 213.311 147.961 213.42C147.877 213.53 147.833 213.659 147.827 213.807H146.648C146.654 213.472 146.749 213.176 146.935 212.92C147.121 212.665 147.371 212.465 147.685 212.321C148.001 212.175 148.358 212.102 148.756 212.102C149.158 212.102 149.509 212.175 149.81 212.321C150.111 212.467 150.345 212.664 150.512 212.912C150.68 213.158 150.764 213.435 150.762 213.741C150.764 214.067 150.662 214.339 150.458 214.557C150.255 214.775 149.991 214.913 149.665 214.972V215.017C150.093 215.072 150.419 215.221 150.642 215.463C150.868 215.704 150.98 216.005 150.978 216.366C150.98 216.698 150.884 216.992 150.691 217.25C150.499 217.508 150.235 217.71 149.898 217.858C149.561 218.006 149.175 218.08 148.739 218.08ZM154.592 214.611V215.571H151.939V214.611H154.592ZM157.737 218.08C157.335 218.08 156.977 218.006 156.663 217.858C156.351 217.71 156.102 217.507 155.919 217.247C155.735 216.988 155.639 216.69 155.632 216.355H156.825C156.838 216.58 156.933 216.763 157.109 216.903C157.285 217.044 157.494 217.114 157.737 217.114C157.93 217.114 158.101 217.071 158.248 216.986C158.398 216.899 158.514 216.778 158.598 216.625C158.683 216.47 158.726 216.292 158.726 216.091C158.726 215.886 158.682 215.706 158.595 215.551C158.51 215.396 158.391 215.275 158.24 215.188C158.088 215.1 157.915 215.056 157.72 215.054C157.549 215.054 157.384 215.089 157.223 215.159C157.064 215.229 156.94 215.325 156.851 215.446L155.757 215.25L156.032 212.182H159.589V213.188H157.047L156.896 214.645H156.93C157.032 214.501 157.187 214.382 157.393 214.287C157.6 214.192 157.831 214.145 158.086 214.145C158.437 214.145 158.749 214.227 159.024 214.392C159.298 214.557 159.515 214.783 159.674 215.071C159.833 215.357 159.912 215.687 159.91 216.06C159.912 216.452 159.821 216.8 159.637 217.105C159.456 217.408 159.201 217.647 158.873 217.821C158.547 217.993 158.169 218.08 157.737 218.08ZM163.378 219.636C163.225 219.636 163.081 219.624 162.946 219.599C162.814 219.577 162.704 219.547 162.617 219.511L162.89 218.608C163.032 218.652 163.159 218.675 163.273 218.679C163.389 218.683 163.488 218.656 163.571 218.599C163.657 218.543 163.726 218.446 163.779 218.31L163.85 218.125L162.284 213.636H163.557L164.461 216.841H164.506L165.418 213.636H166.699L165.003 218.472C164.922 218.706 164.811 218.911 164.671 219.085C164.533 219.261 164.357 219.397 164.145 219.491C163.933 219.588 163.677 219.636 163.378 219.636ZM169.167 218.085C168.718 218.085 168.331 217.994 168.007 217.812C167.686 217.629 167.437 217.369 167.263 217.034C167.089 216.697 167.002 216.298 167.002 215.838C167.002 215.389 167.089 214.995 167.263 214.656C167.437 214.317 167.683 214.053 167.999 213.864C168.317 213.674 168.69 213.58 169.118 213.58C169.406 213.58 169.674 213.626 169.922 213.719C170.172 213.81 170.39 213.947 170.576 214.131C170.763 214.314 170.909 214.545 171.013 214.824C171.117 215.1 171.169 215.424 171.169 215.795V216.128H167.485V215.378H170.03C170.03 215.204 169.992 215.049 169.917 214.915C169.841 214.78 169.736 214.675 169.601 214.599C169.469 214.522 169.314 214.483 169.138 214.483C168.954 214.483 168.792 214.526 168.65 214.611C168.509 214.694 168.4 214.807 168.32 214.949C168.24 215.089 168.2 215.245 168.198 215.418V216.131C168.198 216.347 168.238 216.533 168.317 216.69C168.399 216.848 168.513 216.969 168.661 217.054C168.809 217.139 168.984 217.182 169.186 217.182C169.321 217.182 169.444 217.163 169.556 217.125C169.668 217.087 169.763 217.03 169.843 216.955C169.922 216.879 169.983 216.786 170.025 216.676L171.144 216.75C171.087 217.019 170.971 217.254 170.794 217.455C170.62 217.653 170.395 217.809 170.118 217.92C169.844 218.03 169.526 218.085 169.167 218.085ZM173.204 218.082C172.925 218.082 172.677 218.034 172.459 217.938C172.241 217.839 172.069 217.694 171.942 217.503C171.817 217.31 171.755 217.069 171.755 216.781C171.755 216.539 171.799 216.335 171.888 216.17C171.977 216.006 172.098 215.873 172.252 215.773C172.405 215.672 172.579 215.597 172.775 215.545C172.971 215.494 173.178 215.458 173.394 215.438C173.648 215.411 173.852 215.386 174.007 215.364C174.163 215.339 174.275 215.303 174.346 215.256C174.416 215.208 174.451 215.138 174.451 215.045V215.028C174.451 214.848 174.394 214.709 174.28 214.611C174.168 214.512 174.009 214.463 173.803 214.463C173.585 214.463 173.412 214.511 173.283 214.608C173.154 214.703 173.069 214.822 173.027 214.966L171.908 214.875C171.965 214.61 172.077 214.381 172.243 214.188C172.41 213.992 172.625 213.843 172.888 213.739C173.153 213.633 173.46 213.58 173.809 213.58C174.051 213.58 174.283 213.608 174.505 213.665C174.728 213.722 174.926 213.81 175.098 213.929C175.273 214.048 175.41 214.202 175.51 214.389C175.611 214.575 175.661 214.797 175.661 215.057V218H174.513V217.395H174.479C174.409 217.531 174.315 217.652 174.198 217.756C174.08 217.858 173.939 217.938 173.775 217.997C173.61 218.054 173.419 218.082 173.204 218.082ZM173.55 217.247C173.728 217.247 173.885 217.212 174.022 217.142C174.158 217.07 174.265 216.973 174.343 216.852C174.42 216.731 174.459 216.594 174.459 216.44V215.977C174.421 216.002 174.369 216.025 174.303 216.045C174.239 216.064 174.166 216.082 174.084 216.099C174.003 216.115 173.921 216.129 173.84 216.142C173.758 216.153 173.685 216.164 173.618 216.173C173.476 216.194 173.352 216.227 173.246 216.273C173.14 216.318 173.058 216.38 172.999 216.457C172.94 216.533 172.911 216.628 172.911 216.741C172.911 216.906 172.971 217.032 173.09 217.119C173.211 217.205 173.364 217.247 173.55 217.247ZM176.6 218V213.636H177.773V214.398H177.819C177.898 214.127 178.032 213.922 178.219 213.784C178.407 213.644 178.623 213.574 178.867 213.574C178.927 213.574 178.993 213.578 179.063 213.585C179.133 213.593 179.195 213.603 179.248 213.616V214.69C179.191 214.673 179.112 214.658 179.012 214.645C178.911 214.632 178.82 214.625 178.736 214.625C178.558 214.625 178.399 214.664 178.259 214.741C178.121 214.817 178.011 214.923 177.929 215.06C177.85 215.196 177.81 215.353 177.81 215.531V218H176.6ZM183.504 214.881L182.396 214.949C182.377 214.854 182.336 214.769 182.274 214.693C182.211 214.616 182.129 214.554 182.027 214.509C181.926 214.461 181.806 214.438 181.666 214.438C181.478 214.438 181.32 214.477 181.191 214.557C181.063 214.634 180.998 214.739 180.998 214.869C180.998 214.973 181.04 215.062 181.123 215.134C181.207 215.205 181.35 215.263 181.552 215.307L182.342 215.466C182.766 215.553 183.083 215.693 183.291 215.886C183.499 216.08 183.603 216.333 183.603 216.648C183.603 216.934 183.519 217.185 183.351 217.401C183.184 217.616 182.955 217.785 182.663 217.906C182.373 218.026 182.039 218.085 181.66 218.085C181.083 218.085 180.622 217.965 180.28 217.724C179.939 217.482 179.739 217.152 179.68 216.736L180.87 216.673C180.906 216.849 180.994 216.984 181.132 217.077C181.27 217.168 181.447 217.213 181.663 217.213C181.875 217.213 182.046 217.172 182.174 217.091C182.305 217.008 182.371 216.901 182.373 216.77C182.371 216.66 182.325 216.57 182.234 216.5C182.143 216.428 182.003 216.373 181.814 216.335L181.058 216.185C180.632 216.099 180.315 215.952 180.106 215.741C179.9 215.531 179.797 215.263 179.797 214.938C179.797 214.657 179.872 214.416 180.024 214.213C180.177 214.01 180.392 213.854 180.669 213.744C180.947 213.634 181.273 213.58 181.646 213.58C182.197 213.58 182.631 213.696 182.947 213.929C183.265 214.162 183.451 214.479 183.504 214.881Z" fill="black"/>
<path opacity="0.9" d="M278.417 218.08C278.016 218.08 277.658 218.006 277.343 217.858C277.031 217.71 276.783 217.507 276.599 217.247C276.415 216.988 276.32 216.69 276.312 216.355H277.505C277.519 216.58 277.613 216.763 277.789 216.903C277.966 217.044 278.175 217.114 278.417 217.114C278.61 217.114 278.781 217.071 278.929 216.986C279.078 216.899 279.195 216.778 279.278 216.625C279.363 216.47 279.406 216.292 279.406 216.091C279.406 215.886 279.362 215.706 279.275 215.551C279.19 215.396 279.072 215.275 278.92 215.188C278.769 215.1 278.595 215.056 278.4 215.054C278.23 215.054 278.064 215.089 277.903 215.159C277.744 215.229 277.62 215.325 277.531 215.446L276.437 215.25L276.713 212.182H280.269V213.188H277.727L277.576 214.645H277.61C277.713 214.501 277.867 214.382 278.073 214.287C278.28 214.192 278.511 214.145 278.767 214.145C279.117 214.145 279.43 214.227 279.704 214.392C279.979 214.557 280.196 214.783 280.355 215.071C280.514 215.357 280.592 215.687 280.591 216.06C280.592 216.452 280.502 216.8 280.318 217.105C280.136 217.408 279.881 217.647 279.554 217.821C279.228 217.993 278.849 218.08 278.417 218.08ZM283.187 217.114V213.091H284.204V217.114H283.187ZM281.684 215.611V214.594H285.707V215.611H281.684ZM289.496 219.636C289.343 219.636 289.199 219.624 289.064 219.599C288.932 219.577 288.822 219.547 288.735 219.511L289.007 218.608C289.149 218.652 289.277 218.675 289.391 218.679C289.506 218.683 289.606 218.656 289.689 218.599C289.774 218.543 289.844 218.446 289.897 218.31L289.968 218.125L288.402 213.636H289.675L290.578 216.841H290.624L291.536 213.636H292.817L291.121 218.472C291.04 218.706 290.929 218.911 290.789 219.085C290.65 219.261 290.475 219.397 290.263 219.491C290.051 219.588 289.795 219.636 289.496 219.636ZM295.284 218.085C294.836 218.085 294.449 217.994 294.125 217.812C293.803 217.629 293.555 217.369 293.381 217.034C293.207 216.697 293.12 216.298 293.12 215.838C293.12 215.389 293.207 214.995 293.381 214.656C293.555 214.317 293.801 214.053 294.117 213.864C294.435 213.674 294.808 213.58 295.236 213.58C295.524 213.58 295.792 213.626 296.04 213.719C296.29 213.81 296.508 213.947 296.694 214.131C296.881 214.314 297.027 214.545 297.131 214.824C297.235 215.1 297.287 215.424 297.287 215.795V216.128H293.603V215.378H296.148C296.148 215.204 296.11 215.049 296.034 214.915C295.959 214.78 295.854 214.675 295.719 214.599C295.586 214.522 295.432 214.483 295.256 214.483C295.072 214.483 294.909 214.526 294.767 214.611C294.627 214.694 294.517 214.807 294.438 214.949C294.358 215.089 294.318 215.245 294.316 215.418V216.131C294.316 216.347 294.355 216.533 294.435 216.69C294.516 216.848 294.631 216.969 294.779 217.054C294.926 217.139 295.102 217.182 295.304 217.182C295.439 217.182 295.562 217.163 295.674 217.125C295.785 217.087 295.881 217.03 295.961 216.955C296.04 216.879 296.101 216.786 296.142 216.676L297.262 216.75C297.205 217.019 297.088 217.254 296.912 217.455C296.738 217.653 296.513 217.809 296.236 217.92C295.961 218.03 295.644 218.085 295.284 218.085ZM299.321 218.082C299.043 218.082 298.795 218.034 298.577 217.938C298.359 217.839 298.187 217.694 298.06 217.503C297.935 217.31 297.872 217.069 297.872 216.781C297.872 216.539 297.917 216.335 298.006 216.17C298.095 216.006 298.216 215.873 298.37 215.773C298.523 215.672 298.697 215.597 298.892 215.545C299.089 215.494 299.296 215.458 299.512 215.438C299.765 215.411 299.97 215.386 300.125 215.364C300.281 215.339 300.393 215.303 300.463 215.256C300.533 215.208 300.569 215.138 300.569 215.045V215.028C300.569 214.848 300.512 214.709 300.398 214.611C300.286 214.512 300.127 214.463 299.921 214.463C299.703 214.463 299.53 214.511 299.401 214.608C299.272 214.703 299.187 214.822 299.145 214.966L298.026 214.875C298.083 214.61 298.194 214.381 298.361 214.188C298.528 213.992 298.743 213.843 299.006 213.739C299.271 213.633 299.578 213.58 299.926 213.58C300.169 213.58 300.401 213.608 300.622 213.665C300.846 213.722 301.044 213.81 301.216 213.929C301.39 214.048 301.528 214.202 301.628 214.389C301.729 214.575 301.779 214.797 301.779 215.057V218H300.631V217.395H300.597C300.527 217.531 300.433 217.652 300.316 217.756C300.198 217.858 300.057 217.938 299.892 217.997C299.728 218.054 299.537 218.082 299.321 218.082ZM299.668 217.247C299.846 217.247 300.003 217.212 300.14 217.142C300.276 217.07 300.383 216.973 300.461 216.852C300.538 216.731 300.577 216.594 300.577 216.44V215.977C300.539 216.002 300.487 216.025 300.421 216.045C300.356 216.064 300.283 216.082 300.202 216.099C300.121 216.115 300.039 216.129 299.958 216.142C299.876 216.153 299.802 216.164 299.736 216.173C299.594 216.194 299.47 216.227 299.364 216.273C299.258 216.318 299.176 216.38 299.117 216.457C299.058 216.533 299.029 216.628 299.029 216.741C299.029 216.906 299.088 217.032 299.208 217.119C299.329 217.205 299.482 217.247 299.668 217.247ZM302.718 218V213.636H303.891V214.398H303.936C304.016 214.127 304.149 213.922 304.337 213.784C304.524 213.644 304.74 213.574 304.985 213.574C305.045 213.574 305.111 213.578 305.181 213.585C305.251 213.593 305.312 213.603 305.365 213.616V214.69C305.309 214.673 305.23 214.658 305.13 214.645C305.029 214.632 304.937 214.625 304.854 214.625C304.676 214.625 304.517 214.664 304.377 214.741C304.238 214.817 304.129 214.923 304.047 215.06C303.968 215.196 303.928 215.353 303.928 215.531V218H302.718ZM309.622 214.881L308.514 214.949C308.495 214.854 308.454 214.769 308.392 214.693C308.329 214.616 308.247 214.554 308.144 214.509C308.044 214.461 307.924 214.438 307.784 214.438C307.596 214.438 307.438 214.477 307.309 214.557C307.18 214.634 307.116 214.739 307.116 214.869C307.116 214.973 307.158 215.062 307.241 215.134C307.324 215.205 307.467 215.263 307.67 215.307L308.46 215.466C308.884 215.553 309.2 215.693 309.409 215.886C309.617 216.08 309.721 216.333 309.721 216.648C309.721 216.934 309.637 217.185 309.468 217.401C309.302 217.616 309.073 217.785 308.781 217.906C308.491 218.026 308.157 218.085 307.778 218.085C307.2 218.085 306.74 217.965 306.397 217.724C306.056 217.482 305.857 217.152 305.798 216.736L306.988 216.673C307.024 216.849 307.111 216.984 307.25 217.077C307.388 217.168 307.565 217.213 307.781 217.213C307.993 217.213 308.163 217.172 308.292 217.091C308.423 217.008 308.489 216.901 308.491 216.77C308.489 216.66 308.443 216.57 308.352 216.5C308.261 216.428 308.121 216.373 307.931 216.335L307.176 216.185C306.75 216.099 306.432 215.952 306.224 215.741C306.018 215.531 305.914 215.263 305.914 214.938C305.914 214.657 305.99 214.416 306.142 214.213C306.295 214.01 306.51 213.854 306.787 213.744C307.065 213.634 307.391 213.58 307.764 213.58C308.315 213.58 308.749 213.696 309.065 213.929C309.383 214.162 309.569 214.479 309.622 214.881Z" fill="black"/>
</g>
<path opacity="0.9" d="M340.746 64H342.195V69.2266C342.195 69.7995 342.06 70.3034 341.789 70.7383C341.521 71.1732 341.143 71.513 340.656 71.7578C340.169 72 339.6 72.1211 338.949 72.1211C338.296 72.1211 337.725 72 337.238 71.7578C336.751 71.513 336.374 71.1732 336.105 70.7383C335.837 70.3034 335.703 69.7995 335.703 69.2266V64H337.152V69.1055C337.152 69.4388 337.225 69.7357 337.371 69.9961C337.52 70.2565 337.728 70.4609 337.996 70.6094C338.264 70.7552 338.582 70.8281 338.949 70.8281C339.316 70.8281 339.634 70.7552 339.902 70.6094C340.173 70.4609 340.382 70.2565 340.527 69.9961C340.673 69.7357 340.746 69.4388 340.746 69.1055V64ZM345.22 64V72H343.771V64H345.22Z" fill="black"/>
<path opacity="0.9" d="M340.17 93H341.619V98.2266C341.619 98.7995 341.484 99.3034 341.213 99.7383C340.945 100.173 340.567 100.513 340.08 100.758C339.593 101 339.024 101.121 338.373 101.121C337.719 101.121 337.149 101 336.662 100.758C336.175 100.513 335.798 100.173 335.529 99.7383C335.261 99.3034 335.127 98.7995 335.127 98.2266V93H336.576V98.1055C336.576 98.4388 336.649 98.7357 336.795 98.9961C336.943 99.2565 337.152 99.4609 337.42 99.6094C337.688 99.7552 338.006 99.8281 338.373 99.8281C338.74 99.8281 339.058 99.7552 339.326 99.6094C339.597 99.4609 339.805 99.2565 339.951 98.9961C340.097 98.7357 340.17 98.4388 340.17 98.1055V93ZM344.405 93L346.167 95.9297H346.229L347.999 93H349.651L347.187 97L349.69 101H348.011L346.229 98.0898H346.167L344.386 101H342.714L345.241 97L342.745 93H344.405Z" fill="black"/>
<path opacity="0.9" d="M338.386 130H335.675V122H338.44C339.235 122 339.917 122.16 340.487 122.48C341.06 122.798 341.5 123.255 341.808 123.852C342.115 124.448 342.269 125.161 342.269 125.992C342.269 126.826 342.114 127.542 341.804 128.141C341.496 128.74 341.052 129.199 340.472 129.52C339.894 129.84 339.198 130 338.386 130ZM337.124 128.746H338.315C338.873 128.746 339.338 128.645 339.71 128.441C340.082 128.236 340.362 127.93 340.55 127.523C340.737 127.115 340.831 126.604 340.831 125.992C340.831 125.38 340.737 124.872 340.55 124.469C340.362 124.062 340.085 123.759 339.718 123.559C339.353 123.355 338.9 123.254 338.358 123.254H337.124V128.746ZM347.993 124.199C347.957 123.858 347.803 123.592 347.532 123.402C347.264 123.212 346.915 123.117 346.485 123.117C346.183 123.117 345.924 123.163 345.708 123.254C345.492 123.345 345.326 123.469 345.212 123.625C345.097 123.781 345.039 123.96 345.036 124.16C345.036 124.327 345.074 124.471 345.149 124.594C345.228 124.716 345.333 124.82 345.466 124.906C345.599 124.99 345.746 125.06 345.907 125.117C346.069 125.174 346.231 125.223 346.396 125.262L347.146 125.449C347.448 125.52 347.738 125.615 348.017 125.734C348.298 125.854 348.549 126.005 348.771 126.188C348.994 126.37 349.172 126.59 349.302 126.848C349.432 127.105 349.497 127.408 349.497 127.754C349.497 128.223 349.377 128.635 349.138 128.992C348.898 129.346 348.552 129.624 348.099 129.824C347.648 130.022 347.103 130.121 346.462 130.121C345.84 130.121 345.299 130.025 344.841 129.832C344.385 129.639 344.028 129.358 343.771 128.988C343.515 128.618 343.377 128.168 343.356 127.637H344.782C344.803 127.915 344.889 128.147 345.04 128.332C345.191 128.517 345.388 128.655 345.63 128.746C345.875 128.837 346.148 128.883 346.45 128.883C346.765 128.883 347.041 128.836 347.278 128.742C347.518 128.646 347.705 128.513 347.841 128.344C347.976 128.172 348.045 127.971 348.048 127.742C348.045 127.534 347.984 127.362 347.864 127.227C347.744 127.089 347.576 126.974 347.36 126.883C347.147 126.789 346.897 126.706 346.61 126.633L345.7 126.398C345.041 126.229 344.521 125.973 344.138 125.629C343.757 125.283 343.567 124.823 343.567 124.25C343.567 123.779 343.695 123.366 343.95 123.012C344.208 122.658 344.558 122.383 345.001 122.187C345.444 121.99 345.945 121.891 346.505 121.891C347.073 121.891 347.57 121.99 347.997 122.187C348.427 122.383 348.764 122.655 349.009 123.004C349.254 123.35 349.38 123.749 349.388 124.199H347.993Z" fill="black"/>
<path opacity="0.9" d="M335.449 159V151H336.898V154.387H340.605V151H342.059V159H340.605V155.602H336.898V159H335.449ZM343.635 159V151H346.635C347.249 151 347.765 151.107 348.182 151.32C348.601 151.534 348.917 151.833 349.131 152.219C349.347 152.602 349.455 153.048 349.455 153.559C349.455 154.072 349.346 154.517 349.127 154.895C348.911 155.27 348.592 155.56 348.17 155.766C347.748 155.969 347.23 156.07 346.615 156.07H344.479V154.867H346.42C346.779 154.867 347.074 154.818 347.303 154.719C347.532 154.617 347.701 154.47 347.811 154.277C347.923 154.082 347.979 153.842 347.979 153.559C347.979 153.275 347.923 153.033 347.811 152.832C347.699 152.629 347.528 152.475 347.299 152.371C347.07 152.264 346.774 152.211 346.412 152.211H345.084V159H343.635ZM347.768 155.375L349.748 159H348.131L346.186 155.375H347.768Z" fill="black"/>
<path opacity="0.9" d="M338.71 185.312H340.022L340.8 186.32L341.354 186.977L342.687 188.688H341.28L340.374 187.539L339.987 186.992L338.71 185.312ZM342.878 184C342.878 184.862 342.716 185.6 342.394 186.215C342.073 186.827 341.636 187.296 341.081 187.621C340.529 187.947 339.903 188.109 339.202 188.109C338.502 188.109 337.874 187.947 337.319 187.621C336.767 187.293 336.33 186.823 336.007 186.211C335.687 185.596 335.526 184.859 335.526 184C335.526 183.138 335.687 182.401 336.007 181.789C336.33 181.174 336.767 180.704 337.319 180.379C337.874 180.053 338.502 179.891 339.202 179.891C339.903 179.891 340.529 180.053 341.081 180.379C341.636 180.704 342.073 181.174 342.394 181.789C342.716 182.401 342.878 183.138 342.878 184ZM341.421 184C341.421 183.393 341.326 182.882 341.136 182.465C340.948 182.046 340.688 181.729 340.354 181.516C340.021 181.299 339.637 181.191 339.202 181.191C338.767 181.191 338.383 181.299 338.05 181.516C337.716 181.729 337.455 182.046 337.265 182.465C337.077 182.882 336.983 183.393 336.983 184C336.983 184.607 337.077 185.12 337.265 185.539C337.455 185.956 337.716 186.272 338.05 186.488C338.383 186.702 338.767 186.809 339.202 186.809C339.637 186.809 340.021 186.702 340.354 186.488C340.688 186.272 340.948 185.956 341.136 185.539C341.326 185.12 341.421 184.607 341.421 184ZM344.856 188H343.31L346.126 180H347.915L350.735 188H349.188L347.052 181.641H346.989L344.856 188ZM344.907 184.863H349.126V186.027H344.907V184.863Z" fill="black"/>
<defs>
<clipPath id="clip0_1321_451">
<rect width="290" height="10" fill="white" transform="translate(20 210)"/>
</clipPath>
</defs>
</svg>
