<svg width="500" height="500" viewBox="0 0 500 500" fill="none" xmlns="http://www.w3.org/2000/svg">
<path fill-rule="evenodd" clip-rule="evenodd" d="M120.863 440.533C225.816 511.577 368.489 484.089 439.531 379.137C510.577 274.184 483.09 131.512 378.138 60.4676C273.186 -10.5765 130.512 16.9113 59.4677 121.863C-11.5766 226.814 15.9113 369.489 120.863 440.533ZM151.302 442.408C247.308 491.524 369.093 445.418 423.32 339.429C477.546 233.438 443.677 107.698 347.671 58.5799C251.667 9.4626 129.88 55.5675 75.6539 161.558C21.4278 267.548 55.2964 393.288 151.302 442.408Z" fill="#0062FF"/>
<path fill-rule="evenodd" clip-rule="evenodd" d="M178.658 467.473C265.321 495.68 367.269 421.166 406.369 301.041C445.466 180.917 406.906 60.6707 320.244 32.464C233.582 4.25755 131.634 78.7717 92.5361 198.897C53.4384 319.021 91.9969 439.267 178.658 467.473ZM205.169 458.344C278.511 473.987 357.817 393.607 382.303 278.813C406.785 164.018 367.18 58.2762 293.837 42.6328C220.495 26.9894 141.19 107.368 116.705 222.164C92.2199 336.958 131.827 442.7 205.169 458.344Z" fill="#0062FF"/>
<path fill-rule="evenodd" clip-rule="evenodd" d="M225.277 477.274C283.264 483.464 341.134 386.747 354.534 261.247C367.936 135.748 331.791 28.9906 273.806 22.799C215.82 16.6074 157.95 113.326 144.549 238.825C131.148 364.324 167.292 471.083 225.277 477.274ZM252.412 439.075C294.376 438.412 327.062 353.46 325.416 249.329C323.772 145.198 288.418 61.3199 246.454 61.9829C204.489 62.6461 171.804 147.598 173.449 251.731C175.094 355.861 210.447 439.738 252.412 439.075Z" fill="#0062FF"/>
</svg>
