<svg width="128" height="48" viewBox="0 0 128 47" fill="none" xmlns="http://www.w3.org/2000/svg">
<g clip-path="url(#clip0)">
<path d="M104.6 17.9541C104.999 17.9541 105.389 17.8362 105.721 17.6154C106.053 17.3946 106.311 17.0808 106.464 16.7137C106.616 16.3466 106.656 15.9428 106.578 15.5533C106.499 15.1638 106.307 14.8061 106.024 14.5256C105.742 14.2451 105.382 14.0544 104.99 13.9776C104.599 13.9008 104.193 13.9413 103.825 14.0941C103.456 14.2468 103.142 14.505 102.921 14.8358C102.7 15.1666 102.582 15.5552 102.584 15.9524C102.585 16.4838 102.798 16.9929 103.176 17.3681C103.554 17.7433 104.066 17.9541 104.6 17.9541Z" fill="#171717"/>
<path d="M106.172 19.9778H102.994V30.9537H106.172V19.9778Z" fill="#171717"/>
<path d="M118.556 23.1348H121.889C121.411 20.9894 119.789 19.7397 115.75 19.7397C113.383 19.7397 111.7 20.0383 110.711 20.6632C109.722 21.288 109.111 21.9736 109.111 23.2233C109.111 25.9603 111.722 26.2423 113.483 26.4469C114.456 26.5686 115.589 26.6073 116.983 26.6902C118.094 26.751 118.767 27.033 118.767 27.6136C118.767 28.6421 117.311 28.8025 115.811 28.8025C114.072 28.8025 112.478 28.526 112.172 27.5915H108.839C108.907 28.1832 109.119 28.7494 109.457 29.2409C109.795 29.7324 110.248 30.1343 110.778 30.4115C111.75 30.9313 112.906 31.1746 115.594 31.1746C120.372 31.1746 121.989 29.7646 121.989 27.1879C121.989 24.1688 117.922 24.3292 114.661 24.0029C113.306 23.8647 112.439 23.7209 112.439 23.0408C112.439 22.3607 113.372 21.9349 115.772 21.9349C117.328 21.9349 118.1 22.2722 118.55 23.0961" fill="#171717"/>
<path d="M96.7553 30.9647H100.089V26.2813C100.089 21.2274 97.6164 19.74 94.3608 19.74C92.531 19.797 90.7896 20.5372 89.483 21.8135C88.4497 20.3206 86.8942 19.74 84.9719 19.74C84.2411 19.7229 83.5144 19.8533 82.8356 20.1231C82.1567 20.393 81.5398 20.7969 81.0219 21.3104V19.9778H77.9053V30.9647H81.2053V23.8041C82.1706 22.8664 83.4568 22.3271 84.8053 22.2946C86.4719 22.2946 87.3775 23.1019 87.3775 26.3642V30.9647H90.5553V23.8484C91.5702 22.9532 92.8485 22.4083 94.1997 22.2946C95.8664 22.2946 96.7664 23.1019 96.7664 26.3642L96.7553 30.9647Z" fill="#171717"/>
<path d="M72.1558 27.7024C71.7225 28.4986 70.6891 28.9244 68.9558 28.9244C66.9558 28.9244 65.2336 28.0563 64.828 26.2648H75.6169V25.7118C75.6169 22.7536 73.1891 19.7124 68.9502 19.7124C64.8225 19.7124 61.728 21.6256 61.728 25.4519C61.728 29.2783 64.8447 31.1693 69.0114 31.1693C72.2558 31.1693 75.1225 29.6322 75.678 27.6748L72.1558 27.7024ZM68.9558 22.0513C70.678 22.0513 72.1558 23.0798 72.2558 24.2631H64.9114C65.3947 22.5988 66.9725 22.0513 68.9558 22.0513Z" fill="#171717"/>
<path d="M56.4112 30.9648H59.7446V26.2813C59.7446 20.8072 56.6501 19.7401 53.7557 19.7401C52.1973 19.7109 50.686 20.2722 49.5279 21.3104V15.969H46.3057V30.9648H49.6057V23.8042C50.8223 22.7812 51.8723 22.2946 53.2501 22.2946C55.1723 22.2946 56.4279 23.1019 56.4279 26.3643L56.4112 30.9648Z" fill="#171717"/>
<path d="M41.2446 22.4714H43.9224V19.9776H41.2446V16.0352L38.0835 17.0802V19.9997H35.8335V22.4935H38.0835V27.47C38.0835 29.9693 38.9335 31.2355 41.3057 31.2355C42.2335 31.2355 43.5279 30.854 43.7446 30.489V27.9953C43.2366 28.2831 42.6625 28.4355 42.0779 28.4376C41.5224 28.4376 41.2724 28.1943 41.2724 27.3317L41.2446 22.4714Z" fill="#171717"/>
<path d="M31.3333 30.9647H34.6666V26.2813C34.6666 20.8071 31.5722 19.74 28.6777 19.74C27.0903 19.7164 25.5497 20.2754 24.3499 21.3103V19.9777H21.2222V30.9647H24.5222V23.8041C25.4953 22.8544 26.7983 22.3139 28.1611 22.2946C30.0833 22.2946 31.3388 23.1019 31.3388 26.3642L31.3333 30.9647Z" fill="#171717"/>
<path d="M14.6666 28.034C13.0468 28.5429 11.3644 28.8275 9.66662 28.88C7.99996 28.88 6.93329 28.7584 6.93329 27.6083C6.93329 26.7844 7.53884 26.2425 10.15 26.2425C11.9944 26.2425 14.3 26.5687 14.6444 27.1327L14.6666 28.034ZM17.3555 31.1969C17.961 31.2266 18.5557 31.0293 19.0222 30.6439V28.4156C18.8285 28.5181 18.6137 28.5749 18.3944 28.5814C18.3062 28.5738 18.2204 28.5488 18.142 28.5079C18.0636 28.4669 17.9942 28.4108 17.9379 28.3429C17.8815 28.2749 17.8393 28.1965 17.8137 28.1121C17.7881 28.0278 17.7797 27.9392 17.7888 27.8516V24.8823C17.7888 21.4209 15.4833 19.751 10.4222 19.751C8.03885 19.751 5.56662 20.1325 4.31107 20.9564L5.20551 23.1682C6.78648 22.5623 8.46698 22.2548 10.1611 22.2613C14.4888 22.2613 14.7944 23.3672 14.7944 24.9818C13.2921 24.3379 11.6745 24.0031 10.0388 23.9976C7.06662 23.9976 3.92773 24.5947 3.92773 27.6138C3.92773 30.1352 5.62773 31.2245 9.12773 31.2245C11.6777 31.2245 14.0277 30.5001 15 29.8753C15.246 30.2862 15.595 30.6265 16.0127 30.863C16.4305 31.0995 16.9027 31.224 17.3833 31.2245" fill="#171717"/>
</g>
<defs>
<clipPath id="clip0">
<rect width="128" height="47" fill="#171717"/>
</clipPath>
</defs>
</svg>
