<svg width="156" height="48" viewBox="0 0 156 47" fill="none" xmlns="http://www.w3.org/2000/svg">
<g clip-path="url(#clip0)">
<path d="M14.4465 16.3589L14.5661 20.9896H13.225C13.225 19.9054 13.0032 19.0887 12.5597 18.5396C12.1161 17.9905 11.5003 17.7194 10.7121 17.7264L9.73857 17.7361V27.3177C9.73857 27.5045 9.73857 27.687 9.73333 27.8668C9.72809 28.0466 9.7246 28.2177 9.71848 28.3808C9.71237 28.544 9.70364 28.6913 9.69404 28.8247C9.68443 28.958 9.67221 29.0677 9.65911 29.1545L11.2884 29.094V30.6729H5.35108V29.3229C5.55628 29.3188 5.76075 29.2971 5.96227 29.258C6.13228 29.2272 6.2904 29.1494 6.41892 29.0334C6.55861 28.8895 6.65644 28.7099 6.70182 28.5141C6.77734 28.1984 6.81082 27.8739 6.80135 27.5492V17.7563H5.854C5.07924 17.7563 4.46805 18.0194 4.02043 18.5457C3.5728 19.072 3.34608 19.887 3.34026 20.9905H2L2.11962 16.3598L14.4465 16.3589Z" fill="#171717"/>
<path d="M26.2977 27.4054C26.5229 27.744 26.7249 28.0332 26.9036 28.2729C27.0592 28.4857 27.2346 28.6831 27.4275 28.8624C27.7374 29.1571 28.148 29.3213 28.5748 29.3212V30.6686H25.2254C24.9466 30.4541 24.7019 30.1983 24.4999 29.9098C24.2548 29.577 23.9967 29.1879 23.7254 28.7422L22.235 26.2975C22.0603 26.018 21.9046 25.784 21.7678 25.5957C21.6311 25.4074 21.5021 25.2411 21.381 25.0966C21.2681 25.1036 21.1686 25.1071 21.0824 25.1071H20.5856C20.5027 25.1071 20.411 25.1071 20.3123 25.0966V27.3028C20.3123 27.6759 20.3056 28.0335 20.2923 28.3756C20.2858 28.6343 20.266 28.8926 20.2329 29.1493L21.9617 29.0887V30.6677H15.917V29.3229C16.1217 29.3118 16.3257 29.2902 16.5282 29.258C16.6992 29.2338 16.8587 29.1573 16.9848 29.0387C17.1247 28.892 17.2227 28.7102 17.2686 28.5124C17.3433 28.1965 17.3765 27.8721 17.3673 27.5475V19.7124C17.3673 19.5264 17.369 19.3434 17.3725 19.1633C17.3725 18.9835 17.3804 18.8124 17.3873 18.6493C17.3943 18.4861 17.4022 18.3387 17.4127 18.2054C17.4231 18.0721 17.4336 17.9624 17.4467 17.8764L15.917 17.9361V16.3572L21.7085 16.3177C22.5101 16.3101 23.3104 16.3835 24.0974 16.537C24.7487 16.6591 25.371 16.9047 25.9309 17.2607C26.4315 17.5865 26.8363 18.0408 27.1036 18.5764C27.3754 19.115 27.511 19.777 27.5104 20.5624C27.5186 21.0099 27.448 21.4554 27.3018 21.8782C27.1548 22.3031 26.931 22.6972 26.6417 23.0405C26.3228 23.4125 25.947 23.7311 25.5284 23.9843C25.0346 24.2844 24.5011 24.513 23.9437 24.6633V24.6861C24.2254 24.8057 24.4818 24.9784 24.6989 25.1949C24.9427 25.4253 25.1592 25.6831 25.3442 25.9633L26.2977 27.4054ZM21.3016 23.6335C21.7879 23.6436 22.2731 23.5816 22.7414 23.4493C23.1068 23.3491 23.44 23.1552 23.7082 22.8865C23.9764 22.6178 24.1704 22.2836 24.2711 21.9168C24.3978 21.4772 24.4581 21.0209 24.4501 20.5633C24.4584 20.1835 24.408 19.8048 24.3008 19.4405C24.2177 19.1619 24.0868 18.9001 23.914 18.6668C23.7662 18.4708 23.5825 18.3049 23.3727 18.1782C23.1804 18.0627 22.9753 17.9706 22.7615 17.9036C22.5692 17.843 22.371 17.8027 22.1704 17.7835C21.9818 17.7677 21.8211 17.7589 21.6788 17.7589C21.4838 17.7568 21.2891 17.7736 21.0973 17.8089C20.9365 17.8381 20.788 17.9144 20.6703 18.0282C20.5407 18.1656 20.4484 18.3341 20.4023 18.5177C20.3314 18.7979 20.2996 19.0866 20.308 19.3756V23.5668C20.4669 23.5867 20.629 23.6033 20.7943 23.6168C20.9602 23.6282 21.1287 23.6335 21.3016 23.6335Z" fill="#171717"/>
<path d="M34.2544 27.3175C34.2544 27.5043 34.2544 27.6868 34.25 27.8666C34.2456 28.0464 34.2413 28.2175 34.2352 28.3806C34.229 28.5438 34.2194 28.6911 34.2098 28.8245C34.2002 28.9578 34.188 29.0675 34.1749 29.1543L35.7046 29.0938V30.6727H29.8643V29.3227C30.069 29.3116 30.273 29.29 30.4754 29.2578C30.6467 29.2334 30.8064 29.1569 30.933 29.0385C31.0722 28.8915 31.1699 28.7098 31.2159 28.5122C31.2914 28.1964 31.3249 27.8719 31.3154 27.5473V19.7122C31.3154 19.5262 31.3154 19.3429 31.3198 19.1631C31.3241 18.9832 31.3285 18.8122 31.3346 18.649C31.3407 18.4859 31.3503 18.3385 31.3599 18.2052C31.3695 18.0718 31.3809 17.9622 31.3949 17.8762L29.8651 17.9359V16.3569H35.7055V17.7061C35.4991 17.7165 35.2935 17.7399 35.0899 17.7762C34.9214 17.8045 34.7645 17.8806 34.6377 17.9955C34.498 18.1395 34.4001 18.319 34.3548 18.5148C34.2792 18.8306 34.2458 19.1551 34.2552 19.4797L34.2544 27.3175Z" fill="#171717"/>
<path d="M37.7309 29.3229C37.9356 29.3117 38.1396 29.2901 38.3421 29.2579C38.5131 29.2335 38.6725 29.157 38.7988 29.0386C38.9386 28.8921 39.0364 28.7102 39.0817 28.5123C39.1572 28.1965 39.1907 27.8721 39.1812 27.5474V19.7123C39.1812 19.5264 39.1829 19.3433 39.1864 19.1632C39.1864 18.9834 39.1943 18.8123 39.2013 18.6492C39.2083 18.486 39.2161 18.3386 39.2257 18.2053C39.2353 18.072 39.2476 17.9623 39.2607 17.8764L37.7309 17.936V16.3571L43.374 16.3193C44.0932 16.3121 44.8112 16.3839 45.5149 16.5334C46.0945 16.6526 46.6491 16.8723 47.1538 17.1825C47.5889 17.4526 47.9492 17.8285 48.2015 18.2755C48.4558 18.7536 48.5825 19.2897 48.5691 19.8316C48.5724 20.159 48.5149 20.4841 48.3997 20.7904C48.2751 21.1014 48.0979 21.3884 47.8758 21.6386C47.6152 21.9323 47.3102 22.183 46.9722 22.3816C46.5603 22.623 46.1172 22.806 45.6555 22.9255V22.9457C46.2623 23.0306 46.8537 23.2031 47.4113 23.4579C47.8627 23.6667 48.2759 23.9502 48.6337 24.2965C48.9467 24.6017 49.1937 24.9684 49.3593 25.3737C49.5167 25.7638 49.5977 26.1808 49.5977 26.6018C49.6101 27.2077 49.4825 27.8082 49.2248 28.3562C48.9825 28.8544 48.6291 29.2896 48.1919 29.6281C47.7245 29.9844 47.1933 30.247 46.6273 30.4018C45.9837 30.5814 45.3184 30.67 44.6505 30.665H37.7266L37.7309 29.3229ZM42.0425 29.2229C42.3993 29.2229 42.7404 29.2211 43.0658 29.2176C43.3897 29.2176 43.711 29.2062 44.0262 29.193C44.3922 29.1829 44.753 29.1034 45.0897 28.9588C45.3734 28.8328 45.6246 28.6431 45.824 28.4044C46.0223 28.1624 46.1691 27.882 46.2553 27.5807C46.351 27.2415 46.3978 26.8903 46.3941 26.5378C46.4059 26.1351 46.3286 25.7349 46.168 25.3658C46.0326 25.0674 45.8281 24.8057 45.5717 24.6027C45.3217 24.4086 45.0341 24.2691 44.7273 24.193C44.4134 24.1133 44.0907 24.0732 43.7669 24.0737C43.1266 24.0737 42.5771 24.0802 42.1184 24.093V27.4167C42.1184 27.6027 42.1167 27.784 42.1132 27.9606C42.1132 28.136 42.1053 28.3044 42.0983 28.465C42.0914 28.6255 42.0835 28.7685 42.0739 28.8983C42.0643 29.0281 42.0556 29.1369 42.0425 29.2229ZM43.1845 22.6167C43.558 22.6224 43.9279 22.5438 44.2672 22.3869C44.5472 22.2499 44.7894 22.046 44.9727 21.793C45.1562 21.5338 45.2862 21.2403 45.3551 20.9299C45.4335 20.5828 45.4719 20.2278 45.4695 19.872C45.4812 19.5191 45.415 19.168 45.2757 18.8439C45.1625 18.5917 44.9924 18.3695 44.7789 18.1948C44.5749 18.0341 44.3396 17.9184 44.0882 17.8553C43.8352 17.7896 43.575 17.7563 43.3137 17.7562C43.1565 17.7618 43.0002 17.7818 42.8466 17.8158C42.7007 17.8495 42.5689 17.928 42.4694 18.0404C42.3475 18.1884 42.2609 18.3624 42.2162 18.5492C42.1446 18.8516 42.1129 19.1621 42.1219 19.4729V22.6465L43.1845 22.6167Z" fill="#171717"/>
<path d="M55.3894 23.964V27.3236C55.3894 27.5096 55.3877 27.6911 55.3842 27.8683C55.3842 28.0438 55.3754 28.2131 55.3693 28.3736C55.3632 28.5341 55.3545 28.678 55.344 28.8122C55.3335 28.9464 55.3231 29.0508 55.31 29.1376L58.0411 29.1271C58.3453 29.1262 58.6472 29.0755 58.9352 28.9771C59.2349 28.8765 59.507 28.7068 59.7297 28.4815C59.9807 28.2214 60.1739 27.9108 60.2964 27.5701C60.4538 27.122 60.5278 26.6486 60.5147 26.1736H61.8558L61.7371 30.6745H50.9976V29.335C51.2025 29.3243 51.4066 29.3012 51.6088 29.2657C51.7789 29.2379 51.9374 29.1615 52.0654 29.0455C52.2051 28.9016 52.3029 28.722 52.3483 28.5262C52.424 28.209 52.4575 27.883 52.4478 27.5569V19.714C52.4478 19.5271 52.4478 19.3447 52.4531 19.1648C52.4583 18.985 52.4609 18.814 52.4679 18.6499C52.4749 18.4859 52.4828 18.3385 52.4924 18.2052C52.502 18.0718 52.5142 17.9622 52.5273 17.8762L50.9976 17.9359V16.3569H61.18L61.2996 20.3192H59.9585C59.9585 19.7666 59.8808 19.3175 59.7254 18.9718C59.5942 18.6594 59.3917 18.3824 59.1343 18.1631C58.9025 17.9742 58.6307 17.8412 58.3397 17.7745C58.0595 17.71 57.7724 17.6805 57.4849 17.6868L56.7497 17.7069C56.5579 17.7114 56.3667 17.7331 56.1787 17.7718C56.0162 17.8051 55.8675 17.8867 55.7518 18.0061C55.6201 18.1562 55.5279 18.3372 55.4837 18.5324C55.4125 18.8432 55.3808 19.1618 55.3894 19.4806V22.5447H57.7809L57.6936 20.778H59.2652V25.7482H57.9224C57.9224 25.323 57.8694 24.987 57.7635 24.7403C57.6769 24.5196 57.5286 24.3289 57.3365 24.1911C57.1471 24.068 56.9301 23.9944 56.7052 23.9771C56.446 23.9531 56.1857 23.9446 55.9255 23.9517L55.3894 23.964Z" fill="#171717"/>
<path d="M71.9481 23.3052C71.9407 24.125 72.0357 24.9425 72.231 25.7385C72.3956 26.4192 72.6762 27.0662 73.0605 27.6508C73.3995 28.1664 73.8559 28.5934 74.392 28.8964C74.9528 29.2006 75.5823 29.3538 76.2195 29.3411C76.6522 29.3398 77.083 29.2827 77.5012 29.1709C77.9362 29.0564 78.3562 28.8906 78.7524 28.6771C79.5873 28.2275 80.3106 27.5949 80.8689 26.8262L81.8425 27.7245C81.4037 28.3544 80.8784 28.9188 80.2822 29.4008C79.7857 29.798 79.2419 30.1316 78.6634 30.3938C78.1654 30.618 77.6416 30.7789 77.104 30.8727C76.6478 30.9532 76.1858 30.9963 75.7227 31.0016C74.7389 31.0155 73.7631 30.8237 72.857 30.4385C72.0254 30.0803 71.2764 29.5536 70.6568 28.8911C70.0391 28.2223 69.5598 27.4369 69.2467 26.5806C68.9094 25.6656 68.7411 24.6966 68.7498 23.7209C68.7503 23.0955 68.8167 22.4718 68.948 21.8604C69.0788 21.2447 69.2771 20.6455 69.5391 20.0736C69.802 19.5049 70.1343 18.9712 70.5284 18.485C70.9266 17.9913 71.3932 17.5577 71.9141 17.1973C72.4602 16.8221 73.0599 16.5325 73.6926 16.3385C74.3965 16.1259 75.1283 16.0218 75.8632 16.0297C76.1441 16.0307 76.4246 16.0524 76.7023 16.0946C77.0057 16.1396 77.3059 16.2047 77.6008 16.2894C77.9077 16.3766 78.2095 16.4814 78.5045 16.6034C78.8003 16.7266 79.0858 16.8732 79.3584 17.042H79.3785L79.3095 16.1736H80.8811V20.9543H79.5479C79.3622 19.8169 78.9879 18.9601 78.425 18.3841C77.8621 17.8081 77.0973 17.5204 76.1304 17.5209C75.4794 17.5056 74.8372 17.6749 74.2776 18.0095C73.7487 18.3365 73.3008 18.7801 72.9679 19.3069C72.611 19.8771 72.3507 20.5028 72.1978 21.1587C72.0297 21.8616 71.9458 22.5822 71.9481 23.3052Z" fill="#171717"/>
<path d="M90.3033 26.3888L85.8826 26.4686L85.5543 27.4335C85.5211 27.5265 85.4801 27.6441 85.4303 27.7844C85.3806 27.9248 85.3247 28.0739 85.2618 28.2309C85.199 28.3879 85.1361 28.5414 85.0732 28.6914C85.0104 28.8414 84.9554 28.9765 84.9091 29.0967L86.3594 29.037V30.6739H81.998V29.2704C82.2521 29.2789 82.5029 29.2111 82.7184 29.0756C82.9205 28.9393 83.0943 28.7647 83.23 28.5616C83.3863 28.3288 83.5163 28.0794 83.6177 27.8177C83.7301 27.5353 83.8427 27.2408 83.9556 26.9344L87.9284 16.002H89.3394L93.6806 27.1423C93.7196 27.2423 93.7676 27.3753 93.8247 27.5414C93.8805 27.7081 93.939 27.8862 93.9993 28.0756C94.0595 28.2651 94.1119 28.4546 94.1582 28.6449C94.2006 28.8143 94.2339 28.9859 94.2577 29.159L95.4295 29.0984V30.6774H89.9462V29.323C90.31 29.323 90.565 29.2514 90.7111 29.1081C90.7855 29.0307 90.8433 28.9387 90.8809 28.8379C90.9184 28.7371 90.9349 28.6296 90.9293 28.5221C90.9276 28.3651 90.9076 28.2088 90.87 28.0563C90.8265 27.8718 90.7734 27.6897 90.7111 27.5107L90.3033 26.3888ZM86.3986 24.9493H89.7864L88.8644 22.387C88.6857 21.8882 88.5268 21.3941 88.3877 20.9046C88.2629 20.4762 88.16 20.0417 88.0794 19.6028H88.0594C88.007 19.8367 87.9243 20.1827 87.8114 20.6405C87.6984 21.0984 87.5328 21.6508 87.3146 22.2976L86.3986 24.9493Z" fill="#171717"/>
<path d="M102.392 25.4904C102.233 25.4974 102.089 25.5027 101.96 25.5053C101.832 25.5079 101.708 25.5106 101.593 25.5106H101.255C101.146 25.5106 101.031 25.5106 100.912 25.5009V27.3071C100.912 27.6802 100.905 28.0378 100.892 28.3799C100.885 28.6386 100.865 28.8968 100.832 29.1535L102.561 29.093V30.672H96.5216V29.3228C96.7263 29.3118 96.9303 29.2901 97.1327 29.2579C97.304 29.2335 97.4637 29.157 97.5903 29.0386C97.7295 28.8916 97.8272 28.7099 97.8732 28.5123C97.9487 28.1965 97.9822 27.872 97.9727 27.5474V19.7123C97.9727 19.5264 97.9727 19.343 97.9727 19.1632C97.9727 18.9834 97.9814 18.8123 97.9875 18.6492C97.9937 18.486 98.0024 18.3386 98.0129 18.2053C98.0233 18.072 98.0338 17.9623 98.0478 17.8764L96.5181 17.936V16.3571L102.309 16.3176C103.116 16.3028 103.921 16.3865 104.708 16.5667C105.368 16.7139 105.993 16.9866 106.55 17.3702C107.055 17.7263 107.462 18.2053 107.733 18.7623C108.011 19.3278 108.15 20.0065 108.15 20.7983C108.156 21.3733 108.041 21.9432 107.812 22.4702C107.567 23.0306 107.207 23.5323 106.755 23.9421C106.23 24.4119 105.621 24.7774 104.961 25.0193C104.242 25.3006 103.385 25.4576 102.392 25.4904ZM101.826 24.0334C102.315 24.0439 102.802 23.9715 103.266 23.8193C103.644 23.6931 103.985 23.4753 104.259 23.1851C104.526 22.8913 104.721 22.5394 104.83 22.1571C104.959 21.7064 105.021 21.2391 105.015 20.7702C105.022 20.3771 104.978 19.9847 104.885 19.6027C104.813 19.3111 104.696 19.033 104.536 18.779C104.403 18.57 104.233 18.3874 104.034 18.2404C103.855 18.1089 103.657 18.0046 103.448 17.9307C103.252 17.8619 103.049 17.8151 102.842 17.7913C102.656 17.7687 102.468 17.757 102.281 17.7562C102.086 17.7541 101.892 17.7708 101.7 17.8062C101.539 17.8351 101.39 17.9115 101.272 18.0255C101.143 18.1631 101.051 18.3316 101.004 18.5149C100.933 18.7951 100.902 19.0839 100.91 19.3728V23.9737L101.357 24.0132C101.512 24.0272 101.667 24.0334 101.826 24.0334Z" fill="#171717"/>
<path d="M113.804 27.3175C113.804 27.5043 113.804 27.6868 113.798 27.8666C113.793 28.0464 113.79 28.2175 113.783 28.3806C113.777 28.5438 113.769 28.6911 113.759 28.8245C113.749 28.9578 113.737 29.0675 113.724 29.1543L115.254 29.0938V30.6727H109.413V29.3227C109.617 29.3116 109.821 29.2899 110.024 29.2578C110.195 29.2334 110.354 29.1569 110.48 29.0385C110.62 28.8918 110.718 28.71 110.764 28.5122C110.839 28.1963 110.872 27.8719 110.863 27.5473V19.7122C110.863 19.5262 110.865 19.3432 110.868 19.1631C110.868 18.9832 110.876 18.8122 110.883 18.649C110.89 18.4859 110.898 18.3385 110.907 18.2052C110.917 18.0718 110.929 17.9622 110.942 17.8762L109.413 17.9359V16.3569H115.254V17.7061C115.049 17.7166 114.845 17.74 114.643 17.7762C114.474 17.8043 114.317 17.8804 114.19 17.9955C114.05 18.139 113.952 18.3188 113.907 18.5148C113.832 18.8306 113.798 19.1551 113.808 19.4797L113.804 27.3175Z" fill="#171717"/>
<path d="M129.028 16.3589L129.147 20.9896H127.806C127.806 19.9054 127.584 19.0887 127.141 18.5396C126.697 17.9905 126.081 17.7194 125.293 17.7264L124.319 17.7361V27.3177C124.319 27.5045 124.319 27.687 124.314 27.8668C124.309 28.0466 124.306 28.2177 124.299 28.3808C124.292 28.544 124.285 28.6913 124.275 28.8247C124.265 28.958 124.253 29.0677 124.24 29.1545L125.869 29.094V30.6729H119.932V29.3229C120.137 29.3188 120.342 29.2971 120.543 29.258C120.713 29.2272 120.872 29.1495 121.001 29.0334C121.14 28.8895 121.238 28.7099 121.284 28.5141C121.359 28.1984 121.393 27.8739 121.383 27.5492V17.7563H120.439C119.664 17.7563 119.053 18.0194 118.606 18.5457C118.159 19.072 117.932 19.887 117.925 20.9905H116.583L116.703 16.3598L129.028 16.3589Z" fill="#171717"/>
<path d="M136.815 26.3888L132.394 26.4686L132.067 27.4335L131.942 27.7844C131.892 27.9248 131.836 28.0736 131.774 28.2309C131.711 28.387 131.648 28.5414 131.585 28.6914C131.522 28.8414 131.467 28.9765 131.421 29.0967L132.871 29.037V30.6739H128.511V29.2704C128.765 29.279 129.015 29.2112 129.23 29.0756C129.432 28.9393 129.606 28.7647 129.742 28.5616C129.898 28.3288 130.028 28.0794 130.13 27.8177C130.242 27.5353 130.355 27.2408 130.467 26.9344L134.442 16.002H135.852L140.193 27.1423C140.233 27.2423 140.281 27.3756 140.337 27.5414C140.394 27.7072 140.452 27.8862 140.512 28.0756C140.572 28.2651 140.625 28.4546 140.671 28.6449C140.713 28.8143 140.747 28.9859 140.77 29.159L141.942 29.0984V30.6774H136.459V29.323C136.823 29.323 137.078 29.2514 137.224 29.1081C137.298 29.0308 137.356 28.9388 137.394 28.838C137.432 28.7372 137.448 28.6297 137.443 28.5221C137.441 28.365 137.421 28.2087 137.383 28.0563C137.339 27.8718 137.286 27.6897 137.224 27.5107L136.815 26.3888ZM132.911 24.9493H136.298L135.374 22.3844C135.195 21.8856 135.036 21.3914 134.898 20.902C134.773 20.4736 134.67 20.0391 134.589 19.6002H134.57C134.517 19.8341 134.434 20.18 134.321 20.6379C134.209 21.0958 134.043 21.6482 133.825 22.2949L132.911 24.9493Z" fill="#171717"/>
<path d="M143.034 30.6701V29.335C143.238 29.324 143.442 29.3023 143.645 29.2701C143.816 29.2457 143.976 29.1692 144.102 29.0508C144.242 28.9038 144.339 28.7221 144.385 28.5245C144.46 28.2069 144.493 27.8806 144.483 27.5543V19.714C144.483 19.5271 144.483 19.3447 144.488 19.1648C144.493 18.985 144.496 18.814 144.503 18.6499C144.51 18.4859 144.518 18.3385 144.528 18.2052C144.537 18.0718 144.549 17.9622 144.562 17.8762L143.033 17.9359V16.3569H148.873V17.7061C148.668 17.7167 148.464 17.7401 148.262 17.7762C148.093 17.8045 147.936 17.8806 147.81 17.9955C147.67 18.1398 147.572 18.3197 147.527 18.5157C147.451 18.8315 147.418 19.156 147.427 19.4806V27.3218C147.427 27.5078 147.427 27.6894 147.427 27.8657C147.427 28.042 147.418 28.2104 147.412 28.3701C147.406 28.5297 147.397 28.6754 147.387 28.8087C147.377 28.942 147.366 29.0464 147.352 29.1332L150.084 29.1227C150.886 29.1227 151.515 28.8444 151.972 28.2876C152.429 27.7309 152.657 26.8917 152.657 25.7701H154L153.88 30.6701H143.034Z" fill="#171717"/>
</g>
<defs>
<clipPath id="clip0">
<rect width="152" height="15" fill="#171717" transform="translate(2 16)"/>
</clipPath>
</defs>
</svg>
