<svg width="108" height="48" viewBox="0 0 108 47" fill="none" xmlns="http://www.w3.org/2000/svg">
<g clip-path="url(#clip0)">
<path d="M72.8181 19.3181L72.8606 19.3186L72.8625 19.1817L72.8606 19.3186H72.8643L72.8998 21.3114C72.8998 21.5176 73.0063 21.6894 73.2195 21.6894L79.3286 21.7238C79.4352 21.7238 79.5062 21.7925 79.5062 21.8955V24.3006C79.5062 24.4014 79.4382 24.4694 79.3355 24.4723C79.3078 24.4891 79.2735 24.4983 79.2345 24.4983H73.1371C73.1167 24.4983 73.0973 24.4998 73.0789 24.5028C72.9595 24.561 72.8998 24.6961 72.8998 24.8504L72.8643 27.118C72.8643 27.153 72.8561 27.184 72.8412 27.2097C72.8958 27.336 73.0409 27.3992 73.208 27.3992L75.5477 27.4333C75.654 27.4333 75.7249 27.5016 75.7249 27.6039V29.9929C75.7249 30.0953 75.654 30.1636 75.5477 30.1636H67.4651C67.3588 30.1636 67.2879 30.0953 67.2879 29.9929V27.6039C67.2879 27.5016 67.3588 27.4333 67.4651 27.4333L69.5567 27.3992C69.7339 27.3992 69.9111 27.3309 69.9466 27.1603V19.1742C69.9466 18.9694 69.7694 18.8671 69.5567 18.8671L67.4297 18.8329C67.3233 18.8329 67.2524 18.7647 67.2524 18.6623V16.2733C67.2524 16.1709 67.3233 16.1026 67.4297 16.1026H85.5091C85.6155 16.1026 85.6863 16.205 85.6863 16.2733V20.437C85.6863 20.5394 85.6155 20.6076 85.5091 20.6076H83.0276C82.9212 20.6076 82.8504 20.5394 82.8504 20.437L82.8149 19.2425C82.8149 19.0377 82.7085 18.9012 82.5313 18.8671H73.1371C72.9244 18.8671 72.8181 19.0377 72.8181 19.2425V19.3181ZM10.0326 16.0513H17.0652H10.0326ZM42.2128 27.3173C42.2836 27.3173 42.3898 27.3859 42.4252 27.4888V29.8894C42.4252 29.9923 42.3544 30.061 42.2482 30.061H38.9213H37.5055H34.1786C34.0724 30.061 34.0016 29.9923 34.0016 29.8894V27.4888C34.0016 27.3859 34.0724 27.3173 34.1786 27.3173L35.6651 27.283C35.8774 27.283 35.9482 27.1459 35.842 26.9744C35.5943 26.6315 34.8156 25.4997 34.6032 25.2596C34.4263 25.0195 34.1785 24.9853 33.9662 24.9853C33.7538 24.9853 30.3561 24.9853 30.3561 24.9853L27.9493 25.0196C27.8432 25.0196 27.7724 25.0881 27.7724 25.191V26.9744C27.7724 27.1802 27.9493 27.283 28.1617 27.283L30.5684 27.3173C30.6746 27.3173 30.7454 27.3859 30.7454 27.4888V29.8894C30.7454 29.9923 30.6746 30.061 30.5684 30.061H22.4987C22.3925 30.061 22.3218 29.9923 22.3218 29.8894V27.4888C22.3218 27.3859 22.3925 27.3173 22.4987 27.3173L24.5162 27.283C24.7285 27.283 24.9055 27.1802 24.9055 26.9744V19.1894C24.9055 18.9837 24.7285 18.8808 24.5162 18.8808L22.4633 18.8465C22.3571 18.8465 22.2864 18.7779 22.2864 18.675V16.1715C22.2864 16.0686 22.3571 16 22.4633 16H35.9128C38.4612 16 40.514 18.0234 40.514 20.4927C40.514 22.1388 39.6291 23.5449 38.2842 24.3336C37.8949 24.4708 37.8594 24.7109 38.001 24.951C38.1072 25.1225 39.1336 26.7 39.346 27.043C39.4875 27.2488 39.5937 27.283 39.8061 27.283L42.2128 27.3173ZM35.842 22.1731C36.7977 22.1731 37.5763 21.4186 37.5763 20.4927C37.5763 19.5667 36.7977 18.8121 35.842 18.8121H35.5943L27.9139 18.8465C27.8078 18.8465 27.737 18.9151 27.737 19.018V21.9673C27.737 22.0702 27.8078 22.1388 27.9139 22.1388L35.5943 22.1731H35.842ZM16.9873 30.1636H8.12509C6.16759 30.1636 4.24569 28.4872 3.4271 26.4345C3.14237 25.6819 3 24.895 3 24.1081V22.2265C3 21.4397 3.14237 20.6528 3.4271 19.9001C4.24569 17.8474 6.06081 16.1711 8.12509 16.1711L20.1904 16.1026C20.2972 16.1026 20.3684 16.171 20.3684 16.2737V20.4475C20.3684 20.5502 20.2972 20.6186 20.1904 20.6186H17.5923C17.4855 20.6186 17.4144 20.5502 17.4144 20.4475L17.3788 19.3185C17.3788 19.1133 17.272 18.9422 17.0584 18.9422L8.5166 18.9764C7.59124 18.9764 6.63026 19.8317 6.16758 20.9265C5.98963 21.3712 5.91847 21.7818 5.91847 22.2265V24.1423C5.91847 24.5528 5.98963 24.9976 6.16758 25.4424C6.59467 26.5371 7.55564 27.4608 8.5166 27.4608L16.9873 27.4266C17.2008 27.4266 17.3788 27.2556 17.3788 27.0503L17.4144 25.8529C17.4144 25.7503 17.4855 25.6818 17.5923 25.6818H20.1904C20.2972 25.6818 20.3684 25.7503 20.3684 25.8529V29.9583C20.3684 30.0609 20.2972 30.1294 20.1904 30.1294H17.6279L16.9873 30.1636ZM65.7162 27.4333C65.8225 27.4333 65.8934 27.5016 65.858 27.6039V29.9929C65.858 30.0953 65.7871 30.1636 65.6808 30.1636H57.5993C57.4929 30.1636 57.422 30.0953 57.422 29.9929V27.6039C57.422 27.5016 57.4929 27.4333 57.5993 27.4333L59.5842 27.3992C59.7969 27.3992 59.9741 27.2968 59.9741 27.092V25.3173V25.2832C59.9741 25.0784 59.8677 24.9077 59.6551 24.9077H50.333C50.1203 24.9077 50.014 25.0784 50.014 25.2832V25.3173V27.092C50.014 27.2968 50.1912 27.3992 50.4039 27.3992L52.3888 27.4333C52.4952 27.4333 52.566 27.5016 52.566 27.6039V29.9929C52.566 30.0953 52.4952 30.1636 52.3888 30.1636H44.3073C44.201 30.1636 44.1301 30.0953 44.1301 29.9929V27.6039C44.1301 27.5016 44.201 27.4333 44.3073 27.4333L46.7885 27.3992C47.0011 27.3992 47.1783 27.2968 47.1783 27.092V22.1433C47.1783 22.1433 47.1784 21.3926 47.3202 20.7782C47.7809 18.4916 49.9785 16.1026 52.3179 16.1026H57.7056C60.0095 16.1026 62.2071 18.4916 62.7034 20.7782C62.8451 21.3926 62.8451 22.1433 62.8451 22.1433V27.092C62.8451 27.2968 63.0224 27.3992 63.2351 27.3992L65.7162 27.4333ZM59.5842 22.1092C59.8677 22.1092 60.0095 22.0068 60.0095 21.6997C59.9741 21.4267 59.9032 21.0853 59.6196 20.5052C59.0525 19.3107 57.9537 18.8329 57.103 18.8329H52.9559C52.1052 18.8329 51.0065 19.3107 50.4393 20.5052C50.1558 21.0853 50.0849 21.4608 50.0494 21.6997C50.014 22.0068 50.1558 22.1092 50.4393 22.1092H59.5842ZM105.043 16.1026C105.15 16.1026 105.221 16.205 105.292 16.2733V20.437C105.292 20.5394 105.221 20.6076 105.114 20.6076H102.623C102.517 20.6076 102.445 20.5394 102.445 20.437L102.41 19.2425C102.41 19.0377 102.303 18.9012 102.125 18.8671H98.1036C97.89 18.8671 97.7832 19.0377 97.7832 19.2425V27.092C97.7832 27.2968 97.9612 27.3992 98.1747 27.3992L100.524 27.4333C100.63 27.4333 100.702 27.5016 100.702 27.6039V29.9929C100.702 30.0953 100.63 30.1636 100.524 30.1636H92.2315C92.1247 30.1636 92.0535 30.0953 92.0535 29.9929V27.6039C92.0535 27.5016 92.1247 27.4333 92.2315 27.4333L94.4735 27.3992C94.6515 27.3992 94.8294 27.3309 94.865 27.1603V19.1742C94.865 18.9694 94.6871 18.8671 94.4735 18.8671H90.452C90.2741 18.9012 90.1674 19.0377 90.1674 19.2425L90.1318 20.437C90.1318 20.5394 90.0606 20.6076 89.9538 20.6076H87.4626C87.3558 20.6076 87.2847 20.5394 87.2847 20.437V16.2733C87.2847 16.1709 87.3558 16.1026 87.4626 16.1026H92.3027H96.253H100.203H105.043Z" fill="#171717"/>
</g>
<defs>
<clipPath id="clip0">
<rect width="102.292" height="14.1636" fill="#171717" transform="translate(3 16)"/>
</clipPath>
</defs>
</svg>
