<svg xmlns="http://www.w3.org/2000/svg" width="122" height="48" fill="none">
    <g clip-path="url(#a)">
        <mask id="b" width="122" height="16" x="0" y="0" maskUnits="userSpaceOnUse" style="mask-type:luminance">
            <path fill="#fff" d="M.005.875h121.123v14.25H.005z"/>
        </mask>
        <g mask="url(#b)">
            <path fill="#171717" fill-rule="evenodd" d="M121.128 1.207h-2.626l-3.336 8.671-3.374-8.681h-2.372l-3.106 8.02-3.129-8.01h-3.326l5.411 13.566h1.507l3.518-9.184 3.611 9.184h1.916zM100.01 7.841a6.7 6.7 0 0 0-.27-1.924 6.5 6.5 0 0 0-.763-1.677 6.5 6.5 0 0 0-1.195-1.384 7.4 7.4 0 0 0-1.554-1.047 8.2 8.2 0 0 0-1.848-.663 9 9 0 0 0-2.084-.232q-1.09 0-2.085.232a8.4 8.4 0 0 0-1.848.658 7.2 7.2 0 0 0-1.554 1.047 6.6 6.6 0 0 0-1.194 1.389 6.5 6.5 0 0 0-.764 1.682q-.27.914-.27 1.938 0 1.042.27 1.975.27.935.764 1.73.492.796 1.194 1.431.7.635 1.554 1.08.853.446 1.848.687a8.8 8.8 0 0 0 2.085.242 9.2 9.2 0 0 0 2.084-.232 8 8 0 0 0 1.848-.673 7.4 7.4 0 0 0 1.554-1.07 6.5 6.5 0 0 0 1.195-1.427q.492-.796.763-1.744.27-.947.27-2.018m-3.678.043q0 1.026-.26 1.894a4.4 4.4 0 0 1-.772 1.5 3.56 3.56 0 0 1-1.265.989q-.754.355-1.74.355-.994 0-1.753-.355a3.5 3.5 0 0 1-1.265-.988 4.4 4.4 0 0 1-.767-1.5 6.6 6.6 0 0 1-.26-1.895q0-1.01.26-1.852a4.1 4.1 0 0 1 .767-1.448q.507-.606 1.265-.943t1.754-.337q.984 0 1.739.337.753.337 1.265.943t.772 1.448.26 1.852m-22.271 6.889h10.275v-2.39h-6.974V1.207h-3.308v13.495h.007zm-4.77-.071h3.383L66.352.914H64.55l-6.586 13.788h2.628l1.473-3.065h5.824zm-2.48-5.454H63.22l1.826-3.852zm-11.023 4.705c.43-.195.713-.407 1.149-.635V7.683h-.007v-.317h-5.479v2.23h2.484v2.343q-.464.333-1.023.498a4.2 4.2 0 0 1-1.185.166c-.701 0-1.565-.081-2.181-.318a4.5 4.5 0 0 1-1.606-1.043q-.682-.687-1.081-1.696c-.153-.38-.273-1.127-.273-1.725 0-.51.09-.926.226-1.343q.375-1.033 1.028-1.748.654-.715 1.554-1.09c.6-.25 1.456-.412 2.158-.412q.69 0 1.293.218.602.219 1.128.602c.294.214.446.341.772.621l1.431-1.736a8 8 0 0 0-1.45-1.048 8.2 8.2 0 0 0-1.758-.735 7 7 0 0 0-1.98-.275q-1.166 0-2.208.237a8.4 8.4 0 0 0-1.929.683c-.59.297-.969.658-1.446 1.085a6.6 6.6 0 0 0-1.213 1.445 7 7 0 0 0-.768 1.763 7.4 7.4 0 0 0-.27 2.028q0 1.535.597 2.786a6.3 6.3 0 0 0 1.663 2.142c.711.593 1.4 1.053 2.38 1.378q1.47.489 3.213.488 1.09 0 1.957-.118.867-.12 1.606-.332c.493-.142.788-.31 1.218-.507m-14.784.82h.322V1.213h-.322v-.006h-2.225v8.586l-7.695-8.586-2.212-.039v.012l-.233-.006v13.56l2.487.039v-9.27l8.297 9.27h1.58m-15.222-2.919a5.5 5.5 0 0 0 .355-1.976v-8.67h-2.406v7.581q0 .787-.241 1.474a3.6 3.6 0 0 1-.692 1.199 3.3 3.3 0 0 1-1.09.81c-.426.199-.788.26-1.319.26s-.807-.061-1.236-.26q-.645-.3-1.094-.81t-.692-1.2a4.4 4.4 0 0 1-.242-1.473V1.207h-3.317V9.85q0 1.051.393 1.99.395.939 1.161 1.644.768.706 1.9 1.114 1.133.407 2.62.407 1.659 0 2.848-.407 1.189-.408 1.943-1.11a4.3 4.3 0 0 0 1.109-1.634m-14.4.495q.365-.704.365-1.519 0-.591-.204-1.115a3.3 3.3 0 0 0-.568-.952 4 4 0 0 0-.863-.752 4.6 4.6 0 0 0-1.094-.519q.577-.339.976-.679.398-.339.635-.708t.34-.781a3.7 3.7 0 0 0 .105-.908q0-.795-.389-1.445A3.5 3.5 0 0 0 9.6 1.855q-.696-.465-1.667-.718A8.5 8.5 0 0 0 5.796.884H.006v13.818h6.642q1.147 0 2.09-.301.944-.3 1.611-.825.669-.524 1.033-1.227M7.72 4.913q0 .372-.151.681a1.55 1.55 0 0 1-.436.535q-.285.226-.697.354a3.2 3.2 0 0 1-.933.127h-2.19V3.086h1.242q.825 0 1.422.134.597.135.985.375.389.24.574.58.184.338.184.738m.54 5.807q0 .393-.184.723-.185.331-.569.569t-.971.374a6.2 6.2 0 0 1-1.393.138h-1.83V8.64h1.716q.891 0 1.512.16.62.159 1 .438.378.277.549.657.17.378.17.824" clip-rule="evenodd"/>
        </g>
    </g>
    <defs>
        <clipPath id="a">
            <path fill="#fff" d="M.005.875h121.123v14.25H.005z"/>
        </clipPath>
    </defs>
</svg>