<svg xmlns="http://www.w3.org/2000/svg" height="48" viewBox="0.61 0.233 104.574 23.534">
    <g xmlns="http://www.w3.org/2000/svg" fill="#171717" clip-path="url(#clip0_3504_1796)">
        <path fill-rule="evenodd" d="M18.786 15.819 9.788.233H.61l13.587 23.533z" clip-rule="evenodd"/>
        <path fill-rule="evenodd" d="m9.786.233 8.998 15.585 4.471-7.744-4.527-7.84h9.054z" clip-rule="evenodd" opacity=".6"/>
        <path d="M23.254 8.074 18.727.234h9.053z" opacity=".5"/>
        <path d="m37.934 17.883 5.004-11.575H40.94l-2.942 7.178-2.973-7.178H32.93zM47.805 6.308v11.191h1.919V6.308zM60.634 14.51a1.194 1.194 0 0 1-.607 1.055 2 2 0 0 1-.608.24 3 3 0 0 1-.656.064c-.352 0-.656-.048-.927-.144a2.8 2.8 0 0 1-.752-.4 4 4 0 0 1-.607-.527c-.176-.192-.32-.4-.448-.608l-1.439 1.215c.176.288.4.56.656.832.256.287.543.527.895.735.352.224.735.4 1.167.528a5 5 0 0 0 1.455.192c.512 0 .991-.064 1.455-.192a3.6 3.6 0 0 0 1.215-.608c.352-.256.623-.591.831-1.007.208-.4.32-.863.32-1.407 0-.48-.096-.895-.256-1.247a3 3 0 0 0-.687-.911 4.6 4.6 0 0 0-1.008-.656 13 13 0 0 0-1.183-.527l-.879-.336a4.4 4.4 0 0 1-.783-.352 1.6 1.6 0 0 1-.544-.48c-.144-.175-.208-.4-.208-.655 0-.4.16-.735.48-.991s.735-.384 1.215-.384c.256 0 .496.048.72.112.223.08.431.176.639.288.192.128.384.256.543.4.16.16.304.303.432.463l1.327-1.31q-.264-.289-.623-.624-.36-.312-.816-.576a6.5 6.5 0 0 0-1.023-.416 5 5 0 0 0-1.215-.16c-.56 0-1.055.097-1.503.272a4.1 4.1 0 0 0-1.15.72 3 3 0 0 0-.72 1.039c-.176.4-.256.815-.256 1.231 0 .512.096.943.32 1.295q.312.552.815.96c.336.271.72.495 1.135.687.416.191.815.367 1.231.511.288.112.56.224.816.32s.463.208.655.336c.176.128.32.272.416.431.096.16.16.368.16.592M67.419 6.308v11.191h1.918V6.308zM77.741 10.88h-1.646V8.13h1.646c.48 0 .88.112 1.2.32.32.224.479.576.479 1.087 0 .48-.16.832-.448 1.04-.287.207-.703.303-1.23.303m.4 4.797h-2.046v-2.974h2.046c.528 0 .975.128 1.327.352s.528.607.528 1.135q0 .815-.528 1.15c-.352.225-.8.337-1.327.337m-3.965-9.369v11.191h4.029c.512 0 1.007-.08 1.47-.24.448-.16.848-.383 1.184-.671s.608-.624.8-1.04c.191-.415.287-.863.287-1.374 0-.48-.096-.896-.256-1.231a3.1 3.1 0 0 0-.56-.8 2.6 2.6 0 0 0-.59-.431 9 9 0 0 1-.337-.144 1.7 1.7 0 0 0 .672-.576c.128-.16.256-.383.352-.655.096-.256.144-.592.144-.975a3.06 3.06 0 0 0-.304-1.375 3.1 3.1 0 0 0-.8-.944 3.6 3.6 0 0 0-1.135-.56 5.3 5.3 0 0 0-1.327-.175zM86.805 6.308v11.191h6.683v-1.822h-4.764V6.308zM100.228 10.848V8.131h4.86V6.308h-6.779v11.191h6.875v-1.822h-4.956V12.67h4.476v-1.823z"/>
    </g>
</svg>