<svg xmlns="http://www.w3.org/2000/svg" width="110" height="26" fill="none">
    <path fill="#171717" d="M12.84 25.22c-.173 0-1.282-.086-1.91-.203-2.742-.516-5.066-1.812-6.895-3.918-2.59-2.977-3.536-6.449-2.857-10.328.501-2.874 1.92-5.26 4.153-7.136C7.44 1.858 9.887.917 12.642.789c0 0 .261-.014.512-.014.276 0 .498.01.498.01 2.893.132 5.436 1.144 7.6 3.066 2.208 1.96 3.55 4.42 3.981 7.348.873 5.89-2.581 11.521-8.194 13.404-1.155.39-2.345.602-3.567.62-.286.003-.441.003-.632-.004m.918-1.353c5.46-.223 10.476-4.916 10.275-11.234-.209-6.386-5.87-11.313-12.37-10.424-5.961.817-10.408 6.516-9.154 12.915.597 3.059 2.275 5.42 4.885 7.104 1.571 1.013 3.306 1.543 5.17 1.646v-8.643l-.162.155-3.91 3.915c-.067.067-.13.138-.205.195a.59.59 0 0 1-.692.024c-.208-.141-.314-.389-.23-.633a.9.9 0 0 1 .223-.347 2170 2170 0 0 1 4.93-4.945c.085-.085.16-.173.248-.251a.58.58 0 0 1 .957.276c.039.145.028.3.028.453v9.592c.007.06.007.124.007.202M109.657 16.646c-.043.266-.067.535-.127.797-.318 1.433-1.258 2.269-2.61 2.704-.682.22-1.388.308-2.102.336-.975.04-1.939-.024-2.875-.329-1.074-.35-1.935-.956-2.398-2.032a3.9 3.9 0 0 1-.269-2.042c.046-.375.251-.545.633-.545.406 0 .812-.004 1.218 0 .389.004.604.226.622.616.01.223.025.446.063.665.11.602.467 1.002 1.032 1.218.59.223 1.204.251 1.826.237.519-.01 1.031-.07 1.518-.276 1-.421 1.367-1.76.707-2.595-.223-.283-.526-.477-.848-.619-.72-.319-1.448-.616-2.172-.93-.823-.362-1.66-.695-2.458-1.105-.823-.425-1.477-1.059-1.734-1.979-.378-1.341-.283-2.633.611-3.77.519-.658 1.236-1.026 2.038-1.22 1.582-.386 3.15-.355 4.683.226.964.365 1.72.987 2.119 1.975.244.605.304 1.232.205 1.876-.057.386-.247.538-.636.538h-1.183c-.381-.004-.572-.191-.586-.573-.007-.213.014-.429-.018-.634-.085-.527-.42-.867-.883-1.094a3.2 3.2 0 0 0-1.173-.3c-.568-.047-1.14-.054-1.702.08-.904.22-1.289.755-1.222 1.682.028.414.187.768.53.995.374.248.77.478 1.183.658 1.024.453 2.066.878 3.101 1.313.597.255 1.169.549 1.674.97.756.63 1.123 1.448 1.197 2.414q.013.112.036.223zM38.863 12.52c.19.095.392.18.576.286a3.14 3.14 0 0 1 1.519 1.915c.254.864.264 1.734.053 2.601-.294 1.204-1.085 1.965-2.212 2.407-.9.35-1.84.485-2.797.496-1.406.018-2.815.01-4.22.014-.42 0-.611-.195-.611-.62V6.383c0-.425.19-.62.61-.62 1.28 0 2.554-.007 3.833.004 1.024.01 2.03.12 2.977.548 1.183.538 1.823 1.462 1.946 2.754a4.6 4.6 0 0 1-.06 1.356c-.166.835-.636 1.455-1.345 1.908l-.269.17q.006.001 0 .017m-5.234 1.305v4.184q.062.008.113.01c.678 0 1.352.015 2.027-.003.611-.014 1.222-.063 1.805-.272.558-.202.978-.552 1.067-1.158.06-.4.053-.824.003-1.228-.067-.527-.388-.91-.865-1.154a3.2 3.2 0 0 0-1.321-.35c-.922-.036-1.844-.036-2.77-.046q-.018.006-.06.017m-.004-2.145c.043.004.07.011.096.011.628 0 1.257.01 1.89-.004.529-.01 1.055-.067 1.553-.276.526-.22.848-.605.922-1.175.032-.255.028-.517.014-.775-.035-.577-.604-1.069-.862-1.203a1.9 1.9 0 0 0-.78-.206c-.922-.05-1.844-.067-2.766-.092-.02 0-.042.014-.067.022zM51.469 13.985c.098.166.194.322.286.478l2.966 4.934c.011.014.018.032.029.046.247.428.05.789-.442.796-.395.004-.756.01-1.183.007-.632.01-.876-.177-1.155-.655-.985-1.71-2.017-3.39-3.023-5.086-.071-.117-.145-.16-.28-.16-.6.008-1.2.004-1.8.004-.057 0-.114.004-.191.007v5.242c0 .443-.191.634-.636.637h-1.2q-.615.002-.616-.601V6.364c0-.4.202-.602.597-.602 1.403-.003 2.801-.01 4.203.004 1.025.01 2.031.134 2.974.57 1.162.538 1.83 1.447 2.02 2.707.128.84.085 1.671-.176 2.482-.36 1.111-1.088 1.893-2.154 2.364-.068.028-.135.06-.22.096m-4.783-1.735c.043.004.067.007.1.007.723 0 1.447.007 2.171-.003.505-.007 1.01-.071 1.49-.248.64-.234 1.053-.676 1.138-1.36.05-.417.042-.849.004-1.266-.053-.52-.336-.91-.823-1.13a2.5 2.5 0 0 0-.498-.173c-1.18-.24-2.377-.13-3.575-.127-.007 1.433-.007 2.856-.007 4.3M68.468 15.846c-.022 1.027-.308 1.915-.89 2.733-.604.85-1.442 1.366-2.427 1.628-1.49.4-2.991.407-4.475-.025-1.776-.516-2.804-1.734-3.14-3.543-.088-.47-.12-.959-.127-1.44-.014-1.522-.01-3.044-.003-4.566.003-.85.137-1.678.483-2.46.51-1.14 1.374-1.908 2.55-2.287 1.689-.541 3.398-.552 5.08.021 1.557.531 2.475 1.667 2.807 3.264.113.538.152 1.097.173 1.646 0 1.394-.01 4.003-.031 5.03m-2.423-2.835c-.004 0 .003 0 0 0 0-.69.007-1.38.003-2.07a8 8 0 0 0-.053-.846c-.148-1.193-.844-1.972-2.013-2.234a4.7 4.7 0 0 0-2.169.021 2.47 2.47 0 0 0-1.13.588c-.583.542-.809 1.242-.823 2.003-.028 1.558-.014 3.115-.01 4.67q0 .372.042.739c.134 1.196.84 1.993 2.01 2.258a4.7 4.7 0 0 0 2.03.014c.968-.198 1.657-.743 1.943-1.716.096-.326.152-.67.16-1.01.024-.803.01-1.61.01-2.417M82.807 15.811c-.053 1.2-.403 2.308-1.25 3.207-.629.662-1.41 1.055-2.289 1.253-1.459.333-2.92.333-4.358-.113-1.727-.538-2.716-1.753-3.038-3.515a8 8 0 0 1-.123-1.405c-.014-1.55-.01-3.105-.004-4.655.004-.803.134-1.586.449-2.329.501-1.182 1.38-1.971 2.589-2.364a7.96 7.96 0 0 1 4.93-.025c1.703.534 2.67 1.756 2.988 3.497.085.457.113.924.124 1.387.021.754.003 1.512.003 2.266 0 0-.02 2.516-.02 2.796m-2.426-2.807c-.004 0 .003 0 0 0 0-.75.01-1.497 0-2.247a5 5 0 0 0-.074-.843c-.191-1.023-.767-1.72-1.78-2.003a4.56 4.56 0 0 0-2.476 0c-.844.233-1.43.764-1.675 1.614a4.3 4.3 0 0 0-.176 1.147c-.021 1.508-.01 3.019-.007 4.53 0 .234.01.475.042.705.156 1.086.703 1.861 1.787 2.18.753.22 1.523.22 2.289.06.523-.11.989-.333 1.36-.732.487-.524.678-1.172.7-1.862.027-.85.01-1.7.01-2.549M88.74 12.066c.414-.456.796-.874 1.17-1.292q2.153-2.4 4.305-4.803c.145-.16.318-.209.523-.209.558 0 1.12.004 1.678 0 .236 0 .455.036.561.28s-.014.428-.173.602q-1.642 1.779-3.285 3.553L92.227 11.6c-.04.042-.078.088-.124.138l1.201 1.791 3.942 5.89c.02.035.046.07.063.106.18.361-.01.7-.41.708a58 58 0 0 1-1.765 0c-.262 0-.431-.152-.57-.361l-3.92-5.904-.243-.365-.922.999c-.208.226-.42.445-.618.68a.45.45 0 0 0-.103.261c-.007 1.32-.003 2.644-.003 3.964q.001.098-.004.195c-.02.326-.219.524-.544.53q-.68.012-1.36 0c-.338-.006-.536-.211-.536-.548V6.303c0-.325.194-.537.519-.544q.698-.015 1.395 0c.315.007.512.212.526.53.011.259.004.521.004.78-.004 1.582-.004 3.16-.007 4.742-.007.071-.007.135-.007.255"/>
    <path fill="#171717" d="m13.144 10.764-.17.166c-1.54 1.543-3.037 3.097-4.574 4.64-.17.17-.36.262-.6.21a.586.586 0 0 1-.332-.935c.039-.05.088-.096.134-.142L12.73 9.56c.258-.258.611-.265.862-.014q2.607 2.616 5.213 5.232c.17.17.23.368.166.598a.56.56 0 0 1-.441.41c-.233.053-.42-.039-.587-.205-1.14-1.15-2.288-2.294-3.433-3.44-.444-.453-.886-.896-1.366-1.377M18.993 11.38a.58.58 0 0 1-.3.506.57.57 0 0 1-.59-.01.6.6 0 0 1-.149-.125c-1.724-1.724-3.443-3.45-5.167-5.175-.353-.357-.23-.899.233-1.023a.57.57 0 0 1 .487.089 1 1 0 0 1 .145.127c1.7 1.7 3.394 3.402 5.093 5.1.138.142.251.295.247.51M7.923 11.957a.56.56 0 0 1-.515-.312.57.57 0 0 1 .032-.602c.031-.05.074-.092.113-.134l3.443-3.451c.269-.27.64-.28.88-.032.226.233.219.594-.021.842-.304.312-.615.62-.922.928L8.4 11.733c-.13.135-.279.23-.477.223"/>
    <path fill="#171717" d="M18.374 19.662c-.13-.07-.282-.117-.385-.216a451 451 0 0 1-3.182-3.185.594.594 0 0 1-.007-.829c.226-.23.6-.233.84.004q1.594 1.592 3.183 3.189c.18.18.226.428.124.651-.113.227-.297.34-.573.386"/>
</svg>