<svg  height="48" viewBox="0 0 146 14">
    <g clip-path="url(#a)">
        <path fill="currentColor" fill-rule="evenodd" d="M140.708 1.03c-1.842.476-2.874 1.677-2.874 3.347 0 1.64.683 2.387 3.345 3.663 1.776.851 2.114 1.166 1.95 1.82-.115.457-.719.748-1.553.748-.523 0-.901-.114-1.625-.489-1.098-.568-1.447-.53-1.945.21-.437.647-.39 1.028.196 1.61 1.312 1.306 4.221 1.559 6.032.524 1.578-.9 2.187-2.902 1.367-4.495-.466-.907-1.286-1.516-3.093-2.3-1.386-.601-1.867-.969-1.867-1.427 0-.874 1.443-1.14 2.787-.515.393.183.892.333 1.109.333.515 0 1.005-.498 1.127-1.145.086-.462.054-.543-.371-.933-.952-.871-3.139-1.325-4.585-.952M1.834 1.111c-.446.18-.635.5-.536.907.21.863 3.605 10.024 3.835 10.35.329.467 1.035.69 1.943.615 1.216-.101 1.25-.16 3.315-5.784 1.947-5.304 2.042-5.716 1.405-6.05-.457-.241-1.66-.144-1.996.161-.166.15-.747 1.694-1.558 4.133C7.531 7.586 6.917 9.393 6.88 9.46c-.039.066-.653-1.605-1.366-3.716-.713-2.11-1.374-3.981-1.469-4.158-.278-.52-1.467-.775-2.21-.474m29.944-.04a9 9 0 0 0-.823.259c-.973.352-.981.4-.981 5.916 0 3.247.048 4.925.148 5.144.311.683 1.572.854 2.216.3.367-.315.376-.357.42-1.938l.045-1.615h.518c.512 0 .53.017 1.626 1.629.61.895 1.269 1.746 1.466 1.89.718.524 2.396.41 2.581-.175.12-.374-.095-.77-1.333-2.463-1.05-1.437-1.14-1.605-.917-1.724.53-.285 1.355-1.289 1.565-1.904.244-.717.287-2.03.088-2.723-.33-1.152-1.431-2.1-2.873-2.476-.739-.193-3.06-.266-3.746-.12m13.432.147c-.324.162-.514.377-.618.701-.133.414-.704 8.03-.74 9.856-.007.385.061.79.152.899.213.257.95.392 1.542.28.835-.156.874-.317 1.083-4.507.103-2.072.203-3.784.222-3.802.019-.02.45 1.15.956 2.596 1.154 3.294 1.354 3.73 1.825 3.973.78.403 1.84.187 2.232-.457.13-.216.687-1.663 1.236-3.216q.997-2.826 1.087-2.586c.05.131.156 1.787.237 3.68s.213 3.586.294 3.761.292.387.47.468c.732.333 1.942.045 2.084-.496.069-.264-.503-9.382-.637-10.148a2 2 0 0 0-.386-.794c-.265-.308-.434-.368-1.163-.409-.962-.054-1.59.188-2.024.78-.14.191-.75 1.685-1.357 3.32l-1.103 2.974-.217-.58-1.108-2.986c-.49-1.323-1.003-2.564-1.14-2.758-.512-.722-2.016-1.004-2.927-.55m21.312-.027a1.8 1.8 0 0 0-.636.587c-.455.77-3.85 10.309-3.765 10.578.149.467.668.697 1.414.625.869-.083 1.2-.419 1.587-1.609l.294-.905 2.148.036 2.148.037.315.934c.437 1.297.643 1.472 1.73 1.472.76 0 .91-.042 1.131-.315.178-.219.229-.421.169-.668-.14-.574-3.482-9.714-3.721-10.176a1.5 1.5 0 0 0-.674-.614c-.589-.246-1.623-.237-2.14.018m27.383-.02c-.234.106-.516.332-.628.504-.277.422-3.826 10.178-3.826 10.516 0 .579.687.908 1.631.781.721-.096.975-.378 1.353-1.498l.315-.934 2.148-.037 2.147-.036.229.705c.529 1.634.901 1.947 2.15 1.806.722-.082.987-.288.987-.772 0-.205-.817-2.618-1.815-5.363-2.103-5.781-2.087-5.754-3.428-5.821-.527-.027-.996.029-1.263.15m12.875-.003c-.357.1-.808.341-1.003.536l-.354.355-.04 4.966c-.027 3.432.006 5.078.109 5.326.362.873 2.13.9 2.522.04.082-.18.149-.985.149-1.79V9.138h.529c.527 0 .534.007 1.637 1.629.61.895 1.269 1.746 1.466 1.89.718.524 2.396.41 2.582-.175.117-.37-.091-.763-1.309-2.459l-1.14-1.587.554-.422c.304-.233.732-.711.95-1.064.343-.556.404-.801.454-1.832.051-1.083.024-1.257-.301-1.921-.412-.842-1.11-1.45-2.118-1.847-.897-.353-3.69-.46-4.687-.18m13.813.041c-.322.167-.514.388-.616.71-.188.595-.799 9.973-.68 10.442.115.453.724.71 1.452.612 1.062-.142 1.059-.13 1.264-4.326.1-2.046.197-3.804.216-3.905.019-.102.51 1.161 1.092 2.806s1.141 3.121 1.243 3.28c.424.658 1.886.767 2.504.186.208-.195.654-1.272 1.348-3.256.571-1.63 1.077-3.01 1.125-3.066.048-.055.161 1.6.251 3.676.142 3.274.196 3.82.407 4.11.47.646 1.954.7 2.356.085.178-.271.164-.833-.132-5.173-.182-2.678-.363-5.055-.402-5.282-.12-.693-.618-1.038-1.575-1.092-.936-.053-1.572.195-1.997.776-.137.187-.693 1.54-1.234 3.007a829 829 0 0 1-1.106 2.982c-.1.264-.285-.139-1.162-2.54-1.127-3.083-1.364-3.572-1.905-3.927-.532-.348-1.87-.405-2.449-.105M17.841 1.208c-.093.037-.259.24-.367.45-.164.318-.198 1.226-.198 5.341 0 5.206.04 5.58.608 5.798.119.046 1.611.083 3.316.083 3.413 0 3.594-.038 3.761-.802.126-.573-.157-1.327-.556-1.478-.181-.07-1.258-.126-2.393-.126H19.95V8.068h1.72c1.537 0 1.757-.029 2.072-.277.484-.38.508-1.4.042-1.838-.285-.268-.446-.29-2.071-.29h-1.763V3.524h2.145c2.099 0 2.151-.007 2.473-.328.422-.423.446-1.223.05-1.726l-.276-.352-3.165.01c-1.74.007-3.241.042-3.335.08m61.245.238-.328.328v5.332c0 5.125.01 5.34.262 5.569.335.303 1.357.42 1.857.213.562-.232.688-.65.688-2.273v-1.45l1.667-.047c1.523-.043 1.693-.074 1.972-.352.236-.236.304-.455.304-.98 0-1.065-.237-1.188-2.287-1.188h-1.656V3.524h1.938c2.311 0 2.473-.079 2.473-1.203 0-.49-.072-.74-.268-.935-.251-.252-.445-.268-3.28-.268h-3.014zm-46.44 3.682v1.737h.76c1.72 0 2.787-1.263 2.144-2.535-.318-.629-.976-.94-1.987-.94h-.916zm75.383 0v1.737h.76c1.718 0 2.787-1.263 2.143-2.535-.318-.629-.975-.94-1.987-.94h-.916zm-41.151.78a217 217 0 0 1-.646 1.993c-.045.127.27.167 1.302.167s1.347-.04 1.3-.167c-.033-.092-.318-.949-.632-1.904-.314-.956-.608-1.778-.654-1.827-.046-.05-.348.733-.67 1.737m27.335.07c-.34 1.061-.619 1.966-.619 2.01s.597.08 1.327.08h1.327l-.656-1.957c-.36-1.076-.679-1.98-.708-2.01s-.331.816-.671 1.877" clip-rule="evenodd"/>
    </g>
    <defs>
        <clipPath id="a">
            <path fill="#fff" d="M.377.25h145.588V13.75H.377z"/>
        </clipPath>
    </defs>
</svg>