<svg  viewBox="0 0 138 26">
    <path fill="#171717" d="M.942 21.13c-.531 0-.814-.16-.814-.444s.178-.455.543-.455c.392.033.786-.051 1.13-.243.43-.314.689-.849.765-1.62q.025-.269.057-.815c.02-.363.047-.795.075-1.284.029-.488.06-1.029.085-1.63.024-.6.051-1.198.082-1.826q.045-.939.082-1.883.038-.946.065-1.801c.042-1.414.065-2.32.065-2.696q.013-.444-.086-.879a1.5 1.5 0 0 0-.233-.526 1.36 1.36 0 0 0-.899-.466Q.764 4.407.765 4.089a.43.43 0 0 1 .157-.342.62.62 0 0 1 .415-.136l2.003.177 1.128-.05a.63.63 0 0 1 .512.259q.264.367.46.775l6.173 12.81q.218-.5.565-1.314.348-.813.784-1.805.426-.996.913-2.106l.957-2.21.904-2.109q.436-1.011.771-1.795c.22-.524.407-.95.543-1.285s.245-.565.302-.709a.9.9 0 0 1 .324-.39.95.95 0 0 1 .566-.179l1.2.05 1.53-.112q.952-.001.95.473c0 .152-.136.256-.421.31l-.715.147a2.3 2.3 0 0 0-.542.193 1.11 1.11 0 0 0-.586 1.06l.652 12.506q.102 1.645 1.237 1.863.31.051.624.051c.367 0 .542.152.542.455s-.27.453-.801.453a4 4 0 0 1-.543-.032l-.46-.058a8.4 8.4 0 0 0-1.251-.102l-2.713.193c-.565 0-.828-.158-.828-.471q-.002-.396.6-.397c.293.014.587-.019.871-.096a.75.75 0 0 0 .407-.3c.12-.203.178-.688.178-1.445v-1.2q0-.867-.126-3.53l-.18-3.793q-.103-2.4-.19-3.64L11.643 20.11q-.33.751-.6.752a.35.35 0 0 1-.298-.187 6 6 0 0 1-.325-.594L4.246 7.365q-.488 6.503-.486 11.895 0 1.044 1.694 1.046.458.001.459.37c0 .314-.284.473-.828.473l-2.068-.193a8 8 0 0 0-1.22.097 5.4 5.4 0 0 1-.855.077M30.445 4.461l-.616-.051q-.776 0-1.058.848-.24.757-.24 2.608v6.315a9 9 0 0 0 .254 2.545c.162.507.403.985.715 1.416a4.78 4.78 0 0 0 3.953 1.98 7.8 7.8 0 0 0 2.615-.379 3.7 3.7 0 0 0 1.648-1.13q1.128-1.379 1.128-4.497l-.03-6.247q-.001-1.88-.181-2.461a1.7 1.7 0 0 0-.426-.792.96.96 0 0 0-.645-.21l-.623.053q-.462-.001-.462-.371 0-.474.702-.473.614-.006 1.22.102.543.104 1.096.102l2.106-.204q.814-.001.814.473 0 .37-.461.37l-.597-.048c-.517 0-.847.282-1.03.848-.148.495-.219 1.358-.219 2.608l-.024 6.897q0 2.852-1.814 4.661-1.813 1.809-4.858 1.827-3.3 0-5.215-1.827-1.956-1.89-1.952-5.249V7.871q0-1.851-.193-2.444a1.74 1.74 0 0 0-.446-.807 1 1 0 0 0-.659-.21l-.624.051q-.459-.001-.46-.37 0-.474.708-.473.696 0 1.384.102.703.103 1.413.102.724.002 1.44-.102.69-.102 1.389-.102.698-.001.697.473c.02.245-.144.37-.449.37M44.467 21.13c-.564 0-.83-.158-.83-.471q.002-.37.461-.371l.624.062c.511 0 .846-.283 1.033-.848q.214-.73.217-2.608V7.871q0-1.878-.177-2.46a1.7 1.7 0 0 0-.429-.792.95.95 0 0 0-.644-.21l-.624.052q-.46-.001-.461-.37 0-.474.704-.473.614-.006 1.22.102.512.1 1.034.102 1.126.013 2.246-.128a22 22 0 0 1 3.108-.192c1.193.005 2.376.216 3.496.625a8.7 8.7 0 0 1 2.99 1.777q2.666 2.444 2.667 6.41a8.33 8.33 0 0 1-2.616 6.272q-2.723 2.605-7.094 2.608-1.058 0-2.056-.09-1.85-.167-2.678-.167zm3.508-6.08q0 2.262.116 4.242a8.1 8.1 0 0 0 3.812.887 7.9 7.9 0 0 0 3.203-.729q2.634-1.166 3.429-4.131c.213-.89.308-1.802.282-2.716a9.4 9.4 0 0 0-.566-3.232 7.45 7.45 0 0 0-1.59-2.636q-2.074-2.208-5.596-2.213-2.518 0-2.883.666c-.132.251-.202.53-.204.815 0 .302-.015.597-.015.888zM66.357 1.03a2 2 0 0 1-.116-.446q0-.102.198-.102c.261 0 .521.04.771.116q.396.138.471.32l9.134 24.051q.086.217.115.447-.001.102-.19.102-.195 0-.389-.025a2 2 0 0 1-.378-.09c-.282-.086-.431-.194-.483-.32zm35.869 2.588q.802 0 .802.452 0 .453-.533.454a1.4 1.4 0 0 0-.971.282 4.5 4.5 0 0 0-.931 1.63l-5.472 14.387q-.319.791-.613.792-.37 0-.689-.907l-3.01-8.878-3.748 8.993c-.215.527-.407.792-.565.792q-.33 0-.69-.907L79.874 6.492a6.8 6.8 0 0 0-.79-1.508 1.3 1.3 0 0 0-1.01-.46q-.583 0-.582-.46a.37.37 0 0 1 .212-.317c.171-.1.367-.147.565-.136q.294-.005.587.031.229.031.46.071.634.102 1.274.102l2.208-.204c.566 0 .828.144.828.433a.44.44 0 0 1-.136.32.68.68 0 0 1-.48.135 3 3 0 0 0-.564.046.9.9 0 0 0-.365.136.48.48 0 0 0-.204.436c.055.647.229 1.279.512 1.863l4.628 11.126 3.269-7.918-1.229-3.566c-.283-.826-.542-1.351-.805-1.584a1.97 1.97 0 0 0-1.263-.517c-.457 0-.689-.167-.689-.464a.39.39 0 0 1 .2-.31c.17-.1.367-.147.565-.136q.293-.005.585.031.228.031.471.071a8 8 0 0 0 1.266.102l2.829-.197c.564 0 .83.136.83.42 0 .286-.232.423-.69.423q-1.323 0-1.327.829c.055.762.226 1.512.509 2.223l3.587 10.485L99.057 7.03c.194-.485.317-.996.362-1.517q0-1.045-1.581-1.045-.543 0-.543-.423c0-.28.282-.42.827-.42q.469.005.927.101a6.6 6.6 0 0 0 1.268.102zm6.29 17.512c-.565 0-.831-.158-.831-.471q0-.37.461-.371l.624.062c.511 0 .848-.283 1.02-.848q.231-.73.23-2.608V4.944h-.344a11 11 0 0 0-3.557.47 2 2 0 0 0-1.252 1.13c-.162.39-.334.589-.511.589q-.37-.002-.371-.436.009-.146.057-.283.06-.167.136-.396c.137-.413.218-.843.243-1.277-.001-.301.048-.6.146-.885a.33.33 0 0 1 .3-.223 1.5 1.5 0 0 1 .344.031q.151.031.447.07.96.113 1.925.103h8.086q.695.012 1.378-.12a3 3 0 0 1 .618-.102c.284 0 .422.136.422.397a2 2 0 0 1-.076.483 7 7 0 0 0-.249 1.087c-.04.303-.074.543-.108.741a2.5 2.5 0 0 1-.115.452q-.1.281-.308.283a.25.25 0 0 1-.26-.147 3 3 0 0 1-.121-.566 2 2 0 0 0-.224-.697 1.1 1.1 0 0 0-.406-.42 2.8 2.8 0 0 0-1.454-.283h-2.737v11.942q0 1.931.172 2.486c.068.288.213.553.421.766a.97.97 0 0 0 .655.21l.613-.062q.46 0 .461.37c0 .314-.282.472-.814.472a5.7 5.7 0 0 1-.895-.076 8.8 8.8 0 0 0-2.622-.082q-.747.123-1.504.159m11.962 0c-.564 0-.827-.158-.827-.471q0-.37.458-.371l.627.062c.508 0 .847-.283 1.031-.848.146-.486.217-1.358.217-2.608V7.871q0-1.878-.178-2.46a1.7 1.7 0 0 0-.426-.792.96.96 0 0 0-.644-.21l-.627.052q-.458-.001-.458-.37 0-.474.701-.473.67-.002 1.333.102a8.6 8.6 0 0 0 2.641 0 10.4 10.4 0 0 1 1.627-.102 8 8 0 0 1 2.116.316 5.8 5.8 0 0 1 1.92.914 3.82 3.82 0 0 1 1.621 3.219q-.007 2.223-1.828 3.828a6.3 6.3 0 0 1-1.302.87l4.15 6.025q.7 1.035 1.544 1.254.304.074.613.101.649.064.65.43 0 .363-.704.362h-2.455q-.88 0-1.593-1.149l-3.209-5.15a3.7 3.7 0 0 0-.822-.964 2.1 2.1 0 0 0-1.22-.282c-.564 0-1.028 0-1.438.037v3.458c0 1.287.06 2.115.172 2.486.069.288.215.553.421.766a.98.98 0 0 0 .659.21l.612-.062q.458 0 .458.37c0 .314-.282.472-.814.472a5.6 5.6 0 0 1-.892-.076 8.8 8.8 0 0 0-2.622-.082q-.75.126-1.512.159m3.509-8.827a15 15 0 0 0 1.595.09h.809a2.85 2.85 0 0 0 2.09-.848c.663-.653.997-1.55.997-2.68 0-1.359-.415-2.445-1.237-3.233a4.12 4.12 0 0 0-2.984-1.131 1.96 1.96 0 0 0-.957.178.64.64 0 0 0-.308.613l-.005 7.01zm13.389-6.584a2.036 2.036 0 0 1-2.375 2.073 2.035 2.035 0 0 1-1.555-2.745 2.04 2.04 0 0 1 1.857-1.3h.057a1.974 1.974 0 0 1 2.016 1.927zm-3.553 0a1.534 1.534 0 0 0 1.492 1.58h.054a1.58 1.58 0 0 0 1.513-1.579 1.58 1.58 0 0 0-1.513-1.58 1.53 1.53 0 0 0-1.429.937c-.079.186-.12.385-.122.587v.055zm1.221 1.039h-.457v-1.98a4 4 0 0 1 .759-.063 1.24 1.24 0 0 1 .686.147.54.54 0 0 1 .193.433.51.51 0 0 1-.407.458v.031a.58.58 0 0 1 .361.48q.03.26.145.496h-.495a1.8 1.8 0 0 1-.157-.484c-.034-.215-.156-.314-.407-.314h-.219zm0-1.132h.218c.251 0 .457-.085.457-.283 0-.199-.135-.302-.42-.302a1.2 1.2 0 0 0-.255.025z"/>
</svg>