<svg xmlns="http://www.w3.org/2000/svg" width="220" height="48" fill="none" >
    <path fill="#171717" d="m70.527 44.1 2.73-6.34c2.95 2.202 6.868 3.346 10.743 3.346 2.862 0 4.667-1.1 4.667-2.773-.044-4.667-17.127-1.013-17.26-12.723-.044-5.944 5.24-10.522 12.725-10.522 4.447 0 8.894 1.1 12.064 3.61l-2.553 6.471C90.737 23.32 87.126 22 83.692 22c-2.334 0-3.875 1.101-3.875 2.51.044 4.579 17.26 2.07 17.436 13.252 0 6.075-5.151 10.345-12.548 10.345-5.416 0-10.391-1.276-14.178-4.006M175.275 35.471c-1.365 2.378-3.919 4.007-6.869 4.007a7.873 7.873 0 0 1-7.881-7.88 7.873 7.873 0 0 1 7.881-7.881c2.95 0 5.504 1.629 6.869 4.006l7.529-4.182c-2.818-5.02-8.234-8.453-14.398-8.453-9.114 0-16.511 7.396-16.511 16.51 0 9.112 7.397 16.508 16.511 16.508 6.208 0 11.58-3.39 14.398-8.452zM110.462 1.396h-9.422V47.49h9.422zM186.502 1.396V47.49h9.423V33.666l11.184 13.824h12.064L204.951 31.07l13.165-15.32H206.58L195.925 28.47V1.396zM138.465 35.56c-1.364 2.245-4.182 3.918-7.353 3.918a7.873 7.873 0 0 1-7.881-7.88 7.873 7.873 0 0 1 7.881-7.881c3.171 0 5.989 1.76 7.353 4.05zm0-19.812v3.742c-1.541-2.597-5.371-4.402-9.378-4.402-8.278 0-14.794 7.308-14.794 16.465s6.516 16.553 14.794 16.553c4.007 0 7.837-1.805 9.378-4.402v3.742h9.423V15.748zM12.275 35.516a5.806 5.806 0 0 1-5.812 5.811 5.806 5.806 0 0 1-5.812-5.811 5.806 5.806 0 0 1 5.812-5.812h5.812zM15.181 35.516a5.806 5.806 0 0 1 5.812-5.812 5.806 5.806 0 0 1 5.812 5.812v14.528a5.806 5.806 0 0 1-5.812 5.811 5.806 5.806 0 0 1-5.812-5.811zM20.993 12.182a5.806 5.806 0 0 1-5.812-5.811A5.806 5.806 0 0 1 20.993.56a5.806 5.806 0 0 1 5.812 5.81v5.812zM20.993 15.132a5.806 5.806 0 0 1 5.812 5.811 5.806 5.806 0 0 1-5.812 5.811H6.419a5.806 5.806 0 0 1-5.812-5.81 5.806 5.806 0 0 1 5.812-5.812zM44.285 20.943a5.806 5.806 0 0 1 5.812-5.811 5.806 5.806 0 0 1 5.812 5.811 5.806 5.806 0 0 1-5.812 5.811h-5.812zM41.379 20.943a5.806 5.806 0 0 1-5.812 5.811 5.806 5.806 0 0 1-5.812-5.81V6.37A5.806 5.806 0 0 1 35.567.56a5.806 5.806 0 0 1 5.812 5.81zM35.567 44.233a5.806 5.806 0 0 1 5.812 5.811 5.806 5.806 0 0 1-5.812 5.811 5.806 5.806 0 0 1-5.812-5.811v-5.811zM35.567 41.327a5.806 5.806 0 0 1-5.812-5.811 5.806 5.806 0 0 1 5.812-5.812h14.574a5.806 5.806 0 0 1 5.812 5.812 5.806 5.806 0 0 1-5.812 5.811z"/>
</svg>