<svg xmlns="http://www.w3.org/2000/svg" width="141" height="48" fill="none" viewBox="0 0 1382 319">
    <path fill="#171717" d="M121.2 318q-36 0-63.4-14-27.2-14-42.6-39Q0 240 0 207t15.2-58q15.4-25 42.6-38.8 27.4-14 63.4-14t63.2 14Q211.8 124 227 149q15.4 25 15.4 58T227 265q-15.2 25-42.6 39-27.2 14-63.2 14m0-61q12.4 0 21.2-6.2t13.4-17.4q4.8-11.2 4.8-26.4t-4.8-26.2q-4.6-11.2-13.4-17.2-8.8-6.2-21.2-6.2-12.2 0-21.2 6.2-8.8 6-13.6 17.2-4.6 11-4.6 26.2t4.6 26.4q4.8 11.2 13.6 17.4 9 6.2 21.2 6.2m183.747 60.2q-22.4 0-36.8-7-14.2-7-22.2-19.2t-11.2-27.6q-3.2-15.6-3.2-32.6V100.6h80.6V209q0 11.4 1.8 21 2 9.4 8 15.2 6 5.6 18 5.6t19.8-6.4q7.8-6.6 11.6-17 4-10.6 4-22.4l15.6 18q0 21.8-6 39.2-5.8 17.4-17 29.8-11 12.2-27 18.8-15.8 6.4-36 6.4m70.4-4.2V100.6h80.6V313zm196.7 5.2q-13.8 0-29.2-2.2-15.2-2-28.6-8.6t-21.8-19.8q-8.4-13.4-8.4-35.8v-91.2h-47.4v-60h1q15.6 0 24.8-1.4 9.4-1.4 14-6.8t6-17q1.6-11.6 1.6-32V31h80.8v69.6h58.6v60h-58.6V231q0 11.6 2.8 19.6t15 8q7.2 0 13.6-1.4t9.6-2.8v58.2q-4.6 2-13.4 3.8-8.6 1.8-20.4 1.8m44.734-5.2V.4h76.4V171l-13.8-7.6 67.2-62.8h97.4l-107.4 97 16-27.8 87.8 143.2h-84.2l-56.6-101.4 21.6-.6-35.4 33 7.4-33.8V313zm262.632 4.8q-22.8 0-40.8-7.2-18-7.4-28.4-21.2-10.4-14-10.4-34 0-23.6 13.4-38 13.6-14.4 34.6-21.8 21.2-7.4 43.799-9.4 32.2-3 43.401-5.2 11.2-2.2 11.2-7.8v-.2q0-7.4-9-12.6-8.8-5.4-23.6-5.4-16 0-23.801 6-7.799 5.8-7.799 17h-79.4q0-26.8 15-45t40.2-27.4q25.4-9.4 56.4-9.4 29.4 0 55 8.8c17.2 5.867 31.137 14.867 41.797 27 10.67 12 16 27.4 16 46.2v82.6c0 5.867.14 11.533.4 17q.405 8.2 2.4 15.2c1.47 4.933 3.4 9.2 5.8 12.8 2.4 3.467 4.34 5.867 5.8 7.2h-78.797q-1.8-1.8-5.2-6.6t-5.6-11q-3-9-4.4-16.8-1.2-8-1.2-19.4l17.6 12.2q-5.4 14.6-18.4 25-12.8 10.4-30.2 16-17.2 5.4-35.8 5.4m24-57.2q10.4 0 20.4-4.6 10.2-4.6 17-15.2 6.8-10.8 6.8-29.2V204l20.6 16.6q-13.2 4.6-29.4 7.8-16.2 3-31 4.6-13.8 1.4-20.6 4.6-6.6 3-6.6 9.8t6 10 16.8 3.2m214.647 57.6q-18.795 0-37.2-4.6-18.39-4.4-33.6-13.4c-10-6.133-18.06-13.8-24.2-23q-9-13.8-9-32.4v-2h79.8v2q0 8.4 7.2 11.8c4.8 2.267 11.27 3.4 19.4 3.4q4.41 0 10.2-1c3.87-.8 7.2-2.067 10-3.8 2.94-1.867 4.4-4.267 4.4-7.2 0-4.4-3.06-7.467-9.2-9.2-6-1.867-16.53-4-31.6-6.4q-13.59-2.2-28.8-6.4c-10.13-2.933-19.66-6.867-28.6-11.8-8.93-5.067-16.2-11.467-21.8-19.2q-8.4-11.6-8.4-28.6c0-15.467 4.67-28.4 14-38.8 9.47-10.4 21.94-18.2 37.4-23.4q23.4-8 51-8 26.205 0 49.2 9c15.34 5.867 27.8 14.267 37.4 25.2q14.4 16.4 14.4 38.8v2h-79v-2q0-5.6-3.6-8.8c-2.26-2.267-5.13-3.933-8.6-5-3.46-1.067-6.93-1.6-10.4-1.6q-3.99 0-9.6 1c-3.6.533-6.73 1.6-9.4 3.2-2.66 1.6-4 3.933-4 7 0 2.667 1.67 4.933 5 6.8 3.47 1.867 8.14 3.467 14 4.8 6 1.2 12.67 2.333 20 3.4q11.4 1.6 26.4 5.2c10 2.4 19.74 6 29.2 10.8q14.205 7 23.4 19.2c6.27 8 9.4 18.267 9.4 30.8 0 13.467-3.13 24.8-9.4 34-6.13 9.2-14.4 16.6-24.8 22.2-10.26 5.6-21.53 9.667-33.8 12.2-12.26 2.533-24.53 3.8-36.8 3.8m211.96 0c-9.2 0-18.94-.733-29.2-2.2-10.14-1.333-19.67-4.2-28.6-8.6-8.94-4.4-16.2-11-21.8-19.8q-8.4-13.4-8.4-35.8v-91.2h-47.4v-60h1c10.4 0 18.66-.467 24.8-1.4 6.26-.933 10.93-3.2 14-6.8q4.59-5.4 6-17c1.06-7.733 1.6-18.4 1.6-32V31h80.8v69.6h58.6v60h-58.6V231c0 7.733.93 14.267 2.8 19.6q2.79 8 15 8c4.8 0 9.33-.467 13.6-1.4q6.39-1.4 9.6-2.8v58.2c-3.07 1.333-7.54 2.6-13.4 3.8q-8.61 1.8-20.4 1.8"/>
</svg>