<svg width="72" height="48" viewBox="0 0 72 15" fill="none" xmlns="http://www.w3.org/2000/svg">
<g clip-path="url(#clip0_8233_35174)">
<path d="M36.9816 8.37361C36.9816 11.8405 39.8713 14.3773 43.5502 14.3773C47.2291 14.3773 50.1188 11.8405 50.1188 8.37361V0.400884H46.5613V7.9629C46.5613 9.83528 45.2622 11.0916 43.5381 11.0916C41.814 11.0916 40.5148 9.83528 40.5148 7.9629V0.400884H36.9573L36.9816 8.37361ZM59.6136 3.58998H63.851V14.1236H67.4085V3.58998H71.6581V0.400884H59.6136V3.58998ZM57.3188 0.400884H53.7613V14.1236H57.3188V0.400884ZM22.6059 3.58998H26.8433V14.1236H30.4008V3.58998H34.6383V0.400884H22.6059V3.58998ZM3.94422 0.400884H0.386719V14.1236H3.94422V0.400884ZM20.7361 6.12675C20.7361 2.65982 17.8342 0.123047 14.1675 0.123047C10.4886 0.123047 7.59885 2.65982 7.59885 6.12675V14.1236H11.1563V6.56163C11.1563 4.68925 12.4555 3.43294 14.1796 3.43294C15.9037 3.43294 17.2029 4.68925 17.2029 6.56163V14.1236H20.7604L20.7361 6.12675Z" fill="#171717"/>
</g>
<defs>
<clipPath id="clip0_8233_35174">
<rect width="71.2714" height="14.2543" fill="white" transform="translate(0.386719 0.123047)"/>
</clipPath>
</defs>
</svg>
