<svg width="86" height="48" viewBox="0 0 86 23" fill="none" xmlns="http://www.w3.org/2000/svg">
<g clip-path="url(#clip0_8233_35189)">
<path d="M17.8112 0.78772H3.574C1.59889 0.78772 0 2.38244 0 4.35238V18.5524C0 20.5223 1.59889 22.1171 3.574 22.1171H17.8112C19.7863 22.1171 21.3852 20.5223 21.3852 18.5524V4.35238C21.3852 2.38244 19.7863 0.78772 17.8112 0.78772ZM17.4938 17.1218C17.4938 17.7433 16.9882 18.2475 16.3651 18.2475H5.02005C4.39696 18.2475 3.89142 17.7433 3.89142 17.1218V5.79466C3.89142 5.17319 4.39696 4.66898 5.02005 4.66898H16.3769C17 4.66898 17.5055 5.17319 17.5055 5.79466V17.1218H17.4938Z" fill="#171717"/>
<path d="M8.42981 14.3428C8.06536 14.3428 7.7832 14.0497 7.7832 13.6979V9.18344C7.7832 8.81993 8.07712 8.53851 8.42981 8.53851H12.9678C13.3205 8.53851 13.6145 8.83166 13.6145 9.18344V13.6979C13.6145 14.0614 13.3205 14.3428 12.9678 14.3428H8.42981Z" fill="#171717"/>
<path d="M27.0645 14.038H29.3923C29.5098 15.363 30.4033 16.3831 32.2138 16.3831C33.8245 16.3831 34.8238 15.5858 34.8238 14.3897C34.8238 13.264 34.0479 12.7598 32.6488 12.4315L30.8383 12.0446C28.8632 11.6107 27.3936 10.356 27.3936 8.29228C27.3936 6.01746 29.4158 4.46965 32.0492 4.46965C34.8355 4.46965 36.6225 5.92366 36.7754 8.08122H34.5181C34.2477 7.07279 33.413 6.47477 32.0492 6.47477C30.6149 6.47477 29.6156 7.24868 29.6156 8.24538C29.6156 9.24208 30.4739 9.8401 31.9552 10.1684L33.7422 10.5554C35.7055 10.9775 37.0458 12.1618 37.0458 14.2373C37.0458 16.8756 35.0589 18.4469 32.2138 18.4469C29.0278 18.4469 27.2526 16.7232 27.0645 14.038Z" fill="#171717"/>
<path d="M45.3932 22.1171V18.2475L45.546 16.559H45.3932C44.8641 17.7785 43.7355 18.4469 42.2072 18.4469C39.75 18.4469 37.916 16.4535 37.916 13.3813C37.916 10.3209 39.75 8.31573 42.2072 8.31573C43.712 8.31573 44.7818 9.01929 45.3932 10.1215H45.546V8.51508H47.5682V22.1288H45.3932V22.1171ZM45.4755 13.3813C45.4755 11.4231 44.2763 10.274 42.8067 10.274C41.3372 10.274 40.138 11.4114 40.138 13.3813C40.138 15.3395 41.3372 16.4887 42.8067 16.4887C44.2763 16.4887 45.4755 15.3395 45.4755 13.3813Z" fill="#171717"/>
<path d="M49.1895 14.3897V8.51508H51.3644V14.2021C51.3644 15.7382 52.1051 16.4887 53.3513 16.4887C54.8796 16.4887 55.8672 15.3982 55.8672 13.7096V8.51508H58.0421V18.2593H56.02V16.2424H55.8672C55.3852 17.5323 54.3388 18.4469 52.7164 18.4469C50.3886 18.4469 49.1895 16.9577 49.1895 14.3897Z" fill="#171717"/>
<path d="M59.3711 15.5389C59.3711 13.7096 60.6526 12.6426 62.9216 12.5136L65.6138 12.3377V11.5755C65.6138 10.6609 64.9437 10.1098 63.7681 10.1098C62.6747 10.1098 62.0281 10.6609 61.8635 11.4465H59.6885C59.9119 9.46488 61.5578 8.32747 63.7681 8.32747C66.2722 8.32747 67.8006 9.39452 67.8006 11.4465V18.2593H65.7784V16.4535H65.6256C65.1671 17.6495 64.2148 18.4469 62.3808 18.4469C60.6055 18.4469 59.3711 17.2626 59.3711 15.5389ZM65.6138 14.3311V13.8152L63.4154 13.9676C62.2279 14.038 61.6989 14.4835 61.6989 15.363C61.6989 16.1017 62.3102 16.6411 63.1685 16.6411C64.7086 16.6411 65.6138 15.6444 65.6138 14.3311Z" fill="#171717"/>
<path d="M69.4121 18.2593V8.51508H71.4342V10.3795H71.5871C71.8692 9.10137 72.845 8.51508 74.3028 8.51508H75.2904V10.4733H74.0442C72.6334 10.4733 71.5871 11.3879 71.5871 13.1233V18.2593H69.4121Z" fill="#171717"/>
<path d="M85.2476 13.78H77.8292C77.9468 15.574 79.2047 16.5825 80.592 16.5825C81.7794 16.5825 82.5201 16.1017 82.9433 15.3044H85.0948C84.507 17.286 82.767 18.4469 80.5685 18.4469C77.6881 18.4469 75.666 16.301 75.666 13.3813C75.666 10.4733 77.7469 8.31573 80.592 8.31573C83.4606 8.31573 85.3299 10.274 85.3299 12.7129C85.3182 13.1937 85.2829 13.4399 85.2476 13.78ZM83.1667 12.2791C83.0962 10.9306 81.9675 10.016 80.592 10.016C79.2988 10.016 78.2054 10.8368 77.935 12.2791H83.1667Z" fill="#171717"/>
</g>
<defs>
<clipPath id="clip0_8233_35189">
<rect width="85.3174" height="21.3293" fill="white" transform="translate(0 0.78772)"/>
</clipPath>
</defs>
</svg>
