<svg width="57" height="48" viewBox="0 0 57 21" fill="none"
    xmlns="http://www.w3.org/2000/svg">
    <mask id="mask0_813_2" style="mask-type:luminance" maskUnits="userSpaceOnUse" x="0" y="1" width="57" height="19">
        <path d="M57 1.53516H0V19.9652H57V1.53516Z" fill="white"/>
    </mask>
    <g mask="url(#mask0_813_2)">
        <path d="M37.138 1.53516C33.0961 1.53516 29.467 3.63834 29.467 7.4978C29.467 11.9427 35.8776 12.2463 35.8776 14.4579C35.8776 15.3902 34.7911 16.2358 32.9657 16.2358C30.358 16.2358 28.4022 15.065 28.4022 15.065L27.5764 18.9678C27.5764 18.9678 29.8147 19.9652 32.8136 19.9652C37.2467 19.9652 40.7236 17.7753 40.7236 13.8291C40.7236 9.14566 34.2913 8.84211 34.2913 6.78229C34.2913 6.04509 35.1822 5.24284 37.0076 5.24284C39.0721 5.24284 40.7671 6.08845 40.7671 6.08845L41.5928 2.31572C41.5711 2.31572 39.724 1.53516 37.138 1.53516ZM0.108654 1.81703L0 2.38077C0 2.38077 1.69501 2.68432 3.2379 3.31311C5.2154 4.02863 5.34579 4.44059 5.69348 5.71985L9.32253 19.6616H14.1902L21.6439 1.81703H16.7979L11.9954 13.9592L10.0396 3.66003C9.8658 2.48918 8.95311 1.81703 7.8231 1.81703H0.108654ZM23.5997 1.81703L19.7968 19.6616H24.4255L28.2066 1.81703H23.5997ZM49.3725 1.81703C48.2642 1.81703 47.6775 2.40245 47.2429 3.4432L40.4628 19.6616H45.3088L46.2432 16.9513H52.154L52.719 19.6616H57L53.284 1.81703H49.3725ZM50.0027 6.65219L51.4369 13.3521H47.5905L50.0027 6.65219Z" fill="#171717"/>
    </g>
</svg>
