<svg xmlns="http://www.w3.org/2000/svg" fill="none" width="153" height="48" viewBox="0 0 2879 394">
    <path fill="#171717" d="M.693 385V8.977h85.411v306.19h185.863V385zm289.991 0V8.977h286.852V78.81H376.095v80.039h176.731v67.684H376.095v88.634h201.978V385zm298.531 0L706.32 196.989 590.29 8.977h104.212l46.734 88.097c13.429 20.413 15.041 45.123 14.504 64.998h26.859c-.538-19.875 1.074-44.585 14.503-64.998l46.735-88.097h104.212L832.019 196.99 949.123 385H843.299l-47.271-90.245c-13.967-22.025-13.967-44.586-13.429-63.924H755.74c.537 19.338.537 41.899-13.43 63.924L695.039 385zM965.167 8.977h85.943V385h-85.943zM1090.89 385V8.977h116.03l156.85 316.934h26.86v-5.372c-31.69-59.626-47.81-107.435-47.81-158.467V8.977h82.73V385h-114.42L1150.51 61.62h-26.86v5.372c28.47 44.049 49.96 98.303 49.96 159.541V385zm536.75 8.595c-113.88 0-177.81-76.279-177.81-197.144 0-120.327 74.13-196.069 191.78-196.069 103.67 0 170.28 52.106 178.87 138.054h-92.39c-6.45-38.139-37.06-60.7-86.48-60.7-61.78 0-100.46 45.66-100.46 118.715 0 76.817 35.99 119.791 100.46 119.791 45.66 0 76.27-24.71 85.41-66.61h-85.41v-66.073h184.25V385h-70.91c2.15-22.024 12.35-47.271 31.16-70.907v-5.372h-30.09c-20.95 53.718-64.99 84.874-128.38 84.874M1953.31 385V78.81H1830.3V8.977h331.98V78.81h-123.02V385zm374.24 8.595c-117.64 0-191.77-76.279-191.77-197.144 0-120.327 74.13-196.069 191.77-196.069 118.18 0 192.31 75.742 192.31 196.069 0 120.865-74.13 197.144-192.31 197.144M2227.1 196.451c0 73.056 38.68 119.791 100.45 119.791 62.32 0 100.99-46.735 100.99-119.791s-38.67-118.715-100.99-118.715c-61.77 0-100.45 45.66-100.45 118.715M2544.09 385V8.977h116.03l156.86 316.934h26.86v-5.372c-31.7-59.626-47.81-107.435-47.81-158.467V8.977h82.72V385h-114.41L2603.72 61.62h-26.86v5.372c28.47 44.049 49.96 98.303 49.96 159.541V385z"/>
</svg>