<svg width="127" height="48" viewBox="0 0 127 48" fill="none" xmlns="http://www.w3.org/2000/svg">
<path fill-rule="evenodd" clip-rule="evenodd" d="M122.957 31.9805C123.033 32.8501 123.728 33.9569 124.934 33.9569H125.638C125.912 33.9569 126.136 33.7329 126.136 33.4594V17.9537H126.133C126.119 17.6924 125.903 17.4832 125.638 17.4832H123.454C123.19 17.4832 122.974 17.6924 122.96 17.9537H122.957V19.2136C121.618 17.5637 119.508 16.8789 117.392 16.8789C112.581 16.8789 108.682 20.7813 108.682 25.5955C108.682 30.4101 112.581 34.3126 117.392 34.3126C119.508 34.3126 121.815 33.4913 122.957 31.9786V31.9805ZM117.4 31.2619C114.341 31.2619 111.861 28.7252 111.861 25.5955C111.861 22.4665 114.341 19.9297 117.4 19.9297C120.46 19.9297 122.94 22.4665 122.94 25.5955C122.94 28.7252 120.46 31.2619 117.4 31.2619Z" fill="white"/>
<path fill-rule="evenodd" clip-rule="evenodd" d="M105.919 24.49C105.919 19.9672 103.068 16.916 98.522 16.916C96.3516 16.916 94.5725 18.172 93.9441 19.2509C93.8083 18.4073 93.3608 17.5205 91.973 17.5205H91.2656C90.992 17.5205 90.7686 17.7447 90.7686 18.0182V32.0191V32.0213V33.5252H90.7713C90.7856 33.786 91.0016 33.9955 91.2658 33.9955H93.4505C93.4839 33.9955 93.5167 33.9915 93.5484 33.9854C93.5629 33.9825 93.5763 33.9768 93.5904 33.9729C93.6066 33.9679 93.6235 33.964 93.639 33.9576C93.6584 33.9496 93.6761 33.9388 93.6941 33.9287C93.703 33.9232 93.7123 33.9194 93.7208 33.9138C93.7426 33.8997 93.7626 33.8827 93.782 33.8655C93.7851 33.8623 93.7889 33.8601 93.7921 33.8572C93.8138 33.8362 93.8337 33.813 93.8512 33.7889C93.9058 33.7138 93.9392 33.6229 93.9447 33.5252H93.9475V24.3656C93.9475 21.9365 95.9154 19.9672 98.3428 19.9672C100.77 19.9672 102.738 21.9365 102.738 24.3656L102.74 32.0218V32.0191C102.74 32.0259 102.742 32.0329 102.742 32.0401V33.5252H102.744C102.759 33.786 102.975 33.9955 103.239 33.9955H105.424C105.457 33.9955 105.49 33.9915 105.521 33.9854C105.534 33.983 105.546 33.9777 105.559 33.9742C105.577 33.969 105.595 33.9646 105.612 33.9576C105.63 33.9502 105.647 33.9399 105.663 33.9304C105.674 33.9246 105.685 33.9204 105.694 33.9138C105.715 33.9005 105.733 33.8844 105.751 33.8687C105.756 33.8643 105.761 33.8612 105.765 33.8568C105.786 33.8368 105.805 33.8152 105.821 33.7926C105.823 33.7909 105.825 33.7879 105.825 33.7879C105.879 33.7134 105.912 33.6235 105.918 33.5265V33.5252H105.921L105.919 24.49Z" fill="white"/>
<path fill-rule="evenodd" clip-rule="evenodd" d="M83.1683 31.9805C83.2447 32.85 83.9403 33.9568 85.1453 33.9568H85.8503C86.1236 33.9568 86.3473 33.7329 86.3473 33.4593V17.9537H86.3445C86.3303 17.6924 86.1141 17.4832 85.8503 17.4832H83.6656C83.4014 17.4832 83.1856 17.6924 83.1708 17.9537H83.1683V19.2136C81.8297 17.5637 79.7194 16.8789 77.6031 16.8789C72.7929 16.8789 68.8936 20.7813 68.8936 25.5956C68.8936 30.41 72.7929 34.3126 77.6031 34.3126C79.7194 34.3126 82.0257 33.4914 83.1681 31.9785L83.1683 31.9805ZM77.6116 31.2618C74.5525 31.2618 72.0723 28.7252 72.0723 25.5956C72.0723 22.4665 74.5525 19.9297 77.6116 19.9297C80.6711 19.9297 83.1508 22.4665 83.1508 25.5956C83.1508 28.7252 80.6711 31.2618 77.6116 31.2618Z" fill="white"/>
<path fill-rule="evenodd" clip-rule="evenodd" d="M55.9739 29.7596C57.4323 30.7707 59.0242 31.2618 60.554 31.2618C62.0114 31.2618 63.5181 30.5057 63.5181 29.1896C63.5181 27.4325 60.235 27.1591 58.1723 26.4575C56.1091 25.7559 54.3322 24.3055 54.3322 21.9568C54.3322 18.3628 57.5321 16.8784 60.5187 16.8784C62.4109 16.8784 64.3633 17.5029 65.6291 18.3975C66.065 18.728 65.7996 19.1075 65.7996 19.1075L64.5913 20.8346C64.4555 21.0291 64.218 21.1972 63.8772 20.9866C63.5363 20.7762 62.3407 19.9293 60.5187 19.9293C58.6964 19.9293 57.5988 20.7715 57.5988 21.8153C57.5988 23.067 59.0254 23.4607 60.6963 23.8874C63.6082 24.6729 66.7847 25.6171 66.7847 29.1896C66.7847 32.3561 63.825 34.3131 60.554 34.3131C58.0752 34.3131 55.9648 33.6059 54.1948 32.306C53.826 31.9367 54.0835 31.5938 54.0835 31.5938L55.2859 29.8755C55.5306 29.5542 55.839 29.6663 55.9739 29.7596Z" fill="white"/>
<path fill-rule="evenodd" clip-rule="evenodd" d="M47.5757 31.9805C47.652 32.85 48.3476 33.9568 49.5525 33.9568H50.2576C50.5309 33.9568 50.7549 33.7329 50.7549 33.4593V17.9537H50.7518C50.7375 17.6924 50.5217 17.4832 50.2576 17.4832H48.073C47.8088 17.4832 47.593 17.6924 47.5783 17.9537H47.5757V19.2136C46.2372 17.5637 44.1268 16.8789 42.0106 16.8789C37.2003 16.8789 33.3008 20.7813 33.3008 25.5956C33.3008 30.41 37.2003 34.3126 42.0106 34.3126C44.1268 34.3126 46.4331 33.4914 47.5753 31.9785L47.5757 31.9805ZM42.0191 31.2618C38.9598 31.2618 36.4797 28.7252 36.4797 25.5956C36.4797 22.4665 38.9598 19.9297 42.0191 19.9297C45.0783 19.9297 47.5582 22.4665 47.5582 25.5956C47.5582 28.7252 45.0783 31.2618 42.0191 31.2618Z" fill="white"/>
<path fill-rule="evenodd" clip-rule="evenodd" d="M21.0895 26.1881C17.8525 26.1881 15.2282 28.8123 15.2282 32.0497C15.2282 35.2868 17.8525 37.911 21.0895 37.911C24.3267 37.911 26.9509 35.2868 26.9509 32.0497C26.9509 28.8123 24.3267 26.1881 21.0895 26.1881ZM5.86134 26.1886C2.62424 26.1886 0 28.8123 0 32.0497C0 35.2868 2.62424 37.911 5.86134 37.911C9.09858 37.911 11.723 35.2868 11.723 32.0497C11.723 28.8123 9.09858 26.1886 5.86134 26.1886ZM19.3367 18.8612C19.3367 22.0986 16.7126 24.7231 13.4755 24.7231C10.2382 24.7231 7.61414 22.0986 7.61414 18.8612C7.61414 15.6245 10.2382 13 13.4755 13C16.7126 13 19.3367 15.6245 19.3367 18.8612Z" fill="white"/>
</svg>
