<svg width="153" height="48" viewBox="0 0 153 48" fill="none" xmlns="http://www.w3.org/2000/svg">
<g clip-path="url(#clip0_832_175)">
<mask id="mask0_832_175" style="mask-type:luminance" maskUnits="userSpaceOnUse" x="0" y="0" width="153" height="48">
<path d="M153 0H0V48H153V0Z" fill="white"/>
</mask>
<g mask="url(#mask0_832_175)">
<path d="M131.031 22.9363V34.9883H134.883V26.9537H148.972V34.9883H152.824V22.9363H131.031ZM134.443 19.0291H149.302C151.393 18.6438 152.879 16.7727 153.319 15.0117H130.426C130.866 16.7727 132.407 18.5888 134.443 19.0291ZM119.309 34.9883C121.235 34.1629 122.281 32.732 122.721 31.0811H105.386V15.0668H101.479V34.9883H119.309ZM72.5873 18.974H86.3453C88.4365 18.3687 90.1425 16.7727 90.5828 15.0668H68.7901V26.8436H86.6205V30.971H72.6424C70.4411 31.5764 68.57 33.0622 67.6344 34.9883H90.4727V22.9363H72.6424L72.5873 18.974ZM38.6876 19.0291H53.5463C55.6375 18.6438 57.1784 16.7727 57.5636 15.0117H34.6152C35.0555 16.7727 36.5964 18.5888 38.6876 19.0291ZM38.6876 26.8986H53.5463C55.6375 26.5134 57.1784 24.6423 57.5636 22.8813H34.6152C35.0555 24.6423 36.5964 26.4584 38.6876 26.8986ZM38.6876 34.9883H53.5463C55.6375 34.6031 57.1784 32.732 57.5636 30.971H34.6152C35.0555 32.732 36.5964 34.6031 38.6876 34.9883Z" fill="white"/>
<path d="M0 15.0668C0.440256 16.8278 1.98115 18.5888 4.01734 19.0291H10.291L10.6212 19.1391V34.9333H14.5285V19.1391L14.8586 19.0291H21.1323C23.2235 18.4787 24.7094 16.8278 25.1496 15.0668V15.0117L0 15.0668Z" fill="white"/>
</g>
</g>
<defs>
<clipPath id="clip0_832_175">
<rect width="153" height="48" fill="white"/>
</clipPath>
</defs>
</svg>
