<svg width="165" height="48" viewBox="0 0 165 48" fill="none" xmlns="http://www.w3.org/2000/svg">
<path d="M48.3652 16.0713H55.2833C59.1154 16.0713 61.1049 17.6426 61.1049 20.5929V20.7399C61.1595 21.6045 60.902 22.4599 60.3792 23.1507C59.8565 23.8415 59.1031 24.3218 58.2562 24.5042C59.2704 24.5934 60.2085 25.0792 60.8667 25.8559C61.5249 26.6326 61.8502 27.6377 61.7718 28.6527V28.7545C61.7718 31.9761 59.6579 33.6718 55.5998 33.6718H48.3652V16.0713ZM54.6389 23.2946C56.5606 23.2946 57.318 22.6051 57.318 21.0338V20.9321C57.318 19.4625 56.4815 18.7956 54.6163 18.7956H52.2538V23.3172L54.6389 23.2946ZM54.9781 30.9023C56.945 30.9023 57.838 30.0092 57.838 28.4154V28.3136C57.838 26.6858 56.945 25.8606 54.7859 25.8606H52.2538V30.9136L54.9781 30.9023Z" fill="white"/>
<path d="M62.8115 30.0884C62.8115 27.0815 65.5584 25.9511 69.5035 25.9511H70.9504V25.4424C70.9504 23.9164 70.4869 23.0799 68.8591 23.0799C68.5956 23.0486 68.3285 23.0716 68.0743 23.1474C67.82 23.2232 67.5839 23.3503 67.3806 23.5208C67.1773 23.6913 67.011 23.9016 66.892 24.1387C66.7731 24.3759 66.7039 24.6349 66.6888 24.8998H63.2975C63.5236 21.8477 65.9314 20.4912 69.0852 20.4912C72.2391 20.4912 74.466 21.7686 74.466 25.2616V33.6492H70.9956V32.1005C70.5601 32.7142 69.9729 33.2044 69.2914 33.5234C68.6098 33.8424 67.8572 33.9792 67.107 33.9205C64.7784 33.9205 62.8115 32.7901 62.8115 30.0884ZM70.9504 29.1502V28.0197H69.5713C67.5026 28.0197 66.3044 28.4719 66.3044 29.8397C66.3044 30.7779 66.8696 31.3997 68.1696 31.3997C69.7409 31.4449 70.9504 30.5745 70.9504 29.1502Z" fill="white"/>
<path d="M75.9697 29.6136H79.2931C79.44 30.744 80.0052 31.4449 81.5539 31.4449C82.933 31.4449 83.5773 30.9249 83.5773 30.0319C83.5773 29.1389 82.8086 28.7771 80.9661 28.5171C77.5749 27.9971 76.2184 27.0137 76.2184 24.5042C76.2184 21.9947 78.6827 20.4912 81.3052 20.4912C84.1651 20.4912 86.3016 21.5312 86.6181 24.4816H83.3512C83.1591 23.419 82.5599 22.9329 81.3391 22.9329C80.1183 22.9329 79.5192 23.4755 79.5192 24.2555C79.5192 25.0355 80.1296 25.3859 81.9947 25.6572C85.2164 26.1207 86.9911 26.9346 86.9911 29.6928C86.9911 32.4509 84.979 33.9205 81.5765 33.9205C78.174 33.9205 76.094 32.3944 75.9697 29.6136Z" fill="white"/>
<path d="M87.9069 27.3753V27.1831C87.864 26.2997 88.0052 25.417 88.3213 24.591C88.6374 23.7649 89.1216 23.0135 89.7433 22.3844C90.365 21.7553 91.1105 21.2622 91.9328 20.9363C92.755 20.6103 93.6359 20.4588 94.5198 20.4911C97.8432 20.4911 100.793 22.4354 100.793 27.0362V28.0196H91.5581C91.6486 30.1561 92.8129 31.4108 94.7459 31.4108C96.3963 31.4108 97.2102 30.6987 97.4362 29.6135H100.827C100.409 32.3943 98.1936 33.9429 94.6781 33.9429C90.7329 33.9203 87.9069 31.49 87.9069 27.3753ZM97.3232 25.8266C97.2102 23.8823 96.2154 23.0006 94.5198 23.0006C93.7564 22.997 93.0214 23.2894 92.4691 23.8164C91.9168 24.3434 91.5903 25.0639 91.5581 25.8266H97.3232Z" fill="white"/>
<path d="M101.731 27.3752V27.183C101.688 26.2976 101.83 25.413 102.148 24.5853C102.465 23.7577 102.951 23.0052 103.575 22.3757C104.2 21.7462 104.948 21.2536 105.773 20.9291C106.598 20.6046 107.481 20.4554 108.367 20.491C111.351 20.491 114.098 21.791 114.426 25.4874H111.035C111.012 25.1701 110.926 24.8606 110.782 24.5773C110.637 24.2939 110.437 24.0425 110.193 23.8379C109.95 23.6334 109.668 23.4799 109.364 23.3865C109.06 23.2931 108.74 23.2618 108.423 23.2944C106.581 23.2944 105.349 24.6735 105.349 27.1378V27.33C105.349 29.9186 106.479 31.2412 108.503 31.2412C108.847 31.261 109.192 31.2121 109.517 31.0974C109.842 30.9826 110.141 30.8043 110.397 30.5729C110.652 30.3415 110.859 30.0615 111.006 29.7493C111.152 29.437 111.235 29.0988 111.249 28.7543H114.471C114.279 31.8064 112.063 33.9202 108.322 33.9202C104.58 33.9202 101.731 31.5803 101.731 27.3752Z" fill="white"/>
<path d="M115.296 30.0884C115.296 27.0815 118.043 25.9511 121.977 25.9511H123.435V25.4424C123.435 23.9163 122.961 23.0798 121.344 23.0798C121.079 23.0452 120.809 23.0657 120.552 23.14C120.295 23.2143 120.057 23.3408 119.851 23.5116C119.645 23.6824 119.477 23.8939 119.356 24.1327C119.236 24.3716 119.166 24.6327 119.151 24.8998H115.76C115.986 21.8477 118.394 20.4912 121.536 20.4912C124.679 20.4912 126.928 21.7686 126.928 25.2615V33.6491H123.458V32.1005C123.023 32.7141 122.435 33.2044 121.754 33.5234C121.072 33.8423 120.32 33.9792 119.569 33.9204C117.309 33.9204 115.296 32.79 115.296 30.0884ZM123.435 29.1501V28.0197H122.079C120.01 28.0197 118.801 28.4719 118.801 29.8397C118.801 30.7779 119.377 31.3996 120.677 31.3996C122.271 31.4449 123.481 30.5744 123.481 29.1501H123.435Z" fill="white"/>
<path d="M129.438 20.7398H132.998V22.7067C133.387 22.0079 133.958 21.4281 134.651 21.0298C135.344 20.6314 136.133 20.4296 136.932 20.4459C137.695 20.3849 138.457 20.5721 139.105 20.9795C139.753 21.3869 140.252 21.9928 140.527 22.7067C141.002 21.9977 141.647 21.4191 142.403 21.0241C143.16 20.6291 144.003 20.4303 144.856 20.4459C147.242 20.4459 149.084 21.9494 149.084 25.3632V33.6039H145.546V25.8041C145.546 24.1537 144.811 23.4189 143.522 23.4189C143.18 23.404 142.838 23.4632 142.52 23.5925C142.202 23.7219 141.916 23.9182 141.681 24.1683C141.446 24.4183 141.268 24.7161 141.158 25.0413C141.049 25.3665 141.011 25.7115 141.047 26.0528V33.6491H137.497V25.8041C137.497 24.1537 136.74 23.4189 135.485 23.4189C135.142 23.4023 134.798 23.4603 134.479 23.5889C134.16 23.7175 133.872 23.9136 133.636 24.1638C133.4 24.414 133.22 24.7124 133.11 25.0385C133 25.3645 132.962 25.7105 132.998 26.0528V33.6491H129.438V20.7398Z" fill="white"/>
<path d="M151.526 20.7397H155.098V22.7631C155.524 22.0554 156.125 21.4699 156.844 21.0638C157.564 20.6577 158.376 20.4448 159.201 20.4458C162.355 20.4458 164.854 22.7857 164.854 27.036V27.2395C164.854 31.4898 162.446 33.875 159.201 33.875C158.376 33.9088 157.558 33.716 156.834 33.3175C156.111 32.9189 155.51 32.3298 155.098 31.6142V38.0349H151.526V20.7397ZM161.191 27.0699C161.191 24.4587 159.914 23.1813 158.116 23.1813C156.319 23.1813 154.974 24.4813 154.974 27.0699V27.2621C154.974 29.8394 156.206 31.0942 158.15 31.0942C160.095 31.0942 161.191 29.7829 161.191 27.3073V27.0699Z" fill="white"/>
<path fill-rule="evenodd" clip-rule="evenodd" d="M21.9361 9.92744C11.9054 9.92744 6.67436 18.4236 3.74547 26.7277C3.39142 27.7315 2.29063 28.2583 1.2868 27.9042C0.568808 27.651 0.0948848 27.0157 0.0127491 26.3072C-0.0199508 26.0251 0.00944774 25.7314 0.110267 25.4455C3.0821 17.0196 9.15509 6.07275 21.9361 6.07275C28.6167 6.07275 33.3984 10.4924 36.491 15.802C39.5917 21.1256 41.2449 27.7174 41.6174 33.0397C41.6442 33.4222 41.5563 33.8041 41.3648 34.1364C39.5738 37.2453 36.5942 39.2714 33.1979 40.5123C29.8099 41.7501 25.8854 42.2558 21.9516 42.2571C18.6094 42.3092 15.2952 41.6404 12.2347 40.296C9.16941 38.9495 6.43095 36.957 4.20648 34.4548C3.73326 33.9225 3.59217 33.1726 3.8396 32.5047L3.84105 32.5008L3.84381 32.4934L3.85324 32.4683L3.88736 32.3783C3.91678 32.3012 3.95944 32.1908 4.0144 32.0517C4.12424 31.7737 4.28367 31.3801 4.48523 30.909C4.88659 29.9711 5.4632 28.7071 6.15586 27.4309C6.8394 26.1715 7.67994 24.8175 8.62517 23.7508C9.48688 22.7783 10.8263 21.5936 12.5406 21.582L12.5537 21.5819C13.7651 21.5819 14.7602 22.1366 15.4765 22.6698C16.1985 23.2073 16.8542 23.8903 17.3797 24.4463C17.4399 24.5101 17.4985 24.5723 17.5555 24.6327C18.0449 25.1516 18.4191 25.5484 18.7747 25.8455C18.8146 25.8789 18.8513 25.9083 18.8848 25.9343C19.0005 25.8161 19.1384 25.6613 19.2972 25.4644C19.8621 24.7641 20.4966 23.7776 21.1106 22.7215C21.7165 21.6793 22.268 20.6294 22.6701 19.8353C22.8704 19.4396 23.0321 19.1105 23.1431 18.8816C23.1985 18.7672 23.2413 18.678 23.2697 18.6182L23.3016 18.5511L23.3091 18.5351L23.3107 18.5317C23.7626 17.568 24.9103 17.1525 25.874 17.6043C26.8378 18.056 27.2529 19.2036 26.8011 20.1674L26.797 20.1763L26.787 20.1975L26.7499 20.2756C26.7178 20.343 26.6712 20.4403 26.6116 20.5633C26.4924 20.8091 26.3208 21.1583 26.1091 21.5765C25.687 22.4101 25.0989 23.5307 24.443 24.6589C23.7952 25.7731 23.0456 26.957 22.2975 27.8845C21.9265 28.3444 21.5059 28.8045 21.0511 29.1662C20.6491 29.486 19.94 29.9583 19.0309 29.9583C17.8289 29.9583 16.8818 29.2871 16.3029 28.8034C15.7574 28.3475 15.2123 27.768 14.7545 27.2813C14.6941 27.217 14.6352 27.1544 14.578 27.0939C14.0352 26.5195 13.5916 26.0721 13.1747 25.7618C12.8094 25.4898 12.6228 25.4451 12.5693 25.4379C12.5693 25.4379 12.5654 25.4394 12.562 25.4406C12.5031 25.4614 12.1491 25.5862 11.5102 26.3072C10.8478 27.0548 10.17 28.1156 9.54373 29.2696C8.92652 30.4068 8.40169 31.5548 8.02907 32.4256C7.98106 32.5378 7.93571 32.645 7.89316 32.7467C9.58942 34.4369 11.5864 35.801 13.785 36.7668C16.3423 37.8901 19.1119 38.4481 21.9047 38.4027L21.9361 38.4024C25.5821 38.4024 29.0333 37.93 31.8751 36.8917C34.4894 35.9365 36.4838 34.5443 37.7235 32.6961C37.3034 27.9596 35.7946 22.2653 33.1601 17.7421C30.4028 13.0081 26.6613 9.92744 21.9361 9.92744ZM18.568 26.2082C18.568 26.2082 18.5764 26.2018 18.5926 26.1935C18.576 26.2047 18.568 26.2082 18.568 26.2082Z" fill="white"/>
</svg>
