<svg width="167" height="48" viewBox="0 0 167 48" fill="none" xmlns="http://www.w3.org/2000/svg">
<path d="M6.74838 30.5281C6.44855 29.6186 6.2998 28.4707 6.2998 26.9272C6.2998 25.3831 6.44855 24.2328 6.74838 23.3257C7.58604 20.7229 9.80502 19.3008 12.7105 19.3008C14.8683 19.3008 16.5768 20.1787 17.7166 21.5711C17.8047 21.6913 17.8345 21.8727 17.6863 21.9934L15.7992 23.6582C15.6487 23.7801 15.4994 23.7498 15.3787 23.5987C14.6588 22.7821 13.9099 22.3271 12.7111 22.3271C11.4231 22.3271 10.435 22.9629 10.0144 24.234C9.77642 24.962 9.71517 25.8084 9.71517 26.9278C9.71517 28.0472 9.77584 28.9245 10.0144 29.6513C10.4344 30.8909 11.4231 31.5267 12.7111 31.5267C13.9099 31.5267 14.6588 31.0723 15.3787 30.2574C15.4994 30.104 15.6487 30.104 15.7992 30.2253L17.6863 31.8901C17.8345 32.0109 17.8047 32.1625 17.7166 32.3142C16.5774 33.6768 14.8688 34.5536 12.7105 34.5536C9.80502 34.5524 7.58604 33.1291 6.74838 30.5281Z" fill="white"/>
<path d="M72.222 30.5281C71.9222 29.6186 71.7734 28.4707 71.7734 26.9272C71.7734 25.3831 71.9222 24.2328 72.222 23.3257C73.0614 20.7229 75.2781 19.3008 78.1836 19.3008C80.3419 19.3008 82.0511 20.1787 83.1891 21.5711C83.2784 21.6913 83.3093 21.8727 83.1582 21.9934L81.2706 23.6582C81.1206 23.7801 80.9719 23.7498 80.8517 23.5987C80.1331 22.7821 79.3835 22.3271 78.1836 22.3271C76.8962 22.3271 75.9069 22.9629 75.4881 24.234C75.2477 24.962 75.1894 25.8084 75.1894 26.9278C75.1894 28.0472 75.2477 28.9245 75.4881 29.6513C75.9069 30.8909 76.8962 31.5267 78.1836 31.5267C79.3835 31.5267 80.1331 31.0723 80.8517 30.2574C80.9719 30.104 81.1212 30.104 81.2706 30.2253L83.1582 31.8901C83.3093 32.0109 83.2784 32.1625 83.1891 32.3142C82.0511 33.6768 80.3419 34.5536 78.1836 34.5536C75.2781 34.5524 73.0614 33.1291 72.222 30.5281Z" fill="white"/>
<path d="M147.894 34.2205C147.714 34.2205 147.595 34.1003 147.595 33.9172V25.505C147.595 23.6285 146.665 22.3265 144.866 22.3265C143.129 22.3265 142.11 23.6279 142.11 25.505V33.9172C142.11 34.0997 141.989 34.2205 141.811 34.2205H139.053C138.873 34.2205 138.753 34.1003 138.753 33.9172V25.505C138.753 23.6285 137.824 22.3265 136.028 22.3265C134.29 22.3265 133.27 23.6279 133.27 25.505V33.9172C133.27 34.0997 133.15 34.2205 132.97 34.2205H130.213C130.032 34.2205 129.914 34.1003 129.914 33.9172V19.936C129.914 19.754 130.032 19.6327 130.213 19.6327H132.97C133.15 19.6327 133.27 19.754 133.27 19.936V20.9953H133.3C133.93 20.0871 135.188 19.3008 137.105 19.3008C138.814 19.3008 140.192 19.9955 141.06 21.2368H141.091C142.199 20.0276 143.638 19.3008 145.706 19.3008C149.061 19.3008 150.95 21.6002 150.95 24.7175V33.9166C150.95 34.0997 150.829 34.2205 150.649 34.2205H147.894Z" fill="white"/>
<path d="M155.114 39.6657C154.935 39.6657 154.815 39.5444 154.815 39.3618V36.9416C154.815 36.7608 154.935 36.6377 155.114 36.6377H155.654C156.792 36.6377 157.363 36.1255 157.812 34.914L158.232 33.6732L152.957 19.9342C152.897 19.7522 153.017 19.6309 153.198 19.6309H156.164C156.343 19.6309 156.464 19.7522 156.522 19.9342L159.79 29.4669H159.849L162.966 19.9342C163.026 19.7522 163.146 19.6309 163.324 19.6309H166.17C166.352 19.6309 166.472 19.7522 166.41 19.9342L160.898 35.1257C159.64 38.5761 158.44 39.6646 156.044 39.6646L155.114 39.6657Z" fill="white"/>
<path d="M20.4756 30.5281C20.146 29.4973 19.9961 28.5296 19.9961 26.926C19.9961 25.3248 20.146 24.3559 20.4756 23.3292C21.2847 20.7871 23.5001 19.3037 26.436 19.3037C29.341 19.3037 31.5576 20.7865 32.3667 23.3292C32.6945 24.3559 32.8456 25.3248 32.8456 26.926C32.8456 28.5296 32.6945 29.4973 32.3667 30.5281C31.557 33.0684 29.341 34.5507 26.436 34.5507C23.5001 34.5513 21.2847 33.069 20.4756 30.5281ZM29.1316 29.6204C29.3719 28.865 29.4314 28.1679 29.4314 26.9266C29.4314 25.6888 29.3719 25.0221 29.1316 24.2363C28.7127 23.0271 27.7835 22.3294 26.436 22.3294C25.0891 22.3294 24.129 23.0271 23.7107 24.2363C23.4721 25.0226 23.4115 25.6888 23.4115 26.9266C23.4115 28.1679 23.4721 28.865 23.7107 29.6204C24.129 30.832 25.0897 31.5255 26.436 31.5255C27.7835 31.525 28.7127 30.8314 29.1316 29.6204Z" fill="white"/>
<path d="M91.2184 19.3008C88.8507 19.3008 87.2634 19.8754 86.0939 20.7229C85.9755 20.8151 85.9446 20.9644 86.0356 21.1155L87.1415 23.114C87.2343 23.2656 87.4116 23.296 87.5627 23.1746C88.2522 22.631 89.2398 22.1754 90.8591 22.1754C93.2198 22.1754 94.0213 22.8917 94.0621 24.4661L94.0627 24.4854C94.0638 24.5221 94.0638 24.5595 94.0638 24.5985V29.32C94.0638 30.9842 92.9258 31.7997 90.8591 31.7997C89.2398 31.7997 88.3718 31.1959 88.3718 29.9861C88.3718 28.6235 89.3313 28.0168 91.4879 28.0168L92.1435 28.018C92.3232 28.018 92.4439 27.8967 92.4439 27.7164V25.7763C92.4439 25.5954 92.3232 25.4747 92.1435 25.4747H91.9995L90.9489 25.4741C87.3836 25.4741 85.1641 26.9289 85.1641 30.1045C85.1641 33.1618 87.3836 34.553 90.0191 34.553C92.0549 34.553 93.4041 33.8577 94.0936 32.859H94.1228V33.9183C94.1228 34.1003 94.2441 34.2217 94.4232 34.2217H96.9396C97.1199 34.2217 97.24 34.1009 97.24 33.9183V24.3856C97.2406 20.8151 95.6231 19.3008 91.2184 19.3008Z" fill="white"/>
<path d="M55.4188 25.4724C55.3406 25.4724 55.2893 25.5243 55.2893 25.6024V25.6888V25.9419V27.5449V27.7602V27.8844C55.2893 27.9626 55.3406 28.0151 55.4188 28.0151H55.4935H62.8387C63.0487 28.0151 63.1689 27.8949 63.1689 27.7147C63.1689 25.3522 63.0178 24.353 62.6894 23.3251C61.8792 20.8437 59.7226 19.3008 56.7558 19.3008C53.8794 19.3008 51.6628 20.783 50.8525 23.3251C50.5545 24.2631 50.373 25.4135 50.373 26.9266C50.373 28.4397 50.583 29.5586 50.8846 30.4977C51.6931 33.0387 53.8497 34.5518 56.9057 34.5518C59.5715 34.5518 61.6108 33.5228 62.8381 32.0704C62.9571 31.9199 62.9571 31.7688 62.8078 31.6463L61.0415 30.0731C60.8904 29.9523 60.7411 29.9838 60.5906 30.1337C59.8725 30.9212 58.8237 31.5261 57.2055 31.5261C55.5891 31.5261 54.4493 30.7398 53.9698 29.3182C53.8975 29.1193 53.8374 28.9105 53.7995 28.6836C53.6904 28.0676 53.6257 27.4679 53.6257 26.5871C53.649 25.757 53.6968 25.2268 53.8147 24.553C53.8158 24.5437 53.8176 24.5355 53.8193 24.5268C53.8205 24.5198 53.8217 24.5145 53.8228 24.5075C53.8514 24.3489 53.8905 24.2001 53.9389 24.0514C54.3286 22.8713 55.4071 22.1754 56.7867 22.1754C58.1354 22.1754 59.2122 22.8713 59.6018 24.0514C59.7226 24.4165 59.7815 24.7776 59.7815 25.2933C59.7815 25.414 59.722 25.4735 59.6018 25.4735H55.665L55.4188 25.4724Z" fill="white"/>
<path d="M47.5905 13.6426H44.8386C44.6571 13.6426 44.5376 13.7633 44.5376 13.943V21.0135V26.8607C44.5376 26.8765 44.5376 26.8922 44.5376 26.9074C44.5376 26.9232 44.5376 26.9389 44.5376 26.9541V27.7305H44.5224C44.4903 28.5646 44.3997 29.113 44.2393 29.6269C43.8502 30.8344 42.9211 31.4988 41.5462 31.4988C40.1998 31.4988 39.2728 30.8344 38.882 29.6269C38.6732 28.9613 38.5847 28.2368 38.5847 26.9074C38.5847 25.5786 38.6732 24.8523 38.882 24.1891C39.2653 23.0044 40.1625 22.3353 41.4646 22.309H42.6394C42.6966 22.295 42.7337 22.2501 42.7337 22.1848L42.7491 19.4222C42.7491 19.3516 42.7047 19.3043 42.6394 19.2962L41.7014 19.2927H40.5989C38.1869 19.3183 36.4211 20.4949 35.6814 22.7961C35.3221 23.9155 35.1729 24.9445 35.1729 26.9074C35.1729 28.8709 35.3221 29.8987 35.6814 31.0158C36.4292 33.3432 38.2248 34.5216 40.6777 34.5216C42.6237 34.5216 43.8204 33.7976 44.507 32.799H44.5364V33.8869C44.5364 34.0689 44.6564 34.1896 44.8372 34.1896H47.5895C47.7692 34.1896 47.8893 34.0695 47.8893 33.8869V13.943C47.8905 13.7627 47.7701 13.6426 47.5905 13.6426Z" fill="white"/>
<path d="M119.74 25.4724C119.663 25.4724 119.61 25.5243 119.61 25.6024V25.6888V25.9419V27.5449V27.7602V27.8844C119.61 27.9626 119.663 28.0151 119.74 28.0151H119.816H127.161C127.371 28.0151 127.491 27.8949 127.491 27.7147C127.491 25.3522 127.341 24.353 127.012 23.3251C126.202 20.8437 124.045 19.3008 121.079 19.3008C118.202 19.3008 115.986 20.783 115.175 23.3251C114.877 24.2631 114.696 25.4135 114.696 26.9266C114.696 28.4397 114.906 29.5586 115.207 30.4977C116.015 33.0387 118.172 34.5518 121.228 34.5518C123.894 34.5518 125.934 33.5228 127.161 32.0704C127.28 31.9199 127.28 31.7688 127.131 31.6463L125.364 30.0731C125.214 29.9523 125.064 29.9838 124.914 30.1337C124.196 30.9212 123.148 31.5261 121.528 31.5261C119.912 31.5261 118.773 30.7398 118.293 29.3182C118.221 29.1193 118.16 28.9105 118.123 28.6836C118.013 28.0676 117.949 27.4679 117.949 26.5871C117.971 25.757 118.019 25.2268 118.137 24.553C118.14 24.5437 118.141 24.5355 118.142 24.5268C118.143 24.5198 118.144 24.5145 118.146 24.5075C118.175 24.3489 118.214 24.2001 118.262 24.0514C118.651 22.8713 119.73 22.1754 121.11 22.1754C122.459 22.1754 123.536 22.8713 123.925 24.0514C124.045 24.4165 124.105 24.7776 124.105 25.2933C124.105 25.414 124.045 25.4735 123.925 25.4735H119.988L119.74 25.4724Z" fill="white"/>
<path d="M112.051 13.6426H109.294C109.114 13.6426 108.994 13.7639 108.994 13.9436V21.024V26.8806V26.9266V26.9739V27.7515H108.979C108.946 28.5868 108.855 29.1357 108.695 29.6502C108.305 30.86 107.374 31.5262 105.998 31.5262C104.651 31.5262 103.722 30.86 103.331 29.6502C103.122 28.9834 103.031 28.2584 103.031 26.9266C103.031 25.5961 103.121 24.8681 103.331 24.2043C103.714 23.0178 104.613 22.354 105.917 22.3277L107.094 22.3283C107.274 22.3283 107.394 22.2075 107.394 22.0273V19.6024C107.394 19.4216 107.274 19.3008 107.094 19.3008H106.95L105.171 19.3003C105.157 19.3003 105.143 19.3003 105.13 19.3003C105.116 19.3003 105.104 19.3003 105.091 19.3003H105.05C102.635 19.3254 100.867 20.5042 100.126 22.809C99.7665 23.9301 99.6172 24.9597 99.6172 26.9255C99.6172 28.8919 99.7665 29.922 100.126 31.0408C100.875 33.3706 102.674 34.5513 105.13 34.5513C107.079 34.5513 108.277 33.8268 108.966 32.8264H108.995V33.9155C108.995 34.0986 109.115 34.2188 109.296 34.2188H112.053C112.232 34.2188 112.353 34.0992 112.353 33.9155V13.9436C112.351 13.7633 112.23 13.6426 112.051 13.6426Z" fill="white"/>
<path d="M71.998 38.3457V41.1031C71.998 41.2845 72.1181 41.4047 72.2984 41.4047H82.516C82.6986 41.4047 82.8193 41.2839 82.8193 41.1031V38.3457C82.8193 38.1666 82.6986 38.0459 82.516 38.0459H72.2984C72.1181 38.0459 71.998 38.1666 71.998 38.3457Z" fill="white"/>
<path d="M69.4035 6.50171C69.3988 6.49705 69.3959 6.49121 69.3918 6.48713C69.3912 6.48655 69.3906 6.48655 69.3906 6.48655C69.3381 6.43463 69.2635 6.4043 69.1748 6.4043H69.1713H0.300996C0.278246 6.4043 0.256663 6.40663 0.235663 6.41013C0.22983 6.4113 0.22458 6.41363 0.218164 6.4148C0.204747 6.4183 0.190164 6.42121 0.177914 6.42646C0.175581 6.42705 0.173831 6.42821 0.172081 6.42938C0.0653324 6.47313 0 6.57288 0 6.70471V6.70588V41.0988V41.1011C0 41.2061 0.0408328 41.2883 0.109665 41.3408C0.114915 41.3461 0.119582 41.3507 0.126582 41.3542C0.174414 41.3846 0.232747 41.4015 0.300996 41.4015H69.1707H69.1742C69.2757 41.4015 69.358 41.3624 69.4099 41.2953C69.4507 41.2452 69.4746 41.1792 69.4746 41.1005V41.0982V6.70588V6.70471C69.4746 6.62246 69.4484 6.55304 69.4035 6.50171ZM3.65512 38.0445C3.63353 38.0445 3.61253 38.0427 3.59387 38.0398C3.58803 38.0386 3.58162 38.0357 3.57579 38.034C3.56179 38.031 3.54779 38.0281 3.53495 38.0229C3.53262 38.0223 3.53145 38.0205 3.52912 38.02C3.42295 37.9768 3.3582 37.8776 3.35762 37.747V12.818V10.0617C3.35762 9.9293 3.42295 9.8308 3.52912 9.7864C3.53204 9.7858 3.53379 9.7841 3.53554 9.7835C3.54779 9.7788 3.58745 9.7689 3.59387 9.7672C3.6137 9.7643 3.6347 9.7625 3.65628 9.7625H65.8178C65.8399 9.7625 65.8604 9.7643 65.8802 9.7672C65.8866 9.7689 65.8924 9.7713 65.8977 9.773C65.9117 9.7759 65.9257 9.7788 65.9385 9.7841C65.9414 9.7847 65.9426 9.7864 65.9449 9.787C66.0517 9.8308 66.1164 9.9299 66.1164 10.0623V37.7475C66.1159 37.8788 66.0505 37.978 65.9455 38.0211C65.9432 38.0217 65.942 38.0235 65.9391 38.024C65.9269 38.0287 65.9123 38.0322 65.8989 38.0351C65.8924 38.0369 65.8872 38.0398 65.8808 38.041C65.8609 38.0445 65.8417 38.0456 65.8201 38.0456H3.65512V38.0445Z" fill="white"/>
</svg>
