<svg width="96" height="48" viewBox="0 0 96 48" fill="none" xmlns="http://www.w3.org/2000/svg">
<path d="M0 35.3962L9.85444 20.0624H1.16739C1.09377 19.6207 1.06222 19.1369 1.06222 18.6005C1.06222 18.0852 1.09377 17.6119 1.16739 17.1807H15.2286L15.4074 17.654L5.47936 33.0193H14.7869C14.8605 33.5031 14.8921 34.0079 14.8921 34.5127C14.8921 34.9965 14.8605 35.4593 14.7869 35.901H0.178789L0 35.3962Z" fill="white"/>
<path d="M28.4379 23.5645C28.4379 22.1237 28.0698 21.1351 27.3441 20.5672C26.6184 20.0098 25.5562 19.7258 24.168 19.7258C23.3161 19.7258 22.5168 19.7889 21.7806 19.9256C21.0339 20.0624 20.3187 20.2306 19.6036 20.4515C19.1408 19.6522 18.9095 18.6846 18.9095 17.5698C19.7403 17.3069 20.6448 17.0966 21.6439 16.9493C22.643 16.8021 23.6 16.7285 24.5255 16.7285C26.955 16.7285 28.806 17.2859 30.0785 18.3902C31.3406 19.4945 31.9821 21.2718 31.9821 23.7013V35.4172C31.1302 35.6065 30.0996 35.8168 28.8796 36.0167C27.6596 36.227 26.4186 36.3217 25.1566 36.3217C23.9681 36.3217 22.8849 36.2165 21.9278 35.9956C20.9708 35.7748 20.1505 35.4277 19.4774 34.9334C18.8043 34.4496 18.289 33.8291 17.9209 33.0719C17.5528 32.3147 17.374 31.3997 17.374 30.3375C17.374 29.2963 17.5843 28.3708 18.0155 27.582C18.4362 26.7933 19.0146 26.1307 19.7508 25.6153C20.4765 25.0895 21.3179 24.7004 22.2749 24.448C23.2214 24.1956 24.2205 24.0588 25.2722 24.0588C26.0505 24.0588 26.692 24.0799 27.1863 24.1114C27.6806 24.143 28.1013 24.1956 28.4484 24.2376V23.5645H28.4379ZM28.4379 27.1088C28.0698 27.0562 27.607 27.0141 27.0496 26.9615C26.4922 26.9089 26.019 26.8879 25.6298 26.8879C24.1154 26.8879 22.969 27.1719 22.1802 27.7293C21.3915 28.2867 20.9918 29.1385 20.9918 30.2849C20.9918 31.0106 21.1285 31.589 21.3915 31.9992C21.6544 32.4093 21.9909 32.7248 22.3906 32.9457C22.7902 33.1666 23.2319 33.3033 23.7262 33.3454C24.21 33.3979 24.6728 33.419 25.1145 33.419C25.6719 33.419 26.2503 33.3874 26.8498 33.3243C27.4493 33.2612 27.9751 33.1771 28.4379 33.0509V27.1088Z" fill="white"/>
<path d="M35.9265 17.1819C36.1684 17.1293 36.4208 17.0978 36.6732 17.0767C36.9256 17.0557 37.1885 17.0452 37.462 17.0452C37.7039 17.0452 37.9563 17.0557 38.2297 17.0767C38.4926 17.0978 38.7556 17.1398 38.9975 17.1819C39.0185 17.2345 39.05 17.3817 39.0921 17.6341C39.1237 17.8865 39.1657 18.16 39.1973 18.4545C39.2288 18.7489 39.2709 19.0224 39.3025 19.2958C39.334 19.5693 39.355 19.7375 39.355 19.8112C39.5969 19.422 39.8914 19.0434 40.228 18.6753C40.5645 18.3072 40.9747 17.9812 41.4479 17.6867C41.9212 17.3922 42.4576 17.1609 43.057 16.9926C43.6565 16.8243 44.3191 16.7402 45.0447 16.7402C46.1385 16.7402 47.1587 16.919 48.0947 17.2871C49.0307 17.6552 49.83 18.2126 50.5031 18.9803C51.1762 19.7481 51.6915 20.7261 52.0701 21.904C52.4487 23.0819 52.638 24.4807 52.638 26.0898C52.638 29.308 51.7651 31.8216 50.0298 33.6305C48.284 35.4394 45.823 36.3544 42.6363 36.3544C42.1 36.3544 41.5531 36.3229 40.9957 36.2492C40.4383 36.1756 39.944 36.081 39.5338 35.9548V44.5366C39.2394 44.5892 38.9344 44.6208 38.5978 44.6418C38.2718 44.6628 37.9668 44.6734 37.7039 44.6734C37.4409 44.6734 37.136 44.6628 36.8099 44.6418C36.4839 44.6208 36.1789 44.5787 35.916 44.5366V17.1819H35.9265ZM39.5443 32.8417C40.0071 33.01 40.4804 33.1362 40.9641 33.2098C41.4479 33.2834 42.0789 33.315 42.8677 33.315C43.7406 33.315 44.5504 33.1783 45.2761 32.8943C46.0018 32.6104 46.6328 32.1792 47.1587 31.6007C47.6845 31.0118 48.0947 30.2756 48.3997 29.3921C48.7047 28.5087 48.8519 27.4465 48.8519 26.237C48.8519 24.2914 48.4943 22.7454 47.7792 21.599C47.064 20.4527 45.8861 19.8848 44.256 19.8848C43.646 19.8848 43.0675 19.9899 42.4996 20.2108C41.9422 20.4317 41.4374 20.7577 41.0062 21.1994C40.5645 21.6411 40.2174 22.188 39.944 22.8611C39.6706 23.5342 39.5443 24.3229 39.5443 25.2484V32.8417Z" fill="white"/>
<path d="M57.1386 20.0203H54.7617C54.7092 19.8205 54.6776 19.5996 54.6566 19.3472C54.6355 19.0948 54.625 18.8424 54.625 18.6005C54.625 18.3586 54.6355 18.1062 54.6566 17.8538C54.6776 17.6014 54.7197 17.37 54.7617 17.1807H60.6828V35.9115C60.4199 35.9641 60.1149 35.9956 59.7889 36.0167C59.4628 36.0377 59.1578 36.0482 58.8949 36.0482C58.653 36.0482 58.3691 36.0377 58.0325 36.0167C57.7065 35.9956 57.4015 35.9536 57.1386 35.9115V20.0203Z" fill="white"/>
<path d="M68.4549 27.4356C68.5075 29.4759 69.0333 30.9799 70.0429 31.9264C71.0526 32.873 72.546 33.3462 74.5127 33.3462C76.2375 33.3462 77.8886 33.0412 79.4451 32.4312C79.645 32.7993 79.8027 33.241 79.9184 33.7669C80.0446 34.2927 80.1077 34.8081 80.1393 35.3234C79.34 35.66 78.4566 35.9229 77.489 36.0912C76.5319 36.2594 75.4592 36.3435 74.2918 36.3435C72.5881 36.3435 71.1262 36.1017 69.9062 35.6284C68.6863 35.1551 67.6871 34.482 66.8984 33.6196C66.1096 32.7572 65.5311 31.7371 65.1631 30.5487C64.795 29.3708 64.6162 28.0772 64.6162 26.6574C64.6162 25.2692 64.795 23.9756 65.142 22.7661C65.4891 21.5566 66.036 20.5155 66.7616 19.6215C67.4873 18.7381 68.4128 18.0229 69.5171 17.5076C70.6214 16.9818 71.936 16.7188 73.4399 16.7188C74.7335 16.7188 75.8588 16.9397 76.8369 17.3814C77.815 17.8231 78.6248 18.4226 79.2874 19.1903C79.9395 19.9581 80.4443 20.873 80.7808 21.9247C81.1174 22.987 81.2961 24.1333 81.2961 25.3743C81.2961 25.7109 81.2856 26.079 81.2541 26.4471C81.233 26.8257 81.2015 27.1517 81.1805 27.4146H68.4549V27.4356ZM77.7309 24.7327C77.7309 24.0491 77.6362 23.3971 77.4574 22.7766C77.2786 22.1561 77.0052 21.6197 76.6581 21.1569C76.3006 20.6942 75.8588 20.3262 75.312 20.0422C74.7651 19.7582 74.113 19.6215 73.3558 19.6215C71.8729 19.6215 70.7371 20.0738 69.9378 20.9677C69.149 21.8722 68.6652 23.1236 68.4969 24.7327H77.7309Z" fill="white"/>
<path d="M85.2933 17.1806C85.5562 17.128 85.8191 17.0965 86.061 17.0754C86.3029 17.0544 86.5553 17.0439 86.8288 17.0439C87.0917 17.0439 87.3651 17.0544 87.6281 17.0754C87.891 17.0965 88.1434 17.1385 88.3537 17.1806C88.4273 17.5487 88.501 18.022 88.5746 18.6214C88.6482 19.2209 88.6798 19.7257 88.6798 20.1359C89.1951 19.305 89.8682 18.5899 90.7095 17.9799C91.5509 17.3699 92.6236 17.0649 93.9383 17.0649C94.1381 17.0649 94.3379 17.0754 94.5377 17.086C94.7481 17.0965 94.9163 17.1175 95.0636 17.1385C95.1162 17.3594 95.1477 17.5908 95.1687 17.8327C95.1898 18.0746 95.2003 18.327 95.2003 18.6004C95.2003 18.8949 95.1793 19.1999 95.1477 19.5154C95.1162 19.8309 95.0636 20.1359 95.0215 20.4304C94.8217 20.3778 94.6219 20.3567 94.422 20.3567C94.2117 20.3567 94.0539 20.3567 93.9277 20.3567C93.2757 20.3567 92.6447 20.4514 92.0452 20.6302C91.4457 20.809 90.9094 21.135 90.4361 21.5978C89.9628 22.0605 89.5842 22.6915 89.3003 23.5013C89.0163 24.3006 88.8796 25.3418 88.8796 26.6038V35.9114C88.6166 35.964 88.3117 35.9955 87.9856 36.0166C87.6596 36.0376 87.3546 36.0481 87.0917 36.0481C86.8288 36.0481 86.5238 36.0376 86.1977 36.0166C85.8717 35.9955 85.5562 35.9535 85.2617 35.9114V17.1806H85.2933Z" fill="white"/>
<path d="M64.1222 6.15949H60.5885L63.0916 3.65644C62.8918 3.383 62.6709 3.12008 62.4395 2.87819C62.1976 2.63629 61.9452 2.41544 61.6613 2.22613L59.1582 4.72918V1.19546C58.8322 1.14288 58.4956 1.11133 58.1486 1.11133H58.1381C57.791 1.11133 57.4545 1.14288 57.1284 1.19546V4.72918L54.6254 2.22613C54.3519 2.42595 54.089 2.64681 53.8471 2.87819C53.6052 3.12008 53.3949 3.37249 53.1951 3.65644L55.7086 6.15949H52.1749C52.1749 6.15949 52.0908 6.82206 52.0908 7.16913C52.0908 7.51619 52.1223 7.85273 52.1749 8.17876H55.7086L53.2056 10.6818C53.5947 11.2287 54.0785 11.7125 54.6359 12.1121L57.1389 9.60907V13.1428C57.465 13.1954 57.8015 13.2269 58.1486 13.2269H58.1591C58.5062 13.2269 58.8427 13.1954 59.1687 13.1428V9.60907L61.6718 12.1121C61.9452 11.9123 62.2081 11.6914 62.45 11.4601C62.6919 11.2182 62.9128 10.9658 63.1021 10.6818L60.599 8.17876H64.1328C64.1853 7.85273 64.2169 7.51619 64.2169 7.16913V7.15861C64.2064 6.82206 64.1853 6.48552 64.1222 6.15949ZM59.663 7.17964C59.663 7.63187 59.5789 8.06307 59.4316 8.46272C59.032 8.60996 58.6008 8.69409 58.1486 8.69409C57.6963 8.69409 57.2651 8.60996 56.8655 8.46272C56.7183 8.06307 56.6341 7.63187 56.6341 7.17964V7.16913C56.6341 6.71689 56.7183 6.2857 56.8655 5.88605C57.2651 5.73881 57.6963 5.65468 58.1486 5.65468C58.6008 5.65468 59.032 5.73881 59.4316 5.88605C59.5789 6.2857 59.663 6.71689 59.663 7.17964Z" fill="white"/>
</svg>
