<svg width="165" height="48" viewBox="0 0 165 48" fill="none" xmlns="http://www.w3.org/2000/svg">
<path d="M64.4551 14.8507C64.4551 14.1883 64.7182 13.553 65.1866 13.0846C65.655 12.6162 66.2904 12.353 66.9528 12.353C67.6152 12.353 68.2505 12.6162 68.7189 13.0846C69.1873 13.553 69.4504 14.1883 69.4504 14.8507C69.4263 15.497 69.1526 16.1088 68.6868 16.5575C68.2211 17.0062 67.5995 17.2569 66.9528 17.2569C66.3061 17.2569 65.6844 17.0062 65.2187 16.5575C64.7529 16.1088 64.4792 15.497 64.4551 14.8507Z" fill="white"/>
<path d="M23.4653 30.4244C21.3155 30.4244 19.8197 28.7164 19.8197 26.2744C19.8197 23.8341 21.3155 22.1279 23.467 22.1279C25.629 22.1279 27.1404 23.8341 27.1404 26.2744C27.1404 28.7547 25.662 30.4244 23.4653 30.4244ZM23.4653 18.4805C18.9152 18.4805 15.6123 21.7591 15.6123 26.2744C15.6123 30.7914 18.917 34.0683 23.4653 34.0683C28.0345 34.0683 31.3495 30.7914 31.3495 26.2761C31.3495 21.7591 28.0344 18.4805 23.467 18.4805H23.4653ZM59.6186 26.6658C59.4603 26.3595 59.2601 26.0767 59.0238 25.8257L58.8846 25.6813L59.0308 25.5422C59.2395 25.3213 59.4534 25.0604 59.6586 24.7577L63.6764 18.7884H58.7995L55.7817 23.4585C55.6112 23.7089 55.2669 23.8341 54.7504 23.8341H54.0633V15.0054C54.0633 13.24 52.9623 13 51.7744 13H49.7393L49.7445 33.8387H54.065V27.5876H54.4703C54.9625 27.5876 55.2964 27.645 55.4512 27.9128L57.8341 32.4107C58.5002 33.6317 59.1629 33.8387 60.4117 33.8387H63.7217L61.2554 29.7617L59.6204 26.6658H59.6186ZM80.5913 18.4457C78.3929 18.4457 76.9909 19.4232 76.2047 20.2494L75.9439 20.5138L75.85 20.1538C75.6204 19.2684 74.8412 18.7832 73.6706 18.7832H71.7347L71.7469 33.8335H76.0378V26.8971C76.0378 26.2187 76.1247 25.6309 76.3056 25.0934C76.7822 23.4672 78.1145 22.4566 79.779 22.4566C81.1183 22.4566 81.6419 23.1645 81.6419 24.9908V31.5463C81.6419 33.1047 82.3636 33.8335 83.9238 33.8335H85.9658L85.9589 24.2603C85.9589 20.4581 84.103 18.4475 80.5913 18.4475V18.4457ZM67.0055 18.7884H64.9722L64.9861 30.4262V33.8387H67.1551L67.2316 33.8422L68.244 33.8387H69.2493V33.8335H69.2562L69.2649 21.0756C69.2649 19.5363 68.5292 18.7901 67.0073 18.7901L67.0055 18.7884ZM40.3175 30.4244C38.1677 30.4244 36.6701 28.7164 36.6701 26.2744C36.6701 23.8341 38.1677 22.1279 40.3193 22.1279C42.476 22.1279 43.9927 23.8341 43.9927 26.2744C43.9927 28.7547 42.5143 30.4244 40.3193 30.4244H40.3175ZM40.3175 18.4805C35.7639 18.4805 32.4592 21.7591 32.4592 26.2744C32.4592 30.7914 35.764 34.0683 40.3193 34.0683C44.8815 34.0683 48.2035 30.7914 48.2035 26.2761C48.2035 21.7591 44.8815 18.4805 40.3193 18.4805" fill="white"/>
<path d="M95.0048 29.7622C92.6585 29.7622 91.8236 27.7167 91.8236 25.7983C91.8236 24.953 92.0375 22.1996 94.7804 22.1996C96.1423 22.1996 97.9563 22.5892 97.9563 25.9391C97.9563 29.0995 96.351 29.7622 95.0048 29.7622ZM100.184 18.7488C99.3704 18.7488 98.7443 19.0741 98.4295 19.6672L98.3112 19.8968L98.1129 19.7228C97.4207 19.1245 96.1788 18.4131 94.1629 18.4131C90.1503 18.4131 87.4492 21.4274 87.4492 25.9096C87.4492 30.3901 90.2443 33.5208 94.243 33.5208C95.6084 33.5208 96.6884 33.2008 97.5441 32.5538L97.8746 32.305V32.7225C97.8746 34.7331 96.5754 35.8428 94.2186 35.8428C93.0724 35.8428 92.0306 35.5645 91.3314 35.3106C90.4234 35.0358 89.8877 35.2636 89.5207 36.1768L89.1798 37.0186L88.698 38.25L88.9954 38.4083C90.5052 39.2084 92.4689 39.6867 94.243 39.6867C97.8956 39.6867 102.164 37.8169 102.164 32.5538L102.179 18.7488H100.184Z" fill="white"/>
<path d="M7.48774 30.2521L3.9952 30.2487V26.0743C3.9952 25.1803 4.34133 24.7176 5.10489 24.6098H7.48774C9.18705 24.6098 10.2863 25.6812 10.288 27.4153C10.2863 29.1964 9.21488 30.2504 7.48774 30.2504V30.2521ZM3.9952 17.8891C3.9952 16.9273 4.40222 16.4698 5.29449 16.4107H7.08253C8.61487 16.4107 9.53322 17.3273 9.53322 18.8631C9.53322 20.0319 8.90357 21.3973 7.13816 21.3973H3.9952V17.8891ZM11.9474 23.1557L11.316 22.8009L11.8673 22.3296C12.5092 21.7782 13.5824 20.5381 13.5824 18.3987C13.5824 15.1218 11.0429 13.0068 7.11035 13.0068H2.11151C1.54904 13.0273 1.01605 13.2635 0.622944 13.6663C0.229838 14.0691 0.00677353 14.6077 0 15.1705V33.7638H7.19899C11.5699 33.7638 14.3911 31.3844 14.3911 27.6988C14.3911 25.7143 13.4797 24.0184 11.9474 23.1557Z" fill="white"/>
<path d="M103.863 31.5084C103.863 30.1221 104.98 29.002 106.356 29.002C107.02 29.002 107.657 29.2659 108.127 29.7356C108.596 30.2053 108.86 30.8424 108.86 31.5066C108.86 32.1709 108.596 32.8079 108.127 33.2777C107.657 33.7474 107.02 34.0112 106.356 34.0112C104.982 34.0112 103.863 32.8894 103.863 31.5066" fill="white"/>
<path d="M132.284 30.4243C130.134 30.4243 128.635 28.7163 128.635 26.2743C128.635 23.8341 130.134 22.1278 132.284 22.1278C134.444 22.1278 135.959 23.8341 135.959 26.2743C135.959 28.7546 134.48 30.4243 132.284 30.4243ZM132.284 18.4805C127.73 18.4805 124.427 21.7591 124.427 26.2743C124.427 30.7913 127.73 34.0682 132.284 34.0682C136.848 34.0682 140.168 30.7913 140.168 26.2761C140.168 21.7591 136.846 18.4805 132.284 18.4805Z" fill="white"/>
<path d="M159.334 18.4961C158.448 18.4993 157.574 18.7015 156.777 19.0878C155.98 19.474 155.279 20.0344 154.728 20.7276L154.418 21.1207L154.175 20.6806C153.378 19.2318 152.011 18.4961 150.11 18.4961C148.115 18.4961 146.777 19.6092 146.157 20.2702L145.75 20.7102L145.593 20.131C145.367 19.2961 144.624 18.8387 143.501 18.8387H141.697L141.679 33.8316H145.776V27.2135C145.776 26.6326 145.849 26.0603 145.993 25.4603C146.384 23.8601 147.459 22.1399 149.266 22.3121C150.38 22.42 150.926 23.2809 150.926 24.9437V33.8316H155.051V27.2135C155.051 26.4882 155.119 25.9456 155.283 25.4029C155.613 23.8758 156.737 22.3104 158.48 22.3104C159.742 22.3104 160.208 23.0235 160.208 24.9437V31.6401C160.208 33.1533 160.883 33.8316 162.398 33.8316H164.325L164.329 24.2602C164.329 20.4354 162.645 18.4961 159.334 18.4961ZM122.053 28.6258C122.041 28.6415 120.279 30.4991 117.957 30.4991C115.842 30.4991 113.706 29.2015 113.706 26.3056C113.706 23.8045 115.362 22.0564 117.734 22.0564C118.503 22.0564 119.38 22.3313 119.517 22.7956L119.536 22.8739C119.624 23.1936 119.815 23.4755 120.079 23.6758C120.343 23.8761 120.666 23.9837 120.997 23.9819L123.241 23.9853V22.0234C123.241 19.4353 119.948 18.4961 117.734 18.4961C112.996 18.4961 109.56 21.7938 109.56 26.3369C109.56 30.8765 112.958 34.1708 117.647 34.1708C121.714 34.1708 123.926 31.4974 123.947 31.4714L124.065 31.3253L122.288 28.3771L122.053 28.6258Z" fill="white"/>
</svg>
