<svg width="142" height="48" viewBox="0 0 142 48" fill="none" xmlns="http://www.w3.org/2000/svg">
<g clip-path="url(#clip0_832_152)">
<mask id="mask0_832_152" style="mask-type:luminance" maskUnits="userSpaceOnUse" x="0" y="0" width="142" height="48">
<path d="M142 0H0V48H142V0Z" fill="white"/>
</mask>
<g mask="url(#mask0_832_152)">
<path fill-rule="evenodd" clip-rule="evenodd" d="M2.4389 35.8519C-0.813008 32.6276 -0.812956 27.4 2.43899 24.1757L11.2714 15.4183C14.0205 12.6926 18.2134 12.271 21.409 14.1536C22.3976 14.7359 22.3889 16.0717 21.5759 16.8778C20.7629 17.6839 19.4358 17.6145 18.3323 17.2945C16.9192 16.8847 15.33 17.2323 14.2156 18.3374L5.38311 27.0947C3.75714 28.7069 3.75712 31.3207 5.38307 32.9329C7.00906 34.5451 9.64535 34.5451 11.2713 32.9329L28.936 15.4184C32.1881 12.194 37.4605 12.194 40.7125 15.4183L49.545 24.1757C52.797 27.3999 52.797 32.6276 49.545 35.8519C46.2931 39.0763 41.0206 39.0763 37.7686 35.8519L34.8245 32.9329L31.1443 36.5818C28.3952 39.3074 24.2023 39.729 21.0066 37.8464C20.0182 37.2641 20.0268 35.9283 20.8399 35.1222C21.6528 34.3161 22.9799 34.3854 24.0835 34.7055C25.4966 35.1153 27.0857 34.7676 28.2001 33.6626L31.9855 29.9095C33.5534 28.3549 36.0955 28.3549 37.6635 29.9095L40.7127 32.9329C42.3387 34.545 44.9749 34.545 46.6009 32.9329C48.2269 31.3207 48.2269 28.7069 46.6009 27.0947L37.7683 18.3375C36.1424 16.7253 33.5062 16.7253 31.8802 18.3375L14.2155 35.852C10.9634 39.0764 5.69087 39.0764 2.4389 35.8519Z" fill="white"/>
<path d="M85.2446 17.6797C83.1984 17.6797 81.6482 18.4124 80.6251 19.8778C79.726 18.4124 78.2998 17.6797 76.4086 17.6797C74.4554 17.6797 73.0292 18.3513 72.099 19.7252V18.1071H68.0996V33.3722H72.099V24.7932C72.099 22.5645 73.2461 21.3433 75.0134 21.3433C76.6566 21.3433 77.6177 22.4119 77.6177 24.2437V33.3722H81.6172V24.7932C81.6172 22.5645 82.6714 21.3433 84.5006 21.3433C86.1438 21.3433 87.1048 22.4119 87.1048 24.2437V33.3722H91.1043V23.9689C91.1043 20.1526 88.8101 17.6797 85.2446 17.6797Z" fill="white"/>
<path d="M105.973 19.9084C104.764 18.4124 103.089 17.6797 100.919 17.6797C98.8423 17.6797 97.0752 18.4735 95.587 20.0305C94.1298 21.5875 93.3857 23.4804 93.3857 25.7397C93.3857 27.9989 94.1298 29.9223 95.587 31.4794C97.0752 33.0364 98.8423 33.7997 100.919 33.7997C103.089 33.7997 104.764 33.0669 105.973 31.5709V33.3722H109.972V18.1071H105.973V19.9084ZM98.5943 28.8537C97.7882 28.0294 97.3851 26.9914 97.3851 25.7397C97.3851 24.4879 97.7882 23.4499 98.5943 22.6561C99.4004 21.8318 100.423 21.4349 101.663 21.4349C102.903 21.4349 103.927 21.8318 104.733 22.6561C105.57 23.4499 105.973 24.4879 105.973 25.7397C105.973 26.9914 105.57 28.0294 104.733 28.8537C103.927 29.6476 102.903 30.0444 101.663 30.0444C100.423 30.0444 99.4004 29.6476 98.5943 28.8537Z" fill="white"/>
<path d="M124.729 20.7325V18.1069H113.103V21.8011H119.334L112.792 30.7465V33.372H125.039V29.6779H118.156L124.729 20.7325Z" fill="white"/>
<path d="M141.762 27.3578C141.855 26.7777 141.917 26.2587 141.917 25.7397C141.917 23.4499 141.174 21.557 139.685 20C138.228 18.4429 136.336 17.6797 134.073 17.6797C131.686 17.6797 129.702 18.4429 128.182 20C126.663 21.5265 125.888 23.4499 125.888 25.7397C125.888 28.06 126.663 29.9834 128.214 31.5098C129.764 33.0364 131.81 33.7997 134.383 33.7997C137.359 33.7997 139.623 32.7005 141.142 30.5329L137.918 28.7011C137.142 29.7086 135.965 30.2276 134.445 30.2276C132.058 30.2276 130.601 29.2812 130.074 27.3578H141.762ZM130.012 24.3047C130.477 22.3508 131.934 21.2212 134.073 21.2212C135.902 21.2212 137.452 22.2287 137.918 24.3047H130.012Z" fill="white"/>
</g>
</g>
<defs>
<clipPath id="clip0_832_152">
<rect width="142" height="48" fill="white"/>
</clipPath>
</defs>
</svg>
