<svg width="83" height="16" viewBox="0 0 83 16" fill="none" xmlns="http://www.w3.org/2000/svg">
<path d="M25.3598 15.1683C24.7455 15.1683 24.1911 15.0486 23.6965 14.8093C23.2019 14.5699 22.7751 14.2469 22.4161 13.84C22.0571 13.4252 21.7779 12.9625 21.5784 12.4519C21.387 11.9334 21.2912 11.4029 21.2912 10.8604C21.2912 10.294 21.3949 9.7555 21.6024 9.24494C21.8098 8.7264 22.097 8.26769 22.4639 7.86881C22.8309 7.46196 23.2617 7.14285 23.7563 6.91151C24.2589 6.67218 24.8013 6.55252 25.3837 6.55252C25.99 6.55252 26.5405 6.67617 27.0351 6.92347C27.5376 7.17078 27.9644 7.50184 28.3155 7.91668C28.6744 8.33151 28.9497 8.79421 29.1411 9.30477C29.3406 9.81533 29.4403 10.3379 29.4403 10.8724C29.4403 11.4388 29.3366 11.9812 29.1292 12.4998C28.9297 13.0103 28.6465 13.469 28.2796 13.8759C27.9126 14.2748 27.4778 14.5899 26.9752 14.8212C26.4806 15.0526 25.9421 15.1683 25.3598 15.1683ZM22.6554 10.8604C22.6554 11.2593 22.7192 11.6462 22.8469 12.0211C22.9745 12.3961 23.154 12.7311 23.3853 13.0263C23.6247 13.3135 23.9119 13.5408 24.2469 13.7084C24.582 13.8759 24.9569 13.9597 25.3717 13.9597C25.8025 13.9597 26.1855 13.8719 26.5205 13.6964C26.8556 13.5209 27.1348 13.2856 27.3582 12.9904C27.5895 12.6872 27.765 12.3522 27.8847 11.9852C28.0043 11.6103 28.0642 11.2353 28.0642 10.8604C28.0642 10.4615 28.0003 10.0786 27.8727 9.71162C27.753 9.33668 27.5735 9.00561 27.3342 8.71842C27.0949 8.42325 26.8077 8.1919 26.4726 8.02437C26.1456 7.85684 25.7786 7.77308 25.3717 7.77308C24.941 7.77308 24.558 7.86083 24.223 8.03634C23.8879 8.21185 23.6047 8.44718 23.3734 8.74235C23.142 9.03752 22.9625 9.36859 22.8349 9.73556C22.7152 10.1025 22.6554 10.4775 22.6554 10.8604Z" fill="#FAFAFA"/>
<path d="M34.3698 15.1683C33.6918 15.1683 33.1174 15.0526 32.6467 14.8212C32.184 14.5899 31.8091 14.2748 31.5219 13.8759C31.2427 13.477 31.0352 13.0223 30.8996 12.5117C30.772 12.0012 30.7082 11.4707 30.7082 10.9202V6.61235H32.0484V10.9202C32.0484 11.3111 32.0883 11.6901 32.168 12.057C32.2478 12.416 32.3755 12.7391 32.551 13.0263C32.7265 13.3135 32.9618 13.5408 33.257 13.7084C33.5601 13.8759 33.9311 13.9597 34.3698 13.9597C34.8166 13.9597 35.1875 13.8759 35.4827 13.7084C35.7859 13.5329 36.0212 13.3015 36.1887 13.0143C36.3642 12.7192 36.4919 12.3921 36.5716 12.0331C36.6514 11.6741 36.6913 11.3031 36.6913 10.9202V6.61235H38.0435V10.9202C38.0435 11.5026 37.9717 12.053 37.8281 12.5716C37.6925 13.0821 37.4771 13.5329 37.1819 13.9238C36.8947 14.3067 36.5198 14.6098 36.0571 14.8332C35.5944 15.0566 35.032 15.1683 34.3698 15.1683Z" fill="#FAFAFA"/>
<path d="M41.1662 9.10134V15.1084H39.8259V6.61235H40.9268L45.7373 12.7511V6.62431H47.0895V15.1084H45.9168L41.1662 9.10134Z" fill="#FAFAFA"/>
<path d="M55.2338 7.79701H52.4097V15.1084H51.0575V7.79701H48.2215V6.61235H55.2338V7.79701Z" fill="#FAFAFA"/>
<path d="M58.0315 6.61235H59.3L62.6027 15.1084H61.1906L60.2932 12.7989H57.0144L56.1289 15.1084H54.7049L58.0315 6.61235ZM60.0299 11.8057L58.6658 8.0842L57.2537 11.8057H60.0299Z" fill="#FAFAFA"/>
<path d="M63.6534 15.1084V6.61235H64.9936V15.1084H63.6534Z" fill="#FAFAFA"/>
<path d="M68.254 9.10134V15.1084H66.9137V6.61235H68.0146L72.8251 12.7511V6.62431H74.1773V15.1084H73.0046L68.254 9.10134Z" fill="#FAFAFA"/>
<path d="M81.113 8.61072C81.0332 8.52297 80.9175 8.43123 80.7659 8.3355C80.6144 8.23179 80.4349 8.13606 80.2275 8.04831C80.0201 7.96055 79.7967 7.88876 79.5574 7.83291C79.318 7.77707 79.0707 7.74915 78.8154 7.74915C78.257 7.74915 77.8422 7.85286 77.5709 8.06027C77.2997 8.26769 77.1641 8.55488 77.1641 8.92185C77.1641 9.19308 77.2399 9.40848 77.3914 9.56803C77.543 9.7196 77.7744 9.84724 78.0855 9.95095C78.3966 10.0547 78.7875 10.1663 79.2582 10.286C79.8326 10.4216 80.3312 10.5852 80.754 10.7766C81.1768 10.9601 81.4999 11.2074 81.7233 11.5185C81.9466 11.8297 82.0583 12.2405 82.0583 12.7511C82.0583 13.1819 81.9785 13.5528 81.819 13.8639C81.6594 14.1751 81.4361 14.4303 81.1489 14.6298C80.8617 14.8212 80.5306 14.9648 80.1557 15.0606C79.7807 15.1483 79.3779 15.1922 78.9471 15.1922C78.5243 15.1922 78.1014 15.1483 77.6786 15.0606C77.2638 14.9728 76.8649 14.8452 76.482 14.6776C76.1071 14.5021 75.76 14.2907 75.4409 14.0434L76.0512 12.8947C76.1549 12.9984 76.3025 13.114 76.494 13.2417C76.6934 13.3613 76.9208 13.477 77.1761 13.5887C77.4393 13.7004 77.7225 13.7961 78.0257 13.8759C78.3368 13.9477 78.6519 13.9836 78.971 13.9836C79.5055 13.9836 79.9123 13.8919 80.1916 13.7084C80.4788 13.5169 80.6224 13.2457 80.6224 12.8947C80.6224 12.6075 80.5306 12.3801 80.3471 12.2126C80.1636 12.0371 79.8964 11.8895 79.5454 11.7698C79.1944 11.6502 78.7756 11.5305 78.2889 11.4108C77.7305 11.2593 77.2638 11.0957 76.8889 10.9202C76.5139 10.7367 76.2307 10.5054 76.0393 10.2262C75.8558 9.93898 75.764 9.576 75.764 9.13724C75.764 8.57881 75.8997 8.10814 76.1709 7.72522C76.4421 7.33432 76.8091 7.04314 77.2718 6.85167C77.7425 6.65224 78.269 6.55252 78.8513 6.55252C79.2343 6.55252 79.5972 6.59639 79.9403 6.68415C80.2833 6.76392 80.6024 6.87561 80.8976 7.0192C81.2007 7.1628 81.4759 7.32634 81.7233 7.50982L81.113 8.61072Z" fill="#FAFAFA"/>
<path d="M13.7782 14.8652H12.443L10.42 9.76726L8.37679 14.8652H7.02137L9.5299 8.73552L6.77861 2.24166L1.57948 14.9664H0.0419922L6.13125 0.603027H7.38551L10.3998 7.70379L13.4343 0.603027H14.6683L20.7374 14.9664H19.2201L14.0008 2.24166L11.2697 8.73552L13.7782 14.8652Z" fill="#FAFAFA"/>
</svg>
