<svg width="872" height="169" viewBox="0 0 872 169" fill="none" xmlns="http://www.w3.org/2000/svg">
<path d="M168.2 160.8C155.03 160.8 144.641 156.703 137.032 148.509C129.57 140.315 125.839 128.097 125.839 111.855V49.3008H149.104V109.44C149.104 130.511 157.737 141.046 175.004 141.046C183.637 141.046 190.734 137.974 196.294 131.828C201.854 125.682 204.634 116.903 204.634 105.489V49.3008H227.9V158.166H207.268L205.512 139.071C202.147 145.802 197.172 151.143 190.587 155.094C184.149 158.898 176.686 160.8 168.2 160.8Z" fill="#FAFAFA"/>
<path d="M308.417 160.8C297.736 160.8 288.225 158.459 279.884 153.777C271.69 148.948 265.252 142.29 260.569 133.803C255.887 125.316 253.546 115.44 253.546 104.173C253.546 92.7592 255.814 82.736 260.35 74.1028C265.032 65.4697 271.47 58.7388 279.665 53.91C288.005 49.0813 297.663 46.667 308.637 46.667C319.319 46.667 328.61 49.0813 336.512 53.91C344.413 58.5924 350.559 64.8844 354.949 72.7859C359.338 80.6875 361.533 89.3938 361.533 98.9049C361.533 100.368 361.46 101.978 361.314 103.734C361.314 105.343 361.241 107.172 361.094 109.221H276.372C277.104 119.756 280.543 127.804 286.688 133.364C292.98 138.778 300.223 141.485 308.417 141.485C315.002 141.485 320.489 140.022 324.879 137.096C329.415 134.023 332.78 129.926 334.975 124.804H358.241C355.315 135.047 349.462 143.607 340.682 150.484C332.049 157.362 321.294 160.8 308.417 160.8ZM308.417 65.7623C300.662 65.7623 293.785 68.1035 287.786 72.7859C281.786 77.322 278.128 84.1992 276.811 93.4177H338.268C337.829 84.9309 334.829 78.1999 329.269 73.2249C323.708 68.2499 316.758 65.7623 308.417 65.7623Z" fill="#FAFAFA"/>
<path d="M429.132 160.8C415.377 160.8 404.037 157.435 395.111 150.704C386.186 143.973 381.064 135.047 379.747 123.926H403.232C404.403 128.901 407.183 133.218 411.573 136.876C415.963 140.388 421.742 142.144 428.912 142.144C435.936 142.144 441.057 140.681 444.276 137.754C447.496 134.828 449.105 131.462 449.105 127.658C449.105 122.097 446.837 118.366 442.301 116.464C437.911 114.415 431.766 112.586 423.864 110.977C417.719 109.66 411.573 107.904 405.427 105.709C399.428 103.514 394.38 100.441 390.283 96.4905C386.332 92.3934 384.357 86.9062 384.357 80.029C384.357 70.5179 388.015 62.6164 395.331 56.3244C402.647 49.8861 412.89 46.667 426.059 46.667C438.204 46.667 448.008 49.5935 455.47 55.4465C463.079 61.2994 467.542 69.5668 468.859 80.2485H446.471C445.74 75.5661 443.545 71.908 439.887 69.2741C436.375 66.6403 431.619 65.3234 425.62 65.3234C419.767 65.3234 415.231 66.5671 412.012 69.0546C408.793 71.3958 407.183 74.4687 407.183 78.2731C407.183 82.0775 409.378 85.0772 413.768 87.2721C418.304 89.4669 424.23 91.4423 431.546 93.1982C438.862 94.8078 445.593 96.71 451.739 98.9049C458.031 100.953 463.079 104.026 466.884 108.123C470.688 112.22 472.59 118.22 472.59 126.121C472.737 136.071 468.859 144.339 460.957 150.923C453.202 157.508 442.594 160.8 429.132 160.8Z" fill="#FAFAFA"/>
<path d="M539.57 158.166C528.888 158.166 520.401 155.606 514.109 150.484C507.817 145.217 504.671 135.925 504.671 122.609V68.8352H486.015V49.3008H504.671L507.525 21.6455H527.937V49.3008H558.665V68.8352H527.937V122.609C527.937 128.609 529.181 132.779 531.668 135.12C534.302 137.315 538.765 138.413 545.057 138.413H557.568V158.166H539.57Z" fill="#FAFAFA"/>
<path d="M595.824 28.669C591.434 28.669 587.776 27.3521 584.849 24.7183C582.069 21.9381 580.679 18.4995 580.679 14.4024C580.679 10.3053 582.069 6.93984 584.849 4.30599C587.776 1.52583 591.434 0.135742 595.824 0.135742C600.213 0.135742 603.798 1.52583 606.578 4.30599C609.505 6.93984 610.968 10.3053 610.968 14.4024C610.968 18.4995 609.505 21.9381 606.578 24.7183C603.798 27.3521 600.213 28.669 595.824 28.669ZM584.191 158.166V49.3008H607.456V158.166H584.191Z" fill="#FAFAFA"/>
<path d="M689.09 160.8C678.701 160.8 669.336 158.459 660.996 153.777C652.802 148.948 646.29 142.29 641.461 133.803C636.633 125.17 634.218 115.147 634.218 103.734C634.218 92.3203 636.633 82.3702 641.461 73.8834C646.436 65.2502 653.094 58.5924 661.435 53.91C669.775 49.0813 679.067 46.667 689.31 46.667C699.699 46.667 708.99 49.0813 717.184 53.91C725.525 58.5924 732.11 65.2502 736.938 73.8834C741.913 82.3702 744.401 92.3203 744.401 103.734C744.401 115.147 741.913 125.17 736.938 133.803C732.11 142.29 725.525 148.948 717.184 153.777C708.844 158.459 699.479 160.8 689.09 160.8ZM689.09 140.827C694.65 140.827 699.772 139.437 704.454 136.657C709.283 133.876 713.161 129.779 716.087 124.365C719.014 118.805 720.477 111.928 720.477 103.734C720.477 95.5394 719.014 88.7353 716.087 83.3213C713.307 77.761 709.502 73.5907 704.674 70.8105C699.991 68.0304 694.87 66.6403 689.31 66.6403C683.749 66.6403 678.555 68.0304 673.726 70.8105C669.044 73.5907 665.239 77.761 662.313 83.3213C659.386 88.7353 657.923 95.5394 657.923 103.734C657.923 111.928 659.386 118.805 662.313 124.365C665.239 129.779 669.044 133.876 673.726 136.657C678.408 139.437 683.53 140.827 689.09 140.827Z" fill="#FAFAFA"/>
<path d="M769.561 158.166V49.3008H790.193L791.949 68.3962C795.314 61.6653 800.216 56.3976 806.655 52.5931C813.239 48.6424 820.775 46.667 829.262 46.667C842.431 46.667 852.747 50.7641 860.209 58.9582C867.818 67.1524 871.623 79.3705 871.623 95.6126V158.166H848.577V98.0269C848.577 76.9562 839.943 66.4208 822.677 66.4208C814.044 66.4208 806.874 69.4936 801.167 75.6393C795.607 81.7849 792.827 90.5644 792.827 101.978V158.166H769.561Z" fill="#FAFAFA"/>
<path d="M74.003 121.648L74.8809 85.8712H66.5404C58.6389 85.8712 51.3958 85.1396 44.8112 83.6763C38.0803 82.2131 32.7394 79.3597 28.7887 75.1163C24.6916 70.8729 22.643 64.5809 22.643 56.2404C22.643 48.1926 25.1306 41.9006 30.1056 37.3646C35.0806 32.6822 41.5921 30.341 49.6399 30.341C57.9804 30.341 64.565 32.609 69.3938 37.1451C74.2225 41.6811 76.6368 47.8268 76.6368 55.582H98.5855C98.7318 46.8025 96.8296 39.0473 92.8789 32.3164C88.7818 25.5854 83.0751 20.3177 75.7589 16.5133C68.2963 12.7089 59.59 10.8066 49.6399 10.8066C39.9825 10.8066 31.4225 12.6357 23.96 16.2938C16.4974 19.9519 10.7176 25.2196 6.62049 32.0969C2.37708 38.8278 0.255371 46.9488 0.255371 56.4599C0.255371 66.849 2.5234 75.409 7.05946 82.1399C11.5955 88.7245 17.8143 93.6264 25.7159 96.8455C33.6174 99.9183 42.6895 101.455 52.9322 101.455L53.5907 121.648H74.003ZM63.6871 168.398C68.2232 168.398 71.8813 167.008 74.6614 164.228C77.4416 161.302 78.8317 157.863 78.8317 153.912C78.8317 149.815 77.4416 146.376 74.6614 143.596C71.8813 140.67 68.2232 139.206 63.6871 139.206C59.4437 139.206 55.9319 140.67 53.1517 143.596C50.2252 146.376 48.762 149.815 48.762 153.912C48.762 157.863 50.2252 161.302 53.1517 164.228C55.9319 167.008 59.4437 168.398 63.6871 168.398Z" fill="#FAFAFA"/>
</svg>
