<svg width="100" height="20" viewBox="0 0 100 20" fill="none" xmlns="http://www.w3.org/2000/svg">
<path d="M19.8548 18.3968C18.3668 18.3968 17.1929 17.9339 16.3332 17.008C15.49 16.0822 15.0684 14.7016 15.0684 12.8664V5.79838H17.6972V12.5936C17.6972 14.9744 18.6726 16.1648 20.6236 16.1648C21.5991 16.1648 22.4009 15.8176 23.0292 15.1232C23.6575 14.4288 23.9716 13.4368 23.9716 12.1472V5.79838H26.6004V18.0992H24.2692L24.0708 15.9416C23.6905 16.7022 23.1284 17.3056 22.3844 17.752C21.6569 18.1819 20.8137 18.3968 19.8548 18.3968Z" fill="#FAFAFA"/>
<path d="M35.6982 18.3968C34.4912 18.3968 33.4166 18.1323 32.4741 17.6032C31.5483 17.0576 30.8208 16.3054 30.2917 15.3464C29.7627 14.3875 29.4981 13.2715 29.4981 11.9984C29.4981 10.7088 29.7544 9.57626 30.2669 8.60079C30.796 7.62532 31.5235 6.86479 32.4493 6.31919C33.3918 5.77358 34.483 5.50078 35.723 5.50078C36.9299 5.50078 37.9798 5.77358 38.8726 6.31919C39.7654 6.84825 40.4598 7.55919 40.9558 8.45199C41.4518 9.3448 41.6998 10.3285 41.6998 11.4032C41.6998 11.5685 41.6915 11.7504 41.675 11.9488C41.675 12.1307 41.6667 12.3373 41.6502 12.5688H32.0773C32.16 13.7592 32.5485 14.6685 33.2429 15.2968C33.9539 15.9086 34.7723 16.2144 35.6982 16.2144C36.4422 16.2144 37.0622 16.0491 37.5582 15.7184C38.0707 15.3712 38.451 14.9083 38.699 14.3296H41.3278C40.9971 15.487 40.3358 16.4542 39.3438 17.2312C38.3683 18.0083 37.1531 18.3968 35.6982 18.3968ZM35.6982 7.65839C34.8219 7.65839 34.0448 7.92292 33.367 8.45199C32.6891 8.96453 32.2757 9.7416 32.1269 10.7832H39.071C39.0214 9.82427 38.6824 9.06373 38.0542 8.50159C37.4259 7.93946 36.6406 7.65839 35.6982 7.65839Z" fill="#FAFAFA"/>
<path d="M49.3378 18.3968C47.7837 18.3968 46.5023 18.0166 45.4938 17.256C44.4853 16.4955 43.9066 15.487 43.7578 14.2304H46.4114C46.5437 14.7925 46.8578 15.2803 47.3538 15.6936C47.8498 16.0904 48.5029 16.2888 49.313 16.2888C50.1066 16.2888 50.6853 16.1235 51.049 15.7928C51.4128 15.4622 51.5946 15.0819 51.5946 14.652C51.5946 14.0237 51.3384 13.6021 50.8258 13.3872C50.3298 13.1557 49.6354 12.9491 48.7426 12.7672C48.0482 12.6184 47.3538 12.42 46.6594 12.172C45.9815 11.924 45.4111 11.5768 44.9482 11.1304C44.5018 10.6675 44.2786 10.0475 44.2786 9.2704C44.2786 8.19573 44.6919 7.30292 45.5186 6.59199C46.3453 5.86452 47.5026 5.50078 48.9906 5.50078C50.3629 5.50078 51.4706 5.83145 52.3138 6.49279C53.1736 7.15412 53.6778 8.08826 53.8266 9.2952H51.297C51.2144 8.76613 50.9664 8.35279 50.553 8.05519C50.1562 7.75759 49.6189 7.60879 48.941 7.60879C48.2797 7.60879 47.7671 7.74932 47.4034 8.03039C47.0397 8.29493 46.8578 8.64213 46.8578 9.072C46.8578 9.50186 47.1058 9.8408 47.6018 10.0888C48.1143 10.3368 48.784 10.56 49.6106 10.7584C50.4373 10.9403 51.1978 11.1552 51.8922 11.4032C52.6032 11.6347 53.1736 11.9819 53.6034 12.4448C54.0333 12.9077 54.2482 13.5856 54.2482 14.4784C54.2648 15.6027 53.8266 16.5368 52.9338 17.2808C52.0576 18.0248 50.8589 18.3968 49.3378 18.3968Z" fill="#FAFAFA"/>
<path d="M61.8163 18.0992C60.6094 18.0992 59.6505 17.8099 58.9395 17.2312C58.2286 16.636 57.8731 15.5862 57.8731 14.0816V8.00559H55.7651V5.79838H57.8731L58.1955 2.67357H60.5019V5.79838H63.9739V8.00559H60.5019V14.0816C60.5019 14.7595 60.6425 15.2307 60.9235 15.4952C61.2211 15.7432 61.7254 15.8672 62.4363 15.8672H63.8499V18.0992H61.8163Z" fill="#FAFAFA"/>
<path d="M68.1725 3.46718C67.6765 3.46718 67.2632 3.31837 66.9325 3.02077C66.6184 2.70664 66.4613 2.3181 66.4613 1.85517C66.4613 1.39223 66.6184 1.01197 66.9325 0.714366C67.2632 0.400231 67.6765 0.243164 68.1725 0.243164C68.6685 0.243164 69.0736 0.400231 69.3877 0.714366C69.7184 1.01197 69.8837 1.39223 69.8837 1.85517C69.8837 2.3181 69.7184 2.70664 69.3877 3.02077C69.0736 3.31837 68.6685 3.46718 68.1725 3.46718ZM66.8581 18.0992V5.79838H69.4869V18.0992H66.8581Z" fill="#FAFAFA"/>
<path d="M78.7108 18.3968C77.5369 18.3968 76.4788 18.1323 75.5364 17.6032C74.6105 17.0576 73.8748 16.3054 73.3292 15.3464C72.7836 14.3709 72.5108 13.2384 72.5108 11.9488C72.5108 10.6592 72.7836 9.53493 73.3292 8.57599C73.8913 7.60052 74.6436 6.84825 75.586 6.31919C76.5284 5.77358 77.5783 5.50078 78.7356 5.50078C79.9095 5.50078 80.9594 5.77358 81.8852 6.31919C82.8276 6.84825 83.5716 7.60052 84.1172 8.57599C84.6794 9.53493 84.9604 10.6592 84.9604 11.9488C84.9604 13.2384 84.6794 14.3709 84.1172 15.3464C83.5716 16.3054 82.8276 17.0576 81.8852 17.6032C80.9428 18.1323 79.8847 18.3968 78.7108 18.3968ZM78.7108 16.14C79.3391 16.14 79.9178 15.983 80.4468 15.6688C80.9924 15.3547 81.4306 14.8918 81.7612 14.28C82.0919 13.6517 82.2572 12.8747 82.2572 11.9488C82.2572 11.0229 82.0919 10.2541 81.7612 9.6424C81.4471 9.01413 81.0172 8.54293 80.4716 8.22879C79.9426 7.91466 79.3639 7.75759 78.7356 7.75759C78.1073 7.75759 77.5204 7.91466 76.9748 8.22879C76.4457 8.54293 76.0159 9.01413 75.6852 9.6424C75.3545 10.2541 75.1892 11.0229 75.1892 11.9488C75.1892 12.8747 75.3545 13.6517 75.6852 14.28C76.0159 14.8918 76.4457 15.3547 76.9748 15.6688C77.5039 15.983 78.0825 16.14 78.7108 16.14Z" fill="#FAFAFA"/>
<path d="M87.8033 18.0992V5.79838H90.1346L90.333 7.95599C90.7132 7.19546 91.2671 6.60025 91.9946 6.17038C92.7386 5.72398 93.59 5.50078 94.549 5.50078C96.037 5.50078 97.2026 5.96372 98.0458 6.88959C98.9055 7.81546 99.3354 9.196 99.3354 11.0312V18.0992H96.7314V11.304C96.7314 8.92319 95.7559 7.73279 93.805 7.73279C92.8295 7.73279 92.0194 8.07999 91.3746 8.77439C90.7463 9.4688 90.4322 10.4608 90.4322 11.7504V18.0992H87.8033Z" fill="#FAFAFA"/>
<path d="M9.21076 13.9733L9.30996 9.93085H8.36756C7.47475 9.93085 6.65635 9.84818 5.91235 9.68285C5.15181 9.51751 4.54834 9.19511 4.10194 8.71564C3.63901 8.23618 3.40754 7.52524 3.40754 6.58284C3.40754 5.6735 3.68861 4.96256 4.25074 4.45003C4.81288 3.92096 5.54861 3.65643 6.45795 3.65643C7.40035 3.65643 8.14436 3.91269 8.68996 4.42523C9.23556 4.93776 9.50836 5.63217 9.50836 6.50844H11.9884C12.0049 5.51643 11.79 4.64016 11.3436 3.87963C10.8806 3.11909 10.2358 2.52389 9.40916 2.09402C8.56596 1.66415 7.58222 1.44922 6.45795 1.44922C5.36675 1.44922 4.39954 1.65589 3.55634 2.06922C2.71314 2.48255 2.06007 3.07776 1.59713 3.85483C1.11766 4.61536 0.87793 5.53297 0.87793 6.60764C0.87793 7.78151 1.1342 8.74871 1.64673 9.50925C2.15927 10.2533 2.86194 10.8071 3.75474 11.1709C4.64754 11.5181 5.67261 11.6917 6.82995 11.6917L6.90435 13.9733H9.21076ZM8.04516 19.2557C8.55769 19.2557 8.97103 19.0986 9.28516 18.7845C9.59929 18.4538 9.75636 18.0653 9.75636 17.6189C9.75636 17.1559 9.59929 16.7674 9.28516 16.4533C8.97103 16.1226 8.55769 15.9573 8.04516 15.9573C7.56569 15.9573 7.16889 16.1226 6.85475 16.4533C6.52408 16.7674 6.35875 17.1559 6.35875 17.6189C6.35875 18.0653 6.52408 18.4538 6.85475 18.7845C7.16889 19.0986 7.56569 19.2557 8.04516 19.2557Z" fill="#FAFAFA"/>
</svg>
