<svg width="63" height="18" viewBox="0 0 63 18" fill="none" xmlns="http://www.w3.org/2000/svg">
<path d="M12.0674 0.243164H0.831055V16.7386H3.31001V9.30178H11.2102V7.124H3.31001V2.46727H12.0674V0.243164Z" fill="#FAFAFA"/>
<path d="M23.6711 14.9547C23.2309 14.9547 23.0224 14.7694 23.0224 14.3524V8.02755C23.0224 5.6876 21.447 4.50604 18.2961 4.50604C15.0758 4.50604 13.3846 5.84977 13.2224 8.51407H15.516C15.5623 7.72637 15.8172 7.17034 16.2342 6.84599C16.6512 6.52164 17.3231 6.35947 18.2961 6.35947C19.1765 6.35947 19.8021 6.49847 20.1727 6.77649C20.5434 7.0545 20.7519 7.47152 20.7519 8.07388C20.7519 8.53724 20.5898 8.88476 20.3117 9.11644C20.0337 9.34811 19.5704 9.51029 18.968 9.57979L17.2073 9.76513C14.1954 10.0895 12.7127 11.3174 12.7127 13.472C12.7127 14.584 13.0834 15.4644 13.8479 16.0899C14.6125 16.7155 15.655 17.0167 16.9756 17.0167C18.7595 17.0167 20.0569 16.3911 20.8678 15.1169C20.9373 15.7193 21.1458 16.1363 21.5165 16.4143C21.8872 16.6923 22.4432 16.8081 23.1846 16.8081C23.6016 16.8081 23.9723 16.785 24.3198 16.7386V14.9547H23.6711ZM17.3231 15.2096C16.5817 15.2096 16.0257 15.0706 15.655 14.7462C15.2843 14.4219 15.099 13.9817 15.099 13.4025C15.099 12.8465 15.2843 12.4063 15.6782 12.0819C16.0489 11.7576 16.6976 11.5491 17.6011 11.4332L19.2692 11.2479C19.9642 11.1784 20.4508 11.0162 20.7519 10.7613V12.0124C20.7519 13.0318 20.4276 13.8195 19.7789 14.3755C19.1302 14.9316 18.2961 15.2096 17.3231 15.2096Z" fill="#FAFAFA"/>
<path d="M50.5615 4.50604C48.9629 4.50604 47.7118 5.20108 46.8083 6.56798V4.78405H44.5842V16.7386H46.901V9.99681C46.901 8.88476 47.2022 8.02755 47.8277 7.42519C48.43 6.84599 49.1251 6.54481 49.9128 6.54481C51.5809 6.54481 52.4381 7.37885 52.4381 9.04693V16.7386H54.7549V8.72258C54.7549 7.37885 54.3842 6.35947 53.6428 5.6181C52.9014 4.87673 51.8589 4.50604 50.5615 4.50604Z" fill="#FAFAFA"/>
<path d="M62.6135 4.78405H60.204V1.35522H57.8872V4.78405H55.9643V6.68382H57.8872V14.0743C57.8872 15.0474 58.1421 15.7424 58.6981 16.1595C59.2309 16.5996 60.065 16.8081 61.2002 16.8081C61.6172 16.8081 62.1038 16.785 62.6135 16.7386V14.8852H61.5709C61.0612 14.8852 60.7137 14.8157 60.5052 14.6535C60.2967 14.4914 60.204 14.2365 60.204 13.8658V6.68382H62.6135V4.78405Z" fill="#FAFAFA"/>
<path d="M28.8452 14.3477H26.3662V16.7108H28.8452V14.3477ZM42.491 14.3708H30.5364V16.6876H42.491V14.3708Z" fill="#FAFAFA"/>
</svg>
