<svg width="105" height="46" viewBox="0 0 105 46" fill="none" xmlns="http://www.w3.org/2000/svg">
<path d="M7.42054 3.06139H3.35824V19.3106H6.60808V21.748H3.35824V44.4969H0.108398V0.624005H7.42054V3.06139Z" fill="#FAFAFA"/>
<path d="M18.795 44.4969H15.5451L15.1389 33.9349H12.7269L12.2953 44.4969H9.04546L11.4828 0.624005H16.3576L18.795 44.4969ZM13.9202 2.24893L13.1078 21.748L12.7269 31.4975H15.1389L13.9202 2.24893Z" fill="#FAFAFA"/>
<path d="M30.9819 18.4981H27.732V4.68631C27.732 4.28008 27.6813 3.95001 27.5797 3.69612C27.4951 3.4253 27.3766 3.22219 27.2243 3.08678C27.0719 2.93444 26.8942 2.83288 26.6911 2.7821C26.5049 2.7144 26.3102 2.68054 26.1071 2.68054C25.904 2.68054 25.7009 2.7144 25.4978 2.7821C25.3116 2.83288 25.1423 2.93444 24.99 3.08678C24.8377 3.22219 24.7107 3.4253 24.6091 3.69612C24.5245 3.95001 24.4822 4.28008 24.4822 4.68631V40.4346C24.4822 40.6377 24.4907 40.8831 24.5076 41.1708C24.5245 41.4417 24.5838 41.704 24.6853 41.9579C24.7869 42.2118 24.9477 42.4319 25.1677 42.618C25.3878 42.7873 25.7009 42.8719 26.1071 42.8719C26.5134 42.8719 26.8265 42.7873 27.0465 42.618C27.2666 42.4319 27.4274 42.2118 27.5289 41.9579C27.6305 41.704 27.6897 41.4417 27.7067 41.1708C27.7236 40.8831 27.732 40.6377 27.732 40.4346V23.3729H30.9819V40.4346C30.9819 40.6377 30.9565 41.0101 30.9057 41.5517C30.8549 42.0764 30.6772 42.618 30.3725 43.1766C30.0679 43.7352 29.5855 44.226 28.9253 44.6492C28.2652 45.0893 27.3258 45.3093 26.1071 45.3093C24.8884 45.3093 23.949 45.0893 23.2889 44.6492C22.6288 44.226 22.1464 43.7352 21.8417 43.1766C21.537 42.618 21.3593 42.0764 21.3085 41.5517C21.2577 41.0101 21.2324 40.6377 21.2324 40.4346V4.68631C21.2324 3.9077 21.3762 3.23911 21.664 2.68054C21.9517 2.10505 22.3241 1.63958 22.7811 1.28413C23.255 0.928677 23.7798 0.66632 24.3553 0.497058C24.9307 0.327795 25.5147 0.243164 26.1071 0.243164C26.7334 0.243164 27.3343 0.336258 27.9098 0.522447C28.5022 0.708636 29.0269 0.987919 29.4839 1.3603C29.9409 1.73267 30.3048 2.19815 30.5757 2.75671C30.8465 3.31528 30.9819 3.95848 30.9819 4.68631V18.4981Z" fill="#FAFAFA"/>
<path d="M43.1688 0.624005V3.06139H39.9189V44.4969H36.6691V3.06139H33.4193V0.624005H43.1688Z" fill="#FAFAFA"/>
<path d="M55.3557 40.4346C55.3557 40.6377 55.3303 41.0101 55.2795 41.5517C55.2287 42.0764 55.051 42.618 54.7463 43.1766C54.4417 43.7352 53.9593 44.226 53.2992 44.6492C52.639 45.0893 51.6996 45.3093 50.4809 45.3093C49.2622 45.3093 48.3228 45.0893 47.6627 44.6492C47.0026 44.226 46.5202 43.7352 46.2155 43.1766C45.9108 42.618 45.7331 42.0764 45.6823 41.5517C45.6316 41.0101 45.6062 40.6377 45.6062 40.4346V4.68631C45.6062 4.5509 45.6146 4.34778 45.6316 4.07696C45.6485 3.80614 45.6993 3.50993 45.7839 3.18833C45.8685 2.84981 46.0124 2.51128 46.2155 2.17276C46.4186 1.81731 46.6979 1.49571 47.0534 1.20796C47.4088 0.920214 47.8658 0.69171 48.4244 0.522447C48.983 0.336258 49.6685 0.243164 50.4809 0.243164C51.2934 0.243164 51.9789 0.336258 52.5375 0.522447C53.096 0.69171 53.5531 0.920214 53.9085 1.20796C54.264 1.49571 54.5432 1.81731 54.7463 2.17276C54.9495 2.51128 55.0933 2.84981 55.178 3.18833C55.2626 3.50993 55.3134 3.80614 55.3303 4.07696C55.3472 4.34778 55.3557 4.5509 55.3557 4.68631V40.4346ZM48.856 40.4346C48.856 40.6377 48.8645 40.8831 48.8814 41.1708C48.8983 41.4417 48.9576 41.704 49.0591 41.9579C49.1607 42.2118 49.3215 42.4319 49.5415 42.618C49.7616 42.7873 50.0747 42.8719 50.4809 42.8719C50.8872 42.8719 51.2003 42.7873 51.4203 42.618C51.6404 42.4319 51.8012 42.2118 51.9027 41.9579C52.0043 41.704 52.0635 41.4417 52.0805 41.1708C52.0974 40.8831 52.1059 40.6377 52.1059 40.4346V4.68631C52.1059 4.48319 52.0974 4.26315 52.0805 4.02618C52.0635 3.78921 52.0043 3.57764 51.9027 3.39145C51.8012 3.18833 51.6404 3.01907 51.4203 2.88366C51.2003 2.74825 50.8872 2.68054 50.4809 2.68054C50.0747 2.68054 49.7616 2.74825 49.5415 2.88366C49.3215 3.01907 49.1607 3.18833 49.0591 3.39145C48.9576 3.57764 48.8983 3.78921 48.8814 4.02618C48.8645 4.26315 48.856 4.48319 48.856 4.68631V40.4346Z" fill="#FAFAFA"/>
<path d="M68.3551 18.4981C68.3551 19.7168 68.1519 20.5631 67.7457 21.0371C67.3395 21.511 66.7301 21.748 65.9177 21.748C66.3239 21.748 66.6794 21.8411 66.984 22.0273C67.2887 22.2134 67.5426 22.4589 67.7457 22.7635C67.9488 23.0682 68.1012 23.4152 68.2027 23.8045C68.3043 24.1938 68.3551 24.5916 68.3551 24.9978V44.4969H65.1052V24.1854C65.1052 23.7791 65.0121 23.466 64.8259 23.2459C64.6397 23.0259 64.3943 22.8651 64.0896 22.7635C63.785 22.662 63.438 22.6027 63.0487 22.5858C62.6594 22.5689 62.2616 22.5604 61.8554 22.5604V44.4969H58.6055V0.624005H61.8554C62.6678 0.624005 63.4634 0.649394 64.242 0.700173C65.0206 0.734025 65.7146 0.877899 66.3239 1.13179C66.9332 1.38569 67.4241 1.79192 67.7965 2.35048C68.1689 2.89212 68.3551 3.67073 68.3551 4.68631V18.4981ZM65.1052 4.68631C65.1052 4.28008 65.046 3.96694 64.9275 3.7469C64.8259 3.52686 64.6482 3.36606 64.3943 3.2645C64.1404 3.16294 63.8019 3.1037 63.3787 3.08678C62.9725 3.06985 62.4647 3.06139 61.8554 3.06139V20.9355C62.2616 20.9355 62.6594 20.927 63.0487 20.9101C63.438 20.8932 63.785 20.834 64.0896 20.7324C64.3943 20.6308 64.6397 20.47 64.8259 20.25C65.0121 20.03 65.1052 19.7168 65.1052 19.3106V4.68631Z" fill="#FAFAFA"/>
<path d="M75.261 0.624005V44.4969H72.0111V0.624005H75.261Z" fill="#FAFAFA"/>
<path d="M87.8541 44.4969H84.6043L84.198 33.9349H81.786L81.3544 44.4969H78.1046L80.542 0.624005H85.4167L87.8541 44.4969ZM82.9793 2.24893L82.1669 21.748L81.786 31.4975H84.198L82.9793 2.24893Z" fill="#FAFAFA"/>
<path d="M93.5413 0.624005V42.0595H96.7912V44.4969H90.2915V0.624005H93.5413Z" fill="#FAFAFA"/>
<path d="M104.103 0.624005L102.478 37.9972H100.853L99.2286 0.624005H104.103ZM103.291 40.4346V44.4969H100.041V40.4346H103.291Z" fill="#FAFAFA"/>
</svg>
