<svg width="921" height="399" viewBox="0 0 921 399" fill="none" xmlns="http://www.w3.org/2000/svg">
<path d="M65.1264 25.0777H29.174V168.887H57.9359V190.459H29.174V391.792H0.412109V3.50628H65.1264V25.0777Z" fill="#FAFAFA"/>
<path d="M165.793 391.792H137.031L133.436 298.316H112.089L108.269 391.792H79.5073L101.079 3.50628H144.222L165.793 391.792ZM122.65 17.8872L115.46 190.459L112.089 276.744H133.436L122.65 17.8872Z" fill="#FAFAFA"/>
<path d="M273.65 161.697H244.888V39.4586C244.888 35.8634 244.439 32.9423 243.54 30.6953C242.791 28.2984 241.742 26.5008 240.394 25.3024C239.046 23.9542 237.473 23.0554 235.675 22.606C234.028 22.0068 232.305 21.7072 230.507 21.7072C228.71 21.7072 226.912 22.0068 225.114 22.606C223.467 23.0554 221.969 23.9542 220.62 25.3024C219.272 26.5008 218.149 28.2984 217.25 30.6953C216.501 32.9423 216.126 35.8634 216.126 39.4586V355.84C216.126 357.637 216.201 359.809 216.351 362.356C216.501 364.753 217.025 367.075 217.924 369.322C218.823 371.569 220.246 373.516 222.193 375.164C224.141 376.662 226.912 377.411 230.507 377.411C234.102 377.411 236.874 376.662 238.821 375.164C240.769 373.516 242.192 371.569 243.091 369.322C243.989 367.075 244.514 364.753 244.663 362.356C244.813 359.809 244.888 357.637 244.888 355.84V204.84H273.65V355.84C273.65 357.637 273.425 360.933 272.976 365.726C272.527 370.37 270.954 375.164 268.257 380.107C265.561 385.051 261.291 389.395 255.449 393.14C249.607 397.035 241.293 398.982 230.507 398.982C219.722 398.982 211.408 397.035 205.565 393.14C199.723 389.395 195.454 385.051 192.757 380.107C190.061 375.164 188.488 370.37 188.038 365.726C187.589 360.933 187.364 357.637 187.364 355.84V39.4586C187.364 32.5678 188.638 26.6506 191.184 21.7072C193.731 16.6139 197.027 12.4944 201.071 9.34854C205.266 6.20271 209.91 3.88078 215.003 2.38277C220.096 0.88475 225.264 0.135742 230.507 0.135742C236.05 0.135742 241.368 0.959651 246.461 2.60747C251.704 4.25528 256.348 6.72701 260.393 10.0226C264.437 13.3183 267.658 17.4378 270.055 22.3813C272.452 27.3247 273.65 33.0172 273.65 39.4586V161.697Z" fill="#FAFAFA"/>
<path d="M381.507 3.50628V25.0777H352.745V391.792H323.983V25.0777H295.222V3.50628H381.507Z" fill="#FAFAFA"/>
<path d="M489.364 355.84C489.364 357.637 489.14 360.933 488.69 365.726C488.241 370.37 486.668 375.164 483.971 380.107C481.275 385.051 477.006 389.395 471.163 393.14C465.321 397.035 457.007 398.982 446.222 398.982C435.436 398.982 427.122 397.035 421.28 393.14C415.437 389.395 411.168 385.051 408.472 380.107C405.775 375.164 404.202 370.37 403.753 365.726C403.303 360.933 403.079 357.637 403.079 355.84V39.4586C403.079 38.2602 403.154 36.4626 403.303 34.0658C403.453 31.669 403.903 29.0474 404.652 26.2012C405.401 23.2052 406.674 20.2092 408.472 17.2131C410.269 14.0673 412.741 11.2211 415.887 8.67443C419.033 6.1278 423.077 4.10548 428.021 2.60747C432.964 0.959651 439.031 0.135742 446.222 0.135742C453.412 0.135742 459.479 0.959651 464.422 2.60747C469.366 4.10548 473.41 6.1278 476.556 8.67443C479.702 11.2211 482.174 14.0673 483.971 17.2131C485.769 20.2092 487.042 23.2052 487.791 26.2012C488.54 29.0474 488.99 31.669 489.14 34.0658C489.289 36.4626 489.364 38.2602 489.364 39.4586V355.84ZM431.841 355.84C431.841 357.637 431.915 359.809 432.065 362.356C432.215 364.753 432.739 367.075 433.638 369.322C434.537 371.569 435.96 373.516 437.907 375.164C439.855 376.662 442.626 377.411 446.222 377.411C449.817 377.411 452.588 376.662 454.535 375.164C456.483 373.516 457.906 371.569 458.805 369.322C459.704 367.075 460.228 364.753 460.378 362.356C460.528 359.809 460.602 357.637 460.602 355.84V39.4586C460.602 37.661 460.528 35.7136 460.378 33.6164C460.228 31.5192 459.704 29.6466 458.805 27.9988C457.906 26.2012 456.483 24.7032 454.535 23.5048C452.588 22.3064 449.817 21.7072 446.222 21.7072C442.626 21.7072 439.855 22.3064 437.907 23.5048C435.96 24.7032 434.537 26.2012 433.638 27.9988C432.739 29.6466 432.215 31.5192 432.065 33.6164C431.915 35.7136 431.841 37.661 431.841 39.4586V355.84Z" fill="#FAFAFA"/>
<path d="M604.412 161.697C604.412 172.482 602.614 179.973 599.019 184.167C595.424 188.361 590.031 190.459 582.84 190.459C586.436 190.459 589.582 191.283 592.278 192.93C594.974 194.578 597.221 196.75 599.019 199.447C600.817 202.143 602.165 205.214 603.064 208.659C603.962 212.105 604.412 215.625 604.412 219.221V391.792H575.65V212.03C575.65 208.435 574.826 205.663 573.178 203.716C571.53 201.769 569.358 200.346 566.662 199.447C563.965 198.548 560.895 198.024 557.449 197.874C554.004 197.724 550.483 197.649 546.888 197.649V391.792H518.126V3.50628H546.888C554.079 3.50628 561.119 3.73098 568.01 4.18038C574.901 4.47999 581.043 5.7533 586.436 8.00032C591.829 10.2473 596.173 13.8426 599.468 18.786C602.764 23.5797 604.412 30.4706 604.412 39.4586V161.697ZM575.65 39.4586C575.65 35.8634 575.126 33.0921 574.077 31.1447C573.178 29.1972 571.605 27.7741 569.358 26.8753C567.111 25.9765 564.115 25.4522 560.37 25.3024C556.775 25.1526 552.281 25.0777 546.888 25.0777V183.268C550.483 183.268 554.004 183.193 557.449 183.043C560.895 182.894 563.965 182.369 566.662 181.471C569.358 180.572 571.53 179.149 573.178 177.201C574.826 175.254 575.65 172.482 575.65 168.887V39.4586Z" fill="#FAFAFA"/>
<path d="M665.531 3.50628V391.792H636.769V3.50628H665.531Z" fill="#FAFAFA"/>
<path d="M776.983 391.792H748.221L744.626 298.316H723.279L719.46 391.792H690.698L712.269 3.50628H755.412L776.983 391.792ZM733.841 17.8872L726.65 190.459L723.279 276.744H744.626L733.841 17.8872Z" fill="#FAFAFA"/>
<path d="M827.317 3.50628V370.22H856.079V391.792H798.555V3.50628H827.317Z" fill="#FAFAFA"/>
<path d="M920.793 3.50628L906.412 334.268H892.031L877.65 3.50628H920.793ZM913.602 355.84V391.792H884.84V355.84H913.602Z" fill="#FAFAFA"/>
</svg>
