<svg width="66" height="29" viewBox="0 0 66 29" fill="none" xmlns="http://www.w3.org/2000/svg">
<path d="M0.599609 14.7877L3.96624 14.2582C4.15537 15.6073 4.67865 16.6413 5.53607 17.36C6.40609 18.0787 7.61657 18.4381 9.16748 18.4381C10.731 18.4381 11.891 18.1228 12.6476 17.4924C13.4041 16.8493 13.7824 16.0991 13.7824 15.2417C13.7824 14.4725 13.4483 13.8673 12.78 13.426C12.3134 13.1233 11.1534 12.7388 9.29988 12.2722C6.80328 11.6418 5.06953 11.0996 4.09863 10.6457C3.14034 10.1791 2.40901 9.54237 1.90465 8.73538C1.4129 7.91579 1.16702 7.01424 1.16702 6.03074C1.16702 5.13549 1.36876 4.30959 1.77225 3.55305C2.18835 2.7839 2.74946 2.14714 3.45557 1.64277C3.98515 1.25189 4.70387 0.924055 5.61172 0.659264C6.53218 0.381864 7.51569 0.243164 8.56225 0.243164C10.1384 0.243164 11.5191 0.470128 12.7043 0.924055C13.9022 1.37798 14.7848 1.99583 15.3522 2.77759C15.9196 3.54674 16.3105 4.58069 16.5249 5.87943L13.1961 6.33335C13.0448 5.29941 12.6035 4.49243 11.8721 3.91241C11.1534 3.33239 10.1321 3.04238 8.80812 3.04238C7.2446 3.04238 6.12869 3.30087 5.46041 3.81784C4.79213 4.33481 4.45799 4.94005 4.45799 5.63355C4.45799 6.07487 4.59669 6.47205 4.87409 6.82511C5.15149 7.19077 5.5865 7.49339 6.17913 7.73296C6.51958 7.85905 7.522 8.14906 9.1864 8.60299C11.5947 9.24605 13.2717 9.77563 14.2174 10.1917C15.1757 10.5952 15.926 11.1879 16.4681 11.9696C17.0103 12.7514 17.2814 13.7223 17.2814 14.8823C17.2814 16.0171 16.9473 17.0889 16.279 18.0976C15.6233 19.0937 14.6713 19.8692 13.423 20.424C12.1748 20.9662 10.7625 21.2373 9.1864 21.2373C6.57632 21.2373 4.58408 20.6951 3.20969 19.6107C1.84791 18.5263 0.977882 16.9187 0.599609 14.7877Z" fill="#FAFAFA"/>
<path d="M16.7231 28.519L16.3448 25.3226C17.0888 25.5244 17.7381 25.6253 18.2929 25.6253C19.0495 25.6253 19.6547 25.4992 20.1086 25.247C20.5626 24.9948 20.9345 24.6417 21.2245 24.1878C21.4389 23.8474 21.7856 23.0026 22.2648 21.6534C22.3278 21.4643 22.4287 21.1869 22.5674 20.8212L14.9452 0.697091H18.6145L22.7944 12.329C23.3366 13.8042 23.822 15.3552 24.2507 16.9817C24.6416 15.4182 25.1081 13.8925 25.6503 12.4046L29.9437 0.697091H33.3482L25.7071 21.1238C24.8875 23.3304 24.2507 24.8498 23.7968 25.682C23.1916 26.8042 22.4981 27.6238 21.7163 28.1408C20.9345 28.6703 20.0015 28.9351 18.9171 28.9351C18.2614 28.9351 17.5301 28.7964 16.7231 28.519Z" fill="#FAFAFA"/>
<path d="M31.7874 20.7834V0.697091H34.8514V3.55305C36.3267 1.34646 38.4576 0.243164 41.2442 0.243164C42.4547 0.243164 43.5643 0.463823 44.573 0.905141C45.5944 1.33385 46.3572 1.90126 46.8616 2.60737C47.366 3.31348 47.719 4.15198 47.9207 5.12288C48.0468 5.75333 48.1099 6.85663 48.1099 8.43277V20.7834H44.7054V8.56516C44.7054 7.17816 44.573 6.14422 44.3082 5.46333C44.0435 4.76983 43.5706 4.22133 42.8897 3.81784C42.2214 3.40174 41.4334 3.19369 40.5255 3.19369C39.0755 3.19369 37.8209 3.65392 36.7617 4.57439C35.7152 5.49485 35.1919 7.24121 35.1919 9.81346V20.7834H31.7874Z" fill="#FAFAFA"/>
<path d="M62.0016 13.426L65.3493 13.861C64.9836 16.1684 64.0442 17.9778 62.5312 19.2892C61.0307 20.5879 59.1834 21.2373 56.9895 21.2373C54.2407 21.2373 52.0278 20.342 50.3508 18.5516C48.6864 16.7485 47.8542 14.1699 47.8542 10.8159C47.8542 8.64712 48.2135 6.74945 48.9323 5.12288C49.651 3.49631 50.7417 2.27953 52.2043 1.47255C53.6796 0.652959 55.2809 0.243164 57.0084 0.243164C59.1897 0.243164 60.9739 0.797964 62.3609 1.90756C63.7479 3.00455 64.6369 4.56808 65.0277 6.59814L61.7179 7.10881C61.4026 5.75964 60.8415 4.74461 60.0346 4.06372C59.2402 3.38283 58.2756 3.04238 57.1408 3.04238C55.4259 3.04238 54.0326 3.66023 52.9609 4.89592C51.8891 6.119 51.3532 8.0608 51.3532 10.7213C51.3532 13.4197 51.8702 15.3804 52.9041 16.6035C53.9381 17.8265 55.2872 18.4381 56.9516 18.4381C58.2882 18.4381 59.4041 18.0283 60.2993 17.2087C61.1946 16.3891 61.762 15.1282 62.0016 13.426Z" fill="#FAFAFA"/>
</svg>
