<svg width="92" height="25" viewBox="0 0 92 25" fill="none" xmlns="http://www.w3.org/2000/svg">
<path d="M10.4137 24.3491C7.67973 24.3491 5.43474 23.7045 3.67875 22.4153C1.92277 21.1038 0.978093 19.2367 0.844727 16.8139H7.8131C7.87978 17.6363 8.12429 18.2365 8.54661 18.6143C8.96894 18.9922 9.51352 19.1811 10.1803 19.1811C10.7805 19.1811 11.2695 19.0367 11.6474 18.7477C12.0475 18.4365 12.2475 18.0142 12.2475 17.4807C12.2475 16.7917 11.9252 16.2582 11.2806 15.8803C10.636 15.5025 9.59131 15.0801 8.14652 14.6133C6.61281 14.1021 5.36806 13.6131 4.41227 13.1463C3.4787 12.6573 2.65628 11.9571 1.945 11.0458C1.25594 10.1122 0.91141 8.90084 0.91141 7.41159C0.91141 5.90011 1.28928 4.6109 2.04502 3.54397C2.80076 2.45482 3.84546 1.63239 5.17912 1.0767C6.51278 0.52101 8.02426 0.243164 9.71357 0.243164C12.4476 0.243164 14.6259 0.887766 16.2485 2.17697C17.8933 3.44395 18.7713 5.23328 18.8825 7.54495H11.7807C11.7585 6.83367 11.5362 6.3002 11.1139 5.94456C10.7138 5.58892 10.1915 5.4111 9.54686 5.4111C9.05785 5.4111 8.65775 5.55558 8.34656 5.84454C8.03538 6.1335 7.87978 6.54471 7.87978 7.07817C7.87978 7.52272 8.04649 7.91171 8.37991 8.24512C8.73555 8.55631 9.16899 8.83416 9.68022 9.07866C10.1915 9.30094 10.9472 9.5899 11.9474 9.94554C13.4367 10.4568 14.6592 10.968 15.615 11.4792C16.593 11.9683 17.4266 12.6684 18.1156 13.5798C18.8269 14.4689 19.1826 15.6025 19.1826 16.9806C19.1826 18.3809 18.8269 19.6368 18.1156 20.7482C17.4266 21.8596 16.4152 22.7376 15.0815 23.3822C13.7701 24.0268 12.2142 24.3491 10.4137 24.3491Z" fill="#FAFAFA"/>
<path d="M43.259 0.60992V24.1157H36.7241V14.68H28.7555V24.1157H22.2205V0.60992H28.7555V9.44542H36.7241V0.60992H43.259Z" fill="#FAFAFA"/>
<path d="M58.2682 24.3491C56.0676 24.3491 54.0449 23.8378 52.2 22.8154C50.3551 21.7707 48.8881 20.337 47.7989 18.5143C46.732 16.6694 46.1985 14.5911 46.1985 12.2794C46.1985 9.96777 46.732 7.9006 47.7989 6.07793C48.8881 4.23303 50.3551 2.79935 52.2 1.77687C54.0449 0.7544 56.0676 0.243164 58.2682 0.243164C60.4909 0.243164 62.5136 0.7544 64.3363 1.77687C66.1812 2.79935 67.6371 4.23303 68.7041 6.07793C69.771 7.9006 70.3045 9.96777 70.3045 12.2794C70.3045 14.5911 69.771 16.6694 68.7041 18.5143C67.6371 20.337 66.1812 21.7707 64.3363 22.8154C62.4914 23.8378 60.4687 24.3491 58.2682 24.3491ZM58.2682 18.2809C59.9352 18.2809 61.2467 17.7363 62.2025 16.6472C63.1805 15.558 63.6695 14.1021 63.6695 12.2794C63.6695 10.4123 63.1805 8.9453 62.2025 7.87837C61.2467 6.78921 59.9352 6.24463 58.2682 6.24463C56.5789 6.24463 55.2563 6.78921 54.3005 7.87837C53.3447 8.9453 52.8668 10.4123 52.8668 12.2794C52.8668 14.1243 53.3447 15.5914 54.3005 16.6805C55.2563 17.7475 56.5789 18.2809 58.2682 18.2809Z" fill="#FAFAFA"/>
<path d="M91.8134 8.44517C91.8134 9.86774 91.4799 11.1681 90.8131 12.3461C90.1685 13.502 89.1794 14.4355 87.8457 15.1468C86.5343 15.8359 84.9228 16.1804 83.0112 16.1804H79.7771V24.1157H73.2421V0.60992H83.0112C84.9006 0.60992 86.501 0.943335 87.8124 1.61017C89.146 2.277 90.1463 3.19944 90.8131 4.37751C91.4799 5.55558 91.8134 6.91146 91.8134 8.44517ZM82.3777 10.9791C84.2226 10.9791 85.1451 10.1345 85.1451 8.44517C85.1451 6.73364 84.2226 5.87788 82.3777 5.87788H79.7771V10.9791H82.3777Z" fill="#FAFAFA"/>
<path d="M32.7529 12.6577C34.039 12.6579 35.0439 13.6024 35.0439 14.7231C35.0437 15.8437 34.0388 16.7874 32.7529 16.7876C31.4669 16.7876 30.4612 15.8438 30.4609 14.7231C30.4609 13.6023 31.4667 12.6577 32.7529 12.6577Z" stroke="#010A1D" stroke-width="0.453283"/>
</svg>
