<svg width="114" height="26" viewBox="0 0 114 26" fill="none" xmlns="http://www.w3.org/2000/svg">
<path d="M24.4488 6.41134C25.8269 6.41134 27.0606 6.7003 28.1497 7.27822C29.2611 7.83391 30.128 8.71191 30.7504 9.9122C31.395 11.1125 31.7173 12.6684 31.7173 14.58V24.9826H24.1821V15.8803C24.1821 14.7467 23.9932 13.9465 23.6153 13.4797C23.2374 12.9907 22.7484 12.7462 22.1483 12.7462C21.7037 12.7462 21.3036 12.8574 20.948 13.0796C20.5923 13.3019 20.3034 13.6576 20.0811 14.1466C19.881 14.6134 19.781 15.258 19.781 16.0804V24.9826H12.2458V15.8803C12.2458 14.7467 12.068 13.9465 11.7124 13.4797C11.3567 12.9907 10.8566 12.7462 10.212 12.7462C9.76744 12.7462 9.36735 12.8574 9.0117 13.0796C8.65606 13.3019 8.3671 13.6576 8.14482 14.1466C7.94478 14.6134 7.84475 15.258 7.84475 16.0804V24.9826H0.30957V6.74476H7.47799V11.9794L6.01097 10.5123C6.70003 9.13423 7.62247 8.11176 8.77831 7.44493C9.93415 6.75587 11.2234 6.41134 12.6459 6.41134C14.2463 6.41134 15.6578 6.83367 16.8803 7.67832C18.125 8.50074 18.9586 9.81218 19.3809 11.6126L17.0803 11.2459C17.7472 9.73438 18.7141 8.55631 19.9811 7.71166C21.2703 6.84478 22.7595 6.41134 24.4488 6.41134Z" fill="#FAFAFA"/>
<path d="M40.4207 25.316C38.9759 25.316 37.6645 25.027 36.4864 24.4491C35.3306 23.8489 34.4192 22.9265 33.7524 21.6818C33.0856 20.4148 32.7522 18.7922 32.7522 16.8139V6.74476H40.2873V15.5136C40.2873 16.8028 40.4985 17.703 40.9208 18.2142C41.3432 18.7255 41.9211 18.9811 42.6546 18.9811C43.0991 18.9811 43.5103 18.87 43.8882 18.6477C44.2883 18.4032 44.6106 18.0142 44.8551 17.4807C45.0996 16.925 45.2219 16.2026 45.2219 15.3135V6.74476H52.7571V24.9826H45.5886V19.7146L47.0223 21.1483C46.3777 22.5709 45.4553 23.6267 44.255 24.3157C43.0769 24.9826 41.7988 25.316 40.4207 25.316Z" fill="#FAFAFA"/>
<path d="M66.6019 6.41134C68.0022 6.41134 69.2692 6.7003 70.4028 7.27822C71.5364 7.83391 72.4255 8.71191 73.0701 9.9122C73.7369 11.1125 74.0704 12.6684 74.0704 14.58V24.9826H66.5352V15.8803C66.5352 14.7467 66.3351 13.9465 65.935 13.4797C65.5349 12.9907 64.9904 12.7462 64.3013 12.7462C63.7901 12.7462 63.3122 12.8685 62.8676 13.113C62.4453 13.3353 62.1008 13.7131 61.834 14.2466C61.5895 14.7801 61.4673 15.5025 61.4673 16.4138V24.9826H53.9321V6.74476H61.1005V12.0794L59.6668 10.5457C60.3781 9.16757 61.3339 8.13399 62.5342 7.44493C63.7567 6.75587 65.1126 6.41134 66.6019 6.41134Z" fill="#FAFAFA"/>
<path d="M85.3036 25.316C83.2142 25.316 81.3582 24.9159 79.7355 24.1157C78.1129 23.3155 76.8348 22.2041 75.9013 20.7815C74.9899 19.3367 74.5343 17.6919 74.5343 15.847C74.5343 14.0021 74.9899 12.3684 75.9013 10.9458C76.8348 9.52322 78.1129 8.41183 79.7355 7.61164C81.3582 6.81144 83.2142 6.41134 85.3036 6.41134C87.5264 6.41134 89.4268 6.88924 91.005 7.84503C92.5831 8.80082 93.6723 10.1234 94.2724 11.8127L88.4377 14.68C88.0598 13.8354 87.593 13.2241 87.0373 12.8463C86.5039 12.4684 85.9148 12.2794 85.2702 12.2794C84.7145 12.2794 84.1922 12.4128 83.7032 12.6795C83.2364 12.9463 82.8585 13.3464 82.5696 13.8798C82.3028 14.3911 82.1695 15.0468 82.1695 15.847C82.1695 16.6472 82.3028 17.314 82.5696 17.8475C82.8585 18.3809 83.2364 18.781 83.7032 19.0478C84.1922 19.3145 84.7145 19.4479 85.2702 19.4479C85.9148 19.4479 86.5039 19.2589 87.0373 18.8811C87.593 18.5032 88.0598 17.8919 88.4377 17.0473L94.2724 19.9147C93.6723 21.604 92.5831 22.9265 91.005 23.8823C89.4268 24.8381 87.5264 25.316 85.3036 25.316Z" fill="#FAFAFA"/>
<path d="M106.517 6.41134C107.917 6.41134 109.184 6.7003 110.318 7.27822C111.451 7.83391 112.34 8.71191 112.985 9.9122C113.652 11.1125 113.985 12.6684 113.985 14.58V24.9826H106.45V15.8803C106.45 14.7467 106.25 13.9465 105.85 13.4797C105.45 12.9907 104.905 12.7462 104.216 12.7462C103.705 12.7462 103.227 12.8685 102.782 13.113C102.36 13.3353 102.015 13.7131 101.749 14.2466C101.504 14.7801 101.382 15.5025 101.382 16.4138V24.9826H93.8468V0.243164H101.382V12.0794L99.5816 10.5457C100.293 9.16757 101.249 8.13399 102.449 7.44493C103.671 6.75587 105.027 6.41134 106.517 6.41134Z" fill="#FAFAFA"/>
</svg>
