<svg width="88" height="27" viewBox="0 0 88 27" fill="none" xmlns="http://www.w3.org/2000/svg">
<path d="M12.6486 25.8316C11.1149 25.8316 9.72569 25.476 8.48094 24.7647C7.25842 24.0534 6.2804 23.0309 5.54689 21.6973C4.8356 20.3636 4.47996 18.7966 4.47996 16.9961C4.47996 15.1512 4.8356 13.573 5.54689 12.2616C6.2804 10.9502 7.25842 9.93882 8.48094 9.22754C9.72569 8.51625 11.1149 8.16061 12.6486 8.16061C14.2935 8.16061 15.7605 8.53848 17.0497 9.29422C18.3611 10.0277 19.3836 11.0613 20.1171 12.395C20.8729 13.7064 21.2507 15.2401 21.2507 16.9961C21.2507 18.7299 20.8729 20.2636 20.1171 21.5972C19.3836 22.9309 18.3611 23.9756 17.0497 24.7313C15.7605 25.4649 14.2935 25.8316 12.6486 25.8316ZM3.91315 25.6982V0.958845H5.58023V13.9287L5.24681 16.9628L5.51354 19.9968V25.6982H3.91315ZM12.5486 24.3312C13.8823 24.3312 15.0826 24.0312 16.1495 23.431C17.2164 22.8086 18.0499 21.9418 18.6501 20.8304C19.2725 19.719 19.5837 18.4409 19.5837 16.9961C19.5837 15.5291 19.2725 14.251 18.6501 13.1618C18.0499 12.0505 17.2164 11.1947 16.1495 10.5945C15.0826 9.97217 13.8823 9.66098 12.5486 9.66098C11.2149 9.66098 10.0146 9.97217 8.94772 10.5945C7.90302 11.1947 7.06948 12.0505 6.44711 13.1618C5.84696 14.251 5.54689 15.5291 5.54689 16.9961C5.54689 18.4409 5.84696 19.719 6.44711 20.8304C7.06948 21.9418 7.90302 22.8086 8.94772 23.431C10.0146 24.0312 11.2149 24.3312 12.5486 24.3312ZM33.4806 25.8316C31.7246 25.8316 30.1686 25.4537 28.8127 24.698C27.4791 23.9423 26.4233 22.8976 25.6453 21.5639C24.8896 20.2302 24.5117 18.7076 24.5117 16.9961C24.5117 15.2624 24.8673 13.7398 25.5786 12.4283C26.3121 11.0947 27.3124 10.05 28.5794 9.29422C29.8463 8.53848 31.2689 8.16061 32.8471 8.16061C34.4252 8.16061 35.8367 8.52737 37.0814 9.26088C38.3484 9.99439 39.3375 11.028 40.0488 12.3616C40.7823 13.6731 41.1491 15.1957 41.1491 16.9294C41.1491 16.9961 41.138 17.0739 41.1158 17.1628C41.1158 17.2295 41.1158 17.3073 41.1158 17.3962H25.7453V16.0959H40.2155L39.5487 16.7294C39.5709 15.3735 39.282 14.1621 38.6818 13.0952C38.1039 12.006 37.3148 11.1613 36.3146 10.5612C35.3143 9.93882 34.1585 9.62764 32.8471 9.62764C31.5579 9.62764 30.402 9.93882 29.3795 10.5612C28.3793 11.1613 27.5902 12.006 27.0123 13.0952C26.4344 14.1621 26.1454 15.3846 26.1454 16.7627V17.0628C26.1454 18.4854 26.4566 19.7523 27.079 20.8637C27.7236 21.9529 28.6016 22.8086 29.713 23.431C30.8243 24.0312 32.0913 24.3312 33.5139 24.3312C34.6253 24.3312 35.6589 24.1312 36.6147 23.7311C37.5927 23.331 38.4151 22.7197 39.0819 21.8973L40.0488 22.9976C39.2931 23.9311 38.3373 24.6424 37.1815 25.1314C36.0478 25.5982 34.8142 25.8316 33.4806 25.8316ZM54.8084 8.16061C56.231 8.16061 57.4646 8.43846 58.5093 8.99415C59.5763 9.52761 60.3987 10.35 60.9766 11.4614C61.5768 12.5506 61.8768 13.9065 61.8768 15.5291V25.6982H60.2098V15.6624C60.2098 13.7064 59.7096 12.2172 58.7094 11.1947C57.7314 10.1722 56.3533 9.66098 54.575 9.66098C53.2192 9.66098 52.0411 9.93882 51.0408 10.4945C50.0406 11.0502 49.2737 11.8282 48.7403 12.8284C48.229 13.8287 47.9734 15.029 47.9734 16.4293V25.6982H46.3064V8.29398H47.9067V13.1285L47.6734 12.595C48.2068 11.2169 49.0848 10.1389 50.3073 9.36091C51.5299 8.56071 53.0302 8.16061 54.8084 8.16061ZM75.4419 25.8316C73.8193 25.8316 72.3522 25.4649 71.0408 24.7313C69.7516 23.9756 68.7291 22.9309 67.9734 21.5972C67.2176 20.2636 66.8398 18.7299 66.8398 16.9961C66.8398 15.2401 67.2176 13.7064 67.9734 12.395C68.7291 11.0613 69.7516 10.0277 71.0408 9.29422C72.3522 8.53848 73.8193 8.16061 75.4419 8.16061C76.9756 8.16061 78.3537 8.51625 79.5762 9.22754C80.821 9.93882 81.799 10.9502 82.5103 12.2616C83.2438 13.573 83.6105 15.1512 83.6105 16.9961C83.6105 18.7966 83.2549 20.3636 82.5436 21.6973C81.8323 23.0309 80.8543 24.0534 79.6096 24.7647C78.387 25.476 76.9978 25.8316 75.4419 25.8316ZM75.5419 24.3312C76.8756 24.3312 78.0647 24.0312 79.1094 23.431C80.1764 22.8086 81.0099 21.9418 81.6101 20.8304C82.2324 19.719 82.5436 18.4409 82.5436 16.9961C82.5436 15.5291 82.2324 14.251 81.6101 13.1618C81.0099 12.0505 80.1764 11.1947 79.1094 10.5945C78.0647 9.97217 76.8756 9.66098 75.5419 9.66098C74.2082 9.66098 73.0079 9.97217 71.941 10.5945C70.8963 11.1947 70.0628 12.0505 69.4404 13.1618C68.8403 14.251 68.5402 15.5291 68.5402 16.9961C68.5402 18.4409 68.8403 19.719 69.4404 20.8304C70.0628 21.9418 70.8963 22.8086 71.941 23.431C73.0079 24.0312 74.2082 24.3312 75.5419 24.3312ZM82.577 25.6982V19.9968L82.877 16.9628L82.5436 13.9287V0.958845H84.2107V25.6982H82.577Z" fill="#FAFAFA"/>
</svg>
