<svg width="773" height="221" viewBox="0 0 773 221" fill="none" xmlns="http://www.w3.org/2000/svg">
<path d="M108.661 220.163C95.0872 220.163 82.7922 217.015 71.7759 210.72C60.9562 204.425 52.3005 195.376 45.8088 183.573C39.5137 171.77 36.3662 157.901 36.3662 141.966C36.3662 125.639 39.5137 111.671 45.8088 100.065C52.3005 88.4585 60.9562 79.5077 71.7759 73.2126C82.7922 66.9176 95.0872 63.7701 108.661 63.7701C123.218 63.7701 136.202 67.1143 147.612 73.8028C159.218 80.2946 168.267 89.4421 174.759 101.245C181.447 112.852 184.792 126.425 184.792 141.966C184.792 157.311 181.447 170.884 174.759 182.688C168.267 194.491 159.218 203.737 147.612 210.425C136.202 216.917 123.218 220.163 108.661 220.163ZM31.3498 218.982V0.0326514H46.1039V114.819L43.1531 141.671L45.5137 168.524V218.982H31.3498ZM107.776 206.884C119.579 206.884 130.202 204.228 139.644 198.917C149.087 193.409 156.464 185.737 161.775 175.901C167.284 166.065 170.038 154.753 170.038 141.966C170.038 128.983 167.284 117.671 161.775 108.032C156.464 98.1961 149.087 90.6224 139.644 85.3109C130.202 79.8028 119.579 77.0487 107.776 77.0487C95.9725 77.0487 85.3496 79.8028 75.907 85.3109C66.6611 90.6224 59.2841 98.1961 53.7759 108.032C48.4645 117.671 45.8088 128.983 45.8088 141.966C45.8088 154.753 48.4645 166.065 53.7759 175.901C59.2841 185.737 66.6611 193.409 75.907 198.917C85.3496 204.228 95.9725 206.884 107.776 206.884ZM293.029 220.163C277.488 220.163 263.717 216.818 251.717 210.13C239.914 203.442 230.57 194.196 223.685 182.392C216.996 170.589 213.652 157.114 213.652 141.966C213.652 126.622 216.799 113.147 223.095 101.54C229.586 89.7371 238.439 80.4913 249.652 73.8028C260.865 67.1143 273.455 63.7701 287.422 63.7701C301.389 63.7701 313.881 67.0159 324.897 73.5077C336.11 79.9995 344.864 89.147 351.16 100.95C357.651 112.557 360.897 126.032 360.897 141.376C360.897 141.966 360.799 142.655 360.602 143.442C360.602 144.032 360.602 144.72 360.602 145.507H224.57V133.999H352.635L346.733 139.606C346.93 127.606 344.373 116.885 339.061 107.442C333.946 97.8027 326.963 90.3273 318.11 85.0159C309.258 79.5077 299.029 76.7536 287.422 76.7536C276.012 76.7536 265.783 79.5077 256.734 85.0159C247.881 90.3273 240.898 97.8027 235.783 107.442C230.668 116.885 228.111 127.704 228.111 139.901V142.557C228.111 155.147 230.865 166.36 236.373 176.196C242.078 185.835 249.849 193.409 259.685 198.917C269.521 204.228 280.734 206.884 293.324 206.884C303.16 206.884 312.307 205.114 320.766 201.573C329.422 198.032 336.701 192.622 342.602 185.343L351.16 195.081C344.471 203.343 336.012 209.638 325.783 213.966C315.75 218.097 304.832 220.163 293.029 220.163ZM481.786 63.7701C494.376 63.7701 505.294 66.2291 514.54 71.1471C523.982 75.8684 531.261 83.147 536.376 92.983C541.687 102.622 544.343 114.622 544.343 128.983V218.982H529.589V130.163C529.589 112.852 525.163 99.6715 516.31 90.6224C507.654 81.5732 495.458 77.0487 479.72 77.0487C467.72 77.0487 457.294 79.5077 448.442 84.4257C439.589 89.3437 432.802 96.2289 428.081 105.081C423.556 113.934 421.294 124.557 421.294 136.95V218.982H406.54V64.9504H420.704V107.737L418.638 103.016C423.36 90.8191 431.13 81.2782 441.95 74.393C452.769 67.311 466.048 63.7701 481.786 63.7701ZM664.397 220.163C650.036 220.163 637.053 216.917 625.446 210.425C614.036 203.737 604.987 194.491 598.299 182.688C591.61 170.884 588.266 157.311 588.266 141.966C588.266 126.425 591.61 112.852 598.299 101.245C604.987 89.4421 614.036 80.2946 625.446 73.8028C637.053 67.1143 650.036 63.7701 664.397 63.7701C677.97 63.7701 690.167 66.9176 700.987 73.2126C712.003 79.5077 720.659 88.4585 726.954 100.065C733.446 111.671 736.691 125.639 736.691 141.966C736.691 157.901 733.544 171.77 727.249 183.573C720.954 195.376 712.298 204.425 701.282 210.72C690.462 217.015 678.167 220.163 664.397 220.163ZM665.282 206.884C677.085 206.884 687.61 204.228 696.856 198.917C706.298 193.409 713.675 185.737 718.987 175.901C724.495 166.065 727.249 154.753 727.249 141.966C727.249 128.983 724.495 117.671 718.987 108.032C713.675 98.1961 706.298 90.6224 696.856 85.3109C687.61 79.8028 677.085 77.0487 665.282 77.0487C653.479 77.0487 642.856 79.8028 633.413 85.3109C624.167 90.6224 616.79 98.1961 611.282 108.032C605.971 117.671 603.315 128.983 603.315 141.966C603.315 154.753 605.971 166.065 611.282 175.901C616.79 185.737 624.167 193.409 633.413 198.917C642.856 204.228 653.479 206.884 665.282 206.884ZM727.544 218.982V168.524L730.2 141.671L727.249 114.819V0.0326514H742.003V218.982H727.544Z" fill="#FAFAFA"/>
</svg>
