<svg width="61" height="35" viewBox="0 0 61 35" fill="none" xmlns="http://www.w3.org/2000/svg">
<path d="M17.1148 23.4755C17.0739 23.4482 17.0239 23.4381 16.9757 23.4475C16.9274 23.4569 16.8848 23.4849 16.8571 23.5256L14.7225 26.6903C13.7342 28.1555 11.689 28.6879 10.0708 27.5945C8.45031 26.5014 8.17826 24.408 9.16658 22.9427L11.3012 19.778C11.3582 19.6936 11.3355 19.5773 11.2511 19.5204L10.1672 18.7892C10.1263 18.7619 10.0763 18.7519 10.028 18.7613C9.97978 18.7706 9.93718 18.7987 9.9095 18.8393L7.77487 22.004C6.22075 24.3081 6.82754 27.4298 9.13118 28.9816C11.4348 30.5335 14.5569 29.9289 16.1088 27.6253L18.2434 24.4606C18.3004 24.3762 18.2777 24.2599 18.1933 24.2029L17.1148 23.4755ZM20.9106 11.5208C18.6065 9.96669 15.4849 10.5735 13.933 12.8771L11.7961 16.0423C11.7688 16.0832 11.7588 16.1332 11.7682 16.1814C11.7775 16.2297 11.8056 16.2723 11.8462 16.2999L12.9274 17.0292C13.0119 17.0862 13.1282 17.0636 13.1851 16.9792L15.3197 13.8144C16.308 12.3492 18.3533 11.8168 19.9715 12.9102C21.5919 14.0033 21.864 16.0967 20.8757 17.562L18.741 20.7267C18.7138 20.7676 18.7037 20.8176 18.7131 20.8658C18.7225 20.9141 18.7505 20.9567 18.7911 20.9844L19.8751 21.7155C19.9595 21.7724 20.0758 21.7498 20.1328 21.6654L22.2674 18.5007C23.8192 16.1971 23.2124 13.0754 20.9106 11.5208ZM16.6389 16.632C16.598 16.6047 16.548 16.5947 16.4997 16.6041C16.4515 16.6134 16.4089 16.6415 16.3812 16.6821L12.2199 22.8485C12.1926 22.8894 12.1826 22.9394 12.1919 22.9877C12.2013 23.0359 12.2294 23.0785 12.27 23.1062L13.3485 23.8337C13.4329 23.8906 13.5492 23.868 13.6061 23.7836L17.7652 17.6176C17.8221 17.5332 17.7995 17.4169 17.7151 17.3599L16.6389 16.632Z" fill="#FAFAFA"/>
<path d="M0.87793 28.8709V0.698242H2.58761V28.8709H0.87793Z" fill="#FAFAFA"/>
<path d="M40.2215 28.8709V17.7951C40.2215 13.2235 38.5737 10.9378 35.2783 10.9378C33.4447 10.9378 31.9394 11.613 30.7625 12.9634C29.5855 14.3014 28.997 15.9615 28.997 17.9438V28.8709H27.2873V9.84133H28.997V13.2979H29.0714C30.4589 10.6838 32.627 9.37675 35.5756 9.37675C37.6322 9.37675 39.2056 10.0643 40.2958 11.4395C41.386 12.8023 41.9312 14.7536 41.9312 17.2933V28.8709H40.2215Z" fill="#FAFAFA"/>
<path d="M57.7836 28.8709L48.6777 19.4676H48.6034V28.8709H46.8937V0.698242H48.6034V18.8543H48.6777L57.3191 9.84133H59.5305L50.4989 19.0588L60.2553 28.8709H57.7836Z" fill="#FAFAFA"/>
</svg>
