<svg width="85" height="43" viewBox="0 0 85 43" fill="none" xmlns="http://www.w3.org/2000/svg">
<path d="M25.6237 33.5204C25.6237 35.0541 25.2681 36.4433 24.5568 37.6881C23.8455 38.9106 22.8231 39.8886 21.4894 40.6221C20.1557 41.3334 18.5887 41.6891 16.7882 41.6891C14.9433 41.6891 13.3652 41.3334 12.0537 40.6221C10.7423 39.8886 9.73095 38.9106 9.01967 37.6881C8.30838 36.4433 7.95274 35.0541 7.95274 33.5204C7.95274 31.8755 8.33061 30.4085 9.08635 29.1193C9.81987 27.8079 10.8535 26.7854 12.1871 26.0519C13.4985 25.2962 15.0323 24.9183 16.7882 24.9183C18.522 24.9183 20.0557 25.2962 21.3894 26.0519C22.723 26.7854 23.7677 27.8079 24.5235 29.1193C25.257 30.4085 25.6237 31.8755 25.6237 33.5204ZM25.4904 42.2559H0.750977V40.5888H13.7208L16.7549 40.9222L19.789 40.6555H25.4904V42.2559ZM24.1234 33.6204C24.1234 32.2868 23.8233 31.0865 23.2231 30.0195C22.6008 28.9526 21.7339 28.1191 20.6225 27.5189C19.5111 26.8965 18.233 26.5854 16.7882 26.5854C15.3212 26.5854 14.0431 26.8965 12.954 27.5189C11.8426 28.1191 10.9868 28.9526 10.3867 30.0195C9.7643 31.0865 9.45311 32.2868 9.45311 33.6204C9.45311 34.9541 9.7643 36.1544 10.3867 37.2213C10.9868 38.266 11.8426 39.0995 12.954 39.7219C14.0431 40.3221 15.3212 40.6221 16.7882 40.6221C18.233 40.6221 19.5111 40.3221 20.6225 39.7219C21.7339 39.0995 22.6008 38.266 23.2231 37.2213C23.8233 36.1544 24.1234 34.9541 24.1234 33.6204Z" fill="#FAFAFA"/>
<path d="M34.3024 19.9686C32.7817 20.8466 31.2453 21.2974 29.6932 21.3208C28.1603 21.3331 26.7236 20.9563 25.383 20.1903C24.0617 19.4132 22.9732 18.2835 22.1174 16.8013C21.2505 15.2998 20.7972 13.8034 20.7575 12.312C20.7259 10.7903 21.0698 9.38542 21.7892 8.09744C22.5085 6.80946 23.5516 5.77093 24.9183 4.98185C26.285 4.19277 27.6908 3.80466 29.1355 3.81753C30.5995 3.81928 31.9729 4.21983 33.2557 5.01917C34.5467 5.78814 35.6256 6.92337 36.4925 8.42485C36.5258 8.4826 36.5551 8.55553 36.5803 8.64364C36.6136 8.70139 36.6525 8.76877 36.697 8.84577L23.3858 16.531L22.7357 15.4049L35.2672 8.16977L35.0065 9.0518C34.3478 7.86645 33.4918 6.96182 32.4386 6.33791C31.3936 5.68363 30.2879 5.34668 29.1216 5.32706C27.9441 5.28819 26.7875 5.59662 25.6518 6.25233C24.5353 6.89694 23.6899 7.74435 23.1156 8.79458C22.5495 9.81445 22.2884 10.9405 22.3325 12.1727C22.3655 13.3856 22.7265 14.5888 23.4156 15.7823L23.5656 16.0422C24.2769 17.2742 25.1799 18.2158 26.2746 18.8671C27.3774 19.488 28.5656 19.7902 29.8393 19.7735C31.1019 19.7375 32.3491 19.3639 33.5811 18.6526C34.5436 18.0969 35.3387 17.4069 35.9664 16.5825C36.6133 15.747 37.0199 14.8064 37.1862 13.7608L38.5737 14.2302C38.386 15.4165 37.9139 16.5104 37.1574 17.5118C36.4091 18.4829 35.4574 19.3018 34.3024 19.9686Z" fill="#FAFAFA"/>
<path d="M59.6527 4.8333C60.8847 5.54458 61.8141 6.40202 62.441 7.40561C63.0982 8.40107 63.3993 9.52453 63.3441 10.776C63.3192 12.0193 62.9012 13.3436 62.0898 14.7488L57.0053 23.5555L55.5615 22.722L60.5794 14.0307C61.5574 12.3368 61.869 10.797 61.514 9.41136C61.1782 8.03687 60.2403 6.90507 58.7004 6.01596C57.5261 5.33801 56.367 4.9896 55.2229 4.97072C54.0788 4.95184 53.0257 5.24216 52.0636 5.84166C51.1207 6.45228 50.2992 7.36396 49.599 8.57669L44.9646 16.6038L43.5208 15.7703L52.223 0.697754L53.6089 1.49795L51.1917 5.68477L51.2563 5.10608C52.4073 4.17933 53.7067 3.68471 55.1544 3.62223C56.6133 3.5405 58.1127 3.94419 59.6527 4.8333Z" fill="#FAFAFA"/>
<path d="M59.7762 33.5128C59.7762 31.8902 60.143 30.4232 60.8765 29.1118C61.6322 27.8226 62.6769 26.8001 64.0106 26.0443C65.3443 25.2886 66.878 24.9107 68.6117 24.9107C70.3677 24.9107 71.9014 25.2886 73.2129 26.0443C74.5465 26.8001 75.5801 27.8226 76.3136 29.1118C77.0694 30.4232 77.4472 31.8902 77.4472 33.5128C77.4472 35.0465 77.0916 36.4247 76.3803 37.6472C75.669 38.8919 74.6577 39.8699 73.3462 40.5812C72.0348 41.3148 70.4566 41.6815 68.6117 41.6815C66.8113 41.6815 65.2442 41.3259 63.9106 40.6146C62.5769 39.9033 61.5544 38.9253 60.8432 37.6805C60.1319 36.458 59.7762 35.0688 59.7762 33.5128ZM61.2766 33.6129C61.2766 34.9465 61.5767 36.1357 62.1768 37.1804C62.7992 38.2473 63.6661 39.0809 64.7775 39.681C65.8888 40.3034 67.1669 40.6146 68.6117 40.6146C70.0788 40.6146 71.3568 40.3034 72.446 39.681C73.5574 39.0809 74.4132 38.2473 75.0133 37.1804C75.6357 36.1357 75.9469 34.9465 75.9469 33.6129C75.9469 32.2792 75.6357 31.0789 75.0133 30.012C74.4132 28.9673 73.5574 28.1337 72.446 27.5114C71.3568 26.9112 70.0788 26.6111 68.6117 26.6111C67.1669 26.6111 65.8888 26.9112 64.7775 27.5114C63.6661 28.1337 62.7992 28.9673 62.1768 30.012C61.5767 31.0789 61.2766 32.2792 61.2766 33.6129ZM59.9096 40.6479H65.611L68.6451 40.948L71.6791 40.6146H84.649V42.2817H59.9096V40.6479Z" fill="#FAFAFA"/>
</svg>
