<svg width="744" height="370" viewBox="0 0 744 370" fill="none" xmlns="http://www.w3.org/2000/svg">
<path d="M220.634 291.471C220.634 305.045 217.486 317.34 211.191 328.356C204.896 339.176 195.847 347.831 184.044 354.323C172.241 360.618 158.372 363.766 142.438 363.766C126.11 363.766 112.143 360.618 100.536 354.323C88.9297 347.831 79.9789 339.176 73.6839 328.356C67.3888 317.34 64.2413 305.045 64.2413 291.471C64.2413 276.914 67.5856 263.93 74.274 252.52C80.7658 240.914 89.9133 231.865 101.717 225.373C113.323 218.684 126.897 215.34 142.438 215.34C157.782 215.34 171.356 218.684 183.159 225.373C194.962 231.865 204.208 240.914 210.896 252.52C217.388 263.93 220.634 276.914 220.634 291.471ZM219.454 368.782H0.503906V354.028H115.29L142.143 356.979L168.995 354.618H219.454V368.782ZM207.355 292.356C207.355 280.553 204.7 269.93 199.388 260.487C193.88 251.045 186.208 243.668 176.372 238.356C166.536 232.848 155.224 230.094 142.438 230.094C129.454 230.094 118.143 232.848 108.503 238.356C98.6674 243.668 91.0936 251.045 85.7822 260.487C80.274 269.93 77.5199 280.553 77.5199 292.356C77.5199 304.159 80.274 314.782 85.7822 324.225C91.0936 333.471 98.6674 340.848 108.503 346.356C118.143 351.667 129.454 354.323 142.438 354.323C155.224 354.323 166.536 351.667 176.372 346.356C186.208 340.848 193.88 333.471 199.388 324.225C204.7 314.782 207.355 304.159 207.355 292.356Z" fill="#FAFAFA"/>
<path d="M297.442 171.535C283.984 179.305 270.386 183.294 256.649 183.502C243.083 183.611 230.368 180.276 218.504 173.496C206.81 166.619 197.176 156.621 189.602 143.503C181.93 130.214 177.918 116.971 177.567 103.772C177.287 90.3038 180.33 77.8704 186.697 66.4715C193.064 55.0726 202.295 45.8813 214.391 38.8977C226.487 31.9142 238.928 28.4793 251.714 28.5932C264.671 28.6087 276.826 32.1536 288.179 39.228C299.604 46.0336 309.153 56.0807 316.825 69.3691C317.12 69.8802 317.379 70.5257 317.602 71.3055C317.897 71.8166 318.242 72.4129 318.635 73.0943L200.828 141.11L195.074 131.144L305.981 67.1116L303.674 74.9178C297.844 64.4272 290.269 56.421 280.947 50.8992C271.698 45.1087 261.913 42.1266 251.591 41.953C241.17 41.6089 230.934 44.3386 220.882 50.1418C211.001 55.8467 203.519 63.3465 198.437 72.6413C193.426 81.6674 191.116 91.633 191.506 102.538C191.798 113.273 194.993 123.922 201.091 134.485L202.419 136.784C208.714 147.688 216.706 156.022 226.394 161.786C236.154 167.281 246.67 169.955 257.943 169.807C269.117 169.489 280.155 166.182 291.059 159.887C299.577 154.969 306.614 148.862 312.169 141.566C317.894 134.172 321.493 125.847 322.965 116.593L335.244 120.748C333.583 131.247 329.405 140.928 322.71 149.791C316.087 158.385 307.664 165.633 297.442 171.535Z" fill="#FAFAFA"/>
<path d="M521.798 37.583C532.702 43.8781 540.928 51.4666 546.476 60.3487C552.293 69.1587 554.957 79.1015 554.468 90.1771C554.248 101.181 550.548 112.901 543.368 125.337L498.368 203.279L485.591 195.902L530.001 118.983C538.656 103.991 541.413 90.363 538.271 78.1C535.3 65.9354 527 55.9187 513.37 48.0498C502.978 42.0499 492.719 38.9663 482.594 38.7993C472.468 38.6322 463.148 41.2015 454.633 46.5073C446.289 51.9114 439.018 59.98 432.821 70.713L391.805 141.755L379.028 134.378L456.044 0.982422L468.31 8.06436L446.917 45.1187L447.489 39.9972C457.676 31.7952 469.175 27.4177 481.988 26.8648C494.899 26.1414 508.169 29.7142 521.798 37.583Z" fill="#FAFAFA"/>
<path d="M522.892 291.404C522.892 277.043 526.138 264.06 532.63 252.453C539.318 241.044 548.564 231.994 560.367 225.306C572.171 218.617 585.744 215.273 601.088 215.273C616.629 215.273 630.203 218.617 641.81 225.306C653.613 231.994 662.76 241.044 669.252 252.453C675.941 264.06 679.285 277.043 679.285 291.404C679.285 304.978 676.137 317.174 669.842 327.994C663.547 339.01 654.596 347.666 642.99 353.961C631.383 360.453 617.416 363.699 601.088 363.699C585.154 363.699 571.285 360.551 559.482 354.256C547.679 347.961 538.63 339.305 532.335 328.289C526.04 317.469 522.892 305.174 522.892 291.404ZM536.171 292.289C536.171 304.092 538.826 314.617 544.138 323.863C549.646 333.305 557.318 340.682 567.154 345.994C576.99 351.502 588.302 354.256 601.088 354.256C614.072 354.256 625.383 351.502 635.023 345.994C644.859 340.682 652.432 333.305 657.744 323.863C663.252 314.617 666.006 304.092 666.006 292.289C666.006 280.486 663.252 269.863 657.744 260.421C652.432 251.175 644.859 243.798 635.023 238.29C625.383 232.978 614.072 230.322 601.088 230.322C588.302 230.322 576.99 232.978 567.154 238.29C557.318 243.798 549.646 251.175 544.138 260.421C538.826 269.863 536.171 280.486 536.171 292.289ZM524.072 354.551H574.531L601.384 357.207L628.236 354.256H743.022V369.01H524.072V354.551Z" fill="#FAFAFA"/>
</svg>
