<svg width="56" height="21" viewBox="0 0 56 21" fill="none" xmlns="http://www.w3.org/2000/svg">
<path d="M4.5244 20.4548L0.144531 6.14276H2.65116L4.9287 14.4039L5.77772 17.4765C5.81365 17.3238 6.06072 16.34 6.51893 14.5252L8.79646 6.14276H11.2896L13.4324 14.4443L14.1466 17.18L14.9687 14.4173L17.4214 6.14276H19.7798L15.3056 20.4548H12.7855L10.508 11.8838L9.95544 9.4445L7.05799 20.4548H4.5244Z" fill="#FAFAFA"/>
<path d="M21.9097 8.90544V6.14276H24.6723V8.90544H21.9097Z" fill="#FAFAFA"/>
<path d="M28.4059 20.4548V6.14276H30.5891V8.17771C31.6402 6.60545 33.1586 5.81932 35.1441 5.81932C36.0066 5.81932 36.7973 5.97655 37.516 6.291C38.2437 6.59647 38.7873 7.00076 39.1467 7.50389C39.506 8.00701 39.7576 8.60447 39.9013 9.29626C39.9912 9.74548 40.0361 10.5316 40.0361 11.6547V20.4548H37.6103V11.749C37.6103 10.7607 37.516 10.024 37.3273 9.53884C37.1387 9.0447 36.8017 8.65388 36.3166 8.36638C35.8404 8.0699 35.2789 7.92166 34.632 7.92166C33.5988 7.92166 32.7049 8.24959 31.9502 8.90544C31.2045 9.5613 30.8316 10.8056 30.8316 12.6384V20.4548H28.4059Z" fill="#FAFAFA"/>
<path d="M43.2306 20.4548V0.698242H45.6564V11.9646L51.3974 6.14276H54.5374L49.0659 11.4525L55.0899 20.4548H52.0981L47.3679 13.1371L45.6564 14.7812V20.4548H43.2306Z" fill="#FAFAFA"/>
<path d="M25.0087 20.2964C23.5435 16.8286 22.788 16.8789 24.2533 13.5045H22.2461C21.126 16.7278 21.126 16.7278 22.2461 20.2964H25.0087Z" fill="#FAFAFA"/>
<path d="M21.9097 8.90544V6.14276H24.6723V8.90544H21.9097Z" fill="#FAFAFA"/>
</svg>
