<svg width="487" height="176" viewBox="0 0 487 176" fill="none" xmlns="http://www.w3.org/2000/svg">
<path d="M38.7849 175.833L0.0219727 49.1677H22.2063L42.363 122.281L49.8771 149.474C50.1951 148.123 52.3817 139.416 56.4369 123.354L76.5937 49.1677H98.6587L117.623 122.638L123.944 146.85L131.22 122.4L152.927 49.1677H173.799L134.201 175.833H111.898L91.741 99.977L86.8509 78.389L61.2078 175.833H38.7849Z" fill="#FAFAFA"/>
<path d="M192.649 73.6182V49.1677H217.099V73.6182H192.649Z" fill="#FAFAFA"/>
<path d="M250.142 175.833V49.1677H269.464V67.1776C278.767 53.2627 292.205 46.3052 309.777 46.3052C317.41 46.3052 324.408 47.6967 330.769 50.4797C337.209 53.1832 342.02 56.7613 345.2 61.214C348.381 65.6668 350.607 70.9545 351.88 77.077C352.675 81.0527 353.072 88.0102 353.072 97.9494V175.833H331.604V98.7843C331.604 90.0378 330.769 83.5176 329.099 79.2239C327.429 74.8506 324.447 71.3918 320.154 68.8474C315.939 66.2234 310.97 64.9114 305.245 64.9114C296.101 64.9114 288.189 67.8137 281.51 73.6182C274.91 79.4227 271.611 90.4353 271.611 106.656V175.833H250.142Z" fill="#FAFAFA"/>
<path d="M381.344 175.833V0.982422H402.813V100.693L453.622 49.1677H481.412L432.988 96.1603L486.302 175.833H459.824L417.96 111.069L402.813 125.62V175.833H381.344Z" fill="#FAFAFA"/>
<path d="M220.076 174.431C207.109 143.74 200.422 144.185 213.39 114.321H195.626C185.713 142.848 185.713 142.848 195.626 174.431H220.076Z" fill="#FAFAFA"/>
<path d="M192.649 73.6182V49.1677H217.099V73.6182H192.649Z" fill="#FAFAFA"/>
</svg>
