<svg width="528" height="122" viewBox="0 0 528 122" fill="none" xmlns="http://www.w3.org/2000/svg">
<path d="M68.0812 59.4084C74.7575 60.6532 80.2458 63.9914 84.5458 69.423C88.8458 74.8546 90.9959 81.0784 90.9959 88.0942C90.9959 94.4311 89.4116 100.033 86.2432 104.898C83.1879 109.651 78.7181 113.385 72.8338 116.101C66.9496 118.817 59.9903 120.175 51.956 120.175H0.864746V1.69738H49.7494C57.7837 1.69738 64.6864 2.99871 70.4575 5.60137C76.3418 8.20402 80.755 11.8251 83.6971 16.4646C86.7524 21.1041 88.28 26.366 88.28 32.2503C88.28 39.153 86.4129 44.9241 82.6787 49.5636C79.0576 54.2031 74.1917 57.4847 68.0812 59.4084ZM24.6281 50.582H46.3546C52.0126 50.582 56.3692 49.3373 59.4245 46.8478C62.4798 44.2451 64.0074 40.5675 64.0074 35.8148C64.0074 31.0621 62.4798 27.3845 59.4245 24.7818C56.3692 22.1791 52.0126 20.8778 46.3546 20.8778H24.6281V50.582ZM48.5612 100.825C54.3324 100.825 58.8021 99.4667 61.9706 96.7509C65.2522 94.0351 66.893 90.1877 66.893 85.2087C66.893 80.1165 65.1956 76.156 61.8008 73.327C58.4061 70.3849 53.8231 68.9138 48.052 68.9138H24.6281V100.825H48.5612Z" fill="#FAFAFA"/>
<path d="M164.93 121.363C153.841 121.363 143.656 118.76 134.377 113.555C125.098 108.35 117.743 101.164 112.311 91.9982C106.88 82.7192 104.164 72.252 104.164 60.5966C104.164 49.0544 106.88 38.7004 112.311 29.5345C117.743 20.2554 125.098 13.0133 134.377 7.80796C143.656 2.60265 153.841 0 164.93 0C176.133 0 186.317 2.60265 195.483 7.80796C204.762 13.0133 212.061 20.2554 217.379 29.5345C222.811 38.7004 225.527 49.0544 225.527 60.5966C225.527 72.252 222.811 82.7192 217.379 91.9982C212.061 101.164 204.762 108.35 195.483 113.555C186.204 118.76 176.02 121.363 164.93 121.363ZM164.93 100.146C172.059 100.146 178.34 98.5615 183.771 95.393C189.203 92.1114 193.446 87.4719 196.502 81.4744C199.557 75.477 201.084 68.5177 201.084 60.5966C201.084 52.6755 199.557 45.7728 196.502 39.8885C193.446 33.8911 189.203 29.3082 183.771 26.1397C178.34 22.9713 172.059 21.387 164.93 21.387C157.801 21.387 151.464 22.9713 145.919 26.1397C140.488 29.3082 136.244 33.8911 133.189 39.8885C130.134 45.7728 128.606 52.6755 128.606 60.5966C128.606 68.5177 130.134 75.477 133.189 81.4744C136.244 87.4719 140.488 92.1114 145.919 95.393C151.464 98.5615 157.801 100.146 164.93 100.146Z" fill="#FAFAFA"/>
<path d="M298.201 121.363C287.112 121.363 276.927 118.76 267.648 113.555C258.369 108.35 251.014 101.164 245.582 91.9982C240.151 82.7192 237.435 72.252 237.435 60.5966C237.435 49.0544 240.151 38.7004 245.582 29.5345C251.014 20.2554 258.369 13.0133 267.648 7.80796C276.927 2.60265 287.112 0 298.201 0C309.404 0 319.588 2.60265 328.754 7.80796C338.033 13.0133 345.332 20.2554 350.651 29.5345C356.082 38.7004 358.798 49.0544 358.798 60.5966C358.798 72.252 356.082 82.7192 350.651 91.9982C345.332 101.164 338.033 108.35 328.754 113.555C319.475 118.76 309.291 121.363 298.201 121.363ZM298.201 100.146C305.33 100.146 311.611 98.5615 317.042 95.393C322.474 92.1114 326.717 87.4719 329.773 81.4744C332.828 75.477 334.356 68.5177 334.356 60.5966C334.356 52.6755 332.828 45.7728 329.773 39.8885C326.717 33.8911 322.474 29.3082 317.042 26.1397C311.611 22.9713 305.33 21.387 298.201 21.387C291.072 21.387 284.735 22.9713 279.191 26.1397C273.759 29.3082 269.516 33.8911 266.46 39.8885C263.405 45.7728 261.877 52.6755 261.877 60.5966C261.877 68.5177 263.405 75.477 266.46 81.4744C269.516 87.4719 273.759 92.1114 279.191 95.393C284.735 98.5615 291.072 100.146 298.201 100.146Z" fill="#FAFAFA"/>
<path d="M372.908 88.5967H444.338L442.08 87.1885L372.908 44.0391V8.25879L448.587 58.416L449.012 58.6973L449.434 58.4131L526.44 6.49219V44.042L457.71 87.1895L455.469 88.5967L526.44 88.5967V118.239L372.908 118.239V88.5967Z" fill="#FAFAFA" stroke="#010A1D" stroke-width="1.52376"/>
</svg>
