<svg width="61" height="15" viewBox="0 0 61 15" fill="none" xmlns="http://www.w3.org/2000/svg">
<path d="M8.14565 7.31566C8.90002 7.4563 9.52014 7.83349 10.006 8.44722C10.4919 9.06094 10.7348 9.76417 10.7348 10.5569C10.7348 11.2729 10.5558 11.9058 10.1978 12.4556C9.85257 12.9926 9.34753 13.4146 8.68266 13.7214C8.01779 14.0283 7.23145 14.1817 6.32364 14.1817H0.550781V0.794816H6.07432C6.98212 0.794816 7.76207 0.941855 8.41415 1.23593C9.07902 1.53001 9.57767 1.93916 9.91011 2.46339C10.2553 2.98761 10.4279 3.58216 10.4279 4.24703C10.4279 5.02697 10.217 5.67906 9.79503 6.20328C9.38588 6.7275 8.83609 7.0983 8.14565 7.31566ZM3.23583 6.31835H5.69074C6.33004 6.31835 6.8223 6.17771 7.16752 5.89642C7.51274 5.60234 7.68535 5.1868 7.68535 4.64979C7.68535 4.11277 7.51274 3.69723 7.16752 3.40315C6.8223 3.10908 6.33004 2.96204 5.69074 2.96204H3.23583V6.31835ZM5.94007 11.9953C6.59215 11.9953 7.0972 11.8419 7.4552 11.535C7.826 11.2282 8.01139 10.7934 8.01139 10.2309C8.01139 9.65549 7.8196 9.20798 7.43602 8.88833C7.05244 8.5559 6.53461 8.38968 5.88253 8.38968H3.23583V11.9953H5.94007Z" fill="#FAFAFA"/>
<path d="M19.0887 14.316C17.8357 14.316 16.685 14.0219 15.6365 13.4337C14.5881 12.8456 13.757 12.0337 13.1433 10.998C12.5295 9.94957 12.2227 8.76687 12.2227 7.44991C12.2227 6.14574 12.5295 4.97583 13.1433 3.94016C13.757 2.89171 14.5881 2.07341 15.6365 1.48526C16.685 0.897104 17.8357 0.603027 19.0887 0.603027C20.3545 0.603027 21.5053 0.897104 22.5409 1.48526C23.5894 2.07341 24.4141 2.89171 25.015 3.94016C25.6288 4.97583 25.9356 6.14574 25.9356 7.44991C25.9356 8.76687 25.6288 9.94957 25.015 10.998C24.4141 12.0337 23.5894 12.8456 22.5409 13.4337C21.4925 14.0219 20.3418 14.316 19.0887 14.316ZM19.0887 11.9186C19.8942 11.9186 20.6039 11.7396 21.2176 11.3816C21.8313 11.0108 22.3108 10.4866 22.656 9.80892C23.0012 9.13127 23.1738 8.34493 23.1738 7.44991C23.1738 6.55489 23.0012 5.77495 22.656 5.11008C22.3108 4.43242 21.8313 3.91459 21.2176 3.55659C20.6039 3.19858 19.8942 3.01957 19.0887 3.01957C18.2832 3.01957 17.5672 3.19858 16.9407 3.55659C16.327 3.91459 15.8475 4.43242 15.5023 5.11008C15.157 5.77495 14.9844 6.55489 14.9844 7.44991C14.9844 8.34493 15.157 9.13127 15.5023 9.80892C15.8475 10.4866 16.327 11.0108 16.9407 11.3816C17.5672 11.7396 18.2832 11.9186 19.0887 11.9186Z" fill="#FAFAFA"/>
<path d="M34.1472 14.316C32.8942 14.316 31.7434 14.0219 30.695 13.4337C29.6465 12.8456 28.8155 12.0337 28.2017 10.998C27.588 9.94957 27.2811 8.76687 27.2811 7.44991C27.2811 6.14574 27.588 4.97583 28.2017 3.94016C28.8155 2.89171 29.6465 2.07341 30.695 1.48526C31.7434 0.897104 32.8942 0.603027 34.1472 0.603027C35.413 0.603027 36.5638 0.897104 37.5994 1.48526C38.6479 2.07341 39.4726 2.89171 40.0735 3.94016C40.6872 4.97583 40.9941 6.14574 40.9941 7.44991C40.9941 8.76687 40.6872 9.94957 40.0735 10.998C39.4726 12.0337 38.6479 12.8456 37.5994 13.4337C36.551 14.0219 35.4002 14.316 34.1472 14.316ZM34.1472 11.9186C34.9527 11.9186 35.6623 11.7396 36.2761 11.3816C36.8898 11.0108 37.3693 10.4866 37.7145 9.80892C38.0597 9.13127 38.2323 8.34493 38.2323 7.44991C38.2323 6.55489 38.0597 5.77495 37.7145 5.11008C37.3693 4.43242 36.8898 3.91459 36.2761 3.55659C35.6623 3.19858 34.9527 3.01957 34.1472 3.01957C33.3417 3.01957 32.6257 3.19858 31.9992 3.55659C31.3854 3.91459 30.906 4.43242 30.5607 5.11008C30.2155 5.77495 30.0429 6.55489 30.0429 7.44991C30.0429 8.34493 30.2155 9.13127 30.5607 9.80892C30.906 10.4866 31.3854 11.0108 31.9992 11.3816C32.6257 11.7396 33.3417 11.9186 34.1472 11.9186Z" fill="#FAFAFA"/>
<path d="M42.5889 10.6138H50.6602L50.4053 10.4546L42.5889 5.57959V1.53662L51.1396 7.20361L51.1875 7.23584L51.2354 7.20361L59.9365 1.3374V5.57959L52.1709 10.4546L51.918 10.6138H59.9365V13.9634L42.5889 13.9634V10.6138Z" fill="#FAFAFA" stroke="#010A1D" stroke-width="0.172171"/>
</svg>
