<svg width="57" height="33" viewBox="0 0 57 33" fill="none" xmlns="http://www.w3.org/2000/svg">
<path d="M11.3622 0.698242V20.1228C11.3622 23.6331 12.1587 26.2142 13.7516 27.8661C15.3445 29.4885 17.5126 30.2997 20.2559 30.2997C22.9698 30.2997 25.1084 29.4885 26.6718 27.8661C28.2352 26.2437 29.0169 23.6626 29.0169 20.1228V0.698242H31.008V20.0786C31.008 24.1198 30.0346 27.1286 28.0877 29.105C26.1408 31.0814 23.5302 32.0696 20.2559 32.0696C16.9816 32.0696 14.3415 31.0814 12.3357 29.105C10.3593 27.0991 9.37109 24.0903 9.37109 20.0786V0.698242H11.3622Z" fill="#FAFAFA"/>
<path d="M56.8719 9.45921C56.8719 12.2025 56.0165 14.3412 54.3056 15.8751C52.5947 17.3795 50.0579 18.1317 46.6951 18.1317H40.058V31.7598H38.0668V0.698242H46.6951C50.1169 0.698242 52.6684 1.49469 54.3498 3.0876C56.0312 4.651 56.8719 6.77487 56.8719 9.45921ZM46.6951 16.3618C52.1522 16.3618 54.8808 14.0609 54.8808 9.45921C54.8808 7.18785 54.2319 5.4622 52.9339 4.28227C51.636 3.07285 49.5564 2.46813 46.6951 2.46813H40.058V16.3618H46.6951Z" fill="#FAFAFA"/>
<path d="M6.63867 3.29785C8.1184 3.29785 9.38276 3.60498 10.418 4.2334L10.709 4.41016L10.4512 4.63184L9.87305 5.12988L9.73633 5.24707L9.58301 5.1543C8.79894 4.6796 7.82163 4.43457 6.63867 4.43457C5.69945 4.43464 4.85426 4.6358 4.09766 5.0332L4.09473 5.03418C3.34239 5.4193 2.7507 5.9802 2.31641 6.72168L2.31543 6.72363C1.88383 7.45067 1.66315 8.3103 1.66309 9.31152C1.66309 10.301 1.88314 11.1556 2.31445 11.8828L2.48535 12.1465C2.9 12.7416 3.43661 13.2114 4.09766 13.5586L4.38574 13.6992C5.06713 14.0037 5.81705 14.1572 6.63867 14.1572C7.8223 14.1572 8.80057 13.9178 9.58496 13.4531L9.73535 13.3643L9.86914 13.4756L10.4482 13.957L10.7139 14.1787L10.418 14.3584C9.38276 14.9868 8.1184 15.2939 6.63867 15.2939C5.45848 15.2939 4.383 15.0448 3.41699 14.543L3.41406 14.542C2.46089 14.0292 1.70484 13.3186 1.15137 12.4131L1.14941 12.4092C0.607104 11.4899 0.337891 10.455 0.337891 9.31152C0.337957 8.158 0.607217 7.12239 1.15039 6.21289V6.21191L1.36719 5.87793C1.89557 5.11974 2.57923 4.51556 3.41406 4.06641L3.41504 4.06543L3.78223 3.88574C4.65189 3.49314 5.6051 3.29791 6.63867 3.29785Z" fill="#FAFAFA" stroke="#FAFAFA" stroke-width="0.494223"/>
</svg>
