<svg width="615" height="252" viewBox="0 0 615 252" fill="none" xmlns="http://www.w3.org/2000/svg">
<path d="M244.079 2.38477L286.039 248.946H298.707L309.803 196.96H308.318L277.127 2.38477H244.079Z" fill="#FAFAFA"/>
<path d="M340.624 2.38477H291.566L295.136 29.0061H336.407L340.624 2.38477Z" fill="#3C66ED"/>
<path d="M372.929 2.38477H340.624L336.407 29.0061L309.803 196.96L298.707 248.946H331.34L372.929 2.38477Z" fill="#3C66ED"/>
<path d="M86.9791 75.9904V61.88C86.9791 52.7206 84.8749 45.5416 80.6666 40.3431C76.7057 34.8969 70.0219 32.1739 60.6149 32.1739C51.7031 32.1739 45.143 34.6494 40.9346 39.6004C36.7262 44.5514 34.622 50.6165 34.622 57.7954V67.4499C34.622 72.8961 35.6122 77.4758 37.5926 81.189C39.5731 84.9023 43.4101 89.1107 49.1038 93.8141C53.3122 97.0323 57.8919 100.374 62.8429 103.84C68.0415 107.058 73.1163 110.276 78.0673 113.494C83.0183 116.713 87.8456 119.931 92.549 123.149C97.2525 126.367 101.337 129.462 104.803 132.432C110.496 137.383 114.829 143.201 117.799 149.885C121.017 156.568 122.627 165.604 122.627 176.991V192.216C122.627 211.525 117.799 226.378 108.145 236.775C98.7378 246.925 83.1421 251.999 61.3576 251.999C39.5731 251.999 23.9773 246.801 14.5704 236.404C5.16344 225.759 0.459961 210.287 0.459961 189.988V175.877H32.0227V190.359C32.0227 200.509 34.2507 208.183 38.7066 213.381C43.1626 218.58 50.4653 221.179 60.6149 221.179C69.2792 221.179 75.9631 218.951 80.6666 214.495C85.37 210.039 87.7218 202.86 87.7218 192.958V181.819C87.7218 178.105 87.4742 174.887 86.9791 172.164C86.484 169.194 85.6176 166.594 84.3798 164.366C83.1421 161.891 81.4092 159.663 79.1813 157.682C77.2009 155.454 74.7253 153.103 71.7547 150.627C63.0904 143.448 54.3024 137.136 45.3905 131.689C36.4787 126.243 28.1857 119.807 20.5116 112.38C14.3228 105.944 9.61936 99.2603 6.40119 92.3288C3.18302 85.3974 1.57394 76.9807 1.57394 67.0786V56.3101C1.57394 39.9717 6.15364 26.7278 15.313 16.5781C24.72 6.181 39.6968 0.982422 60.2436 0.982422C71.3834 0.982422 80.6666 2.59151 88.0931 5.80968C95.5196 9.02783 101.461 13.4837 105.917 19.1774C110.373 24.8711 113.467 31.6788 115.2 39.6004C117.18 47.522 118.171 56.0626 118.171 65.222V75.9904H86.9791Z" fill="#FAFAFA"/>
<path d="M141.193 249.771V3.21038H230.311V33.2879H173.87V105.325H225.484V135.774H173.87V219.694H233.282V249.771H141.193Z" fill="#FAFAFA"/>
<path d="M381.25 249.771V3.21038H470.368V33.2879H413.927V105.325H465.541V135.774H413.927V219.694H473.339V249.771H381.25Z" fill="#FAFAFA"/>
<path d="M575.822 249.771L519.381 58.9094H517.895C518.638 77.2282 519.009 94.5568 519.009 110.895V249.771H489.674V3.21038H533.491L585.105 180.333H586.591C585.848 157.063 585.477 137.136 585.477 120.55V3.21038H614.812V249.771H575.822Z" fill="#FAFAFA"/>
</svg>
