<svg width="70" height="30" viewBox="0 0 70 30" fill="none" xmlns="http://www.w3.org/2000/svg">
<path d="M27.8945 0.856934L32.6356 28.7162H34.067L35.3209 22.8422H35.153L31.6287 0.856934H27.8945Z" fill="#FAFAFA"/>
<path d="M38.8033 0.856934H33.2601L33.6636 3.86491H38.3268L38.8033 0.856934Z" fill="#3C66ED"/>
<path d="M42.4535 0.856934H38.8033L38.3268 3.86491L35.3209 22.8422L34.067 28.7162H37.7543L42.4535 0.856934Z" fill="#3C66ED"/>
<path d="M10.1441 9.17349V7.57913C10.1441 6.5442 9.90631 5.73304 9.4308 5.14565C8.98326 4.53028 8.22805 4.2226 7.16514 4.2226C6.15818 4.2226 5.41695 4.50231 4.94144 5.06173C4.46593 5.62116 4.22818 6.30645 4.22818 7.11761V8.20849C4.22818 8.82385 4.34006 9.34132 4.56383 9.76088C4.7876 10.1804 5.22115 10.656 5.86449 11.1874C6.34 11.551 6.85746 11.9286 7.41688 12.3202C8.00428 12.6839 8.57768 13.0475 9.13711 13.4111C9.69653 13.7747 10.242 14.1384 10.7734 14.502C11.3049 14.8656 11.7664 15.2152 12.158 15.5509C12.8013 16.1103 13.2908 16.7676 13.6265 17.5229C13.9901 18.2781 14.1719 19.299 14.1719 20.5857V22.3059C14.1719 24.4877 13.6265 26.1659 12.5356 27.3407C11.4727 28.4875 9.71051 29.0609 7.24906 29.0609C4.7876 29.0609 3.02542 28.4736 1.96252 27.2988C0.899615 26.096 0.368164 24.3478 0.368164 22.0542V20.4598H3.93448V22.0961C3.93448 23.243 4.18622 24.1101 4.6897 24.6975C5.19318 25.2848 6.01833 25.5785 7.16514 25.5785C8.14413 25.5785 8.89935 25.3268 9.4308 24.8233C9.96225 24.3198 10.228 23.5087 10.228 22.3898V21.1311C10.228 20.7116 10.2 20.3479 10.1441 20.0403C10.0881 19.7046 9.99022 19.4109 9.85037 19.1592C9.71051 18.8795 9.51472 18.6277 9.26298 18.404C9.03921 18.1522 8.7595 17.8865 8.42384 17.6068C7.44485 16.7956 6.45188 16.0824 5.44492 15.467C4.43796 14.8516 3.50093 14.1244 2.63382 13.2852C1.93455 12.558 1.4031 11.8028 1.03947 11.0196C0.675846 10.2364 0.494034 9.28537 0.494034 8.16653V6.94979C0.494034 5.10369 1.0115 3.60724 2.04643 2.46042C3.10933 1.28564 4.80158 0.698242 7.12319 0.698242C8.38189 0.698242 9.4308 0.880055 10.2699 1.24368C11.1091 1.6073 11.7804 2.11078 12.2839 2.75412C12.7873 3.39745 13.137 4.16666 13.3328 5.06173C13.5565 5.95681 13.6684 6.92181 13.6684 7.95675V9.17349H10.1441Z" fill="#FAFAFA"/>
<path d="M16.2697 28.8092V0.949981H26.3393V4.34847H19.9619V12.4881H25.7939V15.9285H19.9619V25.4107H26.675V28.8092H16.2697Z" fill="#FAFAFA"/>
<path d="M43.3941 28.8092V0.949981H53.4637V4.34847H47.0863V12.4881H52.9182V15.9285H47.0863V25.4107H53.7993V28.8092H43.3941Z" fill="#FAFAFA"/>
<path d="M65.379 28.8092L59.0016 7.24348H58.8338C58.9177 9.31334 58.9597 11.2713 58.9597 13.1174V28.8092H55.6451V0.949981H60.596L66.4279 20.9633H66.5958C66.5119 18.334 66.4699 16.0824 66.4699 14.2083V0.949981H69.7845V28.8092H65.379Z" fill="#FAFAFA"/>
</svg>
