<svg width="62" height="17" viewBox="0 0 62 17" fill="none" xmlns="http://www.w3.org/2000/svg">
<path d="M0.28125 16.1257H2.22589V10.2702C2.22589 8.41199 3.24143 7.48288 4.6891 7.48288C5.35893 7.48288 5.85589 7.67734 6.30964 8.13109L7.58446 6.81306C6.87142 5.99199 6.05035 5.64628 5.01321 5.64628C3.76 5.64628 2.80928 6.16485 2.22589 7.07234V5.86235H0.28125V16.1257Z" fill="#FAFAFA"/>
<path d="M13.3696 16.3418C14.9901 16.3418 16.4594 15.7152 17.4533 14.57L16.2001 13.2952C15.5303 14.1163 14.5148 14.5052 13.3696 14.5052C11.533 14.5052 10.2366 13.4248 9.93407 11.7179H17.9719C18.0583 11.3073 18.08 10.9832 18.08 10.6807C18.08 7.76377 16.0489 5.64628 13.24 5.64628C10.2582 5.64628 7.94621 7.97984 7.94621 10.9832C7.94621 14.0514 10.2798 16.3418 13.3696 16.3418ZM13.1967 7.43967C14.8821 7.43967 15.9625 8.43359 16.1785 10.0973H9.93407C10.2366 8.47681 11.4682 7.43967 13.1967 7.43967Z" fill="#FAFAFA"/>
<path d="M24.8891 16.3418C26.4664 16.3418 27.8925 15.7152 28.8432 14.6132L27.5684 13.3168C26.9201 14.0731 25.991 14.462 24.8891 14.462C22.9444 14.462 21.54 13.0143 21.54 10.9832C21.54 8.95217 22.9444 7.52609 24.8891 7.52609C25.9694 7.52609 26.8985 7.91502 27.5467 8.67127L28.8432 7.37485C27.8708 6.27288 26.4664 5.64628 24.8891 5.64628C21.8641 5.64628 19.5305 7.97984 19.5305 10.9832C19.5305 14.0082 21.8641 16.3418 24.8891 16.3418Z" fill="#FAFAFA"/>
<path d="M43.0102 16.1257H44.9548V10.2702C44.9548 8.41199 45.9704 7.48288 47.418 7.48288C48.0879 7.48288 48.5848 7.67734 49.0386 8.13109L50.3134 6.81306C49.6004 5.99199 48.7793 5.64628 47.7421 5.64628C46.4889 5.64628 45.5382 6.16485 44.9548 7.07234V5.86235H43.0102V16.1257Z" fill="#FAFAFA"/>
<path d="M55.688 16.3418C57.1357 16.3418 58.3889 15.7368 59.1235 14.7213V16.1257H61.0898V0.698242H59.1235V7.28842C58.3673 6.27288 57.1357 5.64628 55.6664 5.64628C52.8575 5.64628 50.6968 7.97984 50.6968 11.0048C50.6968 14.0082 52.8575 16.3418 55.688 16.3418ZM56.0121 14.5052C54.0675 14.5052 52.7062 13.0575 52.7062 10.9832C52.7062 8.93056 54.0675 7.48288 55.9905 7.48288C57.9351 7.48288 59.2532 8.93056 59.2532 11.0048C59.2532 13.0575 57.9351 14.5052 56.0121 14.5052Z" fill="#FAFAFA"/>
<circle cx="35.3595" cy="10.9884" r="5.54013" fill="#DC3F3F"/>
</svg>
