<svg width="539" height="142" viewBox="0 0 539 142" fill="none" xmlns="http://www.w3.org/2000/svg">
<path d="M0.811523 137.52H18.0221V85.6966C18.0221 69.251 27.0098 61.0282 39.8221 61.0282C45.7502 61.0282 50.1485 62.7492 54.1643 66.765L65.4467 55.1001C59.1362 47.8334 51.8695 44.7737 42.6906 44.7737C31.5993 44.7737 23.1853 49.3632 18.0221 57.3948V46.686H0.811523V137.52Z" fill="#FAFAFA"/>
<path d="M116.647 139.432C130.989 139.432 143.992 133.886 152.789 123.751L141.698 112.469C135.77 119.735 126.782 123.177 116.647 123.177C100.392 123.177 88.9185 113.616 86.2413 98.5089H157.378C158.143 94.8756 158.334 92.0072 158.334 89.33C158.334 63.5141 140.359 44.7737 115.499 44.7737C89.1098 44.7737 68.6483 65.4264 68.6483 92.0072C68.6483 119.162 89.301 139.432 116.647 139.432ZM115.117 60.6457C130.033 60.6457 139.594 69.4422 141.506 84.1668H86.2413C88.9185 69.8247 99.8186 60.6457 115.117 60.6457Z" fill="#FAFAFA"/>
<path d="M218.597 139.432C232.556 139.432 245.178 133.886 253.592 124.134L242.309 112.66C236.572 119.353 228.349 122.795 218.597 122.795C201.386 122.795 188.956 109.983 188.956 92.0072C188.956 74.0317 201.386 61.4106 218.597 61.4106C228.158 61.4106 236.381 64.8527 242.118 71.5457L253.592 60.072C244.986 50.3194 232.556 44.7737 218.597 44.7737C191.825 44.7737 171.172 65.4264 171.172 92.0072C171.172 118.779 191.825 139.432 218.597 139.432Z" fill="#FAFAFA"/>
<path d="M378.973 137.52H396.184V85.6966C396.184 69.251 405.172 61.0282 417.984 61.0282C423.912 61.0282 428.31 62.7492 432.326 66.765L443.608 55.1001C437.298 47.8334 430.031 44.7737 420.852 44.7737C409.761 44.7737 401.347 49.3632 396.184 57.3948V46.686H378.973V137.52Z" fill="#FAFAFA"/>
<path d="M491.175 139.432C503.987 139.432 515.079 134.077 521.58 125.09V137.52H538.982V0.982422H521.58V59.3071C514.887 50.3194 503.987 44.7737 490.984 44.7737C466.124 44.7737 447.001 65.4264 447.001 92.1984C447.001 118.779 466.124 139.432 491.175 139.432ZM494.043 123.177C476.833 123.177 464.785 110.365 464.785 92.0072C464.785 73.8405 476.833 61.0282 493.852 61.0282C511.063 61.0282 522.728 73.8405 522.728 92.1984C522.728 110.365 511.063 123.177 494.043 123.177Z" fill="#FAFAFA"/>
<circle cx="311.258" cy="92.054" r="49.0315" fill="#DC3F3F"/>
</svg>
