<svg width="52" height="14" viewBox="0 0 52 14" fill="none" xmlns="http://www.w3.org/2000/svg">
<path d="M12.4005 7.16157C12.4005 5.23864 11.8677 3.6864 10.802 2.48167C9.73625 1.30012 8.29984 0.697754 6.49275 0.697754C4.732 0.697754 3.2956 1.27695 2.20671 2.41217C1.11782 3.57056 0.584961 5.07647 0.584961 6.95306C0.584961 8.85282 1.11782 10.3587 2.22988 11.494C3.31876 12.6523 4.75517 13.2084 6.53909 13.2084C7.95233 13.2084 9.15705 12.8609 10.1533 12.1427C11.1263 11.4244 11.775 10.4514 12.0994 9.22351H9.29606C8.78637 10.3819 7.88282 10.9379 6.56226 10.9379C5.65871 10.9379 4.94051 10.6831 4.40765 10.1734C3.87479 9.6637 3.55044 8.87599 3.45777 7.85661H12.4005V7.16157ZM6.46959 2.9682C7.30363 2.9682 7.97549 3.22304 8.50835 3.73274C9.01805 4.24243 9.34239 4.93746 9.4814 5.81784H3.48094C3.75895 3.91808 4.75517 2.9682 6.46959 2.9682Z" fill="#FAFAFA"/>
<path d="M20.6798 0.790424C18.9654 0.790424 17.7606 1.57813 17.1119 3.10721V0.975767H14.2855V12.9304H17.2046V6.86039C17.2046 5.7715 17.4826 4.93746 18.085 4.38144C18.6873 3.82541 19.5446 3.52423 20.6566 3.52423H21.398V0.83676C21.1663 0.813593 20.9346 0.790424 20.6798 0.790424Z" fill="#FAFAFA"/>
<path d="M32.3926 11.494C33.5046 10.3587 34.0606 8.85282 34.0606 6.95306C34.0606 5.0533 33.5046 3.52423 32.3926 2.389C31.2805 1.27695 29.7978 0.697754 27.9907 0.697754C26.1604 0.697754 24.7008 1.27695 23.5888 2.41217C22.4536 3.54739 21.8975 5.0533 21.8975 6.95306C21.8975 8.85282 22.4536 10.3819 23.5888 11.494C24.7008 12.6523 26.1604 13.2084 27.9907 13.2084C29.7978 13.2084 31.2805 12.6523 32.3926 11.494ZM27.9907 10.7989C27.0176 10.7989 26.2531 10.4746 25.6971 9.8027C25.141 9.154 24.8862 8.20412 24.8862 6.95306C24.8862 5.72517 25.141 4.77529 25.6971 4.10342C26.2531 3.45472 27.0176 3.10721 27.9907 3.10721C28.9637 3.10721 29.7051 3.45472 30.2611 4.12659C30.8171 4.79846 31.0952 5.74834 31.0952 6.95306C31.0952 8.18096 30.8171 9.13084 30.2611 9.8027C29.7051 10.4746 28.9637 10.7989 27.9907 10.7989Z" fill="#FAFAFA"/>
<path d="M42.2865 0.790424C40.5721 0.790424 39.3673 1.57813 38.7186 3.10721V0.975767H35.8922V12.9304H38.8113V6.86039C38.8113 5.7715 39.0893 4.93746 39.6917 4.38144C40.2941 3.82541 41.1513 3.52423 42.2633 3.52423H43.0047V0.83676C42.773 0.813593 42.5413 0.790424 42.2865 0.790424Z" fill="#FAFAFA"/>
<path d="M50.9744 0.790424C49.26 0.790424 48.0553 1.57813 47.4066 3.10721V0.975767H44.5801V12.9304H47.4992V6.86039C47.4992 5.7715 47.7773 4.93746 48.3796 4.38144C48.982 3.82541 49.8392 3.52423 50.9512 3.52423H51.6926V0.83676C51.4609 0.813593 51.2293 0.790424 50.9744 0.790424Z" fill="#FAFAFA"/>
</svg>
