<svg width="58" height="18" viewBox="0 0 58 18" fill="none" xmlns="http://www.w3.org/2000/svg">
<path d="M17.6904 0.672363V17.0259H0.162109V0.672363H17.6904ZM29.7031 0.672363L29.709 0.687988L36.6904 16.9907L36.7051 17.0259H33.0605L33.0547 17.0103L31.8232 13.9878H24.7021L23.4717 17.0103L23.4648 17.0259H19.8945L19.9092 16.9907L26.915 0.687988L26.9219 0.672363H29.7031ZM42.1143 0.672363V17.0259H38.6973V0.672363H42.1143ZM49.0527 0.672363V14.1694H57.0244V17.0259H45.6357V0.672363H49.0527ZM3.5791 14.1919H14.2979V7.34326L10.126 11.4741H10.1289L10.0947 11.5044L10.083 11.5171L10.0752 11.5239L8.94336 12.5835L8.92578 12.6001L8.90918 12.5835L7.77734 11.5239L7.76953 11.5171L7.75879 11.5063L7.72363 11.4741H7.72656L3.5791 7.32178V14.1919ZM25.8125 11.2935H30.7383L28.2988 5.21729L25.8125 11.2935ZM8.92578 8.05127L12.4746 4.02002H5.37793L8.92578 8.05127Z" fill="#FAFAFA" stroke="#FAFAFA" stroke-width="0.0503648"/>
</svg>
