<svg width="505" height="146" viewBox="0 0 505 146" fill="none" xmlns="http://www.w3.org/2000/svg">
<path d="M156.2 0.759766V145.488H1.07617V0.759766H156.2ZM262.518 0.759766L262.575 0.894531L324.358 145.178L324.492 145.488H292.235L292.18 145.35L281.281 118.602H218.264L207.365 145.35L207.309 145.488H175.71L175.844 145.177L237.847 0.894531L237.904 0.759766H262.518ZM372.364 0.759766V145.488H342.122V0.759766H372.364ZM433.771 0.759766V120.208H504.317V145.488H403.528V0.759766H433.771ZM31.3184 120.404H126.177V59.8047L88.873 96.7334L88.8691 96.7373L88.7158 96.5752L88.8682 96.7373L78.79 106.179L78.6377 106.321L78.4854 106.179L68.4072 96.7373L68.4023 96.7324L31.3184 59.6035V120.404ZM228.086 94.7588H271.681L250.099 40.9814L228.086 94.7588ZM78.6377 66.0674L110.042 30.3877H47.2344L78.6377 66.0674Z" fill="#FAFAFA" stroke="#FAFAFA" stroke-width="0.445741"/>
</svg>
