<svg width="72" height="42" viewBox="0 0 72 42" fill="none" xmlns="http://www.w3.org/2000/svg">
<path d="M66.8027 26.7734C69.6273 26.7736 71.8184 29.1633 71.8184 32.2217C71.8183 35.2586 69.6271 37.6268 66.8027 37.627C65.5037 37.627 64.3918 37.1455 63.6514 36.3262V41.7324H61.2246V26.9893H63.6514V28.0938C64.3916 27.2744 65.5039 26.7734 66.8027 26.7734ZM34.4473 26.7734C35.7461 26.7734 36.8584 27.2745 37.5986 28.0938V26.9893H40.0264V37.4111H37.5986V36.3262C36.8582 37.1454 35.7462 37.627 34.4473 37.627C31.6229 37.6267 29.4317 35.2586 29.4316 32.2217C29.4316 29.1634 31.6227 26.7737 34.4473 26.7734ZM21.3965 22.2354V35.0918H28.5273V37.4111H18.8613V22.2354H21.3965ZM54.7812 26.7734C55.8996 26.7734 56.9109 27.1479 57.6426 27.8252C58.3745 28.5027 58.8262 29.4817 58.8262 30.6875V37.4111H56.3984V31.2061C56.3984 30.5211 56.1582 29.9827 55.7617 29.6152C55.3647 29.2475 54.809 29.0488 54.1768 29.0488C53.5445 29.0488 52.9835 29.2474 52.5811 29.6152C52.1791 29.9827 51.9336 30.5212 51.9336 31.2061V37.4111H49.5059V31.2061C49.5059 30.5209 49.2649 29.9827 48.8682 29.6152C48.4712 29.2476 47.9163 29.0489 47.2842 29.0488C46.6519 29.0488 46.0909 29.2474 45.6885 29.6152C45.2865 29.9827 45.04 30.5212 45.04 31.2061V37.4111H42.6133V26.9893H45.04V28.0088C45.7576 27.2123 46.8047 26.7734 47.9971 26.7734C49.4167 26.7734 50.6459 27.3917 51.3252 28.4824C52.1089 27.4132 53.339 26.7736 54.7812 26.7734ZM34.8369 29.0703C33.9792 29.0703 33.2508 29.3924 32.7373 29.9434C32.2238 30.4945 31.9229 31.2768 31.9229 32.2002C31.9229 33.1237 32.2237 33.906 32.7373 34.457C33.2508 35.008 33.9792 35.3291 34.8369 35.3291C35.7053 35.329 36.4326 35.0078 36.9434 34.457C37.4543 33.906 37.75 33.1238 37.75 32.2002C37.75 31.2765 37.4543 30.4944 36.9434 29.9434C36.4326 29.3925 35.7054 29.0704 34.8369 29.0703ZM66.4131 29.0703C65.5447 29.0704 64.8174 29.3925 64.3066 29.9434C63.7957 30.4944 63.5 31.2765 63.5 32.2002C63.5 33.1238 63.7957 33.906 64.3066 34.457C64.8173 35.0078 65.5448 35.329 66.4131 35.3291C67.2708 35.3291 67.9992 35.008 68.5127 34.457C69.0263 33.906 69.3271 33.1237 69.3271 32.2002C69.3271 31.2767 69.0262 30.4945 68.5127 29.9434C67.9992 29.3924 67.2708 29.0703 66.4131 29.0703Z" fill="#FAFAFA" stroke="#FAFAFA" stroke-width="0.0503648"/>
<path d="M29.8477 25.525H10.4824C10.4824 25.525 13.3029 20.1107 14.1087 14.0166H26.6243C27.5059 20.1107 29.8477 25.525 29.8477 25.525Z" stroke="#FAFAFA" stroke-width="2.16569"/>
<line x1="0.216051" y1="15.3697" x2="8.20188" y2="16.6703" stroke="#FAFAFA" stroke-width="2.16569"/>
<line x1="20.0265" y1="8.92969" x2="20.0265" y2="0.66986" stroke="#FAFAFA" stroke-width="2.16569"/>
<line x1="32.368" y1="16.6236" x2="41.0308" y2="15.2134" stroke="#FAFAFA" stroke-width="2.16569"/>
</svg>
