<svg width="636" height="364" viewBox="0 0 636 364" fill="none" xmlns="http://www.w3.org/2000/svg">
<path d="M590.853 231.03C615.853 231.03 635.249 252.183 635.249 279.251C635.249 306.13 615.851 327.09 590.853 327.09C579.36 327.09 569.518 322.838 562.965 315.592V363.423H541.484V232.942H562.965V242.718C569.516 235.467 579.358 231.03 590.853 231.03ZM304.506 231.03C316.001 231.03 325.842 235.467 332.394 242.718V232.942H353.875V325.178H332.394V315.592C325.841 322.838 315.998 327.09 304.506 327.09C279.508 327.09 260.109 306.13 260.109 279.251C260.11 252.183 279.506 231.03 304.506 231.03ZM189.001 190.872V304.652H252.107V325.178H166.565V190.872H189.001ZM484.467 231.03C494.365 231.03 503.313 234.345 509.789 240.34C516.267 246.336 520.258 255.002 520.258 265.674V325.178H498.777V270.264C498.777 264.2 496.647 259.433 493.136 256.181C489.622 252.927 484.708 251.172 479.112 251.172C473.517 251.172 468.554 252.927 464.992 256.182C461.433 259.434 459.256 264.201 459.256 270.264V325.178H437.776V270.264C437.776 264.2 435.645 259.433 432.134 256.181C428.62 252.927 423.706 251.172 418.11 251.172C412.515 251.172 407.552 252.927 403.99 256.182C400.431 259.434 398.255 264.201 398.255 270.264V325.178H376.774V232.942H398.255V241.95C404.605 234.908 413.874 231.03 424.421 231.03C436.985 231.03 447.873 236.5 453.885 246.152C460.822 236.693 471.705 231.03 484.467 231.03ZM307.948 251.363C300.358 251.363 293.916 254.209 289.371 259.085C284.825 263.962 282.164 270.886 282.164 279.06C282.164 287.234 284.825 294.157 289.371 299.034C293.916 303.911 300.358 306.756 307.948 306.756C315.635 306.756 322.076 303.911 326.597 299.035C331.119 294.158 333.733 287.235 333.733 279.06C333.732 270.885 331.119 263.962 326.597 259.085C322.076 254.209 315.635 251.363 307.948 251.363ZM587.41 251.363C579.723 251.363 573.282 254.209 568.762 259.085C564.24 263.962 561.626 270.885 561.626 279.06C561.626 287.235 564.24 294.158 568.762 299.035C573.282 303.911 579.723 306.756 587.41 306.756C595.001 306.756 601.443 303.911 605.988 299.034C610.534 294.157 613.194 287.233 613.194 279.06C613.194 270.886 610.534 263.962 605.988 259.085C601.443 254.209 595.001 251.363 587.41 251.363Z" fill="#FAFAFA" stroke="#FAFAFA" stroke-width="0.445741"/>
<path d="M263.781 219.983H92.3938C92.3938 219.983 117.355 172.066 124.487 118.131H235.254C243.056 172.066 263.781 219.983 263.781 219.983Z" stroke="#FAFAFA" stroke-width="19.1669"/>
<line x1="1.54047" y1="130.107" x2="72.217" y2="141.617" stroke="#FAFAFA" stroke-width="19.1669"/>
<line x1="176.862" y1="73.1113" x2="176.862" y2="0.00980419" stroke="#FAFAFA" stroke-width="19.1669"/>
<line x1="286.088" y1="141.211" x2="362.756" y2="128.73" stroke="#FAFAFA" stroke-width="19.1669"/>
</svg>
