<svg width="80" height="22" viewBox="0 0 80 22" fill="none" xmlns="http://www.w3.org/2000/svg">
<mask id="path-1-outside-1_1641_221" maskUnits="userSpaceOnUse" x="-0.709961" y="-0.330078" width="81" height="22" fill="black">
<rect fill="white" x="-0.709961" y="-0.330078" width="81" height="22"/>
<path d="M0.290039 16.6743V1.51454H7.41515C8.44024 1.51454 9.33539 1.68779 10.1006 2.0343C10.8658 2.38081 11.465 2.8717 11.8981 3.50697C12.3313 4.1278 12.5478 4.8497 12.5478 5.67266C12.5478 6.3368 12.3746 6.95041 12.0281 7.51349C11.696 8.06213 11.2412 8.50971 10.6637 8.85622C11.4 9.20273 11.9847 9.67196 12.4179 10.2639C12.851 10.8559 13.0676 11.5272 13.0676 12.278C13.0676 13.1443 12.8438 13.9095 12.3962 14.5736C11.9631 15.2378 11.3423 15.7575 10.5337 16.1329C9.73965 16.4939 8.81563 16.6743 7.76166 16.6743H0.290039ZM3.43028 7.7084H7.22024C7.89882 7.7084 8.43302 7.54959 8.82285 7.23195C9.22711 6.89988 9.42924 6.45952 9.42924 5.91088C9.42924 5.36224 9.22711 4.92911 8.82285 4.61147C8.43302 4.2794 7.89882 4.11336 7.22024 4.11336H3.43028V7.7084ZM3.43028 14.0755H7.52343C8.24533 14.0755 8.82284 13.9023 9.25598 13.5558C9.68912 13.1948 9.90569 12.7184 9.90569 12.1264C9.90569 11.52 9.68912 11.0436 9.25598 10.6971C8.82284 10.3361 8.24533 10.1556 7.52343 10.1556H3.43028V14.0755Z"/>
<path d="M15.0688 16.6743V5.39112H18.0358V6.64722C18.3968 6.15633 18.8299 5.78094 19.3352 5.52106C19.8405 5.26118 20.4108 5.13124 21.0461 5.13124C21.5948 5.14567 22.0062 5.2323 22.2806 5.39112V7.98994C22.064 7.88888 21.8258 7.81669 21.5659 7.77337C21.306 7.71562 21.0389 7.68675 20.7646 7.68675C20.1871 7.68675 19.6601 7.83113 19.1836 8.11988C18.7072 8.40864 18.3246 8.82012 18.0358 9.35433V16.6743H15.0688Z"/>
<path d="M23.9092 16.6743V5.39112H26.8762V16.6743H23.9092ZM25.3819 4.04839C24.9199 4.04839 24.5228 3.88236 24.1908 3.55029C23.8587 3.21821 23.6927 2.82117 23.6927 2.35916C23.6927 1.88271 23.8587 1.48566 24.1908 1.16803C24.5228 0.835958 24.9199 0.669922 25.3819 0.669922C25.8583 0.669922 26.2554 0.835958 26.573 1.16803C26.9051 1.48566 27.0711 1.88271 27.0711 2.35916C27.0711 2.82117 26.9051 3.21821 26.573 3.55029C26.2554 3.88236 25.8583 4.04839 25.3819 4.04839Z"/>
<path d="M61.0112 21.3089C60.1449 21.3089 59.3075 21.2151 58.499 21.0274C57.6904 20.8541 56.9613 20.6015 56.3116 20.2694L57.3511 17.9738C57.972 18.277 58.5784 18.5007 59.1703 18.6451C59.7623 18.7895 60.3542 18.8617 60.9462 18.8617C61.8269 18.8617 62.491 18.674 62.9386 18.2986C63.4006 17.9232 63.6316 17.3601 63.6316 16.6094V15.7214C62.7076 16.4 61.6753 16.7393 60.5347 16.7393C59.4663 16.7393 58.499 16.4867 57.6327 15.9813C56.7808 15.4616 56.095 14.7613 55.5753 13.8806C55.07 12.9999 54.8173 12.0253 54.8173 10.9569C54.8173 9.88853 55.07 8.92119 55.5753 8.05491C56.095 7.18864 56.7953 6.50284 57.676 5.99751C58.5567 5.47775 59.5385 5.21786 60.6213 5.21786C61.17 5.21786 61.7042 5.29727 62.2239 5.45609C62.7437 5.61491 63.2274 5.83869 63.675 6.12745V5.39112H66.5986V16.6527C66.5986 18.1398 66.115 19.2876 65.1476 20.0961C64.1947 20.9047 62.8159 21.3089 61.0112 21.3089ZM60.9895 14.2271C61.5381 14.2271 62.0363 14.1405 62.4838 13.9672C62.9314 13.7795 63.314 13.5197 63.6316 13.1876V8.76959C63.314 8.45196 62.9242 8.20651 62.4622 8.03326C62.0146 7.84556 61.5309 7.75172 61.0112 7.75172C60.3903 7.75172 59.8345 7.8961 59.3436 8.18485C58.8527 8.45918 58.4629 8.84178 58.1741 9.33267C57.8853 9.80912 57.741 10.3505 57.741 10.9569C57.741 11.5778 57.8781 12.1336 58.1525 12.6245C58.4412 13.1154 58.831 13.5052 59.3219 13.794C59.8272 14.0827 60.3831 14.2271 60.9895 14.2271Z"/>
<path d="M74.4374 16.8909C73.3112 16.8909 72.2861 16.631 71.3621 16.1113C70.4525 15.5915 69.7306 14.8913 69.1964 14.0106C68.6622 13.1298 68.3951 12.1408 68.3951 11.0436C68.3951 9.94628 68.6478 8.95728 69.1531 8.07657C69.6729 7.19586 70.3731 6.49562 71.2538 5.97585C72.1346 5.45609 73.1163 5.19621 74.1992 5.19621C75.282 5.19621 76.2421 5.46331 77.0795 5.99751C77.9169 6.53171 78.5739 7.25361 79.0503 8.1632C79.5412 9.07279 79.7866 10.1051 79.7866 11.2601V12.0398H71.4271C71.557 12.4874 71.7664 12.8916 72.0551 13.2526C72.3583 13.6135 72.7265 13.895 73.1596 14.0972C73.6072 14.2993 74.0837 14.4004 74.589 14.4004C75.0943 14.4004 75.5563 14.321 75.975 14.1622C76.4082 14.0033 76.7763 13.7795 77.0795 13.4908L79.0287 15.2667C78.3356 15.8297 77.621 16.2412 76.8846 16.5011C76.1627 16.761 75.347 16.8909 74.4374 16.8909ZM71.3838 9.9174H76.863C76.7619 9.46983 76.5742 9.08001 76.2999 8.74793C76.04 8.40142 75.7224 8.13432 75.347 7.94663C74.986 7.7445 74.5818 7.64343 74.1342 7.64343C73.6722 7.64343 73.2535 7.73728 72.8781 7.92497C72.5027 8.11267 72.1851 8.37977 71.9252 8.72628C71.6798 9.05835 71.4993 9.45539 71.3838 9.9174Z"/>
</mask>
<path d="M0.290039 16.6743V1.51454H7.41515C8.44024 1.51454 9.33539 1.68779 10.1006 2.0343C10.8658 2.38081 11.465 2.8717 11.8981 3.50697C12.3313 4.1278 12.5478 4.8497 12.5478 5.67266C12.5478 6.3368 12.3746 6.95041 12.0281 7.51349C11.696 8.06213 11.2412 8.50971 10.6637 8.85622C11.4 9.20273 11.9847 9.67196 12.4179 10.2639C12.851 10.8559 13.0676 11.5272 13.0676 12.278C13.0676 13.1443 12.8438 13.9095 12.3962 14.5736C11.9631 15.2378 11.3423 15.7575 10.5337 16.1329C9.73965 16.4939 8.81563 16.6743 7.76166 16.6743H0.290039ZM3.43028 7.7084H7.22024C7.89882 7.7084 8.43302 7.54959 8.82285 7.23195C9.22711 6.89988 9.42924 6.45952 9.42924 5.91088C9.42924 5.36224 9.22711 4.92911 8.82285 4.61147C8.43302 4.2794 7.89882 4.11336 7.22024 4.11336H3.43028V7.7084ZM3.43028 14.0755H7.52343C8.24533 14.0755 8.82284 13.9023 9.25598 13.5558C9.68912 13.1948 9.90569 12.7184 9.90569 12.1264C9.90569 11.52 9.68912 11.0436 9.25598 10.6971C8.82284 10.3361 8.24533 10.1556 7.52343 10.1556H3.43028V14.0755Z" fill="#FAFAFA"/>
<path d="M15.0688 16.6743V5.39112H18.0358V6.64722C18.3968 6.15633 18.8299 5.78094 19.3352 5.52106C19.8405 5.26118 20.4108 5.13124 21.0461 5.13124C21.5948 5.14567 22.0062 5.2323 22.2806 5.39112V7.98994C22.064 7.88888 21.8258 7.81669 21.5659 7.77337C21.306 7.71562 21.0389 7.68675 20.7646 7.68675C20.1871 7.68675 19.6601 7.83113 19.1836 8.11988C18.7072 8.40864 18.3246 8.82012 18.0358 9.35433V16.6743H15.0688Z" fill="#FAFAFA"/>
<path d="M23.9092 16.6743V5.39112H26.8762V16.6743H23.9092ZM25.3819 4.04839C24.9199 4.04839 24.5228 3.88236 24.1908 3.55029C23.8587 3.21821 23.6927 2.82117 23.6927 2.35916C23.6927 1.88271 23.8587 1.48566 24.1908 1.16803C24.5228 0.835958 24.9199 0.669922 25.3819 0.669922C25.8583 0.669922 26.2554 0.835958 26.573 1.16803C26.9051 1.48566 27.0711 1.88271 27.0711 2.35916C27.0711 2.82117 26.9051 3.21821 26.573 3.55029C26.2554 3.88236 25.8583 4.04839 25.3819 4.04839Z" fill="#FAFAFA"/>
<path d="M61.0112 21.3089C60.1449 21.3089 59.3075 21.2151 58.499 21.0274C57.6904 20.8541 56.9613 20.6015 56.3116 20.2694L57.3511 17.9738C57.972 18.277 58.5784 18.5007 59.1703 18.6451C59.7623 18.7895 60.3542 18.8617 60.9462 18.8617C61.8269 18.8617 62.491 18.674 62.9386 18.2986C63.4006 17.9232 63.6316 17.3601 63.6316 16.6094V15.7214C62.7076 16.4 61.6753 16.7393 60.5347 16.7393C59.4663 16.7393 58.499 16.4867 57.6327 15.9813C56.7808 15.4616 56.095 14.7613 55.5753 13.8806C55.07 12.9999 54.8173 12.0253 54.8173 10.9569C54.8173 9.88853 55.07 8.92119 55.5753 8.05491C56.095 7.18864 56.7953 6.50284 57.676 5.99751C58.5567 5.47775 59.5385 5.21786 60.6213 5.21786C61.17 5.21786 61.7042 5.29727 62.2239 5.45609C62.7437 5.61491 63.2274 5.83869 63.675 6.12745V5.39112H66.5986V16.6527C66.5986 18.1398 66.115 19.2876 65.1476 20.0961C64.1947 20.9047 62.8159 21.3089 61.0112 21.3089ZM60.9895 14.2271C61.5381 14.2271 62.0363 14.1405 62.4838 13.9672C62.9314 13.7795 63.314 13.5197 63.6316 13.1876V8.76959C63.314 8.45196 62.9242 8.20651 62.4622 8.03326C62.0146 7.84556 61.5309 7.75172 61.0112 7.75172C60.3903 7.75172 59.8345 7.8961 59.3436 8.18485C58.8527 8.45918 58.4629 8.84178 58.1741 9.33267C57.8853 9.80912 57.741 10.3505 57.741 10.9569C57.741 11.5778 57.8781 12.1336 58.1525 12.6245C58.4412 13.1154 58.831 13.5052 59.3219 13.794C59.8272 14.0827 60.3831 14.2271 60.9895 14.2271Z" fill="#FAFAFA"/>
<path d="M74.4374 16.8909C73.3112 16.8909 72.2861 16.631 71.3621 16.1113C70.4525 15.5915 69.7306 14.8913 69.1964 14.0106C68.6622 13.1298 68.3951 12.1408 68.3951 11.0436C68.3951 9.94628 68.6478 8.95728 69.1531 8.07657C69.6729 7.19586 70.3731 6.49562 71.2538 5.97585C72.1346 5.45609 73.1163 5.19621 74.1992 5.19621C75.282 5.19621 76.2421 5.46331 77.0795 5.99751C77.9169 6.53171 78.5739 7.25361 79.0503 8.1632C79.5412 9.07279 79.7866 10.1051 79.7866 11.2601V12.0398H71.4271C71.557 12.4874 71.7664 12.8916 72.0551 13.2526C72.3583 13.6135 72.7265 13.895 73.1596 14.0972C73.6072 14.2993 74.0837 14.4004 74.589 14.4004C75.0943 14.4004 75.5563 14.321 75.975 14.1622C76.4082 14.0033 76.7763 13.7795 77.0795 13.4908L79.0287 15.2667C78.3356 15.8297 77.621 16.2412 76.8846 16.5011C76.1627 16.761 75.347 16.8909 74.4374 16.8909ZM71.3838 9.9174H76.863C76.7619 9.46983 76.5742 9.08001 76.2999 8.74793C76.04 8.40142 75.7224 8.13432 75.347 7.94663C74.986 7.7445 74.5818 7.64343 74.1342 7.64343C73.6722 7.64343 73.2535 7.73728 72.8781 7.92497C72.5027 8.11267 72.1851 8.37977 71.9252 8.72628C71.6798 9.05835 71.4993 9.45539 71.3838 9.9174Z" fill="#FAFAFA"/>
<path d="M0.290039 16.6743V1.51454H7.41515C8.44024 1.51454 9.33539 1.68779 10.1006 2.0343C10.8658 2.38081 11.465 2.8717 11.8981 3.50697C12.3313 4.1278 12.5478 4.8497 12.5478 5.67266C12.5478 6.3368 12.3746 6.95041 12.0281 7.51349C11.696 8.06213 11.2412 8.50971 10.6637 8.85622C11.4 9.20273 11.9847 9.67196 12.4179 10.2639C12.851 10.8559 13.0676 11.5272 13.0676 12.278C13.0676 13.1443 12.8438 13.9095 12.3962 14.5736C11.9631 15.2378 11.3423 15.7575 10.5337 16.1329C9.73965 16.4939 8.81563 16.6743 7.76166 16.6743H0.290039ZM3.43028 7.7084H7.22024C7.89882 7.7084 8.43302 7.54959 8.82285 7.23195C9.22711 6.89988 9.42924 6.45952 9.42924 5.91088C9.42924 5.36224 9.22711 4.92911 8.82285 4.61147C8.43302 4.2794 7.89882 4.11336 7.22024 4.11336H3.43028V7.7084ZM3.43028 14.0755H7.52343C8.24533 14.0755 8.82284 13.9023 9.25598 13.5558C9.68912 13.1948 9.90569 12.7184 9.90569 12.1264C9.90569 11.52 9.68912 11.0436 9.25598 10.6971C8.82284 10.3361 8.24533 10.1556 7.52343 10.1556H3.43028V14.0755Z" stroke="#FAFAFA" stroke-width="0.10073" mask="url(#path-1-outside-1_1641_221)"/>
<path d="M15.0688 16.6743V5.39112H18.0358V6.64722C18.3968 6.15633 18.8299 5.78094 19.3352 5.52106C19.8405 5.26118 20.4108 5.13124 21.0461 5.13124C21.5948 5.14567 22.0062 5.2323 22.2806 5.39112V7.98994C22.064 7.88888 21.8258 7.81669 21.5659 7.77337C21.306 7.71562 21.0389 7.68675 20.7646 7.68675C20.1871 7.68675 19.6601 7.83113 19.1836 8.11988C18.7072 8.40864 18.3246 8.82012 18.0358 9.35433V16.6743H15.0688Z" stroke="#FAFAFA" stroke-width="0.10073" mask="url(#path-1-outside-1_1641_221)"/>
<path d="M23.9092 16.6743V5.39112H26.8762V16.6743H23.9092ZM25.3819 4.04839C24.9199 4.04839 24.5228 3.88236 24.1908 3.55029C23.8587 3.21821 23.6927 2.82117 23.6927 2.35916C23.6927 1.88271 23.8587 1.48566 24.1908 1.16803C24.5228 0.835958 24.9199 0.669922 25.3819 0.669922C25.8583 0.669922 26.2554 0.835958 26.573 1.16803C26.9051 1.48566 27.0711 1.88271 27.0711 2.35916C27.0711 2.82117 26.9051 3.21821 26.573 3.55029C26.2554 3.88236 25.8583 4.04839 25.3819 4.04839Z" stroke="#FAFAFA" stroke-width="0.10073" mask="url(#path-1-outside-1_1641_221)"/>
<path d="M61.0112 21.3089C60.1449 21.3089 59.3075 21.2151 58.499 21.0274C57.6904 20.8541 56.9613 20.6015 56.3116 20.2694L57.3511 17.9738C57.972 18.277 58.5784 18.5007 59.1703 18.6451C59.7623 18.7895 60.3542 18.8617 60.9462 18.8617C61.8269 18.8617 62.491 18.674 62.9386 18.2986C63.4006 17.9232 63.6316 17.3601 63.6316 16.6094V15.7214C62.7076 16.4 61.6753 16.7393 60.5347 16.7393C59.4663 16.7393 58.499 16.4867 57.6327 15.9813C56.7808 15.4616 56.095 14.7613 55.5753 13.8806C55.07 12.9999 54.8173 12.0253 54.8173 10.9569C54.8173 9.88853 55.07 8.92119 55.5753 8.05491C56.095 7.18864 56.7953 6.50284 57.676 5.99751C58.5567 5.47775 59.5385 5.21786 60.6213 5.21786C61.17 5.21786 61.7042 5.29727 62.2239 5.45609C62.7437 5.61491 63.2274 5.83869 63.675 6.12745V5.39112H66.5986V16.6527C66.5986 18.1398 66.115 19.2876 65.1476 20.0961C64.1947 20.9047 62.8159 21.3089 61.0112 21.3089ZM60.9895 14.2271C61.5381 14.2271 62.0363 14.1405 62.4838 13.9672C62.9314 13.7795 63.314 13.5197 63.6316 13.1876V8.76959C63.314 8.45196 62.9242 8.20651 62.4622 8.03326C62.0146 7.84556 61.5309 7.75172 61.0112 7.75172C60.3903 7.75172 59.8345 7.8961 59.3436 8.18485C58.8527 8.45918 58.4629 8.84178 58.1741 9.33267C57.8853 9.80912 57.741 10.3505 57.741 10.9569C57.741 11.5778 57.8781 12.1336 58.1525 12.6245C58.4412 13.1154 58.831 13.5052 59.3219 13.794C59.8272 14.0827 60.3831 14.2271 60.9895 14.2271Z" stroke="#FAFAFA" stroke-width="0.10073" mask="url(#path-1-outside-1_1641_221)"/>
<path d="M74.4374 16.8909C73.3112 16.8909 72.2861 16.631 71.3621 16.1113C70.4525 15.5915 69.7306 14.8913 69.1964 14.0106C68.6622 13.1298 68.3951 12.1408 68.3951 11.0436C68.3951 9.94628 68.6478 8.95728 69.1531 8.07657C69.6729 7.19586 70.3731 6.49562 71.2538 5.97585C72.1346 5.45609 73.1163 5.19621 74.1992 5.19621C75.282 5.19621 76.2421 5.46331 77.0795 5.99751C77.9169 6.53171 78.5739 7.25361 79.0503 8.1632C79.5412 9.07279 79.7866 10.1051 79.7866 11.2601V12.0398H71.4271C71.557 12.4874 71.7664 12.8916 72.0551 13.2526C72.3583 13.6135 72.7265 13.895 73.1596 14.0972C73.6072 14.2993 74.0837 14.4004 74.589 14.4004C75.0943 14.4004 75.5563 14.321 75.975 14.1622C76.4082 14.0033 76.7763 13.7795 77.0795 13.4908L79.0287 15.2667C78.3356 15.8297 77.621 16.2412 76.8846 16.5011C76.1627 16.761 75.347 16.8909 74.4374 16.8909ZM71.3838 9.9174H76.863C76.7619 9.46983 76.5742 9.08001 76.2999 8.74793C76.04 8.40142 75.7224 8.13432 75.347 7.94663C74.986 7.7445 74.5818 7.64343 74.1342 7.64343C73.6722 7.64343 73.2535 7.73728 72.8781 7.92497C72.5027 8.11267 72.1851 8.37977 71.9252 8.72628C71.6798 9.05835 71.4993 9.45539 71.3838 9.9174Z" stroke="#FAFAFA" stroke-width="0.10073" mask="url(#path-1-outside-1_1641_221)"/>
<path d="M30.1367 13.502H51.8943" stroke="#FAFAFA" stroke-width="2.41751"/>
<path d="M31.9492 9.37091C31.9492 9.37091 36.5283 7.10449 41.0149 7.10449C45.5015 7.10449 50.0805 9.37091 50.0805 9.37091" stroke="#FAFAFA" stroke-width="2.41751"/>
</svg>
