<svg width="706" height="185" viewBox="0 0 706 185" fill="none" xmlns="http://www.w3.org/2000/svg">
<mask id="path-1-outside-1_819_236" maskUnits="userSpaceOnUse" x="0.0263672" y="0.00976562" width="706" height="185" fill="black">
<rect fill="white" x="0.0263672" y="0.00976562" width="706" height="185"/>
<path d="M1.02637 142.653V8.48484H64.0853C73.1577 8.48484 81.08 10.0182 87.8523 13.0849C94.6245 16.1516 99.9274 20.4961 103.761 26.1184C107.594 31.6129 109.511 38.0018 109.511 45.2852C109.511 51.1631 107.977 56.5937 104.911 61.5771C101.972 66.4327 97.9468 70.3938 92.8356 73.4605C99.3524 76.5272 104.527 80.68 108.361 85.919C112.194 91.1579 114.111 97.0996 114.111 103.744C114.111 111.411 112.13 118.183 108.169 124.061C104.336 129.939 98.8413 134.539 91.6856 137.861C84.6578 141.056 76.4799 142.653 67.152 142.653H1.02637ZM28.8183 63.3021H62.3603C68.3659 63.3021 73.0938 61.8965 76.5438 59.0854C80.1216 56.1464 81.9105 52.2492 81.9105 47.3936C81.9105 42.538 80.1216 38.7046 76.5438 35.8935C73.0938 32.9545 68.3659 31.4851 62.3603 31.4851H28.8183V63.3021ZM28.8183 119.653H65.0437C71.4326 119.653 76.5438 118.119 80.3772 115.053C84.2106 111.858 86.1272 107.641 86.1272 102.402C86.1272 97.0358 84.2106 92.819 80.3772 89.7523C76.5438 86.5579 71.4326 84.9606 65.0437 84.9606H28.8183V119.653Z"/>
<path d="M131.822 142.653V42.7935H158.081V53.9103C161.275 49.5658 165.109 46.2436 169.581 43.9435C174.053 41.6435 179.1 40.4935 184.723 40.4935C189.578 40.6213 193.22 41.388 195.648 42.7935V65.7938C193.731 64.8993 191.623 64.2604 189.323 63.8771C187.023 63.366 184.659 63.1104 182.231 63.1104C177.12 63.1104 172.456 64.3882 168.239 66.9438C164.023 69.4994 160.636 73.1411 158.081 77.8689V142.653H131.822Z"/>
<path d="M210.062 142.653V42.7935H236.321V142.653H210.062ZM223.095 30.9101C219.007 30.9101 215.493 29.4406 212.554 26.5017C209.615 23.5628 208.145 20.0489 208.145 15.9599C208.145 11.7432 209.615 8.22929 212.554 5.41814C215.493 2.47923 219.007 1.00977 223.095 1.00977C227.312 1.00977 230.826 2.47923 233.637 5.41814C236.576 8.22929 238.046 11.7432 238.046 15.9599C238.046 20.0489 236.576 23.5628 233.637 26.5017C230.826 29.4406 227.312 30.9101 223.095 30.9101Z"/>
<path d="M538.423 183.67C530.757 183.67 523.345 182.839 516.19 181.178C509.034 179.645 502.581 177.409 496.831 174.47L506.031 154.153C511.526 156.836 516.892 158.817 522.131 160.095C527.37 161.373 532.609 162.011 537.848 162.011C545.643 162.011 551.521 160.35 555.482 157.028C559.571 153.706 561.615 148.722 561.615 142.078V134.219C553.437 140.225 544.301 143.228 534.207 143.228C524.751 143.228 516.19 140.992 508.523 136.519C500.984 131.919 494.914 125.722 490.314 117.928C485.842 110.133 483.606 101.508 483.606 92.0524C483.606 82.5967 485.842 74.0355 490.314 66.3688C494.914 58.702 501.112 52.6325 508.906 48.1603C516.701 43.5602 525.39 41.2602 534.973 41.2602C539.829 41.2602 544.557 41.963 549.157 43.3685C553.757 44.7741 558.037 46.7547 561.999 49.3103V42.7935H587.874V142.461C587.874 155.622 583.593 165.781 575.032 172.937C566.599 180.092 554.396 183.67 538.423 183.67ZM538.232 120.994C543.087 120.994 547.496 120.228 551.457 118.694C555.418 117.033 558.804 114.733 561.615 111.794V72.6938C558.804 69.8827 555.354 67.7105 551.265 66.1771C547.304 64.516 543.023 63.6854 538.423 63.6854C532.929 63.6854 528.009 64.9632 523.665 67.5188C519.32 69.9466 515.87 73.3327 513.315 77.6772C510.759 81.8939 509.481 86.6857 509.481 92.0524C509.481 97.5469 510.695 102.466 513.123 106.811C515.679 111.155 519.129 114.605 523.473 117.161C527.945 119.717 532.865 120.994 538.232 120.994Z"/>
<path d="M657.249 144.57C647.282 144.57 638.21 142.27 630.032 137.67C621.982 133.069 615.593 126.872 610.865 119.078C606.137 111.283 603.773 102.53 603.773 92.819C603.773 83.1078 606.009 74.355 610.482 66.5604C615.082 58.7659 621.279 52.5686 629.074 47.9686C636.868 43.3685 645.557 41.0685 655.141 41.0685C664.724 41.0685 673.221 43.4324 680.632 48.1603C688.044 52.8881 693.858 59.277 698.074 67.3271C702.419 75.3772 704.591 84.5134 704.591 94.7357V101.636H630.607C631.757 105.597 633.61 109.175 636.165 112.369C638.849 115.564 642.107 118.055 645.94 119.844C649.902 121.633 654.118 122.528 658.591 122.528C663.063 122.528 667.152 121.825 670.857 120.419C674.691 119.014 677.949 117.033 680.632 114.478L697.883 130.194C691.749 135.178 685.424 138.82 678.907 141.12C672.518 143.42 665.299 144.57 657.249 144.57ZM630.224 82.8523H678.716C677.821 78.8911 676.16 75.4411 673.732 72.5022C671.432 69.4355 668.621 67.0716 665.299 65.4104C662.104 63.6215 658.527 62.7271 654.565 62.7271C650.477 62.7271 646.771 63.5576 643.449 65.2188C640.126 66.8799 637.315 69.2438 635.015 72.3105C632.843 75.2494 631.246 78.7633 630.224 82.8523Z"/>
</mask>
<path d="M1.02637 142.653V8.48484H64.0853C73.1577 8.48484 81.08 10.0182 87.8523 13.0849C94.6245 16.1516 99.9274 20.4961 103.761 26.1184C107.594 31.6129 109.511 38.0018 109.511 45.2852C109.511 51.1631 107.977 56.5937 104.911 61.5771C101.972 66.4327 97.9468 70.3938 92.8356 73.4605C99.3524 76.5272 104.527 80.68 108.361 85.919C112.194 91.1579 114.111 97.0996 114.111 103.744C114.111 111.411 112.13 118.183 108.169 124.061C104.336 129.939 98.8413 134.539 91.6856 137.861C84.6578 141.056 76.4799 142.653 67.152 142.653H1.02637ZM28.8183 63.3021H62.3603C68.3659 63.3021 73.0938 61.8965 76.5438 59.0854C80.1216 56.1464 81.9105 52.2492 81.9105 47.3936C81.9105 42.538 80.1216 38.7046 76.5438 35.8935C73.0938 32.9545 68.3659 31.4851 62.3603 31.4851H28.8183V63.3021ZM28.8183 119.653H65.0437C71.4326 119.653 76.5438 118.119 80.3772 115.053C84.2106 111.858 86.1272 107.641 86.1272 102.402C86.1272 97.0358 84.2106 92.819 80.3772 89.7523C76.5438 86.5579 71.4326 84.9606 65.0437 84.9606H28.8183V119.653Z" fill="#FAFAFA"/>
<path d="M131.822 142.653V42.7935H158.081V53.9103C161.275 49.5658 165.109 46.2436 169.581 43.9435C174.053 41.6435 179.1 40.4935 184.723 40.4935C189.578 40.6213 193.22 41.388 195.648 42.7935V65.7938C193.731 64.8993 191.623 64.2604 189.323 63.8771C187.023 63.366 184.659 63.1104 182.231 63.1104C177.12 63.1104 172.456 64.3882 168.239 66.9438C164.023 69.4994 160.636 73.1411 158.081 77.8689V142.653H131.822Z" fill="#FAFAFA"/>
<path d="M210.062 142.653V42.7935H236.321V142.653H210.062ZM223.095 30.9101C219.007 30.9101 215.493 29.4406 212.554 26.5017C209.615 23.5628 208.145 20.0489 208.145 15.9599C208.145 11.7432 209.615 8.22929 212.554 5.41814C215.493 2.47923 219.007 1.00977 223.095 1.00977C227.312 1.00977 230.826 2.47923 233.637 5.41814C236.576 8.22929 238.046 11.7432 238.046 15.9599C238.046 20.0489 236.576 23.5628 233.637 26.5017C230.826 29.4406 227.312 30.9101 223.095 30.9101Z" fill="#FAFAFA"/>
<path d="M538.423 183.67C530.757 183.67 523.345 182.839 516.19 181.178C509.034 179.645 502.581 177.409 496.831 174.47L506.031 154.153C511.526 156.836 516.892 158.817 522.131 160.095C527.37 161.373 532.609 162.011 537.848 162.011C545.643 162.011 551.521 160.35 555.482 157.028C559.571 153.706 561.615 148.722 561.615 142.078V134.219C553.437 140.225 544.301 143.228 534.207 143.228C524.751 143.228 516.19 140.992 508.523 136.519C500.984 131.919 494.914 125.722 490.314 117.928C485.842 110.133 483.606 101.508 483.606 92.0524C483.606 82.5967 485.842 74.0355 490.314 66.3688C494.914 58.702 501.112 52.6325 508.906 48.1603C516.701 43.5602 525.39 41.2602 534.973 41.2602C539.829 41.2602 544.557 41.963 549.157 43.3685C553.757 44.7741 558.037 46.7547 561.999 49.3103V42.7935H587.874V142.461C587.874 155.622 583.593 165.781 575.032 172.937C566.599 180.092 554.396 183.67 538.423 183.67ZM538.232 120.994C543.087 120.994 547.496 120.228 551.457 118.694C555.418 117.033 558.804 114.733 561.615 111.794V72.6938C558.804 69.8827 555.354 67.7105 551.265 66.1771C547.304 64.516 543.023 63.6854 538.423 63.6854C532.929 63.6854 528.009 64.9632 523.665 67.5188C519.32 69.9466 515.87 73.3327 513.315 77.6772C510.759 81.8939 509.481 86.6857 509.481 92.0524C509.481 97.5469 510.695 102.466 513.123 106.811C515.679 111.155 519.129 114.605 523.473 117.161C527.945 119.717 532.865 120.994 538.232 120.994Z" fill="#FAFAFA"/>
<path d="M657.249 144.57C647.282 144.57 638.21 142.27 630.032 137.67C621.982 133.069 615.593 126.872 610.865 119.078C606.137 111.283 603.773 102.53 603.773 92.819C603.773 83.1078 606.009 74.355 610.482 66.5604C615.082 58.7659 621.279 52.5686 629.074 47.9686C636.868 43.3685 645.557 41.0685 655.141 41.0685C664.724 41.0685 673.221 43.4324 680.632 48.1603C688.044 52.8881 693.858 59.277 698.074 67.3271C702.419 75.3772 704.591 84.5134 704.591 94.7357V101.636H630.607C631.757 105.597 633.61 109.175 636.165 112.369C638.849 115.564 642.107 118.055 645.94 119.844C649.902 121.633 654.118 122.528 658.591 122.528C663.063 122.528 667.152 121.825 670.857 120.419C674.691 119.014 677.949 117.033 680.632 114.478L697.883 130.194C691.749 135.178 685.424 138.82 678.907 141.12C672.518 143.42 665.299 144.57 657.249 144.57ZM630.224 82.8523H678.716C677.821 78.8911 676.16 75.4411 673.732 72.5022C671.432 69.4355 668.621 67.0716 665.299 65.4104C662.104 63.6215 658.527 62.7271 654.565 62.7271C650.477 62.7271 646.771 63.5576 643.449 65.2188C640.126 66.8799 637.315 69.2438 635.015 72.3105C632.843 75.2494 631.246 78.7633 630.224 82.8523Z" fill="#FAFAFA"/>
<path d="M1.02637 142.653V8.48484H64.0853C73.1577 8.48484 81.08 10.0182 87.8523 13.0849C94.6245 16.1516 99.9274 20.4961 103.761 26.1184C107.594 31.6129 109.511 38.0018 109.511 45.2852C109.511 51.1631 107.977 56.5937 104.911 61.5771C101.972 66.4327 97.9468 70.3938 92.8356 73.4605C99.3524 76.5272 104.527 80.68 108.361 85.919C112.194 91.1579 114.111 97.0996 114.111 103.744C114.111 111.411 112.13 118.183 108.169 124.061C104.336 129.939 98.8413 134.539 91.6856 137.861C84.6578 141.056 76.4799 142.653 67.152 142.653H1.02637ZM28.8183 63.3021H62.3603C68.3659 63.3021 73.0938 61.8965 76.5438 59.0854C80.1216 56.1464 81.9105 52.2492 81.9105 47.3936C81.9105 42.538 80.1216 38.7046 76.5438 35.8935C73.0938 32.9545 68.3659 31.4851 62.3603 31.4851H28.8183V63.3021ZM28.8183 119.653H65.0437C71.4326 119.653 76.5438 118.119 80.3772 115.053C84.2106 111.858 86.1272 107.641 86.1272 102.402C86.1272 97.0358 84.2106 92.819 80.3772 89.7523C76.5438 86.5579 71.4326 84.9606 65.0437 84.9606H28.8183V119.653Z" stroke="#FAFAFA" stroke-width="0.891482" mask="url(#path-1-outside-1_819_236)"/>
<path d="M131.822 142.653V42.7935H158.081V53.9103C161.275 49.5658 165.109 46.2436 169.581 43.9435C174.053 41.6435 179.1 40.4935 184.723 40.4935C189.578 40.6213 193.22 41.388 195.648 42.7935V65.7938C193.731 64.8993 191.623 64.2604 189.323 63.8771C187.023 63.366 184.659 63.1104 182.231 63.1104C177.12 63.1104 172.456 64.3882 168.239 66.9438C164.023 69.4994 160.636 73.1411 158.081 77.8689V142.653H131.822Z" stroke="#FAFAFA" stroke-width="0.891482" mask="url(#path-1-outside-1_819_236)"/>
<path d="M210.062 142.653V42.7935H236.321V142.653H210.062ZM223.095 30.9101C219.007 30.9101 215.493 29.4406 212.554 26.5017C209.615 23.5628 208.145 20.0489 208.145 15.9599C208.145 11.7432 209.615 8.22929 212.554 5.41814C215.493 2.47923 219.007 1.00977 223.095 1.00977C227.312 1.00977 230.826 2.47923 233.637 5.41814C236.576 8.22929 238.046 11.7432 238.046 15.9599C238.046 20.0489 236.576 23.5628 233.637 26.5017C230.826 29.4406 227.312 30.9101 223.095 30.9101Z" stroke="#FAFAFA" stroke-width="0.891482" mask="url(#path-1-outside-1_819_236)"/>
<path d="M538.423 183.67C530.757 183.67 523.345 182.839 516.19 181.178C509.034 179.645 502.581 177.409 496.831 174.47L506.031 154.153C511.526 156.836 516.892 158.817 522.131 160.095C527.37 161.373 532.609 162.011 537.848 162.011C545.643 162.011 551.521 160.35 555.482 157.028C559.571 153.706 561.615 148.722 561.615 142.078V134.219C553.437 140.225 544.301 143.228 534.207 143.228C524.751 143.228 516.19 140.992 508.523 136.519C500.984 131.919 494.914 125.722 490.314 117.928C485.842 110.133 483.606 101.508 483.606 92.0524C483.606 82.5967 485.842 74.0355 490.314 66.3688C494.914 58.702 501.112 52.6325 508.906 48.1603C516.701 43.5602 525.39 41.2602 534.973 41.2602C539.829 41.2602 544.557 41.963 549.157 43.3685C553.757 44.7741 558.037 46.7547 561.999 49.3103V42.7935H587.874V142.461C587.874 155.622 583.593 165.781 575.032 172.937C566.599 180.092 554.396 183.67 538.423 183.67ZM538.232 120.994C543.087 120.994 547.496 120.228 551.457 118.694C555.418 117.033 558.804 114.733 561.615 111.794V72.6938C558.804 69.8827 555.354 67.7105 551.265 66.1771C547.304 64.516 543.023 63.6854 538.423 63.6854C532.929 63.6854 528.009 64.9632 523.665 67.5188C519.32 69.9466 515.87 73.3327 513.315 77.6772C510.759 81.8939 509.481 86.6857 509.481 92.0524C509.481 97.5469 510.695 102.466 513.123 106.811C515.679 111.155 519.129 114.605 523.473 117.161C527.945 119.717 532.865 120.994 538.232 120.994Z" stroke="#FAFAFA" stroke-width="0.891482" mask="url(#path-1-outside-1_819_236)"/>
<path d="M657.249 144.57C647.282 144.57 638.21 142.27 630.032 137.67C621.982 133.069 615.593 126.872 610.865 119.078C606.137 111.283 603.773 102.53 603.773 92.819C603.773 83.1078 606.009 74.355 610.482 66.5604C615.082 58.7659 621.279 52.5686 629.074 47.9686C636.868 43.3685 645.557 41.0685 655.141 41.0685C664.724 41.0685 673.221 43.4324 680.632 48.1603C688.044 52.8881 693.858 59.277 698.074 67.3271C702.419 75.3772 704.591 84.5134 704.591 94.7357V101.636H630.607C631.757 105.597 633.61 109.175 636.165 112.369C638.849 115.564 642.107 118.055 645.94 119.844C649.902 121.633 654.118 122.528 658.591 122.528C663.063 122.528 667.152 121.825 670.857 120.419C674.691 119.014 677.949 117.033 680.632 114.478L697.883 130.194C691.749 135.178 685.424 138.82 678.907 141.12C672.518 143.42 665.299 144.57 657.249 144.57ZM630.224 82.8523H678.716C677.821 78.8911 676.16 75.4411 673.732 72.5022C671.432 69.4355 668.621 67.0716 665.299 65.4104C662.104 63.6215 658.527 62.7271 654.565 62.7271C650.477 62.7271 646.771 63.5576 643.449 65.2188C640.126 66.8799 637.315 69.2438 635.015 72.3105C632.843 75.2494 631.246 78.7633 630.224 82.8523Z" stroke="#FAFAFA" stroke-width="0.891482" mask="url(#path-1-outside-1_819_236)"/>
<path d="M265.173 114.571H457.733" stroke="#FAFAFA" stroke-width="21.3956"/>
<path d="M281.22 78.0203C281.22 78.0203 321.746 57.9619 361.453 57.9619C401.161 57.9619 441.687 78.0203 441.687 78.0203" stroke="#FAFAFA" stroke-width="21.3956"/>
</svg>
