<svg width="58" height="31" viewBox="0 0 58 31" fill="none" xmlns="http://www.w3.org/2000/svg">
<path d="M0.28125 23.9927H5.47817V16.766H8.83314C13.8985 16.766 17.3193 13.6124 17.3193 8.75079C17.3193 3.79058 13.8985 0.669922 8.83314 0.669922H0.28125V23.9927ZM5.47817 12.0028V5.43303H8.33977C10.4448 5.43303 12.0566 6.25426 12.0566 8.75079C12.0566 11.2473 10.4448 12.0028 8.33977 12.0028H5.47817Z" fill="#FAFAFA"/>
<path d="M26.439 24.3212C29.4651 24.3212 31.2413 22.6788 31.5044 22.0547H31.6031V23.9927H36.7013V6.91124H31.6031V8.84933H31.5044C31.2413 8.2252 29.4651 6.58275 26.439 6.58275C22.5578 6.58275 18.2819 9.50632 18.2819 15.452C18.2819 21.3977 22.5578 24.3212 26.439 24.3212Z" fill="#FAFAFA"/>
<path d="M42.5936 30.2341H47.5932L50.2245 23.9927L57.3949 6.91124H52.198L47.8563 18.0142L43.5146 6.91124H38.3176L45.4223 23.7957L42.5936 30.2341Z" fill="#FAFAFA"/>
<path fill-rule="evenodd" clip-rule="evenodd" d="M29.8141 20.01L21.8887 15.4772L29.8141 10.9443V13.4629H36.6959V17.4914H29.8141V20.01Z" fill="#010A1D"/>
</svg>
