<svg width="507" height="262" viewBox="0 0 507 262" fill="none" xmlns="http://www.w3.org/2000/svg">
<path d="M0.591064 206.422H46.5851V142.464H76.2774C121.107 142.464 151.382 114.554 151.382 71.5274C151.382 27.6284 121.107 0.00976562 76.2774 0.00976562H0.591064V206.422ZM46.5851 100.309V42.1645H71.9109C90.5414 42.1645 104.805 49.4325 104.805 71.5274C104.805 93.6223 90.5414 100.309 71.9109 100.309H46.5851Z" fill="#FAFAFA"/>
<path d="M232.094 209.33C258.875 209.33 274.595 194.794 276.924 189.27H277.797V206.422H322.918V55.247H277.797V72.3996H276.924C274.595 66.8759 258.875 52.3398 232.094 52.3398C197.744 52.3398 159.901 78.214 159.901 130.835C159.901 183.455 197.744 209.33 232.094 209.33Z" fill="#FAFAFA"/>
<path d="M375.066 261.66H419.313L442.601 206.422L506.061 55.247H460.067L421.642 153.511L383.217 55.247H337.223L400.1 204.678L375.066 261.66Z" fill="#FAFAFA"/>
<path fill-rule="evenodd" clip-rule="evenodd" d="M261.956 171.174L191.814 131.057L261.956 90.9404V113.231H322.862V148.883H261.956V171.174Z" fill="#010A1D"/>
</svg>
