<svg width="65" height="22" viewBox="0 0 65 22" fill="none" xmlns="http://www.w3.org/2000/svg">
<path d="M6.02233 19.0783V16.6743C5.28599 16.6166 4.60019 16.4145 3.96492 16.068C3.34409 15.7214 2.80267 15.2739 2.34066 14.7252C1.87865 14.1766 1.5177 13.5774 1.25782 12.9277C1.01237 12.2636 0.889648 11.585 0.889648 10.892C0.889648 9.91019 1.08456 9.0006 1.47438 8.1632C1.87865 7.3258 2.46338 6.62556 3.22859 6.06248C3.9938 5.48496 4.92504 5.1168 6.02233 4.95798V2.51076H7.32174V4.95798C8.33239 4.98686 9.2492 5.24674 10.0722 5.73763C10.8951 6.22852 11.5376 6.92876 11.9996 7.83835L9.18423 8.70462C8.9821 8.34367 8.715 8.06213 8.38292 7.86C8.05085 7.64343 7.69712 7.52071 7.32174 7.49183V14.1622C7.58162 14.1044 7.8415 14.025 8.10138 13.9239C8.36127 13.8084 8.59227 13.664 8.7944 13.4908C9.01097 13.3031 9.15535 13.101 9.22754 12.8844L12.0646 13.7507C11.7903 14.4004 11.3716 14.949 10.8085 15.3966C10.2454 15.8297 9.64624 16.1546 9.01097 16.3712C8.39014 16.5877 7.82706 16.696 7.32174 16.696V19.0783H6.02233ZM3.8783 10.892C3.8783 11.354 3.96492 11.8016 4.13818 12.2347C4.32587 12.6534 4.57853 13.0216 4.89617 13.3392C5.2138 13.6568 5.58919 13.8878 6.02233 14.0322V7.62178C5.69025 7.69397 5.38706 7.83113 5.11274 8.03326C4.85285 8.22095 4.62907 8.46639 4.44137 8.76959C4.25368 9.07279 4.1093 9.41208 4.00824 9.78746C3.92161 10.1484 3.8783 10.5166 3.8783 10.892Z" fill="#FAFAFA"/>
<path d="M24.7295 16.4794H21.8274V10.1123C21.8274 9.2316 21.6542 8.57468 21.3077 8.14154C20.9756 7.7084 20.5136 7.49183 19.9216 7.49183C19.5751 7.49183 19.207 7.5929 18.8171 7.79503C18.4273 7.99716 18.0736 8.2787 17.7559 8.63965C17.4528 8.98616 17.229 9.39042 17.0846 9.85243V16.4794H14.1826V0.669922H17.0846V7.23195C17.5033 6.51006 18.0736 5.94698 18.7955 5.54272C19.5174 5.13845 20.3042 4.93632 21.1561 4.93632C21.8924 4.93632 22.4916 5.06627 22.9536 5.32615C23.4156 5.57159 23.7766 5.91088 24.0364 6.34402C24.2963 6.76272 24.4768 7.23917 24.5779 7.77337C24.6789 8.29314 24.7295 8.83456 24.7295 9.39764V16.4794Z" fill="#FAFAFA"/>
<path d="M32.5154 16.696C31.6059 16.696 30.7829 16.5444 30.0466 16.2412C29.3102 15.9236 28.6822 15.4977 28.1624 14.9635C27.6426 14.4148 27.2384 13.794 26.9496 13.101C26.6753 12.3935 26.5381 11.65 26.5381 10.8703C26.5381 9.78746 26.7764 8.79847 27.2528 7.90332C27.7437 7.00816 28.4367 6.29349 29.3319 5.75929C30.2415 5.21064 31.3099 4.93632 32.5371 4.93632C33.7788 4.93632 34.8399 5.21064 35.7207 5.75929C36.6014 6.29349 37.2727 7.00816 37.7347 7.90332C38.2112 8.78403 38.4494 9.73693 38.4494 10.762C38.4494 10.9353 38.4422 11.1158 38.4278 11.3034C38.4133 11.4767 38.3989 11.6211 38.3844 11.7366H29.6134C29.6712 12.3141 29.8372 12.8194 30.1115 13.2526C30.4003 13.6857 30.7612 14.0178 31.1944 14.2488C31.6419 14.4653 32.1184 14.5736 32.6237 14.5736C33.2012 14.5736 33.7427 14.4365 34.248 14.1622C34.7677 13.8734 35.1215 13.498 35.3092 13.036L37.7997 13.729C37.5254 14.3065 37.1284 14.8191 36.6086 15.2667C36.1033 15.7142 35.5041 16.068 34.8111 16.3278C34.118 16.5733 33.3528 16.696 32.5154 16.696ZM29.5484 9.89575H35.4824C35.4247 9.31823 35.2586 8.82012 34.9843 8.40142C34.7244 7.96829 34.3779 7.63621 33.9448 7.40521C33.5117 7.15976 33.028 7.03704 32.4938 7.03704C31.974 7.03704 31.4976 7.15976 31.0644 7.40521C30.6457 7.63621 30.2992 7.96829 30.0249 8.40142C29.765 8.82012 29.6062 9.31823 29.5484 9.89575Z" fill="#FAFAFA"/>
<path d="M39.4377 13.1226C39.4377 12.3863 39.6398 11.7438 40.0441 11.1952C40.4628 10.6321 41.0403 10.1989 41.7766 9.89575C42.513 9.59255 43.3576 9.44095 44.3105 9.44095C44.7869 9.44095 45.2706 9.47705 45.7615 9.54924C46.2524 9.62143 46.6783 9.73693 47.0392 9.89575V9.28936C47.0392 8.56746 46.8227 8.0116 46.3895 7.62178C45.9708 7.23195 45.3428 7.03704 44.5054 7.03704C43.8846 7.03704 43.2926 7.14533 42.7295 7.36189C42.1664 7.57846 41.5745 7.8961 40.9537 8.3148L40.0224 6.40899C40.7732 5.9181 41.5384 5.54994 42.318 5.30449C43.1121 5.05905 43.9423 4.93632 44.8086 4.93632C46.4256 4.93632 47.6817 5.34059 48.5769 6.14911C49.4865 6.95763 49.9413 8.11267 49.9413 9.61421V13.2309C49.9413 13.5341 49.9918 13.7507 50.0929 13.8806C50.2084 14.0106 50.3888 14.09 50.6343 14.1188V16.4794C50.3744 16.5227 50.1362 16.5588 49.9196 16.5877C49.7175 16.6166 49.5442 16.631 49.3998 16.631C48.8223 16.631 48.382 16.5011 48.0788 16.2412C47.79 15.9813 47.6095 15.6637 47.5373 15.2883L47.4724 14.7036C46.9815 15.3388 46.3679 15.8297 45.6315 16.1762C44.8952 16.5227 44.1444 16.696 43.3792 16.696C42.6285 16.696 41.9499 16.5444 41.3435 16.2412C40.7515 15.9236 40.2823 15.4977 39.9358 14.9635C39.6037 14.4148 39.4377 13.8012 39.4377 13.1226ZM46.4978 13.7074C46.6566 13.5341 46.7866 13.3608 46.8876 13.1876C46.9887 13.0143 47.0392 12.8555 47.0392 12.7111V11.5633C46.6927 11.4189 46.3173 11.3107 45.9131 11.2385C45.5088 11.1518 45.1262 11.1085 44.7653 11.1085C44.0145 11.1085 43.3937 11.2746 42.9028 11.6066C42.4263 11.9243 42.1881 12.3502 42.1881 12.8844C42.1881 13.1732 42.2675 13.4475 42.4263 13.7074C42.5851 13.9672 42.8162 14.1766 43.1194 14.3354C43.4225 14.4942 43.7835 14.5736 44.2022 14.5736C44.6353 14.5736 45.0612 14.4942 45.4799 14.3354C45.8986 14.1622 46.2379 13.9528 46.4978 13.7074Z" fill="#FAFAFA"/>
<path d="M59.4534 16.696C58.5726 16.696 57.793 16.5011 57.1144 16.1113C56.4503 15.707 55.9305 15.1656 55.5551 14.487V21.0923H52.6531V5.13124H55.187V7.08035C55.6201 6.41621 56.1687 5.89645 56.8329 5.52106C57.497 5.13124 58.255 4.93632 59.1068 4.93632C59.8721 4.93632 60.5723 5.08792 61.2076 5.39112C61.8573 5.69431 62.4203 6.12023 62.8968 6.66887C63.3733 7.20308 63.7414 7.82391 64.0013 8.53136C64.2756 9.22438 64.4128 9.97516 64.4128 10.7837C64.4128 11.881 64.1962 12.8772 63.7631 13.7723C63.3444 14.6675 62.7596 15.3822 62.0089 15.9164C61.2725 16.4361 60.4207 16.696 59.4534 16.696ZM58.4788 14.2271C58.9264 14.2271 59.3306 14.1333 59.6916 13.9456C60.0525 13.7579 60.3629 13.5052 60.6228 13.1876C60.8971 12.8555 61.0993 12.4874 61.2292 12.0831C61.3736 11.6644 61.4458 11.2313 61.4458 10.7837C61.4458 10.3072 61.3664 9.86687 61.2076 9.46261C61.0632 9.05835 60.8466 8.70462 60.5579 8.40142C60.2691 8.08379 59.9298 7.83834 59.54 7.66509C59.1646 7.49183 58.7531 7.40521 58.3055 7.40521C58.0312 7.40521 57.7497 7.45574 57.4609 7.55681C57.1866 7.64343 56.9195 7.77337 56.6596 7.94663C56.3997 8.11988 56.1687 8.32202 55.9666 8.55302C55.7789 8.78403 55.6418 9.03669 55.5551 9.31101V11.9748C55.7284 12.3935 55.9594 12.7761 56.2481 13.1226C56.5513 13.4691 56.8979 13.7435 57.2877 13.9456C57.6775 14.1333 58.0745 14.2271 58.4788 14.2271Z" fill="#FAFAFA"/>
</svg>
