<svg width="1208" height="142" viewBox="0 0 1208 142" fill="none" xmlns="http://www.w3.org/2000/svg">
<path d="M156.275 139.928H130.592V83.5773C130.592 75.655 129.186 69.841 126.375 66.1354C123.691 62.3021 119.922 60.3854 115.066 60.3854C110.083 60.3854 105.291 62.366 100.691 66.3271C96.2189 70.1605 93.0245 75.2078 91.1078 81.4689V139.928H65.4242V83.5773C65.4242 75.5272 64.0186 69.6494 61.2075 65.9438C58.5241 62.2382 54.7546 60.3854 49.899 60.3854C44.9156 60.3854 40.1239 62.3021 35.5239 66.1354C31.0516 69.9688 27.8571 75.0161 25.9404 81.2773V139.928H0.256836V39.4935H23.4487V58.0854C27.2821 51.5686 32.3933 46.5852 38.7822 43.1352C45.1712 39.5574 52.5185 37.7685 60.8241 37.7685C69.1298 37.7685 75.5826 39.8129 80.1827 43.9019C84.9105 47.9908 87.9133 53.0381 89.1911 59.0437C93.28 52.1436 98.4551 46.9047 104.716 43.3269C111.105 39.6213 118.261 37.7685 126.183 37.7685C132.444 37.7685 137.492 38.9185 141.325 41.2185C145.286 43.3908 148.353 46.3936 150.525 50.2269C152.697 53.9325 154.167 58.1493 154.933 62.8771C155.828 67.6049 156.275 72.3966 156.275 77.2522V139.928Z" fill="#FAFAFA"/>
<path d="M171.736 110.219C171.736 103.702 173.525 98.0163 177.103 93.1607C180.808 88.1773 185.919 84.344 192.436 81.6606C198.953 78.9772 206.428 77.6356 214.861 77.6356C219.078 77.6356 223.359 77.955 227.703 78.5939C232.048 79.2328 235.817 80.255 239.012 81.6606V76.2939C239.012 69.9049 237.095 64.9854 233.262 61.5354C229.556 58.0854 223.998 56.3603 216.586 56.3603C211.092 56.3603 205.853 57.3187 200.87 59.2354C195.886 61.1521 190.647 63.9632 185.153 67.6688L176.911 50.802C183.555 46.4575 190.328 43.1991 197.228 41.0269C204.256 38.8546 211.603 37.7685 219.27 37.7685C233.581 37.7685 244.698 41.3463 252.62 48.5019C260.67 55.6576 264.695 65.8799 264.695 79.1689V111.178C264.695 113.861 265.142 115.778 266.037 116.928C267.059 118.078 268.656 118.78 270.829 119.036V139.928C268.529 140.311 266.42 140.631 264.504 140.886C262.715 141.142 261.181 141.27 259.903 141.27C254.792 141.27 250.895 140.12 248.212 137.82C245.656 135.519 244.059 132.708 243.42 129.386L242.845 124.211C238.5 129.833 233.07 134.178 226.553 137.245C220.036 140.311 213.392 141.845 206.62 141.845C199.975 141.845 193.969 140.503 188.603 137.82C183.364 135.008 179.211 131.239 176.144 126.511C173.205 121.655 171.736 116.225 171.736 110.219ZM234.22 115.394C235.625 113.861 236.775 112.328 237.67 110.794C238.564 109.261 239.012 107.855 239.012 106.578V96.4191C235.945 95.1413 232.623 94.1829 229.045 93.5441C225.467 92.7774 222.081 92.394 218.886 92.394C212.242 92.394 206.747 93.8635 202.403 96.8024C198.186 99.6136 196.078 103.383 196.078 108.111C196.078 110.666 196.781 113.094 198.186 115.394C199.592 117.694 201.636 119.547 204.32 120.953C207.003 122.358 210.197 123.061 213.903 123.061C217.736 123.061 221.506 122.358 225.211 120.953C228.917 119.419 231.92 117.567 234.22 115.394Z" fill="#FAFAFA"/>
<path d="M288.696 139.928V39.4935H314.379V139.928H288.696ZM288.696 25.5017V0.00976562H314.379V25.5017H288.696Z" fill="#FAFAFA"/>
<path d="M430.891 139.928H405.208V83.5773C405.208 75.5272 403.802 69.6494 400.991 65.9438C398.18 62.2382 394.283 60.3854 389.299 60.3854C385.849 60.3854 382.335 61.2798 378.757 63.0687C375.307 64.8577 372.177 67.3493 369.366 70.5438C366.555 73.6105 364.51 77.1883 363.232 81.2773V139.928H337.549V39.4935H360.741V58.0854C363.296 53.7409 366.555 50.0992 370.516 47.1602C374.477 44.0936 379.013 41.7935 384.124 40.2602C389.363 38.599 394.858 37.7685 400.608 37.7685C406.869 37.7685 411.98 38.9185 415.941 41.2185C420.03 43.3908 423.097 46.3936 425.141 50.2269C427.314 53.9325 428.783 58.1493 429.55 62.8771C430.444 67.6049 430.891 72.3966 430.891 77.2522V139.928Z" fill="#FAFAFA"/>
<path d="M591.89 141.845C583.84 141.845 576.557 140.503 570.04 137.82C563.523 135.008 557.965 131.239 553.365 126.511C548.765 121.655 545.187 116.161 542.631 110.028C540.203 103.766 538.989 97.1858 538.989 90.2857C538.989 80.7023 541.098 71.9494 545.315 64.0271C549.659 56.1048 555.792 49.7797 563.715 45.0519C571.765 40.1963 581.22 37.7685 592.082 37.7685C603.071 37.7685 612.462 40.1963 620.257 45.0519C628.052 49.7797 633.993 56.1048 638.082 64.0271C642.299 71.8216 644.407 80.255 644.407 89.3273C644.407 90.8607 644.343 92.4579 644.216 94.1191C644.088 95.6524 643.96 96.9302 643.832 97.9524H566.206C566.718 103.064 568.187 107.536 570.615 111.369C573.17 115.203 576.365 118.142 580.198 120.186C584.159 122.103 588.376 123.061 592.848 123.061C597.96 123.061 602.751 121.847 607.224 119.419C611.824 116.864 614.954 113.541 616.615 109.453L638.657 115.586C636.229 120.697 632.715 125.233 628.115 129.194C623.643 133.156 618.34 136.286 612.207 138.586C606.074 140.758 599.301 141.845 591.89 141.845ZM565.631 81.6606H618.149C617.638 76.5494 616.168 72.1411 613.74 68.4355C611.44 64.6021 608.374 61.6632 604.54 59.6187C600.707 57.4465 596.426 56.3603 591.698 56.3603C587.098 56.3603 582.882 57.4465 579.048 59.6187C575.343 61.6632 572.276 64.6021 569.848 68.4355C567.548 72.1411 566.143 76.5494 565.631 81.6606Z" fill="#FAFAFA"/>
<path d="M753.396 139.928H727.713V83.5773C727.713 75.5272 726.307 69.6494 723.496 65.9438C720.685 62.2382 716.788 60.3854 711.804 60.3854C708.354 60.3854 704.84 61.2798 701.262 63.0687C697.812 64.8577 694.682 67.3493 691.871 70.5438C689.06 73.6105 687.015 77.1883 685.737 81.2773V139.928H660.054V39.4935H683.246V58.0854C685.801 53.7409 689.06 50.0992 693.021 47.1602C696.982 44.0936 701.518 41.7935 706.629 40.2602C711.868 38.599 717.363 37.7685 723.113 37.7685C729.374 37.7685 734.485 38.9185 738.446 41.2185C742.535 43.3908 745.602 46.3936 747.646 50.2269C749.818 53.9325 751.288 58.1493 752.055 62.8771C752.949 67.6049 753.396 72.3966 753.396 77.2522V139.928Z" fill="#FAFAFA"/>
<path d="M768.829 110.219C768.829 103.702 770.618 98.0163 774.195 93.1607C777.901 88.1773 783.012 84.344 789.529 81.6606C796.046 78.9772 803.521 77.6356 811.954 77.6356C816.171 77.6356 820.451 77.955 824.796 78.5939C829.14 79.2328 832.91 80.255 836.104 81.6606V76.2939C836.104 69.9049 834.188 64.9854 830.354 61.5354C826.649 58.0854 821.09 56.3603 813.679 56.3603C808.185 56.3603 802.946 57.3187 797.962 59.2354C792.979 61.1521 787.74 63.9632 782.245 67.6688L774.004 50.802C780.648 46.4575 787.42 43.1991 794.321 41.0269C801.348 38.8546 808.696 37.7685 816.362 37.7685C830.674 37.7685 841.79 41.3463 849.713 48.5019C857.763 55.6576 861.788 65.8799 861.788 79.1689V111.178C861.788 113.861 862.235 115.778 863.13 116.928C864.152 118.078 865.749 118.78 867.921 119.036V139.928C865.621 140.311 863.513 140.631 861.596 140.886C859.807 141.142 858.274 141.27 856.996 141.27C851.885 141.27 847.988 140.12 845.304 137.82C842.749 135.519 841.152 132.708 840.513 129.386L839.938 124.211C835.593 129.833 830.163 134.178 823.646 137.245C817.129 140.311 810.485 141.845 803.712 141.845C797.068 141.845 791.062 140.503 785.695 137.82C780.457 135.008 776.304 131.239 773.237 126.511C770.298 121.655 768.829 116.225 768.829 110.219ZM831.313 115.394C832.718 113.861 833.868 112.328 834.763 110.794C835.657 109.261 836.104 107.855 836.104 106.578V96.4191C833.038 95.1413 829.715 94.1829 826.138 93.5441C822.56 92.7774 819.174 92.394 815.979 92.394C809.335 92.394 803.84 93.8635 799.496 96.8024C795.279 99.6136 793.171 103.383 793.171 108.111C793.171 110.666 793.873 113.094 795.279 115.394C796.684 117.694 798.729 119.547 801.412 120.953C804.096 122.358 807.29 123.061 810.996 123.061C814.829 123.061 818.599 122.358 822.304 120.953C826.01 119.419 829.013 117.567 831.313 115.394Z" fill="#FAFAFA"/>
<path d="M979.131 139.928H953.447V83.5773C953.447 75.5272 952.042 69.6494 949.231 65.9438C946.42 62.2382 942.522 60.3854 937.539 60.3854C934.089 60.3854 930.575 61.2798 926.997 63.0687C923.547 64.8577 920.417 67.3493 917.605 70.5438C914.794 73.6105 912.75 77.1883 911.472 81.2773V139.928H885.788V39.4935H908.98V58.0854C911.536 53.7409 914.794 50.0992 918.755 47.1602C922.717 44.0936 927.253 41.7935 932.364 40.2602C937.603 38.599 943.097 37.7685 948.847 37.7685C955.109 37.7685 960.22 38.9185 964.181 41.2185C968.27 43.3908 971.337 46.3936 973.381 50.2269C975.553 53.9325 977.023 58.1493 977.789 62.8771C978.684 67.6049 979.131 72.3966 979.131 77.2522V139.928Z" fill="#FAFAFA"/>
<path d="M1048.23 141.845C1040.05 141.845 1032.71 140.503 1026.19 137.82C1019.67 135.008 1014.11 131.175 1009.51 126.319C1004.91 121.336 1001.34 115.714 998.78 109.453C996.352 103.191 995.138 96.6108 995.138 89.7107C995.138 80.255 997.247 71.6299 1001.46 63.8354C1005.81 55.9131 1011.94 49.588 1019.86 44.8602C1027.79 40.1324 1037.18 37.7685 1048.04 37.7685C1058.9 37.7685 1068.23 40.1324 1076.02 44.8602C1083.82 49.588 1089.63 55.7853 1093.46 63.4521L1068.36 71.1188C1066.18 67.4132 1063.31 64.6021 1059.73 62.6854C1056.15 60.6409 1052.19 59.6187 1047.85 59.6187C1042.99 59.6187 1038.52 60.8965 1034.43 63.4521C1030.47 65.8799 1027.34 69.3938 1025.04 73.9939C1022.74 78.4661 1021.59 83.7051 1021.59 89.7107C1021.59 95.5885 1022.74 100.827 1025.04 105.428C1027.47 109.9 1030.66 113.478 1034.62 116.161C1038.58 118.717 1042.99 119.994 1047.85 119.994C1050.91 119.994 1053.79 119.483 1056.47 118.461C1059.28 117.439 1061.78 116.033 1063.95 114.244C1066.12 112.455 1067.72 110.411 1068.74 108.111L1093.85 115.778C1091.55 120.761 1088.16 125.233 1083.69 129.194C1079.34 133.156 1074.17 136.286 1068.16 138.586C1062.29 140.758 1055.64 141.845 1048.23 141.845Z" fill="#FAFAFA"/>
<path d="M1155.29 141.845C1147.24 141.845 1139.96 140.503 1133.44 137.82C1126.92 135.008 1121.37 131.239 1116.77 126.511C1112.17 121.655 1108.59 116.161 1106.03 110.028C1103.6 103.766 1102.39 97.1858 1102.39 90.2857C1102.39 80.7023 1104.5 71.9494 1108.72 64.0271C1113.06 56.1048 1119.19 49.7797 1127.12 45.0519C1135.17 40.1963 1144.62 37.7685 1155.48 37.7685C1166.47 37.7685 1175.86 40.1963 1183.66 45.0519C1191.45 49.7797 1197.39 56.1048 1201.48 64.0271C1205.7 71.8216 1207.81 80.255 1207.81 89.3273C1207.81 90.8607 1207.74 92.4579 1207.62 94.1191C1207.49 95.6524 1207.36 96.9302 1207.23 97.9524H1129.61C1130.12 103.064 1131.59 107.536 1134.02 111.369C1136.57 115.203 1139.77 118.142 1143.6 120.186C1147.56 122.103 1151.78 123.061 1156.25 123.061C1161.36 123.061 1166.15 121.847 1170.62 119.419C1175.22 116.864 1178.36 113.541 1180.02 109.453L1202.06 115.586C1199.63 120.697 1196.12 125.233 1191.52 129.194C1187.04 133.156 1181.74 136.286 1175.61 138.586C1169.47 140.758 1162.7 141.845 1155.29 141.845ZM1129.03 81.6606H1181.55C1181.04 76.5494 1179.57 72.1411 1177.14 68.4355C1174.84 64.6021 1171.77 61.6632 1167.94 59.6187C1164.11 57.4465 1159.83 56.3603 1155.1 56.3603C1150.5 56.3603 1146.28 57.4465 1142.45 59.6187C1138.74 61.6632 1135.68 64.6021 1133.25 68.4355C1130.95 72.1411 1129.54 76.5494 1129.03 81.6606Z" fill="#FAFAFA"/>
<path d="M541.209 113.156C539.874 115.09 538.234 117.374 536.288 120.008C534.343 122.643 532.044 125.203 529.391 127.687C526.915 130.209 524.177 132.444 521.176 134.393C517.211 136.968 513.115 138.638 508.888 139.402C504.662 140.166 500.556 139.709 496.571 138.031C492.624 136.176 489.05 132.783 485.848 127.854L454.427 79.4689L443.335 86.6719L432.583 70.1149L443.675 62.912L425.928 35.5851L447.468 21.5968L465.215 48.9237L482.897 37.4408L493.649 53.9977L475.967 65.4806L502.691 106.632C504.677 109.456 506.838 111.023 509.173 111.335C511.509 111.647 513.802 111.072 516.052 109.61C518.302 108.149 520.256 106.347 521.912 104.205C523.568 102.063 524.865 100.307 525.803 98.9357L541.209 113.156Z" fill="#FAFAFA"/>
<path d="M1154.14 51.2256L1187.87 70.7268V109.729L1154.14 129.23L1120.4 109.729V99.3656V81.3131V70.7268L1154.14 51.2256Z" fill="#010A1D"/>
<path d="M1084.46 99.3656H1120.4V81.3131H1084.46V99.3656Z" fill="#010A1D"/>
<path d="M1154.22 73.5127L1168.26 81.6475V97.917L1154.22 106.052L1140.18 97.917V93.594V86.0635V81.6475L1154.22 73.5127Z" fill="#FAFAFA"/>
<path d="M1168.26 81.6475V97.917H1188.99V81.6475H1168.26Z" fill="#FAFAFA"/>
</svg>
