<svg width="138" height="17" viewBox="0 0 138 17" fill="none" xmlns="http://www.w3.org/2000/svg">
<path d="M18.5369 16.4794H15.6349V10.1123C15.6349 9.21716 15.4761 8.56024 15.1584 8.14154C14.8552 7.7084 14.4293 7.49183 13.8807 7.49183C13.3176 7.49183 12.7762 7.71562 12.2564 8.1632C11.7511 8.59634 11.3901 9.16663 11.1736 9.87409V16.4794H8.27154V10.1123C8.27154 9.20273 8.11272 8.53858 7.79509 8.11988C7.49189 7.70118 7.06597 7.49183 6.51733 7.49183C5.95425 7.49183 5.41283 7.7084 4.89307 8.14154C4.38774 8.57468 4.02679 9.14497 3.81022 9.85243V16.4794H0.908203V5.13124H3.52868V7.23195C3.96182 6.49562 4.53934 5.93254 5.26123 5.54272C5.98313 5.13845 6.81331 4.93632 7.75177 4.93632C8.69024 4.93632 9.41935 5.16733 9.93912 5.62934C10.4733 6.09136 10.8126 6.66165 10.957 7.34024C11.419 6.56059 12.0037 5.96864 12.7112 5.56437C13.4331 5.14567 14.2416 4.93632 15.1368 4.93632C15.8442 4.93632 16.4145 5.06627 16.8477 5.32615C17.2952 5.57159 17.6417 5.91088 17.8872 6.34402C18.1326 6.76272 18.2987 7.23917 18.3853 7.77337C18.4864 8.30758 18.5369 8.849 18.5369 9.39764V16.4794Z" fill="#FAFAFA"/>
<path d="M20.2838 13.1226C20.2838 12.3863 20.486 11.7438 20.8902 11.1952C21.3089 10.6321 21.8864 10.1989 22.6228 9.89575C23.3591 9.59255 24.2037 9.44095 25.1566 9.44095C25.6331 9.44095 26.1167 9.47705 26.6076 9.54924C27.0985 9.62143 27.5244 9.73693 27.8854 9.89575V9.28935C27.8854 8.56746 27.6688 8.0116 27.2357 7.62178C26.817 7.23195 26.1889 7.03704 25.3515 7.03704C24.7307 7.03704 24.1387 7.14532 23.5757 7.36189C23.0126 7.57846 22.4206 7.8961 21.7998 8.3148L20.8686 6.40899C21.6193 5.9181 22.3845 5.54994 23.1642 5.30449C23.9583 5.05905 24.7885 4.93632 25.6547 4.93632C27.2718 4.93632 28.5279 5.34059 29.423 6.14911C30.3326 6.95763 30.7874 8.11266 30.7874 9.61421V13.2309C30.7874 13.5341 30.8379 13.7507 30.939 13.8806C31.0545 14.0106 31.235 14.09 31.4804 14.1188V16.4794C31.2205 16.5227 30.9823 16.5588 30.7657 16.5877C30.5636 16.6166 30.3904 16.631 30.246 16.631C29.6685 16.631 29.2281 16.5011 28.9249 16.2412C28.6362 15.9813 28.4557 15.6637 28.3835 15.2883L28.3185 14.7036C27.8276 15.3388 27.214 15.8297 26.4777 16.1762C25.7414 16.5227 24.9906 16.696 24.2254 16.696C23.4746 16.696 22.796 16.5444 22.1896 16.2412C21.5977 15.9236 21.1284 15.4977 20.7819 14.9635C20.4499 14.4148 20.2838 13.8012 20.2838 13.1226ZM27.344 13.7074C27.5028 13.5341 27.6327 13.3608 27.7338 13.1876C27.8349 13.0143 27.8854 12.8555 27.8854 12.7111V11.5633C27.5389 11.4189 27.1635 11.3107 26.7592 11.2385C26.355 11.1518 25.9724 11.1085 25.6114 11.1085C24.8606 11.1085 24.2398 11.2746 23.7489 11.6066C23.2725 11.9243 23.0342 12.3502 23.0342 12.8844C23.0342 13.1732 23.1137 13.4475 23.2725 13.7074C23.4313 13.9672 23.6623 14.1766 23.9655 14.3354C24.2687 14.4942 24.6296 14.5736 25.0483 14.5736C25.4815 14.5736 25.9074 14.4942 26.3261 14.3354C26.7448 14.1622 27.0841 13.9528 27.344 13.7074Z" fill="#FAFAFA"/>
<path d="M33.4992 16.4794V5.13124H36.4013V16.4794H33.4992ZM33.4992 3.55029V0.669922H36.4013V3.55029H33.4992Z" fill="#FAFAFA"/>
<path d="M49.5661 16.4794H46.6641V10.1123C46.6641 9.20273 46.5053 8.53858 46.1876 8.11988C45.87 7.70118 45.4296 7.49183 44.8666 7.49183C44.4767 7.49183 44.0797 7.5929 43.6754 7.79503C43.2856 7.99716 42.9319 8.2787 42.6143 8.63965C42.2966 8.98616 42.0656 9.39042 41.9212 9.85243V16.4794H39.0192V5.13124H41.6397V7.23195C41.9285 6.74106 42.2966 6.32958 42.7442 5.99751C43.1918 5.651 43.7043 5.39112 44.2818 5.21786C44.8738 5.03017 45.4946 4.93632 46.1443 4.93632C46.8518 4.93632 47.4293 5.06627 47.8769 5.32615C48.3389 5.57159 48.6854 5.91088 48.9164 6.34402C49.1618 6.76272 49.3279 7.23917 49.4145 7.77337C49.5156 8.30758 49.5661 8.849 49.5661 9.39764V16.4794Z" fill="#FAFAFA"/>
<path d="M67.7575 16.696C66.8479 16.696 66.025 16.5444 65.2887 16.2412C64.5523 15.9236 63.9243 15.4977 63.4045 14.9635C62.8847 14.4148 62.4805 13.794 62.1917 13.101C61.9174 12.3935 61.7802 11.65 61.7802 10.8703C61.7802 9.78746 62.0185 8.79846 62.4949 7.90331C62.9858 7.00816 63.6788 6.29349 64.574 5.75928C65.4836 5.21064 66.552 4.93632 67.7792 4.93632C69.0209 4.93632 70.082 5.21064 70.9627 5.75928C71.8435 6.29349 72.5148 7.00816 72.9768 7.90331C73.4533 8.78403 73.6915 9.73693 73.6915 10.762C73.6915 10.9353 73.6843 11.1158 73.6699 11.3034C73.6554 11.4767 73.641 11.6211 73.6265 11.7366H64.8555C64.9133 12.3141 65.0793 12.8194 65.3536 13.2526C65.6424 13.6857 66.0033 14.0178 66.4365 14.2488C66.884 14.4653 67.3605 14.5736 67.8658 14.5736C68.4433 14.5736 68.9848 14.4365 69.4901 14.1621C70.0098 13.8734 70.3636 13.498 70.5513 13.036L73.0418 13.729C72.7675 14.3065 72.3704 14.8191 71.8507 15.2666C71.3454 15.7142 70.7462 16.068 70.0532 16.3278C69.3601 16.5733 68.5949 16.696 67.7575 16.696ZM64.7905 9.89575H70.7245C70.6668 9.31823 70.5007 8.82012 70.2264 8.40142C69.9665 7.96829 69.62 7.63621 69.1869 7.40521C68.7537 7.15976 68.2701 7.03704 67.7359 7.03704C67.2161 7.03704 66.7397 7.15976 66.3065 7.40521C65.8878 7.63621 65.5413 7.96829 65.267 8.40142C65.0071 8.82012 64.8483 9.31823 64.7905 9.89575Z" fill="#FAFAFA"/>
<path d="M86.0063 16.4794H83.1043V10.1123C83.1043 9.20273 82.9455 8.53858 82.6278 8.11988C82.3102 7.70118 81.8699 7.49183 81.3068 7.49183C80.917 7.49183 80.5199 7.5929 80.1156 7.79503C79.7258 7.99716 79.3721 8.2787 79.0545 8.63965C78.7368 8.98616 78.5058 9.39042 78.3614 9.85243V16.4794H75.4594V5.13124H78.0799V7.23195C78.3687 6.74106 78.7368 6.32958 79.1844 5.99751C79.632 5.651 80.1445 5.39112 80.722 5.21786C81.314 5.03017 81.9348 4.93632 82.5845 4.93632C83.292 4.93632 83.8695 5.06627 84.3171 5.32615C84.7791 5.57159 85.1256 5.91088 85.3566 6.34402C85.6021 6.76272 85.7681 7.23917 85.8547 7.77337C85.9558 8.30758 86.0063 8.849 86.0063 9.39764V16.4794Z" fill="#FAFAFA"/>
<path d="M87.75 13.1226C87.75 12.3863 87.9522 11.7438 88.3564 11.1952C88.7751 10.6321 89.3526 10.1989 90.089 9.89575C90.8253 9.59255 91.6699 9.44095 92.6228 9.44095C93.0993 9.44095 93.5829 9.47705 94.0738 9.54924C94.5647 9.62143 94.9906 9.73693 95.3516 9.89575V9.28935C95.3516 8.56746 95.135 8.0116 94.7019 7.62178C94.2832 7.23195 93.6551 7.03704 92.8177 7.03704C92.1969 7.03704 91.605 7.14532 91.0419 7.36189C90.4788 7.57846 89.8868 7.8961 89.266 8.3148L88.3348 6.40899C89.0855 5.9181 89.8507 5.54994 90.6304 5.30449C91.4245 5.05905 92.2547 4.93632 93.1209 4.93632C94.738 4.93632 95.9941 5.34059 96.8892 6.14911C97.7988 6.95763 98.2536 8.11266 98.2536 9.61421V13.2309C98.2536 13.5341 98.3041 13.7507 98.4052 13.8806C98.5207 14.0106 98.7012 14.09 98.9466 14.1188V16.4794C98.6868 16.5227 98.4485 16.5588 98.232 16.5877C98.0298 16.6166 97.8566 16.631 97.7122 16.631C97.1347 16.631 96.6943 16.5011 96.3911 16.2412C96.1024 15.9813 95.9219 15.6637 95.8497 15.2883L95.7847 14.7036C95.2938 15.3388 94.6802 15.8297 93.9439 16.1762C93.2076 16.5227 92.4568 16.696 91.6916 16.696C90.9408 16.696 90.2622 16.5444 89.6558 16.2412C89.0639 15.9236 88.5947 15.4977 88.2481 14.9635C87.9161 14.4148 87.75 13.8012 87.75 13.1226ZM94.8102 13.7074C94.969 13.5341 95.0989 13.3608 95.2 13.1876C95.3011 13.0143 95.3516 12.8555 95.3516 12.7111V11.5633C95.0051 11.4189 94.6297 11.3107 94.2254 11.2385C93.8212 11.1518 93.4386 11.1085 93.0776 11.1085C92.3269 11.1085 91.706 11.2746 91.2151 11.6066C90.7387 11.9243 90.5005 12.3502 90.5005 12.8844C90.5005 13.1732 90.5799 13.4475 90.7387 13.7074C90.8975 13.9672 91.1285 14.1766 91.4317 14.3354C91.7349 14.4942 92.0958 14.5736 92.5145 14.5736C92.9477 14.5736 93.3736 14.4942 93.7923 14.3354C94.211 14.1622 94.5503 13.9528 94.8102 13.7074Z" fill="#FAFAFA"/>
<path d="M111.512 16.4794H108.61V10.1123C108.61 9.20273 108.452 8.53858 108.134 8.11988C107.816 7.70118 107.376 7.49183 106.813 7.49183C106.423 7.49183 106.026 7.5929 105.622 7.79503C105.232 7.99716 104.878 8.2787 104.56 8.63965C104.243 8.98616 104.012 9.39042 103.867 9.85243V16.4794H100.965V5.13124H103.586V7.23195C103.875 6.74106 104.243 6.32958 104.69 5.99751C105.138 5.651 105.651 5.39112 106.228 5.21786C106.82 5.03017 107.441 4.93632 108.091 4.93632C108.798 4.93632 109.376 5.06627 109.823 5.32615C110.285 5.57159 110.632 5.91088 110.863 6.34402C111.108 6.76272 111.274 7.23917 111.361 7.77337C111.462 8.30758 111.512 8.849 111.512 9.39764V16.4794Z" fill="#FAFAFA"/>
<path d="M119.32 16.696C118.396 16.696 117.566 16.5444 116.829 16.2412C116.093 15.9236 115.465 15.4904 114.945 14.9418C114.426 14.3787 114.021 13.7434 113.733 13.036C113.458 12.3285 113.321 11.585 113.321 10.8053C113.321 9.73693 113.559 8.76237 114.036 7.88166C114.527 6.98651 115.22 6.27183 116.115 5.73763C117.01 5.20342 118.071 4.93632 119.298 4.93632C120.526 4.93632 121.58 5.20342 122.46 5.73763C123.341 6.27183 123.998 6.97207 124.431 7.83834L121.594 8.70462C121.349 8.28592 121.024 7.96829 120.619 7.75172C120.215 7.52071 119.768 7.40521 119.277 7.40521C118.728 7.40521 118.223 7.54959 117.761 7.83834C117.313 8.11266 116.959 8.50971 116.7 9.02947C116.44 9.5348 116.31 10.1268 116.31 10.8053C116.31 11.4695 116.44 12.0614 116.7 12.5812C116.974 13.0865 117.335 13.4908 117.782 13.794C118.23 14.0827 118.728 14.2271 119.277 14.2271C119.623 14.2271 119.948 14.1694 120.251 14.0539C120.569 13.9384 120.85 13.7795 121.096 13.5774C121.341 13.3753 121.522 13.1443 121.637 12.8844L124.474 13.7507C124.214 14.3137 123.832 14.8191 123.327 15.2666C122.836 15.7142 122.251 16.068 121.572 16.3278C120.908 16.5733 120.157 16.696 119.32 16.696Z" fill="#FAFAFA"/>
<path d="M131.417 16.696C130.507 16.696 129.684 16.5444 128.948 16.2412C128.212 15.9236 127.584 15.4977 127.064 14.9635C126.544 14.4148 126.14 13.794 125.851 13.101C125.577 12.3935 125.44 11.65 125.44 10.8703C125.44 9.78746 125.678 8.79846 126.154 7.90331C126.645 7.00816 127.338 6.29349 128.233 5.75928C129.143 5.21064 130.211 4.93632 131.439 4.93632C132.68 4.93632 133.741 5.21064 134.622 5.75928C135.503 6.29349 136.174 7.00816 136.636 7.90331C137.113 8.78403 137.351 9.73693 137.351 10.762C137.351 10.9353 137.344 11.1158 137.329 11.3034C137.315 11.4767 137.3 11.6211 137.286 11.7366H128.515C128.573 12.3141 128.739 12.8194 129.013 13.2526C129.302 13.6857 129.663 14.0178 130.096 14.2488C130.543 14.4653 131.02 14.5736 131.525 14.5736C132.103 14.5736 132.644 14.4365 133.149 14.1621C133.669 13.8734 134.023 13.498 134.211 13.036L136.701 13.729C136.427 14.3065 136.03 14.8191 135.51 15.2666C135.005 15.7142 134.406 16.068 133.713 16.3278C133.019 16.5733 132.254 16.696 131.417 16.696ZM128.45 9.89575H134.384C134.326 9.31823 134.16 8.82012 133.886 8.40142C133.626 7.96829 133.279 7.63621 132.846 7.40521C132.413 7.15976 131.929 7.03704 131.395 7.03704C130.875 7.03704 130.399 7.15976 129.966 7.40521C129.547 7.63621 129.201 7.96829 128.926 8.40142C128.666 8.82012 128.508 9.31823 128.45 9.89575Z" fill="#FAFAFA"/>
<path d="M62.031 13.4545C61.8802 13.6729 61.6949 13.931 61.475 14.2287C61.2552 14.5264 60.9954 14.8156 60.6957 15.0963C60.4159 15.3813 60.1065 15.6339 59.7675 15.854C59.3195 16.145 58.8567 16.3336 58.3791 16.42C57.9015 16.5064 57.4376 16.4547 56.9873 16.2651C56.5413 16.0555 56.1375 15.6722 55.7757 15.1152L52.2254 9.64811L50.9722 10.462L49.7573 8.59119L51.0105 7.77732L49.0053 4.68962L51.4392 3.10906L53.4443 6.19677L55.4423 4.8993L56.6572 6.77009L54.6592 8.06755L57.6788 12.7173C57.9032 13.0363 58.1474 13.2135 58.4113 13.2487C58.6751 13.2839 58.9342 13.219 59.1885 13.0538C59.4428 12.8887 59.6635 12.6851 59.8506 12.4431C60.0378 12.2011 60.1843 12.0026 60.2903 11.8477L62.031 13.4545Z" fill="#FAFAFA"/>
<path d="M131.286 6.45605L135.098 8.65951V13.0664L131.286 15.2699L127.474 13.0664V11.8955V9.85568V8.65951L131.286 6.45605Z" fill="#010A1D"/>
<path d="M123.413 11.8955H127.474V9.85568H123.413V11.8955Z" fill="#010A1D"/>
<path d="M131.295 8.97461L132.882 9.89377V11.7321L131.295 12.6512L129.709 11.7321V11.2436V10.3927V9.89377L131.295 8.97461Z" fill="#FAFAFA"/>
<path d="M132.882 9.89377V11.7321H135.224V9.89377H132.882Z" fill="#FAFAFA"/>
</svg>
