<svg width="565" height="123" viewBox="0 0 565 123" fill="none" xmlns="http://www.w3.org/2000/svg">
<path d="M44.6539 118.812C36.1557 118.812 28.5291 116.796 21.7741 112.765C15.128 108.734 9.84388 103.286 5.92162 96.4222C2.10831 89.5583 0.20166 81.8227 0.20166 73.2155C0.20166 64.4994 1.99936 56.7093 5.59477 49.8454C9.19017 42.9814 14.1475 37.5883 20.4667 33.6661C26.7859 29.6349 34.0312 27.6192 42.2025 27.6192C49.1754 27.6192 55.5491 28.9811 61.3235 31.7049C67.098 34.3198 72.1098 38.351 76.3589 43.7986C77.2305 44.8881 77.5573 46.0321 77.3394 47.2306C77.1215 48.429 76.4134 49.4096 75.2149 50.1722C74.2343 50.9349 73.1448 51.2618 71.9463 51.1528C70.7479 50.9349 69.7128 50.2812 68.8412 49.1917C61.8683 40.9114 52.9887 36.7712 42.2025 36.7712C35.7744 36.7712 30.1089 38.351 25.2061 41.5106C20.4122 44.6702 16.6534 48.9738 13.9296 54.4214C11.3147 59.8689 10.0073 66.1337 10.0073 73.2155C10.0073 80.0795 11.4782 86.2897 14.4199 91.8463C17.3615 97.2938 21.3928 101.652 26.5135 104.92C31.7432 108.08 37.79 109.66 44.6539 109.66C49.121 109.66 53.3156 109.006 57.2379 107.699C61.2691 106.391 64.7555 104.376 67.6972 101.652C68.6778 100.78 69.7673 100.29 70.9658 100.181C72.1642 100.072 73.1993 100.453 74.0709 101.325C75.1604 102.306 75.7052 103.45 75.7052 104.757C75.8141 105.956 75.3783 106.991 74.3977 107.862C66.4443 115.162 56.5297 118.812 44.6539 118.812Z" fill="#FAFAFA"/>
<path d="M149.374 118.812C140.658 118.812 132.813 116.851 125.84 112.928C118.976 108.897 113.529 103.45 109.498 96.5857C105.575 89.6128 103.614 81.8227 103.614 73.2155C103.614 64.4994 105.575 56.7093 109.498 49.8454C113.529 42.8725 118.976 37.4249 125.84 33.5026C132.813 29.4714 140.658 27.4558 149.374 27.4558C158.09 27.4558 165.88 29.4714 172.744 33.5026C179.608 37.4249 185.001 42.8725 188.923 49.8454C192.955 56.7093 194.97 64.4994 194.97 73.2155L190.885 79.7526C190.885 87.1613 189.032 93.8074 185.328 99.6908C181.733 105.574 176.83 110.259 170.62 113.746C164.409 117.123 157.327 118.812 149.374 118.812ZM149.374 109.66C156.238 109.66 162.339 108.08 167.678 104.92C173.125 101.652 177.375 97.2938 180.425 91.8463C183.585 86.2897 185.165 80.0795 185.165 73.2155C185.165 66.2426 183.585 60.0324 180.425 54.5848C177.375 49.0283 173.125 44.6702 167.678 41.5106C162.339 38.242 156.238 36.6078 149.374 36.6078C142.619 36.6078 136.518 38.242 131.07 41.5106C125.622 44.6702 121.319 49.0283 118.159 54.5848C115 60.0324 113.42 66.2426 113.42 73.2155C113.42 80.0795 115 86.2897 118.159 91.8463C121.319 97.2938 125.622 101.652 131.07 104.92C136.518 108.08 142.619 109.66 149.374 109.66ZM190.067 117.831C188.651 117.831 187.453 117.395 186.472 116.524C185.6 115.543 185.165 114.345 185.165 112.928V83.0212L188.27 73.2155H194.97V112.928C194.97 114.345 194.534 115.543 193.663 116.524C192.791 117.395 191.593 117.831 190.067 117.831Z" fill="#FAFAFA"/>
<path d="M229.243 63.2464C229.896 56.2735 231.803 50.1178 234.963 44.7791C238.122 39.3316 242.208 35.0824 247.22 32.0318C252.232 28.9811 257.788 27.4558 263.889 27.4558C268.03 27.4558 271.244 27.9461 273.532 28.9267C275.82 29.9072 276.691 31.6505 276.146 34.1563C275.82 35.7906 275.057 36.7712 273.858 37.098C272.66 37.4249 271.189 37.4794 269.446 37.2615C267.812 36.9346 265.959 36.7712 263.889 36.7712C258.442 36.7712 253.593 37.9152 249.344 40.2032C245.095 42.4912 241.772 45.6507 239.375 49.682C236.978 53.6042 235.78 58.1257 235.78 63.2464H229.243ZM230.877 117.831C229.461 117.831 228.262 117.395 227.282 116.524C226.41 115.543 225.974 114.345 225.974 112.928V33.3392C225.974 31.8139 226.41 30.6154 227.282 29.7438C228.262 28.8722 229.461 28.4364 230.877 28.4364C232.402 28.4364 233.601 28.8722 234.472 29.7438C235.344 30.6154 235.78 31.8139 235.78 33.3392V112.928C235.78 114.345 235.344 115.543 234.472 116.524C233.601 117.395 232.402 117.831 230.877 117.831Z" fill="#FAFAFA"/>
<path d="M452.552 118.648C443.945 118.648 436.264 116.742 429.509 112.928C422.863 109.006 417.633 103.613 413.82 96.7491C410.007 89.8851 408.1 82.0406 408.1 73.2155C408.1 64.2815 409.898 56.437 413.493 49.682C417.089 42.818 422.046 37.4249 428.365 33.5026C434.684 29.5804 441.93 27.6192 450.101 27.6192C458.163 27.6192 465.3 29.5259 471.51 33.3392C477.72 37.0436 482.569 42.2188 486.055 48.8648C489.542 55.4019 491.285 62.9741 491.285 71.5813C491.285 72.9976 490.849 74.1416 489.977 75.0132C489.106 75.7759 487.962 76.1572 486.545 76.1572H414.637V67.659H489.16L481.969 73.0521C482.187 65.9702 480.989 59.7055 478.374 54.2579C475.759 48.8103 472 44.5612 467.097 41.5106C462.304 38.351 456.638 36.7712 450.101 36.7712C443.891 36.7712 438.334 38.351 433.431 41.5106C428.638 44.5612 424.824 48.8103 421.991 54.2579C419.268 59.7055 417.906 66.0247 417.906 73.2155C417.906 80.2974 419.377 86.5621 422.318 92.0097C425.26 97.4573 429.346 101.761 434.575 104.92C439.805 107.971 445.797 109.496 452.552 109.496C456.802 109.496 461.051 108.788 465.3 107.372C469.658 105.847 473.09 103.885 475.596 101.488C476.467 100.617 477.502 100.181 478.701 100.181C480.008 100.072 481.098 100.399 481.969 101.162C483.168 102.142 483.767 103.232 483.767 104.43C483.876 105.629 483.386 106.718 482.296 107.699C478.81 110.858 474.234 113.473 468.568 115.543C463.012 117.613 457.673 118.648 452.552 118.648Z" fill="#FAFAFA"/>
<path d="M555.736 117.831C549.744 117.722 544.405 116.36 539.721 113.746C535.036 111.022 531.386 107.317 528.771 102.632C526.156 97.8386 524.849 92.4455 524.849 86.4532V5.06625C524.849 3.54092 525.284 2.34246 526.156 1.47085C527.137 0.490283 528.335 0 529.751 0C531.277 0 532.475 0.490283 533.347 1.47085C534.327 2.34246 534.818 3.54092 534.818 5.06625V86.4532C534.818 92.7724 536.779 97.9476 540.701 101.979C544.623 105.901 549.69 107.862 555.9 107.862H559.495C561.021 107.862 562.219 108.352 563.091 109.333C564.071 110.205 564.562 111.403 564.562 112.928C564.562 114.345 564.071 115.543 563.091 116.524C562.219 117.395 561.021 117.831 559.495 117.831H555.736ZM512.101 40.53C510.794 40.53 509.704 40.1487 508.833 39.386C508.07 38.5144 507.689 37.4249 507.689 36.1175C507.689 34.8101 508.07 33.775 508.833 33.0124C509.704 32.1407 510.794 31.7049 512.101 31.7049H556.39C557.698 31.7049 558.733 32.1407 559.495 33.0124C560.367 33.775 560.803 34.8101 560.803 36.1175C560.803 37.4249 560.367 38.5144 559.495 39.386C558.733 40.1487 557.698 40.53 556.39 40.53H512.101Z" fill="#FAFAFA"/>
<path d="M406.15 117.234C406.15 118.623 405.67 119.798 404.708 120.759C403.854 121.614 402.732 122.041 401.343 122.041H323.947C315.508 121.828 308.03 119.798 301.513 115.952C294.89 111.999 289.656 106.658 285.81 99.928C281.964 93.1979 280.041 85.6666 280.041 77.3341C280.041 68.788 282.018 61.1498 285.97 54.4197C289.816 47.5828 295.157 42.2415 301.994 38.3957C308.724 34.4431 316.362 32.4668 324.909 32.4668C333.348 32.4668 340.986 34.4431 347.823 38.3957C354.553 42.2415 359.894 47.5828 363.847 54.4197C367.693 61.1498 369.616 68.788 369.616 77.3341C369.616 85.0257 367.96 91.9694 364.648 98.1654C361.337 104.254 356.903 109.008 351.348 112.427H401.343C402.732 112.427 403.854 112.854 404.708 113.709C405.67 114.563 406.15 115.738 406.15 117.234ZM360.642 77.3341C360.642 70.604 359.093 64.6217 355.995 59.3872C352.79 54.0458 348.517 49.8262 343.176 46.7282C337.728 43.6302 331.639 42.0812 324.909 42.0812C318.072 42.0812 311.983 43.6302 306.641 46.7282C301.193 49.8262 296.92 54.0458 293.822 59.3872C290.617 64.6217 289.015 70.604 289.015 77.3341C289.015 83.9574 290.617 89.9397 293.822 95.281C296.92 100.622 301.193 104.842 306.641 107.94C311.983 110.931 318.072 112.427 324.909 112.427C331.639 112.427 337.728 110.931 343.176 107.94C348.517 104.842 352.79 100.622 355.995 95.281C359.093 89.9397 360.642 83.9574 360.642 77.3341Z" fill="#FAFAFA"/>
</svg>
