<svg width="65" height="15" viewBox="0 0 65 15" fill="none" xmlns="http://www.w3.org/2000/svg">
<path d="M5.54225 14.0277C4.58202 14.0277 3.72028 13.8 2.95703 13.3445C2.20608 12.889 1.60902 12.2735 1.16584 11.4979C0.734966 10.7223 0.519531 9.84827 0.519531 8.87574C0.519531 7.89089 0.722656 7.01068 1.1289 6.23512C1.53515 5.45955 2.09529 4.85018 2.8093 4.407C3.52331 3.9515 4.34197 3.72376 5.26526 3.72376C6.05314 3.72376 6.77331 3.87764 7.42577 4.18541C8.07823 4.48086 8.64451 4.93635 9.12463 5.55188C9.22311 5.67499 9.26004 5.80425 9.23542 5.93966C9.2108 6.07508 9.13078 6.18587 8.99537 6.27205C8.88457 6.35822 8.76146 6.39515 8.62605 6.38284C8.49063 6.35822 8.37368 6.28436 8.2752 6.16125C7.48732 5.22565 6.48401 4.75785 5.26526 4.75785C4.53894 4.75785 3.89879 4.93635 3.34481 5.29336C2.80314 5.65036 2.37843 6.13663 2.07066 6.75216C1.77521 7.36769 1.62748 8.07555 1.62748 8.87574C1.62748 9.6513 1.79368 10.353 2.12606 10.9808C2.45845 11.5964 2.91394 12.0888 3.49254 12.4581C4.08344 12.8151 4.76668 12.9936 5.54225 12.9936C6.04698 12.9936 6.52094 12.9198 6.96412 12.772C7.41961 12.6243 7.81355 12.3966 8.14594 12.0888C8.25673 11.9903 8.37984 11.9349 8.51525 11.9226C8.65067 11.9103 8.76762 11.9534 8.8661 12.0519C8.98921 12.1627 9.05076 12.2919 9.05076 12.4397C9.06307 12.5751 9.01383 12.692 8.90304 12.7905C8.00436 13.6153 6.8841 14.0277 5.54225 14.0277Z" fill="#FAFAFA"/>
<path d="M17.3747 14.0277C16.3898 14.0277 15.5035 13.8061 14.7156 13.3629C13.94 12.9075 13.3245 12.2919 12.869 11.5164C12.4258 10.7285 12.2042 9.84827 12.2042 8.87574C12.2042 7.89089 12.4258 7.01068 12.869 6.23512C13.3245 5.44724 13.94 4.83171 14.7156 4.38853C15.5035 3.93304 16.3898 3.70529 17.3747 3.70529C18.3595 3.70529 19.2397 3.93304 20.0153 4.38853C20.7909 4.83171 21.4002 5.44724 21.8434 6.23512C22.2989 7.01068 22.5267 7.89089 22.5267 8.87574L22.065 9.61437C22.065 10.4515 21.8557 11.2024 21.4372 11.8672C21.0309 12.532 20.477 13.0613 19.7752 13.4553C19.0735 13.8369 18.2734 14.0277 17.3747 14.0277ZM17.3747 12.9936C18.1503 12.9936 18.8396 12.8151 19.4429 12.4581C20.0584 12.0888 20.5385 11.5964 20.8832 10.9808C21.2402 10.353 21.4187 9.6513 21.4187 8.87574C21.4187 8.08786 21.2402 7.38616 20.8832 6.77063C20.5385 6.14279 20.0584 5.65036 19.4429 5.29336C18.8396 4.92404 18.1503 4.73938 17.3747 4.73938C16.6114 4.73938 15.922 4.92404 15.3065 5.29336C14.691 5.65036 14.2047 6.14279 13.8477 6.77063C13.4907 7.38616 13.3122 8.08786 13.3122 8.87574C13.3122 9.6513 13.4907 10.353 13.8477 10.9808C14.2047 11.5964 14.691 12.0888 15.3065 12.4581C15.922 12.8151 16.6114 12.9936 17.3747 12.9936ZM21.9727 13.9169C21.8127 13.9169 21.6772 13.8677 21.5664 13.7692C21.468 13.6584 21.4187 13.523 21.4187 13.3629V9.98369L21.7696 8.87574H22.5267V13.3629C22.5267 13.523 22.4774 13.6584 22.3789 13.7692C22.2805 13.8677 22.145 13.9169 21.9727 13.9169Z" fill="#FAFAFA"/>
<path d="M26.3992 7.74932C26.473 6.96144 26.6885 6.26589 27.0455 5.66268C27.4025 5.04715 27.8641 4.56703 28.4304 4.22234C28.9967 3.87764 29.6245 3.70529 30.3139 3.70529C30.7817 3.70529 31.1449 3.76069 31.4034 3.87149C31.6619 3.98228 31.7604 4.17925 31.6989 4.46239C31.6619 4.64705 31.5758 4.75785 31.4403 4.79478C31.3049 4.83171 31.1387 4.83787 30.9418 4.81325C30.7571 4.77631 30.5478 4.75785 30.3139 4.75785C29.6984 4.75785 29.1506 4.88711 28.6705 5.14563C28.1903 5.40415 27.8149 5.76116 27.544 6.21665C27.2732 6.65983 27.1378 7.17072 27.1378 7.74932H26.3992ZM26.5838 13.9169C26.4238 13.9169 26.2884 13.8677 26.1776 13.7692C26.0791 13.6584 26.0298 13.523 26.0298 13.3629V4.37006C26.0298 4.19772 26.0791 4.0623 26.1776 3.96382C26.2884 3.86533 26.4238 3.81609 26.5838 3.81609C26.7562 3.81609 26.8916 3.86533 26.9901 3.96382C27.0885 4.0623 27.1378 4.19772 27.1378 4.37006V13.3629C27.1378 13.523 27.0885 13.6584 26.9901 13.7692C26.8916 13.8677 26.7562 13.9169 26.5838 13.9169Z" fill="#FAFAFA"/>
<path d="M51.6312 14.0092C50.6586 14.0092 49.7908 13.7938 49.0275 13.3629C48.2766 12.9198 47.6856 12.3104 47.2548 11.5348C46.8239 10.7593 46.6085 9.87289 46.6085 8.87574C46.6085 7.86627 46.8116 6.97991 47.2178 6.21665C47.6241 5.44108 48.1842 4.83171 48.8982 4.38853C49.6122 3.94535 50.4309 3.72376 51.3542 3.72376C52.2652 3.72376 53.0715 3.93919 53.7732 4.37006C54.4749 4.78862 55.0227 5.37338 55.4167 6.12432C55.8106 6.86296 56.0076 7.71854 56.0076 8.69108C56.0076 8.85112 55.9584 8.98038 55.8599 9.07886C55.7614 9.16504 55.6321 9.20812 55.4721 9.20812H47.3471V8.2479H55.7675L54.955 8.85727C54.9797 8.05708 54.8442 7.34922 54.5488 6.7337C54.2533 6.11817 53.8286 5.63805 53.2746 5.29336C52.733 4.93635 52.0928 4.75785 51.3542 4.75785C50.6525 4.75785 50.0247 4.93635 49.4707 5.29336C48.929 5.63805 48.4981 6.11817 48.1781 6.7337C47.8703 7.34922 47.7164 8.06324 47.7164 8.87574C47.7164 9.67592 47.8826 10.3838 48.215 10.9993C48.5474 11.6148 49.009 12.1011 49.5999 12.4581C50.1908 12.8028 50.8679 12.9752 51.6312 12.9752C52.1113 12.9752 52.5914 12.8951 53.0715 12.7351C53.5639 12.5628 53.9517 12.3412 54.2349 12.0703C54.3334 11.9718 54.4503 11.9226 54.5857 11.9226C54.7334 11.9103 54.8566 11.9472 54.955 12.0334C55.0905 12.1442 55.1582 12.2673 55.1582 12.4027C55.1705 12.5381 55.1151 12.6612 54.992 12.772C54.598 13.129 54.081 13.4245 53.4408 13.6584C52.813 13.8923 52.2098 14.0092 51.6312 14.0092Z" fill="#FAFAFA"/>
<path d="M63.2901 13.9169C62.613 13.9046 62.0098 13.7507 61.4804 13.4553C60.9511 13.1475 60.5387 12.7289 60.2432 12.1996C59.9477 11.6579 59.8 11.0486 59.8 10.3715V1.17547C59.8 1.00312 59.8493 0.867704 59.9477 0.76922C60.0585 0.658425 60.194 0.603027 60.354 0.603027C60.5263 0.603027 60.6618 0.658425 60.7602 0.76922C60.871 0.867704 60.9264 1.00312 60.9264 1.17547V10.3715C60.9264 11.0855 61.148 11.6702 61.5912 12.1257C62.0344 12.5689 62.6068 12.7905 63.3085 12.7905H63.7148C63.8871 12.7905 64.0225 12.8459 64.121 12.9567C64.2318 13.0552 64.2872 13.1906 64.2872 13.3629C64.2872 13.523 64.2318 13.6584 64.121 13.7692C64.0225 13.8677 63.8871 13.9169 63.7148 13.9169H63.2901ZM58.3597 5.18256C58.2119 5.18256 58.0888 5.13948 57.9904 5.0533C57.9042 4.95482 57.8611 4.83171 57.8611 4.68398C57.8611 4.53626 57.9042 4.41931 57.9904 4.33313C58.0888 4.23465 58.2119 4.18541 58.3597 4.18541H63.3639C63.5117 4.18541 63.6286 4.23465 63.7148 4.33313C63.8133 4.41931 63.8625 4.53626 63.8625 4.68398C63.8625 4.83171 63.8133 4.95482 63.7148 5.0533C63.6286 5.13948 63.5117 5.18256 63.3639 5.18256H58.3597Z" fill="#FAFAFA"/>
<path d="M46.3879 13.8494C46.3879 14.0063 46.3336 14.1391 46.2249 14.2478C46.1284 14.3443 46.0016 14.3926 45.8447 14.3926H37.0996C36.1461 14.3685 35.3011 14.1391 34.5648 13.7046C33.8165 13.258 33.225 12.6544 32.7905 11.894C32.3559 11.1336 32.1387 10.2826 32.1387 9.3411C32.1387 8.37545 32.362 7.51241 32.8086 6.75197C33.2431 5.97946 33.8466 5.37594 34.6192 4.9414C35.3796 4.49479 36.2426 4.27148 37.2083 4.27148C38.1619 4.27148 39.0249 4.49479 39.7974 4.9414C40.5578 5.37594 41.1614 5.97946 41.608 6.75197C42.0425 7.51241 42.2598 8.37545 42.2598 9.3411C42.2598 10.2102 42.0727 10.9948 41.6985 11.6948C41.3243 12.3829 40.8234 12.92 40.1957 13.3063H45.8447C46.0016 13.3063 46.1284 13.3545 46.2249 13.4511C46.3336 13.5477 46.3879 13.6804 46.3879 13.8494ZM41.2459 9.3411C41.2459 8.58065 41.0708 7.90471 40.7208 7.31325C40.3587 6.70973 39.8759 6.23294 39.2723 5.8829C38.6567 5.53285 37.9687 5.35783 37.2083 5.35783C36.4358 5.35783 35.7478 5.53285 35.1442 5.8829C34.5286 6.23294 34.0458 6.70973 33.6958 7.31325C33.3337 7.90471 33.1526 8.58065 33.1526 9.3411C33.1526 10.0895 33.3337 10.7654 33.6958 11.3689C34.0458 11.9725 34.5286 12.4492 35.1442 12.7993C35.7478 13.1373 36.4358 13.3063 37.2083 13.3063C37.9687 13.3063 38.6567 13.1373 39.2723 12.7993C39.8759 12.4492 40.3587 11.9725 40.7208 11.3689C41.0708 10.7654 41.2459 10.0895 41.2459 9.3411Z" fill="#FAFAFA"/>
</svg>
