<svg width="89" height="30" viewBox="0 0 89 30" fill="none" xmlns="http://www.w3.org/2000/svg">
<path d="M29.9688 12.1822L33.4982 14.2199L24.7931 29.2976L21.2637 27.2599L29.9688 12.1822ZM33.1821 10.7245C32.5421 10.355 32.1198 9.84765 31.9151 9.2024C31.7212 8.53832 31.7982 7.9051 32.1459 7.30275C32.4937 6.70039 32.9982 6.32655 33.6593 6.18121C34.3314 6.01705 34.9874 6.11973 35.6274 6.48923C36.2674 6.85874 36.6898 7.36612 36.8945 8.01137C37.1101 8.6378 37.0494 9.24278 36.7125 9.82631C36.3539 10.4475 35.8331 10.8496 35.1502 11.0326C34.497 11.2076 33.841 11.1049 33.1821 10.7245Z" fill="#3CB9D4"/>
<path d="M24.859 2.29133V29.3148H19.8403V17.7333H5.86532V29.3148H0.84668V2.29133H5.86532V13.4482H19.8403V2.29133H24.859Z" fill="#FAFAFA"/>
<path d="M62.4964 0.669922V29.3148H57.8638V26.6511C57.0659 27.629 56.0751 28.3625 54.8912 28.8515C53.733 29.3405 52.4462 29.585 51.0307 29.585C49.049 29.585 47.2603 29.1475 45.6646 28.2725C44.0947 27.3974 42.8593 26.1621 41.9585 24.5664C41.0578 22.945 40.6074 21.0919 40.6074 19.0073C40.6074 16.9226 41.0578 15.0824 41.9585 13.4868C42.8593 11.8911 44.0947 10.6557 45.6646 9.78069C47.2603 8.90564 49.049 8.46812 51.0307 8.46812C52.3947 8.46812 53.643 8.69975 54.7754 9.16301C55.9078 9.62627 56.8729 10.3212 57.6707 11.2477V0.669922H62.4964ZM51.6098 25.4543C52.7679 25.4543 53.8103 25.1969 54.7368 24.6822C55.6633 24.1417 56.3968 23.3825 56.9373 22.4045C57.4777 21.4265 57.748 20.2941 57.748 19.0073C57.748 17.7204 57.4777 16.588 56.9373 15.61C56.3968 14.632 55.6633 13.8857 54.7368 13.371C53.8103 12.8305 52.7679 12.5602 51.6098 12.5602C50.4516 12.5602 49.4093 12.8305 48.4828 13.371C47.5563 13.8857 46.8228 14.632 46.2823 15.61C45.7418 16.588 45.4716 17.7204 45.4716 19.0073C45.4716 20.2941 45.7418 21.4265 46.2823 22.4045C46.8228 23.3825 47.5563 24.1417 48.4828 24.6822C49.4093 25.1969 50.4516 25.4543 51.6098 25.4543Z" fill="#FAFAFA"/>
<path d="M88.1889 19.1231C88.1889 19.4577 88.1631 19.9338 88.1117 20.5515H71.9362C72.2193 22.0699 72.9528 23.2796 74.1367 24.1803C75.3463 25.0554 76.839 25.4929 78.6148 25.4929C80.8797 25.4929 82.7456 24.7465 84.2126 23.2538L86.7991 26.2264C85.8726 27.3331 84.7015 28.1695 83.286 28.7357C81.8705 29.3019 80.2748 29.585 78.499 29.585C76.2342 29.585 74.2396 29.1346 72.5153 28.2339C70.7909 27.3331 69.4526 26.0848 68.5003 24.4892C67.5738 22.8678 67.1106 21.0405 67.1106 19.0073C67.1106 16.9998 67.561 15.1983 68.4617 13.6026C69.3883 11.9812 70.6622 10.7201 72.2836 9.8193C73.905 8.91851 75.7323 8.46812 77.7655 8.46812C79.773 8.46812 81.5617 8.91851 83.1316 9.8193C84.7273 10.6943 85.9626 11.9426 86.8377 13.564C87.7385 15.1596 88.1889 17.0127 88.1889 19.1231ZM77.7655 12.3286C76.2213 12.3286 74.9088 12.7919 73.8278 13.7184C72.7726 14.6192 72.1292 15.8288 71.8976 17.3473H83.5949C83.389 15.8545 82.7584 14.6449 81.7032 13.7184C80.648 12.7919 79.3355 12.3286 77.7655 12.3286Z" fill="#FAFAFA"/>
</svg>
