<svg width="774" height="256" viewBox="0 0 774 256" fill="none" xmlns="http://www.w3.org/2000/svg">
<path d="M258.545 101.894L289.781 119.928L212.739 253.37L181.502 235.335L258.545 101.894ZM286.984 88.9931C281.32 85.7229 277.582 81.2325 275.77 75.5219C274.054 69.6446 274.735 64.0405 277.813 58.7095C280.891 53.3785 285.356 50.0699 291.207 48.7836C297.155 47.3308 302.961 48.2395 308.625 51.5097C314.289 54.7799 318.027 59.2703 319.839 64.981C321.747 70.525 321.21 75.8793 318.228 81.0437C315.054 86.5412 310.445 90.0997 304.402 91.7192C298.621 93.2682 292.815 92.3595 286.984 88.9931Z" fill="#3CB9D4"/>
<path d="M213.323 14.3596V253.524H168.906V151.025H45.2243V253.524H0.808105V14.3596H45.2243V113.1H168.906V14.3596H213.323Z" fill="#FAFAFA"/>
<path d="M546.423 0.00976562V253.524H505.424V229.949C498.362 238.605 489.593 245.096 479.115 249.424C468.866 253.752 457.477 255.916 444.949 255.916C427.41 255.916 411.58 252.043 397.458 244.299C383.564 236.555 372.63 225.621 364.658 211.499C356.686 197.15 352.7 180.75 352.7 162.3C352.7 143.85 356.686 127.564 364.658 113.442C372.63 99.3199 383.564 88.3867 397.458 80.6423C411.58 72.898 427.41 69.0258 444.949 69.0258C457.021 69.0258 468.068 71.0757 478.09 75.1757C488.113 79.2757 496.654 85.4256 503.715 93.6255V0.00976562H546.423ZM450.074 219.358C460.324 219.358 469.549 217.08 477.749 212.524C485.949 207.741 492.44 201.022 497.224 192.366C502.007 183.711 504.399 173.689 504.399 162.3C504.399 150.911 502.007 140.889 497.224 132.233C492.44 123.578 485.949 116.973 477.749 112.417C469.549 107.634 460.324 105.242 450.074 105.242C439.824 105.242 430.599 107.634 422.399 112.417C414.199 116.973 407.708 123.578 402.925 132.233C398.141 140.889 395.75 150.911 395.75 162.3C395.75 173.689 398.141 183.711 402.925 192.366C407.708 201.022 414.199 207.741 422.399 212.524C430.599 217.08 439.824 219.358 450.074 219.358Z" fill="#FAFAFA"/>
<path d="M773.808 163.325C773.808 166.286 773.58 170.5 773.125 175.966H629.968C632.473 189.405 638.965 200.111 649.443 208.083C660.148 215.827 673.359 219.699 689.076 219.699C709.12 219.699 725.634 213.094 738.617 199.883L761.508 226.191C753.308 235.985 742.944 243.388 730.417 248.399C717.889 253.41 703.767 255.916 688.051 255.916C668.006 255.916 650.354 251.93 635.093 243.957C619.832 235.985 607.987 224.938 599.56 210.816C591.36 196.466 587.26 180.294 587.26 162.3C587.26 144.533 591.246 128.589 599.218 114.467C607.418 100.117 618.693 88.9561 633.043 80.984C647.393 73.0118 663.565 69.0258 681.559 69.0258C699.325 69.0258 715.156 73.0118 729.05 80.984C743.172 88.7284 754.105 99.7755 761.85 114.125C769.822 128.247 773.808 144.647 773.808 163.325ZM681.559 103.192C667.892 103.192 656.276 107.292 646.709 115.492C637.37 123.464 631.676 134.17 629.626 147.608H733.15C731.328 134.397 725.747 123.692 716.409 115.492C707.07 107.292 695.453 103.192 681.559 103.192Z" fill="#FAFAFA"/>
</svg>
