<svg width="726" height="130" viewBox="0 0 726 130" fill="none" xmlns="http://www.w3.org/2000/svg">
<path d="M224.069 128.906C218.632 128.906 213.725 127.847 209.348 125.729C204.971 123.611 201.193 120.751 198.016 117.15C194.839 113.479 192.368 109.384 190.603 104.866C188.908 100.276 188.061 95.5812 188.061 90.7802C188.061 85.7674 188.979 81.0016 190.815 76.483C192.65 71.8938 195.192 67.8341 198.44 64.304C201.687 60.7032 205.5 57.8791 209.877 55.8316C214.325 53.7135 219.126 52.6545 224.28 52.6545C229.646 52.6545 234.518 53.7488 238.895 55.9375C243.343 58.1262 247.121 61.0562 250.227 64.7276C253.404 68.399 255.84 72.494 257.535 77.0126C259.3 81.5312 260.182 86.1557 260.182 90.8861C260.182 95.8989 259.264 100.7 257.429 105.289C255.664 109.808 253.157 113.867 249.909 117.468C246.662 120.998 242.814 123.787 238.366 125.835C233.988 127.882 229.223 128.906 224.069 128.906ZM200.134 90.7802C200.134 94.3104 200.699 97.7346 201.829 101.053C202.958 104.371 204.547 107.337 206.594 109.949C208.712 112.491 211.254 114.503 214.22 115.986C217.185 117.468 220.503 118.21 224.175 118.21C227.987 118.21 231.376 117.433 234.341 115.88C237.307 114.326 239.778 112.244 241.755 109.631C243.802 106.948 245.356 103.983 246.415 100.735C247.474 97.4169 248.003 94.0985 248.003 90.7802C248.003 87.25 247.438 83.8611 246.309 80.6133C245.25 77.295 243.661 74.3649 241.543 71.8232C239.425 69.2109 236.883 67.1634 233.918 65.6807C231.023 64.1981 227.775 63.4567 224.175 63.4567C220.362 63.4567 216.973 64.2334 214.008 65.7867C211.042 67.3399 208.536 69.4227 206.488 72.035C204.441 74.6474 202.852 77.5774 201.723 80.8251C200.664 84.0729 200.134 87.3912 200.134 90.7802Z" fill="#FAFAFA"/>
<path d="M303.81 128.906C297.809 128.906 292.725 127.882 288.56 125.835C284.465 123.787 281.146 120.998 278.605 117.468C276.134 113.938 274.298 109.914 273.098 105.395C271.968 100.876 271.403 96.1813 271.403 91.3097V53.184H283.264V91.3097C283.264 94.7693 283.618 98.1229 284.324 101.371C285.03 104.548 286.159 107.407 287.713 109.949C289.266 112.491 291.349 114.503 293.961 115.986C296.644 117.468 299.927 118.21 303.81 118.21C307.764 118.21 311.047 117.468 313.659 115.986C316.342 114.432 318.425 112.385 319.908 109.843C321.461 107.231 322.591 104.336 323.297 101.159C324.003 97.9817 324.356 94.6987 324.356 91.3097V53.184H336.323V91.3097C336.323 96.4637 335.687 101.335 334.417 105.925C333.216 110.443 331.31 114.432 328.698 117.892C326.156 121.281 322.838 123.964 318.743 125.941C314.648 127.917 309.67 128.906 303.81 128.906Z" fill="#FAFAFA"/>
<path d="M363.959 75.2122V128.376H352.098V53.184H361.841L404.415 107.513V53.2899H416.382V128.376H406.003L363.959 75.2122Z" fill="#FAFAFA"/>
<path d="M488.461 63.6686H463.467V128.376H451.5V63.6686H426.401V53.184H488.461V63.6686Z" fill="#FAFAFA"/>
<path d="M513.222 53.184H524.448L553.678 128.376H541.181L533.238 107.937H504.22L496.383 128.376H483.78L513.222 53.184ZM530.908 99.1467L518.835 66.2103L506.338 99.1467H530.908Z" fill="#FAFAFA"/>
<path d="M562.977 128.376V53.184H574.838V128.376H562.977Z" fill="#FAFAFA"/>
<path d="M603.693 75.2122V128.376H591.831V53.184H601.575L644.148 107.513V53.2899H656.116V128.376H645.737L603.693 75.2122Z" fill="#FAFAFA"/>
<path d="M717.498 70.8701C716.792 70.0934 715.768 69.2815 714.427 68.4343C713.086 67.5164 711.497 66.6692 709.661 65.8926C707.826 65.1159 705.849 64.4805 703.731 63.9863C701.613 63.4921 699.424 63.2449 697.165 63.2449C692.222 63.2449 688.551 64.1628 686.15 65.9985C683.75 67.8341 682.55 70.3759 682.55 73.6236C682.55 76.0241 683.22 77.9304 684.562 79.3425C685.903 80.6839 687.951 81.8136 690.704 82.7314C693.458 83.6493 696.917 84.6377 701.083 85.6968C706.166 86.897 710.579 88.3444 714.321 90.0389C718.063 91.6627 720.923 93.8514 722.899 96.605C724.876 99.3585 725.865 102.995 725.865 107.513C725.865 111.326 725.159 114.609 723.747 117.362C722.335 120.116 720.358 122.375 717.816 124.14C715.274 125.835 712.344 127.106 709.026 127.953C705.708 128.729 702.142 129.118 698.33 129.118C694.588 129.118 690.846 128.729 687.104 127.953C683.432 127.176 679.902 126.046 676.513 124.564C673.195 123.011 670.124 121.14 667.299 118.951L672.701 108.784C673.618 109.702 674.925 110.726 676.619 111.855C678.384 112.914 680.396 113.938 682.656 114.926C684.986 115.915 687.492 116.762 690.175 117.468C692.928 118.104 695.717 118.421 698.541 118.421C703.272 118.421 706.872 117.609 709.344 115.986C711.885 114.291 713.156 111.891 713.156 108.784C713.156 106.242 712.344 104.23 710.72 102.747C709.096 101.194 706.731 99.888 703.625 98.829C700.518 97.7699 696.812 96.7109 692.505 95.6518C687.563 94.3104 683.432 92.863 680.114 91.3097C676.796 89.6858 674.289 87.6383 672.595 85.1672C670.971 82.6255 670.159 79.4131 670.159 75.5299C670.159 70.5877 671.359 66.4221 673.76 63.0331C676.16 59.5736 679.408 56.9966 683.503 55.3021C687.668 53.537 692.328 52.6545 697.482 52.6545C700.871 52.6545 704.084 53.0428 707.12 53.8194C710.156 54.5254 712.98 55.5139 715.592 56.7847C718.275 58.0556 720.711 59.503 722.899 61.1268L717.498 70.8701Z" fill="#FAFAFA"/>
<path d="M121.569 126.224H109.752L91.8482 81.1057L73.765 126.224H61.7692L83.9704 71.9746L59.6208 14.5023L13.6071 127.119H0L53.8914 0H64.992L91.6692 62.8435L118.525 0H129.447L183.159 127.119H169.731L123.538 14.5023L99.3679 71.9746L121.569 126.224Z" fill="#FAFAFA"/>
</svg>
