<svg width="499" height="118" viewBox="0 0 499 118" fill="none" xmlns="http://www.w3.org/2000/svg">
<path d="M16.2506 115.707V46.5768H0.561523V36.2809H16.2506V33.5026C16.2506 22.9343 18.8654 14.9264 24.0951 9.47879C29.4337 4.03121 37.6051 0.980559 48.6092 0.326851L54.9829 0L56.1269 10.1325L48.6092 10.6228C41.8542 11.1675 36.9514 13.1832 33.9007 16.6696C30.959 20.1561 29.4882 25.2223 29.4882 31.8684V36.2809H52.368V46.5768H29.4882V115.707H16.2506Z" fill="#FAFAFA"/>
<path d="M92.4282 117.178C86.218 117.178 80.3346 116.306 74.778 114.563C69.2215 112.819 64.6455 110.368 61.0501 107.208L65.2992 97.8931C69.2215 101.053 73.5251 103.395 78.21 104.92C83.0039 106.337 87.8522 107.045 92.7551 107.045C98.9653 107.045 103.65 105.901 106.81 103.613C109.969 101.325 111.549 98.2199 111.549 94.2977C111.549 91.247 110.514 88.8501 108.444 87.1069C106.374 85.2547 103.105 83.8383 98.6385 82.8578L83.7666 79.5892C70.2565 76.6475 63.5015 69.6746 63.5015 58.6705C63.5015 51.4797 66.3343 45.7052 71.9998 41.3472C77.7742 36.9891 85.2919 34.8101 94.5528 34.8101C100 34.8101 105.176 35.6817 110.078 37.4249C115.09 39.0592 119.23 41.5106 122.499 44.7791L118.086 54.0945C114.927 51.1528 111.222 48.9193 106.973 47.394C102.833 45.7597 98.6929 44.9426 94.5528 44.9426C88.4515 44.9426 83.821 46.141 80.6614 48.538C77.5018 50.9349 75.922 54.0945 75.922 58.0168C75.922 64.1181 79.9532 68.0403 88.0157 69.7836L102.888 72.8887C109.86 74.414 115.145 76.8654 118.74 80.2429C122.335 83.5115 124.133 87.9785 124.133 93.644C124.133 100.944 121.246 106.718 115.471 110.967C109.697 115.107 102.016 117.178 92.4282 117.178Z" fill="#FAFAFA"/>
<path d="M172.417 117.178C153.351 117.178 143.817 106.664 143.817 85.636V36.2809H157.055V85.4726C157.055 92.5545 158.471 97.7841 161.304 101.162C164.246 104.539 168.822 106.228 175.032 106.228C181.787 106.228 187.289 103.994 191.538 99.5274C195.787 94.9514 197.912 88.9046 197.912 81.3869V36.2809H211.149V115.707H198.239V102.306C195.733 107.1 192.192 110.804 187.616 113.419C183.149 115.925 178.083 117.178 172.417 117.178Z" fill="#FAFAFA"/>
<path d="M235.916 115.707V0.490276H249.154V49.3551C251.769 44.5612 255.419 40.9658 260.104 38.5689C264.897 36.063 270.236 34.8101 276.119 34.8101C294.968 34.8101 304.392 45.2694 304.392 66.1881V115.707H291.155V67.0053C291.155 59.5966 289.684 54.2035 286.742 50.826C283.91 47.3395 279.334 45.5963 273.014 45.5963C265.715 45.5963 259.886 47.8843 255.528 52.4602C251.278 56.9273 249.154 62.9196 249.154 70.4373V115.707H235.916Z" fill="#FAFAFA"/>
<path d="M333.051 115.707V46.5768H317.362V36.2809H333.051V33.5026C333.051 22.9343 335.666 14.9264 340.895 9.47879C346.234 4.03121 354.405 0.980559 365.41 0.326851L371.783 0L372.927 10.1325L365.41 10.6228C358.655 11.1675 353.752 13.1832 350.701 16.6696C347.759 20.1561 346.289 25.2223 346.289 31.8684V36.2809H369.168V46.5768H346.289V115.707H333.051ZM407.574 117.178C399.511 117.178 393.41 114.835 389.27 110.15C385.239 105.356 383.223 98.4378 383.223 89.3949V0.490276H396.461V88.4143C396.461 100.072 401.091 105.901 410.352 105.901C413.076 105.901 415.527 105.574 417.706 104.92L417.38 116.034C414.002 116.796 410.733 117.178 407.574 117.178Z" fill="#FAFAFA"/>
<path d="M466.575 117.178C454.046 117.178 444.131 113.528 436.831 106.228C429.532 98.8192 425.882 88.7956 425.882 76.1572C425.882 67.9859 427.516 60.795 430.784 54.5848C434.053 48.2656 438.52 43.4172 444.186 40.0397C449.96 36.5533 456.606 34.8101 464.124 34.8101C474.91 34.8101 483.354 38.2965 489.455 45.2694C495.556 52.1334 498.607 61.6122 498.607 73.7058V78.7721H438.792C439.228 87.8151 441.843 94.7335 446.637 99.5274C451.431 104.212 458.077 106.555 466.575 106.555C471.369 106.555 475.945 105.847 480.303 104.43C484.661 102.905 488.801 100.453 492.723 97.0759L497.3 106.391C493.704 109.769 489.128 112.438 483.572 114.399C478.015 116.251 472.35 117.178 466.575 117.178ZM464.451 44.6157C456.933 44.6157 450.995 46.9582 446.637 51.6431C442.279 56.328 439.719 62.4838 438.956 70.1104H487.167C486.84 62.048 484.716 55.7833 480.793 51.3162C476.98 46.8492 471.532 44.6157 464.451 44.6157Z" fill="#FAFAFA"/>
</svg>
