<svg width="623" height="139" viewBox="0 0 623 139" fill="none" xmlns="http://www.w3.org/2000/svg">
<path d="M179.906 18.3039C192.762 18.3039 202.568 21.409 209.323 27.6192C216.187 33.7205 219.619 42.9814 219.619 55.4019V106.555H200.334V95.9319C197.828 99.7453 194.233 102.687 189.548 104.757C184.972 106.718 179.416 107.699 172.879 107.699C166.341 107.699 160.621 106.609 155.719 104.43C150.816 102.142 147.002 99.0371 144.279 95.1148C141.664 91.0836 140.356 86.5621 140.356 81.5503C140.356 73.7058 143.244 67.4411 149.018 62.7562C154.901 57.9623 164.108 55.5654 176.637 55.5654H199.19V54.2579C199.19 48.1566 197.338 43.4717 193.634 40.2032C190.038 36.9346 184.645 35.3003 177.454 35.3003C172.552 35.3003 167.703 36.063 162.909 37.5883C158.225 39.1136 154.248 41.2382 150.979 43.962L142.971 29.0901C147.547 25.6036 153.049 22.9343 159.477 21.0821C165.906 19.23 172.715 18.3039 179.906 18.3039ZM177.128 92.8268C182.248 92.8268 186.77 91.6828 190.692 89.3948C194.723 86.9979 197.556 83.6204 199.19 79.2623V69.1298H178.108C166.341 69.1298 160.458 72.9976 160.458 80.7332C160.458 84.4375 161.929 87.3792 164.871 89.5583C167.812 91.7373 171.898 92.8268 177.128 92.8268Z" fill="#FAFAFA"/>
<path d="M294.211 18.3039C302.709 18.3039 310.281 20.1561 316.927 23.8604C323.682 27.5648 328.966 32.7944 332.78 39.5495C336.593 46.3045 338.5 54.0945 338.5 62.9196C338.5 71.7447 336.593 79.5892 332.78 86.4531C328.966 93.2082 323.682 98.4378 316.927 102.142C310.281 105.847 302.709 107.699 294.211 107.699C282.444 107.699 273.129 103.776 266.265 95.9319V138.26H245.836V19.2844H265.284V30.7244C268.662 26.5842 272.802 23.4791 277.705 21.409C282.716 19.3389 288.218 18.3039 294.211 18.3039ZM291.923 90.212C299.44 90.212 305.596 87.7061 310.39 82.6943C315.293 77.6825 317.744 71.091 317.744 62.9196C317.744 54.7482 315.293 48.1566 310.39 43.1449C305.596 38.1331 299.44 35.6272 291.923 35.6272C287.02 35.6272 282.607 36.7712 278.685 39.0592C274.763 41.2382 271.658 44.3978 269.37 48.538C267.082 52.6781 265.938 57.472 265.938 62.9196C265.938 68.3672 267.082 73.161 269.37 77.3012C271.658 81.4414 274.763 84.6554 278.685 86.9434C282.607 89.1225 287.02 90.212 291.923 90.212Z" fill="#FAFAFA"/>
<path d="M410.334 101.815C407.937 103.776 404.995 105.247 401.509 106.228C398.131 107.208 394.536 107.699 390.722 107.699C381.135 107.699 373.726 105.193 368.496 100.181C363.266 95.1693 360.652 87.8695 360.652 78.2818V36.2809H346.27V19.9382H360.652V0H381.08V19.9382H404.45V36.2809H381.08V77.7915C381.08 82.0406 382.115 85.3092 384.185 87.5971C386.255 89.7762 389.251 90.8657 393.174 90.8657C397.75 90.8657 401.563 89.6672 404.614 87.2703L410.334 101.815Z" fill="#FAFAFA"/>
<path d="M463.488 107.699C454.663 107.699 446.71 105.792 439.628 101.979C432.546 98.1655 426.99 92.8813 422.958 86.1263C419.036 79.2623 417.075 71.5268 417.075 62.9196C417.075 54.3124 419.036 46.6313 422.958 39.8763C426.99 33.1213 432.546 27.8371 439.628 24.0238C446.71 20.2105 454.663 18.3039 463.488 18.3039C472.422 18.3039 480.43 20.2105 487.512 24.0238C494.594 27.8371 500.096 33.1213 504.018 39.8763C508.05 46.6313 510.065 54.3124 510.065 62.9196C510.065 71.5268 508.05 79.2623 504.018 86.1263C500.096 92.8813 494.594 98.1655 487.512 101.979C480.43 105.792 472.422 107.699 463.488 107.699ZM463.488 90.212C471.006 90.212 477.216 87.7061 482.119 82.6943C487.022 77.6825 489.473 71.091 489.473 62.9196C489.473 54.7482 487.022 48.1566 482.119 43.1449C477.216 38.1331 471.006 35.6272 463.488 35.6272C455.971 35.6272 449.76 38.1331 444.858 43.1449C440.064 48.1566 437.667 54.7482 437.667 62.9196C437.667 71.091 440.064 77.6825 444.858 82.6943C449.76 87.7061 455.971 90.212 463.488 90.212Z" fill="#FAFAFA"/>
<path d="M577.974 18.3039C586.473 18.3039 594.045 20.1561 600.691 23.8604C607.446 27.5648 612.73 32.7944 616.543 39.5495C620.357 46.3045 622.263 54.0945 622.263 62.9196C622.263 71.7447 620.357 79.5892 616.543 86.4531C612.73 93.2082 607.446 98.4378 600.691 102.142C594.045 105.847 586.473 107.699 577.974 107.699C566.208 107.699 556.892 103.776 550.028 95.9319V138.26H529.6V19.2844H549.048V30.7244C552.425 26.5842 556.565 23.4791 561.468 21.409C566.48 19.3389 571.982 18.3039 577.974 18.3039ZM575.686 90.212C583.204 90.212 589.36 87.7061 594.154 82.6943C599.057 77.6825 601.508 71.091 601.508 62.9196C601.508 54.7482 599.057 48.1566 594.154 43.1449C589.36 38.1331 583.204 35.6272 575.686 35.6272C570.784 35.6272 566.371 36.7712 562.449 39.0592C558.527 41.2382 555.421 44.3978 553.133 48.538C550.846 52.6781 549.702 57.472 549.702 62.9196C549.702 68.3672 550.846 73.161 553.133 77.3012C555.421 81.4414 558.527 84.6554 562.449 86.9434C566.371 89.1225 570.784 90.212 575.686 90.212Z" fill="#FAFAFA"/>
<path d="M0.606934 26.4397L14.2337 11.2021L71.3746 88.5774H131.189V106.554H58.5096L0.606934 26.4397Z" fill="#FAFAFA"/>
</svg>
