<svg width="506" height="203" viewBox="0 0 506 203" fill="none" xmlns="http://www.w3.org/2000/svg">
<path d="M237.655 92.2027H241.845V200.513H237.655V92.2027ZM239.75 62.2445C238.213 62.2445 236.887 61.6858 235.769 60.5685C234.792 59.4512 234.303 58.1942 234.303 56.7975C234.303 55.2612 234.792 54.0042 235.769 53.0266C236.887 51.9092 238.213 51.3506 239.75 51.3506C241.146 51.3506 242.403 51.9092 243.521 53.0266C244.638 54.0042 245.197 55.2612 245.197 56.7975C245.197 58.1942 244.638 59.4512 243.521 60.5685C242.403 61.6858 241.146 62.2445 239.75 62.2445Z" fill="#FAFAFA"/>
<path d="M50.9827 202.399C41.4855 202.399 32.1279 201.351 22.9099 199.256C13.692 197.022 6.28975 194.158 0.703125 190.667L12.6445 163.432C17.8122 166.644 23.9574 169.228 31.0804 171.183C38.2033 172.999 45.2564 173.907 52.2397 173.907C58.6643 173.907 63.2034 173.278 65.8571 172.021C68.6504 170.625 70.0471 168.669 70.0471 166.155C70.0471 163.641 68.3711 161.896 65.0191 160.918C61.8068 159.801 56.6392 158.753 49.5162 157.776C40.438 156.658 32.6865 155.192 26.2619 153.376C19.977 151.56 14.53 148.208 9.92105 143.32C5.31209 138.432 3.00761 131.588 3.00761 122.789C3.00761 115.527 5.17242 109.102 9.50205 103.515C13.8317 97.7892 20.1166 93.3199 28.3569 90.1076C36.7368 86.7556 46.7229 85.0796 58.3151 85.0796C66.5554 85.0796 74.7258 85.9176 82.8264 87.5936C90.927 89.2696 97.7008 91.6439 103.148 94.7165L91.2064 121.742C81.1505 116.155 70.2566 113.362 58.5246 113.362C52.2397 113.362 47.6307 114.13 44.6978 115.666C41.7648 117.063 40.2983 118.948 40.2983 121.323C40.2983 123.976 41.9045 125.862 45.1168 126.979C48.3291 127.957 53.6364 129.004 61.0386 130.122C70.3962 131.518 78.1477 133.125 84.2929 134.94C90.4382 136.756 95.7455 140.108 100.215 144.996C104.824 149.745 107.128 156.449 107.128 165.108C107.128 172.231 104.963 178.656 100.634 184.382C96.3042 189.968 89.8796 194.368 81.36 197.58C72.98 200.793 62.8543 202.399 50.9827 202.399Z" fill="#FAFAFA"/>
<path d="M124.281 45.0654H164.086V200.513H124.281V45.0654Z" fill="#FAFAFA"/>
<path d="M459.794 85.0796C473.761 85.0796 484.864 89.2696 493.104 97.6495C501.484 106.029 505.674 118.669 505.674 135.569V200.513H465.869V142.063C465.869 134.102 464.333 128.236 461.261 124.465C458.328 120.694 454.138 118.809 448.691 118.809C442.685 118.809 437.867 120.904 434.235 125.094C430.604 129.284 428.788 135.639 428.788 144.158V200.513H388.984V142.063C388.984 126.56 383.257 118.809 371.805 118.809C365.659 118.809 360.771 120.904 357.14 125.094C353.509 129.284 351.693 135.639 351.693 144.158V200.513H311.888V86.9651H349.807V98.9065C353.997 94.2975 358.956 90.8757 364.682 88.6411C370.548 86.2668 376.903 85.0796 383.746 85.0796C391.707 85.0796 398.83 86.5461 405.115 89.4791C411.4 92.412 416.498 96.8813 420.408 102.887C424.878 97.1607 430.534 92.7612 437.378 89.6886C444.221 86.6159 451.693 85.0796 459.794 85.0796Z" fill="#FAFAFA"/>
<circle cx="239.861" cy="52.5274" r="40.1167" fill="#FAFAFA" stroke="#010A1D" stroke-width="23.1785"/>
</svg>
