<svg width="980" height="311" viewBox="0 0 980 311" fill="none" xmlns="http://www.w3.org/2000/svg">
<mask id="path-1-outside-1_819_166" maskUnits="userSpaceOnUse" x="-0.326172" y="0" width="981" height="156" fill="black">
<rect fill="white" x="-0.326172" width="981" height="156"/>
<path d="M101.309 142.121H82.5446C80.8309 142.121 79.5028 142.635 78.5603 143.663C77.6178 144.606 77.1465 145.763 77.1465 147.134C77.1465 148.59 77.6606 149.875 78.6888 150.989C79.7171 152.103 81.1737 152.66 83.0587 152.66H127.4C129.114 152.66 130.442 152.146 131.384 151.118C132.327 150.004 132.798 148.719 132.798 147.262C132.798 145.891 132.327 144.692 131.384 143.663C130.527 142.635 129.285 142.121 127.657 142.121H113.648V84.156C113.648 72.6744 110.649 63.8062 104.651 57.5512C98.6531 51.2963 89.6135 48.1689 77.5321 48.1689C71.7913 48.1689 66.179 49.1542 60.6953 51.125C55.2972 53.0957 50.5417 55.7947 46.4289 59.2221C42.3161 62.5637 39.1887 66.3338 37.0466 70.5323V6.0125C37.0466 2.67083 35.29 1 31.777 1C31.4343 1 30.5774 1.08568 29.2065 1.25705L4.91517 3.69904C3.54423 3.78472 2.47319 4.38451 1.70203 5.49839C1.01656 6.61228 0.673828 7.76901 0.673828 8.96858C0.673828 10.3395 1.14509 11.4963 2.08761 12.4388C3.03013 13.2956 4.2297 13.6812 5.68633 13.5955L24.7081 12.4388V142.121H10.8273C9.11367 142.121 7.78558 142.635 6.84306 143.663C5.90053 144.606 5.42927 145.763 5.42927 147.134C5.42927 148.59 5.94338 149.875 6.97158 150.989C7.99979 152.103 9.45641 152.66 11.3414 152.66H50.2847C52.2554 152.66 53.7977 152.146 54.9116 151.118C56.1112 150.004 56.711 148.719 56.711 147.262C56.711 145.891 56.154 144.692 55.0401 143.663C54.0119 142.635 52.5125 142.121 50.5417 142.121H37.0466V88.783C37.0466 84.2417 38.8031 79.6148 42.3161 74.9022C45.8291 70.1896 50.7131 66.3338 56.968 63.3349C63.3086 60.2503 70.3775 58.708 78.1747 58.708C85.8006 58.708 91.5414 60.8501 95.3972 65.1343C99.3386 69.4184 101.309 75.4591 101.309 83.2564V142.121Z"/>
<path d="M263.303 92.2531L253.921 92.8958C239.954 93.8383 228.815 95.0379 220.504 96.4945C212.278 97.9511 205.338 100.95 199.683 105.491C194.028 110.033 191.2 116.759 191.2 125.67C191.2 134.495 193.899 141.564 199.297 146.877C204.695 152.103 212.193 154.717 221.789 154.717C230.7 154.717 238.926 153.131 246.466 149.961C254.092 146.791 260.004 142.849 264.203 138.137C265.231 144.22 267.244 148.333 270.243 150.475C273.242 152.532 276.927 153.56 281.297 153.56C285.152 153.56 288.837 152.746 292.35 151.118C295.948 149.404 299.119 147.091 301.861 144.177C302.717 143.321 303.146 142.25 303.146 140.964C303.146 139.593 302.675 138.351 301.732 137.237C300.79 136.123 299.676 135.566 298.39 135.566C297.277 135.566 296.248 136.08 295.306 137.109C293.849 138.651 291.878 140.107 289.394 141.478C286.909 142.764 284.553 143.406 282.325 143.406C280.268 143.406 278.64 142.892 277.441 141.864C276.241 140.75 275.641 138.694 275.641 135.695V95.5948C275.641 85.1414 274.528 76.4873 272.3 69.6326C270.072 62.6923 266.131 57.3799 260.475 53.6955C254.906 50.0111 247.194 48.1689 237.341 48.1689C228.601 48.1689 220.847 49.3256 214.078 51.6391C207.309 53.9525 202.039 57.1657 198.269 61.2785C194.499 65.3913 192.614 70.0182 192.614 75.1592C192.614 77.9011 193.257 80.1289 194.542 81.8426C195.913 83.5562 197.841 84.4131 200.325 84.4131C203.239 84.4131 205.295 82.7423 206.495 79.4006C207.694 76.0589 208.465 71.0893 208.808 64.4916C213.349 62.4352 217.848 60.9786 222.303 60.1218C226.845 59.1792 231.814 58.708 237.212 58.708C246.809 58.708 253.535 61.3642 257.391 66.6766C261.332 71.9889 263.303 79.6576 263.303 89.6826V92.2531ZM263.303 128.369C258.676 133.253 252.721 137.151 245.438 140.065C238.24 142.892 230.829 144.306 223.203 144.306C217.291 144.306 212.535 142.849 208.937 139.936C205.424 136.937 203.667 132.182 203.667 125.67C203.667 119.672 205.724 115.131 209.836 112.046C213.949 108.961 219.476 106.819 226.416 105.62C233.442 104.335 243.981 103.006 258.033 101.636L263.303 101.121V128.369Z"/>
<path d="M446.118 142.121H427.353C425.639 142.121 424.311 142.635 423.369 143.663C422.426 144.606 421.955 145.763 421.955 147.134C421.955 148.59 422.469 149.875 423.497 150.989C424.525 152.103 425.982 152.66 427.867 152.66H472.208C473.922 152.66 475.25 152.146 476.193 151.118C477.135 150.004 477.606 148.719 477.606 147.262C477.606 145.891 477.135 144.692 476.193 143.663C475.336 142.635 474.093 142.121 472.465 142.121H458.456V84.156C458.456 72.6744 455.457 63.8062 449.459 57.5512C443.462 51.2963 434.422 48.1689 422.341 48.1689C416.514 48.1689 410.859 49.1542 405.375 51.125C399.891 53.0957 395.05 55.7947 390.852 59.2221C386.653 62.5637 383.483 66.3338 381.341 70.5323L380.698 55.1093C380.527 51.7676 378.856 50.0968 375.686 50.0968C375.343 50.0968 374.572 50.1824 373.372 50.3538L352.294 54.5952C350.837 54.9379 349.766 55.6234 349.081 56.6516C348.395 57.5941 348.053 58.6651 348.053 59.8647C348.053 61.2356 348.524 62.3924 349.467 63.3349C350.409 64.2774 351.609 64.7487 353.065 64.7487C353.922 64.7487 354.779 64.6202 355.636 64.3631L369.517 61.5355V142.121H355.636C353.922 142.121 352.594 142.635 351.651 143.663C350.709 144.606 350.238 145.763 350.238 147.134C350.238 148.59 350.752 149.875 351.78 150.989C352.808 152.103 354.265 152.66 356.15 152.66H395.093C397.064 152.66 398.606 152.146 399.72 151.118C400.92 150.004 401.519 148.719 401.519 147.262C401.519 145.891 400.962 144.692 399.849 143.663C398.82 142.635 397.321 142.121 395.35 142.121H381.855V88.0118C381.855 83.5563 383.611 79.0579 387.124 74.5166C390.638 69.9754 395.522 66.2053 401.776 63.2064C408.117 60.2074 415.186 58.708 422.983 58.708C430.609 58.708 436.35 60.8501 440.206 65.1343C444.147 69.4184 446.118 75.4591 446.118 83.2564V142.121Z"/>
<path d="M703.529 100.35C703.529 111.575 705.971 121.3 710.855 129.526C715.739 137.666 722.551 143.92 731.29 148.29C740.116 152.66 750.269 154.845 761.751 154.845C769.034 154.845 776.831 153.431 785.143 150.604C793.54 147.776 799.966 143.963 804.421 139.165C805.964 137.451 806.735 135.652 806.735 133.767C806.735 132.225 806.264 130.896 805.321 129.783C804.378 128.669 803.136 128.112 801.594 128.112C799.88 128.112 798.124 128.84 796.324 130.297C791.44 134.924 785.871 138.437 779.616 140.836C773.447 143.149 767.149 144.306 760.723 144.306C747.527 144.306 736.86 140.793 728.72 133.767C720.58 126.741 716.296 116.459 715.867 102.921L796.71 102.278C799.709 102.278 802.108 101.25 803.907 99.1935C805.707 97.0514 806.606 94.3524 806.606 91.0964C806.606 81.9283 804.593 74.131 800.566 67.7048C796.624 61.2785 791.14 56.4374 784.114 53.1814C777.174 49.8397 769.248 48.1689 760.337 48.1689C749.884 48.1689 740.33 50.2681 731.676 54.4666C723.107 58.6651 716.253 64.7058 711.112 72.5887C706.056 80.4716 703.529 89.7255 703.529 100.35ZM760.594 58.708C773.961 58.708 783 62.0925 787.713 68.8615C792.426 75.6305 795.082 83.6419 795.682 92.8958L716.253 93.4099C717.795 82.4424 722.422 73.9168 730.134 67.8333C737.931 61.7497 748.084 58.708 760.594 58.708Z"/>
<path d="M967.058 74.131C967.058 76.2731 967.657 77.944 968.857 79.1435C970.057 80.2574 971.47 80.8144 973.098 80.8144C974.812 80.8144 976.269 80.2146 977.468 79.015C978.753 77.7298 979.396 75.9304 979.396 73.6169V55.8804C979.396 53.3099 978.539 51.382 976.826 50.0968C975.112 48.8115 972.199 48.1689 968.086 48.1689C944.266 48.1689 927.472 55.6662 917.704 70.6609L917.19 57.2942C917.104 54.8951 916.718 53.0957 916.033 51.8961C915.433 50.6966 914.191 50.0968 912.306 50.0968C911.449 50.0968 910.464 50.2253 909.35 50.4823L887.372 54.8522C886.172 55.1093 885.23 55.709 884.544 56.6516C883.859 57.5084 883.516 58.5366 883.516 59.7362C883.516 61.1071 883.944 62.3067 884.801 63.3349C885.744 64.3631 887.029 64.8772 888.657 64.8772C889.342 64.8772 889.857 64.8344 890.199 64.7487L905.879 61.5355V142.121H882.359C880.646 142.121 879.317 142.635 878.375 143.663C877.432 144.692 876.961 145.891 876.961 147.262C876.961 148.719 877.475 150.004 878.503 151.118C879.532 152.146 880.988 152.66 882.873 152.66H961.274C962.902 152.66 964.187 152.146 965.13 151.118C966.072 150.004 966.543 148.762 966.543 147.391C966.543 145.934 966.072 144.692 965.13 143.663C964.273 142.635 963.03 142.121 961.402 142.121H918.218V85.0557C921.645 76.4873 927.772 69.9754 936.597 65.5198C945.422 60.9786 955.576 58.708 967.058 58.708V74.131Z"/>
</mask>
<path d="M101.309 142.121H82.5446C80.8309 142.121 79.5028 142.635 78.5603 143.663C77.6178 144.606 77.1465 145.763 77.1465 147.134C77.1465 148.59 77.6606 149.875 78.6888 150.989C79.7171 152.103 81.1737 152.66 83.0587 152.66H127.4C129.114 152.66 130.442 152.146 131.384 151.118C132.327 150.004 132.798 148.719 132.798 147.262C132.798 145.891 132.327 144.692 131.384 143.663C130.527 142.635 129.285 142.121 127.657 142.121H113.648V84.156C113.648 72.6744 110.649 63.8062 104.651 57.5512C98.6531 51.2963 89.6135 48.1689 77.5321 48.1689C71.7913 48.1689 66.179 49.1542 60.6953 51.125C55.2972 53.0957 50.5417 55.7947 46.4289 59.2221C42.3161 62.5637 39.1887 66.3338 37.0466 70.5323V6.0125C37.0466 2.67083 35.29 1 31.777 1C31.4343 1 30.5774 1.08568 29.2065 1.25705L4.91517 3.69904C3.54423 3.78472 2.47319 4.38451 1.70203 5.49839C1.01656 6.61228 0.673828 7.76901 0.673828 8.96858C0.673828 10.3395 1.14509 11.4963 2.08761 12.4388C3.03013 13.2956 4.2297 13.6812 5.68633 13.5955L24.7081 12.4388V142.121H10.8273C9.11367 142.121 7.78558 142.635 6.84306 143.663C5.90053 144.606 5.42927 145.763 5.42927 147.134C5.42927 148.59 5.94338 149.875 6.97158 150.989C7.99979 152.103 9.45641 152.66 11.3414 152.66H50.2847C52.2554 152.66 53.7977 152.146 54.9116 151.118C56.1112 150.004 56.711 148.719 56.711 147.262C56.711 145.891 56.154 144.692 55.0401 143.663C54.0119 142.635 52.5125 142.121 50.5417 142.121H37.0466V88.783C37.0466 84.2417 38.8031 79.6148 42.3161 74.9022C45.8291 70.1896 50.7131 66.3338 56.968 63.3349C63.3086 60.2503 70.3775 58.708 78.1747 58.708C85.8006 58.708 91.5414 60.8501 95.3972 65.1343C99.3386 69.4184 101.309 75.4591 101.309 83.2564V142.121Z" fill="#FAFAFA"/>
<path d="M263.303 92.2531L253.921 92.8958C239.954 93.8383 228.815 95.0379 220.504 96.4945C212.278 97.9511 205.338 100.95 199.683 105.491C194.028 110.033 191.2 116.759 191.2 125.67C191.2 134.495 193.899 141.564 199.297 146.877C204.695 152.103 212.193 154.717 221.789 154.717C230.7 154.717 238.926 153.131 246.466 149.961C254.092 146.791 260.004 142.849 264.203 138.137C265.231 144.22 267.244 148.333 270.243 150.475C273.242 152.532 276.927 153.56 281.297 153.56C285.152 153.56 288.837 152.746 292.35 151.118C295.948 149.404 299.119 147.091 301.861 144.177C302.717 143.321 303.146 142.25 303.146 140.964C303.146 139.593 302.675 138.351 301.732 137.237C300.79 136.123 299.676 135.566 298.39 135.566C297.277 135.566 296.248 136.08 295.306 137.109C293.849 138.651 291.878 140.107 289.394 141.478C286.909 142.764 284.553 143.406 282.325 143.406C280.268 143.406 278.64 142.892 277.441 141.864C276.241 140.75 275.641 138.694 275.641 135.695V95.5948C275.641 85.1414 274.528 76.4873 272.3 69.6326C270.072 62.6923 266.131 57.3799 260.475 53.6955C254.906 50.0111 247.194 48.1689 237.341 48.1689C228.601 48.1689 220.847 49.3256 214.078 51.6391C207.309 53.9525 202.039 57.1657 198.269 61.2785C194.499 65.3913 192.614 70.0182 192.614 75.1592C192.614 77.9011 193.257 80.1289 194.542 81.8426C195.913 83.5562 197.841 84.4131 200.325 84.4131C203.239 84.4131 205.295 82.7423 206.495 79.4006C207.694 76.0589 208.465 71.0893 208.808 64.4916C213.349 62.4352 217.848 60.9786 222.303 60.1218C226.845 59.1792 231.814 58.708 237.212 58.708C246.809 58.708 253.535 61.3642 257.391 66.6766C261.332 71.9889 263.303 79.6576 263.303 89.6826V92.2531ZM263.303 128.369C258.676 133.253 252.721 137.151 245.438 140.065C238.24 142.892 230.829 144.306 223.203 144.306C217.291 144.306 212.535 142.849 208.937 139.936C205.424 136.937 203.667 132.182 203.667 125.67C203.667 119.672 205.724 115.131 209.836 112.046C213.949 108.961 219.476 106.819 226.416 105.62C233.442 104.335 243.981 103.006 258.033 101.636L263.303 101.121V128.369Z" fill="#FAFAFA"/>
<path d="M446.118 142.121H427.353C425.639 142.121 424.311 142.635 423.369 143.663C422.426 144.606 421.955 145.763 421.955 147.134C421.955 148.59 422.469 149.875 423.497 150.989C424.525 152.103 425.982 152.66 427.867 152.66H472.208C473.922 152.66 475.25 152.146 476.193 151.118C477.135 150.004 477.606 148.719 477.606 147.262C477.606 145.891 477.135 144.692 476.193 143.663C475.336 142.635 474.093 142.121 472.465 142.121H458.456V84.156C458.456 72.6744 455.457 63.8062 449.459 57.5512C443.462 51.2963 434.422 48.1689 422.341 48.1689C416.514 48.1689 410.859 49.1542 405.375 51.125C399.891 53.0957 395.05 55.7947 390.852 59.2221C386.653 62.5637 383.483 66.3338 381.341 70.5323L380.698 55.1093C380.527 51.7676 378.856 50.0968 375.686 50.0968C375.343 50.0968 374.572 50.1824 373.372 50.3538L352.294 54.5952C350.837 54.9379 349.766 55.6234 349.081 56.6516C348.395 57.5941 348.053 58.6651 348.053 59.8647C348.053 61.2356 348.524 62.3924 349.467 63.3349C350.409 64.2774 351.609 64.7487 353.065 64.7487C353.922 64.7487 354.779 64.6202 355.636 64.3631L369.517 61.5355V142.121H355.636C353.922 142.121 352.594 142.635 351.651 143.663C350.709 144.606 350.238 145.763 350.238 147.134C350.238 148.59 350.752 149.875 351.78 150.989C352.808 152.103 354.265 152.66 356.15 152.66H395.093C397.064 152.66 398.606 152.146 399.72 151.118C400.92 150.004 401.519 148.719 401.519 147.262C401.519 145.891 400.962 144.692 399.849 143.663C398.82 142.635 397.321 142.121 395.35 142.121H381.855V88.0118C381.855 83.5563 383.611 79.0579 387.124 74.5166C390.638 69.9754 395.522 66.2053 401.776 63.2064C408.117 60.2074 415.186 58.708 422.983 58.708C430.609 58.708 436.35 60.8501 440.206 65.1343C444.147 69.4184 446.118 75.4591 446.118 83.2564V142.121Z" fill="#FAFAFA"/>
<path d="M703.529 100.35C703.529 111.575 705.971 121.3 710.855 129.526C715.739 137.666 722.551 143.92 731.29 148.29C740.116 152.66 750.269 154.845 761.751 154.845C769.034 154.845 776.831 153.431 785.143 150.604C793.54 147.776 799.966 143.963 804.421 139.165C805.964 137.451 806.735 135.652 806.735 133.767C806.735 132.225 806.264 130.896 805.321 129.783C804.378 128.669 803.136 128.112 801.594 128.112C799.88 128.112 798.124 128.84 796.324 130.297C791.44 134.924 785.871 138.437 779.616 140.836C773.447 143.149 767.149 144.306 760.723 144.306C747.527 144.306 736.86 140.793 728.72 133.767C720.58 126.741 716.296 116.459 715.867 102.921L796.71 102.278C799.709 102.278 802.108 101.25 803.907 99.1935C805.707 97.0514 806.606 94.3524 806.606 91.0964C806.606 81.9283 804.593 74.131 800.566 67.7048C796.624 61.2785 791.14 56.4374 784.114 53.1814C777.174 49.8397 769.248 48.1689 760.337 48.1689C749.884 48.1689 740.33 50.2681 731.676 54.4666C723.107 58.6651 716.253 64.7058 711.112 72.5887C706.056 80.4716 703.529 89.7255 703.529 100.35ZM760.594 58.708C773.961 58.708 783 62.0925 787.713 68.8615C792.426 75.6305 795.082 83.6419 795.682 92.8958L716.253 93.4099C717.795 82.4424 722.422 73.9168 730.134 67.8333C737.931 61.7497 748.084 58.708 760.594 58.708Z" fill="#FAFAFA"/>
<path d="M967.058 74.131C967.058 76.2731 967.657 77.944 968.857 79.1435C970.057 80.2574 971.47 80.8144 973.098 80.8144C974.812 80.8144 976.269 80.2146 977.468 79.015C978.753 77.7298 979.396 75.9304 979.396 73.6169V55.8804C979.396 53.3099 978.539 51.382 976.826 50.0968C975.112 48.8115 972.199 48.1689 968.086 48.1689C944.266 48.1689 927.472 55.6662 917.704 70.6609L917.19 57.2942C917.104 54.8951 916.718 53.0957 916.033 51.8961C915.433 50.6966 914.191 50.0968 912.306 50.0968C911.449 50.0968 910.464 50.2253 909.35 50.4823L887.372 54.8522C886.172 55.1093 885.23 55.709 884.544 56.6516C883.859 57.5084 883.516 58.5366 883.516 59.7362C883.516 61.1071 883.944 62.3067 884.801 63.3349C885.744 64.3631 887.029 64.8772 888.657 64.8772C889.342 64.8772 889.857 64.8344 890.199 64.7487L905.879 61.5355V142.121H882.359C880.646 142.121 879.317 142.635 878.375 143.663C877.432 144.692 876.961 145.891 876.961 147.262C876.961 148.719 877.475 150.004 878.503 151.118C879.532 152.146 880.988 152.66 882.873 152.66H961.274C962.902 152.66 964.187 152.146 965.13 151.118C966.072 150.004 966.543 148.762 966.543 147.391C966.543 145.934 966.072 144.692 965.13 143.663C964.273 142.635 963.03 142.121 961.402 142.121H918.218V85.0557C921.645 76.4873 927.772 69.9754 936.597 65.5198C945.422 60.9786 955.576 58.708 967.058 58.708V74.131Z" fill="#FAFAFA"/>
<path d="M101.309 142.121H82.5446C80.8309 142.121 79.5028 142.635 78.5603 143.663C77.6178 144.606 77.1465 145.763 77.1465 147.134C77.1465 148.59 77.6606 149.875 78.6888 150.989C79.7171 152.103 81.1737 152.66 83.0587 152.66H127.4C129.114 152.66 130.442 152.146 131.384 151.118C132.327 150.004 132.798 148.719 132.798 147.262C132.798 145.891 132.327 144.692 131.384 143.663C130.527 142.635 129.285 142.121 127.657 142.121H113.648V84.156C113.648 72.6744 110.649 63.8062 104.651 57.5512C98.6531 51.2963 89.6135 48.1689 77.5321 48.1689C71.7913 48.1689 66.179 49.1542 60.6953 51.125C55.2972 53.0957 50.5417 55.7947 46.4289 59.2221C42.3161 62.5637 39.1887 66.3338 37.0466 70.5323V6.0125C37.0466 2.67083 35.29 1 31.777 1C31.4343 1 30.5774 1.08568 29.2065 1.25705L4.91517 3.69904C3.54423 3.78472 2.47319 4.38451 1.70203 5.49839C1.01656 6.61228 0.673828 7.76901 0.673828 8.96858C0.673828 10.3395 1.14509 11.4963 2.08761 12.4388C3.03013 13.2956 4.2297 13.6812 5.68633 13.5955L24.7081 12.4388V142.121H10.8273C9.11367 142.121 7.78558 142.635 6.84306 143.663C5.90053 144.606 5.42927 145.763 5.42927 147.134C5.42927 148.59 5.94338 149.875 6.97158 150.989C7.99979 152.103 9.45641 152.66 11.3414 152.66H50.2847C52.2554 152.66 53.7977 152.146 54.9116 151.118C56.1112 150.004 56.711 148.719 56.711 147.262C56.711 145.891 56.154 144.692 55.0401 143.663C54.0119 142.635 52.5125 142.121 50.5417 142.121H37.0466V88.783C37.0466 84.2417 38.8031 79.6148 42.3161 74.9022C45.8291 70.1896 50.7131 66.3338 56.968 63.3349C63.3086 60.2503 70.3775 58.708 78.1747 58.708C85.8006 58.708 91.5414 60.8501 95.3972 65.1343C99.3386 69.4184 101.309 75.4591 101.309 83.2564V142.121Z" stroke="#FAFAFA" stroke-width="0.891482" mask="url(#path-1-outside-1_819_166)"/>
<path d="M263.303 92.2531L253.921 92.8958C239.954 93.8383 228.815 95.0379 220.504 96.4945C212.278 97.9511 205.338 100.95 199.683 105.491C194.028 110.033 191.2 116.759 191.2 125.67C191.2 134.495 193.899 141.564 199.297 146.877C204.695 152.103 212.193 154.717 221.789 154.717C230.7 154.717 238.926 153.131 246.466 149.961C254.092 146.791 260.004 142.849 264.203 138.137C265.231 144.22 267.244 148.333 270.243 150.475C273.242 152.532 276.927 153.56 281.297 153.56C285.152 153.56 288.837 152.746 292.35 151.118C295.948 149.404 299.119 147.091 301.861 144.177C302.717 143.321 303.146 142.25 303.146 140.964C303.146 139.593 302.675 138.351 301.732 137.237C300.79 136.123 299.676 135.566 298.39 135.566C297.277 135.566 296.248 136.08 295.306 137.109C293.849 138.651 291.878 140.107 289.394 141.478C286.909 142.764 284.553 143.406 282.325 143.406C280.268 143.406 278.64 142.892 277.441 141.864C276.241 140.75 275.641 138.694 275.641 135.695V95.5948C275.641 85.1414 274.528 76.4873 272.3 69.6326C270.072 62.6923 266.131 57.3799 260.475 53.6955C254.906 50.0111 247.194 48.1689 237.341 48.1689C228.601 48.1689 220.847 49.3256 214.078 51.6391C207.309 53.9525 202.039 57.1657 198.269 61.2785C194.499 65.3913 192.614 70.0182 192.614 75.1592C192.614 77.9011 193.257 80.1289 194.542 81.8426C195.913 83.5562 197.841 84.4131 200.325 84.4131C203.239 84.4131 205.295 82.7423 206.495 79.4006C207.694 76.0589 208.465 71.0893 208.808 64.4916C213.349 62.4352 217.848 60.9786 222.303 60.1218C226.845 59.1792 231.814 58.708 237.212 58.708C246.809 58.708 253.535 61.3642 257.391 66.6766C261.332 71.9889 263.303 79.6576 263.303 89.6826V92.2531ZM263.303 128.369C258.676 133.253 252.721 137.151 245.438 140.065C238.24 142.892 230.829 144.306 223.203 144.306C217.291 144.306 212.535 142.849 208.937 139.936C205.424 136.937 203.667 132.182 203.667 125.67C203.667 119.672 205.724 115.131 209.836 112.046C213.949 108.961 219.476 106.819 226.416 105.62C233.442 104.335 243.981 103.006 258.033 101.636L263.303 101.121V128.369Z" stroke="#FAFAFA" stroke-width="0.891482" mask="url(#path-1-outside-1_819_166)"/>
<path d="M446.118 142.121H427.353C425.639 142.121 424.311 142.635 423.369 143.663C422.426 144.606 421.955 145.763 421.955 147.134C421.955 148.59 422.469 149.875 423.497 150.989C424.525 152.103 425.982 152.66 427.867 152.66H472.208C473.922 152.66 475.25 152.146 476.193 151.118C477.135 150.004 477.606 148.719 477.606 147.262C477.606 145.891 477.135 144.692 476.193 143.663C475.336 142.635 474.093 142.121 472.465 142.121H458.456V84.156C458.456 72.6744 455.457 63.8062 449.459 57.5512C443.462 51.2963 434.422 48.1689 422.341 48.1689C416.514 48.1689 410.859 49.1542 405.375 51.125C399.891 53.0957 395.05 55.7947 390.852 59.2221C386.653 62.5637 383.483 66.3338 381.341 70.5323L380.698 55.1093C380.527 51.7676 378.856 50.0968 375.686 50.0968C375.343 50.0968 374.572 50.1824 373.372 50.3538L352.294 54.5952C350.837 54.9379 349.766 55.6234 349.081 56.6516C348.395 57.5941 348.053 58.6651 348.053 59.8647C348.053 61.2356 348.524 62.3924 349.467 63.3349C350.409 64.2774 351.609 64.7487 353.065 64.7487C353.922 64.7487 354.779 64.6202 355.636 64.3631L369.517 61.5355V142.121H355.636C353.922 142.121 352.594 142.635 351.651 143.663C350.709 144.606 350.238 145.763 350.238 147.134C350.238 148.59 350.752 149.875 351.78 150.989C352.808 152.103 354.265 152.66 356.15 152.66H395.093C397.064 152.66 398.606 152.146 399.72 151.118C400.92 150.004 401.519 148.719 401.519 147.262C401.519 145.891 400.962 144.692 399.849 143.663C398.82 142.635 397.321 142.121 395.35 142.121H381.855V88.0118C381.855 83.5563 383.611 79.0579 387.124 74.5166C390.638 69.9754 395.522 66.2053 401.776 63.2064C408.117 60.2074 415.186 58.708 422.983 58.708C430.609 58.708 436.35 60.8501 440.206 65.1343C444.147 69.4184 446.118 75.4591 446.118 83.2564V142.121Z" stroke="#FAFAFA" stroke-width="0.891482" mask="url(#path-1-outside-1_819_166)"/>
<path d="M703.529 100.35C703.529 111.575 705.971 121.3 710.855 129.526C715.739 137.666 722.551 143.92 731.29 148.29C740.116 152.66 750.269 154.845 761.751 154.845C769.034 154.845 776.831 153.431 785.143 150.604C793.54 147.776 799.966 143.963 804.421 139.165C805.964 137.451 806.735 135.652 806.735 133.767C806.735 132.225 806.264 130.896 805.321 129.783C804.378 128.669 803.136 128.112 801.594 128.112C799.88 128.112 798.124 128.84 796.324 130.297C791.44 134.924 785.871 138.437 779.616 140.836C773.447 143.149 767.149 144.306 760.723 144.306C747.527 144.306 736.86 140.793 728.72 133.767C720.58 126.741 716.296 116.459 715.867 102.921L796.71 102.278C799.709 102.278 802.108 101.25 803.907 99.1935C805.707 97.0514 806.606 94.3524 806.606 91.0964C806.606 81.9283 804.593 74.131 800.566 67.7048C796.624 61.2785 791.14 56.4374 784.114 53.1814C777.174 49.8397 769.248 48.1689 760.337 48.1689C749.884 48.1689 740.33 50.2681 731.676 54.4666C723.107 58.6651 716.253 64.7058 711.112 72.5887C706.056 80.4716 703.529 89.7255 703.529 100.35ZM760.594 58.708C773.961 58.708 783 62.0925 787.713 68.8615C792.426 75.6305 795.082 83.6419 795.682 92.8958L716.253 93.4099C717.795 82.4424 722.422 73.9168 730.134 67.8333C737.931 61.7497 748.084 58.708 760.594 58.708Z" stroke="#FAFAFA" stroke-width="0.891482" mask="url(#path-1-outside-1_819_166)"/>
<path d="M967.058 74.131C967.058 76.2731 967.657 77.944 968.857 79.1435C970.057 80.2574 971.47 80.8144 973.098 80.8144C974.812 80.8144 976.269 80.2146 977.468 79.015C978.753 77.7298 979.396 75.9304 979.396 73.6169V55.8804C979.396 53.3099 978.539 51.382 976.826 50.0968C975.112 48.8115 972.199 48.1689 968.086 48.1689C944.266 48.1689 927.472 55.6662 917.704 70.6609L917.19 57.2942C917.104 54.8951 916.718 53.0957 916.033 51.8961C915.433 50.6966 914.191 50.0968 912.306 50.0968C911.449 50.0968 910.464 50.2253 909.35 50.4823L887.372 54.8522C886.172 55.1093 885.23 55.709 884.544 56.6516C883.859 57.5084 883.516 58.5366 883.516 59.7362C883.516 61.1071 883.944 62.3067 884.801 63.3349C885.744 64.3631 887.029 64.8772 888.657 64.8772C889.342 64.8772 889.857 64.8344 890.199 64.7487L905.879 61.5355V142.121H882.359C880.646 142.121 879.317 142.635 878.375 143.663C877.432 144.692 876.961 145.891 876.961 147.262C876.961 148.719 877.475 150.004 878.503 151.118C879.532 152.146 880.988 152.66 882.873 152.66H961.274C962.902 152.66 964.187 152.146 965.13 151.118C966.072 150.004 966.543 148.762 966.543 147.391C966.543 145.934 966.072 144.692 965.13 143.663C964.273 142.635 963.03 142.121 961.402 142.121H918.218V85.0557C921.645 76.4873 927.772 69.9754 936.597 65.5198C945.422 60.9786 955.576 58.708 967.058 58.708V74.131Z" stroke="#FAFAFA" stroke-width="0.891482" mask="url(#path-1-outside-1_819_166)"/>
<path d="M564.277 147.979C564.277 147.979 528.926 128.863 528.926 99.9493C528.926 67.0241 555.617 40.333 588.542 40.333C621.467 40.333 648.158 60.3914 648.158 99.9493C648.158 158.009 381.077 255.403 381.077 283.568C381.077 298.77 385.25 304.135 401.645 304.135H793.324C809.719 304.135 813.892 298.77 813.892 283.568C813.892 268.365 760.18 236.682 591.244 162.466" stroke="#FAFAFA" stroke-width="11.9233" stroke-linecap="round"/>
</svg>
