<svg width="58" height="14" viewBox="0 0 58 14" fill="none" xmlns="http://www.w3.org/2000/svg">
<path d="M2.55495 13.6769V5.8658H0.782227V4.70245H2.55495V4.38853C2.55495 3.1944 2.8504 2.28958 3.44131 1.67405C4.04453 1.05852 4.96782 0.713822 6.21119 0.639959L6.93136 0.603027L7.06062 1.74791L6.21119 1.80331C5.44794 1.86486 4.89396 2.09261 4.54926 2.48655C4.21688 2.88048 4.05069 3.45293 4.05069 4.20387V4.70245H6.63591V5.8658H4.05069V13.6769H2.55495Z" fill="#FAFAFA"/>
<path d="M11.1624 13.8431C10.4607 13.8431 9.79588 13.7446 9.16804 13.5476C8.5402 13.3506 8.02316 13.0736 7.61691 12.7166L8.09702 11.6641C8.5402 12.0211 9.02647 12.2858 9.55582 12.4581C10.0975 12.6182 10.6453 12.6982 11.1993 12.6982C11.901 12.6982 12.4303 12.5689 12.7874 12.3104C13.1444 12.0519 13.3229 11.701 13.3229 11.2578C13.3229 10.9131 13.2059 10.6423 12.972 10.4453C12.7381 10.2361 12.3688 10.076 11.8641 9.96522L10.1837 9.59591C8.65715 9.26352 7.89389 8.47564 7.89389 7.23227C7.89389 6.41978 8.21397 5.76731 8.85412 5.27489C9.50658 4.78247 10.356 4.53626 11.4024 4.53626C12.0179 4.53626 12.6027 4.63474 13.1567 4.83171C13.723 5.01637 14.1908 5.29336 14.5601 5.66268L14.0615 6.71523C13.7045 6.38284 13.2859 6.13048 12.8058 5.95813C12.338 5.77347 11.8702 5.68114 11.4024 5.68114C10.713 5.68114 10.1898 5.81656 9.83281 6.08739C9.4758 6.35822 9.2973 6.71523 9.2973 7.15841C9.2973 7.8478 9.75279 8.29098 10.6638 8.48795L12.3442 8.83881C13.132 9.01115 13.7291 9.28814 14.1354 9.66977C14.5416 10.0391 14.7447 10.5438 14.7447 11.184C14.7447 12.0088 14.4185 12.6612 13.766 13.1414C13.1136 13.6092 12.2457 13.8431 11.1624 13.8431Z" fill="#FAFAFA"/>
<path d="M20.2004 13.8431C18.046 13.8431 16.9689 12.6551 16.9689 10.2791V4.70245H18.4646V10.2607C18.4646 11.0609 18.6246 11.6518 18.9447 12.0334C19.2771 12.415 19.7941 12.6058 20.4958 12.6058C21.2591 12.6058 21.8808 12.3535 22.3609 11.8487C22.841 11.3317 23.0811 10.6485 23.0811 9.79903V4.70245H24.5768V13.6769H23.118V12.1627C22.8349 12.7043 22.4348 13.1229 21.9177 13.4183C21.413 13.7015 20.8405 13.8431 20.2004 13.8431Z" fill="#FAFAFA"/>
<path d="M27.3752 13.6769V0.658424H28.871V6.17972C29.1664 5.63805 29.5788 5.2318 30.1082 4.96097C30.6499 4.67783 31.2531 4.53626 31.9178 4.53626C34.0476 4.53626 35.1124 5.71807 35.1124 8.0817V13.6769H33.6167V8.17403C33.6167 7.33691 33.4505 6.72754 33.1181 6.34591C32.7981 5.95197 32.281 5.755 31.567 5.755C30.7422 5.755 30.0836 6.01353 29.5911 6.53057C29.111 7.03531 28.871 7.71239 28.871 8.56182V13.6769H27.3752Z" fill="#FAFAFA"/>
<path d="M38.3506 13.6769V5.8658H36.5779V4.70245H38.3506V4.38853C38.3506 3.1944 38.6461 2.28958 39.237 1.67405C39.8402 1.05852 40.7635 0.713822 42.0068 0.639959L42.727 0.603027L42.8563 1.74791L42.0068 1.80331C41.2436 1.86486 40.6896 2.09261 40.3449 2.48655C40.0125 2.88048 39.8463 3.45293 39.8463 4.20387V4.70245H42.4316V5.8658H39.8463V13.6769H38.3506ZM46.771 13.8431C45.8601 13.8431 45.1707 13.5784 44.7029 13.049C44.2474 12.5074 44.0196 11.7256 44.0196 10.7039V0.658424H45.5154V10.5931C45.5154 11.9103 46.0386 12.5689 47.085 12.5689C47.3927 12.5689 47.6697 12.532 47.9159 12.4581L47.879 13.7138C47.4974 13.8 47.128 13.8431 46.771 13.8431Z" fill="#FAFAFA"/>
<path d="M53.4377 13.8431C52.0219 13.8431 50.9017 13.4307 50.0769 12.6058C49.2521 11.7687 48.8397 10.6361 48.8397 9.20812C48.8397 8.28483 49.0243 7.47233 49.3936 6.77063C49.7629 6.05661 50.2677 5.50879 50.9078 5.12716C51.5603 4.73323 52.3112 4.53626 53.1607 4.53626C54.3794 4.53626 55.3335 4.9302 56.0229 5.71807C56.7123 6.49364 57.057 7.56466 57.057 8.93113V9.50358H50.2985C50.3477 10.5254 50.6432 11.3071 51.1848 11.8487C51.7265 12.3781 52.4774 12.6428 53.4377 12.6428C53.9793 12.6428 54.4964 12.5628 54.9888 12.4027C55.4812 12.2304 55.949 11.9534 56.3922 11.5718L56.9092 12.6243C56.503 13.0059 55.9859 13.3075 55.3581 13.5291C54.7303 13.7384 54.0901 13.8431 53.4377 13.8431ZM53.1976 5.64421C52.3482 5.64421 51.6772 5.90889 51.1848 6.43824C50.6924 6.9676 50.4031 7.66314 50.3169 8.52489H55.7644C55.7274 7.6139 55.4874 6.90604 55.0442 6.40131C54.6133 5.89658 53.9978 5.64421 53.1976 5.64421Z" fill="#FAFAFA"/>
</svg>
