<svg width="548" height="149" viewBox="0 0 548 149" fill="none" xmlns="http://www.w3.org/2000/svg">
<path d="M100.067 0.135742H0.622559V146.125H22.5619V80.3067H92.4809V61.0329H22.5619V19.8197H100.067V0.135742Z" fill="#FAFAFA"/>
<path d="M202.762 130.337C198.867 130.337 197.021 128.696 197.021 125.006V69.0295C197.021 48.3203 183.078 37.8633 155.193 37.8633C126.692 37.8633 111.724 49.7556 110.289 73.3353H130.588C130.998 66.3639 133.254 61.443 136.944 58.5724C140.635 55.7018 146.581 54.2665 155.193 54.2665C162.984 54.2665 168.521 55.4968 171.801 57.9573C175.082 60.4178 176.927 64.1085 176.927 69.4396C176.927 73.5404 175.492 76.616 173.031 78.6664C170.571 80.7168 166.47 82.1521 161.139 82.7672L145.556 84.4075C118.901 87.2781 105.778 98.1453 105.778 117.214C105.778 127.056 109.059 134.848 115.825 140.384C122.591 145.92 131.818 148.585 143.506 148.585C159.294 148.585 170.776 143.049 177.952 131.772C178.568 137.103 180.413 140.794 183.694 143.254C186.974 145.715 191.895 146.74 198.457 146.74C202.147 146.74 205.428 146.535 208.504 146.125V130.337H202.762ZM146.581 132.592C140.02 132.592 135.099 131.362 131.818 128.491C128.538 125.621 126.897 121.725 126.897 116.599C126.897 111.678 128.538 107.782 132.023 104.912C135.304 102.041 141.045 100.196 149.042 99.1705L163.805 97.5302C169.956 96.915 174.262 95.4797 176.927 93.2243V104.297C176.927 113.318 174.057 120.29 168.316 125.211C162.574 130.132 155.193 132.592 146.581 132.592Z" fill="#FAFAFA"/>
<path d="M440.749 37.8633C426.601 37.8633 415.529 44.0145 407.533 56.1119V40.3237H387.849V146.125H408.353V86.4579C408.353 76.616 411.018 69.0295 416.554 63.6984C421.885 58.5724 428.037 55.9069 435.008 55.9069C449.771 55.9069 457.358 63.2883 457.358 78.0513V146.125H477.862V75.1807C477.862 63.2883 474.581 54.2665 468.02 47.7052C461.458 41.1439 452.231 37.8633 440.749 37.8633Z" fill="#FAFAFA"/>
<path d="M547.412 40.3237H526.088V9.9777H505.584V40.3237H488.565V57.1371H505.584V122.545C505.584 131.157 507.839 137.308 512.76 140.999C517.476 144.895 524.858 146.74 534.905 146.74C538.595 146.74 542.901 146.535 547.412 146.125V129.722H538.185C533.674 129.722 530.599 129.106 528.753 127.671C526.908 126.236 526.088 123.98 526.088 120.7V57.1371H547.412V40.3237Z" fill="#FAFAFA"/>
<path d="M248.549 124.961H226.61V145.875H248.549V124.961ZM369.318 125.166H263.517V145.67H369.318V125.166Z" fill="#FAFAFA"/>
</svg>
