<svg width="574" height="255" viewBox="0 0 574 255" fill="none" xmlns="http://www.w3.org/2000/svg">
<path d="M0.792969 128.859L30.5884 124.172C32.2623 136.112 36.8935 145.263 44.4818 151.624C52.1818 157.985 62.8948 161.165 76.6208 161.165C90.4584 161.165 100.725 158.375 107.421 152.796C114.116 147.104 117.464 140.465 117.464 132.876C117.464 126.069 114.507 120.713 108.592 116.807C104.463 114.129 94.1968 110.725 77.7925 106.596C55.697 101.016 40.3529 96.2178 31.7602 92.2004C23.2791 88.0715 16.8066 82.436 12.3429 75.294C7.99075 68.0404 5.81468 60.0615 5.81468 51.3572C5.81468 43.434 7.60017 36.1247 11.1712 29.429C14.8538 22.6218 19.8197 16.9864 26.0689 12.5226C30.7558 9.06323 37.1167 6.16179 45.1514 3.81833C53.2977 1.36327 62.002 0.135742 71.2643 0.135742C85.2135 0.135742 97.433 2.14443 107.923 6.16179C118.524 10.1792 126.336 15.6472 131.357 22.566C136.379 29.3732 139.839 38.5239 141.736 50.0181L112.275 54.0354C110.936 44.8847 107.03 37.7428 100.558 32.6095C94.1968 27.4762 85.1577 24.9095 73.4404 24.9095C59.6028 24.9095 49.7267 27.1972 43.8123 31.7725C37.8978 36.3478 34.9406 41.7043 34.9406 47.842C34.9406 51.7478 36.1681 55.2629 38.6232 58.3876C41.0782 61.6238 44.9282 64.302 50.1731 66.4223C53.1861 67.5382 62.0578 70.1049 76.7882 74.1223C98.1025 79.8135 112.944 84.5005 121.314 88.183C129.795 91.754 136.435 96.9989 141.233 103.918C146.032 110.837 148.431 119.429 148.431 129.696C148.431 139.739 145.474 149.225 139.56 158.152C133.757 166.968 125.331 173.831 114.284 178.741C103.236 183.54 90.7374 185.939 76.7882 185.939C53.6883 185.939 36.0565 181.14 23.8928 171.543C11.8407 161.946 4.14077 147.718 0.792969 128.859Z" fill="#FAFAFA"/>
<path d="M143.49 250.384L140.142 222.095C146.726 223.881 152.473 224.774 157.383 224.774C164.079 224.774 169.435 223.658 173.453 221.426C177.47 219.194 180.762 216.069 183.329 212.052C185.226 209.039 188.295 201.562 192.535 189.622C193.093 187.948 193.986 185.493 195.213 182.256L127.755 4.15311H160.229L197.222 107.098C202.021 120.155 206.317 133.881 210.111 148.276C213.571 134.439 217.7 120.936 222.498 107.768L260.496 4.15311H290.626L223 184.935C215.747 204.463 210.111 217.911 206.094 225.276C200.737 235.208 194.6 242.461 187.681 247.036C180.762 251.723 172.504 254.067 162.907 254.067C157.104 254.067 150.632 252.839 143.49 250.384Z" fill="#FAFAFA"/>
<path d="M276.813 181.922V4.15311H303.93V29.429C316.987 9.90018 335.846 0.135742 360.508 0.135742C371.221 0.135742 381.041 2.08863 389.969 5.9944C399.008 9.78858 405.759 14.8103 410.223 21.0595C414.687 27.3088 417.811 34.7297 419.597 43.3224C420.713 48.9021 421.271 58.6665 421.271 72.6157V181.922H391.14V73.7875C391.14 61.5122 389.969 52.3615 387.625 46.3355C385.282 40.1978 381.097 35.3435 375.071 31.7725C369.157 28.0899 362.182 26.2486 354.147 26.2486C341.314 26.2486 330.21 30.3218 320.837 38.4681C311.574 46.6144 306.943 62.0702 306.943 84.8352V181.922H276.813Z" fill="#FAFAFA"/>
<path d="M544.216 116.807L573.844 120.657C570.607 141.078 562.294 157.092 548.902 168.698C535.623 180.192 519.274 185.939 499.857 185.939C475.53 185.939 455.945 178.016 441.103 162.17C426.373 146.212 419.008 123.391 419.008 93.7069C419.008 74.5128 422.188 57.718 428.549 43.3224C434.91 28.9269 444.562 18.1581 457.507 11.0161C470.564 3.76253 484.736 0.135742 500.025 0.135742C519.33 0.135742 535.121 5.04586 547.396 14.8661C559.671 24.5747 567.539 38.4123 570.998 56.3789L541.705 60.8984C538.915 48.9579 533.949 39.9746 526.807 33.9486C519.777 27.9225 511.24 24.9095 501.196 24.9095C486.02 24.9095 473.688 30.3776 464.203 41.3138C454.718 52.1383 449.975 69.3237 449.975 92.87C449.975 116.751 454.55 134.104 463.701 144.928C472.851 155.753 484.792 161.165 499.522 161.165C511.351 161.165 521.227 157.538 529.15 150.285C537.074 143.031 542.095 131.872 544.216 116.807Z" fill="#FAFAFA"/>
</svg>
