<svg width="806" height="214" viewBox="0 0 806 214" fill="none" xmlns="http://www.w3.org/2000/svg">
<path d="M85.5319 213.479C61.3353 213.479 41.4665 207.774 25.9256 196.364C10.3847 184.758 2.02407 168.233 0.84375 146.791H62.5156C63.1057 154.069 65.2697 159.381 69.0074 162.725C72.745 166.069 77.5647 167.741 83.4663 167.741C88.7778 167.741 93.1056 166.463 96.4499 163.905C99.9908 161.151 101.761 157.414 101.761 152.692C101.761 146.594 98.9089 141.873 93.204 138.529C87.4991 135.184 78.2532 131.447 65.4664 127.315C51.8927 122.791 40.8763 118.463 32.4174 114.332C24.1551 110.004 16.8765 103.807 10.5814 95.7418C4.48308 87.4796 1.43391 76.7583 1.43391 63.5781C1.43391 50.2011 4.77816 38.7913 11.4666 29.3487C18.1551 19.7094 27.401 12.4308 39.2042 7.51275C51.0074 2.59474 64.3844 0.135742 79.3352 0.135742C103.532 0.135742 122.81 5.84063 137.171 17.2504C151.728 28.4635 159.499 44.2995 160.482 64.7584H97.6302C97.4335 58.4633 95.4662 53.742 91.7286 50.5945C88.1876 47.447 83.5647 45.8732 77.8598 45.8732C73.5319 45.8732 69.991 47.1519 67.2369 49.7093C64.4828 52.2666 63.1057 55.906 63.1057 60.6272C63.1057 64.5617 64.5811 68.0043 67.532 70.9551C70.6795 73.7092 74.5155 76.1682 79.0401 78.3321C83.5647 80.2993 90.2532 82.8567 99.1056 86.0042C112.286 90.5287 123.105 95.0533 131.564 99.5779C140.22 103.906 147.597 110.102 153.695 118.168C159.991 126.037 163.138 136.07 163.138 148.266C163.138 160.66 159.991 171.774 153.695 181.61C147.597 191.446 138.646 199.217 126.843 204.922C115.237 210.627 101.466 213.479 85.5319 213.479Z" fill="#FAFAFA"/>
<path d="M376.221 3.38162V211.413H318.385V127.906H247.861V211.413H190.025V3.38162H247.861V81.578H318.385V3.38162H376.221Z" fill="#FAFAFA"/>
<path d="M509.055 213.479C489.58 213.479 471.679 208.954 455.351 199.905C439.023 190.659 426.039 177.971 416.4 161.84C406.958 145.512 402.236 127.119 402.236 106.66C402.236 86.2009 406.958 67.9059 416.4 51.7748C426.039 35.447 439.023 22.7586 455.351 13.7094C471.679 4.66031 489.58 0.135742 509.055 0.135742C528.727 0.135742 546.629 4.66031 562.76 13.7094C579.088 22.7586 591.973 35.447 601.416 51.7748C610.858 67.9059 615.58 86.2009 615.58 106.66C615.58 127.119 610.858 145.512 601.416 161.84C591.973 177.971 579.088 190.659 562.76 199.905C546.432 208.954 528.531 213.479 509.055 213.479ZM509.055 159.774C523.809 159.774 535.416 154.955 543.875 145.315C552.531 135.676 556.858 122.791 556.858 106.66C556.858 90.1353 552.531 77.1518 543.875 67.7092C535.416 58.0699 523.809 53.2502 509.055 53.2502C494.105 53.2502 482.4 58.0699 473.941 67.7092C465.482 77.1518 461.252 90.1353 461.252 106.66C461.252 122.988 465.482 135.971 473.941 145.61C482.4 155.053 494.105 159.774 509.055 159.774Z" fill="#FAFAFA"/>
<path d="M805.939 72.7256C805.939 85.3157 802.988 96.8238 797.086 107.25C791.381 117.479 782.627 125.742 770.824 132.037C759.218 138.135 744.955 141.184 728.037 141.184H699.415V211.413H641.579V3.38162H728.037C744.759 3.38162 758.923 6.33243 770.529 12.234C782.332 18.1357 791.185 26.2995 797.086 36.7257C802.988 47.1519 805.939 59.1518 805.939 72.7256ZM722.431 95.1517C738.759 95.1517 746.923 87.6763 746.923 72.7256C746.923 57.5781 738.759 50.0043 722.431 50.0043H699.415V95.1517H722.431Z" fill="#FAFAFA"/>
<path d="M283.239 110.008C294.622 110.008 303.521 118.364 303.521 128.283C303.52 138.203 294.622 146.559 283.239 146.559C271.856 146.559 262.958 138.203 262.958 128.283C262.958 118.364 271.856 110.008 283.239 110.008Z" stroke="#010A1D" stroke-width="4.01167"/>
</svg>
