<svg width="1007" height="223" viewBox="0 0 1007 223" fill="none" xmlns="http://www.w3.org/2000/svg">
<path d="M214.578 54.7256C226.774 54.7256 237.692 57.283 247.332 62.3977C257.168 67.3158 264.84 75.0862 270.348 85.7091C276.053 96.332 278.905 110.102 278.905 127.02V219.086H212.217V138.529C212.217 128.496 210.545 121.414 207.201 117.283C203.857 112.955 199.529 110.791 194.217 110.791C190.283 110.791 186.742 111.775 183.594 113.742C180.447 115.709 177.889 118.856 175.922 123.184C174.152 127.315 173.266 133.02 173.266 140.299V219.086H106.578V138.529C106.578 128.496 105.005 121.414 101.857 117.283C98.7095 112.955 94.2833 110.791 88.5784 110.791C84.644 110.791 81.103 111.775 77.9555 113.742C74.808 115.709 72.2506 118.856 70.2834 123.184C68.5129 127.315 67.6277 133.02 67.6277 140.299V219.086H0.939453V57.6764H64.3818V104.004L51.3982 91.0206C57.4966 78.8239 65.6605 69.7748 75.8899 63.8731C86.1194 57.7748 97.5292 54.7256 110.119 54.7256C124.283 54.7256 136.775 58.4633 147.594 65.9387C158.611 73.2174 165.988 84.8239 169.726 100.758L149.365 97.5123C155.267 84.1353 163.824 73.7092 175.037 66.2338C186.447 58.5617 199.627 54.7256 214.578 54.7256Z" fill="#FAFAFA"/>
<path d="M355.933 222.036C343.146 222.036 331.54 219.479 321.113 214.364C310.884 209.053 302.818 200.889 296.917 189.873C291.015 178.659 288.064 164.299 288.064 146.791V57.6764H354.753V135.283C354.753 146.692 356.621 154.66 360.359 159.184C364.097 163.709 369.211 165.971 375.703 165.971C379.638 165.971 383.277 164.987 386.621 163.02C390.162 160.856 393.015 157.414 395.179 152.692C397.342 147.774 398.424 141.381 398.424 133.512V57.6764H465.113V219.086H401.67V172.463L414.359 185.151C408.654 197.741 400.49 207.086 389.867 213.184C379.441 219.086 368.13 222.036 355.933 222.036Z" fill="#FAFAFA"/>
<path d="M587.643 54.7256C600.036 54.7256 611.249 57.283 621.282 62.3977C631.314 67.3158 639.183 75.0862 644.888 85.7091C650.79 96.332 653.741 110.102 653.741 127.02V219.086H587.052V138.529C587.052 128.496 585.282 121.414 581.741 117.283C578.2 112.955 573.38 110.791 567.282 110.791C562.757 110.791 558.528 111.873 554.594 114.037C550.856 116.004 547.807 119.348 545.446 124.07C543.282 128.791 542.2 135.184 542.2 143.25V219.086H475.512V57.6764H538.954V104.889L526.266 91.3156C532.561 79.119 541.02 69.9715 551.643 63.8731C562.462 57.7748 574.462 54.7256 587.643 54.7256Z" fill="#FAFAFA"/>
<path d="M753.157 222.036C734.666 222.036 718.24 218.495 703.879 211.413C689.518 204.331 678.207 194.495 669.945 181.905C661.879 169.119 657.846 154.561 657.846 138.233C657.846 121.906 661.879 107.447 669.945 94.8566C678.207 82.2665 689.518 72.4305 703.879 65.3485C718.24 58.2666 734.666 54.7256 753.157 54.7256C772.829 54.7256 789.649 58.9551 803.616 67.4141C817.583 75.8731 827.223 87.5779 832.534 102.529L780.895 127.906C777.551 120.43 773.42 115.02 768.502 111.676C763.78 108.332 758.567 106.66 752.862 106.66C747.944 106.66 743.321 107.84 738.994 110.201C734.862 112.561 731.518 116.102 728.961 120.824C726.6 125.348 725.42 131.152 725.42 138.233C725.42 145.315 726.6 151.217 728.961 155.938C731.518 160.66 734.862 164.201 738.994 166.561C743.321 168.922 747.944 170.102 752.862 170.102C758.567 170.102 763.78 168.43 768.502 165.086C773.42 161.742 777.551 156.332 780.895 148.856L832.534 174.233C827.223 189.184 817.583 200.889 803.616 209.348C789.649 217.807 772.829 222.036 753.157 222.036Z" fill="#FAFAFA"/>
<path d="M940.898 54.7256C953.291 54.7256 964.504 57.283 974.537 62.3977C984.57 67.3158 992.438 75.0862 998.143 85.7091C1004.04 96.332 1007 110.102 1007 127.02V219.086H940.308V138.529C940.308 128.496 938.537 121.414 934.996 117.283C931.455 112.955 926.636 110.791 920.537 110.791C916.013 110.791 911.783 111.873 907.849 114.037C904.111 116.004 901.062 119.348 898.701 124.07C896.537 128.791 895.455 135.184 895.455 143.25V219.086H828.767V0.135742H895.455V104.889L879.521 91.3156C885.816 79.119 894.275 69.9715 904.898 63.8731C915.718 57.7748 927.717 54.7256 940.898 54.7256Z" fill="#FAFAFA"/>
</svg>
