<svg width="526" height="298" viewBox="0 0 526 298" fill="none" xmlns="http://www.w3.org/2000/svg">
<path d="M143.706 202.572C143.345 202.331 142.902 202.242 142.475 202.325C142.048 202.408 141.671 202.656 141.426 203.015L122.534 231.024C113.787 243.992 95.6865 248.704 81.365 239.026C67.0234 229.353 64.6157 210.825 73.3626 197.857L92.2545 169.849C92.7585 169.102 92.5585 168.072 91.8113 167.568L82.218 161.098C81.8562 160.856 81.4136 160.767 80.9866 160.85C80.5596 160.933 80.1826 161.181 79.9376 161.541L61.0456 189.549C47.2913 209.941 52.6615 237.569 73.0493 251.303C93.4371 265.037 121.069 259.687 134.803 239.299L153.695 211.291C154.199 210.543 153.999 209.514 153.251 209.01L143.706 202.572ZM177.3 96.7704C156.909 83.0161 129.281 88.3863 115.547 108.774L96.6346 136.786C96.3932 137.148 96.3043 137.591 96.3873 138.018C96.4703 138.445 96.7185 138.822 97.0779 139.067L106.647 145.521C107.394 146.025 108.424 145.825 108.928 145.078L127.819 117.07C136.566 104.102 154.667 99.3897 168.988 109.067C183.33 118.741 185.738 137.268 176.991 150.236L158.099 178.245C157.857 178.606 157.769 179.049 157.852 179.476C157.935 179.903 158.183 180.28 158.542 180.525L168.135 186.996C168.883 187.5 169.912 187.3 170.416 186.553L189.308 158.544C203.042 138.156 197.672 110.529 177.3 96.7704V96.7704ZM139.494 142.006C139.132 141.764 138.69 141.675 138.263 141.758C137.836 141.841 137.459 142.09 137.214 142.449L100.385 197.024C100.144 197.385 100.055 197.828 100.138 198.255C100.221 198.682 100.469 199.059 100.828 199.304L110.373 205.742C111.121 206.246 112.15 206.046 112.654 205.299L149.462 150.728C149.966 149.981 149.766 148.952 149.019 148.448L139.494 142.006Z" fill="#FAFAFA"/>
<path d="M0 250.317V0.982422H15.1311V250.317H0Z" fill="#FAFAFA"/>
<path d="M348.2 250.317V152.294C348.2 111.834 333.617 91.6047 304.451 91.6047C288.224 91.6047 274.902 97.5804 264.486 109.532C254.069 121.374 248.861 136.066 248.861 153.609V250.317H233.73V81.9011H248.861V112.492H249.519C261.799 89.357 280.987 77.7893 307.083 77.7893C325.284 77.7893 339.209 83.8747 348.858 96.0454C358.507 108.106 363.331 125.376 363.331 147.853V250.317H348.2Z" fill="#FAFAFA"/>
<path d="M503.63 250.317L423.04 167.096H422.382V250.317H407.251V0.982422H422.382V161.668H423.04L499.518 81.9011H519.09L439.158 163.478L525.504 250.317H503.63Z" fill="#FAFAFA"/>
</svg>
