<svg width="71" height="17" viewBox="0 0 71 17" fill="none" xmlns="http://www.w3.org/2000/svg">
<path d="M20.8115 2.6712C22.2642 2.6712 23.3721 3.02206 24.1354 3.72376C24.9109 4.41315 25.2987 5.45955 25.2987 6.86296V12.6428H23.1197V11.4425C22.8366 11.8734 22.4304 12.2057 21.901 12.4397C21.384 12.6612 20.7561 12.772 20.0175 12.772C19.2788 12.772 18.6325 12.6489 18.0786 12.4027C17.5246 12.1442 17.0937 11.7933 16.786 11.3502C16.4905 10.8947 16.3428 10.3838 16.3428 9.8175C16.3428 8.93113 16.669 8.22328 17.3215 7.69392C17.9862 7.15226 19.0265 6.88142 20.4422 6.88142H22.9905V6.7337C22.9905 6.0443 22.7812 5.51495 22.3626 5.14563C21.9564 4.77631 21.347 4.59166 20.5345 4.59166C19.9805 4.59166 19.4327 4.67783 18.8911 4.85018C18.3617 5.02253 17.9124 5.26258 17.5431 5.57035L16.6382 3.88995C17.1553 3.49601 17.777 3.1944 18.5033 2.98512C19.2296 2.77584 19.999 2.6712 20.8115 2.6712ZM20.4976 11.0916C21.0762 11.0916 21.5871 10.9624 22.0303 10.7039C22.4858 10.433 22.8058 10.0514 22.9905 9.55897V8.41409H20.6084C19.2788 8.41409 18.6141 8.85112 18.6141 9.72517C18.6141 10.1437 18.7803 10.4761 19.1127 10.7223C19.445 10.9685 19.9067 11.0916 20.4976 11.0916Z" fill="#FAFAFA"/>
<path d="M33.7269 2.6712C34.6872 2.6712 35.5428 2.88048 36.2937 3.29904C37.057 3.7176 37.654 4.30851 38.0849 5.07177C38.5158 5.83502 38.7312 6.71523 38.7312 7.71239C38.7312 8.70954 38.5158 9.59591 38.0849 10.3715C37.654 11.1347 37.057 11.7256 36.2937 12.1442C35.5428 12.5628 34.6872 12.772 33.7269 12.772C32.3974 12.772 31.3448 12.3289 30.5693 11.4425V16.2252H28.261V2.782H30.4585V4.07461C30.8401 3.60681 31.3079 3.25596 31.8619 3.02206C32.4282 2.78815 33.0499 2.6712 33.7269 2.6712ZM33.4684 10.7962C34.3179 10.7962 35.0134 10.513 35.5551 9.94676C36.109 9.38047 36.386 8.63568 36.386 7.71239C36.386 6.78909 36.109 6.0443 35.5551 5.47802C35.0134 4.91173 34.3179 4.62859 33.4684 4.62859C32.9144 4.62859 32.4159 4.75785 31.9727 5.01637C31.5295 5.26258 31.1787 5.61959 30.9201 6.08739C30.6616 6.55519 30.5324 7.09686 30.5324 7.71239C30.5324 8.32792 30.6616 8.86958 30.9201 9.33738C31.1787 9.80519 31.5295 10.1683 31.9727 10.4269C32.4159 10.6731 32.9144 10.7962 33.4684 10.7962Z" fill="#FAFAFA"/>
<path d="M46.8478 12.1073C46.577 12.3289 46.2446 12.495 45.8507 12.6058C45.469 12.7166 45.0628 12.772 44.6319 12.772C43.5486 12.772 42.7115 12.4889 42.1206 11.9226C41.5296 11.3563 41.2342 10.5315 41.2342 9.44818V4.70245H39.6092V2.85586H41.2342V0.603027H43.5424V2.85586H46.183V4.70245H43.5424V9.39278C43.5424 9.87289 43.6594 10.2422 43.8933 10.5007C44.1272 10.7469 44.4657 10.8701 44.9089 10.8701C45.4259 10.8701 45.8568 10.7346 46.2015 10.4638L46.8478 12.1073Z" fill="#FAFAFA"/>
<path d="M52.8538 12.772C51.8567 12.772 50.958 12.5566 50.1578 12.1257C49.3576 11.6949 48.7298 11.0978 48.2743 10.3345C47.8311 9.55897 47.6095 8.68492 47.6095 7.71239C47.6095 6.73985 47.8311 5.87195 48.2743 5.1087C48.7298 4.34544 49.3576 3.74838 50.1578 3.31751C50.958 2.88664 51.8567 2.6712 52.8538 2.6712C53.8633 2.6712 54.7681 2.88664 55.5683 3.31751C56.3685 3.74838 56.9902 4.34544 57.4334 5.1087C57.8889 5.87195 58.1166 6.73985 58.1166 7.71239C58.1166 8.68492 57.8889 9.55897 57.4334 10.3345C56.9902 11.0978 56.3685 11.6949 55.5683 12.1257C54.7681 12.5566 53.8633 12.772 52.8538 12.772ZM52.8538 10.7962C53.7033 10.7962 54.405 10.513 54.9589 9.94676C55.5129 9.38047 55.7899 8.63568 55.7899 7.71239C55.7899 6.78909 55.5129 6.0443 54.9589 5.47802C54.405 4.91173 53.7033 4.62859 52.8538 4.62859C52.0044 4.62859 51.3027 4.91173 50.7487 5.47802C50.2071 6.0443 49.9362 6.78909 49.9362 7.71239C49.9362 8.63568 50.2071 9.38047 50.7487 9.94676C51.3027 10.513 52.0044 10.7962 52.8538 10.7962Z" fill="#FAFAFA"/>
<path d="M65.7898 2.6712C66.75 2.6712 67.6056 2.88048 68.3565 3.29904C69.1198 3.7176 69.7168 4.30851 70.1477 5.07177C70.5786 5.83502 70.794 6.71523 70.794 7.71239C70.794 8.70954 70.5786 9.59591 70.1477 10.3715C69.7168 11.1347 69.1198 11.7256 68.3565 12.1442C67.6056 12.5628 66.75 12.772 65.7898 12.772C64.4602 12.772 63.4077 12.3289 62.6321 11.4425V16.2252H60.3239V2.782H62.5213V4.07461C62.9029 3.60681 63.3707 3.25596 63.9247 3.02206C64.491 2.78815 65.1127 2.6712 65.7898 2.6712ZM65.5312 10.7962C66.3807 10.7962 67.0762 10.513 67.6179 9.94676C68.1719 9.38047 68.4488 8.63568 68.4488 7.71239C68.4488 6.78909 68.1719 6.0443 67.6179 5.47802C67.0762 4.91173 66.3807 4.62859 65.5312 4.62859C64.9773 4.62859 64.4787 4.75785 64.0355 5.01637C63.5923 5.26258 63.2415 5.61959 62.9829 6.08739C62.7244 6.55519 62.5952 7.09686 62.5952 7.71239C62.5952 8.32792 62.7244 8.86958 62.9829 9.33738C63.2415 9.80519 63.5923 10.1683 64.0355 10.4269C64.4787 10.6731 64.9773 10.7962 65.5312 10.7962Z" fill="#FAFAFA"/>
<path d="M0.552734 3.59036L2.09244 1.86865L8.54885 10.6114H15.3074V12.6426H7.09523L0.552734 3.59036Z" fill="#FAFAFA"/>
</svg>
