<svg width="504" height="279" viewBox="0 0 504 279" fill="none" xmlns="http://www.w3.org/2000/svg">
<path d="M100.686 0.982422V172.895C100.686 203.961 107.735 226.805 121.832 241.425C135.93 255.783 155.118 262.962 179.397 262.962C203.416 262.962 222.343 255.783 236.179 241.425C250.016 227.066 256.934 204.223 256.934 172.895V0.982422H274.556V172.503C274.556 208.269 265.941 234.898 248.711 252.389C231.48 269.881 208.376 278.626 179.397 278.626C150.419 278.626 127.054 269.881 109.301 252.389C91.8097 234.637 83.064 208.008 83.064 172.503V0.982422H100.686Z" fill="#FAFAFA"/>
<path d="M503.458 78.5191C503.458 102.798 495.887 121.726 480.745 135.301C465.604 148.615 443.152 155.273 413.39 155.273H354.65V275.885H337.028V0.982422H413.39C443.674 0.982422 466.256 8.03122 481.137 22.1288C496.018 35.9653 503.458 54.7621 503.458 78.5191ZM413.39 139.609C461.688 139.609 485.836 119.245 485.836 78.5191C485.836 58.417 480.093 43.1446 468.606 32.702C457.119 21.9983 438.714 16.6464 413.39 16.6464H354.65V139.609H413.39Z" fill="#FAFAFA"/>
<path d="M58.8823 23.9834C71.9782 23.9834 83.1639 26.7001 92.3257 32.2617L94.8989 33.8242L92.6177 35.7891L87.4995 40.1963L86.2974 41.2314L84.9399 40.4092C78.0006 36.2076 69.3522 34.044 58.8823 34.0439C50.5684 34.0439 43.0844 35.8202 36.3872 39.3379L36.3774 39.3428L36.3667 39.3486C29.706 42.7575 24.4679 47.7235 20.6235 54.2881L20.6167 54.2988C16.7954 60.7347 14.8452 68.346 14.8452 77.21C14.8453 85.9689 16.7913 93.5292 20.6099 99.9658L20.9741 100.561C24.782 106.656 29.9084 111.394 36.3872 114.797L37.0181 115.122C43.5535 118.424 50.8283 120.091 58.8823 120.091C69.3599 120.091 78.0147 117.971 84.9575 113.856L86.2866 113.069L87.4722 114.058L92.5903 118.323L94.9438 120.283L92.3257 121.873C83.1639 127.435 71.9782 130.151 58.8823 130.151C48.4356 130.151 38.9144 127.95 30.3638 123.508L30.3501 123.501L30.3354 123.493C21.8985 118.954 15.2115 112.667 10.313 104.651L10.2954 104.622C5.49577 96.4861 3.11481 87.3299 3.11475 77.21C3.11475 66.9995 5.49345 57.8364 10.3013 49.7861L10.3062 49.7773L10.771 49.0225C15.6233 41.2713 22.1557 35.1851 30.3354 30.7842L30.3462 30.7783L31.1509 30.3594C39.4966 26.0974 48.7543 23.9834 58.8823 23.9834Z" fill="#FAFAFA" stroke="#FAFAFA" stroke-width="4.374"/>
</svg>
