<svg width="454" height="112" viewBox="0 0 454 112" fill="none" xmlns="http://www.w3.org/2000/svg">
<path d="M105.553 58.1888C105.553 41.1704 100.837 27.4327 91.4054 16.7706C81.9736 6.31348 69.261 0.982422 53.2678 0.982422C37.6847 0.982422 24.9722 6.10844 15.3353 16.1554C5.69836 26.4075 0.982422 39.7351 0.982422 56.3434C0.982422 73.1568 5.69836 86.4845 15.5403 96.5315C25.1772 106.784 37.8898 111.704 53.6779 111.704C66.1854 111.704 76.8475 108.629 85.6643 102.273C94.276 95.9163 100.017 87.3046 102.888 76.4375H78.0778C73.5669 86.6895 65.5703 91.6105 53.883 91.6105C45.8864 91.6105 39.5301 89.355 34.8142 84.8441C30.0982 80.3332 27.2277 73.3618 26.4075 64.34H105.553V58.1888ZM53.0628 21.0764C60.4443 21.0764 66.3905 23.3319 71.1064 27.8428C75.6173 32.3537 78.4879 38.5049 79.7181 46.2964H26.6125C29.073 29.4831 37.8898 21.0764 53.0628 21.0764Z" fill="#FAFAFA"/>
<path d="M178.827 1.80257C163.654 1.80257 152.991 8.77397 147.25 22.3067V3.4429H122.235V109.244H148.07V55.5233C148.07 45.8864 150.531 38.5049 155.862 33.5839C161.193 28.6629 168.78 25.9974 178.621 25.9974H185.183V2.21266C183.132 2.00763 181.082 1.80257 178.827 1.80257Z" fill="#FAFAFA"/>
<path d="M282.488 96.5315C292.329 86.4845 297.25 73.1568 297.25 56.3434C297.25 39.5301 292.329 25.9974 282.488 15.9504C272.646 6.10844 259.523 0.982422 243.53 0.982422C227.332 0.982422 214.414 6.10844 204.572 16.1554C194.525 26.2024 189.604 39.5301 189.604 56.3434C189.604 73.1568 194.525 86.6895 204.572 96.5315C214.414 106.784 227.332 111.704 243.53 111.704C259.523 111.704 272.646 106.784 282.488 96.5315ZM243.53 90.3802C234.918 90.3802 228.152 87.5097 223.231 81.5635C218.31 75.8223 216.054 67.4157 216.054 56.3434C216.054 45.4763 218.31 37.0696 223.231 31.1234C228.152 25.3823 234.918 22.3067 243.53 22.3067C252.141 22.3067 258.703 25.3823 263.624 31.3285C268.545 37.2747 271.005 45.6813 271.005 56.3434C271.005 67.2106 268.545 75.6173 263.624 81.5635C258.703 87.5097 252.141 90.3802 243.53 90.3802Z" fill="#FAFAFA"/>
<path d="M370.051 1.80257C354.878 1.80257 344.216 8.77397 338.475 22.3067V3.4429H313.46V109.244H339.295V55.5233C339.295 45.8864 341.756 38.5049 347.087 33.5839C352.418 28.6629 360.004 25.9974 369.846 25.9974H376.407V2.21266C374.357 2.00763 372.307 1.80257 370.051 1.80257Z" fill="#FAFAFA"/>
<path d="M446.942 1.80257C431.768 1.80257 421.106 8.77397 415.365 22.3067V3.4429H390.35V109.244H416.185V55.5233C416.185 45.8864 418.646 38.5049 423.977 33.5839C429.308 28.6629 436.894 25.9974 446.736 25.9974H453.298V2.21266C451.247 2.00763 449.197 1.80257 446.942 1.80257Z" fill="#FAFAFA"/>
</svg>
