<svg width="563" height="181" viewBox="0 0 563 181" fill="none" xmlns="http://www.w3.org/2000/svg">
<path d="M45.487 162.928V141.653C38.9703 141.142 32.9008 139.353 27.2785 136.286C21.784 133.219 16.9923 129.258 12.9033 124.403C8.81439 119.547 5.61991 114.244 3.31989 108.494C1.14765 102.616 0.0615234 96.6108 0.0615234 90.4774C0.0615234 81.7884 1.78654 73.7383 5.23658 66.3271C8.81439 58.9159 13.9894 52.7186 20.7617 47.7353C27.534 42.6241 35.7758 39.3657 45.487 37.9602V16.3016H56.9871V37.9602C65.9316 38.2157 74.0456 40.5157 81.329 44.8602C88.6124 49.2047 94.2986 55.402 98.3875 63.4521L73.4706 71.1188C71.6817 67.9244 69.3178 65.4327 66.3789 63.6437C63.44 61.7271 60.3094 60.6409 56.9871 60.3854V119.419C59.2871 118.908 61.5872 118.205 63.8872 117.311C66.1872 116.289 68.2317 115.011 70.0206 113.478C71.9373 111.816 73.2151 110.028 73.8539 108.111L98.9625 115.778C96.5347 121.528 92.8291 126.383 87.8458 130.344C82.8624 134.178 77.5595 137.053 71.9373 138.97C66.4428 140.886 61.4594 141.845 56.9871 141.845V162.928H45.487ZM26.5118 90.4774C26.5118 94.5663 27.2785 98.5274 28.8118 102.361C30.4729 106.066 32.7091 109.325 35.5202 112.136C38.3314 114.947 41.6536 116.992 45.487 118.269V61.5354C42.5481 62.1743 39.8647 63.3882 37.4369 65.1771C35.1369 66.8382 33.1563 69.0105 31.4952 71.6938C29.8341 74.3772 28.5563 77.38 27.6618 80.7023C26.8951 83.8967 26.5118 87.1551 26.5118 90.4774Z" fill="#FAFAFA"/>
<path d="M211.05 139.928H185.366V83.5773C185.366 75.7828 183.833 69.9688 180.766 66.1354C177.827 62.3021 173.738 60.3854 168.499 60.3854C165.433 60.3854 162.174 61.2798 158.724 63.0687C155.274 64.8577 152.144 67.3493 149.332 70.5438C146.649 73.6105 144.669 77.1883 143.391 81.2773V139.928H117.707V0.00976562H143.391V58.0854C147.096 51.6964 152.144 46.713 158.533 43.1352C164.922 39.5574 171.885 37.7685 179.424 37.7685C185.941 37.7685 191.244 38.9185 195.333 41.2185C199.422 43.3908 202.616 46.3936 204.916 50.2269C207.216 53.9325 208.814 58.1493 209.708 62.8771C210.603 67.4771 211.05 72.2688 211.05 77.2522V139.928Z" fill="#FAFAFA"/>
<path d="M279.958 141.845C271.908 141.845 264.624 140.503 258.107 137.82C251.591 135.008 246.032 131.239 241.432 126.511C236.832 121.655 233.254 116.161 230.699 110.028C228.271 103.766 227.057 97.1858 227.057 90.2857C227.057 80.7023 229.165 71.9494 233.382 64.0271C237.727 56.1048 243.86 49.7797 251.782 45.0519C259.832 40.1963 269.288 37.7685 280.149 37.7685C291.138 37.7685 300.53 40.1963 308.325 45.0519C316.119 49.7797 322.061 56.1048 326.15 64.0271C330.366 71.8216 332.475 80.255 332.475 89.3273C332.475 90.8607 332.411 92.4579 332.283 94.1191C332.155 95.6524 332.028 96.9302 331.9 97.9524H254.274C254.785 103.064 256.255 107.536 258.682 111.369C261.238 115.203 264.432 118.142 268.266 120.186C272.227 122.103 276.444 123.061 280.916 123.061C286.027 123.061 290.819 121.847 295.291 119.419C299.891 116.864 303.022 113.541 304.683 109.453L326.725 115.586C324.297 120.697 320.783 125.233 316.183 129.194C311.711 133.156 306.408 136.286 300.275 138.586C294.141 140.758 287.369 141.845 279.958 141.845ZM253.699 81.6606H306.216C305.705 76.5494 304.236 72.1411 301.808 68.4355C299.508 64.6021 296.441 61.6632 292.608 59.6187C288.774 57.4465 284.494 56.3603 279.766 56.3603C275.166 56.3603 270.949 57.4465 267.116 59.6187C263.41 61.6632 260.344 64.6021 257.916 68.4355C255.616 72.1411 254.21 76.5494 253.699 81.6606Z" fill="#FAFAFA"/>
<path d="M341.221 110.219C341.221 103.702 343.01 98.0163 346.588 93.1607C350.294 88.1773 355.405 84.344 361.921 81.6606C368.438 78.9772 375.913 77.6356 384.347 77.6356C388.563 77.6356 392.844 77.955 397.188 78.5939C401.533 79.2328 405.302 80.255 408.497 81.6606V76.2939C408.497 69.9049 406.58 64.9854 402.747 61.5354C399.041 58.0854 393.483 56.3603 386.072 56.3603C380.577 56.3603 375.338 57.3187 370.355 59.2354C365.371 61.1521 360.133 63.9632 354.638 67.6688L346.396 50.802C353.041 46.4575 359.813 43.1991 366.713 41.0269C373.741 38.8546 381.088 37.7685 388.755 37.7685C403.066 37.7685 414.183 41.3463 422.105 48.5019C430.155 55.6576 434.18 65.8799 434.18 79.1689V111.178C434.18 113.861 434.628 115.778 435.522 116.928C436.544 118.078 438.142 118.78 440.314 119.036V139.928C438.014 140.311 435.905 140.631 433.989 140.886C432.2 141.142 430.667 141.27 429.389 141.27C424.278 141.27 420.38 140.12 417.697 137.82C415.141 135.519 413.544 132.708 412.905 129.386L412.33 124.211C407.986 129.833 402.555 134.178 396.038 137.245C389.522 140.311 382.877 141.845 376.105 141.845C369.46 141.845 363.455 140.503 358.088 137.82C352.849 135.008 348.696 131.239 345.63 126.511C342.691 121.655 341.221 116.225 341.221 110.219ZM403.705 115.394C405.111 113.861 406.261 112.328 407.155 110.794C408.05 109.261 408.497 107.855 408.497 106.578V96.4191C405.43 95.1413 402.108 94.1829 398.53 93.5441C394.952 92.7774 391.566 92.394 388.372 92.394C381.727 92.394 376.233 93.8635 371.888 96.8024C367.671 99.6136 365.563 103.383 365.563 108.111C365.563 110.666 366.266 113.094 367.671 115.394C369.077 117.694 371.122 119.547 373.805 120.953C376.488 122.358 379.683 123.061 383.388 123.061C387.222 123.061 390.991 122.358 394.697 120.953C398.402 119.419 401.405 117.567 403.705 115.394Z" fill="#FAFAFA"/>
<path d="M518.365 141.845C510.57 141.845 503.67 140.12 497.665 136.669C491.787 133.092 487.187 128.3 483.865 122.294V180.753H458.181V39.4935H480.606V56.7437C484.44 50.8658 489.295 46.2658 495.173 42.9435C501.051 39.4935 507.759 37.7685 515.298 37.7685C522.071 37.7685 528.268 39.1102 533.89 41.7935C539.64 44.4769 544.624 48.2464 548.84 53.102C553.057 57.8298 556.315 63.3243 558.615 69.5855C561.043 75.7189 562.257 82.3634 562.257 89.519C562.257 99.2302 560.34 108.047 556.507 115.969C552.801 123.892 547.626 130.217 540.982 134.944C534.465 139.545 526.926 141.845 518.365 141.845ZM509.74 119.994C513.701 119.994 517.279 119.164 520.473 117.503C523.668 115.842 526.415 113.605 528.715 110.794C531.143 107.855 532.932 104.597 534.082 101.019C535.36 97.3135 535.998 93.4802 535.998 89.519C535.998 85.3023 535.296 81.405 533.89 77.8272C532.612 74.2494 530.696 71.1188 528.14 68.4355C525.584 65.6243 522.582 63.4521 519.132 61.9187C515.809 60.3854 512.168 59.6187 508.207 59.6187C505.779 59.6187 503.287 60.0659 500.731 60.9604C498.304 61.7271 495.94 62.8771 493.64 64.4104C491.34 65.9438 489.295 67.7327 487.506 69.7771C485.845 71.8216 484.631 74.0577 483.865 76.4855V100.061C485.398 103.766 487.442 107.153 489.998 110.219C492.681 113.286 495.748 115.714 499.198 117.503C502.648 119.164 506.162 119.994 509.74 119.994Z" fill="#FAFAFA"/>
</svg>
