<svg width="381" height="90" viewBox="0 0 381 90" fill="none" xmlns="http://www.w3.org/2000/svg">
<path d="M42.4067 89.6325H0.766872C0.431405 89.6325 0.263672 89.4228 0.263672 89.0035L0.389472 0.5032C0.389472 0.167733 0.557205 0 0.892672 0H42.2809C42.6163 0 42.7841 0.209667 42.7841 0.629V15.0331C42.7841 15.3686 42.6163 15.5363 42.2809 15.5363H15.8629V35.6643H42.2809C42.6163 35.6643 42.7841 35.832 42.7841 36.1675L42.9099 50.7603C42.9099 51.0957 42.7421 51.2635 42.4067 51.2635H15.8629V73.7817H42.4067C42.7421 73.7817 42.9099 73.9913 42.9099 74.4107V89.1293C42.9099 89.4647 42.7421 89.6325 42.4067 89.6325Z" fill="#FAFAFA"/>
<path d="M123.777 89.6325H110.882C110.211 89.6325 109.876 89.3389 109.876 88.7519L109.75 1.0064C109.75 0.335467 110.085 0 110.756 0H122.393L144.156 50.7603L143.527 1.0064C143.527 0.335467 143.905 0 144.659 0H157.428C157.931 0 158.183 0.335467 158.183 1.0064L158.309 88.8777C158.309 89.3809 158.099 89.6325 157.68 89.6325H146.358L124.028 42.2059L124.972 88.6261C124.972 89.297 124.573 89.6325 123.777 89.6325Z" fill="#FAFAFA"/>
<path d="M254.963 89.6325H239.364C238.987 89.6325 238.777 89.4228 238.735 89.0035L220.934 0.5032C220.851 0.167733 221.018 0 221.438 0H236.03C236.366 0 236.576 0.167733 236.659 0.5032L247.227 59.5034L257.542 0.5032C257.626 0.167733 257.836 0 258.171 0H272.575C273.037 0 273.204 0.167733 273.078 0.5032L255.592 89.0035C255.55 89.4228 255.341 89.6325 254.963 89.6325Z" fill="#FAFAFA"/>
<path d="M362.877 89.6325H348.096C347.802 89.6325 347.655 89.4647 347.655 89.1293L347.781 52.5215L330.546 0.5032C330.463 0.167733 330.588 0 330.924 0H345.265C345.684 0 345.936 0.167733 346.02 0.5032L355.518 35.1611L365.204 0.5032C365.288 0.167733 365.498 0 365.833 0H380.3C380.636 0 380.762 0.167733 380.678 0.5032L363.254 52.0183L363.38 89.1293C363.38 89.4647 363.212 89.6325 362.877 89.6325Z" fill="#FAFAFA"/>
</svg>
