<svg width="44" height="11" viewBox="0 0 44 11" fill="none" xmlns="http://www.w3.org/2000/svg">
<path d="M5.05182 10.7307H0.346896C0.308991 10.7307 0.290039 10.707 0.290039 10.6596L0.304253 0.659884C0.304253 0.62198 0.323206 0.603027 0.36111 0.603027H5.03761C5.07551 0.603027 5.09447 0.626718 5.09447 0.674099V2.30163C5.09447 2.33954 5.07551 2.35849 5.03761 2.35849H2.05261V4.63278H5.03761C5.07551 4.63278 5.09447 4.65173 5.09447 4.68963L5.10868 6.33849C5.10868 6.3764 5.08973 6.39535 5.05182 6.39535H2.05261V8.93971H5.05182C5.08973 8.93971 5.10868 8.9634 5.10868 9.01078V10.6738C5.10868 10.7118 5.08973 10.7307 5.05182 10.7307Z" fill="#FAFAFA"/>
<path d="M14.2459 10.7307H12.7889C12.7131 10.7307 12.6752 10.6975 12.6752 10.6312L12.661 0.716742C12.661 0.640932 12.6989 0.603027 12.7747 0.603027H14.0896L16.5486 6.33849L16.4776 0.716742C16.4776 0.640932 16.5202 0.603027 16.6055 0.603027H18.0482C18.1051 0.603027 18.1335 0.640932 18.1335 0.716742L18.1477 10.6454C18.1477 10.7023 18.124 10.7307 18.0767 10.7307H16.7974L14.2743 5.37192L14.3809 10.617C14.3809 10.6928 14.3359 10.7307 14.2459 10.7307Z" fill="#FAFAFA"/>
<path d="M29.0688 10.7307H27.3063C27.2636 10.7307 27.2399 10.707 27.2352 10.6596L25.2239 0.659884C25.2144 0.62198 25.2334 0.603027 25.2807 0.603027H26.9296C26.9675 0.603027 26.9912 0.62198 27.0007 0.659884L28.1947 7.32639L29.3602 0.659884C29.3697 0.62198 29.3934 0.603027 29.4313 0.603027H31.0588C31.111 0.603027 31.1299 0.62198 31.1157 0.659884L29.1399 10.6596C29.1352 10.707 29.1115 10.7307 29.0688 10.7307Z" fill="#FAFAFA"/>
<path d="M41.2621 10.7307H39.592C39.5588 10.7307 39.5422 10.7118 39.5422 10.6738L39.5564 6.53749L37.6091 0.659884C37.5996 0.62198 37.6138 0.603027 37.6517 0.603027H39.2721C39.3195 0.603027 39.348 0.62198 39.3574 0.659884L40.4306 4.57592L41.5251 0.659884C41.5346 0.62198 41.5583 0.603027 41.5962 0.603027H43.2308C43.2687 0.603027 43.2829 0.62198 43.2735 0.659884L41.3048 6.48063L41.319 10.6738C41.319 10.7118 41.3001 10.7307 41.2621 10.7307Z" fill="#FAFAFA"/>
</svg>
