<svg width="58" height="24" viewBox="0 0 58 24" fill="none" xmlns="http://www.w3.org/2000/svg">
<path d="M27.5467 11.3093H28.0201V23.5474H27.5467V11.3093ZM27.7834 7.92427C27.6098 7.92427 27.4599 7.86115 27.3337 7.7349C27.2232 7.60865 27.168 7.46663 27.168 7.30882C27.168 7.13523 27.2232 6.9932 27.3337 6.88273C27.4599 6.75648 27.6098 6.69336 27.7834 6.69336C27.9412 6.69336 28.0833 6.75648 28.2095 6.88273C28.3358 6.9932 28.3989 7.13523 28.3989 7.30882C28.3989 7.46663 28.3358 7.60865 28.2095 7.7349C28.0833 7.86115 27.9412 7.92427 27.7834 7.92427Z" fill="#FAFAFA"/>
<path d="M6.45459 23.7607C5.38148 23.7607 4.32416 23.6423 3.28261 23.4056C2.24107 23.1531 1.40468 22.8296 0.773438 22.4351L2.12271 19.3578C2.70661 19.7207 3.40097 20.0127 4.2058 20.2336C5.01063 20.4388 5.80757 20.5413 6.59662 20.5413C7.32254 20.5413 7.83542 20.4703 8.13526 20.3283C8.45088 20.1705 8.60869 19.9496 8.60869 19.6655C8.60869 19.3814 8.41932 19.1842 8.04058 19.0737C7.67761 18.9475 7.09372 18.8291 6.28889 18.7186C5.26312 18.5924 4.38728 18.4267 3.66136 18.2215C2.95121 18.0164 2.33575 17.6376 1.81498 17.0853C1.29421 16.533 1.03382 15.7597 1.03382 14.7655C1.03382 13.9449 1.27843 13.219 1.76764 12.5877C2.25685 11.9407 2.96699 11.4357 3.89807 11.0728C4.84493 10.694 5.97327 10.5046 7.28309 10.5046C8.21417 10.5046 9.13735 10.5993 10.0526 10.7887C10.9679 10.9781 11.7333 11.2464 12.3488 11.5935L10.9995 14.6472C9.86328 14.0159 8.63236 13.7003 7.30676 13.7003C6.59662 13.7003 6.07584 13.7871 5.74444 13.9607C5.41304 14.1185 5.24734 14.3315 5.24734 14.5998C5.24734 14.8996 5.42882 15.1127 5.79179 15.2389C6.15475 15.3494 6.75443 15.4678 7.59082 15.594C8.64814 15.7518 9.52399 15.9333 10.2184 16.1385C10.9127 16.3436 11.5124 16.7224 12.0174 17.2747C12.5382 17.8112 12.7985 18.5687 12.7985 19.5471C12.7985 20.352 12.5539 21.0779 12.0647 21.7249C11.5755 22.3562 10.8496 22.8533 9.88695 23.2162C8.94009 23.5792 7.79597 23.7607 6.45459 23.7607Z" fill="#FAFAFA"/>
<path d="M14.7366 5.9834H19.2342V23.5476H14.7366V5.9834Z" fill="#FAFAFA"/>
<path d="M52.6467 10.5046C54.2248 10.5046 55.4794 10.9781 56.4104 11.9249C57.3573 12.8718 57.8307 14.3 57.8307 16.2095V23.5476H53.3331V16.9433C53.3331 16.0438 53.1596 15.381 52.8124 14.9549C52.481 14.5288 52.0075 14.3158 51.3921 14.3158C50.7135 14.3158 50.1691 14.5525 49.7587 15.0259C49.3484 15.4993 49.1433 16.2174 49.1433 17.18V23.5476H44.6457V16.9433C44.6457 15.1916 43.9987 14.3158 42.7047 14.3158C42.0103 14.3158 41.458 14.5525 41.0476 15.0259C40.6373 15.4993 40.4322 16.2174 40.4322 17.18V23.5476H35.9346V10.7177H40.2192V12.067C40.6926 11.5462 41.2528 11.1596 41.8998 10.9071C42.5626 10.6388 43.2807 10.5046 44.0539 10.5046C44.9534 10.5046 45.7583 10.6703 46.4684 11.0017C47.1786 11.3331 47.7546 11.8381 48.1964 12.5167C48.7014 11.8697 49.3406 11.3726 50.1138 11.0254C50.8871 10.6782 51.7314 10.5046 52.6467 10.5046Z" fill="#FAFAFA"/>
<circle cx="27.7966" cy="6.82638" r="4.53283" fill="#FAFAFA" stroke="#010A1D" stroke-width="2.61897"/>
</svg>
