<svg width="111" height="36" viewBox="0 0 111 36" fill="none" xmlns="http://www.w3.org/2000/svg">
<mask id="path-1-outside-1_1641_80" maskUnits="userSpaceOnUse" x="-0.673828" y="-0.396973" width="112" height="19" fill="black">
<rect fill="white" x="-0.673828" y="-0.396973" width="112" height="19"/>
<path d="M11.6971 16.5485H9.57685C9.38322 16.5485 9.23316 16.6066 9.12666 16.7227C9.02016 16.8292 8.96691 16.9599 8.96691 17.1148C8.96691 17.2794 9.025 17.4246 9.14118 17.5505C9.25736 17.6764 9.42194 17.7393 9.63494 17.7393H14.6451C14.8387 17.7393 14.9888 17.6812 15.0953 17.565C15.2018 17.4392 15.2551 17.2939 15.2551 17.1294C15.2551 16.9745 15.2018 16.8389 15.0953 16.7227C14.9985 16.6066 14.8581 16.5485 14.6742 16.5485H13.0912V9.99893C13.0912 8.70161 12.7524 7.69957 12.0747 6.99282C11.397 6.28607 10.3756 5.9327 9.01048 5.9327C8.36182 5.9327 7.72768 6.04403 7.10807 6.26671C6.49813 6.48938 5.96081 6.79435 5.4961 7.18161C5.03138 7.55919 4.67801 7.98517 4.43597 8.45957V1.1694C4.43597 0.791817 4.2375 0.603027 3.84056 0.603027C3.80183 0.603027 3.70502 0.612709 3.55011 0.632072L0.805406 0.907995C0.650502 0.917676 0.529483 0.985447 0.44235 1.11131C0.364898 1.23717 0.326172 1.36787 0.326172 1.50341C0.326172 1.65831 0.37942 1.78901 0.485917 1.89551C0.592413 1.99232 0.727954 2.03589 0.89254 2.02621L3.04183 1.89551V16.5485H1.47343C1.2798 16.5485 1.12974 16.6066 1.02324 16.7227C0.916744 16.8292 0.863495 16.9599 0.863495 17.1148C0.863495 17.2794 0.921584 17.4246 1.03776 17.5505C1.15394 17.6764 1.31853 17.7393 1.53152 17.7393H5.93176C6.15444 17.7393 6.3287 17.6812 6.45456 17.565C6.59011 17.4392 6.65788 17.2939 6.65788 17.1294C6.65788 16.9745 6.59495 16.8389 6.46909 16.7227C6.35291 16.6066 6.18348 16.5485 5.96081 16.5485H4.43597V10.5217C4.43597 10.0086 4.63444 9.48581 5.03138 8.95333C5.42832 8.42084 5.98017 7.98517 6.68692 7.64632C7.40335 7.29779 8.20208 7.12352 9.08309 7.12352C9.94475 7.12352 10.5934 7.36556 11.0291 7.84963C11.4744 8.33371 11.6971 9.01625 11.6971 9.89727V16.5485Z"/>
<path d="M30.001 10.9138L28.9408 10.9864C27.3627 11.0929 26.1041 11.2285 25.165 11.3931C24.2356 11.5576 23.4514 11.8965 22.8124 12.4096C22.1735 12.9227 21.854 13.6827 21.854 14.6896C21.854 15.6868 22.1589 16.4855 22.7689 17.0858C23.3788 17.6764 24.2259 17.9716 25.3103 17.9716C26.3171 17.9716 27.2466 17.7925 28.0985 17.4343C28.9602 17.0761 29.6282 16.6308 30.1026 16.0983C30.2188 16.7857 30.4463 17.2504 30.7852 17.4924C31.124 17.7248 31.5403 17.8409 32.0341 17.8409C32.4697 17.8409 32.886 17.749 33.283 17.565C33.6896 17.3714 34.0478 17.11 34.3576 16.7808C34.4544 16.684 34.5028 16.563 34.5028 16.4178C34.5028 16.2629 34.4496 16.1225 34.3431 15.9966C34.2366 15.8708 34.1107 15.8078 33.9655 15.8078C33.8397 15.8078 33.7235 15.8659 33.617 15.9821C33.4524 16.1564 33.2297 16.3209 32.949 16.4759C32.6682 16.6211 32.402 16.6937 32.1502 16.6937C31.9179 16.6937 31.7339 16.6356 31.5984 16.5194C31.4629 16.3936 31.3951 16.1612 31.3951 15.8224V11.2914C31.3951 10.1103 31.2692 9.13243 31.0175 8.35791C30.7658 7.57371 30.3204 6.97346 29.6815 6.55715C29.0522 6.14085 28.1808 5.9327 27.0675 5.9327C26.0799 5.9327 25.2038 6.0634 24.4389 6.3248C23.6741 6.5862 23.0787 6.94925 22.6527 7.41397C22.2267 7.87868 22.0137 8.40148 22.0137 8.98237C22.0137 9.29218 22.0863 9.5439 22.2315 9.73753C22.3864 9.93116 22.6043 10.028 22.885 10.028C23.2142 10.028 23.4466 9.83918 23.5821 9.4616C23.7177 9.08402 23.8048 8.5225 23.8435 7.77702C24.3566 7.54467 24.8649 7.38008 25.3684 7.28327C25.8815 7.17677 26.443 7.12352 27.0529 7.12352C28.1373 7.12352 28.8973 7.42365 29.3329 8.0239C29.7783 8.62415 30.001 9.49065 30.001 10.6234V10.9138ZM30.001 14.9946C29.4781 15.5464 28.8053 15.9869 27.9824 16.3161C27.1691 16.6356 26.3317 16.7953 25.47 16.7953C24.802 16.7953 24.2647 16.6308 23.858 16.3016C23.4611 15.9627 23.2626 15.4254 23.2626 14.6896C23.2626 14.0119 23.495 13.4988 23.9597 13.1503C24.4244 12.8017 25.0489 12.5597 25.8331 12.4241C26.6269 12.2789 27.8178 12.1289 29.4055 11.974L30.001 11.9159V14.9946Z"/>
<path d="M50.6574 16.5485H48.5372C48.3435 16.5485 48.1935 16.6066 48.087 16.7227C47.9805 16.8292 47.9272 16.9599 47.9272 17.1148C47.9272 17.2794 47.9853 17.4246 48.1015 17.5505C48.2177 17.6764 48.3823 17.7393 48.5952 17.7393H53.6054C53.7991 17.7393 53.9491 17.6812 54.0556 17.565C54.1621 17.4392 54.2154 17.2939 54.2154 17.1294C54.2154 16.9745 54.1621 16.8389 54.0556 16.7227C53.9588 16.6066 53.8184 16.5485 53.6345 16.5485H52.0515V9.99893C52.0515 8.70161 51.7127 7.69957 51.035 6.99282C50.3573 6.28607 49.3359 5.9327 47.9708 5.9327C47.3124 5.9327 46.6735 6.04403 46.0539 6.26671C45.4342 6.48938 44.8872 6.79435 44.4128 7.18161C43.9384 7.55919 43.5802 7.98517 43.3382 8.45957L43.2656 6.7169C43.2462 6.33932 43.0574 6.15053 42.6992 6.15053C42.6605 6.15053 42.5734 6.16021 42.4378 6.17957L40.0562 6.65881C39.8916 6.69753 39.7706 6.77499 39.6931 6.89116C39.6157 6.99766 39.5769 7.11868 39.5769 7.25422C39.5769 7.40912 39.6302 7.53982 39.7367 7.64632C39.8432 7.75282 39.9787 7.80607 40.1433 7.80607C40.2401 7.80607 40.3369 7.79154 40.4337 7.7625L42.0021 7.44301V16.5485H40.4337C40.2401 16.5485 40.09 16.6066 39.9835 16.7227C39.8771 16.8292 39.8238 16.9599 39.8238 17.1148C39.8238 17.2794 39.8819 17.4246 39.9981 17.5505C40.1143 17.6764 40.2788 17.7393 40.4918 17.7393H44.8921C45.1147 17.7393 45.289 17.6812 45.4149 17.565C45.5504 17.4392 45.6182 17.2939 45.6182 17.1294C45.6182 16.9745 45.5553 16.8389 45.4294 16.7227C45.3132 16.6066 45.1438 16.5485 44.9211 16.5485H43.3963V10.4346C43.3963 9.93116 43.5947 9.42288 43.9917 8.90976C44.3886 8.39664 44.9405 7.97065 45.6472 7.6318C46.3637 7.29295 47.1624 7.12352 48.0434 7.12352C48.9051 7.12352 49.5537 7.36556 49.9894 7.84963C50.4347 8.33371 50.6574 9.01625 50.6574 9.89727V16.5485Z"/>
<path d="M79.7426 11.8287C79.7426 13.097 80.0185 14.1959 80.5704 15.1253C81.1222 16.045 81.8919 16.7518 82.8794 17.2455C83.8766 17.7393 85.0238 17.9862 86.3212 17.9862C87.1441 17.9862 88.0251 17.8264 88.9642 17.5069C89.913 17.1874 90.6391 16.7566 91.1426 16.2145C91.3168 16.0208 91.404 15.8175 91.404 15.6045C91.404 15.4303 91.3507 15.2802 91.2442 15.1543C91.1377 15.0285 90.9973 14.9655 90.8231 14.9655C90.6294 14.9655 90.431 15.0478 90.2277 15.2124C89.6758 15.7352 89.0465 16.1322 88.3398 16.4032C87.6427 16.6646 86.9311 16.7953 86.205 16.7953C84.714 16.7953 83.5087 16.3984 82.5889 15.6045C81.6692 14.8106 81.1851 13.6489 81.1367 12.1192L90.2712 12.0466C90.6101 12.0466 90.8811 11.9304 91.0845 11.698C91.2878 11.456 91.3894 11.151 91.3894 10.7831C91.3894 9.74721 91.1619 8.86619 90.7069 8.14008C90.2615 7.41397 89.6419 6.86696 88.848 6.49906C88.0638 6.12148 87.1683 5.9327 86.1614 5.9327C84.9803 5.9327 83.9008 6.16989 82.923 6.64429C81.9548 7.11868 81.1803 7.80123 80.5994 8.69192C80.0282 9.58262 79.7426 10.6282 79.7426 11.8287ZM86.1905 7.12352C87.7008 7.12352 88.7222 7.50594 89.2547 8.27078C89.7871 9.03562 90.0873 9.94084 90.155 10.9864L81.1803 11.0445C81.3546 9.8053 81.8774 8.84199 82.7487 8.1546C83.6297 7.46721 84.777 7.12352 86.1905 7.12352Z"/>
<path d="M109.519 8.86619C109.519 9.10823 109.587 9.29702 109.722 9.43256C109.858 9.55842 110.018 9.62135 110.202 9.62135C110.395 9.62135 110.56 9.55358 110.695 9.41804C110.841 9.27281 110.913 9.0695 110.913 8.8081V6.80403C110.913 6.51359 110.816 6.29575 110.623 6.15053C110.429 6.00531 110.1 5.9327 109.635 5.9327C106.944 5.9327 105.046 6.77983 103.942 8.47409L103.884 6.96378C103.875 6.69269 103.831 6.48938 103.754 6.35384C103.686 6.2183 103.546 6.15053 103.333 6.15053C103.236 6.15053 103.124 6.16505 102.999 6.1941L100.515 6.68785C100.38 6.7169 100.273 6.78467 100.196 6.89116C100.118 6.98798 100.08 7.10416 100.08 7.2397C100.08 7.3946 100.128 7.53014 100.225 7.64632C100.331 7.7625 100.476 7.82059 100.66 7.82059C100.738 7.82059 100.796 7.81575 100.835 7.80607L102.606 7.44301V16.5485H99.9489C99.7552 16.5485 99.6052 16.6066 99.4987 16.7227C99.3922 16.8389 99.3389 16.9745 99.3389 17.1294C99.3389 17.2939 99.397 17.4392 99.5132 17.565C99.6294 17.6812 99.7939 17.7393 100.007 17.7393H108.866C109.049 17.7393 109.195 17.6812 109.301 17.565C109.408 17.4392 109.461 17.2988 109.461 17.1439C109.461 16.9793 109.408 16.8389 109.301 16.7227C109.204 16.6066 109.064 16.5485 108.88 16.5485H104.001V10.1006C104.388 9.13243 105.08 8.39664 106.077 7.8932C107.074 7.38008 108.222 7.12352 109.519 7.12352V8.86619Z"/>
</mask>
<path d="M11.6971 16.5485H9.57685C9.38322 16.5485 9.23316 16.6066 9.12666 16.7227C9.02016 16.8292 8.96691 16.9599 8.96691 17.1148C8.96691 17.2794 9.025 17.4246 9.14118 17.5505C9.25736 17.6764 9.42194 17.7393 9.63494 17.7393H14.6451C14.8387 17.7393 14.9888 17.6812 15.0953 17.565C15.2018 17.4392 15.2551 17.2939 15.2551 17.1294C15.2551 16.9745 15.2018 16.8389 15.0953 16.7227C14.9985 16.6066 14.8581 16.5485 14.6742 16.5485H13.0912V9.99893C13.0912 8.70161 12.7524 7.69957 12.0747 6.99282C11.397 6.28607 10.3756 5.9327 9.01048 5.9327C8.36182 5.9327 7.72768 6.04403 7.10807 6.26671C6.49813 6.48938 5.96081 6.79435 5.4961 7.18161C5.03138 7.55919 4.67801 7.98517 4.43597 8.45957V1.1694C4.43597 0.791817 4.2375 0.603027 3.84056 0.603027C3.80183 0.603027 3.70502 0.612709 3.55011 0.632072L0.805406 0.907995C0.650502 0.917676 0.529483 0.985447 0.44235 1.11131C0.364898 1.23717 0.326172 1.36787 0.326172 1.50341C0.326172 1.65831 0.37942 1.78901 0.485917 1.89551C0.592413 1.99232 0.727954 2.03589 0.89254 2.02621L3.04183 1.89551V16.5485H1.47343C1.2798 16.5485 1.12974 16.6066 1.02324 16.7227C0.916744 16.8292 0.863495 16.9599 0.863495 17.1148C0.863495 17.2794 0.921584 17.4246 1.03776 17.5505C1.15394 17.6764 1.31853 17.7393 1.53152 17.7393H5.93176C6.15444 17.7393 6.3287 17.6812 6.45456 17.565C6.59011 17.4392 6.65788 17.2939 6.65788 17.1294C6.65788 16.9745 6.59495 16.8389 6.46909 16.7227C6.35291 16.6066 6.18348 16.5485 5.96081 16.5485H4.43597V10.5217C4.43597 10.0086 4.63444 9.48581 5.03138 8.95333C5.42832 8.42084 5.98017 7.98517 6.68692 7.64632C7.40335 7.29779 8.20208 7.12352 9.08309 7.12352C9.94475 7.12352 10.5934 7.36556 11.0291 7.84963C11.4744 8.33371 11.6971 9.01625 11.6971 9.89727V16.5485Z" fill="#FAFAFA"/>
<path d="M30.001 10.9138L28.9408 10.9864C27.3627 11.0929 26.1041 11.2285 25.165 11.3931C24.2356 11.5576 23.4514 11.8965 22.8124 12.4096C22.1735 12.9227 21.854 13.6827 21.854 14.6896C21.854 15.6868 22.1589 16.4855 22.7689 17.0858C23.3788 17.6764 24.2259 17.9716 25.3103 17.9716C26.3171 17.9716 27.2466 17.7925 28.0985 17.4343C28.9602 17.0761 29.6282 16.6308 30.1026 16.0983C30.2188 16.7857 30.4463 17.2504 30.7852 17.4924C31.124 17.7248 31.5403 17.8409 32.0341 17.8409C32.4697 17.8409 32.886 17.749 33.283 17.565C33.6896 17.3714 34.0478 17.11 34.3576 16.7808C34.4544 16.684 34.5028 16.563 34.5028 16.4178C34.5028 16.2629 34.4496 16.1225 34.3431 15.9966C34.2366 15.8708 34.1107 15.8078 33.9655 15.8078C33.8397 15.8078 33.7235 15.8659 33.617 15.9821C33.4524 16.1564 33.2297 16.3209 32.949 16.4759C32.6682 16.6211 32.402 16.6937 32.1502 16.6937C31.9179 16.6937 31.7339 16.6356 31.5984 16.5194C31.4629 16.3936 31.3951 16.1612 31.3951 15.8224V11.2914C31.3951 10.1103 31.2692 9.13243 31.0175 8.35791C30.7658 7.57371 30.3204 6.97346 29.6815 6.55715C29.0522 6.14085 28.1808 5.9327 27.0675 5.9327C26.0799 5.9327 25.2038 6.0634 24.4389 6.3248C23.6741 6.5862 23.0787 6.94925 22.6527 7.41397C22.2267 7.87868 22.0137 8.40148 22.0137 8.98237C22.0137 9.29218 22.0863 9.5439 22.2315 9.73753C22.3864 9.93116 22.6043 10.028 22.885 10.028C23.2142 10.028 23.4466 9.83918 23.5821 9.4616C23.7177 9.08402 23.8048 8.5225 23.8435 7.77702C24.3566 7.54467 24.8649 7.38008 25.3684 7.28327C25.8815 7.17677 26.443 7.12352 27.0529 7.12352C28.1373 7.12352 28.8973 7.42365 29.3329 8.0239C29.7783 8.62415 30.001 9.49065 30.001 10.6234V10.9138ZM30.001 14.9946C29.4781 15.5464 28.8053 15.9869 27.9824 16.3161C27.1691 16.6356 26.3317 16.7953 25.47 16.7953C24.802 16.7953 24.2647 16.6308 23.858 16.3016C23.4611 15.9627 23.2626 15.4254 23.2626 14.6896C23.2626 14.0119 23.495 13.4988 23.9597 13.1503C24.4244 12.8017 25.0489 12.5597 25.8331 12.4241C26.6269 12.2789 27.8178 12.1289 29.4055 11.974L30.001 11.9159V14.9946Z" fill="#FAFAFA"/>
<path d="M50.6574 16.5485H48.5372C48.3435 16.5485 48.1935 16.6066 48.087 16.7227C47.9805 16.8292 47.9272 16.9599 47.9272 17.1148C47.9272 17.2794 47.9853 17.4246 48.1015 17.5505C48.2177 17.6764 48.3823 17.7393 48.5952 17.7393H53.6054C53.7991 17.7393 53.9491 17.6812 54.0556 17.565C54.1621 17.4392 54.2154 17.2939 54.2154 17.1294C54.2154 16.9745 54.1621 16.8389 54.0556 16.7227C53.9588 16.6066 53.8184 16.5485 53.6345 16.5485H52.0515V9.99893C52.0515 8.70161 51.7127 7.69957 51.035 6.99282C50.3573 6.28607 49.3359 5.9327 47.9708 5.9327C47.3124 5.9327 46.6735 6.04403 46.0539 6.26671C45.4342 6.48938 44.8872 6.79435 44.4128 7.18161C43.9384 7.55919 43.5802 7.98517 43.3382 8.45957L43.2656 6.7169C43.2462 6.33932 43.0574 6.15053 42.6992 6.15053C42.6605 6.15053 42.5734 6.16021 42.4378 6.17957L40.0562 6.65881C39.8916 6.69753 39.7706 6.77499 39.6931 6.89116C39.6157 6.99766 39.5769 7.11868 39.5769 7.25422C39.5769 7.40912 39.6302 7.53982 39.7367 7.64632C39.8432 7.75282 39.9787 7.80607 40.1433 7.80607C40.2401 7.80607 40.3369 7.79154 40.4337 7.7625L42.0021 7.44301V16.5485H40.4337C40.2401 16.5485 40.09 16.6066 39.9835 16.7227C39.8771 16.8292 39.8238 16.9599 39.8238 17.1148C39.8238 17.2794 39.8819 17.4246 39.9981 17.5505C40.1143 17.6764 40.2788 17.7393 40.4918 17.7393H44.8921C45.1147 17.7393 45.289 17.6812 45.4149 17.565C45.5504 17.4392 45.6182 17.2939 45.6182 17.1294C45.6182 16.9745 45.5553 16.8389 45.4294 16.7227C45.3132 16.6066 45.1438 16.5485 44.9211 16.5485H43.3963V10.4346C43.3963 9.93116 43.5947 9.42288 43.9917 8.90976C44.3886 8.39664 44.9405 7.97065 45.6472 7.6318C46.3637 7.29295 47.1624 7.12352 48.0434 7.12352C48.9051 7.12352 49.5537 7.36556 49.9894 7.84963C50.4347 8.33371 50.6574 9.01625 50.6574 9.89727V16.5485Z" fill="#FAFAFA"/>
<path d="M79.7426 11.8287C79.7426 13.097 80.0185 14.1959 80.5704 15.1253C81.1222 16.045 81.8919 16.7518 82.8794 17.2455C83.8766 17.7393 85.0238 17.9862 86.3212 17.9862C87.1441 17.9862 88.0251 17.8264 88.9642 17.5069C89.913 17.1874 90.6391 16.7566 91.1426 16.2145C91.3168 16.0208 91.404 15.8175 91.404 15.6045C91.404 15.4303 91.3507 15.2802 91.2442 15.1543C91.1377 15.0285 90.9973 14.9655 90.8231 14.9655C90.6294 14.9655 90.431 15.0478 90.2277 15.2124C89.6758 15.7352 89.0465 16.1322 88.3398 16.4032C87.6427 16.6646 86.9311 16.7953 86.205 16.7953C84.714 16.7953 83.5087 16.3984 82.5889 15.6045C81.6692 14.8106 81.1851 13.6489 81.1367 12.1192L90.2712 12.0466C90.6101 12.0466 90.8811 11.9304 91.0845 11.698C91.2878 11.456 91.3894 11.151 91.3894 10.7831C91.3894 9.74721 91.1619 8.86619 90.7069 8.14008C90.2615 7.41397 89.6419 6.86696 88.848 6.49906C88.0638 6.12148 87.1683 5.9327 86.1614 5.9327C84.9803 5.9327 83.9008 6.16989 82.923 6.64429C81.9548 7.11868 81.1803 7.80123 80.5994 8.69192C80.0282 9.58262 79.7426 10.6282 79.7426 11.8287ZM86.1905 7.12352C87.7008 7.12352 88.7222 7.50594 89.2547 8.27078C89.7871 9.03562 90.0873 9.94084 90.155 10.9864L81.1803 11.0445C81.3546 9.8053 81.8774 8.84199 82.7487 8.1546C83.6297 7.46721 84.777 7.12352 86.1905 7.12352Z" fill="#FAFAFA"/>
<path d="M109.519 8.86619C109.519 9.10823 109.587 9.29702 109.722 9.43256C109.858 9.55842 110.018 9.62135 110.202 9.62135C110.395 9.62135 110.56 9.55358 110.695 9.41804C110.841 9.27281 110.913 9.0695 110.913 8.8081V6.80403C110.913 6.51359 110.816 6.29575 110.623 6.15053C110.429 6.00531 110.1 5.9327 109.635 5.9327C106.944 5.9327 105.046 6.77983 103.942 8.47409L103.884 6.96378C103.875 6.69269 103.831 6.48938 103.754 6.35384C103.686 6.2183 103.546 6.15053 103.333 6.15053C103.236 6.15053 103.124 6.16505 102.999 6.1941L100.515 6.68785C100.38 6.7169 100.273 6.78467 100.196 6.89116C100.118 6.98798 100.08 7.10416 100.08 7.2397C100.08 7.3946 100.128 7.53014 100.225 7.64632C100.331 7.7625 100.476 7.82059 100.66 7.82059C100.738 7.82059 100.796 7.81575 100.835 7.80607L102.606 7.44301V16.5485H99.9489C99.7552 16.5485 99.6052 16.6066 99.4987 16.7227C99.3922 16.8389 99.3389 16.9745 99.3389 17.1294C99.3389 17.2939 99.397 17.4392 99.5132 17.565C99.6294 17.6812 99.7939 17.7393 100.007 17.7393H108.866C109.049 17.7393 109.195 17.6812 109.301 17.565C109.408 17.4392 109.461 17.2988 109.461 17.1439C109.461 16.9793 109.408 16.8389 109.301 16.7227C109.204 16.6066 109.064 16.5485 108.88 16.5485H104.001V10.1006C104.388 9.13243 105.08 8.39664 106.077 7.8932C107.074 7.38008 108.222 7.12352 109.519 7.12352V8.86619Z" fill="#FAFAFA"/>
<path d="M11.6971 16.5485H9.57685C9.38322 16.5485 9.23316 16.6066 9.12666 16.7227C9.02016 16.8292 8.96691 16.9599 8.96691 17.1148C8.96691 17.2794 9.025 17.4246 9.14118 17.5505C9.25736 17.6764 9.42194 17.7393 9.63494 17.7393H14.6451C14.8387 17.7393 14.9888 17.6812 15.0953 17.565C15.2018 17.4392 15.2551 17.2939 15.2551 17.1294C15.2551 16.9745 15.2018 16.8389 15.0953 16.7227C14.9985 16.6066 14.8581 16.5485 14.6742 16.5485H13.0912V9.99893C13.0912 8.70161 12.7524 7.69957 12.0747 6.99282C11.397 6.28607 10.3756 5.9327 9.01048 5.9327C8.36182 5.9327 7.72768 6.04403 7.10807 6.26671C6.49813 6.48938 5.96081 6.79435 5.4961 7.18161C5.03138 7.55919 4.67801 7.98517 4.43597 8.45957V1.1694C4.43597 0.791817 4.2375 0.603027 3.84056 0.603027C3.80183 0.603027 3.70502 0.612709 3.55011 0.632072L0.805406 0.907995C0.650502 0.917676 0.529483 0.985447 0.44235 1.11131C0.364898 1.23717 0.326172 1.36787 0.326172 1.50341C0.326172 1.65831 0.37942 1.78901 0.485917 1.89551C0.592413 1.99232 0.727954 2.03589 0.89254 2.02621L3.04183 1.89551V16.5485H1.47343C1.2798 16.5485 1.12974 16.6066 1.02324 16.7227C0.916744 16.8292 0.863495 16.9599 0.863495 17.1148C0.863495 17.2794 0.921584 17.4246 1.03776 17.5505C1.15394 17.6764 1.31853 17.7393 1.53152 17.7393H5.93176C6.15444 17.7393 6.3287 17.6812 6.45456 17.565C6.59011 17.4392 6.65788 17.2939 6.65788 17.1294C6.65788 16.9745 6.59495 16.8389 6.46909 16.7227C6.35291 16.6066 6.18348 16.5485 5.96081 16.5485H4.43597V10.5217C4.43597 10.0086 4.63444 9.48581 5.03138 8.95333C5.42832 8.42084 5.98017 7.98517 6.68692 7.64632C7.40335 7.29779 8.20208 7.12352 9.08309 7.12352C9.94475 7.12352 10.5934 7.36556 11.0291 7.84963C11.4744 8.33371 11.6971 9.01625 11.6971 9.89727V16.5485Z" stroke="#FAFAFA" stroke-width="0.10073" mask="url(#path-1-outside-1_1641_80)"/>
<path d="M30.001 10.9138L28.9408 10.9864C27.3627 11.0929 26.1041 11.2285 25.165 11.3931C24.2356 11.5576 23.4514 11.8965 22.8124 12.4096C22.1735 12.9227 21.854 13.6827 21.854 14.6896C21.854 15.6868 22.1589 16.4855 22.7689 17.0858C23.3788 17.6764 24.2259 17.9716 25.3103 17.9716C26.3171 17.9716 27.2466 17.7925 28.0985 17.4343C28.9602 17.0761 29.6282 16.6308 30.1026 16.0983C30.2188 16.7857 30.4463 17.2504 30.7852 17.4924C31.124 17.7248 31.5403 17.8409 32.0341 17.8409C32.4697 17.8409 32.886 17.749 33.283 17.565C33.6896 17.3714 34.0478 17.11 34.3576 16.7808C34.4544 16.684 34.5028 16.563 34.5028 16.4178C34.5028 16.2629 34.4496 16.1225 34.3431 15.9966C34.2366 15.8708 34.1107 15.8078 33.9655 15.8078C33.8397 15.8078 33.7235 15.8659 33.617 15.9821C33.4524 16.1564 33.2297 16.3209 32.949 16.4759C32.6682 16.6211 32.402 16.6937 32.1502 16.6937C31.9179 16.6937 31.7339 16.6356 31.5984 16.5194C31.4629 16.3936 31.3951 16.1612 31.3951 15.8224V11.2914C31.3951 10.1103 31.2692 9.13243 31.0175 8.35791C30.7658 7.57371 30.3204 6.97346 29.6815 6.55715C29.0522 6.14085 28.1808 5.9327 27.0675 5.9327C26.0799 5.9327 25.2038 6.0634 24.4389 6.3248C23.6741 6.5862 23.0787 6.94925 22.6527 7.41397C22.2267 7.87868 22.0137 8.40148 22.0137 8.98237C22.0137 9.29218 22.0863 9.5439 22.2315 9.73753C22.3864 9.93116 22.6043 10.028 22.885 10.028C23.2142 10.028 23.4466 9.83918 23.5821 9.4616C23.7177 9.08402 23.8048 8.5225 23.8435 7.77702C24.3566 7.54467 24.8649 7.38008 25.3684 7.28327C25.8815 7.17677 26.443 7.12352 27.0529 7.12352C28.1373 7.12352 28.8973 7.42365 29.3329 8.0239C29.7783 8.62415 30.001 9.49065 30.001 10.6234V10.9138ZM30.001 14.9946C29.4781 15.5464 28.8053 15.9869 27.9824 16.3161C27.1691 16.6356 26.3317 16.7953 25.47 16.7953C24.802 16.7953 24.2647 16.6308 23.858 16.3016C23.4611 15.9627 23.2626 15.4254 23.2626 14.6896C23.2626 14.0119 23.495 13.4988 23.9597 13.1503C24.4244 12.8017 25.0489 12.5597 25.8331 12.4241C26.6269 12.2789 27.8178 12.1289 29.4055 11.974L30.001 11.9159V14.9946Z" stroke="#FAFAFA" stroke-width="0.10073" mask="url(#path-1-outside-1_1641_80)"/>
<path d="M50.6574 16.5485H48.5372C48.3435 16.5485 48.1935 16.6066 48.087 16.7227C47.9805 16.8292 47.9272 16.9599 47.9272 17.1148C47.9272 17.2794 47.9853 17.4246 48.1015 17.5505C48.2177 17.6764 48.3823 17.7393 48.5952 17.7393H53.6054C53.7991 17.7393 53.9491 17.6812 54.0556 17.565C54.1621 17.4392 54.2154 17.2939 54.2154 17.1294C54.2154 16.9745 54.1621 16.8389 54.0556 16.7227C53.9588 16.6066 53.8184 16.5485 53.6345 16.5485H52.0515V9.99893C52.0515 8.70161 51.7127 7.69957 51.035 6.99282C50.3573 6.28607 49.3359 5.9327 47.9708 5.9327C47.3124 5.9327 46.6735 6.04403 46.0539 6.26671C45.4342 6.48938 44.8872 6.79435 44.4128 7.18161C43.9384 7.55919 43.5802 7.98517 43.3382 8.45957L43.2656 6.7169C43.2462 6.33932 43.0574 6.15053 42.6992 6.15053C42.6605 6.15053 42.5734 6.16021 42.4378 6.17957L40.0562 6.65881C39.8916 6.69753 39.7706 6.77499 39.6931 6.89116C39.6157 6.99766 39.5769 7.11868 39.5769 7.25422C39.5769 7.40912 39.6302 7.53982 39.7367 7.64632C39.8432 7.75282 39.9787 7.80607 40.1433 7.80607C40.2401 7.80607 40.3369 7.79154 40.4337 7.7625L42.0021 7.44301V16.5485H40.4337C40.2401 16.5485 40.09 16.6066 39.9835 16.7227C39.8771 16.8292 39.8238 16.9599 39.8238 17.1148C39.8238 17.2794 39.8819 17.4246 39.9981 17.5505C40.1143 17.6764 40.2788 17.7393 40.4918 17.7393H44.8921C45.1147 17.7393 45.289 17.6812 45.4149 17.565C45.5504 17.4392 45.6182 17.2939 45.6182 17.1294C45.6182 16.9745 45.5553 16.8389 45.4294 16.7227C45.3132 16.6066 45.1438 16.5485 44.9211 16.5485H43.3963V10.4346C43.3963 9.93116 43.5947 9.42288 43.9917 8.90976C44.3886 8.39664 44.9405 7.97065 45.6472 7.6318C46.3637 7.29295 47.1624 7.12352 48.0434 7.12352C48.9051 7.12352 49.5537 7.36556 49.9894 7.84963C50.4347 8.33371 50.6574 9.01625 50.6574 9.89727V16.5485Z" stroke="#FAFAFA" stroke-width="0.10073" mask="url(#path-1-outside-1_1641_80)"/>
<path d="M79.7426 11.8287C79.7426 13.097 80.0185 14.1959 80.5704 15.1253C81.1222 16.045 81.8919 16.7518 82.8794 17.2455C83.8766 17.7393 85.0238 17.9862 86.3212 17.9862C87.1441 17.9862 88.0251 17.8264 88.9642 17.5069C89.913 17.1874 90.6391 16.7566 91.1426 16.2145C91.3168 16.0208 91.404 15.8175 91.404 15.6045C91.404 15.4303 91.3507 15.2802 91.2442 15.1543C91.1377 15.0285 90.9973 14.9655 90.8231 14.9655C90.6294 14.9655 90.431 15.0478 90.2277 15.2124C89.6758 15.7352 89.0465 16.1322 88.3398 16.4032C87.6427 16.6646 86.9311 16.7953 86.205 16.7953C84.714 16.7953 83.5087 16.3984 82.5889 15.6045C81.6692 14.8106 81.1851 13.6489 81.1367 12.1192L90.2712 12.0466C90.6101 12.0466 90.8811 11.9304 91.0845 11.698C91.2878 11.456 91.3894 11.151 91.3894 10.7831C91.3894 9.74721 91.1619 8.86619 90.7069 8.14008C90.2615 7.41397 89.6419 6.86696 88.848 6.49906C88.0638 6.12148 87.1683 5.9327 86.1614 5.9327C84.9803 5.9327 83.9008 6.16989 82.923 6.64429C81.9548 7.11868 81.1803 7.80123 80.5994 8.69192C80.0282 9.58262 79.7426 10.6282 79.7426 11.8287ZM86.1905 7.12352C87.7008 7.12352 88.7222 7.50594 89.2547 8.27078C89.7871 9.03562 90.0873 9.94084 90.155 10.9864L81.1803 11.0445C81.3546 9.8053 81.8774 8.84199 82.7487 8.1546C83.6297 7.46721 84.777 7.12352 86.1905 7.12352Z" stroke="#FAFAFA" stroke-width="0.10073" mask="url(#path-1-outside-1_1641_80)"/>
<path d="M109.519 8.86619C109.519 9.10823 109.587 9.29702 109.722 9.43256C109.858 9.55842 110.018 9.62135 110.202 9.62135C110.395 9.62135 110.56 9.55358 110.695 9.41804C110.841 9.27281 110.913 9.0695 110.913 8.8081V6.80403C110.913 6.51359 110.816 6.29575 110.623 6.15053C110.429 6.00531 110.1 5.9327 109.635 5.9327C106.944 5.9327 105.046 6.77983 103.942 8.47409L103.884 6.96378C103.875 6.69269 103.831 6.48938 103.754 6.35384C103.686 6.2183 103.546 6.15053 103.333 6.15053C103.236 6.15053 103.124 6.16505 102.999 6.1941L100.515 6.68785C100.38 6.7169 100.273 6.78467 100.196 6.89116C100.118 6.98798 100.08 7.10416 100.08 7.2397C100.08 7.3946 100.128 7.53014 100.225 7.64632C100.331 7.7625 100.476 7.82059 100.66 7.82059C100.738 7.82059 100.796 7.81575 100.835 7.80607L102.606 7.44301V16.5485H99.9489C99.7552 16.5485 99.6052 16.6066 99.4987 16.7227C99.3922 16.8389 99.3389 16.9745 99.3389 17.1294C99.3389 17.2939 99.397 17.4392 99.5132 17.565C99.6294 17.6812 99.7939 17.7393 100.007 17.7393H108.866C109.049 17.7393 109.195 17.6812 109.301 17.565C109.408 17.4392 109.461 17.2988 109.461 17.1439C109.461 16.9793 109.408 16.8389 109.301 16.7227C109.204 16.6066 109.064 16.5485 108.88 16.5485H104.001V10.1006C104.388 9.13243 105.08 8.39664 106.077 7.8932C107.074 7.38008 108.222 7.12352 109.519 7.12352V8.86619Z" stroke="#FAFAFA" stroke-width="0.10073" mask="url(#path-1-outside-1_1641_80)"/>
<path d="M64.0085 17.211C64.0085 17.211 60.0142 15.051 60.0142 11.784C60.0142 8.06371 63.03 5.04785 66.7503 5.04785C70.4705 5.04785 73.4864 7.31427 73.4864 11.784C73.4864 18.3442 43.3086 29.3489 43.3086 32.5312C43.3086 34.2489 43.7801 34.8552 45.6326 34.8552H89.8889C91.7413 34.8552 92.2128 34.2489 92.2128 32.5312C92.2128 30.8135 86.1439 27.2335 67.0556 18.8478" stroke="#FAFAFA" stroke-width="1.34722" stroke-linecap="round"/>
</svg>
