<svg width="113" height="19" viewBox="0 0 113 19" fill="none" xmlns="http://www.w3.org/2000/svg">
<path d="M41.2214 17.6037L47.5702 0.243652H51.1414L57.4902 17.6037H54.1174L52.7286 13.5861H45.9582L44.5446 17.6037H41.2214ZM46.8262 11.1061H51.8606L49.331 3.88927L46.8262 11.1061Z" fill="#FAFAFA"/>
<path d="M75.3118 17.6037L81.6606 0.243652H85.2318L91.5807 17.6037H88.2079L86.8191 13.5861H80.0486L78.635 17.6037H75.3118ZM80.9166 11.1061H85.9511L83.4214 3.88927L80.9166 11.1061Z" fill="#FAFAFA"/>
<path d="M92.5769 17.6037V0.243652H95.7514V17.6037H92.5769Z" fill="#FAFAFA"/>
<path d="M97.876 17.6037V0.243652H101.05L109.21 12.4701V0.243652H112.384V17.6037H109.21L101.05 5.40207V17.6037H97.876Z" fill="#FAFAFA"/>
<path d="M5.10121 17.6037V2.79806H0.0419922V0.243652H13.3596V2.79806H8.27562V17.6037H5.10121Z" fill="#FAFAFA"/>
<path fill-rule="evenodd" clip-rule="evenodd" d="M14.4712 17.6037V0.243652H20.8448C22.2336 0.243652 23.3744 0.483387 24.2672 0.962856C25.1766 1.42579 25.8544 2.06233 26.3008 2.87246C26.7472 3.66607 26.9704 4.5506 26.9704 5.52607C26.9704 6.58421 26.6894 7.55141 26.1272 8.42768C25.5816 9.30395 24.7219 9.94049 23.548 10.3373L27.144 17.6037H23.4984L20.2744 10.7589H17.6456V17.6037H14.4712ZM20.6464 8.42768H17.6456V2.89726H20.6216C21.7128 2.89726 22.4982 3.14526 22.9776 3.64127C23.4736 4.13727 23.7216 4.7986 23.7216 5.62527C23.7216 6.46848 23.4736 7.14635 22.9776 7.65888C22.4816 8.17142 21.7045 8.42768 20.6464 8.42768Z" fill="#FAFAFA"/>
<path d="M32.5661 17.6037V11.4285L26.7381 0.243652H30.3341L34.1782 8.25408L37.9974 0.243652H41.5438L35.7406 11.4285V17.6037H32.5661Z" fill="#FAFAFA"/>
<path d="M65.8863 0.483887C67.5231 0.483887 68.9533 0.855888 70.1767 1.59989C71.4002 2.34389 72.3509 3.37723 73.0287 4.6999C73.7066 6.03911 74.0455 7.59325 74.0455 9.36232C74.0455 11.1479 73.6983 12.7186 73.0039 14.0743C72.293 15.4466 71.2927 16.513 70.0031 17.2735C68.697 18.0506 67.1511 18.4391 65.3655 18.4391C63.3319 18.4391 61.6455 17.9514 60.3063 16.9759C58.9671 16.0005 58.0991 14.653 57.7023 12.9335H61.2487C61.5132 13.7437 61.9927 14.3719 62.6871 14.8183C63.3815 15.2813 64.2743 15.5127 65.3655 15.5127C67.1015 15.5127 68.4407 14.9589 69.3831 13.8511C70.3255 12.7599 70.7967 11.2554 70.7967 9.33752C70.7967 7.41964 70.3338 5.93164 69.4079 4.8735C68.4655 3.8319 67.1925 3.3111 65.5887 3.3111C64.018 3.3111 62.8359 3.7327 62.0423 4.5759C61.2322 5.43564 60.7444 6.55991 60.5791 7.94871H64.9687V10.3295H57.3799V0.781488H60.3063L60.5543 3.0631C61.1164 2.23643 61.8191 1.59989 62.6623 1.15349C63.5055 0.707088 64.5802 0.483887 65.8863 0.483887Z" fill="#FAFAFA"/>
</svg>
