<svg width="995" height="162" viewBox="0 0 995 162" fill="none" xmlns="http://www.w3.org/2000/svg">
<path d="M364.448 153.777L420.636 0.135742H452.243L508.431 153.777H478.581L466.29 118.22H406.37L393.859 153.777H364.448ZM414.052 96.271H458.608L436.22 32.4003L414.052 96.271Z" fill="#FAFAFA"/>
<path d="M666.157 153.777L722.345 0.135742H753.951L810.14 153.777H780.29L767.999 118.22H708.079L695.568 153.777H666.157ZM715.761 96.271H760.317L737.929 32.4003L715.761 96.271Z" fill="#FAFAFA"/>
<path d="M818.957 153.777V0.135742H847.052V153.777H818.957Z" fill="#FAFAFA"/>
<path d="M865.855 153.777V0.135742H893.95L966.161 108.343V0.135742H994.255V153.777H966.161L893.95 45.789V153.777H865.855Z" fill="#FAFAFA"/>
<path d="M44.7753 153.777V22.7429H0V0.135742H117.864V22.7429H72.8697V153.777H44.7753Z" fill="#FAFAFA"/>
<path fill-rule="evenodd" clip-rule="evenodd" d="M127.702 153.777V0.135742H184.11C196.401 0.135742 206.498 2.25745 214.399 6.50087C222.447 10.598 228.446 16.2315 232.397 23.4014C236.348 30.4249 238.323 38.2533 238.323 46.8865C238.323 56.2512 235.836 64.8112 230.861 72.5664C226.032 80.3216 218.423 85.9552 208.034 89.4669L239.86 153.777H207.595L179.062 93.1982H155.796V153.777H127.702ZM182.354 72.5664H155.796V23.6208H182.135C191.792 23.6208 198.743 25.8157 202.986 30.2055C207.376 34.5952 209.571 40.4482 209.571 47.7644C209.571 55.227 207.376 61.2263 202.986 65.7623C198.596 70.2984 191.719 72.5664 182.354 72.5664Z" fill="#FAFAFA"/>
<path d="M287.847 153.777V99.1244L236.267 0.135742H268.093L302.113 71.03L335.914 0.135742H367.301L315.941 99.1244V153.777H287.847Z" fill="#FAFAFA"/>
<path d="M582.741 2.26465C597.227 2.26465 609.884 5.55695 620.712 12.1416C631.54 18.7262 639.954 27.8715 645.953 39.5774C651.952 51.4297 654.952 65.1842 654.952 80.841C654.952 96.644 651.879 110.545 645.734 122.543C639.442 134.688 630.589 144.126 619.176 150.857C607.616 157.735 593.935 161.173 578.132 161.173C560.134 161.173 545.209 156.857 533.356 148.223C521.504 139.59 513.822 127.665 510.31 112.447H541.697C544.038 119.617 548.281 125.177 554.427 129.128C560.573 133.225 568.474 135.274 578.132 135.274C593.496 135.274 605.348 130.372 613.688 120.568C622.029 110.911 626.199 97.5951 626.199 80.6215C626.199 63.6478 622.102 50.4786 613.908 41.1138C605.567 31.8954 594.3 27.2862 580.107 27.2862C566.206 27.2862 555.744 31.0174 548.72 38.48C541.55 46.0889 537.234 56.039 535.771 68.3302H574.62V89.401H507.457V4.89849H533.356L535.551 25.0913C540.526 17.7751 546.745 12.1416 554.208 8.1908C561.67 4.24003 571.181 2.26465 582.741 2.26465Z" fill="#FAFAFA"/>
</svg>
